%TF.GenerationSoftware,KiCad,Pcbnew,(5.1.10)-1*%
%TF.CreationDate,2021-11-02T21:32:16-06:00*%
%TF.ProjectId,VColChoc44,56436f6c-4368-46f6-9334-342e6b696361,rev?*%
%TF.SameCoordinates,Original*%
%TF.FileFunction,Legend,Top*%
%TF.FilePolarity,Positive*%
%FSLAX46Y46*%
G04 Gerber Fmt 4.6, Leading zero omitted, Abs format (unit mm)*
G04 Created by KiCad (PCBNEW (5.1.10)-1) date 2021-11-02 21:32:16*
%MOMM*%
%LPD*%
G01*
G04 APERTURE LIST*
%ADD10C,0.120000*%
G04 APERTURE END LIST*
D10*
%TO.C,U44*%
X255184799Y-115476570D02*
X251344049Y-116153798D01*
X255532096Y-117446185D02*
X251691345Y-118123413D01*
X255184799Y-115476570D02*
X255532096Y-117446185D01*
%TO.C,U32*%
X233985799Y-98905570D02*
X230145049Y-99582798D01*
X234333096Y-100875185D02*
X230492345Y-101552413D01*
X233985799Y-98905570D02*
X234333096Y-100875185D01*
%TO.C,U43*%
X236937799Y-115647570D02*
X233097049Y-116324798D01*
X237285096Y-117617185D02*
X233444345Y-118294413D01*
X236937799Y-115647570D02*
X237285096Y-117617185D01*
%TO.C,U42*%
X218342799Y-113849570D02*
X214502049Y-114526798D01*
X218690096Y-115819185D02*
X214849345Y-116496413D01*
X218342799Y-113849570D02*
X218690096Y-115819185D01*
%TO.C,U41*%
X201657799Y-122883570D02*
X197817049Y-123560798D01*
X202005096Y-124853185D02*
X198164345Y-125530413D01*
X201657799Y-122883570D02*
X202005096Y-124853185D01*
%TO.C,U40*%
X184625799Y-129948570D02*
X180785049Y-130625798D01*
X184973096Y-131918185D02*
X181132345Y-132595413D01*
X184625799Y-129948570D02*
X184973096Y-131918185D01*
%TO.C,U39*%
X166551799Y-131104570D02*
X162711049Y-131781798D01*
X166899096Y-133074185D02*
X163058345Y-133751413D01*
X166551799Y-131104570D02*
X166899096Y-133074185D01*
%TO.C,U33*%
X252232799Y-98734570D02*
X248392049Y-99411798D01*
X252580096Y-100704185D02*
X248739345Y-101381413D01*
X252232799Y-98734570D02*
X252580096Y-100704185D01*
%TO.C,U31*%
X215390799Y-97107570D02*
X211550049Y-97784798D01*
X215738096Y-99077185D02*
X211897345Y-99754413D01*
X215390799Y-97107570D02*
X215738096Y-99077185D01*
%TO.C,U30*%
X198705799Y-106141570D02*
X194865049Y-106818798D01*
X199053096Y-108111185D02*
X195212345Y-108788413D01*
X198705799Y-106141570D02*
X199053096Y-108111185D01*
%TO.C,U29*%
X181673799Y-113206570D02*
X177833049Y-113883798D01*
X182021096Y-115176185D02*
X178180345Y-115853413D01*
X181673799Y-113206570D02*
X182021096Y-115176185D01*
%TO.C,U28*%
X163599799Y-114362570D02*
X159759049Y-115039798D01*
X163947096Y-116332185D02*
X160106345Y-117009413D01*
X163599799Y-114362570D02*
X163947096Y-116332185D01*
%TO.C,U38*%
X119805836Y-130729987D02*
X115965085Y-130052759D01*
X119458539Y-132699602D02*
X115617789Y-132022374D01*
X119805836Y-130729987D02*
X119458539Y-132699602D01*
%TO.C,U37*%
X102773636Y-123664987D02*
X98932885Y-122987759D01*
X102426339Y-125634602D02*
X98585589Y-124957374D01*
X102773636Y-123664987D02*
X102426339Y-125634602D01*
%TO.C,U36*%
X86089036Y-114630987D02*
X82248285Y-113953759D01*
X85741739Y-116600602D02*
X81900989Y-115923374D01*
X86089036Y-114630987D02*
X85741739Y-116600602D01*
%TO.C,U35*%
X67494236Y-116428987D02*
X63653485Y-115751759D01*
X67146939Y-118398602D02*
X63306189Y-117721374D01*
X67494236Y-116428987D02*
X67146939Y-118398602D01*
%TO.C,U34*%
X49246736Y-116257987D02*
X45405985Y-115580759D01*
X48899439Y-118227602D02*
X45058689Y-117550374D01*
X49246736Y-116257987D02*
X48899439Y-118227602D01*
%TO.C,U27*%
X122757836Y-113987987D02*
X118917085Y-113310759D01*
X122410539Y-115957602D02*
X118569789Y-115280374D01*
X122757836Y-113987987D02*
X122410539Y-115957602D01*
%TO.C,U26*%
X105725836Y-106922987D02*
X101885085Y-106245759D01*
X105378539Y-108892602D02*
X101537789Y-108215374D01*
X105725836Y-106922987D02*
X105378539Y-108892602D01*
%TO.C,U25*%
X89041036Y-97888987D02*
X85200285Y-97211759D01*
X88693739Y-99858602D02*
X84852989Y-99181374D01*
X89041036Y-97888987D02*
X88693739Y-99858602D01*
%TO.C,U24*%
X70446236Y-99686987D02*
X66605485Y-99009759D01*
X70098939Y-101656602D02*
X66258189Y-100979374D01*
X70446236Y-99686987D02*
X70098939Y-101656602D01*
%TO.C,U23*%
X52222671Y-99547462D02*
X48381920Y-98870234D01*
X51875374Y-101517077D02*
X48034624Y-100839849D01*
X52222671Y-99547462D02*
X51875374Y-101517077D01*
%TO.C,U22*%
X249280799Y-81992970D02*
X245440049Y-82670198D01*
X249628096Y-83962585D02*
X245787345Y-84639813D01*
X249280799Y-81992970D02*
X249628096Y-83962585D01*
%TO.C,U21*%
X231033799Y-82164170D02*
X227193049Y-82841398D01*
X231381096Y-84133785D02*
X227540345Y-84811013D01*
X231033799Y-82164170D02*
X231381096Y-84133785D01*
%TO.C,U20*%
X212438799Y-80365870D02*
X208598049Y-81043098D01*
X212786096Y-82335485D02*
X208945345Y-83012713D01*
X212438799Y-80365870D02*
X212786096Y-82335485D01*
%TO.C,U19*%
X195753799Y-89400370D02*
X191913049Y-90077598D01*
X196101096Y-91369985D02*
X192260345Y-92047213D01*
X195753799Y-89400370D02*
X196101096Y-91369985D01*
%TO.C,U18*%
X178721799Y-96465570D02*
X174881049Y-97142798D01*
X179069096Y-98435185D02*
X175228345Y-99112413D01*
X178721799Y-96465570D02*
X179069096Y-98435185D01*
%TO.C,U17*%
X137879836Y-131885987D02*
X134039085Y-131208759D01*
X137532539Y-133855602D02*
X133691789Y-133178374D01*
X137879836Y-131885987D02*
X137532539Y-133855602D01*
%TO.C,U16*%
X125709836Y-97246987D02*
X121869085Y-96569759D01*
X125362539Y-99216602D02*
X121521789Y-98539374D01*
X125709836Y-97246987D02*
X125362539Y-99216602D01*
%TO.C,U15*%
X108677836Y-90181787D02*
X104837085Y-89504559D01*
X108330539Y-92151402D02*
X104489789Y-91474174D01*
X108677836Y-90181787D02*
X108330539Y-92151402D01*
%TO.C,U14*%
X92013879Y-81168477D02*
X88173128Y-80491249D01*
X91666582Y-83138092D02*
X87825832Y-82460864D01*
X92013879Y-81168477D02*
X91666582Y-83138092D01*
%TO.C,U13*%
X73408373Y-82979786D02*
X69567622Y-82302558D01*
X73061076Y-84949401D02*
X69220326Y-84272173D01*
X73408373Y-82979786D02*
X73061076Y-84949401D01*
%TO.C,U11*%
X246328799Y-65251170D02*
X242488049Y-65928398D01*
X246676096Y-67220785D02*
X242835345Y-67898013D01*
X246328799Y-65251170D02*
X246676096Y-67220785D01*
%TO.C,U10*%
X228081799Y-65422470D02*
X224241049Y-66099698D01*
X228429096Y-67392085D02*
X224588345Y-68069313D01*
X228081799Y-65422470D02*
X228429096Y-67392085D01*
%TO.C,U9*%
X209486799Y-63624070D02*
X205646049Y-64301298D01*
X209834096Y-65593685D02*
X205993345Y-66270913D01*
X209486799Y-63624070D02*
X209834096Y-65593685D01*
%TO.C,U8*%
X192801799Y-72658570D02*
X188961049Y-73335798D01*
X193149096Y-74628185D02*
X189308345Y-75305413D01*
X192801799Y-72658570D02*
X193149096Y-74628185D01*
%TO.C,U7*%
X175769799Y-79723470D02*
X171929049Y-80400698D01*
X176117096Y-81693085D02*
X172276345Y-82370313D01*
X175769799Y-79723470D02*
X176117096Y-81693085D01*
%TO.C,U6*%
X140831836Y-115143987D02*
X136991085Y-114466759D01*
X140484539Y-117113602D02*
X136643789Y-116436374D01*
X140831836Y-115143987D02*
X140484539Y-117113602D01*
%TO.C,U5*%
X128661836Y-80504887D02*
X124821085Y-79827659D01*
X128314539Y-82474502D02*
X124473789Y-81797274D01*
X128661836Y-80504887D02*
X128314539Y-82474502D01*
%TO.C,U4*%
X111629836Y-73439987D02*
X107789085Y-72762759D01*
X111282539Y-75409602D02*
X107441789Y-74732374D01*
X111629836Y-73439987D02*
X111282539Y-75409602D01*
%TO.C,U3*%
X94945036Y-64405487D02*
X91104285Y-63728259D01*
X94597739Y-66375102D02*
X90756989Y-65697874D01*
X94945036Y-64405487D02*
X94597739Y-66375102D01*
%TO.C,U2*%
X76350236Y-66203887D02*
X72509485Y-65526659D01*
X76002939Y-68173502D02*
X72162189Y-67496274D01*
X76350236Y-66203887D02*
X76002939Y-68173502D01*
%TO.C,U12*%
X55150736Y-82774387D02*
X51309985Y-82097159D01*
X54803439Y-84744002D02*
X50962689Y-84066774D01*
X55150736Y-82774387D02*
X54803439Y-84744002D01*
%TO.C,U1*%
X58102836Y-66032587D02*
X54262085Y-65355359D01*
X57755539Y-68002202D02*
X53914789Y-67324974D01*
X58102836Y-66032587D02*
X57755539Y-68002202D01*
%TO.C,J3*%
X153921158Y-100959254D02*
X155230952Y-101190206D01*
X153690206Y-102269048D02*
X153921158Y-100959254D01*
X153469673Y-103519754D02*
X156089261Y-103981658D01*
X156089261Y-103981658D02*
X154755643Y-111544981D01*
X153469673Y-103519754D02*
X152136054Y-111083077D01*
X152136054Y-111083077D02*
X154755643Y-111544981D01*
%TO.C,J1*%
X160518187Y-76419746D02*
X161827981Y-76188794D01*
X160749139Y-77729540D02*
X160518187Y-76419746D01*
X160969672Y-78980246D02*
X163589260Y-78518342D01*
X163589260Y-78518342D02*
X164040746Y-81078842D01*
X160969672Y-78980246D02*
X161421157Y-81540746D01*
X161421157Y-81540746D02*
X164040746Y-81078842D01*
%TD*%
M02*
