%TF.GenerationSoftware,KiCad,Pcbnew,(5.1.10)-1*%
%TF.CreationDate,2021-10-03T17:33:34-06:00*%
%TF.ProjectId,VColMX44,56436f6c-4d58-4343-942e-6b696361645f,rev?*%
%TF.SameCoordinates,Original*%
%TF.FileFunction,Soldermask,Top*%
%TF.FilePolarity,Negative*%
%FSLAX46Y46*%
G04 Gerber Fmt 4.6, Leading zero omitted, Abs format (unit mm)*
G04 Created by KiCad (PCBNEW (5.1.10)-1) date 2021-10-03 17:33:34*
%MOMM*%
%LPD*%
G01*
G04 APERTURE LIST*
%ADD10C,0.900000*%
%ADD11R,0.600000X1.450000*%
%ADD12R,0.300000X1.450000*%
%ADD13O,1.000000X2.100000*%
%ADD14C,0.650000*%
%ADD15O,1.000000X1.600000*%
%ADD16C,1.701800*%
%ADD17C,3.000000*%
%ADD18C,3.429000*%
%ADD19C,0.990600*%
G04 APERTURE END LIST*
D10*
%TO.C,SW1*%
X164164541Y-102580092D03*
X164685486Y-105534516D03*
%TD*%
D11*
%TO.C,J1*%
X146750000Y-68045000D03*
X147550000Y-68045000D03*
X152450000Y-68045000D03*
X153250000Y-68045000D03*
X153250000Y-68045000D03*
X152450000Y-68045000D03*
X147550000Y-68045000D03*
X146750000Y-68045000D03*
D12*
X151750000Y-68045000D03*
X151250000Y-68045000D03*
X150750000Y-68045000D03*
X149750000Y-68045000D03*
X149250000Y-68045000D03*
X148750000Y-68045000D03*
X148250000Y-68045000D03*
X150250000Y-68045000D03*
D13*
X145680000Y-67130000D03*
X154320000Y-67130000D03*
D14*
X152890000Y-66600000D03*
D15*
X154320000Y-62950000D03*
D14*
X147110000Y-66600000D03*
D15*
X145680000Y-62950000D03*
%TD*%
D16*
%TO.C,U30*%
X192002557Y-112756065D03*
X202835443Y-110845935D03*
D17*
X193146142Y-116362270D03*
D18*
X197419000Y-111801000D03*
D17*
X198452207Y-117660606D03*
D19*
X201830374Y-106758364D03*
%TD*%
D16*
%TO.C,U41*%
X194954557Y-129498065D03*
X205787443Y-127587935D03*
D17*
X196098142Y-133104270D03*
D18*
X200371000Y-128543000D03*
D17*
X201404207Y-134402606D03*
D19*
X204782374Y-123500364D03*
%TD*%
D16*
%TO.C,U19*%
X189050557Y-96014865D03*
X199883443Y-94104735D03*
D17*
X190194142Y-99621070D03*
D18*
X194467000Y-95059800D03*
D17*
X195500207Y-100919406D03*
D19*
X198878374Y-90017164D03*
%TD*%
D16*
%TO.C,U8*%
X186098557Y-79273065D03*
X196931443Y-77362935D03*
D17*
X187242142Y-82879270D03*
D18*
X191515000Y-78318000D03*
D17*
X192548207Y-84177606D03*
D19*
X195926374Y-73275364D03*
%TD*%
D16*
%TO.C,U40*%
X177922557Y-136563065D03*
X188755443Y-134652935D03*
D17*
X179066142Y-140169270D03*
D18*
X183339000Y-135608000D03*
D17*
X184372207Y-141467606D03*
D19*
X187750374Y-130565364D03*
%TD*%
D16*
%TO.C,U29*%
X174970557Y-119821065D03*
X185803443Y-117910935D03*
D17*
X176114142Y-123427270D03*
D18*
X180387000Y-118866000D03*
D17*
X181420207Y-124725606D03*
D19*
X184798374Y-113823364D03*
%TD*%
D16*
%TO.C,U28*%
X156896557Y-120977065D03*
X167729443Y-119066935D03*
D17*
X158040142Y-124583270D03*
D18*
X162313000Y-120022000D03*
D17*
X163346207Y-125881606D03*
D19*
X166724374Y-114979364D03*
%TD*%
D16*
%TO.C,U39*%
X159848557Y-137719065D03*
X170681443Y-135808935D03*
D17*
X160992142Y-141325270D03*
D18*
X165265000Y-136764000D03*
D17*
X166298207Y-142623606D03*
D19*
X169676374Y-131721364D03*
%TD*%
D16*
%TO.C,U2*%
X67788957Y-70126835D03*
X78621843Y-72036965D03*
D17*
X67630181Y-73906688D03*
D18*
X73205400Y-71081900D03*
D17*
X72172193Y-76941506D03*
D19*
X79075419Y-67852151D03*
%TD*%
D16*
%TO.C,U1*%
X49541557Y-69955535D03*
X60374443Y-71865665D03*
D17*
X49382781Y-73735388D03*
D18*
X54958000Y-70910600D03*
D17*
X53924793Y-76770206D03*
D19*
X60828019Y-67680851D03*
%TD*%
D16*
%TO.C,U44*%
X248481557Y-122091065D03*
X259314443Y-120180935D03*
D17*
X249625142Y-125697270D03*
D18*
X253898000Y-121136000D03*
D17*
X254931207Y-126995606D03*
D19*
X258309374Y-116093364D03*
%TD*%
D16*
%TO.C,U43*%
X230234557Y-122262065D03*
X241067443Y-120351935D03*
D17*
X231378142Y-125868270D03*
D18*
X235651000Y-121307000D03*
D17*
X236684207Y-127166606D03*
D19*
X240062374Y-116264364D03*
%TD*%
D16*
%TO.C,U42*%
X211639557Y-120464065D03*
X222472443Y-118553935D03*
D17*
X212783142Y-124070270D03*
D18*
X217056000Y-119509000D03*
D17*
X218089207Y-125368606D03*
D19*
X221467374Y-114466364D03*
%TD*%
D16*
%TO.C,U38*%
X111244557Y-134652935D03*
X122077443Y-136563065D03*
D17*
X111085781Y-138432788D03*
D18*
X116661000Y-135608000D03*
D17*
X115627793Y-141467606D03*
D19*
X122531019Y-132378251D03*
%TD*%
D16*
%TO.C,U37*%
X94212357Y-127587935D03*
X105045243Y-129498065D03*
D17*
X94053581Y-131367788D03*
D18*
X99628800Y-128543000D03*
D17*
X98595593Y-134402606D03*
D19*
X105498819Y-125313251D03*
%TD*%
D16*
%TO.C,U36*%
X77527757Y-118553935D03*
X88360643Y-120464065D03*
D17*
X77368981Y-122333788D03*
D18*
X82944200Y-119509000D03*
D17*
X81910993Y-125368606D03*
D19*
X88814219Y-116279251D03*
%TD*%
D16*
%TO.C,U35*%
X58932957Y-120351935D03*
X69765843Y-122262065D03*
D17*
X58774181Y-124131788D03*
D18*
X64349400Y-121307000D03*
D17*
X63316193Y-127166606D03*
D19*
X70219419Y-118077251D03*
%TD*%
D16*
%TO.C,U34*%
X40685457Y-120180935D03*
X51518343Y-122091065D03*
D17*
X40526681Y-123960788D03*
D18*
X46101900Y-121136000D03*
D17*
X45068693Y-126995606D03*
D19*
X51971919Y-117906251D03*
%TD*%
D16*
%TO.C,U33*%
X245529557Y-105349065D03*
X256362443Y-103438935D03*
D17*
X246673142Y-108955270D03*
D18*
X250946000Y-104394000D03*
D17*
X251979207Y-110253606D03*
D19*
X255357374Y-99351364D03*
%TD*%
D16*
%TO.C,U32*%
X227282557Y-105520065D03*
X238115443Y-103609935D03*
D17*
X228426142Y-109126270D03*
D18*
X232699000Y-104565000D03*
D17*
X233732207Y-110424606D03*
D19*
X237110374Y-99522364D03*
%TD*%
D16*
%TO.C,U31*%
X208687557Y-103722065D03*
X219520443Y-101811935D03*
D17*
X209831142Y-107328270D03*
D18*
X214104000Y-102767000D03*
D17*
X215137207Y-108626606D03*
D19*
X218515374Y-97724364D03*
%TD*%
D16*
%TO.C,U27*%
X114196557Y-117910935D03*
X125029443Y-119821065D03*
D17*
X114037781Y-121690788D03*
D18*
X119613000Y-118866000D03*
D17*
X118579793Y-124725606D03*
D19*
X125483019Y-115636251D03*
%TD*%
D16*
%TO.C,U26*%
X97164557Y-110845935D03*
X107997443Y-112756065D03*
D17*
X97005781Y-114625788D03*
D18*
X102581000Y-111801000D03*
D17*
X101547793Y-117660606D03*
D19*
X108451019Y-108571251D03*
%TD*%
D16*
%TO.C,U25*%
X80479757Y-101811935D03*
X91312643Y-103722065D03*
D17*
X80320981Y-105591788D03*
D18*
X85896200Y-102767000D03*
D17*
X84862993Y-108626606D03*
D19*
X91766219Y-99537251D03*
%TD*%
D16*
%TO.C,U24*%
X61884957Y-103609935D03*
X72717843Y-105520065D03*
D17*
X61726181Y-107389788D03*
D18*
X67301400Y-104565000D03*
D17*
X66268193Y-110424606D03*
D19*
X73171419Y-101335251D03*
%TD*%
D16*
%TO.C,U23*%
X43637457Y-103438935D03*
X54470343Y-105349065D03*
D17*
X43478681Y-107218788D03*
D18*
X49053900Y-104394000D03*
D17*
X48020693Y-110253606D03*
D19*
X54923919Y-101164251D03*
%TD*%
D16*
%TO.C,U22*%
X242577557Y-88607465D03*
X253410443Y-86697335D03*
D17*
X243721142Y-92213670D03*
D18*
X247994000Y-87652400D03*
D17*
X249027207Y-93512006D03*
D19*
X252405374Y-82609764D03*
%TD*%
D16*
%TO.C,U21*%
X224330557Y-88778665D03*
X235163443Y-86868535D03*
D17*
X225474142Y-92384870D03*
D18*
X229747000Y-87823600D03*
D17*
X230780207Y-93683206D03*
D19*
X234158374Y-82780964D03*
%TD*%
D16*
%TO.C,U20*%
X205735557Y-86980365D03*
X216568443Y-85070235D03*
D17*
X206879142Y-90586570D03*
D18*
X211152000Y-86025300D03*
D17*
X212185207Y-91884906D03*
D19*
X215563374Y-80982664D03*
%TD*%
D16*
%TO.C,U18*%
X172018557Y-103080065D03*
X182851443Y-101169935D03*
D17*
X173162142Y-106686270D03*
D18*
X177435000Y-102125000D03*
D17*
X178468207Y-107984606D03*
D19*
X181846374Y-97082364D03*
%TD*%
D16*
%TO.C,U17*%
X129318557Y-135808935D03*
X140151443Y-137719065D03*
D17*
X129159781Y-139588788D03*
D18*
X134735000Y-136764000D03*
D17*
X133701793Y-142623606D03*
D19*
X140605019Y-133534251D03*
%TD*%
D16*
%TO.C,U16*%
X117148557Y-101169935D03*
X127981443Y-103080065D03*
D17*
X116989781Y-104949788D03*
D18*
X122565000Y-102125000D03*
D17*
X121531793Y-107984606D03*
D19*
X128435019Y-98895251D03*
%TD*%
D16*
%TO.C,U15*%
X100116557Y-94104735D03*
X110949443Y-96014865D03*
D17*
X99957781Y-97884588D03*
D18*
X105533000Y-95059800D03*
D17*
X104499793Y-100919406D03*
D19*
X111403019Y-91830051D03*
%TD*%
D16*
%TO.C,U14*%
X83431757Y-85070235D03*
X94264643Y-86980365D03*
D17*
X83272981Y-88850088D03*
D18*
X88848200Y-86025300D03*
D17*
X87814993Y-91884906D03*
D19*
X94718219Y-82795551D03*
%TD*%
D16*
%TO.C,U13*%
X64836957Y-86868535D03*
X75669843Y-88778665D03*
D17*
X64678181Y-90648388D03*
D18*
X70253400Y-87823600D03*
D17*
X69220193Y-93683206D03*
D19*
X76123419Y-84593851D03*
%TD*%
D16*
%TO.C,U12*%
X46589457Y-86697335D03*
X57422343Y-88607465D03*
D17*
X46430681Y-90477188D03*
D18*
X52005900Y-87652400D03*
D17*
X50972693Y-93512006D03*
D19*
X57875919Y-84422651D03*
%TD*%
D16*
%TO.C,U11*%
X239625557Y-71865665D03*
X250458443Y-69955535D03*
D17*
X240769142Y-75471870D03*
D18*
X245042000Y-70910600D03*
D17*
X246075207Y-76770206D03*
D19*
X249453374Y-65867964D03*
%TD*%
D16*
%TO.C,U10*%
X221378557Y-72036965D03*
X232211443Y-70126835D03*
D17*
X222522142Y-75643170D03*
D18*
X226795000Y-71081900D03*
D17*
X227828207Y-76941506D03*
D19*
X231206374Y-66039264D03*
%TD*%
D16*
%TO.C,U9*%
X202783557Y-70238565D03*
X213616443Y-68328435D03*
D17*
X203927142Y-73844770D03*
D18*
X208200000Y-69283500D03*
D17*
X209233207Y-75143106D03*
D19*
X212611374Y-64240864D03*
%TD*%
D16*
%TO.C,U7*%
X169066557Y-86337965D03*
X179899443Y-84427835D03*
D17*
X170210142Y-89944170D03*
D18*
X174483000Y-85382900D03*
D17*
X175516207Y-91242506D03*
D19*
X178894374Y-80340264D03*
%TD*%
D16*
%TO.C,U6*%
X132270557Y-119066935D03*
X143103443Y-120977065D03*
D17*
X132111781Y-122846788D03*
D18*
X137687000Y-120022000D03*
D17*
X136653793Y-125881606D03*
D19*
X143557019Y-116792251D03*
%TD*%
D16*
%TO.C,U5*%
X120100557Y-84427835D03*
X130933443Y-86337965D03*
D17*
X119941781Y-88207688D03*
D18*
X125517000Y-85382900D03*
D17*
X124483793Y-91242506D03*
D19*
X131387019Y-82153151D03*
%TD*%
D16*
%TO.C,U4*%
X103068557Y-77362935D03*
X113901443Y-79273065D03*
D17*
X102909781Y-81142788D03*
D18*
X108485000Y-78318000D03*
D17*
X107451793Y-84177606D03*
D19*
X114355019Y-75088251D03*
%TD*%
D16*
%TO.C,U3*%
X86383757Y-68328435D03*
X97216643Y-70238565D03*
D17*
X86224981Y-72108288D03*
D18*
X91800200Y-69283500D03*
D17*
X90766993Y-75143106D03*
D19*
X97670219Y-66053751D03*
%TD*%
M02*
