%TF.GenerationSoftware,KiCad,Pcbnew,(5.1.10)-1*%
%TF.CreationDate,2021-10-03T17:33:34-06:00*%
%TF.ProjectId,VColMX44,56436f6c-4d58-4343-942e-6b696361645f,rev?*%
%TF.SameCoordinates,Original*%
%TF.FileFunction,Legend,Bot*%
%TF.FilePolarity,Positive*%
%FSLAX46Y46*%
G04 Gerber Fmt 4.6, Leading zero omitted, Abs format (unit mm)*
G04 Created by KiCad (PCBNEW (5.1.10)-1) date 2021-10-03 17:33:34*
%MOMM*%
%LPD*%
G01*
G04 APERTURE LIST*
%ADD10C,0.150000*%
%ADD11C,0.300000*%
%ADD12C,0.100000*%
%ADD13C,0.120000*%
G04 APERTURE END LIST*
D10*
X248385842Y-130024007D02*
X248854798Y-129941317D01*
X248681150Y-128956510D01*
X248057573Y-130081890D02*
X247941807Y-129425351D01*
X247883924Y-129097082D02*
X247939089Y-129135708D01*
X247900462Y-129190873D01*
X247845298Y-129152246D01*
X247883924Y-129097082D01*
X247900462Y-129190873D01*
X247158287Y-130192104D02*
X247260347Y-130222462D01*
X247447930Y-130189386D01*
X247533452Y-130125953D01*
X247572079Y-130070788D01*
X247602436Y-129968728D01*
X247552822Y-129687354D01*
X247489389Y-129601832D01*
X247434224Y-129563205D01*
X247332164Y-129532848D01*
X247144582Y-129565923D01*
X247059059Y-129629357D01*
X246361062Y-130332677D02*
X246463122Y-130363034D01*
X246650704Y-130329958D01*
X246736227Y-130266525D01*
X246766584Y-130164465D01*
X246700433Y-129789300D01*
X246636999Y-129703778D01*
X246534939Y-129673420D01*
X246347356Y-129706496D01*
X246261834Y-129769929D01*
X246231476Y-129871989D01*
X246248014Y-129965781D01*
X246733508Y-129976882D01*
X245784609Y-129805723D02*
X245900375Y-130462262D01*
X245801147Y-129899515D02*
X245745982Y-129860888D01*
X245643922Y-129830530D01*
X245503235Y-129855337D01*
X245417713Y-129918771D01*
X245387356Y-130020831D01*
X245478314Y-130536682D01*
X245047985Y-130564207D02*
X244962462Y-130627641D01*
X244774880Y-130660717D01*
X244672820Y-130630359D01*
X244609386Y-130544837D01*
X244601117Y-130497941D01*
X244631475Y-130395881D01*
X244716997Y-130332448D01*
X244857684Y-130307641D01*
X244943206Y-130244207D01*
X244973564Y-130142147D01*
X244965295Y-130095251D01*
X244901862Y-130009729D01*
X244799801Y-129979371D01*
X244659115Y-130004178D01*
X244573592Y-130067612D01*
X243828699Y-130779200D02*
X243930759Y-130809558D01*
X244118341Y-130776482D01*
X244203864Y-130713049D01*
X244234221Y-130610989D01*
X244168070Y-130235824D01*
X244104636Y-130150301D01*
X244002576Y-130119944D01*
X243814994Y-130153020D01*
X243729471Y-130216453D01*
X243699114Y-130318513D01*
X243715652Y-130412305D01*
X244201146Y-130423406D01*
X243351474Y-130814994D02*
X243312847Y-130870159D01*
X243368012Y-130908786D01*
X243406638Y-130853621D01*
X243351474Y-130814994D01*
X243368012Y-130908786D01*
X243260515Y-130299143D02*
X243221889Y-130354307D01*
X243277053Y-130392934D01*
X243315680Y-130337769D01*
X243260515Y-130299143D01*
X243277053Y-130392934D01*
X241569441Y-131129215D02*
X241624605Y-131167842D01*
X241773561Y-131189930D01*
X241867352Y-131173392D01*
X241999770Y-131101690D01*
X242077024Y-130991361D01*
X242107381Y-130889301D01*
X242121201Y-130693449D01*
X242096394Y-130552762D01*
X242016423Y-130373449D01*
X241952989Y-130287927D01*
X241842660Y-130210673D01*
X241693704Y-130188585D01*
X241599913Y-130205123D01*
X241467495Y-130276825D01*
X241428868Y-130331990D01*
X241072960Y-130781575D02*
X240744690Y-130839458D01*
X240694962Y-131380116D02*
X241163918Y-131297427D01*
X240990270Y-130312619D01*
X240521314Y-130395309D01*
X239710154Y-131553765D02*
X239955734Y-131026926D01*
X240272902Y-131454537D02*
X240099254Y-130469729D01*
X239724089Y-130535881D01*
X239638566Y-130599315D01*
X239599940Y-130654479D01*
X239569582Y-130756539D01*
X239594389Y-130897226D01*
X239657822Y-130982748D01*
X239712987Y-131021375D01*
X239815047Y-131051733D01*
X240190212Y-130985581D01*
X239288094Y-131628185D02*
X239114446Y-130643378D01*
X238725347Y-131727413D01*
X238551698Y-130742605D01*
X238190239Y-131434938D02*
X237439909Y-131567241D01*
X236675874Y-131073363D02*
X236488292Y-131106439D01*
X236402770Y-131169873D01*
X236325516Y-131280202D01*
X236311696Y-131476053D01*
X236369579Y-131804323D01*
X236449551Y-131983636D01*
X236559880Y-132060889D01*
X236661940Y-132091247D01*
X236849522Y-132058171D01*
X236935045Y-131994738D01*
X237012298Y-131884409D01*
X237026118Y-131688557D01*
X236968235Y-131360288D01*
X236888264Y-131180974D01*
X236777934Y-131103721D01*
X236675874Y-131073363D01*
X236005401Y-132207013D02*
X235831753Y-131222205D01*
X235914443Y-131691161D02*
X235351696Y-131790388D01*
X235442654Y-132306240D02*
X235269006Y-131321432D01*
X234504742Y-132471619D02*
X234973698Y-132388930D01*
X234800050Y-131404122D01*
X234110321Y-132154337D02*
X233359991Y-132286641D01*
X232877330Y-131743149D02*
X232816500Y-132769302D01*
X232504883Y-132098944D01*
X232441335Y-132835454D01*
X232033209Y-131891991D01*
X229580703Y-133339860D02*
X229407055Y-132355052D01*
X229158643Y-133414281D02*
X229067684Y-132898429D01*
X229098042Y-132796369D01*
X229183564Y-132732935D01*
X229324251Y-132708129D01*
X229426311Y-132738486D01*
X229481476Y-132777113D01*
X228714608Y-132815625D02*
X228339443Y-132881777D01*
X228516039Y-132512163D02*
X228664880Y-133356284D01*
X228634522Y-133458344D01*
X228549000Y-133521777D01*
X228455209Y-133538315D01*
X228151861Y-132914853D02*
X227776696Y-132981004D01*
X227953291Y-132611390D02*
X228102133Y-133455511D01*
X228071775Y-133557571D01*
X227986253Y-133621005D01*
X227892461Y-133637543D01*
X227448427Y-133038887D02*
X227622075Y-134023695D01*
X227456696Y-133085783D02*
X227354635Y-133055425D01*
X227167053Y-133088501D01*
X227081531Y-133151934D01*
X227042904Y-133207099D01*
X227012546Y-133309159D01*
X227062160Y-133590533D01*
X227125594Y-133676055D01*
X227180758Y-133714682D01*
X227282818Y-133745039D01*
X227470401Y-133711963D01*
X227555923Y-133648530D01*
X226711802Y-133797371D02*
X226626280Y-133860805D01*
X226438698Y-133893881D01*
X226336637Y-133863523D01*
X226273204Y-133778001D01*
X226264935Y-133731105D01*
X226295293Y-133629045D01*
X226380815Y-133565611D01*
X226521502Y-133540804D01*
X226607024Y-133477371D01*
X226637382Y-133375311D01*
X226629113Y-133328415D01*
X226565679Y-133242893D01*
X226463619Y-133212535D01*
X226322932Y-133237342D01*
X226237410Y-133300776D01*
X225859412Y-133899317D02*
X225820786Y-133954481D01*
X225875950Y-133993108D01*
X225914577Y-133937944D01*
X225859412Y-133899317D01*
X225875950Y-133993108D01*
X225768454Y-133383465D02*
X225729827Y-133438630D01*
X225784992Y-133477256D01*
X225823618Y-133422092D01*
X225768454Y-133383465D01*
X225784992Y-133477256D01*
X224521643Y-133168129D02*
X225589026Y-134285469D01*
X223489940Y-133350046D02*
X224557322Y-134467386D01*
X222805762Y-133857514D02*
X222946334Y-134654739D01*
X223009767Y-134740262D01*
X223064932Y-134778888D01*
X223166992Y-134809246D01*
X223307679Y-134784439D01*
X223393201Y-134721006D01*
X222913258Y-134467157D02*
X223015318Y-134497515D01*
X223202901Y-134464439D01*
X223288423Y-134401005D01*
X223327050Y-134345841D01*
X223357407Y-134243781D01*
X223307793Y-133962407D01*
X223244360Y-133876885D01*
X223189195Y-133838258D01*
X223087135Y-133807900D01*
X222899553Y-133840976D01*
X222814031Y-133904410D01*
X222452571Y-134596742D02*
X222336805Y-133940204D01*
X222278923Y-133611934D02*
X222334087Y-133650561D01*
X222295461Y-133705726D01*
X222240296Y-133667099D01*
X222278923Y-133611934D01*
X222295461Y-133705726D01*
X222008536Y-133998086D02*
X221633371Y-134064238D01*
X221809967Y-133694624D02*
X221958808Y-134538745D01*
X221928450Y-134640805D01*
X221842928Y-134704239D01*
X221749137Y-134720777D01*
X221420868Y-134778659D02*
X221247219Y-133793852D01*
X220998807Y-134853080D02*
X220907849Y-134337228D01*
X220938206Y-134235168D01*
X221023728Y-134171735D01*
X221164415Y-134146928D01*
X221266475Y-134177285D01*
X221321640Y-134215912D01*
X219992025Y-134353652D02*
X220107791Y-135010190D01*
X220414086Y-134279231D02*
X220505044Y-134795083D01*
X220474686Y-134897143D01*
X220389164Y-134960577D01*
X220248477Y-134985383D01*
X220146417Y-134955026D01*
X220091253Y-134916399D01*
X219638834Y-135092880D02*
X219465186Y-134108072D01*
X219531338Y-134483237D02*
X219429278Y-134452879D01*
X219241695Y-134485955D01*
X219156173Y-134549389D01*
X219117547Y-134604553D01*
X219087189Y-134706613D01*
X219136803Y-134987987D01*
X219200236Y-135073509D01*
X219255401Y-135112136D01*
X219357461Y-135142494D01*
X219545043Y-135109418D01*
X219630566Y-135045984D01*
X218731280Y-135156199D02*
X218692653Y-135211363D01*
X218747818Y-135249990D01*
X218786445Y-135194826D01*
X218731280Y-135156199D01*
X218747818Y-135249990D01*
X217848532Y-135360205D02*
X217950593Y-135390562D01*
X218138175Y-135357487D01*
X218223697Y-135294053D01*
X218262324Y-135238889D01*
X218292682Y-135136828D01*
X218243068Y-134855455D01*
X218179634Y-134769932D01*
X218124470Y-134731306D01*
X218022410Y-134700948D01*
X217834827Y-134734024D01*
X217749305Y-134797457D01*
X217294054Y-135506328D02*
X217379576Y-135442894D01*
X217418203Y-135387730D01*
X217448561Y-135285670D01*
X217398947Y-135004296D01*
X217335513Y-134918774D01*
X217280349Y-134880147D01*
X217178289Y-134849789D01*
X217037602Y-134874596D01*
X216952080Y-134938030D01*
X216913453Y-134993194D01*
X216883095Y-135095255D01*
X216932709Y-135376628D01*
X216996143Y-135462150D01*
X217051307Y-135500777D01*
X217153367Y-135531135D01*
X217294054Y-135506328D01*
X216543724Y-135638631D02*
X216427959Y-134982093D01*
X216444497Y-135075884D02*
X216389332Y-135037257D01*
X216287272Y-135006900D01*
X216146585Y-135031707D01*
X216061063Y-135095140D01*
X216030705Y-135197200D01*
X216121664Y-135713052D01*
X216030705Y-135197200D02*
X215967272Y-135111678D01*
X215865212Y-135081320D01*
X215724525Y-135106127D01*
X215639003Y-135169561D01*
X215608645Y-135271621D01*
X215699603Y-135787473D01*
X214345296Y-134962493D02*
X215412679Y-136079833D01*
X214083179Y-135395541D02*
X214232020Y-136239662D01*
X214295453Y-136325184D01*
X214397514Y-136355542D01*
X214444409Y-136347273D01*
X214025296Y-135067272D02*
X214080460Y-135105898D01*
X214041834Y-135161063D01*
X213986669Y-135122436D01*
X214025296Y-135067272D01*
X214041834Y-135161063D01*
X213614223Y-135478230D02*
X213787871Y-136463038D01*
X213622491Y-135525126D02*
X213520431Y-135494768D01*
X213332849Y-135527844D01*
X213247327Y-135591278D01*
X213208700Y-135646442D01*
X213178342Y-135748502D01*
X213227956Y-136029876D01*
X213291390Y-136115398D01*
X213346554Y-136154025D01*
X213448614Y-136184383D01*
X213636197Y-136151307D01*
X213721719Y-136087873D01*
X212408642Y-136319404D02*
X212510702Y-136349762D01*
X212698285Y-136316686D01*
X212783807Y-136253253D01*
X212822434Y-136198088D01*
X212852791Y-136096028D01*
X212803177Y-135814654D01*
X212739744Y-135729132D01*
X212684579Y-135690505D01*
X212582519Y-135660148D01*
X212394937Y-135693223D01*
X212309414Y-135756657D01*
X211854164Y-136465527D02*
X211939686Y-136402094D01*
X211978313Y-136346929D01*
X212008670Y-136244869D01*
X211959057Y-135963495D01*
X211895623Y-135877973D01*
X211840458Y-135839347D01*
X211738398Y-135808989D01*
X211597711Y-135833796D01*
X211512189Y-135897229D01*
X211473563Y-135952394D01*
X211443205Y-136054454D01*
X211492819Y-136335828D01*
X211556252Y-136421350D01*
X211611417Y-136459977D01*
X211713477Y-136490334D01*
X211854164Y-136465527D01*
X210988069Y-135941292D02*
X211103834Y-136597831D01*
X211004606Y-136035083D02*
X210949442Y-135996457D01*
X210847382Y-135966099D01*
X210706695Y-135990906D01*
X210621173Y-136054340D01*
X210590815Y-136156400D01*
X210681774Y-136672251D01*
X210251444Y-136699776D02*
X210165922Y-136763210D01*
X209978339Y-136796286D01*
X209876279Y-136765928D01*
X209812846Y-136680406D01*
X209804577Y-136633510D01*
X209834934Y-136531450D01*
X209920457Y-136468017D01*
X210061143Y-136443210D01*
X210146666Y-136379776D01*
X210177023Y-136277716D01*
X210168754Y-136230820D01*
X210105321Y-136145298D01*
X210003261Y-136114940D01*
X209862574Y-136139747D01*
X209777052Y-136203181D01*
X209440513Y-136214168D02*
X209065349Y-136280320D01*
X209241944Y-135910706D02*
X209390785Y-136754827D01*
X209360428Y-136856887D01*
X209274905Y-136920320D01*
X209181114Y-136936858D01*
X208430784Y-137069162D02*
X208339826Y-136553310D01*
X208370183Y-136451250D01*
X208455706Y-136387816D01*
X208643288Y-136354740D01*
X208745348Y-136385098D01*
X208422515Y-137022266D02*
X208524576Y-137052624D01*
X208759054Y-137011279D01*
X208844576Y-136947845D01*
X208874934Y-136845785D01*
X208858396Y-136751994D01*
X208794962Y-136666472D01*
X208692902Y-136636114D01*
X208458424Y-136677459D01*
X208356364Y-136647101D01*
X207846063Y-136495313D02*
X207961828Y-137151851D01*
X207862601Y-136589104D02*
X207807436Y-136550477D01*
X207705376Y-136520120D01*
X207564689Y-136544926D01*
X207479167Y-136608360D01*
X207448809Y-136710420D01*
X207539768Y-137226272D01*
X207095733Y-136627616D02*
X206720568Y-136693768D01*
X206897164Y-136324154D02*
X207046005Y-137168275D01*
X207015647Y-137270335D01*
X206930125Y-137333768D01*
X206836334Y-137350306D01*
X206508064Y-137408189D02*
X206392299Y-136751650D01*
X206334416Y-136423381D02*
X206389581Y-136462008D01*
X206350954Y-136517172D01*
X206295790Y-136478546D01*
X206334416Y-136423381D01*
X206350954Y-136517172D01*
X205923343Y-136834340D02*
X206039108Y-137490879D01*
X205939881Y-136928131D02*
X205884716Y-136889505D01*
X205782656Y-136859147D01*
X205641969Y-136883954D01*
X205556447Y-136947387D01*
X205526089Y-137049447D01*
X205617048Y-137565299D01*
X204764658Y-137667245D02*
X204866718Y-137697603D01*
X205054301Y-137664527D01*
X205139823Y-137601093D01*
X205170181Y-137499033D01*
X205104029Y-137123868D01*
X205040595Y-137038346D01*
X204938535Y-137007988D01*
X204750953Y-137041064D01*
X204665430Y-137104498D01*
X204635073Y-137206558D01*
X204651611Y-137300349D01*
X205137105Y-137311451D01*
X203881910Y-137871251D02*
X203790952Y-137355399D01*
X203821310Y-137253339D01*
X203906832Y-137189905D01*
X204094414Y-137156829D01*
X204196474Y-137187187D01*
X203873641Y-137824355D02*
X203975702Y-137854713D01*
X204210180Y-137813368D01*
X204295702Y-137749934D01*
X204326060Y-137647874D01*
X204309522Y-137554083D01*
X204246088Y-137468561D01*
X204144028Y-137438203D01*
X203909550Y-137479548D01*
X203807490Y-137449190D01*
X202875128Y-137371822D02*
X202990894Y-138028361D01*
X203297189Y-137297402D02*
X203388147Y-137813254D01*
X203357790Y-137915314D01*
X203272268Y-137978747D01*
X203131581Y-138003554D01*
X203029521Y-137973196D01*
X202974356Y-137934570D01*
X201636587Y-137203382D02*
X202703969Y-138320722D01*
X201457273Y-137283353D02*
X201302652Y-138326044D01*
X200800735Y-137399119D01*
X200066828Y-138447245D02*
X200121993Y-138485872D01*
X200270949Y-138507961D01*
X200364740Y-138491423D01*
X200497158Y-138419720D01*
X200574411Y-138309391D01*
X200604769Y-138207331D01*
X200618589Y-138011480D01*
X200593782Y-137870793D01*
X200513810Y-137691479D01*
X200450377Y-137605957D01*
X200340048Y-137528704D01*
X200191092Y-137506615D01*
X200097301Y-137523153D01*
X199964883Y-137594855D01*
X199926256Y-137650020D01*
X199520619Y-138640264D02*
X199606141Y-138576831D01*
X199644768Y-138521666D01*
X199675126Y-138419606D01*
X199625512Y-138138232D01*
X199562078Y-138052710D01*
X199506914Y-138014083D01*
X199404854Y-137983726D01*
X199264167Y-138008532D01*
X199178644Y-138071966D01*
X199140018Y-138127131D01*
X199109660Y-138229191D01*
X199159274Y-138510564D01*
X199222707Y-138596087D01*
X199277872Y-138634713D01*
X199379932Y-138665071D01*
X199520619Y-138640264D01*
X198629602Y-138797374D02*
X198715125Y-138733941D01*
X198745482Y-138631881D01*
X198596641Y-137787760D01*
X197675152Y-138868962D02*
X197730317Y-138907589D01*
X197879273Y-138929678D01*
X197973064Y-138913140D01*
X198105482Y-138841437D01*
X198182735Y-138731108D01*
X198213093Y-138629048D01*
X198226913Y-138433197D01*
X198202106Y-138292510D01*
X198122134Y-138113196D01*
X198058701Y-138027674D01*
X197948372Y-137950421D01*
X197799416Y-137928332D01*
X197705625Y-137944870D01*
X197573207Y-138016572D01*
X197534580Y-138071737D01*
X197269630Y-139037174D02*
X197095982Y-138052366D01*
X196847569Y-139111595D02*
X196756611Y-138595743D01*
X196786968Y-138493683D01*
X196872491Y-138430249D01*
X197013178Y-138405443D01*
X197115238Y-138435800D01*
X197170402Y-138474427D01*
X196237926Y-139219091D02*
X196323449Y-139155658D01*
X196362075Y-139100493D01*
X196392433Y-138998433D01*
X196342819Y-138717059D01*
X196279386Y-138631537D01*
X196224221Y-138592911D01*
X196122161Y-138562553D01*
X195981474Y-138587360D01*
X195895952Y-138650793D01*
X195857325Y-138705958D01*
X195826968Y-138808018D01*
X195876581Y-139089392D01*
X195940015Y-139174914D01*
X195995179Y-139213541D01*
X196097240Y-139243898D01*
X196237926Y-139219091D01*
X195057267Y-139378920D02*
X195159327Y-139409277D01*
X195346910Y-139376202D01*
X195432432Y-139312768D01*
X195471059Y-139257603D01*
X195501417Y-139155543D01*
X195451803Y-138874170D01*
X195388369Y-138788647D01*
X195333205Y-138750021D01*
X195231144Y-138719663D01*
X195043562Y-138752739D01*
X194958040Y-138816172D01*
X194105650Y-138918118D02*
X194221415Y-139574657D01*
X194273976Y-138501608D02*
X194632489Y-139163698D01*
X194022846Y-139271194D01*
X193167738Y-139083497D02*
X193283503Y-139740036D01*
X193336064Y-138666988D02*
X193694577Y-139329077D01*
X193084934Y-139436573D01*
X248722089Y-131108281D02*
X248589671Y-131179984D01*
X248551045Y-131235148D01*
X248520687Y-131337209D01*
X248545494Y-131477895D01*
X248608927Y-131563418D01*
X248664092Y-131602044D01*
X248766152Y-131632402D01*
X249141317Y-131566250D01*
X248967669Y-130581443D01*
X248639399Y-130639325D01*
X248553877Y-130702759D01*
X248515251Y-130757923D01*
X248484893Y-130859984D01*
X248501431Y-130953775D01*
X248564864Y-131039297D01*
X248620029Y-131077924D01*
X248722089Y-131108281D01*
X249050358Y-131050399D01*
X248134535Y-131066822D02*
X248015822Y-131764705D01*
X247665579Y-131149512D02*
X248015822Y-131764705D01*
X248150958Y-131982645D01*
X248206123Y-132021272D01*
X248308183Y-132051630D01*
X246200828Y-131069311D02*
X246324862Y-131772745D01*
X246396565Y-131905163D01*
X246506894Y-131982416D01*
X246655850Y-132004505D01*
X246749641Y-131987967D01*
X245905520Y-132136809D02*
X245731872Y-131152001D01*
X245356707Y-131218153D01*
X245271185Y-131281586D01*
X245232558Y-131336751D01*
X245202200Y-131438811D01*
X245227007Y-131579498D01*
X245290441Y-131665020D01*
X245345605Y-131703646D01*
X245447665Y-131734004D01*
X245822830Y-131667852D01*
X244341427Y-132315893D02*
X244396592Y-132354520D01*
X244545547Y-132376608D01*
X244639339Y-132360071D01*
X244771756Y-132288368D01*
X244849010Y-132178039D01*
X244879367Y-132075979D01*
X244893187Y-131880127D01*
X244868380Y-131739440D01*
X244788409Y-131560127D01*
X244724975Y-131474605D01*
X244614646Y-131397351D01*
X244465690Y-131375263D01*
X244371899Y-131391801D01*
X244239481Y-131463503D01*
X244200855Y-131518668D01*
X243795218Y-132508912D02*
X243880740Y-132445478D01*
X243919367Y-132390314D01*
X243949724Y-132288254D01*
X243900110Y-132006880D01*
X243836677Y-131921358D01*
X243781512Y-131882731D01*
X243679452Y-131852373D01*
X243538765Y-131877180D01*
X243453243Y-131940614D01*
X243414616Y-131995778D01*
X243384259Y-132097838D01*
X243433873Y-132379212D01*
X243497306Y-132464734D01*
X243552471Y-132503361D01*
X243654531Y-132533719D01*
X243795218Y-132508912D01*
X242929122Y-131984677D02*
X243044888Y-132641215D01*
X242945660Y-132078468D02*
X242890496Y-132039841D01*
X242788436Y-132009484D01*
X242647749Y-132034290D01*
X242562227Y-132097724D01*
X242531869Y-132199784D01*
X242622827Y-132715636D01*
X242192498Y-132743161D02*
X242106976Y-132806594D01*
X241919393Y-132839670D01*
X241817333Y-132809313D01*
X241753900Y-132723790D01*
X241745631Y-132676895D01*
X241775988Y-132574835D01*
X241861511Y-132511401D01*
X242002197Y-132486594D01*
X242087720Y-132423161D01*
X242118077Y-132321100D01*
X242109808Y-132274205D01*
X242046375Y-132188683D01*
X241944315Y-132158325D01*
X241803628Y-132183132D01*
X241718106Y-132246565D01*
X241381567Y-132257552D02*
X241006403Y-132323704D01*
X241182998Y-131954090D02*
X241331839Y-132798211D01*
X241301481Y-132900271D01*
X241215959Y-132963705D01*
X241122168Y-132980243D01*
X240371838Y-133112546D02*
X240280880Y-132596694D01*
X240311237Y-132494634D01*
X240396760Y-132431201D01*
X240584342Y-132398125D01*
X240686402Y-132428482D01*
X240363569Y-133065650D02*
X240465629Y-133096008D01*
X240700108Y-133054663D01*
X240785630Y-132991230D01*
X240815987Y-132889170D01*
X240799450Y-132795378D01*
X240736016Y-132709856D01*
X240633956Y-132679498D01*
X240399478Y-132720843D01*
X240297418Y-132690485D01*
X239787117Y-132538697D02*
X239902882Y-133195236D01*
X239803655Y-132632488D02*
X239748490Y-132593862D01*
X239646430Y-132563504D01*
X239505743Y-132588311D01*
X239420221Y-132651744D01*
X239389863Y-132753805D01*
X239480822Y-133269656D01*
X239036787Y-132671000D02*
X238661622Y-132737152D01*
X238838217Y-132367538D02*
X238987059Y-133211659D01*
X238956701Y-133313719D01*
X238871179Y-133377153D01*
X238777388Y-133393691D01*
X238449118Y-133451573D02*
X238333353Y-132795035D01*
X238275470Y-132466766D02*
X238330635Y-132505392D01*
X238292008Y-132560557D01*
X238236844Y-132521930D01*
X238275470Y-132466766D01*
X238292008Y-132560557D01*
X237864397Y-132877724D02*
X237980162Y-133534263D01*
X237880935Y-132971516D02*
X237825770Y-132932889D01*
X237723710Y-132902531D01*
X237583023Y-132927338D01*
X237497501Y-132990772D01*
X237467143Y-133092832D01*
X237558102Y-133608684D01*
X236705712Y-133710629D02*
X236807772Y-133740987D01*
X236995355Y-133707911D01*
X237080877Y-133644478D01*
X237111234Y-133542417D01*
X237045083Y-133167253D01*
X236981649Y-133081730D01*
X236879589Y-133051373D01*
X236692007Y-133084448D01*
X236606484Y-133147882D01*
X236576127Y-133249942D01*
X236592665Y-133343733D01*
X237078159Y-133354835D01*
X235822964Y-133914635D02*
X235732006Y-133398783D01*
X235762363Y-133296723D01*
X235847886Y-133233290D01*
X236035468Y-133200214D01*
X236137528Y-133230572D01*
X235814695Y-133867740D02*
X235916756Y-133898097D01*
X236151234Y-133856752D01*
X236236756Y-133793319D01*
X236267114Y-133691259D01*
X236250576Y-133597468D01*
X236187142Y-133511945D01*
X236085082Y-133481588D01*
X235850604Y-133522932D01*
X235748544Y-133492575D01*
X234816182Y-133415207D02*
X234931948Y-134071745D01*
X235238243Y-133340786D02*
X235329201Y-133856638D01*
X235298844Y-133958698D01*
X235213321Y-134022132D01*
X235072635Y-134046939D01*
X234970574Y-134016581D01*
X234915410Y-133977954D01*
X232852118Y-133519756D02*
X232796953Y-133481130D01*
X232694893Y-133450772D01*
X232460415Y-133492117D01*
X232374893Y-133555550D01*
X232336266Y-133610715D01*
X232305908Y-133712775D01*
X232322446Y-133806566D01*
X232394149Y-133938984D01*
X233056124Y-134402504D01*
X232446481Y-134510000D01*
X231663190Y-133632689D02*
X231569398Y-133649227D01*
X231483876Y-133712661D01*
X231445249Y-133767825D01*
X231414892Y-133869885D01*
X231401072Y-134065737D01*
X231442417Y-134300215D01*
X231522388Y-134479528D01*
X231585822Y-134565050D01*
X231640986Y-134603677D01*
X231743047Y-134634035D01*
X231836838Y-134617497D01*
X231922360Y-134554063D01*
X231960987Y-134498899D01*
X231991344Y-134396839D01*
X232005164Y-134200987D01*
X231963819Y-133966509D01*
X231883848Y-133787196D01*
X231820414Y-133701673D01*
X231765250Y-133663047D01*
X231663190Y-133632689D01*
X230976293Y-133850515D02*
X230921129Y-133811888D01*
X230819069Y-133781530D01*
X230584591Y-133822875D01*
X230499068Y-133886309D01*
X230460442Y-133941473D01*
X230430084Y-134043533D01*
X230446622Y-134137325D01*
X230518324Y-134269743D01*
X231180299Y-134733262D01*
X230570656Y-134840759D01*
X229632744Y-135006138D02*
X230195491Y-134906910D01*
X229914118Y-134956524D02*
X229740470Y-133971716D01*
X229859068Y-134095865D01*
X229969397Y-134173119D01*
X230071457Y-134203476D01*
X229144532Y-134705394D02*
X228394202Y-134837697D01*
X227475546Y-135386510D02*
X228038294Y-135287283D01*
X227756920Y-135336896D02*
X227583272Y-134352089D01*
X227701870Y-134476238D01*
X227812199Y-134553491D01*
X227914259Y-134583849D01*
X226692255Y-134509199D02*
X226598464Y-134525737D01*
X226512942Y-134589170D01*
X226474315Y-134644335D01*
X226443957Y-134746395D01*
X226430138Y-134942247D01*
X226471482Y-135176725D01*
X226551454Y-135356038D01*
X226614887Y-135441560D01*
X226670052Y-135480187D01*
X226772112Y-135510545D01*
X226865903Y-135494007D01*
X226951426Y-135430573D01*
X226990052Y-135375409D01*
X227020410Y-135273348D01*
X227034230Y-135077497D01*
X226992885Y-134843019D01*
X226912913Y-134663706D01*
X226849480Y-134578183D01*
X226794315Y-134539557D01*
X226692255Y-134509199D01*
X226049422Y-135251145D02*
X225299092Y-135383449D01*
X224535057Y-134889571D02*
X224441266Y-134906109D01*
X224355744Y-134969543D01*
X224317117Y-135024707D01*
X224286759Y-135126767D01*
X224272940Y-135322619D01*
X224314285Y-135557097D01*
X224394256Y-135736410D01*
X224457689Y-135821932D01*
X224512854Y-135860559D01*
X224614914Y-135890917D01*
X224708705Y-135874379D01*
X224794228Y-135810945D01*
X224832854Y-135755781D01*
X224863212Y-135653721D01*
X224877032Y-135457869D01*
X224835687Y-135223391D01*
X224755716Y-135044078D01*
X224692282Y-134958555D01*
X224637117Y-134919929D01*
X224535057Y-134889571D01*
X223878519Y-135005337D02*
X223268876Y-135112833D01*
X223663297Y-135430115D01*
X223522610Y-135454922D01*
X223437088Y-135518356D01*
X223398461Y-135573520D01*
X223368103Y-135675580D01*
X223409448Y-135910058D01*
X223472882Y-135995581D01*
X223528046Y-136034207D01*
X223630106Y-136064565D01*
X223911480Y-136014951D01*
X223997002Y-135951518D01*
X224035629Y-135896353D01*
D11*
X88725186Y-130926351D02*
X87721351Y-132780201D01*
X87412109Y-130694821D01*
X85315856Y-132162633D02*
X85393109Y-132272962D01*
X85657945Y-132416367D01*
X85845527Y-132449443D01*
X86143439Y-132405266D01*
X86364097Y-132250759D01*
X86490964Y-132079714D01*
X86650907Y-131721088D01*
X86700521Y-131439714D01*
X86672881Y-131048011D01*
X86612166Y-130843891D01*
X86457659Y-130623232D01*
X86192823Y-130479828D01*
X86005241Y-130446752D01*
X85707329Y-130490929D01*
X85597000Y-130568182D01*
X84157285Y-132151760D02*
X84361405Y-132091045D01*
X84471735Y-132013792D01*
X84598602Y-131842747D01*
X84697829Y-131280000D01*
X84637114Y-131075880D01*
X84559861Y-130965550D01*
X84388816Y-130838683D01*
X84107442Y-130789070D01*
X83903322Y-130849785D01*
X83792993Y-130927038D01*
X83666126Y-131098083D01*
X83566898Y-131660830D01*
X83627614Y-131864950D01*
X83704867Y-131975280D01*
X83875911Y-132102147D01*
X84157285Y-132151760D01*
X82375252Y-131837540D02*
X82579372Y-131776825D01*
X82706239Y-131605780D01*
X83003922Y-129917538D01*
X80532504Y-131319199D02*
X80609757Y-131429528D01*
X80874593Y-131572933D01*
X81062175Y-131606009D01*
X81360087Y-131561832D01*
X81580745Y-131407325D01*
X81707612Y-131236280D01*
X81867555Y-130877654D01*
X81917169Y-130596280D01*
X81889529Y-130204577D01*
X81828814Y-130000457D01*
X81674307Y-129779798D01*
X81409471Y-129636394D01*
X81221889Y-129603318D01*
X80923977Y-129647495D01*
X80813648Y-129724748D01*
X79655307Y-131357940D02*
X80002603Y-129388325D01*
X78811186Y-131209099D02*
X78993103Y-130177396D01*
X79119970Y-130006351D01*
X79324090Y-129945636D01*
X79605464Y-129995249D01*
X79776509Y-130122116D01*
X79853762Y-130232446D01*
X77591900Y-130994106D02*
X77796020Y-130933391D01*
X77906350Y-130856137D01*
X78033217Y-130685093D01*
X78132444Y-130122345D01*
X78071729Y-129918225D01*
X77994476Y-129807896D01*
X77823431Y-129681029D01*
X77542057Y-129631415D01*
X77337937Y-129692131D01*
X77227608Y-129769384D01*
X77100741Y-129940428D01*
X77001513Y-130503176D01*
X77062229Y-130707296D01*
X77139482Y-130817625D01*
X77310526Y-130944492D01*
X77591900Y-130994106D01*
X75263658Y-130486867D02*
X75434702Y-130613734D01*
X75809867Y-130679885D01*
X76013987Y-130619170D01*
X76124317Y-130541917D01*
X76251184Y-130370872D01*
X76350411Y-129808125D01*
X76289696Y-129604005D01*
X76212442Y-129493675D01*
X76041398Y-129366808D01*
X75666233Y-129300657D01*
X75462113Y-129361372D01*
X73790409Y-128969898D02*
X73558878Y-130282975D01*
X74391668Y-128302258D02*
X74612555Y-129791816D01*
X73393270Y-129576823D01*
X71914584Y-128639140D02*
X71683054Y-129952217D01*
X72515844Y-127971500D02*
X72736731Y-129461058D01*
X71517445Y-129246065D01*
D10*
X151238095Y-132452380D02*
X151571428Y-131976190D01*
X151809523Y-132452380D02*
X151809523Y-131452380D01*
X151428571Y-131452380D01*
X151333333Y-131500000D01*
X151285714Y-131547619D01*
X151238095Y-131642857D01*
X151238095Y-131785714D01*
X151285714Y-131880952D01*
X151333333Y-131928571D01*
X151428571Y-131976190D01*
X151809523Y-131976190D01*
X150428571Y-132404761D02*
X150523809Y-132452380D01*
X150714285Y-132452380D01*
X150809523Y-132404761D01*
X150857142Y-132309523D01*
X150857142Y-131928571D01*
X150809523Y-131833333D01*
X150714285Y-131785714D01*
X150523809Y-131785714D01*
X150428571Y-131833333D01*
X150380952Y-131928571D01*
X150380952Y-132023809D01*
X150857142Y-132119047D01*
X150000000Y-132404761D02*
X149904761Y-132452380D01*
X149714285Y-132452380D01*
X149619047Y-132404761D01*
X149571428Y-132309523D01*
X149571428Y-132261904D01*
X149619047Y-132166666D01*
X149714285Y-132119047D01*
X149857142Y-132119047D01*
X149952380Y-132071428D01*
X150000000Y-131976190D01*
X150000000Y-131928571D01*
X149952380Y-131833333D01*
X149857142Y-131785714D01*
X149714285Y-131785714D01*
X149619047Y-131833333D01*
X148761904Y-132404761D02*
X148857142Y-132452380D01*
X149047619Y-132452380D01*
X149142857Y-132404761D01*
X149190476Y-132309523D01*
X149190476Y-131928571D01*
X149142857Y-131833333D01*
X149047619Y-131785714D01*
X148857142Y-131785714D01*
X148761904Y-131833333D01*
X148714285Y-131928571D01*
X148714285Y-132023809D01*
X149190476Y-132119047D01*
X148428571Y-131785714D02*
X148047619Y-131785714D01*
X148285714Y-131452380D02*
X148285714Y-132309523D01*
X148238095Y-132404761D01*
X148142857Y-132452380D01*
X148047619Y-132452380D01*
D12*
X161042946Y-100901441D02*
X161114649Y-101033859D01*
X161169813Y-101072486D01*
X161271873Y-101102843D01*
X161412560Y-101078036D01*
X161498082Y-101014603D01*
X161536709Y-100959438D01*
X161567067Y-100857378D01*
X161500915Y-100482213D01*
X160516107Y-100655862D01*
X160573990Y-100984131D01*
X160637424Y-101069653D01*
X160692588Y-101108280D01*
X160794648Y-101138637D01*
X160888440Y-101122099D01*
X160973962Y-101058666D01*
X161012588Y-101003501D01*
X161042946Y-100901441D01*
X160985063Y-100573172D01*
X161699370Y-101607708D02*
X161635937Y-101522186D01*
X161580772Y-101483559D01*
X161478712Y-101453201D01*
X161197338Y-101502815D01*
X161111816Y-101566249D01*
X161073189Y-101621413D01*
X161042832Y-101723473D01*
X161067638Y-101864160D01*
X161131072Y-101949682D01*
X161186237Y-101988309D01*
X161288297Y-102018667D01*
X161569670Y-101969053D01*
X161655193Y-101905620D01*
X161693819Y-101850455D01*
X161724177Y-101748395D01*
X161699370Y-101607708D01*
X161856480Y-102498724D02*
X161793047Y-102413202D01*
X161737882Y-102374576D01*
X161635822Y-102344218D01*
X161354448Y-102393832D01*
X161268926Y-102457265D01*
X161230300Y-102512430D01*
X161199942Y-102614490D01*
X161224749Y-102755177D01*
X161288182Y-102840699D01*
X161343347Y-102879326D01*
X161445407Y-102909683D01*
X161726781Y-102860070D01*
X161812303Y-102796636D01*
X161850930Y-102741471D01*
X161881287Y-102639411D01*
X161856480Y-102498724D01*
X161307438Y-103224133D02*
X161373590Y-103599298D01*
X161003976Y-103422702D02*
X161848097Y-103273861D01*
X161950157Y-103304219D01*
X162013591Y-103389741D01*
X162030129Y-103483532D01*
X162584149Y-106625538D02*
X162057310Y-106379958D01*
X162484921Y-106062791D02*
X161500114Y-106236439D01*
X161566265Y-106611604D01*
X161629699Y-106697126D01*
X161684863Y-106735753D01*
X161786924Y-106766110D01*
X161927610Y-106741303D01*
X162013133Y-106677870D01*
X162051759Y-106622705D01*
X162082117Y-106520645D01*
X162015965Y-106145480D01*
X162076452Y-107585424D02*
X162732990Y-107469659D01*
X162002031Y-107163364D02*
X162517883Y-107072405D01*
X162619943Y-107102763D01*
X162683376Y-107188285D01*
X162708183Y-107328972D01*
X162677826Y-107431032D01*
X162639199Y-107486197D01*
X162159141Y-108054380D02*
X162815680Y-107938615D01*
X162252933Y-108037842D02*
X162214306Y-108093007D01*
X162183948Y-108195067D01*
X162208755Y-108335754D01*
X162272189Y-108421276D01*
X162374249Y-108451634D01*
X162890100Y-108360675D01*
D10*
X120856033Y-74487210D02*
X120980067Y-73783776D01*
X120957978Y-73634820D01*
X120880725Y-73524491D01*
X120748307Y-73452788D01*
X120654516Y-73436250D01*
X121967593Y-73667781D02*
X121498637Y-73585092D01*
X121324989Y-74569899D01*
X122842071Y-73918683D02*
X122803445Y-73863518D01*
X122671027Y-73791816D01*
X122577236Y-73775278D01*
X122428280Y-73797366D01*
X122317951Y-73874620D01*
X122254517Y-73960142D01*
X122174546Y-74139455D01*
X122149739Y-74280142D01*
X122163559Y-74475994D01*
X122193916Y-74578054D01*
X122271170Y-74688383D01*
X122403588Y-74760085D01*
X122497379Y-74776623D01*
X122646335Y-74754535D01*
X122701499Y-74715908D01*
X123388395Y-74933734D02*
X123512430Y-74230300D01*
X123490341Y-74081344D01*
X123413088Y-73971015D01*
X123280670Y-73899312D01*
X123186879Y-73882774D01*
X124499956Y-74114305D02*
X124031000Y-74031616D01*
X123857351Y-75016423D01*
X125374434Y-74365207D02*
X125335808Y-74310042D01*
X125203390Y-74238340D01*
X125109599Y-74221802D01*
X124960643Y-74243890D01*
X124850314Y-74321144D01*
X124786880Y-74406666D01*
X124706909Y-74585979D01*
X124682102Y-74726666D01*
X124695922Y-74922518D01*
X124726279Y-75024578D01*
X124803533Y-75134907D01*
X124935950Y-75206609D01*
X125029742Y-75223147D01*
X125178697Y-75201059D01*
X125233862Y-75162432D01*
X125920758Y-75380258D02*
X126044793Y-74676823D01*
X126022704Y-74527868D01*
X125945451Y-74417539D01*
X125813033Y-74345836D01*
X125719241Y-74329298D01*
X127032318Y-74560829D02*
X126563362Y-74478139D01*
X126389714Y-75462947D01*
X127906797Y-74811730D02*
X127868170Y-74756566D01*
X127735753Y-74684863D01*
X127641961Y-74668326D01*
X127493006Y-74690414D01*
X127382676Y-74767668D01*
X127319243Y-74853190D01*
X127239271Y-75032503D01*
X127214465Y-75173190D01*
X127228284Y-75369041D01*
X127258642Y-75471102D01*
X127335895Y-75581431D01*
X127468313Y-75653133D01*
X127562104Y-75669671D01*
X127711060Y-75647582D01*
X127766225Y-75608956D01*
X128453121Y-75826781D02*
X128577155Y-75123347D01*
X128555067Y-74974392D01*
X128477813Y-74864062D01*
X128345395Y-74792360D01*
X128251604Y-74775822D01*
X129564681Y-75007353D02*
X129095725Y-74924663D01*
X128922077Y-75909471D01*
X130439160Y-75258254D02*
X130400533Y-75203090D01*
X130268115Y-75131387D01*
X130174324Y-75114849D01*
X130025368Y-75136938D01*
X129915039Y-75214191D01*
X129851606Y-75299714D01*
X129771634Y-75479027D01*
X129746827Y-75619714D01*
X129760647Y-75815565D01*
X129791005Y-75917626D01*
X129868258Y-76027955D01*
X130000676Y-76099657D01*
X130094467Y-76116195D01*
X130243423Y-76094106D01*
X130298588Y-76055480D01*
D13*
%TO.C,SW2*%
X148200000Y-133200000D02*
X148650000Y-132750000D01*
X151600000Y-133200000D02*
X151150000Y-132750000D01*
X151600000Y-137800000D02*
X151150000Y-138250000D01*
X148200000Y-137800000D02*
X148650000Y-138250000D01*
X152650000Y-136500000D02*
X152650000Y-134500000D01*
X148650000Y-132750000D02*
X151150000Y-132750000D01*
X147150000Y-136500000D02*
X147150000Y-134500000D01*
X148650000Y-138250000D02*
X151150000Y-138250000D01*
%TO.C,U46*%
X152960000Y-89140000D02*
X153610000Y-89140000D01*
X146390000Y-96360000D02*
X146390000Y-95710000D01*
X147040000Y-96360000D02*
X146390000Y-96360000D01*
X153610000Y-96360000D02*
X153610000Y-95710000D01*
X152960000Y-96360000D02*
X153610000Y-96360000D01*
X146390000Y-89140000D02*
X146390000Y-89790000D01*
X147040000Y-89140000D02*
X146390000Y-89140000D01*
%TO.C,Y1*%
X152100000Y-103750000D02*
X152100000Y-107050000D01*
X152100000Y-107050000D02*
X148100000Y-107050000D01*
%TO.C,U47*%
X170288843Y-66310138D02*
X170507639Y-67550995D01*
X171473123Y-73026526D02*
X171254326Y-71785669D01*
X166585965Y-66963055D02*
X170288843Y-66310138D01*
X165554428Y-74070152D02*
X171473123Y-73026526D01*
%TO.C,U45*%
X160973191Y-85183601D02*
X158289590Y-85656792D01*
X158289590Y-85656792D02*
X158244442Y-85400742D01*
X160973191Y-85183601D02*
X163656792Y-84710410D01*
X163656792Y-84710410D02*
X163611644Y-84454360D01*
X160026809Y-79816399D02*
X157343208Y-80289590D01*
X157343208Y-80289590D02*
X157388356Y-80545640D01*
X160026809Y-79816399D02*
X162710410Y-79343208D01*
X162710410Y-79343208D02*
X162755558Y-79599258D01*
X162755558Y-79599258D02*
X164405111Y-79308397D01*
%TO.C,SW1*%
X165609877Y-102426783D02*
X165575148Y-102229822D01*
X162018988Y-105903148D02*
X161777449Y-105742653D01*
X161793245Y-104622898D02*
X161621165Y-104856326D01*
X163289390Y-105679142D02*
X162018988Y-105903148D01*
X161777449Y-105742653D02*
X161621165Y-104856326D01*
X161793245Y-104622898D02*
X163063647Y-104398892D01*
X163541180Y-107107113D02*
X162551385Y-101493709D01*
X166130822Y-105381206D02*
X165835620Y-103707033D01*
X165418023Y-107385431D02*
X164640025Y-107522613D01*
X163441852Y-100727440D02*
X164219850Y-100590258D01*
%TO.C,R8*%
X150262258Y-140827500D02*
X149787742Y-140827500D01*
X150262258Y-141872500D02*
X149787742Y-141872500D01*
%TO.C,R7*%
X151077500Y-100562742D02*
X151077500Y-101037258D01*
X152122500Y-100562742D02*
X152122500Y-101037258D01*
%TO.C,R6*%
X147477500Y-83012742D02*
X147477500Y-83487258D01*
X148522500Y-83012742D02*
X148522500Y-83487258D01*
%TO.C,R5*%
X149227500Y-83012742D02*
X149227500Y-83487258D01*
X150272500Y-83012742D02*
X150272500Y-83487258D01*
%TO.C,R4*%
X162607078Y-77805761D02*
X163074385Y-77723363D01*
X162425615Y-76776637D02*
X162892922Y-76694239D01*
%TO.C,R3*%
X159642922Y-77194239D02*
X159175615Y-77276637D01*
X159824385Y-78223363D02*
X159357078Y-78305761D01*
%TO.C,R2*%
X147727500Y-63437742D02*
X147727500Y-63912258D01*
X148772500Y-63437742D02*
X148772500Y-63912258D01*
%TO.C,R1*%
X150727500Y-63437742D02*
X150727500Y-63912258D01*
X151772500Y-63437742D02*
X151772500Y-63912258D01*
%TO.C,D45*%
X150812000Y-143935000D02*
X148527000Y-143935000D01*
X148527000Y-143935000D02*
X148527000Y-142465000D01*
X148527000Y-142465000D02*
X150812000Y-142465000D01*
%TO.C,C16*%
X146490000Y-105159420D02*
X146490000Y-105440580D01*
X147510000Y-105159420D02*
X147510000Y-105440580D01*
%TO.C,C15*%
X169799884Y-74473337D02*
X169522995Y-74522160D01*
X169977005Y-75477840D02*
X169700116Y-75526663D01*
%TO.C,C14*%
X167700116Y-65526663D02*
X167977005Y-65477840D01*
X167522995Y-64522160D02*
X167799884Y-64473337D01*
%TO.C,C13*%
X153810000Y-105440580D02*
X153810000Y-105159420D01*
X152790000Y-105440580D02*
X152790000Y-105159420D01*
%TO.C,C12*%
X145010000Y-83390580D02*
X145010000Y-83109420D01*
X143990000Y-83390580D02*
X143990000Y-83109420D01*
%TO.C,C11*%
X146760000Y-83365580D02*
X146760000Y-83084420D01*
X145740000Y-83365580D02*
X145740000Y-83084420D01*
%TO.C,C10*%
X158859420Y-89710000D02*
X159140580Y-89710000D01*
X158859420Y-88690000D02*
X159140580Y-88690000D01*
%TO.C,C9*%
X156299884Y-77807937D02*
X156022995Y-77856760D01*
X156477005Y-78812440D02*
X156200116Y-78861263D01*
%TO.C,C8*%
X152010000Y-83365580D02*
X152010000Y-83084420D01*
X150990000Y-83365580D02*
X150990000Y-83084420D01*
%TO.C,C7*%
X149490000Y-100684420D02*
X149490000Y-100965580D01*
X150510000Y-100684420D02*
X150510000Y-100965580D01*
%TO.C,C6*%
X140890580Y-86740000D02*
X140609420Y-86740000D01*
X140890580Y-87760000D02*
X140609420Y-87760000D01*
%TO.C,C5*%
X140865580Y-93290000D02*
X140584420Y-93290000D01*
X140865580Y-94310000D02*
X140584420Y-94310000D01*
%TO.C,C4*%
X158859420Y-95010000D02*
X159140580Y-95010000D01*
X158859420Y-93990000D02*
X159140580Y-93990000D01*
%TO.C,C3*%
X140915580Y-88740000D02*
X140634420Y-88740000D01*
X140915580Y-89760000D02*
X140634420Y-89760000D01*
%TO.C,C2*%
X153760000Y-83365580D02*
X153760000Y-83084420D01*
X152740000Y-83365580D02*
X152740000Y-83084420D01*
%TO.C,C1*%
X147890000Y-100684420D02*
X147890000Y-100965580D01*
X148910000Y-100684420D02*
X148910000Y-100965580D01*
%TO.C,D30*%
X206088516Y-117167169D02*
X205411288Y-113326419D01*
X204118901Y-117514466D02*
X203441673Y-113673715D01*
X206088516Y-117167169D02*
X204118901Y-117514466D01*
%TO.C,D22*%
X254161484Y-88832731D02*
X254838712Y-92673481D01*
X256131099Y-88485434D02*
X256808327Y-92326185D01*
X254161484Y-88832731D02*
X256131099Y-88485434D01*
D10*
%TO.C,U30*%
X191497776Y-118531461D02*
X191601964Y-119122345D01*
X199538710Y-115184316D02*
X197076691Y-115618437D01*
X197365703Y-120136896D02*
X196786475Y-119731316D01*
X196612827Y-118746508D02*
X196786475Y-119731316D01*
X191601964Y-119122345D02*
X196033599Y-118340929D01*
X200117938Y-115589896D02*
X199538710Y-115184316D01*
X200725706Y-119036723D02*
X200320127Y-119615951D01*
X200320127Y-119615951D02*
X197365703Y-120136896D01*
X195339007Y-114401698D02*
X195217453Y-113712332D01*
X195217453Y-113712332D02*
X190785818Y-114493749D01*
X190785818Y-114493749D02*
X190872642Y-114986153D01*
X196033599Y-118340928D02*
G75*
G02*
X196612827Y-118746508I86824J-492404D01*
G01*
X197076691Y-115618436D02*
G75*
G02*
X195339007Y-114401698I-260473J1477211D01*
G01*
%TO.C,U41*%
X194449776Y-135273461D02*
X194553964Y-135864345D01*
X202490710Y-131926316D02*
X200028691Y-132360437D01*
X200317703Y-136878896D02*
X199738475Y-136473316D01*
X199564827Y-135488508D02*
X199738475Y-136473316D01*
X194553964Y-135864345D02*
X198985599Y-135082929D01*
X203069938Y-132331896D02*
X202490710Y-131926316D01*
X203677706Y-135778723D02*
X203272127Y-136357951D01*
X203272127Y-136357951D02*
X200317703Y-136878896D01*
X198291007Y-131143698D02*
X198169453Y-130454332D01*
X198169453Y-130454332D02*
X193737818Y-131235749D01*
X193737818Y-131235749D02*
X193824642Y-131728153D01*
X198985599Y-135082928D02*
G75*
G02*
X199564827Y-135488508I86824J-492404D01*
G01*
X200028691Y-132360436D02*
G75*
G02*
X198291007Y-131143698I-260473J1477211D01*
G01*
D13*
%TO.C,D41*%
X206161484Y-129832831D02*
X208131099Y-129485534D01*
X208131099Y-129485534D02*
X208808327Y-133326285D01*
X206161484Y-129832831D02*
X206838712Y-133673581D01*
D10*
%TO.C,U19*%
X188545776Y-101790261D02*
X188649964Y-102381145D01*
X196586710Y-98443116D02*
X194124691Y-98877237D01*
X194413703Y-103395696D02*
X193834475Y-102990116D01*
X193660827Y-102005308D02*
X193834475Y-102990116D01*
X188649964Y-102381145D02*
X193081599Y-101599729D01*
X197165938Y-98848696D02*
X196586710Y-98443116D01*
X197773706Y-102295523D02*
X197368127Y-102874751D01*
X197368127Y-102874751D02*
X194413703Y-103395696D01*
X192387007Y-97660498D02*
X192265453Y-96971132D01*
X192265453Y-96971132D02*
X187833818Y-97752549D01*
X187833818Y-97752549D02*
X187920642Y-98244953D01*
X193081599Y-101599728D02*
G75*
G02*
X193660827Y-102005308I86824J-492404D01*
G01*
X194124691Y-98877236D02*
G75*
G02*
X192387007Y-97660498I-260473J1477211D01*
G01*
D13*
%TO.C,D7*%
X181087484Y-86582931D02*
X181764712Y-90423681D01*
X183057099Y-86235634D02*
X183734327Y-90076385D01*
X181087484Y-86582931D02*
X183057099Y-86235634D01*
%TO.C,D8*%
X197837484Y-79582931D02*
X198514712Y-83423681D01*
X199807099Y-79235634D02*
X200484327Y-83076385D01*
X197837484Y-79582931D02*
X199807099Y-79235634D01*
D10*
%TO.C,U8*%
X185593776Y-85048461D02*
X185697964Y-85639345D01*
X193634710Y-81701316D02*
X191172691Y-82135437D01*
X191461703Y-86653896D02*
X190882475Y-86248316D01*
X190708827Y-85263508D02*
X190882475Y-86248316D01*
X185697964Y-85639345D02*
X190129599Y-84857929D01*
X194213938Y-82106896D02*
X193634710Y-81701316D01*
X194821706Y-85553723D02*
X194416127Y-86132951D01*
X194416127Y-86132951D02*
X191461703Y-86653896D01*
X189435007Y-80918698D02*
X189313453Y-80229332D01*
X189313453Y-80229332D02*
X184881818Y-81010749D01*
X184881818Y-81010749D02*
X184968642Y-81503153D01*
X190129599Y-84857928D02*
G75*
G02*
X190708827Y-85263508I86824J-492404D01*
G01*
X191172691Y-82135436D02*
G75*
G02*
X189435007Y-80918698I-260473J1477211D01*
G01*
D13*
%TO.C,D39*%
X171337484Y-138082831D02*
X172014712Y-141923581D01*
X173307099Y-137735534D02*
X173984327Y-141576285D01*
X171337484Y-138082831D02*
X173307099Y-137735534D01*
%TO.C,D28*%
X168374484Y-121457831D02*
X170344099Y-121110534D01*
X170344099Y-121110534D02*
X171021327Y-124951285D01*
X168374484Y-121457831D02*
X169051712Y-125298581D01*
%TO.C,D29*%
X186587484Y-120082831D02*
X188557099Y-119735534D01*
X188557099Y-119735534D02*
X189234327Y-123576285D01*
X186587484Y-120082831D02*
X187264712Y-123923581D01*
D10*
%TO.C,U40*%
X177417776Y-142338461D02*
X177521964Y-142929345D01*
X185458710Y-138991316D02*
X182996691Y-139425437D01*
X183285703Y-143943896D02*
X182706475Y-143538316D01*
X182532827Y-142553508D02*
X182706475Y-143538316D01*
X177521964Y-142929345D02*
X181953599Y-142147929D01*
X186037938Y-139396896D02*
X185458710Y-138991316D01*
X186645706Y-142843723D02*
X186240127Y-143422951D01*
X186240127Y-143422951D02*
X183285703Y-143943896D01*
X181259007Y-138208698D02*
X181137453Y-137519332D01*
X181137453Y-137519332D02*
X176705818Y-138300749D01*
X176705818Y-138300749D02*
X176792642Y-138793153D01*
X181953599Y-142147928D02*
G75*
G02*
X182532827Y-142553508I86824J-492404D01*
G01*
X182996691Y-139425436D02*
G75*
G02*
X181259007Y-138208698I-260473J1477211D01*
G01*
D13*
%TO.C,D40*%
X189411484Y-136832831D02*
X190088712Y-140673581D01*
X191381099Y-136485534D02*
X192058327Y-140326285D01*
X189411484Y-136832831D02*
X191381099Y-136485534D01*
D10*
%TO.C,U29*%
X174465776Y-125596461D02*
X174569964Y-126187345D01*
X182506710Y-122249316D02*
X180044691Y-122683437D01*
X180333703Y-127201896D02*
X179754475Y-126796316D01*
X179580827Y-125811508D02*
X179754475Y-126796316D01*
X174569964Y-126187345D02*
X179001599Y-125405929D01*
X183085938Y-122654896D02*
X182506710Y-122249316D01*
X183693706Y-126101723D02*
X183288127Y-126680951D01*
X183288127Y-126680951D02*
X180333703Y-127201896D01*
X178307007Y-121466698D02*
X178185453Y-120777332D01*
X178185453Y-120777332D02*
X173753818Y-121558749D01*
X173753818Y-121558749D02*
X173840642Y-122051153D01*
X179001599Y-125405928D02*
G75*
G02*
X179580827Y-125811508I86824J-492404D01*
G01*
X180044691Y-122683436D02*
G75*
G02*
X178307007Y-121466698I-260473J1477211D01*
G01*
%TO.C,U28*%
X156391776Y-126752461D02*
X156495964Y-127343345D01*
X164432710Y-123405316D02*
X161970691Y-123839437D01*
X162259703Y-128357896D02*
X161680475Y-127952316D01*
X161506827Y-126967508D02*
X161680475Y-127952316D01*
X156495964Y-127343345D02*
X160927599Y-126561929D01*
X165011938Y-123810896D02*
X164432710Y-123405316D01*
X165619706Y-127257723D02*
X165214127Y-127836951D01*
X165214127Y-127836951D02*
X162259703Y-128357896D01*
X160233007Y-122622698D02*
X160111453Y-121933332D01*
X160111453Y-121933332D02*
X155679818Y-122714749D01*
X155679818Y-122714749D02*
X155766642Y-123207153D01*
X160927599Y-126561928D02*
G75*
G02*
X161506827Y-126967508I86824J-492404D01*
G01*
X161970691Y-123839436D02*
G75*
G02*
X160233007Y-122622698I-260473J1477211D01*
G01*
%TO.C,U39*%
X159343776Y-143494461D02*
X159447964Y-144085345D01*
X167384710Y-140147316D02*
X164922691Y-140581437D01*
X165211703Y-145099896D02*
X164632475Y-144694316D01*
X164458827Y-143709508D02*
X164632475Y-144694316D01*
X159447964Y-144085345D02*
X163879599Y-143303929D01*
X167963938Y-140552896D02*
X167384710Y-140147316D01*
X168571706Y-143999723D02*
X168166127Y-144578951D01*
X168166127Y-144578951D02*
X165211703Y-145099896D01*
X163185007Y-139364698D02*
X163063453Y-138675332D01*
X163063453Y-138675332D02*
X158631818Y-139456749D01*
X158631818Y-139456749D02*
X158718642Y-139949153D01*
X163879599Y-143303928D02*
G75*
G02*
X164458827Y-143709508I86824J-492404D01*
G01*
X164922691Y-140581436D02*
G75*
G02*
X163185007Y-139364698I-260473J1477211D01*
G01*
%TO.C,U2*%
X65339316Y-75381286D02*
X65235127Y-75972171D01*
X74040113Y-74986161D02*
X71578094Y-74552041D01*
X70304273Y-78896851D02*
X69898694Y-78317623D01*
X70072342Y-77332816D02*
X69898694Y-78317623D01*
X65235127Y-75972171D02*
X69666762Y-76753588D01*
X74445693Y-75565389D02*
X74040113Y-74986161D01*
X73837925Y-79012216D02*
X73258697Y-79417796D01*
X73258697Y-79417796D02*
X70304273Y-78896851D01*
X70361355Y-72814357D02*
X70482908Y-72124991D01*
X70482908Y-72124991D02*
X66051273Y-71343574D01*
X66051273Y-71343574D02*
X65964449Y-71835978D01*
D13*
X70754076Y-64252478D02*
X71443441Y-64374031D01*
X70290693Y-64576942D02*
X70754076Y-64252478D01*
X70290693Y-64576942D02*
X70203869Y-65069345D01*
X70169140Y-65266307D02*
X70203869Y-65069345D01*
D10*
X69666762Y-76753588D02*
G75*
G02*
X70072342Y-77332816I-86824J-492404D01*
G01*
X71578094Y-74552040D02*
G75*
G02*
X70361355Y-72814357I260472J1477211D01*
G01*
%TO.C,U1*%
X47091916Y-75209986D02*
X46987727Y-75800871D01*
X55792713Y-74814861D02*
X53330694Y-74380741D01*
X52056873Y-78725551D02*
X51651294Y-78146323D01*
X51824942Y-77161516D02*
X51651294Y-78146323D01*
X46987727Y-75800871D02*
X51419362Y-76582288D01*
X56198293Y-75394089D02*
X55792713Y-74814861D01*
X55590525Y-78840916D02*
X55011297Y-79246496D01*
X55011297Y-79246496D02*
X52056873Y-78725551D01*
X52113955Y-72643057D02*
X52235508Y-71953691D01*
X52235508Y-71953691D02*
X47803873Y-71172274D01*
X47803873Y-71172274D02*
X47717049Y-71664678D01*
D13*
X52506676Y-64081178D02*
X53196041Y-64202731D01*
X52043293Y-64405642D02*
X52506676Y-64081178D01*
X52043293Y-64405642D02*
X51956469Y-64898045D01*
X51921740Y-65095007D02*
X51956469Y-64898045D01*
D10*
X51419362Y-76582288D02*
G75*
G02*
X51824942Y-77161516I-86824J-492404D01*
G01*
X53330694Y-74380740D02*
G75*
G02*
X52113955Y-72643057I260472J1477211D01*
G01*
%TO.C,U44*%
X247976776Y-127866461D02*
X248080964Y-128457345D01*
X256017710Y-124519316D02*
X253555691Y-124953437D01*
X253844703Y-129471896D02*
X253265475Y-129066316D01*
X253091827Y-128081508D02*
X253265475Y-129066316D01*
X248080964Y-128457345D02*
X252512599Y-127675929D01*
X256596938Y-124924896D02*
X256017710Y-124519316D01*
X257204706Y-128371723D02*
X256799127Y-128950951D01*
X256799127Y-128950951D02*
X253844703Y-129471896D01*
X251818007Y-123736698D02*
X251696453Y-123047332D01*
X251696453Y-123047332D02*
X247264818Y-123828749D01*
X247264818Y-123828749D02*
X247351642Y-124321153D01*
X252512599Y-127675928D02*
G75*
G02*
X253091827Y-128081508I86824J-492404D01*
G01*
X253555691Y-124953436D02*
G75*
G02*
X251818007Y-123736698I-260473J1477211D01*
G01*
%TO.C,U43*%
X229729776Y-128037461D02*
X229833964Y-128628345D01*
X237770710Y-124690316D02*
X235308691Y-125124437D01*
X235597703Y-129642896D02*
X235018475Y-129237316D01*
X234844827Y-128252508D02*
X235018475Y-129237316D01*
X229833964Y-128628345D02*
X234265599Y-127846929D01*
X238349938Y-125095896D02*
X237770710Y-124690316D01*
X238957706Y-128542723D02*
X238552127Y-129121951D01*
X238552127Y-129121951D02*
X235597703Y-129642896D01*
X233571007Y-123907698D02*
X233449453Y-123218332D01*
X233449453Y-123218332D02*
X229017818Y-123999749D01*
X229017818Y-123999749D02*
X229104642Y-124492153D01*
X234265599Y-127846928D02*
G75*
G02*
X234844827Y-128252508I86824J-492404D01*
G01*
X235308691Y-125124436D02*
G75*
G02*
X233571007Y-123907698I-260473J1477211D01*
G01*
%TO.C,U42*%
X211134776Y-126239461D02*
X211238964Y-126830345D01*
X219175710Y-122892316D02*
X216713691Y-123326437D01*
X217002703Y-127844896D02*
X216423475Y-127439316D01*
X216249827Y-126454508D02*
X216423475Y-127439316D01*
X211238964Y-126830345D02*
X215670599Y-126048929D01*
X219754938Y-123297896D02*
X219175710Y-122892316D01*
X220362706Y-126744723D02*
X219957127Y-127323951D01*
X219957127Y-127323951D02*
X217002703Y-127844896D01*
X214976007Y-122109698D02*
X214854453Y-121420332D01*
X214854453Y-121420332D02*
X210422818Y-122201749D01*
X210422818Y-122201749D02*
X210509642Y-122694153D01*
X215670599Y-126048928D02*
G75*
G02*
X216249827Y-126454508I86824J-492404D01*
G01*
X216713691Y-123326436D02*
G75*
G02*
X214976007Y-122109698I-260473J1477211D01*
G01*
%TO.C,U38*%
X108794916Y-139907386D02*
X108690727Y-140498271D01*
X117495713Y-139512261D02*
X115033694Y-139078141D01*
X113759873Y-143422951D02*
X113354294Y-142843723D01*
X113527942Y-141858916D02*
X113354294Y-142843723D01*
X108690727Y-140498271D02*
X113122362Y-141279688D01*
X117901293Y-140091489D02*
X117495713Y-139512261D01*
X117293525Y-143538316D02*
X116714297Y-143943896D01*
X116714297Y-143943896D02*
X113759873Y-143422951D01*
X113816955Y-137340457D02*
X113938508Y-136651091D01*
X113938508Y-136651091D02*
X109506873Y-135869674D01*
X109506873Y-135869674D02*
X109420049Y-136362078D01*
X113122362Y-141279688D02*
G75*
G02*
X113527942Y-141858916I-86824J-492404D01*
G01*
X115033694Y-139078140D02*
G75*
G02*
X113816955Y-137340457I260472J1477211D01*
G01*
%TO.C,U37*%
X91762716Y-132842386D02*
X91658527Y-133433271D01*
X100463513Y-132447261D02*
X98001494Y-132013141D01*
X96727673Y-136357951D02*
X96322094Y-135778723D01*
X96495742Y-134793916D02*
X96322094Y-135778723D01*
X91658527Y-133433271D02*
X96090162Y-134214688D01*
X100869093Y-133026489D02*
X100463513Y-132447261D01*
X100261325Y-136473316D02*
X99682097Y-136878896D01*
X99682097Y-136878896D02*
X96727673Y-136357951D01*
X96784755Y-130275457D02*
X96906308Y-129586091D01*
X96906308Y-129586091D02*
X92474673Y-128804674D01*
X92474673Y-128804674D02*
X92387849Y-129297078D01*
X96090162Y-134214688D02*
G75*
G02*
X96495742Y-134793916I-86824J-492404D01*
G01*
X98001494Y-132013140D02*
G75*
G02*
X96784755Y-130275457I260472J1477211D01*
G01*
%TO.C,U36*%
X75078116Y-123808386D02*
X74973927Y-124399271D01*
X83778913Y-123413261D02*
X81316894Y-122979141D01*
X80043073Y-127323951D02*
X79637494Y-126744723D01*
X79811142Y-125759916D02*
X79637494Y-126744723D01*
X74973927Y-124399271D02*
X79405562Y-125180688D01*
X84184493Y-123992489D02*
X83778913Y-123413261D01*
X83576725Y-127439316D02*
X82997497Y-127844896D01*
X82997497Y-127844896D02*
X80043073Y-127323951D01*
X80100155Y-121241457D02*
X80221708Y-120552091D01*
X80221708Y-120552091D02*
X75790073Y-119770674D01*
X75790073Y-119770674D02*
X75703249Y-120263078D01*
X79405562Y-125180688D02*
G75*
G02*
X79811142Y-125759916I-86824J-492404D01*
G01*
X81316894Y-122979140D02*
G75*
G02*
X80100155Y-121241457I260472J1477211D01*
G01*
%TO.C,U35*%
X56483316Y-125606386D02*
X56379127Y-126197271D01*
X65184113Y-125211261D02*
X62722094Y-124777141D01*
X61448273Y-129121951D02*
X61042694Y-128542723D01*
X61216342Y-127557916D02*
X61042694Y-128542723D01*
X56379127Y-126197271D02*
X60810762Y-126978688D01*
X65589693Y-125790489D02*
X65184113Y-125211261D01*
X64981925Y-129237316D02*
X64402697Y-129642896D01*
X64402697Y-129642896D02*
X61448273Y-129121951D01*
X61505355Y-123039457D02*
X61626908Y-122350091D01*
X61626908Y-122350091D02*
X57195273Y-121568674D01*
X57195273Y-121568674D02*
X57108449Y-122061078D01*
X60810762Y-126978688D02*
G75*
G02*
X61216342Y-127557916I-86824J-492404D01*
G01*
X62722094Y-124777140D02*
G75*
G02*
X61505355Y-123039457I260472J1477211D01*
G01*
%TO.C,U34*%
X38235816Y-125435386D02*
X38131627Y-126026271D01*
X46936613Y-125040261D02*
X44474594Y-124606141D01*
X43200773Y-128950951D02*
X42795194Y-128371723D01*
X42968842Y-127386916D02*
X42795194Y-128371723D01*
X38131627Y-126026271D02*
X42563262Y-126807688D01*
X47342193Y-125619489D02*
X46936613Y-125040261D01*
X46734425Y-129066316D02*
X46155197Y-129471896D01*
X46155197Y-129471896D02*
X43200773Y-128950951D01*
X43257855Y-122868457D02*
X43379408Y-122179091D01*
X43379408Y-122179091D02*
X38947773Y-121397674D01*
X38947773Y-121397674D02*
X38860949Y-121890078D01*
X42563262Y-126807688D02*
G75*
G02*
X42968842Y-127386916I-86824J-492404D01*
G01*
X44474594Y-124606140D02*
G75*
G02*
X43257855Y-122868457I260472J1477211D01*
G01*
%TO.C,U33*%
X245024776Y-111124461D02*
X245128964Y-111715345D01*
X253065710Y-107777316D02*
X250603691Y-108211437D01*
X250892703Y-112729896D02*
X250313475Y-112324316D01*
X250139827Y-111339508D02*
X250313475Y-112324316D01*
X245128964Y-111715345D02*
X249560599Y-110933929D01*
X253644938Y-108182896D02*
X253065710Y-107777316D01*
X254252706Y-111629723D02*
X253847127Y-112208951D01*
X253847127Y-112208951D02*
X250892703Y-112729896D01*
X248866007Y-106994698D02*
X248744453Y-106305332D01*
X248744453Y-106305332D02*
X244312818Y-107086749D01*
X244312818Y-107086749D02*
X244399642Y-107579153D01*
X249560599Y-110933928D02*
G75*
G02*
X250139827Y-111339508I86824J-492404D01*
G01*
X250603691Y-108211436D02*
G75*
G02*
X248866007Y-106994698I-260473J1477211D01*
G01*
%TO.C,U32*%
X226777776Y-111295461D02*
X226881964Y-111886345D01*
X234818710Y-107948316D02*
X232356691Y-108382437D01*
X232645703Y-112900896D02*
X232066475Y-112495316D01*
X231892827Y-111510508D02*
X232066475Y-112495316D01*
X226881964Y-111886345D02*
X231313599Y-111104929D01*
X235397938Y-108353896D02*
X234818710Y-107948316D01*
X236005706Y-111800723D02*
X235600127Y-112379951D01*
X235600127Y-112379951D02*
X232645703Y-112900896D01*
X230619007Y-107165698D02*
X230497453Y-106476332D01*
X230497453Y-106476332D02*
X226065818Y-107257749D01*
X226065818Y-107257749D02*
X226152642Y-107750153D01*
X231313599Y-111104928D02*
G75*
G02*
X231892827Y-111510508I86824J-492404D01*
G01*
X232356691Y-108382436D02*
G75*
G02*
X230619007Y-107165698I-260473J1477211D01*
G01*
%TO.C,U31*%
X208182776Y-109497461D02*
X208286964Y-110088345D01*
X216223710Y-106150316D02*
X213761691Y-106584437D01*
X214050703Y-111102896D02*
X213471475Y-110697316D01*
X213297827Y-109712508D02*
X213471475Y-110697316D01*
X208286964Y-110088345D02*
X212718599Y-109306929D01*
X216802938Y-106555896D02*
X216223710Y-106150316D01*
X217410706Y-110002723D02*
X217005127Y-110581951D01*
X217005127Y-110581951D02*
X214050703Y-111102896D01*
X212024007Y-105367698D02*
X211902453Y-104678332D01*
X211902453Y-104678332D02*
X207470818Y-105459749D01*
X207470818Y-105459749D02*
X207557642Y-105952153D01*
X212718599Y-109306928D02*
G75*
G02*
X213297827Y-109712508I86824J-492404D01*
G01*
X213761691Y-106584436D02*
G75*
G02*
X212024007Y-105367698I-260473J1477211D01*
G01*
%TO.C,U27*%
X111746916Y-123165386D02*
X111642727Y-123756271D01*
X120447713Y-122770261D02*
X117985694Y-122336141D01*
X116711873Y-126680951D02*
X116306294Y-126101723D01*
X116479942Y-125116916D02*
X116306294Y-126101723D01*
X111642727Y-123756271D02*
X116074362Y-124537688D01*
X120853293Y-123349489D02*
X120447713Y-122770261D01*
X120245525Y-126796316D02*
X119666297Y-127201896D01*
X119666297Y-127201896D02*
X116711873Y-126680951D01*
X116768955Y-120598457D02*
X116890508Y-119909091D01*
X116890508Y-119909091D02*
X112458873Y-119127674D01*
X112458873Y-119127674D02*
X112372049Y-119620078D01*
X116074362Y-124537688D02*
G75*
G02*
X116479942Y-125116916I-86824J-492404D01*
G01*
X117985694Y-122336140D02*
G75*
G02*
X116768955Y-120598457I260472J1477211D01*
G01*
%TO.C,U26*%
X94714916Y-116100386D02*
X94610727Y-116691271D01*
X103415713Y-115705261D02*
X100953694Y-115271141D01*
X99679873Y-119615951D02*
X99274294Y-119036723D01*
X99447942Y-118051916D02*
X99274294Y-119036723D01*
X94610727Y-116691271D02*
X99042362Y-117472688D01*
X103821293Y-116284489D02*
X103415713Y-115705261D01*
X103213525Y-119731316D02*
X102634297Y-120136896D01*
X102634297Y-120136896D02*
X99679873Y-119615951D01*
X99736955Y-113533457D02*
X99858508Y-112844091D01*
X99858508Y-112844091D02*
X95426873Y-112062674D01*
X95426873Y-112062674D02*
X95340049Y-112555078D01*
X99042362Y-117472688D02*
G75*
G02*
X99447942Y-118051916I-86824J-492404D01*
G01*
X100953694Y-115271140D02*
G75*
G02*
X99736955Y-113533457I260472J1477211D01*
G01*
%TO.C,U25*%
X78030116Y-107066386D02*
X77925927Y-107657271D01*
X86730913Y-106671261D02*
X84268894Y-106237141D01*
X82995073Y-110581951D02*
X82589494Y-110002723D01*
X82763142Y-109017916D02*
X82589494Y-110002723D01*
X77925927Y-107657271D02*
X82357562Y-108438688D01*
X87136493Y-107250489D02*
X86730913Y-106671261D01*
X86528725Y-110697316D02*
X85949497Y-111102896D01*
X85949497Y-111102896D02*
X82995073Y-110581951D01*
X83052155Y-104499457D02*
X83173708Y-103810091D01*
X83173708Y-103810091D02*
X78742073Y-103028674D01*
X78742073Y-103028674D02*
X78655249Y-103521078D01*
X82357562Y-108438688D02*
G75*
G02*
X82763142Y-109017916I-86824J-492404D01*
G01*
X84268894Y-106237140D02*
G75*
G02*
X83052155Y-104499457I260472J1477211D01*
G01*
%TO.C,U24*%
X59435316Y-108864386D02*
X59331127Y-109455271D01*
X68136113Y-108469261D02*
X65674094Y-108035141D01*
X64400273Y-112379951D02*
X63994694Y-111800723D01*
X64168342Y-110815916D02*
X63994694Y-111800723D01*
X59331127Y-109455271D02*
X63762762Y-110236688D01*
X68541693Y-109048489D02*
X68136113Y-108469261D01*
X67933925Y-112495316D02*
X67354697Y-112900896D01*
X67354697Y-112900896D02*
X64400273Y-112379951D01*
X64457355Y-106297457D02*
X64578908Y-105608091D01*
X64578908Y-105608091D02*
X60147273Y-104826674D01*
X60147273Y-104826674D02*
X60060449Y-105319078D01*
X63762762Y-110236688D02*
G75*
G02*
X64168342Y-110815916I-86824J-492404D01*
G01*
X65674094Y-108035140D02*
G75*
G02*
X64457355Y-106297457I260472J1477211D01*
G01*
%TO.C,U23*%
X41187816Y-108693386D02*
X41083627Y-109284271D01*
X49888613Y-108298261D02*
X47426594Y-107864141D01*
X46152773Y-112208951D02*
X45747194Y-111629723D01*
X45920842Y-110644916D02*
X45747194Y-111629723D01*
X41083627Y-109284271D02*
X45515262Y-110065688D01*
X50294193Y-108877489D02*
X49888613Y-108298261D01*
X49686425Y-112324316D02*
X49107197Y-112729896D01*
X49107197Y-112729896D02*
X46152773Y-112208951D01*
X46209855Y-106126457D02*
X46331408Y-105437091D01*
X46331408Y-105437091D02*
X41899773Y-104655674D01*
X41899773Y-104655674D02*
X41812949Y-105148078D01*
X45515262Y-110065688D02*
G75*
G02*
X45920842Y-110644916I-86824J-492404D01*
G01*
X47426594Y-107864140D02*
G75*
G02*
X46209855Y-106126457I260472J1477211D01*
G01*
%TO.C,U22*%
X242072776Y-94382861D02*
X242176964Y-94973745D01*
X250113710Y-91035716D02*
X247651691Y-91469837D01*
X247940703Y-95988296D02*
X247361475Y-95582716D01*
X247187827Y-94597908D02*
X247361475Y-95582716D01*
X242176964Y-94973745D02*
X246608599Y-94192329D01*
X250692938Y-91441296D02*
X250113710Y-91035716D01*
X251300706Y-94888123D02*
X250895127Y-95467351D01*
X250895127Y-95467351D02*
X247940703Y-95988296D01*
X245914007Y-90253098D02*
X245792453Y-89563732D01*
X245792453Y-89563732D02*
X241360818Y-90345149D01*
X241360818Y-90345149D02*
X241447642Y-90837553D01*
X246608599Y-94192328D02*
G75*
G02*
X247187827Y-94597908I86824J-492404D01*
G01*
X247651691Y-91469836D02*
G75*
G02*
X245914007Y-90253098I-260473J1477211D01*
G01*
%TO.C,U21*%
X223825776Y-94554061D02*
X223929964Y-95144945D01*
X231866710Y-91206916D02*
X229404691Y-91641037D01*
X229693703Y-96159496D02*
X229114475Y-95753916D01*
X228940827Y-94769108D02*
X229114475Y-95753916D01*
X223929964Y-95144945D02*
X228361599Y-94363529D01*
X232445938Y-91612496D02*
X231866710Y-91206916D01*
X233053706Y-95059323D02*
X232648127Y-95638551D01*
X232648127Y-95638551D02*
X229693703Y-96159496D01*
X227667007Y-90424298D02*
X227545453Y-89734932D01*
X227545453Y-89734932D02*
X223113818Y-90516349D01*
X223113818Y-90516349D02*
X223200642Y-91008753D01*
X228361599Y-94363528D02*
G75*
G02*
X228940827Y-94769108I86824J-492404D01*
G01*
X229404691Y-91641036D02*
G75*
G02*
X227667007Y-90424298I-260473J1477211D01*
G01*
%TO.C,U20*%
X205230776Y-92755761D02*
X205334964Y-93346645D01*
X213271710Y-89408616D02*
X210809691Y-89842737D01*
X211098703Y-94361196D02*
X210519475Y-93955616D01*
X210345827Y-92970808D02*
X210519475Y-93955616D01*
X205334964Y-93346645D02*
X209766599Y-92565229D01*
X213850938Y-89814196D02*
X213271710Y-89408616D01*
X214458706Y-93261023D02*
X214053127Y-93840251D01*
X214053127Y-93840251D02*
X211098703Y-94361196D01*
X209072007Y-88625998D02*
X208950453Y-87936632D01*
X208950453Y-87936632D02*
X204518818Y-88718049D01*
X204518818Y-88718049D02*
X204605642Y-89210453D01*
X209766599Y-92565228D02*
G75*
G02*
X210345827Y-92970808I86824J-492404D01*
G01*
X210809691Y-89842736D02*
G75*
G02*
X209072007Y-88625998I-260473J1477211D01*
G01*
%TO.C,U18*%
X171513776Y-108855461D02*
X171617964Y-109446345D01*
X179554710Y-105508316D02*
X177092691Y-105942437D01*
X177381703Y-110460896D02*
X176802475Y-110055316D01*
X176628827Y-109070508D02*
X176802475Y-110055316D01*
X171617964Y-109446345D02*
X176049599Y-108664929D01*
X180133938Y-105913896D02*
X179554710Y-105508316D01*
X180741706Y-109360723D02*
X180336127Y-109939951D01*
X180336127Y-109939951D02*
X177381703Y-110460896D01*
X175355007Y-104725698D02*
X175233453Y-104036332D01*
X175233453Y-104036332D02*
X170801818Y-104817749D01*
X170801818Y-104817749D02*
X170888642Y-105310153D01*
X176049599Y-108664928D02*
G75*
G02*
X176628827Y-109070508I86824J-492404D01*
G01*
X177092691Y-105942436D02*
G75*
G02*
X175355007Y-104725698I-260473J1477211D01*
G01*
%TO.C,U17*%
X126868916Y-141063386D02*
X126764727Y-141654271D01*
X135569713Y-140668261D02*
X133107694Y-140234141D01*
X131833873Y-144578951D02*
X131428294Y-143999723D01*
X131601942Y-143014916D02*
X131428294Y-143999723D01*
X126764727Y-141654271D02*
X131196362Y-142435688D01*
X135975293Y-141247489D02*
X135569713Y-140668261D01*
X135367525Y-144694316D02*
X134788297Y-145099896D01*
X134788297Y-145099896D02*
X131833873Y-144578951D01*
X131890955Y-138496457D02*
X132012508Y-137807091D01*
X132012508Y-137807091D02*
X127580873Y-137025674D01*
X127580873Y-137025674D02*
X127494049Y-137518078D01*
X131196362Y-142435688D02*
G75*
G02*
X131601942Y-143014916I-86824J-492404D01*
G01*
X133107694Y-140234140D02*
G75*
G02*
X131890955Y-138496457I260472J1477211D01*
G01*
%TO.C,U16*%
X114698916Y-106424386D02*
X114594727Y-107015271D01*
X123399713Y-106029261D02*
X120937694Y-105595141D01*
X119663873Y-109939951D02*
X119258294Y-109360723D01*
X119431942Y-108375916D02*
X119258294Y-109360723D01*
X114594727Y-107015271D02*
X119026362Y-107796688D01*
X123805293Y-106608489D02*
X123399713Y-106029261D01*
X123197525Y-110055316D02*
X122618297Y-110460896D01*
X122618297Y-110460896D02*
X119663873Y-109939951D01*
X119720955Y-103857457D02*
X119842508Y-103168091D01*
X119842508Y-103168091D02*
X115410873Y-102386674D01*
X115410873Y-102386674D02*
X115324049Y-102879078D01*
X119026362Y-107796688D02*
G75*
G02*
X119431942Y-108375916I-86824J-492404D01*
G01*
X120937694Y-105595140D02*
G75*
G02*
X119720955Y-103857457I260472J1477211D01*
G01*
%TO.C,U15*%
X97666916Y-99359186D02*
X97562727Y-99950071D01*
X106367713Y-98964061D02*
X103905694Y-98529941D01*
X102631873Y-102874751D02*
X102226294Y-102295523D01*
X102399942Y-101310716D02*
X102226294Y-102295523D01*
X97562727Y-99950071D02*
X101994362Y-100731488D01*
X106773293Y-99543289D02*
X106367713Y-98964061D01*
X106165525Y-102990116D02*
X105586297Y-103395696D01*
X105586297Y-103395696D02*
X102631873Y-102874751D01*
X102688955Y-96792257D02*
X102810508Y-96102891D01*
X102810508Y-96102891D02*
X98378873Y-95321474D01*
X98378873Y-95321474D02*
X98292049Y-95813878D01*
X101994362Y-100731488D02*
G75*
G02*
X102399942Y-101310716I-86824J-492404D01*
G01*
X103905694Y-98529940D02*
G75*
G02*
X102688955Y-96792257I260472J1477211D01*
G01*
%TO.C,U14*%
X80982116Y-90324686D02*
X80877927Y-90915571D01*
X89682913Y-89929561D02*
X87220894Y-89495441D01*
X85947073Y-93840251D02*
X85541494Y-93261023D01*
X85715142Y-92276216D02*
X85541494Y-93261023D01*
X80877927Y-90915571D02*
X85309562Y-91696988D01*
X90088493Y-90508789D02*
X89682913Y-89929561D01*
X89480725Y-93955616D02*
X88901497Y-94361196D01*
X88901497Y-94361196D02*
X85947073Y-93840251D01*
X86004155Y-87757757D02*
X86125708Y-87068391D01*
X86125708Y-87068391D02*
X81694073Y-86286974D01*
X81694073Y-86286974D02*
X81607249Y-86779378D01*
X85309562Y-91696988D02*
G75*
G02*
X85715142Y-92276216I-86824J-492404D01*
G01*
X87220894Y-89495440D02*
G75*
G02*
X86004155Y-87757757I260472J1477211D01*
G01*
%TO.C,U13*%
X62387316Y-92122986D02*
X62283127Y-92713871D01*
X71088113Y-91727861D02*
X68626094Y-91293741D01*
X67352273Y-95638551D02*
X66946694Y-95059323D01*
X67120342Y-94074516D02*
X66946694Y-95059323D01*
X62283127Y-92713871D02*
X66714762Y-93495288D01*
X71493693Y-92307089D02*
X71088113Y-91727861D01*
X70885925Y-95753916D02*
X70306697Y-96159496D01*
X70306697Y-96159496D02*
X67352273Y-95638551D01*
X67409355Y-89556057D02*
X67530908Y-88866691D01*
X67530908Y-88866691D02*
X63099273Y-88085274D01*
X63099273Y-88085274D02*
X63012449Y-88577678D01*
X66714762Y-93495288D02*
G75*
G02*
X67120342Y-94074516I-86824J-492404D01*
G01*
X68626094Y-91293740D02*
G75*
G02*
X67409355Y-89556057I260472J1477211D01*
G01*
%TO.C,U12*%
X44139816Y-91951786D02*
X44035627Y-92542671D01*
X52840613Y-91556661D02*
X50378594Y-91122541D01*
X49104773Y-95467351D02*
X48699194Y-94888123D01*
X48872842Y-93903316D02*
X48699194Y-94888123D01*
X44035627Y-92542671D02*
X48467262Y-93324088D01*
X53246193Y-92135889D02*
X52840613Y-91556661D01*
X52638425Y-95582716D02*
X52059197Y-95988296D01*
X52059197Y-95988296D02*
X49104773Y-95467351D01*
X49161855Y-89384857D02*
X49283408Y-88695491D01*
X49283408Y-88695491D02*
X44851773Y-87914074D01*
X44851773Y-87914074D02*
X44764949Y-88406478D01*
X48467262Y-93324088D02*
G75*
G02*
X48872842Y-93903316I-86824J-492404D01*
G01*
X50378594Y-91122540D02*
G75*
G02*
X49161855Y-89384857I260472J1477211D01*
G01*
%TO.C,U11*%
X239120776Y-77641061D02*
X239224964Y-78231945D01*
X247161710Y-74293916D02*
X244699691Y-74728037D01*
X244988703Y-79246496D02*
X244409475Y-78840916D01*
X244235827Y-77856108D02*
X244409475Y-78840916D01*
X239224964Y-78231945D02*
X243656599Y-77450529D01*
X247740938Y-74699496D02*
X247161710Y-74293916D01*
X248348706Y-78146323D02*
X247943127Y-78725551D01*
X247943127Y-78725551D02*
X244988703Y-79246496D01*
X242962007Y-73511298D02*
X242840453Y-72821932D01*
X242840453Y-72821932D02*
X238408818Y-73603349D01*
X238408818Y-73603349D02*
X238495642Y-74095753D01*
X243656599Y-77450528D02*
G75*
G02*
X244235827Y-77856108I86824J-492404D01*
G01*
X244699691Y-74728036D02*
G75*
G02*
X242962007Y-73511298I-260473J1477211D01*
G01*
%TO.C,U10*%
X220873776Y-77812361D02*
X220977964Y-78403245D01*
X228914710Y-74465216D02*
X226452691Y-74899337D01*
X226741703Y-79417796D02*
X226162475Y-79012216D01*
X225988827Y-78027408D02*
X226162475Y-79012216D01*
X220977964Y-78403245D02*
X225409599Y-77621829D01*
X229493938Y-74870796D02*
X228914710Y-74465216D01*
X230101706Y-78317623D02*
X229696127Y-78896851D01*
X229696127Y-78896851D02*
X226741703Y-79417796D01*
X224715007Y-73682598D02*
X224593453Y-72993232D01*
X224593453Y-72993232D02*
X220161818Y-73774649D01*
X220161818Y-73774649D02*
X220248642Y-74267053D01*
X225409599Y-77621828D02*
G75*
G02*
X225988827Y-78027408I86824J-492404D01*
G01*
X226452691Y-74899336D02*
G75*
G02*
X224715007Y-73682598I-260473J1477211D01*
G01*
%TO.C,U9*%
X202278776Y-76013961D02*
X202382964Y-76604845D01*
X210319710Y-72666816D02*
X207857691Y-73100937D01*
X208146703Y-77619396D02*
X207567475Y-77213816D01*
X207393827Y-76229008D02*
X207567475Y-77213816D01*
X202382964Y-76604845D02*
X206814599Y-75823429D01*
X210898938Y-73072396D02*
X210319710Y-72666816D01*
X211506706Y-76519223D02*
X211101127Y-77098451D01*
X211101127Y-77098451D02*
X208146703Y-77619396D01*
X206120007Y-71884198D02*
X205998453Y-71194832D01*
X205998453Y-71194832D02*
X201566818Y-71976249D01*
X201566818Y-71976249D02*
X201653642Y-72468653D01*
X206814599Y-75823428D02*
G75*
G02*
X207393827Y-76229008I86824J-492404D01*
G01*
X207857691Y-73100936D02*
G75*
G02*
X206120007Y-71884198I-260473J1477211D01*
G01*
%TO.C,U7*%
X168561776Y-92113361D02*
X168665964Y-92704245D01*
X176602710Y-88766216D02*
X174140691Y-89200337D01*
X174429703Y-93718796D02*
X173850475Y-93313216D01*
X173676827Y-92328408D02*
X173850475Y-93313216D01*
X168665964Y-92704245D02*
X173097599Y-91922829D01*
X177181938Y-89171796D02*
X176602710Y-88766216D01*
X177789706Y-92618623D02*
X177384127Y-93197851D01*
X177384127Y-93197851D02*
X174429703Y-93718796D01*
X172403007Y-87983598D02*
X172281453Y-87294232D01*
X172281453Y-87294232D02*
X167849818Y-88075649D01*
X167849818Y-88075649D02*
X167936642Y-88568053D01*
X173097599Y-91922828D02*
G75*
G02*
X173676827Y-92328408I86824J-492404D01*
G01*
X174140691Y-89200336D02*
G75*
G02*
X172403007Y-87983598I-260473J1477211D01*
G01*
%TO.C,U6*%
X129820916Y-124321386D02*
X129716727Y-124912271D01*
X138521713Y-123926261D02*
X136059694Y-123492141D01*
X134785873Y-127836951D02*
X134380294Y-127257723D01*
X134553942Y-126272916D02*
X134380294Y-127257723D01*
X129716727Y-124912271D02*
X134148362Y-125693688D01*
X138927293Y-124505489D02*
X138521713Y-123926261D01*
X138319525Y-127952316D02*
X137740297Y-128357896D01*
X137740297Y-128357896D02*
X134785873Y-127836951D01*
X134842955Y-121754457D02*
X134964508Y-121065091D01*
X134964508Y-121065091D02*
X130532873Y-120283674D01*
X130532873Y-120283674D02*
X130446049Y-120776078D01*
X134148362Y-125693688D02*
G75*
G02*
X134553942Y-126272916I-86824J-492404D01*
G01*
X136059694Y-123492140D02*
G75*
G02*
X134842955Y-121754457I260472J1477211D01*
G01*
%TO.C,U5*%
X117650916Y-89682286D02*
X117546727Y-90273171D01*
X126351713Y-89287161D02*
X123889694Y-88853041D01*
X122615873Y-93197851D02*
X122210294Y-92618623D01*
X122383942Y-91633816D02*
X122210294Y-92618623D01*
X117546727Y-90273171D02*
X121978362Y-91054588D01*
X126757293Y-89866389D02*
X126351713Y-89287161D01*
X126149525Y-93313216D02*
X125570297Y-93718796D01*
X125570297Y-93718796D02*
X122615873Y-93197851D01*
X122672955Y-87115357D02*
X122794508Y-86425991D01*
X122794508Y-86425991D02*
X118362873Y-85644574D01*
X118362873Y-85644574D02*
X118276049Y-86136978D01*
X121978362Y-91054588D02*
G75*
G02*
X122383942Y-91633816I-86824J-492404D01*
G01*
X123889694Y-88853040D02*
G75*
G02*
X122672955Y-87115357I260472J1477211D01*
G01*
%TO.C,U4*%
X100618916Y-82617386D02*
X100514727Y-83208271D01*
X109319713Y-82222261D02*
X106857694Y-81788141D01*
X105583873Y-86132951D02*
X105178294Y-85553723D01*
X105351942Y-84568916D02*
X105178294Y-85553723D01*
X100514727Y-83208271D02*
X104946362Y-83989688D01*
X109725293Y-82801489D02*
X109319713Y-82222261D01*
X109117525Y-86248316D02*
X108538297Y-86653896D01*
X108538297Y-86653896D02*
X105583873Y-86132951D01*
X105640955Y-80050457D02*
X105762508Y-79361091D01*
X105762508Y-79361091D02*
X101330873Y-78579674D01*
X101330873Y-78579674D02*
X101244049Y-79072078D01*
X104946362Y-83989688D02*
G75*
G02*
X105351942Y-84568916I-86824J-492404D01*
G01*
X106857694Y-81788140D02*
G75*
G02*
X105640955Y-80050457I260472J1477211D01*
G01*
%TO.C,U3*%
X83934116Y-73582886D02*
X83829927Y-74173771D01*
X92634913Y-73187761D02*
X90172894Y-72753641D01*
X88899073Y-77098451D02*
X88493494Y-76519223D01*
X88667142Y-75534416D02*
X88493494Y-76519223D01*
X83829927Y-74173771D02*
X88261562Y-74955188D01*
X93040493Y-73766989D02*
X92634913Y-73187761D01*
X92432725Y-77213816D02*
X91853497Y-77619396D01*
X91853497Y-77619396D02*
X88899073Y-77098451D01*
X88956155Y-71015957D02*
X89077708Y-70326591D01*
X89077708Y-70326591D02*
X84646073Y-69545174D01*
X84646073Y-69545174D02*
X84559249Y-70037578D01*
X88261562Y-74955188D02*
G75*
G02*
X88667142Y-75534416I-86824J-492404D01*
G01*
X90172894Y-72753640D02*
G75*
G02*
X88956155Y-71015957I260472J1477211D01*
G01*
D13*
%TO.C,LS1*%
X130716142Y-77502545D02*
X131280498Y-74301920D01*
X132313705Y-68442314D02*
X121283858Y-66497455D01*
X119686295Y-75557686D02*
X130716142Y-77502545D01*
X120250652Y-72357061D02*
X119686295Y-75557686D01*
X121283858Y-66497455D02*
X120719502Y-69698080D01*
X131749348Y-71642939D02*
X132313705Y-68442314D01*
%TO.C,D1*%
X60405901Y-74610534D02*
X62375516Y-74957831D01*
X62375516Y-74957831D02*
X61698288Y-78798581D01*
X60405901Y-74610534D02*
X59728673Y-78451285D01*
%TO.C,D2*%
X79405901Y-74610534D02*
X78728673Y-78451285D01*
X81375516Y-74957831D02*
X80698288Y-78798581D01*
X79405901Y-74610534D02*
X81375516Y-74957831D01*
%TO.C,D3*%
X98405901Y-72610534D02*
X97728673Y-76451285D01*
X100375516Y-72957831D02*
X99698288Y-76798581D01*
X98405901Y-72610534D02*
X100375516Y-72957831D01*
%TO.C,D4*%
X113405901Y-81610534D02*
X115375516Y-81957831D01*
X115375516Y-81957831D02*
X114698288Y-85798581D01*
X113405901Y-81610534D02*
X112728673Y-85451285D01*
%TO.C,D5*%
X131405901Y-88610534D02*
X130728673Y-92451285D01*
X133375516Y-88957831D02*
X132698288Y-92798581D01*
X131405901Y-88610534D02*
X133375516Y-88957831D01*
%TO.C,D6*%
X142942901Y-122985534D02*
X142265673Y-126826285D01*
X144912516Y-123332831D02*
X144235288Y-127173581D01*
X142942901Y-122985534D02*
X144912516Y-123332831D01*
%TO.C,D9*%
X213837484Y-69832931D02*
X214514712Y-73673681D01*
X215807099Y-69485634D02*
X216484327Y-73326385D01*
X213837484Y-69832931D02*
X215807099Y-69485634D01*
%TO.C,D10*%
X232587484Y-72332931D02*
X233264712Y-76173681D01*
X234557099Y-71985634D02*
X235234327Y-75826385D01*
X232587484Y-72332931D02*
X234557099Y-71985634D01*
%TO.C,D11*%
X251337484Y-72082931D02*
X252014712Y-75923681D01*
X253307099Y-71735634D02*
X253984327Y-75576385D01*
X251337484Y-72082931D02*
X253307099Y-71735634D01*
%TO.C,D12*%
X57905901Y-91360534D02*
X59875516Y-91707831D01*
X59875516Y-91707831D02*
X59198288Y-95548581D01*
X57905901Y-91360534D02*
X57228673Y-95201285D01*
%TO.C,D13*%
X76405901Y-91610534D02*
X78375516Y-91957831D01*
X78375516Y-91957831D02*
X77698288Y-95798581D01*
X76405901Y-91610534D02*
X75728673Y-95451285D01*
%TO.C,D14*%
X95405901Y-89610534D02*
X97375516Y-89957831D01*
X97375516Y-89957831D02*
X96698288Y-93798581D01*
X95405901Y-89610534D02*
X94728673Y-93451285D01*
%TO.C,D15*%
X111405901Y-97610534D02*
X110728673Y-101451285D01*
X113375516Y-97957831D02*
X112698288Y-101798581D01*
X111405901Y-97610534D02*
X113375516Y-97957831D01*
%TO.C,D16*%
X128405901Y-105610534D02*
X130375516Y-105957831D01*
X130375516Y-105957831D02*
X129698288Y-109798581D01*
X128405901Y-105610534D02*
X127728673Y-109451285D01*
%TO.C,D17*%
X140192901Y-139985534D02*
X142162516Y-140332831D01*
X142162516Y-140332831D02*
X141485288Y-144173581D01*
X140192901Y-139985534D02*
X139515673Y-143826285D01*
%TO.C,D18*%
X183837484Y-103332831D02*
X185807099Y-102985534D01*
X185807099Y-102985534D02*
X186484327Y-106826285D01*
X183837484Y-103332831D02*
X184514712Y-107173581D01*
%TO.C,D19*%
X200587484Y-95832931D02*
X201264712Y-99673681D01*
X202557099Y-95485634D02*
X203234327Y-99326385D01*
X200587484Y-95832931D02*
X202557099Y-95485634D01*
%TO.C,D20*%
X217874484Y-86957831D02*
X219844099Y-86610534D01*
X219844099Y-86610534D02*
X220521327Y-90451285D01*
X217874484Y-86957831D02*
X218551712Y-90798581D01*
%TO.C,D21*%
X235587484Y-88082931D02*
X237557099Y-87735634D01*
X237557099Y-87735634D02*
X238234327Y-91576385D01*
X235587484Y-88082931D02*
X236264712Y-91923681D01*
%TO.C,D23*%
X55155901Y-108110534D02*
X54478673Y-111951285D01*
X57125516Y-108457831D02*
X56448288Y-112298581D01*
X55155901Y-108110534D02*
X57125516Y-108457831D01*
%TO.C,D24*%
X72619401Y-107735534D02*
X71942173Y-111576285D01*
X74589016Y-108082831D02*
X73911788Y-111923581D01*
X72619401Y-107735534D02*
X74589016Y-108082831D01*
%TO.C,D25*%
X91369401Y-105985534D02*
X90692173Y-109826285D01*
X93339016Y-106332831D02*
X92661788Y-110173581D01*
X91369401Y-105985534D02*
X93339016Y-106332831D01*
%TO.C,D26*%
X107692901Y-114985534D02*
X107015673Y-118826285D01*
X109662516Y-115332831D02*
X108985288Y-119173581D01*
X107692901Y-114985534D02*
X109662516Y-115332831D01*
%TO.C,D27*%
X124692901Y-122235534D02*
X124015673Y-126076285D01*
X126662516Y-122582831D02*
X125985288Y-126423581D01*
X124692901Y-122235534D02*
X126662516Y-122582831D01*
%TO.C,D31*%
X219837484Y-103832831D02*
X220514712Y-107673581D01*
X221807099Y-103485534D02*
X222484327Y-107326285D01*
X219837484Y-103832831D02*
X221807099Y-103485534D01*
%TO.C,D32*%
X238587484Y-105832831D02*
X239264712Y-109673581D01*
X240557099Y-105485534D02*
X241234327Y-109326285D01*
X238587484Y-105832831D02*
X240557099Y-105485534D01*
%TO.C,D33*%
X256837484Y-105582831D02*
X257514712Y-109423581D01*
X258807099Y-105235534D02*
X259484327Y-109076285D01*
X256837484Y-105582831D02*
X258807099Y-105235534D01*
%TO.C,D34*%
X51655901Y-124610534D02*
X53625516Y-124957831D01*
X53625516Y-124957831D02*
X52948288Y-128798581D01*
X51655901Y-124610534D02*
X50978673Y-128451285D01*
%TO.C,D35*%
X69692401Y-124985534D02*
X71662016Y-125332831D01*
X71662016Y-125332831D02*
X70984788Y-129173581D01*
X69692401Y-124985534D02*
X69015173Y-128826285D01*
%TO.C,D36*%
X88442401Y-122985534D02*
X90412016Y-123332831D01*
X90412016Y-123332831D02*
X89734788Y-127173581D01*
X88442401Y-122985534D02*
X87765173Y-126826285D01*
%TO.C,D37*%
X105192901Y-131985534D02*
X107162516Y-132332831D01*
X107162516Y-132332831D02*
X106485288Y-136173581D01*
X105192901Y-131985534D02*
X104515673Y-135826285D01*
%TO.C,D38*%
X122192901Y-138985534D02*
X124162516Y-139332831D01*
X124162516Y-139332831D02*
X123485288Y-143173581D01*
X122192901Y-138985534D02*
X121515673Y-142826285D01*
%TO.C,D42*%
X223087484Y-120582831D02*
X225057099Y-120235534D01*
X225057099Y-120235534D02*
X225734327Y-124076285D01*
X223087484Y-120582831D02*
X223764712Y-124423581D01*
%TO.C,D43*%
X241087484Y-122332831D02*
X243057099Y-121985534D01*
X243057099Y-121985534D02*
X243734327Y-125826285D01*
X241087484Y-122332831D02*
X241764712Y-126173581D01*
%TO.C,D44*%
X259587484Y-122082831D02*
X261557099Y-121735534D01*
X261557099Y-121735534D02*
X262234327Y-125576285D01*
X259587484Y-122082831D02*
X260264712Y-125923581D01*
%TO.C,U47*%
D10*
X169874192Y-69245707D02*
X170014765Y-70042932D01*
X169984407Y-70144993D01*
X169945780Y-70200157D01*
X169860258Y-70263591D01*
X169672676Y-70296666D01*
X169570615Y-70266309D01*
X169515451Y-70227682D01*
X169452017Y-70142160D01*
X169311445Y-69344935D01*
X168478311Y-69830314D02*
X168594077Y-70486853D01*
X168646637Y-69413804D02*
X169005150Y-70075894D01*
X168395507Y-70183390D01*
X167998368Y-69576465D02*
X167341829Y-69692231D01*
X167937538Y-70602618D01*
%TO.C,U45*%
X161624192Y-81745707D02*
X161764765Y-82542932D01*
X161734407Y-82644993D01*
X161695780Y-82700157D01*
X161610258Y-82763591D01*
X161422676Y-82796666D01*
X161320615Y-82766309D01*
X161265451Y-82727682D01*
X161202017Y-82642160D01*
X161061445Y-81844935D01*
X160228311Y-82330314D02*
X160344077Y-82986853D01*
X160396637Y-81913804D02*
X160755150Y-82575894D01*
X160145507Y-82683390D01*
X159185621Y-82175693D02*
X159654577Y-82093003D01*
X159784162Y-82553691D01*
X159728997Y-82515064D01*
X159626937Y-82484706D01*
X159392459Y-82526051D01*
X159306937Y-82589485D01*
X159268310Y-82644649D01*
X159237953Y-82746709D01*
X159279297Y-82981187D01*
X159342731Y-83066710D01*
X159397895Y-83105336D01*
X159499956Y-83135694D01*
X159734434Y-83094349D01*
X159819956Y-83030916D01*
X159858583Y-82975751D01*
%TO.C,C15*%
X169945107Y-72490086D02*
X170000272Y-72528712D01*
X170149228Y-72550801D01*
X170243019Y-72534263D01*
X170375437Y-72462561D01*
X170452690Y-72352231D01*
X170483048Y-72250171D01*
X170496868Y-72054320D01*
X170472061Y-71913633D01*
X170392089Y-71734320D01*
X170328656Y-71648797D01*
X170218327Y-71571544D01*
X170069371Y-71549455D01*
X169975580Y-71565993D01*
X169843162Y-71637696D01*
X169804535Y-71692860D01*
X169023733Y-72749256D02*
X169586480Y-72650028D01*
X169305107Y-72699642D02*
X169131459Y-71714834D01*
X169250057Y-71838983D01*
X169360386Y-71916237D01*
X169462446Y-71946594D01*
X167959068Y-71921559D02*
X168428025Y-71838869D01*
X168557610Y-72299556D01*
X168502445Y-72260929D01*
X168400385Y-72230572D01*
X168165907Y-72271916D01*
X168080385Y-72335350D01*
X168041758Y-72390515D01*
X168011400Y-72492575D01*
X168052745Y-72727053D01*
X168116179Y-72812575D01*
X168171343Y-72851202D01*
X168273403Y-72881559D01*
X168507882Y-72840215D01*
X168593404Y-72776781D01*
X168632030Y-72721616D01*
%TO.C,C14*%
X168945106Y-67740086D02*
X169000271Y-67778712D01*
X169149227Y-67800801D01*
X169243018Y-67784263D01*
X169375436Y-67712561D01*
X169452689Y-67602231D01*
X169483047Y-67500171D01*
X169496867Y-67304320D01*
X169472060Y-67163633D01*
X169392088Y-66984320D01*
X169328655Y-66898797D01*
X169218326Y-66821544D01*
X169069370Y-66799455D01*
X168975579Y-66815993D01*
X168843161Y-66887696D01*
X168804534Y-66942860D01*
X168023732Y-67999256D02*
X168586479Y-67900028D01*
X168305106Y-67949642D02*
X168131458Y-66964834D01*
X168250056Y-67088983D01*
X168360385Y-67166237D01*
X168462445Y-67196594D01*
X167063846Y-67491559D02*
X167179611Y-68148097D01*
X167232172Y-67075049D02*
X167590685Y-67737138D01*
X166981042Y-67844635D01*
%TO.C,D30*%
X206447966Y-116052097D02*
X207432773Y-115878448D01*
X207391429Y-115643970D01*
X207319726Y-115511553D01*
X207209397Y-115434299D01*
X207107337Y-115403942D01*
X206911485Y-115390122D01*
X206770799Y-115414929D01*
X206591485Y-115494900D01*
X206505963Y-115558334D01*
X206428710Y-115668663D01*
X206406621Y-115817619D01*
X206447966Y-116052097D01*
X207275663Y-114987432D02*
X207168167Y-114377789D01*
X206850885Y-114772210D01*
X206826078Y-114631523D01*
X206762644Y-114546001D01*
X206707480Y-114507374D01*
X206605419Y-114477017D01*
X206370941Y-114518361D01*
X206285419Y-114581795D01*
X206246793Y-114636959D01*
X206216435Y-114739020D01*
X206266049Y-115020393D01*
X206329482Y-115105916D01*
X206384647Y-115144542D01*
X207060670Y-113768146D02*
X207044132Y-113674355D01*
X206980699Y-113588833D01*
X206925534Y-113550206D01*
X206823474Y-113519848D01*
X206627623Y-113506029D01*
X206393145Y-113547373D01*
X206213831Y-113627345D01*
X206128309Y-113690778D01*
X206089682Y-113745943D01*
X206059325Y-113848003D01*
X206075862Y-113941794D01*
X206139296Y-114027317D01*
X206194461Y-114065943D01*
X206296521Y-114096301D01*
X206492372Y-114110121D01*
X206726850Y-114068776D01*
X206906164Y-113988804D01*
X206991686Y-113925371D01*
X207030313Y-113870206D01*
X207060670Y-113768146D01*
%TO.C,D22*%
X253332734Y-92496589D02*
X254317541Y-92322940D01*
X254276197Y-92088462D01*
X254204494Y-91956045D01*
X254094165Y-91878791D01*
X253992105Y-91848434D01*
X253796253Y-91834614D01*
X253655567Y-91859421D01*
X253476253Y-91939392D01*
X253390731Y-92002826D01*
X253313478Y-92113155D01*
X253291389Y-92262111D01*
X253332734Y-92496589D01*
X254058371Y-91401566D02*
X254096998Y-91346402D01*
X254127355Y-91244341D01*
X254086011Y-91009863D01*
X254022577Y-90924341D01*
X253967412Y-90885715D01*
X253865352Y-90855357D01*
X253771561Y-90871895D01*
X253639143Y-90943597D01*
X253175623Y-91605572D01*
X253068127Y-90995929D01*
X253892992Y-90463654D02*
X253931618Y-90408489D01*
X253961976Y-90306429D01*
X253920631Y-90071951D01*
X253857198Y-89986429D01*
X253802033Y-89947802D01*
X253699973Y-89917445D01*
X253606182Y-89933983D01*
X253473764Y-90005685D01*
X253010244Y-90667660D01*
X252902748Y-90058017D01*
%TO.C,U30*%
X193271857Y-109945332D02*
X193412430Y-110742557D01*
X193382072Y-110844618D01*
X193343445Y-110899782D01*
X193257923Y-110963216D01*
X193070341Y-110996291D01*
X192968280Y-110965934D01*
X192913116Y-110927307D01*
X192849682Y-110841785D01*
X192709110Y-110044560D01*
X192333945Y-110110711D02*
X191724302Y-110218208D01*
X192118723Y-110535490D01*
X191978036Y-110560297D01*
X191892514Y-110623730D01*
X191853887Y-110678895D01*
X191823530Y-110780955D01*
X191864875Y-111015433D01*
X191928308Y-111100955D01*
X191983473Y-111139582D01*
X192085533Y-111169940D01*
X192366906Y-111120326D01*
X192452429Y-111056892D01*
X192491055Y-111001728D01*
X191114659Y-110325704D02*
X191020868Y-110342242D01*
X190935346Y-110405676D01*
X190896719Y-110460840D01*
X190866362Y-110562900D01*
X190852542Y-110758752D01*
X190893887Y-110993230D01*
X190973858Y-111172543D01*
X191037292Y-111258066D01*
X191092456Y-111296692D01*
X191194516Y-111327050D01*
X191288307Y-111310512D01*
X191373830Y-111247078D01*
X191412456Y-111191914D01*
X191442814Y-111089854D01*
X191456634Y-110894002D01*
X191415289Y-110659524D01*
X191335318Y-110480211D01*
X191271884Y-110394689D01*
X191216719Y-110356062D01*
X191114659Y-110325704D01*
%TO.C,U41*%
X196223857Y-126687332D02*
X196364430Y-127484557D01*
X196334072Y-127586618D01*
X196295445Y-127641782D01*
X196209923Y-127705216D01*
X196022341Y-127738291D01*
X195920280Y-127707934D01*
X195865116Y-127669307D01*
X195801682Y-127583785D01*
X195661110Y-126786560D01*
X194827976Y-127271939D02*
X194943742Y-127928478D01*
X194996302Y-126855429D02*
X195354815Y-127517519D01*
X194745172Y-127625015D01*
X193912038Y-128110395D02*
X194474786Y-128011167D01*
X194193412Y-128060781D02*
X194019764Y-127075973D01*
X194138362Y-127200122D01*
X194248691Y-127277375D01*
X194350751Y-127307733D01*
%TO.C,D41*%
X205332734Y-133496689D02*
X206317541Y-133323040D01*
X206276197Y-133088562D01*
X206204494Y-132956145D01*
X206094165Y-132878891D01*
X205992105Y-132848534D01*
X205796253Y-132834714D01*
X205655567Y-132859521D01*
X205476253Y-132939492D01*
X205390731Y-133002926D01*
X205313478Y-133113255D01*
X205291389Y-133262211D01*
X205332734Y-133496689D01*
X205741203Y-131974055D02*
X205084665Y-132089820D01*
X206157713Y-132142381D02*
X205495624Y-132500894D01*
X205388127Y-131891251D01*
X204902748Y-131058117D02*
X205001975Y-131620864D01*
X204952362Y-131339491D02*
X205937169Y-131165843D01*
X205813020Y-131284441D01*
X205735767Y-131394770D01*
X205705409Y-131496830D01*
%TO.C,U19*%
X190319857Y-93204132D02*
X190460430Y-94001357D01*
X190430072Y-94103418D01*
X190391445Y-94158582D01*
X190305923Y-94222016D01*
X190118341Y-94255091D01*
X190016280Y-94224734D01*
X189961116Y-94186107D01*
X189897682Y-94100585D01*
X189757110Y-93303360D01*
X188945950Y-94461815D02*
X189508698Y-94362588D01*
X189227324Y-94412202D02*
X189053676Y-93427394D01*
X189172274Y-93551543D01*
X189282603Y-93628796D01*
X189384663Y-93659154D01*
X188476994Y-94544505D02*
X188289412Y-94577581D01*
X188187352Y-94547223D01*
X188132187Y-94508597D01*
X188013589Y-94384448D01*
X187933618Y-94205134D01*
X187867466Y-93829969D01*
X187897824Y-93727909D01*
X187936450Y-93672745D01*
X188021972Y-93609311D01*
X188209555Y-93576235D01*
X188311615Y-93606593D01*
X188366780Y-93645220D01*
X188430213Y-93730742D01*
X188471558Y-93965220D01*
X188441200Y-94067280D01*
X188402574Y-94122445D01*
X188317051Y-94185878D01*
X188129469Y-94218954D01*
X188027409Y-94188596D01*
X187972244Y-94149970D01*
X187908811Y-94064447D01*
%TO.C,D7*%
X180176044Y-89777833D02*
X181160852Y-89604184D01*
X181119507Y-89369706D01*
X181047805Y-89237288D01*
X180937475Y-89160035D01*
X180835415Y-89129677D01*
X180639564Y-89115858D01*
X180498877Y-89140665D01*
X180319564Y-89220636D01*
X180234041Y-89284070D01*
X180156788Y-89394399D01*
X180134699Y-89543355D01*
X180176044Y-89777833D01*
X181003742Y-88713168D02*
X180887976Y-88056629D01*
X179977589Y-88652338D01*
%TO.C,D8*%
X196926044Y-82777833D02*
X197910852Y-82604184D01*
X197869507Y-82369706D01*
X197797805Y-82237288D01*
X197687475Y-82160035D01*
X197585415Y-82129677D01*
X197389564Y-82115858D01*
X197248877Y-82140665D01*
X197069564Y-82220636D01*
X196984041Y-82284070D01*
X196906788Y-82394399D01*
X196884699Y-82543355D01*
X196926044Y-82777833D01*
X197290336Y-81553110D02*
X197353770Y-81638633D01*
X197408934Y-81677259D01*
X197510995Y-81707617D01*
X197557890Y-81699348D01*
X197643412Y-81635915D01*
X197682039Y-81580750D01*
X197712397Y-81478690D01*
X197679321Y-81291107D01*
X197615887Y-81205585D01*
X197560723Y-81166958D01*
X197458663Y-81136601D01*
X197411767Y-81144870D01*
X197326245Y-81208303D01*
X197287618Y-81263468D01*
X197257261Y-81365528D01*
X197290336Y-81553110D01*
X197259979Y-81655171D01*
X197221352Y-81710335D01*
X197135830Y-81773769D01*
X196948247Y-81806845D01*
X196846187Y-81776487D01*
X196791023Y-81737860D01*
X196727589Y-81652338D01*
X196694513Y-81464756D01*
X196724871Y-81362695D01*
X196763498Y-81307531D01*
X196849020Y-81244097D01*
X197036602Y-81211021D01*
X197138662Y-81241379D01*
X197193827Y-81280006D01*
X197257261Y-81365528D01*
%TO.C,U8*%
X186898901Y-76545022D02*
X187039474Y-77342247D01*
X187009116Y-77444307D01*
X186970489Y-77499472D01*
X186884967Y-77562905D01*
X186697384Y-77595981D01*
X186595324Y-77565623D01*
X186540160Y-77526997D01*
X186476726Y-77441474D01*
X186336154Y-76644249D01*
X185800932Y-77173806D02*
X185886454Y-77110373D01*
X185925081Y-77055208D01*
X185955438Y-76953148D01*
X185947169Y-76906252D01*
X185883736Y-76820730D01*
X185828571Y-76782103D01*
X185726511Y-76751746D01*
X185538929Y-76784822D01*
X185453406Y-76848255D01*
X185414780Y-76903420D01*
X185384422Y-77005480D01*
X185392691Y-77052375D01*
X185456124Y-77137898D01*
X185511289Y-77176524D01*
X185613349Y-77206882D01*
X185800932Y-77173806D01*
X185902992Y-77204164D01*
X185958156Y-77242790D01*
X186021590Y-77328313D01*
X186054666Y-77515895D01*
X186024308Y-77617955D01*
X185985681Y-77673120D01*
X185900159Y-77736553D01*
X185712577Y-77769629D01*
X185610517Y-77739272D01*
X185555352Y-77700645D01*
X185491918Y-77615123D01*
X185458843Y-77427540D01*
X185489200Y-77325480D01*
X185527827Y-77270316D01*
X185613349Y-77206882D01*
%TO.C,D39*%
X170508734Y-141746689D02*
X171493541Y-141573040D01*
X171452197Y-141338562D01*
X171380494Y-141206145D01*
X171270165Y-141128891D01*
X171168105Y-141098534D01*
X170972253Y-141084714D01*
X170831567Y-141109521D01*
X170652253Y-141189492D01*
X170566731Y-141252926D01*
X170489478Y-141363255D01*
X170467389Y-141512211D01*
X170508734Y-141746689D01*
X171336431Y-140682024D02*
X171228935Y-140072381D01*
X170911653Y-140466802D01*
X170886846Y-140326115D01*
X170823412Y-140240593D01*
X170768248Y-140201966D01*
X170666187Y-140171609D01*
X170431709Y-140212953D01*
X170346187Y-140276387D01*
X170307561Y-140331551D01*
X170277203Y-140433612D01*
X170326817Y-140714985D01*
X170390250Y-140800508D01*
X170445415Y-140839134D01*
X170161437Y-139777073D02*
X170128362Y-139589491D01*
X170158719Y-139487431D01*
X170197346Y-139432266D01*
X170321495Y-139313668D01*
X170500808Y-139233696D01*
X170875973Y-139167545D01*
X170978033Y-139197902D01*
X171033198Y-139236529D01*
X171096631Y-139322051D01*
X171129707Y-139509634D01*
X171099350Y-139611694D01*
X171060723Y-139666858D01*
X170975201Y-139730292D01*
X170740723Y-139771637D01*
X170638662Y-139741279D01*
X170583498Y-139702652D01*
X170520064Y-139617130D01*
X170486988Y-139429548D01*
X170517346Y-139327488D01*
X170555973Y-139272323D01*
X170641495Y-139208890D01*
%TO.C,D28*%
X167545734Y-125121689D02*
X168530541Y-124948040D01*
X168489197Y-124713562D01*
X168417494Y-124581145D01*
X168307165Y-124503891D01*
X168205105Y-124473534D01*
X168009253Y-124459714D01*
X167868567Y-124484521D01*
X167689253Y-124564492D01*
X167603731Y-124627926D01*
X167526478Y-124738255D01*
X167504389Y-124887211D01*
X167545734Y-125121689D01*
X168271371Y-124026666D02*
X168309998Y-123971502D01*
X168340355Y-123869441D01*
X168299011Y-123634963D01*
X168235577Y-123549441D01*
X168180412Y-123510815D01*
X168078352Y-123480457D01*
X167984561Y-123496995D01*
X167852143Y-123568697D01*
X167388623Y-124230672D01*
X167281127Y-123621029D01*
X167744647Y-122959054D02*
X167808080Y-123044577D01*
X167863245Y-123083203D01*
X167965305Y-123113561D01*
X168012201Y-123105292D01*
X168097723Y-123041858D01*
X168136350Y-122986694D01*
X168166707Y-122884634D01*
X168133631Y-122697051D01*
X168070198Y-122611529D01*
X168015033Y-122572902D01*
X167912973Y-122542545D01*
X167866077Y-122550814D01*
X167780555Y-122614247D01*
X167741929Y-122669412D01*
X167711571Y-122771472D01*
X167744647Y-122959054D01*
X167714289Y-123061115D01*
X167675662Y-123116279D01*
X167590140Y-123179713D01*
X167402558Y-123212788D01*
X167300498Y-123182431D01*
X167245333Y-123143804D01*
X167181899Y-123058282D01*
X167148824Y-122870699D01*
X167179181Y-122768639D01*
X167217808Y-122713475D01*
X167303330Y-122650041D01*
X167490913Y-122616965D01*
X167592973Y-122647323D01*
X167648137Y-122685950D01*
X167711571Y-122771472D01*
%TO.C,D29*%
X185758734Y-123746689D02*
X186743541Y-123573040D01*
X186702197Y-123338562D01*
X186630494Y-123206145D01*
X186520165Y-123128891D01*
X186418105Y-123098534D01*
X186222253Y-123084714D01*
X186081567Y-123109521D01*
X185902253Y-123189492D01*
X185816731Y-123252926D01*
X185739478Y-123363255D01*
X185717389Y-123512211D01*
X185758734Y-123746689D01*
X186484371Y-122651666D02*
X186522998Y-122596502D01*
X186553355Y-122494441D01*
X186512011Y-122259963D01*
X186448577Y-122174441D01*
X186393412Y-122135815D01*
X186291352Y-122105457D01*
X186197561Y-122121995D01*
X186065143Y-122193697D01*
X185601623Y-122855672D01*
X185494127Y-122246029D01*
X185411437Y-121777073D02*
X185378362Y-121589491D01*
X185408719Y-121487431D01*
X185447346Y-121432266D01*
X185571495Y-121313668D01*
X185750808Y-121233696D01*
X186125973Y-121167545D01*
X186228033Y-121197902D01*
X186283198Y-121236529D01*
X186346631Y-121322051D01*
X186379707Y-121509634D01*
X186349350Y-121611694D01*
X186310723Y-121666858D01*
X186225201Y-121730292D01*
X185990723Y-121771637D01*
X185888662Y-121741279D01*
X185833498Y-121702652D01*
X185770064Y-121617130D01*
X185736988Y-121429548D01*
X185767346Y-121327488D01*
X185805973Y-121272323D01*
X185891495Y-121208890D01*
%TO.C,U40*%
X179191857Y-133752332D02*
X179332430Y-134549557D01*
X179302072Y-134651618D01*
X179263445Y-134706782D01*
X179177923Y-134770216D01*
X178990341Y-134803291D01*
X178888280Y-134772934D01*
X178833116Y-134734307D01*
X178769682Y-134648785D01*
X178629110Y-133851560D01*
X177795976Y-134336939D02*
X177911742Y-134993478D01*
X177964302Y-133920429D02*
X178322815Y-134582519D01*
X177713172Y-134690015D01*
X177034659Y-134132704D02*
X176940868Y-134149242D01*
X176855346Y-134212676D01*
X176816719Y-134267840D01*
X176786362Y-134369900D01*
X176772542Y-134565752D01*
X176813887Y-134800230D01*
X176893858Y-134979543D01*
X176957292Y-135065066D01*
X177012456Y-135103692D01*
X177114516Y-135134050D01*
X177208307Y-135117512D01*
X177293830Y-135054078D01*
X177332456Y-134998914D01*
X177362814Y-134896854D01*
X177376634Y-134701002D01*
X177335289Y-134466524D01*
X177255318Y-134287211D01*
X177191884Y-134201689D01*
X177136719Y-134163062D01*
X177034659Y-134132704D01*
%TO.C,D40*%
X188582734Y-140496689D02*
X189567541Y-140323040D01*
X189526197Y-140088562D01*
X189454494Y-139956145D01*
X189344165Y-139878891D01*
X189242105Y-139848534D01*
X189046253Y-139834714D01*
X188905567Y-139859521D01*
X188726253Y-139939492D01*
X188640731Y-140002926D01*
X188563478Y-140113255D01*
X188541389Y-140262211D01*
X188582734Y-140496689D01*
X188991203Y-138974055D02*
X188334665Y-139089820D01*
X189407713Y-139142381D02*
X188745624Y-139500894D01*
X188638127Y-138891251D01*
X189195438Y-138212738D02*
X189178900Y-138118947D01*
X189115467Y-138033425D01*
X189060302Y-137994798D01*
X188958242Y-137964440D01*
X188762391Y-137950621D01*
X188527913Y-137991965D01*
X188348599Y-138071937D01*
X188263077Y-138135370D01*
X188224450Y-138190535D01*
X188194093Y-138292595D01*
X188210630Y-138386386D01*
X188274064Y-138471909D01*
X188329229Y-138510535D01*
X188431289Y-138540893D01*
X188627140Y-138554713D01*
X188861618Y-138513368D01*
X189040932Y-138433396D01*
X189126454Y-138369963D01*
X189165081Y-138314798D01*
X189195438Y-138212738D01*
%TO.C,U29*%
X176239857Y-117010332D02*
X176380430Y-117807557D01*
X176350072Y-117909618D01*
X176311445Y-117964782D01*
X176225923Y-118028216D01*
X176038341Y-118061291D01*
X175936280Y-118030934D01*
X175881116Y-117992307D01*
X175817682Y-117906785D01*
X175677110Y-117109560D01*
X175271587Y-117277771D02*
X175216423Y-117239145D01*
X175114363Y-117208787D01*
X174879885Y-117250132D01*
X174794362Y-117313565D01*
X174755736Y-117368730D01*
X174725378Y-117470790D01*
X174741916Y-117564581D01*
X174813618Y-117696999D01*
X175475593Y-118160519D01*
X174865950Y-118268015D01*
X174396994Y-118350705D02*
X174209412Y-118383781D01*
X174107352Y-118353423D01*
X174052187Y-118314797D01*
X173933589Y-118190648D01*
X173853618Y-118011334D01*
X173787466Y-117636169D01*
X173817824Y-117534109D01*
X173856450Y-117478945D01*
X173941972Y-117415511D01*
X174129555Y-117382435D01*
X174231615Y-117412793D01*
X174286780Y-117451420D01*
X174350213Y-117536942D01*
X174391558Y-117771420D01*
X174361200Y-117873480D01*
X174322574Y-117928645D01*
X174237051Y-117992078D01*
X174049469Y-118025154D01*
X173947409Y-117994796D01*
X173892244Y-117956170D01*
X173828811Y-117870647D01*
%TO.C,U28*%
X158165857Y-118166332D02*
X158306430Y-118963557D01*
X158276072Y-119065618D01*
X158237445Y-119120782D01*
X158151923Y-119184216D01*
X157964341Y-119217291D01*
X157862280Y-119186934D01*
X157807116Y-119148307D01*
X157743682Y-119062785D01*
X157603110Y-118265560D01*
X157197587Y-118433771D02*
X157142423Y-118395145D01*
X157040363Y-118364787D01*
X156805885Y-118406132D01*
X156720362Y-118469565D01*
X156681736Y-118524730D01*
X156651378Y-118626790D01*
X156667916Y-118720581D01*
X156739618Y-118852999D01*
X157401593Y-119316519D01*
X156791950Y-119424015D01*
X156129976Y-118960496D02*
X156215498Y-118897062D01*
X156254124Y-118841898D01*
X156284482Y-118739837D01*
X156276213Y-118692942D01*
X156212780Y-118607420D01*
X156157615Y-118568793D01*
X156055555Y-118538435D01*
X155867972Y-118571511D01*
X155782450Y-118634945D01*
X155743824Y-118690109D01*
X155713466Y-118792169D01*
X155721735Y-118839065D01*
X155785168Y-118924587D01*
X155840333Y-118963214D01*
X155942393Y-118993572D01*
X156129976Y-118960496D01*
X156232036Y-118990853D01*
X156287200Y-119029480D01*
X156350634Y-119115002D01*
X156383710Y-119302585D01*
X156353352Y-119404645D01*
X156314725Y-119459809D01*
X156229203Y-119523243D01*
X156041621Y-119556319D01*
X155939560Y-119525961D01*
X155884396Y-119487335D01*
X155820962Y-119401812D01*
X155787887Y-119214230D01*
X155818244Y-119112170D01*
X155856871Y-119057005D01*
X155942393Y-118993572D01*
%TO.C,U39*%
X161117857Y-134908332D02*
X161258430Y-135705557D01*
X161228072Y-135807618D01*
X161189445Y-135862782D01*
X161103923Y-135926216D01*
X160916341Y-135959291D01*
X160814280Y-135928934D01*
X160759116Y-135890307D01*
X160695682Y-135804785D01*
X160555110Y-135007560D01*
X160179945Y-135073711D02*
X159570302Y-135181208D01*
X159964723Y-135498490D01*
X159824036Y-135523297D01*
X159738514Y-135586730D01*
X159699887Y-135641895D01*
X159669530Y-135743955D01*
X159710875Y-135978433D01*
X159774308Y-136063955D01*
X159829473Y-136102582D01*
X159931533Y-136132940D01*
X160212906Y-136083326D01*
X160298429Y-136019892D01*
X160337055Y-135964728D01*
X159274994Y-136248705D02*
X159087412Y-136281781D01*
X158985352Y-136251423D01*
X158930187Y-136212797D01*
X158811589Y-136088648D01*
X158731618Y-135909334D01*
X158665466Y-135534169D01*
X158695824Y-135432109D01*
X158734450Y-135376945D01*
X158819972Y-135313511D01*
X159007555Y-135280435D01*
X159109615Y-135310793D01*
X159164780Y-135349420D01*
X159228213Y-135434942D01*
X159269558Y-135669420D01*
X159239200Y-135771480D01*
X159200574Y-135826645D01*
X159115051Y-135890078D01*
X158927469Y-135923154D01*
X158825409Y-135892796D01*
X158770244Y-135854170D01*
X158706811Y-135768647D01*
%TO.C,U2*%
X69474080Y-67837047D02*
X69333508Y-68634273D01*
X69270074Y-68719795D01*
X69214910Y-68758422D01*
X69112850Y-68788779D01*
X68925267Y-68755703D01*
X68839745Y-68692270D01*
X68801118Y-68637105D01*
X68770761Y-68535045D01*
X68911333Y-67737820D01*
X68472735Y-67757190D02*
X68434108Y-67702026D01*
X68348586Y-67638592D01*
X68114108Y-67597248D01*
X68012047Y-67627605D01*
X67956883Y-67666232D01*
X67893449Y-67751754D01*
X67876911Y-67845545D01*
X67899000Y-67994501D01*
X68362520Y-68656476D01*
X67752877Y-68548979D01*
%TO.C,U1*%
X51226680Y-67665747D02*
X51086108Y-68462973D01*
X51022674Y-68548495D01*
X50967510Y-68587122D01*
X50865450Y-68617479D01*
X50677867Y-68584403D01*
X50592345Y-68520970D01*
X50553718Y-68465805D01*
X50523361Y-68363745D01*
X50663933Y-67566520D01*
X49505477Y-68377679D02*
X50068224Y-68476907D01*
X49786851Y-68427293D02*
X49960499Y-67442485D01*
X50029483Y-67599710D01*
X50106736Y-67710039D01*
X50192259Y-67773473D01*
%TO.C,U44*%
X249750857Y-119280332D02*
X249891430Y-120077557D01*
X249861072Y-120179618D01*
X249822445Y-120234782D01*
X249736923Y-120298216D01*
X249549341Y-120331291D01*
X249447280Y-120300934D01*
X249392116Y-120262307D01*
X249328682Y-120176785D01*
X249188110Y-119379560D01*
X248354976Y-119864939D02*
X248470742Y-120521478D01*
X248523302Y-119448429D02*
X248881815Y-120110519D01*
X248272172Y-120218015D01*
X247417064Y-120030318D02*
X247532829Y-120686857D01*
X247585390Y-119613809D02*
X247943903Y-120275898D01*
X247334260Y-120383394D01*
%TO.C,U43*%
X231503857Y-119451332D02*
X231644430Y-120248557D01*
X231614072Y-120350618D01*
X231575445Y-120405782D01*
X231489923Y-120469216D01*
X231302341Y-120502291D01*
X231200280Y-120471934D01*
X231145116Y-120433307D01*
X231081682Y-120347785D01*
X230941110Y-119550560D01*
X230107976Y-120035939D02*
X230223742Y-120692478D01*
X230276302Y-119619429D02*
X230634815Y-120281519D01*
X230025172Y-120389015D01*
X229628033Y-119782090D02*
X229018390Y-119889587D01*
X229412811Y-120206869D01*
X229272124Y-120231676D01*
X229186602Y-120295110D01*
X229147975Y-120350274D01*
X229117618Y-120452334D01*
X229158962Y-120686812D01*
X229222396Y-120772335D01*
X229277560Y-120810961D01*
X229379621Y-120841319D01*
X229660994Y-120791705D01*
X229746517Y-120728272D01*
X229785143Y-120673107D01*
%TO.C,U42*%
X212908857Y-117653332D02*
X213049430Y-118450557D01*
X213019072Y-118552618D01*
X212980445Y-118607782D01*
X212894923Y-118671216D01*
X212707341Y-118704291D01*
X212605280Y-118673934D01*
X212550116Y-118635307D01*
X212486682Y-118549785D01*
X212346110Y-117752560D01*
X211512976Y-118237939D02*
X211628742Y-118894478D01*
X211681302Y-117821429D02*
X212039815Y-118483519D01*
X211430172Y-118591015D01*
X211002675Y-118086151D02*
X210947511Y-118047524D01*
X210845451Y-118017166D01*
X210610972Y-118058511D01*
X210525450Y-118121945D01*
X210486824Y-118177109D01*
X210456466Y-118279169D01*
X210473004Y-118372961D01*
X210544706Y-118505378D01*
X211206681Y-118968898D01*
X210597038Y-119076395D01*
%TO.C,U38*%
X113398636Y-132445837D02*
X113258064Y-133243062D01*
X113194630Y-133328585D01*
X113139466Y-133367211D01*
X113037406Y-133397569D01*
X112849823Y-133364493D01*
X112764301Y-133301060D01*
X112725674Y-133245895D01*
X112695317Y-133143835D01*
X112835889Y-132346609D01*
X112460724Y-132280458D02*
X111851081Y-132172961D01*
X112113199Y-132606009D01*
X111972512Y-132581202D01*
X111870452Y-132611560D01*
X111815287Y-132650186D01*
X111751854Y-132735709D01*
X111710509Y-132970187D01*
X111740867Y-133072247D01*
X111779493Y-133127411D01*
X111865016Y-133190845D01*
X112146389Y-133240459D01*
X112248449Y-133210101D01*
X112303614Y-133171474D01*
X111213913Y-132495794D02*
X111315974Y-132465437D01*
X111371138Y-132426810D01*
X111434572Y-132341288D01*
X111442841Y-132294392D01*
X111412483Y-132192332D01*
X111373856Y-132137167D01*
X111288334Y-132073734D01*
X111100752Y-132040658D01*
X110998691Y-132071016D01*
X110943527Y-132109642D01*
X110880093Y-132195165D01*
X110871824Y-132242060D01*
X110902182Y-132344120D01*
X110940809Y-132399285D01*
X111026331Y-132462718D01*
X111213913Y-132495794D01*
X111299436Y-132559228D01*
X111338062Y-132614392D01*
X111368420Y-132716452D01*
X111335344Y-132904035D01*
X111271911Y-132989557D01*
X111216746Y-133028184D01*
X111114686Y-133058542D01*
X110927103Y-133025466D01*
X110841581Y-132962032D01*
X110802955Y-132906868D01*
X110772597Y-132804807D01*
X110805673Y-132617225D01*
X110869106Y-132531703D01*
X110924271Y-132493076D01*
X111026331Y-132462718D01*
%TO.C,U37*%
X96366436Y-125380837D02*
X96225864Y-126178062D01*
X96162430Y-126263585D01*
X96107266Y-126302211D01*
X96005206Y-126332569D01*
X95817623Y-126299493D01*
X95732101Y-126236060D01*
X95693474Y-126180895D01*
X95663117Y-126078835D01*
X95803689Y-125281609D01*
X95428524Y-125215458D02*
X94818881Y-125107961D01*
X95080999Y-125541009D01*
X94940312Y-125516202D01*
X94838252Y-125546560D01*
X94783087Y-125585186D01*
X94719654Y-125670709D01*
X94678309Y-125905187D01*
X94708667Y-126007247D01*
X94747293Y-126062411D01*
X94832816Y-126125845D01*
X95114189Y-126175459D01*
X95216249Y-126145101D01*
X95271414Y-126106474D01*
X94490612Y-125050079D02*
X93834074Y-124934313D01*
X94082486Y-125993542D01*
%TO.C,U36*%
X79681836Y-116346837D02*
X79541264Y-117144062D01*
X79477830Y-117229585D01*
X79422666Y-117268211D01*
X79320606Y-117298569D01*
X79133023Y-117265493D01*
X79047501Y-117202060D01*
X79008874Y-117146895D01*
X78978517Y-117044835D01*
X79119089Y-116247609D01*
X78743924Y-116181458D02*
X78134281Y-116073961D01*
X78396399Y-116507009D01*
X78255712Y-116482202D01*
X78153652Y-116512560D01*
X78098487Y-116551186D01*
X78035054Y-116636709D01*
X77993709Y-116871187D01*
X78024067Y-116973247D01*
X78062693Y-117028411D01*
X78148216Y-117091845D01*
X78429589Y-117141459D01*
X78531649Y-117111101D01*
X78586814Y-117072474D01*
X77290160Y-115925120D02*
X77477743Y-115958196D01*
X77563265Y-116021629D01*
X77601892Y-116076794D01*
X77670876Y-116234019D01*
X77684696Y-116429870D01*
X77618544Y-116805035D01*
X77555111Y-116890557D01*
X77499946Y-116929184D01*
X77397886Y-116959542D01*
X77210303Y-116926466D01*
X77124781Y-116863032D01*
X77086155Y-116807868D01*
X77055797Y-116705807D01*
X77097142Y-116471329D01*
X77160575Y-116385807D01*
X77215740Y-116347180D01*
X77317800Y-116316823D01*
X77505382Y-116349899D01*
X77590905Y-116413332D01*
X77629531Y-116468497D01*
X77659889Y-116570557D01*
%TO.C,U35*%
X61087036Y-118144837D02*
X60946464Y-118942062D01*
X60883030Y-119027585D01*
X60827866Y-119066211D01*
X60725806Y-119096569D01*
X60538223Y-119063493D01*
X60452701Y-119000060D01*
X60414074Y-118944895D01*
X60383717Y-118842835D01*
X60524289Y-118045609D01*
X60149124Y-117979458D02*
X59539481Y-117871961D01*
X59801599Y-118305009D01*
X59660912Y-118280202D01*
X59558852Y-118310560D01*
X59503687Y-118349186D01*
X59440254Y-118434709D01*
X59398909Y-118669187D01*
X59429267Y-118771247D01*
X59467893Y-118826411D01*
X59553416Y-118889845D01*
X59834789Y-118939459D01*
X59936849Y-118909101D01*
X59992014Y-118870474D01*
X58648465Y-117714851D02*
X59117421Y-117797541D01*
X59081627Y-118274766D01*
X59043000Y-118219601D01*
X58957478Y-118156168D01*
X58723000Y-118114823D01*
X58620940Y-118145180D01*
X58565775Y-118183807D01*
X58502342Y-118269329D01*
X58460997Y-118503807D01*
X58491355Y-118605868D01*
X58529981Y-118661032D01*
X58615503Y-118724466D01*
X58849981Y-118765810D01*
X58952042Y-118735453D01*
X59007206Y-118696826D01*
%TO.C,U34*%
X42839536Y-117973837D02*
X42698964Y-118771062D01*
X42635530Y-118856585D01*
X42580366Y-118895211D01*
X42478306Y-118925569D01*
X42290723Y-118892493D01*
X42205201Y-118829060D01*
X42166574Y-118773895D01*
X42136217Y-118671835D01*
X42276789Y-117874609D01*
X41901624Y-117808458D02*
X41291981Y-117700961D01*
X41554099Y-118134009D01*
X41413412Y-118109202D01*
X41311352Y-118139560D01*
X41256187Y-118178186D01*
X41192754Y-118263709D01*
X41151409Y-118498187D01*
X41181767Y-118600247D01*
X41220393Y-118655411D01*
X41305916Y-118718845D01*
X41587289Y-118768459D01*
X41689349Y-118738101D01*
X41744514Y-118699474D01*
X40389978Y-117880389D02*
X40274212Y-118536928D01*
X40690607Y-117546569D02*
X40801051Y-118291348D01*
X40191408Y-118183852D01*
%TO.C,U33*%
X246798857Y-102538332D02*
X246939430Y-103335557D01*
X246909072Y-103437618D01*
X246870445Y-103492782D01*
X246784923Y-103556216D01*
X246597341Y-103589291D01*
X246495280Y-103558934D01*
X246440116Y-103520307D01*
X246376682Y-103434785D01*
X246236110Y-102637560D01*
X245860945Y-102703711D02*
X245251302Y-102811208D01*
X245645723Y-103128490D01*
X245505036Y-103153297D01*
X245419514Y-103216730D01*
X245380887Y-103271895D01*
X245350530Y-103373955D01*
X245391875Y-103608433D01*
X245455308Y-103693955D01*
X245510473Y-103732582D01*
X245612533Y-103762940D01*
X245893906Y-103713326D01*
X245979429Y-103649892D01*
X246018055Y-103594728D01*
X244923033Y-102869090D02*
X244313390Y-102976587D01*
X244707811Y-103293869D01*
X244567124Y-103318676D01*
X244481602Y-103382110D01*
X244442975Y-103437274D01*
X244412618Y-103539334D01*
X244453962Y-103773812D01*
X244517396Y-103859335D01*
X244572560Y-103897961D01*
X244674621Y-103928319D01*
X244955994Y-103878705D01*
X245041517Y-103815272D01*
X245080143Y-103760107D01*
%TO.C,U32*%
X228551857Y-102709332D02*
X228692430Y-103506557D01*
X228662072Y-103608618D01*
X228623445Y-103663782D01*
X228537923Y-103727216D01*
X228350341Y-103760291D01*
X228248280Y-103729934D01*
X228193116Y-103691307D01*
X228129682Y-103605785D01*
X227989110Y-102808560D01*
X227613945Y-102874711D02*
X227004302Y-102982208D01*
X227398723Y-103299490D01*
X227258036Y-103324297D01*
X227172514Y-103387730D01*
X227133887Y-103442895D01*
X227103530Y-103544955D01*
X227144875Y-103779433D01*
X227208308Y-103864955D01*
X227263473Y-103903582D01*
X227365533Y-103933940D01*
X227646906Y-103884326D01*
X227732429Y-103820892D01*
X227771055Y-103765728D01*
X226645675Y-103142151D02*
X226590511Y-103103524D01*
X226488451Y-103073166D01*
X226253972Y-103114511D01*
X226168450Y-103177945D01*
X226129824Y-103233109D01*
X226099466Y-103335169D01*
X226116004Y-103428961D01*
X226187706Y-103561378D01*
X226849681Y-104024898D01*
X226240038Y-104132395D01*
%TO.C,U31*%
X209956857Y-100911332D02*
X210097430Y-101708557D01*
X210067072Y-101810618D01*
X210028445Y-101865782D01*
X209942923Y-101929216D01*
X209755341Y-101962291D01*
X209653280Y-101931934D01*
X209598116Y-101893307D01*
X209534682Y-101807785D01*
X209394110Y-101010560D01*
X209018945Y-101076711D02*
X208409302Y-101184208D01*
X208803723Y-101501490D01*
X208663036Y-101526297D01*
X208577514Y-101589730D01*
X208538887Y-101644895D01*
X208508530Y-101746955D01*
X208549875Y-101981433D01*
X208613308Y-102066955D01*
X208668473Y-102105582D01*
X208770533Y-102135940D01*
X209051906Y-102086326D01*
X209137429Y-102022892D01*
X209176055Y-101967728D01*
X207645038Y-102334395D02*
X208207786Y-102235167D01*
X207926412Y-102284781D02*
X207752764Y-101299973D01*
X207871362Y-101424122D01*
X207981691Y-101501375D01*
X208083751Y-101531733D01*
%TO.C,U27*%
X116350636Y-115703837D02*
X116210064Y-116501062D01*
X116146630Y-116586585D01*
X116091466Y-116625211D01*
X115989406Y-116655569D01*
X115801823Y-116622493D01*
X115716301Y-116559060D01*
X115677674Y-116503895D01*
X115647317Y-116401835D01*
X115787889Y-115604609D01*
X115349291Y-115623980D02*
X115310664Y-115568815D01*
X115225142Y-115505382D01*
X114990664Y-115464037D01*
X114888604Y-115494395D01*
X114833439Y-115533021D01*
X114770005Y-115618544D01*
X114753468Y-115712335D01*
X114775556Y-115861291D01*
X115239076Y-116523266D01*
X114629433Y-116415769D01*
X114474812Y-115373079D02*
X113818274Y-115257313D01*
X114066686Y-116316542D01*
%TO.C,U26*%
X99318636Y-108638837D02*
X99178064Y-109436062D01*
X99114630Y-109521585D01*
X99059466Y-109560211D01*
X98957406Y-109590569D01*
X98769823Y-109557493D01*
X98684301Y-109494060D01*
X98645674Y-109438895D01*
X98615317Y-109336835D01*
X98755889Y-108539609D01*
X98317291Y-108558980D02*
X98278664Y-108503815D01*
X98193142Y-108440382D01*
X97958664Y-108399037D01*
X97856604Y-108429395D01*
X97801439Y-108468021D01*
X97738005Y-108553544D01*
X97721468Y-108647335D01*
X97743556Y-108796291D01*
X98207076Y-109458266D01*
X97597433Y-109350769D01*
X96926960Y-108217120D02*
X97114543Y-108250196D01*
X97200065Y-108313629D01*
X97238692Y-108368794D01*
X97307676Y-108526019D01*
X97321496Y-108721870D01*
X97255344Y-109097035D01*
X97191911Y-109182557D01*
X97136746Y-109221184D01*
X97034686Y-109251542D01*
X96847103Y-109218466D01*
X96761581Y-109155032D01*
X96722955Y-109099868D01*
X96692597Y-108997807D01*
X96733942Y-108763329D01*
X96797375Y-108677807D01*
X96852540Y-108639180D01*
X96954600Y-108608823D01*
X97142182Y-108641899D01*
X97227705Y-108705332D01*
X97266331Y-108760497D01*
X97296689Y-108862557D01*
%TO.C,U25*%
X82633836Y-99604837D02*
X82493264Y-100402062D01*
X82429830Y-100487585D01*
X82374666Y-100526211D01*
X82272606Y-100556569D01*
X82085023Y-100523493D01*
X81999501Y-100460060D01*
X81960874Y-100404895D01*
X81930517Y-100302835D01*
X82071089Y-99505609D01*
X81632491Y-99524980D02*
X81593864Y-99469815D01*
X81508342Y-99406382D01*
X81273864Y-99365037D01*
X81171804Y-99395395D01*
X81116639Y-99434021D01*
X81053205Y-99519544D01*
X81036668Y-99613335D01*
X81058756Y-99762291D01*
X81522276Y-100424266D01*
X80912633Y-100316769D01*
X80195265Y-99174851D02*
X80664221Y-99257541D01*
X80628427Y-99734766D01*
X80589800Y-99679601D01*
X80504278Y-99616168D01*
X80269800Y-99574823D01*
X80167740Y-99605180D01*
X80112575Y-99643807D01*
X80049142Y-99729329D01*
X80007797Y-99963807D01*
X80038155Y-100065868D01*
X80076781Y-100121032D01*
X80162303Y-100184466D01*
X80396781Y-100225810D01*
X80498842Y-100195453D01*
X80554006Y-100156826D01*
%TO.C,U24*%
X64039036Y-101402837D02*
X63898464Y-102200062D01*
X63835030Y-102285585D01*
X63779866Y-102324211D01*
X63677806Y-102354569D01*
X63490223Y-102321493D01*
X63404701Y-102258060D01*
X63366074Y-102202895D01*
X63335717Y-102100835D01*
X63476289Y-101303609D01*
X63037691Y-101322980D02*
X62999064Y-101267815D01*
X62913542Y-101204382D01*
X62679064Y-101163037D01*
X62577004Y-101193395D01*
X62521839Y-101232021D01*
X62458405Y-101317544D01*
X62441868Y-101411335D01*
X62463956Y-101560291D01*
X62927476Y-102222266D01*
X62317833Y-102114769D01*
X61589478Y-101309389D02*
X61473712Y-101965928D01*
X61890107Y-100975569D02*
X62000551Y-101720348D01*
X61390908Y-101612852D01*
%TO.C,U23*%
X45791536Y-101231837D02*
X45650964Y-102029062D01*
X45587530Y-102114585D01*
X45532366Y-102153211D01*
X45430306Y-102183569D01*
X45242723Y-102150493D01*
X45157201Y-102087060D01*
X45118574Y-102031895D01*
X45088217Y-101929835D01*
X45228789Y-101132609D01*
X44790191Y-101151980D02*
X44751564Y-101096815D01*
X44666042Y-101033382D01*
X44431564Y-100992037D01*
X44329504Y-101022395D01*
X44274339Y-101061021D01*
X44210905Y-101146544D01*
X44194368Y-101240335D01*
X44216456Y-101389291D01*
X44679976Y-102051266D01*
X44070333Y-101943769D01*
X43915712Y-100901079D02*
X43306069Y-100793582D01*
X43568187Y-101226630D01*
X43427500Y-101201823D01*
X43325440Y-101232180D01*
X43270275Y-101270807D01*
X43206842Y-101356329D01*
X43165497Y-101590807D01*
X43195855Y-101692868D01*
X43234481Y-101748032D01*
X43320003Y-101811466D01*
X43601377Y-101861079D01*
X43703437Y-101830722D01*
X43758602Y-101792095D01*
%TO.C,U22*%
X243846857Y-85796732D02*
X243987430Y-86593957D01*
X243957072Y-86696018D01*
X243918445Y-86751182D01*
X243832923Y-86814616D01*
X243645341Y-86847691D01*
X243543280Y-86817334D01*
X243488116Y-86778707D01*
X243424682Y-86693185D01*
X243284110Y-85895960D01*
X242878587Y-86064171D02*
X242823423Y-86025545D01*
X242721363Y-85995187D01*
X242486885Y-86036532D01*
X242401362Y-86099965D01*
X242362736Y-86155130D01*
X242332378Y-86257190D01*
X242348916Y-86350981D01*
X242420618Y-86483399D01*
X243082593Y-86946919D01*
X242472950Y-87054415D01*
X241940675Y-86229551D02*
X241885511Y-86190924D01*
X241783451Y-86160566D01*
X241548972Y-86201911D01*
X241463450Y-86265345D01*
X241424824Y-86320509D01*
X241394466Y-86422569D01*
X241411004Y-86516361D01*
X241482706Y-86648778D01*
X242144681Y-87112298D01*
X241535038Y-87219795D01*
%TO.C,U21*%
X225599857Y-85967932D02*
X225740430Y-86765157D01*
X225710072Y-86867218D01*
X225671445Y-86922382D01*
X225585923Y-86985816D01*
X225398341Y-87018891D01*
X225296280Y-86988534D01*
X225241116Y-86949907D01*
X225177682Y-86864385D01*
X225037110Y-86067160D01*
X224631587Y-86235371D02*
X224576423Y-86196745D01*
X224474363Y-86166387D01*
X224239885Y-86207732D01*
X224154362Y-86271165D01*
X224115736Y-86326330D01*
X224085378Y-86428390D01*
X224101916Y-86522181D01*
X224173618Y-86654599D01*
X224835593Y-87118119D01*
X224225950Y-87225615D01*
X223288038Y-87390995D02*
X223850786Y-87291767D01*
X223569412Y-87341381D02*
X223395764Y-86356573D01*
X223514362Y-86480722D01*
X223624691Y-86557975D01*
X223726751Y-86588333D01*
%TO.C,U20*%
X207004857Y-84169632D02*
X207145430Y-84966857D01*
X207115072Y-85068918D01*
X207076445Y-85124082D01*
X206990923Y-85187516D01*
X206803341Y-85220591D01*
X206701280Y-85190234D01*
X206646116Y-85151607D01*
X206582682Y-85066085D01*
X206442110Y-84268860D01*
X206036587Y-84437071D02*
X205981423Y-84398445D01*
X205879363Y-84368087D01*
X205644885Y-84409432D01*
X205559362Y-84472865D01*
X205520736Y-84528030D01*
X205490378Y-84630090D01*
X205506916Y-84723881D01*
X205578618Y-84856299D01*
X206240593Y-85319819D01*
X205630950Y-85427315D01*
X204847659Y-84550004D02*
X204753868Y-84566542D01*
X204668346Y-84629976D01*
X204629719Y-84685140D01*
X204599362Y-84787200D01*
X204585542Y-84983052D01*
X204626887Y-85217530D01*
X204706858Y-85396843D01*
X204770292Y-85482366D01*
X204825456Y-85520992D01*
X204927516Y-85551350D01*
X205021307Y-85534812D01*
X205106830Y-85471378D01*
X205145456Y-85416214D01*
X205175814Y-85314154D01*
X205189634Y-85118302D01*
X205148289Y-84883824D01*
X205068318Y-84704511D01*
X205004884Y-84618989D01*
X204949719Y-84580362D01*
X204847659Y-84550004D01*
%TO.C,U18*%
X173287857Y-100269332D02*
X173428430Y-101066557D01*
X173398072Y-101168618D01*
X173359445Y-101223782D01*
X173273923Y-101287216D01*
X173086341Y-101320291D01*
X172984280Y-101289934D01*
X172929116Y-101251307D01*
X172865682Y-101165785D01*
X172725110Y-100368560D01*
X171913950Y-101527015D02*
X172476698Y-101427788D01*
X172195324Y-101477402D02*
X172021676Y-100492594D01*
X172140274Y-100616743D01*
X172250603Y-100693996D01*
X172352663Y-100724354D01*
X171251976Y-101063496D02*
X171337498Y-101000062D01*
X171376124Y-100944898D01*
X171406482Y-100842837D01*
X171398213Y-100795942D01*
X171334780Y-100710420D01*
X171279615Y-100671793D01*
X171177555Y-100641435D01*
X170989972Y-100674511D01*
X170904450Y-100737945D01*
X170865824Y-100793109D01*
X170835466Y-100895169D01*
X170843735Y-100942065D01*
X170907168Y-101027587D01*
X170962333Y-101066214D01*
X171064393Y-101096572D01*
X171251976Y-101063496D01*
X171354036Y-101093853D01*
X171409200Y-101132480D01*
X171472634Y-101218002D01*
X171505710Y-101405585D01*
X171475352Y-101507645D01*
X171436725Y-101562809D01*
X171351203Y-101626243D01*
X171163621Y-101659319D01*
X171061560Y-101628961D01*
X171006396Y-101590335D01*
X170942962Y-101504812D01*
X170909887Y-101317230D01*
X170940244Y-101215170D01*
X170978871Y-101160005D01*
X171064393Y-101096572D01*
%TO.C,U17*%
X131472636Y-133601837D02*
X131332064Y-134399062D01*
X131268630Y-134484585D01*
X131213466Y-134523211D01*
X131111406Y-134553569D01*
X130923823Y-134520493D01*
X130838301Y-134457060D01*
X130799674Y-134401895D01*
X130769317Y-134299835D01*
X130909889Y-133502609D01*
X129751433Y-134313769D02*
X130314180Y-134412997D01*
X130032807Y-134363383D02*
X130206455Y-133378575D01*
X130275439Y-133535800D01*
X130352693Y-133646129D01*
X130438215Y-133709562D01*
X129596812Y-133271079D02*
X128940274Y-133155313D01*
X129188686Y-134214542D01*
%TO.C,U16*%
X119302636Y-98962837D02*
X119162064Y-99760062D01*
X119098630Y-99845585D01*
X119043466Y-99884211D01*
X118941406Y-99914569D01*
X118753823Y-99881493D01*
X118668301Y-99818060D01*
X118629674Y-99762895D01*
X118599317Y-99660835D01*
X118739889Y-98863609D01*
X117581433Y-99674769D02*
X118144180Y-99773997D01*
X117862807Y-99724383D02*
X118036455Y-98739575D01*
X118105439Y-98896800D01*
X118182693Y-99007129D01*
X118268215Y-99070562D01*
X116910960Y-98541120D02*
X117098543Y-98574196D01*
X117184065Y-98637629D01*
X117222692Y-98692794D01*
X117291676Y-98850019D01*
X117305496Y-99045870D01*
X117239344Y-99421035D01*
X117175911Y-99506557D01*
X117120746Y-99545184D01*
X117018686Y-99575542D01*
X116831103Y-99542466D01*
X116745581Y-99479032D01*
X116706955Y-99423868D01*
X116676597Y-99321807D01*
X116717942Y-99087329D01*
X116781375Y-99001807D01*
X116836540Y-98963180D01*
X116938600Y-98932823D01*
X117126182Y-98965899D01*
X117211705Y-99029332D01*
X117250331Y-99084497D01*
X117280689Y-99186557D01*
%TO.C,U15*%
X102270636Y-91897637D02*
X102130064Y-92694862D01*
X102066630Y-92780385D01*
X102011466Y-92819011D01*
X101909406Y-92849369D01*
X101721823Y-92816293D01*
X101636301Y-92752860D01*
X101597674Y-92697695D01*
X101567317Y-92595635D01*
X101707889Y-91798409D01*
X100549433Y-92609569D02*
X101112180Y-92708797D01*
X100830807Y-92659183D02*
X101004455Y-91674375D01*
X101073439Y-91831600D01*
X101150693Y-91941929D01*
X101236215Y-92005362D01*
X99832065Y-91467651D02*
X100301021Y-91550341D01*
X100265227Y-92027566D01*
X100226600Y-91972401D01*
X100141078Y-91908968D01*
X99906600Y-91867623D01*
X99804540Y-91897980D01*
X99749375Y-91936607D01*
X99685942Y-92022129D01*
X99644597Y-92256607D01*
X99674955Y-92358668D01*
X99713581Y-92413832D01*
X99799103Y-92477266D01*
X100033581Y-92518610D01*
X100135642Y-92488253D01*
X100190806Y-92449626D01*
%TO.C,U14*%
X85585836Y-82863137D02*
X85445264Y-83660362D01*
X85381830Y-83745885D01*
X85326666Y-83784511D01*
X85224606Y-83814869D01*
X85037023Y-83781793D01*
X84951501Y-83718360D01*
X84912874Y-83663195D01*
X84882517Y-83561135D01*
X85023089Y-82763909D01*
X83864633Y-83575069D02*
X84427380Y-83674297D01*
X84146007Y-83624683D02*
X84319655Y-82639875D01*
X84388639Y-82797100D01*
X84465893Y-82907429D01*
X84551415Y-82970862D01*
X83136278Y-82769689D02*
X83020512Y-83426228D01*
X83436907Y-82435869D02*
X83547351Y-83180648D01*
X82937708Y-83073152D01*
%TO.C,U13*%
X66991036Y-84661437D02*
X66850464Y-85458662D01*
X66787030Y-85544185D01*
X66731866Y-85582811D01*
X66629806Y-85613169D01*
X66442223Y-85580093D01*
X66356701Y-85516660D01*
X66318074Y-85461495D01*
X66287717Y-85359435D01*
X66428289Y-84562209D01*
X65269833Y-85373369D02*
X65832580Y-85472597D01*
X65551207Y-85422983D02*
X65724855Y-84438175D01*
X65793839Y-84595400D01*
X65871093Y-84705729D01*
X65956615Y-84769162D01*
X65115212Y-84330679D02*
X64505569Y-84223182D01*
X64767687Y-84656230D01*
X64627000Y-84631423D01*
X64524940Y-84661780D01*
X64469775Y-84700407D01*
X64406342Y-84785929D01*
X64364997Y-85020407D01*
X64395355Y-85122468D01*
X64433981Y-85177632D01*
X64519503Y-85241066D01*
X64800877Y-85290679D01*
X64902937Y-85260322D01*
X64958102Y-85221695D01*
%TO.C,U12*%
X48743536Y-84490237D02*
X48602964Y-85287462D01*
X48539530Y-85372985D01*
X48484366Y-85411611D01*
X48382306Y-85441969D01*
X48194723Y-85408893D01*
X48109201Y-85345460D01*
X48070574Y-85290295D01*
X48040217Y-85188235D01*
X48180789Y-84391009D01*
X47022333Y-85202169D02*
X47585080Y-85301397D01*
X47303707Y-85251783D02*
X47477355Y-84266975D01*
X47546339Y-84424200D01*
X47623593Y-84534529D01*
X47709115Y-84597962D01*
X46804279Y-84245001D02*
X46765652Y-84189836D01*
X46680130Y-84126403D01*
X46445652Y-84085058D01*
X46343591Y-84115416D01*
X46288427Y-84154042D01*
X46224993Y-84239565D01*
X46208455Y-84333356D01*
X46230544Y-84482311D01*
X46694064Y-85144286D01*
X46084421Y-85036790D01*
%TO.C,U11*%
X240894857Y-69054932D02*
X241035430Y-69852157D01*
X241005072Y-69954218D01*
X240966445Y-70009382D01*
X240880923Y-70072816D01*
X240693341Y-70105891D01*
X240591280Y-70075534D01*
X240536116Y-70036907D01*
X240472682Y-69951385D01*
X240332110Y-69154160D01*
X239520950Y-70312615D02*
X240083698Y-70213388D01*
X239802324Y-70263002D02*
X239628676Y-69278194D01*
X239747274Y-69402343D01*
X239857603Y-69479596D01*
X239959663Y-69509954D01*
X238583038Y-70477995D02*
X239145786Y-70378767D01*
X238864412Y-70428381D02*
X238690764Y-69443573D01*
X238809362Y-69567722D01*
X238919691Y-69644975D01*
X239021751Y-69675333D01*
%TO.C,U10*%
X222647857Y-69226232D02*
X222788430Y-70023457D01*
X222758072Y-70125518D01*
X222719445Y-70180682D01*
X222633923Y-70244116D01*
X222446341Y-70277191D01*
X222344280Y-70246834D01*
X222289116Y-70208207D01*
X222225682Y-70122685D01*
X222085110Y-69325460D01*
X221273950Y-70483915D02*
X221836698Y-70384688D01*
X221555324Y-70434302D02*
X221381676Y-69449494D01*
X221500274Y-69573643D01*
X221610603Y-69650896D01*
X221712663Y-69681254D01*
X220490659Y-69606604D02*
X220396868Y-69623142D01*
X220311346Y-69686576D01*
X220272719Y-69741740D01*
X220242362Y-69843800D01*
X220228542Y-70039652D01*
X220269887Y-70274130D01*
X220349858Y-70453443D01*
X220413292Y-70538966D01*
X220468456Y-70577592D01*
X220570516Y-70607950D01*
X220664307Y-70591412D01*
X220749830Y-70527978D01*
X220788456Y-70472814D01*
X220818814Y-70370754D01*
X220832634Y-70174902D01*
X220791289Y-69940424D01*
X220711318Y-69761111D01*
X220647884Y-69675589D01*
X220592719Y-69636962D01*
X220490659Y-69606604D01*
%TO.C,U9*%
X203583901Y-67510522D02*
X203724474Y-68307747D01*
X203694116Y-68409807D01*
X203655489Y-68464972D01*
X203569967Y-68528405D01*
X203382384Y-68561481D01*
X203280324Y-68531123D01*
X203225160Y-68492497D01*
X203161726Y-68406974D01*
X203021154Y-67609749D01*
X202678950Y-68685515D02*
X202491368Y-68718591D01*
X202389308Y-68688234D01*
X202334143Y-68649607D01*
X202215545Y-68525458D01*
X202135574Y-68346145D01*
X202069422Y-67970980D01*
X202099780Y-67868920D01*
X202138406Y-67813755D01*
X202223929Y-67750322D01*
X202411511Y-67717246D01*
X202513571Y-67747603D01*
X202568736Y-67786230D01*
X202632169Y-67871752D01*
X202673514Y-68106230D01*
X202643156Y-68208290D01*
X202604530Y-68263455D01*
X202519007Y-68326889D01*
X202331425Y-68359964D01*
X202229365Y-68329607D01*
X202174200Y-68290980D01*
X202110767Y-68205458D01*
%TO.C,U7*%
X169866901Y-83609922D02*
X170007474Y-84407147D01*
X169977116Y-84509207D01*
X169938489Y-84564372D01*
X169852967Y-84627805D01*
X169665384Y-84660881D01*
X169563324Y-84630523D01*
X169508160Y-84591897D01*
X169444726Y-84506374D01*
X169304154Y-83709149D01*
X168928989Y-83775301D02*
X168272451Y-83891066D01*
X168868159Y-84801453D01*
%TO.C,U6*%
X133955680Y-116777147D02*
X133815108Y-117574373D01*
X133751674Y-117659895D01*
X133696510Y-117698522D01*
X133594450Y-117728879D01*
X133406867Y-117695803D01*
X133321345Y-117632370D01*
X133282718Y-117577205D01*
X133252361Y-117475145D01*
X133392933Y-116677920D01*
X132501916Y-116520810D02*
X132689499Y-116553885D01*
X132775021Y-116617319D01*
X132813648Y-116672484D01*
X132882632Y-116829708D01*
X132896452Y-117025560D01*
X132830300Y-117400725D01*
X132766867Y-117486247D01*
X132711702Y-117524873D01*
X132609642Y-117555231D01*
X132422059Y-117522155D01*
X132336537Y-117458722D01*
X132297911Y-117403557D01*
X132267553Y-117301497D01*
X132308898Y-117067019D01*
X132372331Y-116981497D01*
X132427496Y-116942870D01*
X132529556Y-116912512D01*
X132717138Y-116945588D01*
X132802661Y-117009022D01*
X132841287Y-117064186D01*
X132871645Y-117166246D01*
%TO.C,U5*%
X121785680Y-82138047D02*
X121645108Y-82935273D01*
X121581674Y-83020795D01*
X121526510Y-83059422D01*
X121424450Y-83089779D01*
X121236867Y-83056703D01*
X121151345Y-82993270D01*
X121112718Y-82938105D01*
X121082361Y-82836045D01*
X121222933Y-82038820D01*
X120285021Y-81873441D02*
X120753977Y-81956130D01*
X120718183Y-82433355D01*
X120679556Y-82378191D01*
X120594034Y-82314757D01*
X120359556Y-82273412D01*
X120257496Y-82303770D01*
X120202331Y-82342397D01*
X120138898Y-82427919D01*
X120097553Y-82662397D01*
X120127911Y-82764457D01*
X120166537Y-82819622D01*
X120252059Y-82883055D01*
X120486538Y-82924400D01*
X120588598Y-82894042D01*
X120643762Y-82855416D01*
%TO.C,U4*%
X104753680Y-75073147D02*
X104613108Y-75870373D01*
X104549674Y-75955895D01*
X104494510Y-75994522D01*
X104392450Y-76024879D01*
X104204867Y-75991803D01*
X104119345Y-75928370D01*
X104080718Y-75873205D01*
X104050361Y-75771145D01*
X104190933Y-74973920D01*
X103242034Y-75145079D02*
X103126268Y-75801617D01*
X103542663Y-74811259D02*
X103653107Y-75556038D01*
X103043464Y-75448541D01*
%TO.C,U3*%
X88068880Y-66038647D02*
X87928308Y-66835873D01*
X87864874Y-66921395D01*
X87809710Y-66960022D01*
X87707650Y-66990379D01*
X87520067Y-66957303D01*
X87434545Y-66893870D01*
X87395918Y-66838705D01*
X87365561Y-66736645D01*
X87506133Y-65939420D01*
X87130968Y-65873268D02*
X86521325Y-65765772D01*
X86783443Y-66198819D01*
X86642756Y-66174012D01*
X86540696Y-66204370D01*
X86485531Y-66242997D01*
X86422098Y-66328519D01*
X86380753Y-66562997D01*
X86411111Y-66665057D01*
X86449737Y-66720222D01*
X86535259Y-66783655D01*
X86816633Y-66833269D01*
X86918693Y-66802911D01*
X86973858Y-66764285D01*
%TO.C,D1*%
X59604061Y-76004377D02*
X58619253Y-75830729D01*
X58577908Y-76065207D01*
X58599997Y-76214162D01*
X58677250Y-76324491D01*
X58762772Y-76387925D01*
X58942086Y-76467896D01*
X59082773Y-76492703D01*
X59278624Y-76478884D01*
X59380684Y-76448526D01*
X59491013Y-76371273D01*
X59562716Y-76238855D01*
X59604061Y-76004377D01*
X59339454Y-77505036D02*
X59438681Y-76942289D01*
X59389068Y-77223663D02*
X58404260Y-77050014D01*
X58561485Y-76981030D01*
X58671814Y-76903777D01*
X58735247Y-76818254D01*
%TO.C,D2*%
X78604061Y-76004377D02*
X77619253Y-75830729D01*
X77577908Y-76065207D01*
X77599997Y-76214162D01*
X77677250Y-76324491D01*
X77762772Y-76387925D01*
X77942086Y-76467896D01*
X78082773Y-76492703D01*
X78278624Y-76478884D01*
X78380684Y-76448526D01*
X78491013Y-76371273D01*
X78562716Y-76238855D01*
X78604061Y-76004377D01*
X77547665Y-76785179D02*
X77492500Y-76823805D01*
X77429067Y-76909328D01*
X77387722Y-77143806D01*
X77418080Y-77245866D01*
X77456706Y-77301030D01*
X77542229Y-77364464D01*
X77636020Y-77381002D01*
X77784976Y-77358913D01*
X78446950Y-76895393D01*
X78339454Y-77505036D01*
%TO.C,D3*%
X97604061Y-74004377D02*
X96619253Y-73830729D01*
X96577908Y-74065207D01*
X96599997Y-74214162D01*
X96677250Y-74324491D01*
X96762772Y-74387925D01*
X96942086Y-74467896D01*
X97082773Y-74492703D01*
X97278624Y-74478884D01*
X97380684Y-74448526D01*
X97491013Y-74371273D01*
X97562716Y-74238855D01*
X97604061Y-74004377D01*
X96462143Y-74721745D02*
X96354646Y-75331388D01*
X96787694Y-75069270D01*
X96762887Y-75209957D01*
X96793245Y-75312017D01*
X96831871Y-75367182D01*
X96917393Y-75430616D01*
X97151871Y-75471960D01*
X97253932Y-75441603D01*
X97309096Y-75402976D01*
X97372530Y-75317454D01*
X97422144Y-75036080D01*
X97391786Y-74934020D01*
X97353159Y-74878855D01*
%TO.C,D4*%
X112604061Y-83004377D02*
X111619253Y-82830729D01*
X111577908Y-83065207D01*
X111599997Y-83214162D01*
X111677250Y-83324491D01*
X111762772Y-83387925D01*
X111942086Y-83467896D01*
X112082773Y-83492703D01*
X112278624Y-83478884D01*
X112380684Y-83448526D01*
X112491013Y-83371273D01*
X112562716Y-83238855D01*
X112604061Y-83004377D01*
X111699453Y-84295479D02*
X112355992Y-84411245D01*
X111365633Y-83994850D02*
X112110412Y-83884406D01*
X112002916Y-84494049D01*
%TO.C,D5*%
X130604061Y-90004377D02*
X129619253Y-89830729D01*
X129577908Y-90065207D01*
X129599997Y-90214162D01*
X129677250Y-90324491D01*
X129762772Y-90387925D01*
X129942086Y-90467896D01*
X130082773Y-90492703D01*
X130278624Y-90478884D01*
X130380684Y-90448526D01*
X130491013Y-90371273D01*
X130562716Y-90238855D01*
X130604061Y-90004377D01*
X129362915Y-91284492D02*
X129445605Y-90815536D01*
X129922830Y-90851330D01*
X129867665Y-90889957D01*
X129804232Y-90975479D01*
X129762887Y-91209957D01*
X129793245Y-91312017D01*
X129831871Y-91367182D01*
X129917393Y-91430616D01*
X130151871Y-91471960D01*
X130253932Y-91441603D01*
X130309096Y-91402976D01*
X130372530Y-91317454D01*
X130413875Y-91082976D01*
X130383517Y-90980916D01*
X130344890Y-90925751D01*
%TO.C,D6*%
X142141061Y-124379377D02*
X141156253Y-124205729D01*
X141114908Y-124440207D01*
X141136997Y-124589162D01*
X141214250Y-124699491D01*
X141299772Y-124762925D01*
X141479086Y-124842896D01*
X141619773Y-124867703D01*
X141815624Y-124853884D01*
X141917684Y-124823526D01*
X142028013Y-124746273D01*
X142099716Y-124613855D01*
X142141061Y-124379377D01*
X140908184Y-125612597D02*
X140941260Y-125425014D01*
X141004693Y-125339492D01*
X141059858Y-125300865D01*
X141217083Y-125231881D01*
X141412934Y-125218061D01*
X141788099Y-125284213D01*
X141873621Y-125347647D01*
X141912248Y-125402811D01*
X141942606Y-125504871D01*
X141909530Y-125692454D01*
X141846096Y-125777976D01*
X141790932Y-125816603D01*
X141688871Y-125846960D01*
X141454393Y-125805616D01*
X141368871Y-125742182D01*
X141330245Y-125687017D01*
X141299887Y-125584957D01*
X141332963Y-125397375D01*
X141396396Y-125311853D01*
X141451561Y-125273226D01*
X141553621Y-125242868D01*
%TO.C,D9*%
X212926044Y-73027833D02*
X213910852Y-72854184D01*
X213869507Y-72619706D01*
X213797805Y-72487288D01*
X213687475Y-72410035D01*
X213585415Y-72379677D01*
X213389564Y-72365858D01*
X213248877Y-72390665D01*
X213069564Y-72470636D01*
X212984041Y-72534070D01*
X212906788Y-72644399D01*
X212884699Y-72793355D01*
X212926044Y-73027833D01*
X212744127Y-71996129D02*
X212711051Y-71808547D01*
X212741409Y-71706487D01*
X212780035Y-71651322D01*
X212904184Y-71532724D01*
X213083498Y-71452752D01*
X213458663Y-71386601D01*
X213560723Y-71416958D01*
X213615887Y-71455585D01*
X213679321Y-71541107D01*
X213712397Y-71728690D01*
X213682039Y-71830750D01*
X213643412Y-71885915D01*
X213557890Y-71949348D01*
X213323412Y-71990693D01*
X213221352Y-71960335D01*
X213166187Y-71921709D01*
X213102754Y-71836186D01*
X213069678Y-71648604D01*
X213100036Y-71546544D01*
X213138662Y-71491379D01*
X213224185Y-71427946D01*
%TO.C,D10*%
X231758734Y-75996789D02*
X232743541Y-75823140D01*
X232702197Y-75588662D01*
X232630494Y-75456245D01*
X232520165Y-75378991D01*
X232418105Y-75348634D01*
X232222253Y-75334814D01*
X232081567Y-75359621D01*
X231902253Y-75439592D01*
X231816731Y-75503026D01*
X231739478Y-75613355D01*
X231717389Y-75762311D01*
X231758734Y-75996789D01*
X231494127Y-74496129D02*
X231593355Y-75058876D01*
X231543741Y-74777503D02*
X232528549Y-74603855D01*
X232404400Y-74722453D01*
X232327146Y-74832782D01*
X232296789Y-74934842D01*
X232371438Y-73712838D02*
X232354900Y-73619047D01*
X232291467Y-73533525D01*
X232236302Y-73494898D01*
X232134242Y-73464540D01*
X231938391Y-73450721D01*
X231703913Y-73492065D01*
X231524599Y-73572037D01*
X231439077Y-73635470D01*
X231400450Y-73690635D01*
X231370093Y-73792695D01*
X231386630Y-73886486D01*
X231450064Y-73972009D01*
X231505229Y-74010635D01*
X231607289Y-74040993D01*
X231803140Y-74054813D01*
X232037618Y-74013468D01*
X232216932Y-73933496D01*
X232302454Y-73870063D01*
X232341081Y-73814898D01*
X232371438Y-73712838D01*
%TO.C,D11*%
X250508734Y-75746789D02*
X251493541Y-75573140D01*
X251452197Y-75338662D01*
X251380494Y-75206245D01*
X251270165Y-75128991D01*
X251168105Y-75098634D01*
X250972253Y-75084814D01*
X250831567Y-75109621D01*
X250652253Y-75189592D01*
X250566731Y-75253026D01*
X250489478Y-75363355D01*
X250467389Y-75512311D01*
X250508734Y-75746789D01*
X250244127Y-74246129D02*
X250343355Y-74808876D01*
X250293741Y-74527503D02*
X251278549Y-74353855D01*
X251154400Y-74472453D01*
X251077146Y-74582782D01*
X251046789Y-74684842D01*
X250078748Y-73308217D02*
X250177975Y-73870964D01*
X250128362Y-73589591D02*
X251113169Y-73415943D01*
X250989020Y-73534541D01*
X250911767Y-73644870D01*
X250881409Y-73746930D01*
%TO.C,D12*%
X57186750Y-92285421D02*
X56201943Y-92111772D01*
X56160598Y-92346251D01*
X56182686Y-92495206D01*
X56259940Y-92605535D01*
X56345462Y-92668969D01*
X56524775Y-92748940D01*
X56665462Y-92773747D01*
X56861314Y-92759928D01*
X56963374Y-92729570D01*
X57073703Y-92652317D01*
X57145405Y-92519899D01*
X57186750Y-92285421D01*
X56922144Y-93786080D02*
X57021371Y-93223333D01*
X56971757Y-93504706D02*
X55986950Y-93331058D01*
X56144174Y-93262074D01*
X56254503Y-93184821D01*
X56317937Y-93099298D01*
X55964975Y-94004135D02*
X55909811Y-94042761D01*
X55846377Y-94128284D01*
X55805032Y-94362762D01*
X55835390Y-94464822D01*
X55874017Y-94519986D01*
X55959539Y-94583420D01*
X56053330Y-94599958D01*
X56202286Y-94577869D01*
X56864261Y-94114349D01*
X56756764Y-94723992D01*
%TO.C,D13*%
X75686750Y-92535421D02*
X74701943Y-92361772D01*
X74660598Y-92596251D01*
X74682686Y-92745206D01*
X74759940Y-92855535D01*
X74845462Y-92918969D01*
X75024775Y-92998940D01*
X75165462Y-93023747D01*
X75361314Y-93009928D01*
X75463374Y-92979570D01*
X75573703Y-92902317D01*
X75645405Y-92769899D01*
X75686750Y-92535421D01*
X75422144Y-94036080D02*
X75521371Y-93473333D01*
X75471757Y-93754706D02*
X74486950Y-93581058D01*
X74644174Y-93512074D01*
X74754503Y-93434821D01*
X74817937Y-93349298D01*
X74379453Y-94190701D02*
X74271957Y-94800344D01*
X74705004Y-94538226D01*
X74680197Y-94678913D01*
X74710555Y-94780973D01*
X74749182Y-94836138D01*
X74834704Y-94899572D01*
X75069182Y-94940916D01*
X75171242Y-94910559D01*
X75226407Y-94871932D01*
X75289840Y-94786410D01*
X75339454Y-94505036D01*
X75309096Y-94402976D01*
X75270470Y-94347811D01*
%TO.C,D14*%
X94686750Y-90535421D02*
X93701943Y-90361772D01*
X93660598Y-90596251D01*
X93682686Y-90745206D01*
X93759940Y-90855535D01*
X93845462Y-90918969D01*
X94024775Y-90998940D01*
X94165462Y-91023747D01*
X94361314Y-91009928D01*
X94463374Y-90979570D01*
X94573703Y-90902317D01*
X94645405Y-90769899D01*
X94686750Y-90535421D01*
X94422144Y-92036080D02*
X94521371Y-91473333D01*
X94471757Y-91754706D02*
X93486950Y-91581058D01*
X93644174Y-91512074D01*
X93754503Y-91434821D01*
X93817937Y-91349298D01*
X93616764Y-92764436D02*
X94273302Y-92880201D01*
X93282944Y-92463806D02*
X94027723Y-92353362D01*
X93920226Y-92963005D01*
%TO.C,D15*%
X110686750Y-98535421D02*
X109701943Y-98361772D01*
X109660598Y-98596251D01*
X109682686Y-98745206D01*
X109759940Y-98855535D01*
X109845462Y-98918969D01*
X110024775Y-98998940D01*
X110165462Y-99023747D01*
X110361314Y-99009928D01*
X110463374Y-98979570D01*
X110573703Y-98902317D01*
X110645405Y-98769899D01*
X110686750Y-98535421D01*
X110422144Y-100036080D02*
X110521371Y-99473333D01*
X110471757Y-99754706D02*
X109486950Y-99581058D01*
X109644174Y-99512074D01*
X109754503Y-99434821D01*
X109817937Y-99349298D01*
X109280226Y-100753448D02*
X109362915Y-100284492D01*
X109840140Y-100320286D01*
X109784976Y-100358913D01*
X109721542Y-100444435D01*
X109680197Y-100678913D01*
X109710555Y-100780973D01*
X109749182Y-100836138D01*
X109834704Y-100899572D01*
X110069182Y-100940916D01*
X110171242Y-100910559D01*
X110226407Y-100871932D01*
X110289840Y-100786410D01*
X110331185Y-100551932D01*
X110300827Y-100449872D01*
X110262201Y-100394707D01*
%TO.C,D16*%
X127686750Y-106535421D02*
X126701943Y-106361772D01*
X126660598Y-106596251D01*
X126682686Y-106745206D01*
X126759940Y-106855535D01*
X126845462Y-106918969D01*
X127024775Y-106998940D01*
X127165462Y-107023747D01*
X127361314Y-107009928D01*
X127463374Y-106979570D01*
X127573703Y-106902317D01*
X127645405Y-106769899D01*
X127686750Y-106535421D01*
X127422144Y-108036080D02*
X127521371Y-107473333D01*
X127471757Y-107754706D02*
X126486950Y-107581058D01*
X126644174Y-107512074D01*
X126754503Y-107434821D01*
X126817937Y-107349298D01*
X126288494Y-108706553D02*
X126321570Y-108518970D01*
X126385004Y-108433448D01*
X126440168Y-108394821D01*
X126597393Y-108325837D01*
X126793245Y-108312017D01*
X127168409Y-108378169D01*
X127253932Y-108441603D01*
X127292558Y-108496767D01*
X127322916Y-108598827D01*
X127289840Y-108786410D01*
X127226407Y-108871932D01*
X127171242Y-108910559D01*
X127069182Y-108940916D01*
X126834704Y-108899572D01*
X126749182Y-108836138D01*
X126710555Y-108780973D01*
X126680197Y-108678913D01*
X126713273Y-108491331D01*
X126776707Y-108405809D01*
X126831871Y-108367182D01*
X126933931Y-108336824D01*
%TO.C,D17*%
X139473750Y-140910421D02*
X138488943Y-140736772D01*
X138447598Y-140971251D01*
X138469686Y-141120206D01*
X138546940Y-141230535D01*
X138632462Y-141293969D01*
X138811775Y-141373940D01*
X138952462Y-141398747D01*
X139148314Y-141384928D01*
X139250374Y-141354570D01*
X139360703Y-141277317D01*
X139432405Y-141144899D01*
X139473750Y-140910421D01*
X139209144Y-142411080D02*
X139308371Y-141848333D01*
X139258757Y-142129706D02*
X138273950Y-141956058D01*
X138431174Y-141887074D01*
X138541503Y-141809821D01*
X138604937Y-141724298D01*
X138166453Y-142565701D02*
X138050688Y-143222240D01*
X139109916Y-142973827D01*
%TO.C,D18*%
X183008734Y-106996689D02*
X183993541Y-106823040D01*
X183952197Y-106588562D01*
X183880494Y-106456145D01*
X183770165Y-106378891D01*
X183668105Y-106348534D01*
X183472253Y-106334714D01*
X183331567Y-106359521D01*
X183152253Y-106439492D01*
X183066731Y-106502926D01*
X182989478Y-106613255D01*
X182967389Y-106762211D01*
X183008734Y-106996689D01*
X182744127Y-105496029D02*
X182843355Y-106058776D01*
X182793741Y-105777403D02*
X183778549Y-105603755D01*
X183654400Y-105722353D01*
X183577146Y-105832682D01*
X183546789Y-105934742D01*
X183207647Y-104834054D02*
X183271080Y-104919577D01*
X183326245Y-104958203D01*
X183428305Y-104988561D01*
X183475201Y-104980292D01*
X183560723Y-104916858D01*
X183599350Y-104861694D01*
X183629707Y-104759634D01*
X183596631Y-104572051D01*
X183533198Y-104486529D01*
X183478033Y-104447902D01*
X183375973Y-104417545D01*
X183329077Y-104425814D01*
X183243555Y-104489247D01*
X183204929Y-104544412D01*
X183174571Y-104646472D01*
X183207647Y-104834054D01*
X183177289Y-104936115D01*
X183138662Y-104991279D01*
X183053140Y-105054713D01*
X182865558Y-105087788D01*
X182763498Y-105057431D01*
X182708333Y-105018804D01*
X182644899Y-104933282D01*
X182611824Y-104745699D01*
X182642181Y-104643639D01*
X182680808Y-104588475D01*
X182766330Y-104525041D01*
X182953913Y-104491965D01*
X183055973Y-104522323D01*
X183111137Y-104560950D01*
X183174571Y-104646472D01*
%TO.C,D19*%
X199758734Y-99496789D02*
X200743541Y-99323140D01*
X200702197Y-99088662D01*
X200630494Y-98956245D01*
X200520165Y-98878991D01*
X200418105Y-98848634D01*
X200222253Y-98834814D01*
X200081567Y-98859621D01*
X199902253Y-98939592D01*
X199816731Y-99003026D01*
X199739478Y-99113355D01*
X199717389Y-99262311D01*
X199758734Y-99496789D01*
X199494127Y-97996129D02*
X199593355Y-98558876D01*
X199543741Y-98277503D02*
X200528549Y-98103855D01*
X200404400Y-98222453D01*
X200327146Y-98332782D01*
X200296789Y-98434842D01*
X199411437Y-97527173D02*
X199378362Y-97339591D01*
X199408719Y-97237531D01*
X199447346Y-97182366D01*
X199571495Y-97063768D01*
X199750808Y-96983796D01*
X200125973Y-96917645D01*
X200228033Y-96948002D01*
X200283198Y-96986629D01*
X200346631Y-97072151D01*
X200379707Y-97259734D01*
X200349350Y-97361794D01*
X200310723Y-97416958D01*
X200225201Y-97480392D01*
X199990723Y-97521737D01*
X199888662Y-97491379D01*
X199833498Y-97452752D01*
X199770064Y-97367230D01*
X199736988Y-97179648D01*
X199767346Y-97077588D01*
X199805973Y-97022423D01*
X199891495Y-96958990D01*
%TO.C,D20*%
X217045734Y-90621689D02*
X218030541Y-90448040D01*
X217989197Y-90213562D01*
X217917494Y-90081145D01*
X217807165Y-90003891D01*
X217705105Y-89973534D01*
X217509253Y-89959714D01*
X217368567Y-89984521D01*
X217189253Y-90064492D01*
X217103731Y-90127926D01*
X217026478Y-90238255D01*
X217004389Y-90387211D01*
X217045734Y-90621689D01*
X217771371Y-89526666D02*
X217809998Y-89471502D01*
X217840355Y-89369441D01*
X217799011Y-89134963D01*
X217735577Y-89049441D01*
X217680412Y-89010815D01*
X217578352Y-88980457D01*
X217484561Y-88996995D01*
X217352143Y-89068697D01*
X216888623Y-89730672D01*
X216781127Y-89121029D01*
X217658438Y-88337738D02*
X217641900Y-88243947D01*
X217578467Y-88158425D01*
X217523302Y-88119798D01*
X217421242Y-88089440D01*
X217225391Y-88075621D01*
X216990913Y-88116965D01*
X216811599Y-88196937D01*
X216726077Y-88260370D01*
X216687450Y-88315535D01*
X216657093Y-88417595D01*
X216673630Y-88511386D01*
X216737064Y-88596909D01*
X216792229Y-88635535D01*
X216894289Y-88665893D01*
X217090140Y-88679713D01*
X217324618Y-88638368D01*
X217503932Y-88558396D01*
X217589454Y-88494963D01*
X217628081Y-88439798D01*
X217658438Y-88337738D01*
%TO.C,D21*%
X234758734Y-91746789D02*
X235743541Y-91573140D01*
X235702197Y-91338662D01*
X235630494Y-91206245D01*
X235520165Y-91128991D01*
X235418105Y-91098634D01*
X235222253Y-91084814D01*
X235081567Y-91109621D01*
X234902253Y-91189592D01*
X234816731Y-91253026D01*
X234739478Y-91363355D01*
X234717389Y-91512311D01*
X234758734Y-91746789D01*
X235484371Y-90651766D02*
X235522998Y-90596602D01*
X235553355Y-90494541D01*
X235512011Y-90260063D01*
X235448577Y-90174541D01*
X235393412Y-90135915D01*
X235291352Y-90105557D01*
X235197561Y-90122095D01*
X235065143Y-90193797D01*
X234601623Y-90855772D01*
X234494127Y-90246129D01*
X234328748Y-89308217D02*
X234427975Y-89870964D01*
X234378362Y-89589591D02*
X235363169Y-89415943D01*
X235239020Y-89534541D01*
X235161767Y-89644870D01*
X235131409Y-89746930D01*
%TO.C,D23*%
X54436750Y-109035421D02*
X53451943Y-108861772D01*
X53410598Y-109096251D01*
X53432686Y-109245206D01*
X53509940Y-109355535D01*
X53595462Y-109418969D01*
X53774775Y-109498940D01*
X53915462Y-109523747D01*
X54111314Y-109509928D01*
X54213374Y-109479570D01*
X54323703Y-109402317D01*
X54395405Y-109269899D01*
X54436750Y-109035421D01*
X53380355Y-109816223D02*
X53325190Y-109854849D01*
X53261756Y-109940371D01*
X53220412Y-110174849D01*
X53250769Y-110276910D01*
X53289396Y-110332074D01*
X53374918Y-110395508D01*
X53468709Y-110412046D01*
X53617665Y-110389957D01*
X54279640Y-109926437D01*
X54172144Y-110536080D01*
X53129453Y-110690701D02*
X53021957Y-111300344D01*
X53455004Y-111038226D01*
X53430197Y-111178913D01*
X53460555Y-111280973D01*
X53499182Y-111336138D01*
X53584704Y-111399572D01*
X53819182Y-111440916D01*
X53921242Y-111410559D01*
X53976407Y-111371932D01*
X54039840Y-111286410D01*
X54089454Y-111005036D01*
X54059096Y-110902976D01*
X54020470Y-110847811D01*
%TO.C,D24*%
X71900250Y-108660421D02*
X70915443Y-108486772D01*
X70874098Y-108721251D01*
X70896186Y-108870206D01*
X70973440Y-108980535D01*
X71058962Y-109043969D01*
X71238275Y-109123940D01*
X71378962Y-109148747D01*
X71574814Y-109134928D01*
X71676874Y-109104570D01*
X71787203Y-109027317D01*
X71858905Y-108894899D01*
X71900250Y-108660421D01*
X70843855Y-109441223D02*
X70788690Y-109479849D01*
X70725256Y-109565371D01*
X70683912Y-109799849D01*
X70714269Y-109901910D01*
X70752896Y-109957074D01*
X70838418Y-110020508D01*
X70932209Y-110037046D01*
X71081165Y-110014957D01*
X71743140Y-109551437D01*
X71635644Y-110161080D01*
X70830264Y-110889436D02*
X71486802Y-111005201D01*
X70496444Y-110588806D02*
X71241223Y-110478362D01*
X71133726Y-111088005D01*
%TO.C,D25*%
X90650250Y-106910421D02*
X89665443Y-106736772D01*
X89624098Y-106971251D01*
X89646186Y-107120206D01*
X89723440Y-107230535D01*
X89808962Y-107293969D01*
X89988275Y-107373940D01*
X90128962Y-107398747D01*
X90324814Y-107384928D01*
X90426874Y-107354570D01*
X90537203Y-107277317D01*
X90608905Y-107144899D01*
X90650250Y-106910421D01*
X89593855Y-107691223D02*
X89538690Y-107729849D01*
X89475256Y-107815371D01*
X89433912Y-108049849D01*
X89464269Y-108151910D01*
X89502896Y-108207074D01*
X89588418Y-108270508D01*
X89682209Y-108287046D01*
X89831165Y-108264957D01*
X90493140Y-107801437D01*
X90385644Y-108411080D01*
X89243726Y-109128448D02*
X89326415Y-108659492D01*
X89803640Y-108695286D01*
X89748476Y-108733913D01*
X89685042Y-108819435D01*
X89643697Y-109053913D01*
X89674055Y-109155973D01*
X89712682Y-109211138D01*
X89798204Y-109274572D01*
X90032682Y-109315916D01*
X90134742Y-109285559D01*
X90189907Y-109246932D01*
X90253340Y-109161410D01*
X90294685Y-108926932D01*
X90264327Y-108824872D01*
X90225701Y-108769707D01*
%TO.C,D26*%
X106973750Y-115910421D02*
X105988943Y-115736772D01*
X105947598Y-115971251D01*
X105969686Y-116120206D01*
X106046940Y-116230535D01*
X106132462Y-116293969D01*
X106311775Y-116373940D01*
X106452462Y-116398747D01*
X106648314Y-116384928D01*
X106750374Y-116354570D01*
X106860703Y-116277317D01*
X106932405Y-116144899D01*
X106973750Y-115910421D01*
X105917355Y-116691223D02*
X105862190Y-116729849D01*
X105798756Y-116815371D01*
X105757412Y-117049849D01*
X105787769Y-117151910D01*
X105826396Y-117207074D01*
X105911918Y-117270508D01*
X106005709Y-117287046D01*
X106154665Y-117264957D01*
X106816640Y-116801437D01*
X106709144Y-117411080D01*
X105575494Y-118081553D02*
X105608570Y-117893970D01*
X105672004Y-117808448D01*
X105727168Y-117769821D01*
X105884393Y-117700837D01*
X106080245Y-117687017D01*
X106455409Y-117753169D01*
X106540932Y-117816603D01*
X106579558Y-117871767D01*
X106609916Y-117973827D01*
X106576840Y-118161410D01*
X106513407Y-118246932D01*
X106458242Y-118285559D01*
X106356182Y-118315916D01*
X106121704Y-118274572D01*
X106036182Y-118211138D01*
X105997555Y-118155973D01*
X105967197Y-118053913D01*
X106000273Y-117866331D01*
X106063707Y-117780809D01*
X106118871Y-117742182D01*
X106220931Y-117711824D01*
%TO.C,D27*%
X123973750Y-123160421D02*
X122988943Y-122986772D01*
X122947598Y-123221251D01*
X122969686Y-123370206D01*
X123046940Y-123480535D01*
X123132462Y-123543969D01*
X123311775Y-123623940D01*
X123452462Y-123648747D01*
X123648314Y-123634928D01*
X123750374Y-123604570D01*
X123860703Y-123527317D01*
X123932405Y-123394899D01*
X123973750Y-123160421D01*
X122917355Y-123941223D02*
X122862190Y-123979849D01*
X122798756Y-124065371D01*
X122757412Y-124299849D01*
X122787769Y-124401910D01*
X122826396Y-124457074D01*
X122911918Y-124520508D01*
X123005709Y-124537046D01*
X123154665Y-124514957D01*
X123816640Y-124051437D01*
X123709144Y-124661080D01*
X122666453Y-124815701D02*
X122550688Y-125472240D01*
X123609916Y-125223827D01*
%TO.C,D31*%
X219008734Y-107496689D02*
X219993541Y-107323040D01*
X219952197Y-107088562D01*
X219880494Y-106956145D01*
X219770165Y-106878891D01*
X219668105Y-106848534D01*
X219472253Y-106834714D01*
X219331567Y-106859521D01*
X219152253Y-106939492D01*
X219066731Y-107002926D01*
X218989478Y-107113255D01*
X218967389Y-107262211D01*
X219008734Y-107496689D01*
X219836431Y-106432024D02*
X219728935Y-105822381D01*
X219411653Y-106216802D01*
X219386846Y-106076115D01*
X219323412Y-105990593D01*
X219268248Y-105951966D01*
X219166187Y-105921609D01*
X218931709Y-105962953D01*
X218846187Y-106026387D01*
X218807561Y-106081551D01*
X218777203Y-106183612D01*
X218826817Y-106464985D01*
X218890250Y-106550508D01*
X218945415Y-106589134D01*
X218578748Y-105058117D02*
X218677975Y-105620864D01*
X218628362Y-105339491D02*
X219613169Y-105165843D01*
X219489020Y-105284441D01*
X219411767Y-105394770D01*
X219381409Y-105496830D01*
%TO.C,D32*%
X237758734Y-109496689D02*
X238743541Y-109323040D01*
X238702197Y-109088562D01*
X238630494Y-108956145D01*
X238520165Y-108878891D01*
X238418105Y-108848534D01*
X238222253Y-108834714D01*
X238081567Y-108859521D01*
X237902253Y-108939492D01*
X237816731Y-109002926D01*
X237739478Y-109113255D01*
X237717389Y-109262211D01*
X237758734Y-109496689D01*
X238586431Y-108432024D02*
X238478935Y-107822381D01*
X238161653Y-108216802D01*
X238136846Y-108076115D01*
X238073412Y-107990593D01*
X238018248Y-107951966D01*
X237916187Y-107921609D01*
X237681709Y-107962953D01*
X237596187Y-108026387D01*
X237557561Y-108081551D01*
X237527203Y-108183612D01*
X237576817Y-108464985D01*
X237640250Y-108550508D01*
X237695415Y-108589134D01*
X238318992Y-107463754D02*
X238357618Y-107408589D01*
X238387976Y-107306529D01*
X238346631Y-107072051D01*
X238283198Y-106986529D01*
X238228033Y-106947902D01*
X238125973Y-106917545D01*
X238032182Y-106934083D01*
X237899764Y-107005785D01*
X237436244Y-107667760D01*
X237328748Y-107058117D01*
%TO.C,D33*%
X256008734Y-109246689D02*
X256993541Y-109073040D01*
X256952197Y-108838562D01*
X256880494Y-108706145D01*
X256770165Y-108628891D01*
X256668105Y-108598534D01*
X256472253Y-108584714D01*
X256331567Y-108609521D01*
X256152253Y-108689492D01*
X256066731Y-108752926D01*
X255989478Y-108863255D01*
X255967389Y-109012211D01*
X256008734Y-109246689D01*
X256836431Y-108182024D02*
X256728935Y-107572381D01*
X256411653Y-107966802D01*
X256386846Y-107826115D01*
X256323412Y-107740593D01*
X256268248Y-107701966D01*
X256166187Y-107671609D01*
X255931709Y-107712953D01*
X255846187Y-107776387D01*
X255807561Y-107831551D01*
X255777203Y-107933612D01*
X255826817Y-108214985D01*
X255890250Y-108300508D01*
X255945415Y-108339134D01*
X256671052Y-107244112D02*
X256563556Y-106634469D01*
X256246273Y-107028890D01*
X256221467Y-106888203D01*
X256158033Y-106802681D01*
X256102868Y-106764054D01*
X256000808Y-106733696D01*
X255766330Y-106775041D01*
X255680808Y-106838475D01*
X255642181Y-106893639D01*
X255611824Y-106995699D01*
X255661437Y-107277073D01*
X255724871Y-107362595D01*
X255780035Y-107401222D01*
%TO.C,D34*%
X50936750Y-125535421D02*
X49951943Y-125361772D01*
X49910598Y-125596251D01*
X49932686Y-125745206D01*
X50009940Y-125855535D01*
X50095462Y-125918969D01*
X50274775Y-125998940D01*
X50415462Y-126023747D01*
X50611314Y-126009928D01*
X50713374Y-125979570D01*
X50823703Y-125902317D01*
X50895405Y-125769899D01*
X50936750Y-125535421D01*
X49794832Y-126252789D02*
X49687336Y-126862432D01*
X50120383Y-126600314D01*
X50095576Y-126741001D01*
X50125934Y-126843061D01*
X50164561Y-126898226D01*
X50250083Y-126961659D01*
X50484561Y-127003004D01*
X50586621Y-126972647D01*
X50641786Y-126934020D01*
X50705219Y-126848498D01*
X50754833Y-126567124D01*
X50724475Y-126465064D01*
X50685849Y-126409899D01*
X49866764Y-127764436D02*
X50523302Y-127880201D01*
X49532944Y-127463806D02*
X50277723Y-127353362D01*
X50170226Y-127963005D01*
%TO.C,D35*%
X68973250Y-125910421D02*
X67988443Y-125736772D01*
X67947098Y-125971251D01*
X67969186Y-126120206D01*
X68046440Y-126230535D01*
X68131962Y-126293969D01*
X68311275Y-126373940D01*
X68451962Y-126398747D01*
X68647814Y-126384928D01*
X68749874Y-126354570D01*
X68860203Y-126277317D01*
X68931905Y-126144899D01*
X68973250Y-125910421D01*
X67831332Y-126627789D02*
X67723836Y-127237432D01*
X68156883Y-126975314D01*
X68132076Y-127116001D01*
X68162434Y-127218061D01*
X68201061Y-127273226D01*
X68286583Y-127336659D01*
X68521061Y-127378004D01*
X68623121Y-127347647D01*
X68678286Y-127309020D01*
X68741719Y-127223498D01*
X68791333Y-126942124D01*
X68760975Y-126840064D01*
X68722349Y-126784899D01*
X67566726Y-128128448D02*
X67649415Y-127659492D01*
X68126640Y-127695286D01*
X68071476Y-127733913D01*
X68008042Y-127819435D01*
X67966697Y-128053913D01*
X67997055Y-128155973D01*
X68035682Y-128211138D01*
X68121204Y-128274572D01*
X68355682Y-128315916D01*
X68457742Y-128285559D01*
X68512907Y-128246932D01*
X68576340Y-128161410D01*
X68617685Y-127926932D01*
X68587327Y-127824872D01*
X68548701Y-127769707D01*
%TO.C,D36*%
X87723250Y-123910421D02*
X86738443Y-123736772D01*
X86697098Y-123971251D01*
X86719186Y-124120206D01*
X86796440Y-124230535D01*
X86881962Y-124293969D01*
X87061275Y-124373940D01*
X87201962Y-124398747D01*
X87397814Y-124384928D01*
X87499874Y-124354570D01*
X87610203Y-124277317D01*
X87681905Y-124144899D01*
X87723250Y-123910421D01*
X86581332Y-124627789D02*
X86473836Y-125237432D01*
X86906883Y-124975314D01*
X86882076Y-125116001D01*
X86912434Y-125218061D01*
X86951061Y-125273226D01*
X87036583Y-125336659D01*
X87271061Y-125378004D01*
X87373121Y-125347647D01*
X87428286Y-125309020D01*
X87491719Y-125223498D01*
X87541333Y-124942124D01*
X87510975Y-124840064D01*
X87472349Y-124784899D01*
X86324994Y-126081553D02*
X86358070Y-125893970D01*
X86421504Y-125808448D01*
X86476668Y-125769821D01*
X86633893Y-125700837D01*
X86829745Y-125687017D01*
X87204909Y-125753169D01*
X87290432Y-125816603D01*
X87329058Y-125871767D01*
X87359416Y-125973827D01*
X87326340Y-126161410D01*
X87262907Y-126246932D01*
X87207742Y-126285559D01*
X87105682Y-126315916D01*
X86871204Y-126274572D01*
X86785682Y-126211138D01*
X86747055Y-126155973D01*
X86716697Y-126053913D01*
X86749773Y-125866331D01*
X86813207Y-125780809D01*
X86868371Y-125742182D01*
X86970431Y-125711824D01*
%TO.C,D37*%
X104473750Y-132910421D02*
X103488943Y-132736772D01*
X103447598Y-132971251D01*
X103469686Y-133120206D01*
X103546940Y-133230535D01*
X103632462Y-133293969D01*
X103811775Y-133373940D01*
X103952462Y-133398747D01*
X104148314Y-133384928D01*
X104250374Y-133354570D01*
X104360703Y-133277317D01*
X104432405Y-133144899D01*
X104473750Y-132910421D01*
X103331832Y-133627789D02*
X103224336Y-134237432D01*
X103657383Y-133975314D01*
X103632576Y-134116001D01*
X103662934Y-134218061D01*
X103701561Y-134273226D01*
X103787083Y-134336659D01*
X104021561Y-134378004D01*
X104123621Y-134347647D01*
X104178786Y-134309020D01*
X104242219Y-134223498D01*
X104291833Y-133942124D01*
X104261475Y-133840064D01*
X104222849Y-133784899D01*
X103166453Y-134565701D02*
X103050688Y-135222240D01*
X104109916Y-134973827D01*
%TO.C,D38*%
X121473750Y-139910421D02*
X120488943Y-139736772D01*
X120447598Y-139971251D01*
X120469686Y-140120206D01*
X120546940Y-140230535D01*
X120632462Y-140293969D01*
X120811775Y-140373940D01*
X120952462Y-140398747D01*
X121148314Y-140384928D01*
X121250374Y-140354570D01*
X121360703Y-140277317D01*
X121432405Y-140144899D01*
X121473750Y-139910421D01*
X120331832Y-140627789D02*
X120224336Y-141237432D01*
X120657383Y-140975314D01*
X120632576Y-141116001D01*
X120662934Y-141218061D01*
X120701561Y-141273226D01*
X120787083Y-141336659D01*
X121021561Y-141378004D01*
X121123621Y-141347647D01*
X121178786Y-141309020D01*
X121242219Y-141223498D01*
X121291833Y-140942124D01*
X121261475Y-140840064D01*
X121222849Y-140784899D01*
X120547169Y-141874600D02*
X120516811Y-141772540D01*
X120478184Y-141717375D01*
X120392662Y-141653942D01*
X120345767Y-141645673D01*
X120243706Y-141676030D01*
X120188542Y-141714657D01*
X120125108Y-141800179D01*
X120092032Y-141987762D01*
X120122390Y-142089822D01*
X120161017Y-142144986D01*
X120246539Y-142208420D01*
X120293435Y-142216689D01*
X120395495Y-142186331D01*
X120450659Y-142147705D01*
X120514093Y-142062182D01*
X120547169Y-141874600D01*
X120610602Y-141789078D01*
X120665767Y-141750451D01*
X120767827Y-141720093D01*
X120955409Y-141753169D01*
X121040932Y-141816603D01*
X121079558Y-141871767D01*
X121109916Y-141973827D01*
X121076840Y-142161410D01*
X121013407Y-142246932D01*
X120958242Y-142285559D01*
X120856182Y-142315916D01*
X120668599Y-142282841D01*
X120583077Y-142219407D01*
X120544451Y-142164242D01*
X120514093Y-142062182D01*
%TO.C,D42*%
X222258734Y-124246689D02*
X223243541Y-124073040D01*
X223202197Y-123838562D01*
X223130494Y-123706145D01*
X223020165Y-123628891D01*
X222918105Y-123598534D01*
X222722253Y-123584714D01*
X222581567Y-123609521D01*
X222402253Y-123689492D01*
X222316731Y-123752926D01*
X222239478Y-123863255D01*
X222217389Y-124012211D01*
X222258734Y-124246689D01*
X222667203Y-122724055D02*
X222010665Y-122839820D01*
X223083713Y-122892381D02*
X222421624Y-123250894D01*
X222314127Y-122641251D01*
X222818992Y-122213754D02*
X222857618Y-122158589D01*
X222887976Y-122056529D01*
X222846631Y-121822051D01*
X222783198Y-121736529D01*
X222728033Y-121697902D01*
X222625973Y-121667545D01*
X222532182Y-121684083D01*
X222399764Y-121755785D01*
X221936244Y-122417760D01*
X221828748Y-121808117D01*
%TO.C,D43*%
X240258734Y-125996689D02*
X241243541Y-125823040D01*
X241202197Y-125588562D01*
X241130494Y-125456145D01*
X241020165Y-125378891D01*
X240918105Y-125348534D01*
X240722253Y-125334714D01*
X240581567Y-125359521D01*
X240402253Y-125439492D01*
X240316731Y-125502926D01*
X240239478Y-125613255D01*
X240217389Y-125762211D01*
X240258734Y-125996689D01*
X240667203Y-124474055D02*
X240010665Y-124589820D01*
X241083713Y-124642381D02*
X240421624Y-125000894D01*
X240314127Y-124391251D01*
X240921052Y-123994112D02*
X240813556Y-123384469D01*
X240496273Y-123778890D01*
X240471467Y-123638203D01*
X240408033Y-123552681D01*
X240352868Y-123514054D01*
X240250808Y-123483696D01*
X240016330Y-123525041D01*
X239930808Y-123588475D01*
X239892181Y-123643639D01*
X239861824Y-123745699D01*
X239911437Y-124027073D01*
X239974871Y-124112595D01*
X240030035Y-124151222D01*
%TO.C,D44*%
X258758734Y-125746689D02*
X259743541Y-125573040D01*
X259702197Y-125338562D01*
X259630494Y-125206145D01*
X259520165Y-125128891D01*
X259418105Y-125098534D01*
X259222253Y-125084714D01*
X259081567Y-125109521D01*
X258902253Y-125189492D01*
X258816731Y-125252926D01*
X258739478Y-125363255D01*
X258717389Y-125512211D01*
X258758734Y-125746689D01*
X259167203Y-124224055D02*
X258510665Y-124339820D01*
X259583713Y-124392381D02*
X258921624Y-124750894D01*
X258814127Y-124141251D01*
X259001824Y-123286143D02*
X258345286Y-123401908D01*
X259418334Y-123454469D02*
X258756245Y-123812982D01*
X258648748Y-123203339D01*
%TD*%
M02*
