%TF.GenerationSoftware,KiCad,Pcbnew,(5.1.10)-1*%
%TF.CreationDate,2021-10-03T17:33:33-06:00*%
%TF.ProjectId,VColMX44,56436f6c-4d58-4343-942e-6b696361645f,rev?*%
%TF.SameCoordinates,Original*%
%TF.FileFunction,Paste,Bot*%
%TF.FilePolarity,Positive*%
%FSLAX46Y46*%
G04 Gerber Fmt 4.6, Leading zero omitted, Abs format (unit mm)*
G04 Created by KiCad (PCBNEW (5.1.10)-1) date 2021-10-03 17:33:34*
%MOMM*%
%LPD*%
G01*
G04 APERTURE LIST*
%ADD10R,1.700000X1.000000*%
%ADD11R,1.400000X1.200000*%
%ADD12C,0.100000*%
G04 APERTURE END LIST*
D10*
%TO.C,SW2*%
X153050000Y-133600000D03*
X146750000Y-133600000D03*
X153050000Y-137400000D03*
X146750000Y-137400000D03*
%TD*%
%TO.C,U46*%
G36*
G01*
X151179717Y-91820283D02*
X151179717Y-92404717D01*
G75*
G02*
X150929717Y-92654717I-250000J0D01*
G01*
X150345283Y-92654717D01*
G75*
G02*
X150095283Y-92404717I0J250000D01*
G01*
X150095283Y-91820283D01*
G75*
G02*
X150345283Y-91570283I250000J0D01*
G01*
X150929717Y-91570283D01*
G75*
G02*
X151179717Y-91820283I0J-250000D01*
G01*
G37*
G36*
G01*
X151179717Y-93095283D02*
X151179717Y-93679717D01*
G75*
G02*
X150929717Y-93929717I-250000J0D01*
G01*
X150345283Y-93929717D01*
G75*
G02*
X150095283Y-93679717I0J250000D01*
G01*
X150095283Y-93095283D01*
G75*
G02*
X150345283Y-92845283I250000J0D01*
G01*
X150929717Y-92845283D01*
G75*
G02*
X151179717Y-93095283I0J-250000D01*
G01*
G37*
G36*
G01*
X149904717Y-91820283D02*
X149904717Y-92404717D01*
G75*
G02*
X149654717Y-92654717I-250000J0D01*
G01*
X149070283Y-92654717D01*
G75*
G02*
X148820283Y-92404717I0J250000D01*
G01*
X148820283Y-91820283D01*
G75*
G02*
X149070283Y-91570283I250000J0D01*
G01*
X149654717Y-91570283D01*
G75*
G02*
X149904717Y-91820283I0J-250000D01*
G01*
G37*
G36*
G01*
X149904717Y-93095283D02*
X149904717Y-93679717D01*
G75*
G02*
X149654717Y-93929717I-250000J0D01*
G01*
X149070283Y-93929717D01*
G75*
G02*
X148820283Y-93679717I0J250000D01*
G01*
X148820283Y-93095283D01*
G75*
G02*
X149070283Y-92845283I250000J0D01*
G01*
X149654717Y-92845283D01*
G75*
G02*
X149904717Y-93095283I0J-250000D01*
G01*
G37*
G36*
G01*
X153875000Y-90100000D02*
X153875000Y-90200000D01*
G75*
G02*
X153825000Y-90250000I-50000J0D01*
G01*
X153050000Y-90250000D01*
G75*
G02*
X153000000Y-90200000I0J50000D01*
G01*
X153000000Y-90100000D01*
G75*
G02*
X153050000Y-90050000I50000J0D01*
G01*
X153825000Y-90050000D01*
G75*
G02*
X153875000Y-90100000I0J-50000D01*
G01*
G37*
G36*
G01*
X153875000Y-90500000D02*
X153875000Y-90600000D01*
G75*
G02*
X153825000Y-90650000I-50000J0D01*
G01*
X153050000Y-90650000D01*
G75*
G02*
X153000000Y-90600000I0J50000D01*
G01*
X153000000Y-90500000D01*
G75*
G02*
X153050000Y-90450000I50000J0D01*
G01*
X153825000Y-90450000D01*
G75*
G02*
X153875000Y-90500000I0J-50000D01*
G01*
G37*
G36*
G01*
X153875000Y-90900000D02*
X153875000Y-91000000D01*
G75*
G02*
X153825000Y-91050000I-50000J0D01*
G01*
X153050000Y-91050000D01*
G75*
G02*
X153000000Y-91000000I0J50000D01*
G01*
X153000000Y-90900000D01*
G75*
G02*
X153050000Y-90850000I50000J0D01*
G01*
X153825000Y-90850000D01*
G75*
G02*
X153875000Y-90900000I0J-50000D01*
G01*
G37*
G36*
G01*
X153875000Y-91300000D02*
X153875000Y-91400000D01*
G75*
G02*
X153825000Y-91450000I-50000J0D01*
G01*
X153050000Y-91450000D01*
G75*
G02*
X153000000Y-91400000I0J50000D01*
G01*
X153000000Y-91300000D01*
G75*
G02*
X153050000Y-91250000I50000J0D01*
G01*
X153825000Y-91250000D01*
G75*
G02*
X153875000Y-91300000I0J-50000D01*
G01*
G37*
G36*
G01*
X153875000Y-91700000D02*
X153875000Y-91800000D01*
G75*
G02*
X153825000Y-91850000I-50000J0D01*
G01*
X153050000Y-91850000D01*
G75*
G02*
X153000000Y-91800000I0J50000D01*
G01*
X153000000Y-91700000D01*
G75*
G02*
X153050000Y-91650000I50000J0D01*
G01*
X153825000Y-91650000D01*
G75*
G02*
X153875000Y-91700000I0J-50000D01*
G01*
G37*
G36*
G01*
X153875000Y-92100000D02*
X153875000Y-92200000D01*
G75*
G02*
X153825000Y-92250000I-50000J0D01*
G01*
X153050000Y-92250000D01*
G75*
G02*
X153000000Y-92200000I0J50000D01*
G01*
X153000000Y-92100000D01*
G75*
G02*
X153050000Y-92050000I50000J0D01*
G01*
X153825000Y-92050000D01*
G75*
G02*
X153875000Y-92100000I0J-50000D01*
G01*
G37*
G36*
G01*
X153875000Y-92500000D02*
X153875000Y-92600000D01*
G75*
G02*
X153825000Y-92650000I-50000J0D01*
G01*
X153050000Y-92650000D01*
G75*
G02*
X153000000Y-92600000I0J50000D01*
G01*
X153000000Y-92500000D01*
G75*
G02*
X153050000Y-92450000I50000J0D01*
G01*
X153825000Y-92450000D01*
G75*
G02*
X153875000Y-92500000I0J-50000D01*
G01*
G37*
G36*
G01*
X153875000Y-92900000D02*
X153875000Y-93000000D01*
G75*
G02*
X153825000Y-93050000I-50000J0D01*
G01*
X153050000Y-93050000D01*
G75*
G02*
X153000000Y-93000000I0J50000D01*
G01*
X153000000Y-92900000D01*
G75*
G02*
X153050000Y-92850000I50000J0D01*
G01*
X153825000Y-92850000D01*
G75*
G02*
X153875000Y-92900000I0J-50000D01*
G01*
G37*
G36*
G01*
X153875000Y-93300000D02*
X153875000Y-93400000D01*
G75*
G02*
X153825000Y-93450000I-50000J0D01*
G01*
X153050000Y-93450000D01*
G75*
G02*
X153000000Y-93400000I0J50000D01*
G01*
X153000000Y-93300000D01*
G75*
G02*
X153050000Y-93250000I50000J0D01*
G01*
X153825000Y-93250000D01*
G75*
G02*
X153875000Y-93300000I0J-50000D01*
G01*
G37*
G36*
G01*
X153875000Y-93700000D02*
X153875000Y-93800000D01*
G75*
G02*
X153825000Y-93850000I-50000J0D01*
G01*
X153050000Y-93850000D01*
G75*
G02*
X153000000Y-93800000I0J50000D01*
G01*
X153000000Y-93700000D01*
G75*
G02*
X153050000Y-93650000I50000J0D01*
G01*
X153825000Y-93650000D01*
G75*
G02*
X153875000Y-93700000I0J-50000D01*
G01*
G37*
G36*
G01*
X153875000Y-94100000D02*
X153875000Y-94200000D01*
G75*
G02*
X153825000Y-94250000I-50000J0D01*
G01*
X153050000Y-94250000D01*
G75*
G02*
X153000000Y-94200000I0J50000D01*
G01*
X153000000Y-94100000D01*
G75*
G02*
X153050000Y-94050000I50000J0D01*
G01*
X153825000Y-94050000D01*
G75*
G02*
X153875000Y-94100000I0J-50000D01*
G01*
G37*
G36*
G01*
X153875000Y-94500000D02*
X153875000Y-94600000D01*
G75*
G02*
X153825000Y-94650000I-50000J0D01*
G01*
X153050000Y-94650000D01*
G75*
G02*
X153000000Y-94600000I0J50000D01*
G01*
X153000000Y-94500000D01*
G75*
G02*
X153050000Y-94450000I50000J0D01*
G01*
X153825000Y-94450000D01*
G75*
G02*
X153875000Y-94500000I0J-50000D01*
G01*
G37*
G36*
G01*
X153875000Y-94900000D02*
X153875000Y-95000000D01*
G75*
G02*
X153825000Y-95050000I-50000J0D01*
G01*
X153050000Y-95050000D01*
G75*
G02*
X153000000Y-95000000I0J50000D01*
G01*
X153000000Y-94900000D01*
G75*
G02*
X153050000Y-94850000I50000J0D01*
G01*
X153825000Y-94850000D01*
G75*
G02*
X153875000Y-94900000I0J-50000D01*
G01*
G37*
G36*
G01*
X153875000Y-95300000D02*
X153875000Y-95400000D01*
G75*
G02*
X153825000Y-95450000I-50000J0D01*
G01*
X153050000Y-95450000D01*
G75*
G02*
X153000000Y-95400000I0J50000D01*
G01*
X153000000Y-95300000D01*
G75*
G02*
X153050000Y-95250000I50000J0D01*
G01*
X153825000Y-95250000D01*
G75*
G02*
X153875000Y-95300000I0J-50000D01*
G01*
G37*
G36*
G01*
X152700000Y-95800000D02*
X152700000Y-96575000D01*
G75*
G02*
X152650000Y-96625000I-50000J0D01*
G01*
X152550000Y-96625000D01*
G75*
G02*
X152500000Y-96575000I0J50000D01*
G01*
X152500000Y-95800000D01*
G75*
G02*
X152550000Y-95750000I50000J0D01*
G01*
X152650000Y-95750000D01*
G75*
G02*
X152700000Y-95800000I0J-50000D01*
G01*
G37*
G36*
G01*
X152300000Y-95800000D02*
X152300000Y-96575000D01*
G75*
G02*
X152250000Y-96625000I-50000J0D01*
G01*
X152150000Y-96625000D01*
G75*
G02*
X152100000Y-96575000I0J50000D01*
G01*
X152100000Y-95800000D01*
G75*
G02*
X152150000Y-95750000I50000J0D01*
G01*
X152250000Y-95750000D01*
G75*
G02*
X152300000Y-95800000I0J-50000D01*
G01*
G37*
G36*
G01*
X151900000Y-95800000D02*
X151900000Y-96575000D01*
G75*
G02*
X151850000Y-96625000I-50000J0D01*
G01*
X151750000Y-96625000D01*
G75*
G02*
X151700000Y-96575000I0J50000D01*
G01*
X151700000Y-95800000D01*
G75*
G02*
X151750000Y-95750000I50000J0D01*
G01*
X151850000Y-95750000D01*
G75*
G02*
X151900000Y-95800000I0J-50000D01*
G01*
G37*
G36*
G01*
X151500000Y-95800000D02*
X151500000Y-96575000D01*
G75*
G02*
X151450000Y-96625000I-50000J0D01*
G01*
X151350000Y-96625000D01*
G75*
G02*
X151300000Y-96575000I0J50000D01*
G01*
X151300000Y-95800000D01*
G75*
G02*
X151350000Y-95750000I50000J0D01*
G01*
X151450000Y-95750000D01*
G75*
G02*
X151500000Y-95800000I0J-50000D01*
G01*
G37*
G36*
G01*
X151100000Y-95800000D02*
X151100000Y-96575000D01*
G75*
G02*
X151050000Y-96625000I-50000J0D01*
G01*
X150950000Y-96625000D01*
G75*
G02*
X150900000Y-96575000I0J50000D01*
G01*
X150900000Y-95800000D01*
G75*
G02*
X150950000Y-95750000I50000J0D01*
G01*
X151050000Y-95750000D01*
G75*
G02*
X151100000Y-95800000I0J-50000D01*
G01*
G37*
G36*
G01*
X150700000Y-95800000D02*
X150700000Y-96575000D01*
G75*
G02*
X150650000Y-96625000I-50000J0D01*
G01*
X150550000Y-96625000D01*
G75*
G02*
X150500000Y-96575000I0J50000D01*
G01*
X150500000Y-95800000D01*
G75*
G02*
X150550000Y-95750000I50000J0D01*
G01*
X150650000Y-95750000D01*
G75*
G02*
X150700000Y-95800000I0J-50000D01*
G01*
G37*
G36*
G01*
X150300000Y-95800000D02*
X150300000Y-96575000D01*
G75*
G02*
X150250000Y-96625000I-50000J0D01*
G01*
X150150000Y-96625000D01*
G75*
G02*
X150100000Y-96575000I0J50000D01*
G01*
X150100000Y-95800000D01*
G75*
G02*
X150150000Y-95750000I50000J0D01*
G01*
X150250000Y-95750000D01*
G75*
G02*
X150300000Y-95800000I0J-50000D01*
G01*
G37*
G36*
G01*
X149900000Y-95800000D02*
X149900000Y-96575000D01*
G75*
G02*
X149850000Y-96625000I-50000J0D01*
G01*
X149750000Y-96625000D01*
G75*
G02*
X149700000Y-96575000I0J50000D01*
G01*
X149700000Y-95800000D01*
G75*
G02*
X149750000Y-95750000I50000J0D01*
G01*
X149850000Y-95750000D01*
G75*
G02*
X149900000Y-95800000I0J-50000D01*
G01*
G37*
G36*
G01*
X149500000Y-95800000D02*
X149500000Y-96575000D01*
G75*
G02*
X149450000Y-96625000I-50000J0D01*
G01*
X149350000Y-96625000D01*
G75*
G02*
X149300000Y-96575000I0J50000D01*
G01*
X149300000Y-95800000D01*
G75*
G02*
X149350000Y-95750000I50000J0D01*
G01*
X149450000Y-95750000D01*
G75*
G02*
X149500000Y-95800000I0J-50000D01*
G01*
G37*
G36*
G01*
X149100000Y-95800000D02*
X149100000Y-96575000D01*
G75*
G02*
X149050000Y-96625000I-50000J0D01*
G01*
X148950000Y-96625000D01*
G75*
G02*
X148900000Y-96575000I0J50000D01*
G01*
X148900000Y-95800000D01*
G75*
G02*
X148950000Y-95750000I50000J0D01*
G01*
X149050000Y-95750000D01*
G75*
G02*
X149100000Y-95800000I0J-50000D01*
G01*
G37*
G36*
G01*
X148700000Y-95800000D02*
X148700000Y-96575000D01*
G75*
G02*
X148650000Y-96625000I-50000J0D01*
G01*
X148550000Y-96625000D01*
G75*
G02*
X148500000Y-96575000I0J50000D01*
G01*
X148500000Y-95800000D01*
G75*
G02*
X148550000Y-95750000I50000J0D01*
G01*
X148650000Y-95750000D01*
G75*
G02*
X148700000Y-95800000I0J-50000D01*
G01*
G37*
G36*
G01*
X148300000Y-95800000D02*
X148300000Y-96575000D01*
G75*
G02*
X148250000Y-96625000I-50000J0D01*
G01*
X148150000Y-96625000D01*
G75*
G02*
X148100000Y-96575000I0J50000D01*
G01*
X148100000Y-95800000D01*
G75*
G02*
X148150000Y-95750000I50000J0D01*
G01*
X148250000Y-95750000D01*
G75*
G02*
X148300000Y-95800000I0J-50000D01*
G01*
G37*
G36*
G01*
X147900000Y-95800000D02*
X147900000Y-96575000D01*
G75*
G02*
X147850000Y-96625000I-50000J0D01*
G01*
X147750000Y-96625000D01*
G75*
G02*
X147700000Y-96575000I0J50000D01*
G01*
X147700000Y-95800000D01*
G75*
G02*
X147750000Y-95750000I50000J0D01*
G01*
X147850000Y-95750000D01*
G75*
G02*
X147900000Y-95800000I0J-50000D01*
G01*
G37*
G36*
G01*
X147500000Y-95800000D02*
X147500000Y-96575000D01*
G75*
G02*
X147450000Y-96625000I-50000J0D01*
G01*
X147350000Y-96625000D01*
G75*
G02*
X147300000Y-96575000I0J50000D01*
G01*
X147300000Y-95800000D01*
G75*
G02*
X147350000Y-95750000I50000J0D01*
G01*
X147450000Y-95750000D01*
G75*
G02*
X147500000Y-95800000I0J-50000D01*
G01*
G37*
G36*
G01*
X147000000Y-95300000D02*
X147000000Y-95400000D01*
G75*
G02*
X146950000Y-95450000I-50000J0D01*
G01*
X146175000Y-95450000D01*
G75*
G02*
X146125000Y-95400000I0J50000D01*
G01*
X146125000Y-95300000D01*
G75*
G02*
X146175000Y-95250000I50000J0D01*
G01*
X146950000Y-95250000D01*
G75*
G02*
X147000000Y-95300000I0J-50000D01*
G01*
G37*
G36*
G01*
X147000000Y-94900000D02*
X147000000Y-95000000D01*
G75*
G02*
X146950000Y-95050000I-50000J0D01*
G01*
X146175000Y-95050000D01*
G75*
G02*
X146125000Y-95000000I0J50000D01*
G01*
X146125000Y-94900000D01*
G75*
G02*
X146175000Y-94850000I50000J0D01*
G01*
X146950000Y-94850000D01*
G75*
G02*
X147000000Y-94900000I0J-50000D01*
G01*
G37*
G36*
G01*
X147000000Y-94500000D02*
X147000000Y-94600000D01*
G75*
G02*
X146950000Y-94650000I-50000J0D01*
G01*
X146175000Y-94650000D01*
G75*
G02*
X146125000Y-94600000I0J50000D01*
G01*
X146125000Y-94500000D01*
G75*
G02*
X146175000Y-94450000I50000J0D01*
G01*
X146950000Y-94450000D01*
G75*
G02*
X147000000Y-94500000I0J-50000D01*
G01*
G37*
G36*
G01*
X147000000Y-94100000D02*
X147000000Y-94200000D01*
G75*
G02*
X146950000Y-94250000I-50000J0D01*
G01*
X146175000Y-94250000D01*
G75*
G02*
X146125000Y-94200000I0J50000D01*
G01*
X146125000Y-94100000D01*
G75*
G02*
X146175000Y-94050000I50000J0D01*
G01*
X146950000Y-94050000D01*
G75*
G02*
X147000000Y-94100000I0J-50000D01*
G01*
G37*
G36*
G01*
X147000000Y-93700000D02*
X147000000Y-93800000D01*
G75*
G02*
X146950000Y-93850000I-50000J0D01*
G01*
X146175000Y-93850000D01*
G75*
G02*
X146125000Y-93800000I0J50000D01*
G01*
X146125000Y-93700000D01*
G75*
G02*
X146175000Y-93650000I50000J0D01*
G01*
X146950000Y-93650000D01*
G75*
G02*
X147000000Y-93700000I0J-50000D01*
G01*
G37*
G36*
G01*
X147000000Y-93300000D02*
X147000000Y-93400000D01*
G75*
G02*
X146950000Y-93450000I-50000J0D01*
G01*
X146175000Y-93450000D01*
G75*
G02*
X146125000Y-93400000I0J50000D01*
G01*
X146125000Y-93300000D01*
G75*
G02*
X146175000Y-93250000I50000J0D01*
G01*
X146950000Y-93250000D01*
G75*
G02*
X147000000Y-93300000I0J-50000D01*
G01*
G37*
G36*
G01*
X147000000Y-92900000D02*
X147000000Y-93000000D01*
G75*
G02*
X146950000Y-93050000I-50000J0D01*
G01*
X146175000Y-93050000D01*
G75*
G02*
X146125000Y-93000000I0J50000D01*
G01*
X146125000Y-92900000D01*
G75*
G02*
X146175000Y-92850000I50000J0D01*
G01*
X146950000Y-92850000D01*
G75*
G02*
X147000000Y-92900000I0J-50000D01*
G01*
G37*
G36*
G01*
X147000000Y-92500000D02*
X147000000Y-92600000D01*
G75*
G02*
X146950000Y-92650000I-50000J0D01*
G01*
X146175000Y-92650000D01*
G75*
G02*
X146125000Y-92600000I0J50000D01*
G01*
X146125000Y-92500000D01*
G75*
G02*
X146175000Y-92450000I50000J0D01*
G01*
X146950000Y-92450000D01*
G75*
G02*
X147000000Y-92500000I0J-50000D01*
G01*
G37*
G36*
G01*
X147000000Y-92100000D02*
X147000000Y-92200000D01*
G75*
G02*
X146950000Y-92250000I-50000J0D01*
G01*
X146175000Y-92250000D01*
G75*
G02*
X146125000Y-92200000I0J50000D01*
G01*
X146125000Y-92100000D01*
G75*
G02*
X146175000Y-92050000I50000J0D01*
G01*
X146950000Y-92050000D01*
G75*
G02*
X147000000Y-92100000I0J-50000D01*
G01*
G37*
G36*
G01*
X147000000Y-91700000D02*
X147000000Y-91800000D01*
G75*
G02*
X146950000Y-91850000I-50000J0D01*
G01*
X146175000Y-91850000D01*
G75*
G02*
X146125000Y-91800000I0J50000D01*
G01*
X146125000Y-91700000D01*
G75*
G02*
X146175000Y-91650000I50000J0D01*
G01*
X146950000Y-91650000D01*
G75*
G02*
X147000000Y-91700000I0J-50000D01*
G01*
G37*
G36*
G01*
X147000000Y-91300000D02*
X147000000Y-91400000D01*
G75*
G02*
X146950000Y-91450000I-50000J0D01*
G01*
X146175000Y-91450000D01*
G75*
G02*
X146125000Y-91400000I0J50000D01*
G01*
X146125000Y-91300000D01*
G75*
G02*
X146175000Y-91250000I50000J0D01*
G01*
X146950000Y-91250000D01*
G75*
G02*
X147000000Y-91300000I0J-50000D01*
G01*
G37*
G36*
G01*
X147000000Y-90900000D02*
X147000000Y-91000000D01*
G75*
G02*
X146950000Y-91050000I-50000J0D01*
G01*
X146175000Y-91050000D01*
G75*
G02*
X146125000Y-91000000I0J50000D01*
G01*
X146125000Y-90900000D01*
G75*
G02*
X146175000Y-90850000I50000J0D01*
G01*
X146950000Y-90850000D01*
G75*
G02*
X147000000Y-90900000I0J-50000D01*
G01*
G37*
G36*
G01*
X147000000Y-90500000D02*
X147000000Y-90600000D01*
G75*
G02*
X146950000Y-90650000I-50000J0D01*
G01*
X146175000Y-90650000D01*
G75*
G02*
X146125000Y-90600000I0J50000D01*
G01*
X146125000Y-90500000D01*
G75*
G02*
X146175000Y-90450000I50000J0D01*
G01*
X146950000Y-90450000D01*
G75*
G02*
X147000000Y-90500000I0J-50000D01*
G01*
G37*
G36*
G01*
X147000000Y-90100000D02*
X147000000Y-90200000D01*
G75*
G02*
X146950000Y-90250000I-50000J0D01*
G01*
X146175000Y-90250000D01*
G75*
G02*
X146125000Y-90200000I0J50000D01*
G01*
X146125000Y-90100000D01*
G75*
G02*
X146175000Y-90050000I50000J0D01*
G01*
X146950000Y-90050000D01*
G75*
G02*
X147000000Y-90100000I0J-50000D01*
G01*
G37*
G36*
G01*
X147500000Y-88925000D02*
X147500000Y-89700000D01*
G75*
G02*
X147450000Y-89750000I-50000J0D01*
G01*
X147350000Y-89750000D01*
G75*
G02*
X147300000Y-89700000I0J50000D01*
G01*
X147300000Y-88925000D01*
G75*
G02*
X147350000Y-88875000I50000J0D01*
G01*
X147450000Y-88875000D01*
G75*
G02*
X147500000Y-88925000I0J-50000D01*
G01*
G37*
G36*
G01*
X147900000Y-88925000D02*
X147900000Y-89700000D01*
G75*
G02*
X147850000Y-89750000I-50000J0D01*
G01*
X147750000Y-89750000D01*
G75*
G02*
X147700000Y-89700000I0J50000D01*
G01*
X147700000Y-88925000D01*
G75*
G02*
X147750000Y-88875000I50000J0D01*
G01*
X147850000Y-88875000D01*
G75*
G02*
X147900000Y-88925000I0J-50000D01*
G01*
G37*
G36*
G01*
X148300000Y-88925000D02*
X148300000Y-89700000D01*
G75*
G02*
X148250000Y-89750000I-50000J0D01*
G01*
X148150000Y-89750000D01*
G75*
G02*
X148100000Y-89700000I0J50000D01*
G01*
X148100000Y-88925000D01*
G75*
G02*
X148150000Y-88875000I50000J0D01*
G01*
X148250000Y-88875000D01*
G75*
G02*
X148300000Y-88925000I0J-50000D01*
G01*
G37*
G36*
G01*
X148700000Y-88925000D02*
X148700000Y-89700000D01*
G75*
G02*
X148650000Y-89750000I-50000J0D01*
G01*
X148550000Y-89750000D01*
G75*
G02*
X148500000Y-89700000I0J50000D01*
G01*
X148500000Y-88925000D01*
G75*
G02*
X148550000Y-88875000I50000J0D01*
G01*
X148650000Y-88875000D01*
G75*
G02*
X148700000Y-88925000I0J-50000D01*
G01*
G37*
G36*
G01*
X149100000Y-88925000D02*
X149100000Y-89700000D01*
G75*
G02*
X149050000Y-89750000I-50000J0D01*
G01*
X148950000Y-89750000D01*
G75*
G02*
X148900000Y-89700000I0J50000D01*
G01*
X148900000Y-88925000D01*
G75*
G02*
X148950000Y-88875000I50000J0D01*
G01*
X149050000Y-88875000D01*
G75*
G02*
X149100000Y-88925000I0J-50000D01*
G01*
G37*
G36*
G01*
X149500000Y-88925000D02*
X149500000Y-89700000D01*
G75*
G02*
X149450000Y-89750000I-50000J0D01*
G01*
X149350000Y-89750000D01*
G75*
G02*
X149300000Y-89700000I0J50000D01*
G01*
X149300000Y-88925000D01*
G75*
G02*
X149350000Y-88875000I50000J0D01*
G01*
X149450000Y-88875000D01*
G75*
G02*
X149500000Y-88925000I0J-50000D01*
G01*
G37*
G36*
G01*
X149900000Y-88925000D02*
X149900000Y-89700000D01*
G75*
G02*
X149850000Y-89750000I-50000J0D01*
G01*
X149750000Y-89750000D01*
G75*
G02*
X149700000Y-89700000I0J50000D01*
G01*
X149700000Y-88925000D01*
G75*
G02*
X149750000Y-88875000I50000J0D01*
G01*
X149850000Y-88875000D01*
G75*
G02*
X149900000Y-88925000I0J-50000D01*
G01*
G37*
G36*
G01*
X150300000Y-88925000D02*
X150300000Y-89700000D01*
G75*
G02*
X150250000Y-89750000I-50000J0D01*
G01*
X150150000Y-89750000D01*
G75*
G02*
X150100000Y-89700000I0J50000D01*
G01*
X150100000Y-88925000D01*
G75*
G02*
X150150000Y-88875000I50000J0D01*
G01*
X150250000Y-88875000D01*
G75*
G02*
X150300000Y-88925000I0J-50000D01*
G01*
G37*
G36*
G01*
X150700000Y-88925000D02*
X150700000Y-89700000D01*
G75*
G02*
X150650000Y-89750000I-50000J0D01*
G01*
X150550000Y-89750000D01*
G75*
G02*
X150500000Y-89700000I0J50000D01*
G01*
X150500000Y-88925000D01*
G75*
G02*
X150550000Y-88875000I50000J0D01*
G01*
X150650000Y-88875000D01*
G75*
G02*
X150700000Y-88925000I0J-50000D01*
G01*
G37*
G36*
G01*
X151100000Y-88925000D02*
X151100000Y-89700000D01*
G75*
G02*
X151050000Y-89750000I-50000J0D01*
G01*
X150950000Y-89750000D01*
G75*
G02*
X150900000Y-89700000I0J50000D01*
G01*
X150900000Y-88925000D01*
G75*
G02*
X150950000Y-88875000I50000J0D01*
G01*
X151050000Y-88875000D01*
G75*
G02*
X151100000Y-88925000I0J-50000D01*
G01*
G37*
G36*
G01*
X151500000Y-88925000D02*
X151500000Y-89700000D01*
G75*
G02*
X151450000Y-89750000I-50000J0D01*
G01*
X151350000Y-89750000D01*
G75*
G02*
X151300000Y-89700000I0J50000D01*
G01*
X151300000Y-88925000D01*
G75*
G02*
X151350000Y-88875000I50000J0D01*
G01*
X151450000Y-88875000D01*
G75*
G02*
X151500000Y-88925000I0J-50000D01*
G01*
G37*
G36*
G01*
X151900000Y-88925000D02*
X151900000Y-89700000D01*
G75*
G02*
X151850000Y-89750000I-50000J0D01*
G01*
X151750000Y-89750000D01*
G75*
G02*
X151700000Y-89700000I0J50000D01*
G01*
X151700000Y-88925000D01*
G75*
G02*
X151750000Y-88875000I50000J0D01*
G01*
X151850000Y-88875000D01*
G75*
G02*
X151900000Y-88925000I0J-50000D01*
G01*
G37*
G36*
G01*
X152300000Y-88925000D02*
X152300000Y-89700000D01*
G75*
G02*
X152250000Y-89750000I-50000J0D01*
G01*
X152150000Y-89750000D01*
G75*
G02*
X152100000Y-89700000I0J50000D01*
G01*
X152100000Y-88925000D01*
G75*
G02*
X152150000Y-88875000I50000J0D01*
G01*
X152250000Y-88875000D01*
G75*
G02*
X152300000Y-88925000I0J-50000D01*
G01*
G37*
G36*
G01*
X152700000Y-88925000D02*
X152700000Y-89700000D01*
G75*
G02*
X152650000Y-89750000I-50000J0D01*
G01*
X152550000Y-89750000D01*
G75*
G02*
X152500000Y-89700000I0J50000D01*
G01*
X152500000Y-88925000D01*
G75*
G02*
X152550000Y-88875000I50000J0D01*
G01*
X152650000Y-88875000D01*
G75*
G02*
X152700000Y-88925000I0J-50000D01*
G01*
G37*
%TD*%
D11*
%TO.C,Y1*%
X151200000Y-104550000D03*
X149000000Y-104550000D03*
X149000000Y-106250000D03*
X151200000Y-106250000D03*
%TD*%
D12*
%TO.C,U47*%
G36*
X165442674Y-73724304D02*
G01*
X165182202Y-72247092D01*
X167151818Y-71899796D01*
X167412290Y-73377008D01*
X165442674Y-73724304D01*
G37*
G36*
X164643893Y-69194188D02*
G01*
X164383421Y-67716976D01*
X166353037Y-67369680D01*
X166613509Y-68846892D01*
X164643893Y-69194188D01*
G37*
G36*
X165043284Y-71459246D02*
G01*
X164782812Y-69982034D01*
X166752428Y-69634738D01*
X167012900Y-71111950D01*
X165043284Y-71459246D01*
G37*
G36*
X171447268Y-71497791D02*
G01*
X170787405Y-67755521D01*
X172757020Y-67408225D01*
X173416883Y-71150495D01*
X171447268Y-71497791D01*
G37*
%TD*%
%TO.C,U45*%
G36*
G01*
X157385691Y-80962436D02*
X157437785Y-81257878D01*
G75*
G02*
X157316111Y-81431646I-147721J-26047D01*
G01*
X156035861Y-81657388D01*
G75*
G02*
X155862093Y-81535714I-26047J147721D01*
G01*
X155809999Y-81240272D01*
G75*
G02*
X155931673Y-81066504I147721J26047D01*
G01*
X157211923Y-80840762D01*
G75*
G02*
X157385691Y-80962436I26047J-147721D01*
G01*
G37*
G36*
G01*
X157606224Y-82213142D02*
X157658318Y-82508584D01*
G75*
G02*
X157536644Y-82682352I-147721J-26047D01*
G01*
X156256394Y-82908094D01*
G75*
G02*
X156082626Y-82786420I-26047J147721D01*
G01*
X156030532Y-82490978D01*
G75*
G02*
X156152206Y-82317210I147721J26047D01*
G01*
X157432456Y-82091468D01*
G75*
G02*
X157606224Y-82213142I26047J-147721D01*
G01*
G37*
G36*
G01*
X157826758Y-83463847D02*
X157878852Y-83759289D01*
G75*
G02*
X157757178Y-83933057I-147721J-26047D01*
G01*
X156476928Y-84158799D01*
G75*
G02*
X156303160Y-84037125I-26047J147721D01*
G01*
X156251066Y-83741683D01*
G75*
G02*
X156372740Y-83567915I147721J26047D01*
G01*
X157652990Y-83342173D01*
G75*
G02*
X157826758Y-83463847I26047J-147721D01*
G01*
G37*
G36*
G01*
X158047291Y-84714553D02*
X158099385Y-85009995D01*
G75*
G02*
X157977711Y-85183763I-147721J-26047D01*
G01*
X156697461Y-85409505D01*
G75*
G02*
X156523693Y-85287831I-26047J147721D01*
G01*
X156471599Y-84992389D01*
G75*
G02*
X156593273Y-84818621I147721J26047D01*
G01*
X157873523Y-84592879D01*
G75*
G02*
X158047291Y-84714553I26047J-147721D01*
G01*
G37*
G36*
G01*
X165137907Y-83464286D02*
X165190001Y-83759728D01*
G75*
G02*
X165068327Y-83933496I-147721J-26047D01*
G01*
X163788077Y-84159238D01*
G75*
G02*
X163614309Y-84037564I-26047J147721D01*
G01*
X163562215Y-83742122D01*
G75*
G02*
X163683889Y-83568354I147721J26047D01*
G01*
X164964139Y-83342612D01*
G75*
G02*
X165137907Y-83464286I26047J-147721D01*
G01*
G37*
G36*
G01*
X164917374Y-82213580D02*
X164969468Y-82509022D01*
G75*
G02*
X164847794Y-82682790I-147721J-26047D01*
G01*
X163567544Y-82908532D01*
G75*
G02*
X163393776Y-82786858I-26047J147721D01*
G01*
X163341682Y-82491416D01*
G75*
G02*
X163463356Y-82317648I147721J26047D01*
G01*
X164743606Y-82091906D01*
G75*
G02*
X164917374Y-82213580I26047J-147721D01*
G01*
G37*
G36*
G01*
X164696840Y-80962875D02*
X164748934Y-81258317D01*
G75*
G02*
X164627260Y-81432085I-147721J-26047D01*
G01*
X163347010Y-81657827D01*
G75*
G02*
X163173242Y-81536153I-26047J147721D01*
G01*
X163121148Y-81240711D01*
G75*
G02*
X163242822Y-81066943I147721J26047D01*
G01*
X164523072Y-80841201D01*
G75*
G02*
X164696840Y-80962875I26047J-147721D01*
G01*
G37*
G36*
G01*
X164476307Y-79712169D02*
X164528401Y-80007611D01*
G75*
G02*
X164406727Y-80181379I-147721J-26047D01*
G01*
X163126477Y-80407121D01*
G75*
G02*
X162952709Y-80285447I-26047J147721D01*
G01*
X162900615Y-79990005D01*
G75*
G02*
X163022289Y-79816237I147721J26047D01*
G01*
X164302539Y-79590495D01*
G75*
G02*
X164476307Y-79712169I26047J-147721D01*
G01*
G37*
%TD*%
%TO.C,SW1*%
G36*
X166632713Y-107882048D02*
G01*
X165844867Y-108020966D01*
X165671219Y-107036158D01*
X166459065Y-106897240D01*
X166632713Y-107882048D01*
G37*
G36*
X165365081Y-100692951D02*
G01*
X164577235Y-100831869D01*
X164403587Y-99847061D01*
X165191433Y-99708143D01*
X165365081Y-100692951D01*
G37*
G36*
X163188656Y-101076714D02*
G01*
X162400810Y-101215632D01*
X162227162Y-100230824D01*
X163015008Y-100091906D01*
X163188656Y-101076714D01*
G37*
G36*
X164456288Y-108265810D02*
G01*
X163668442Y-108404728D01*
X163494794Y-107419920D01*
X164282640Y-107281002D01*
X164456288Y-108265810D01*
G37*
G36*
X166566950Y-101750313D02*
G01*
X165089738Y-102010785D01*
X164968184Y-101321419D01*
X166445396Y-101060947D01*
X166566950Y-101750313D01*
G37*
G36*
X166827422Y-103227524D02*
G01*
X165350210Y-103487996D01*
X165228656Y-102798630D01*
X166705868Y-102538158D01*
X166827422Y-103227524D01*
G37*
G36*
X167348366Y-106181948D02*
G01*
X165871154Y-106442420D01*
X165749600Y-105753054D01*
X167226812Y-105492582D01*
X167348366Y-106181948D01*
G37*
%TD*%
%TO.C,R8*%
G36*
G01*
X149600000Y-141075000D02*
X149600000Y-141625000D01*
G75*
G02*
X149400000Y-141825000I-200000J0D01*
G01*
X149000000Y-141825000D01*
G75*
G02*
X148800000Y-141625000I0J200000D01*
G01*
X148800000Y-141075000D01*
G75*
G02*
X149000000Y-140875000I200000J0D01*
G01*
X149400000Y-140875000D01*
G75*
G02*
X149600000Y-141075000I0J-200000D01*
G01*
G37*
G36*
G01*
X151250000Y-141075000D02*
X151250000Y-141625000D01*
G75*
G02*
X151050000Y-141825000I-200000J0D01*
G01*
X150650000Y-141825000D01*
G75*
G02*
X150450000Y-141625000I0J200000D01*
G01*
X150450000Y-141075000D01*
G75*
G02*
X150650000Y-140875000I200000J0D01*
G01*
X151050000Y-140875000D01*
G75*
G02*
X151250000Y-141075000I0J-200000D01*
G01*
G37*
%TD*%
%TO.C,R7*%
G36*
G01*
X151325000Y-101225000D02*
X151875000Y-101225000D01*
G75*
G02*
X152075000Y-101425000I0J-200000D01*
G01*
X152075000Y-101825000D01*
G75*
G02*
X151875000Y-102025000I-200000J0D01*
G01*
X151325000Y-102025000D01*
G75*
G02*
X151125000Y-101825000I0J200000D01*
G01*
X151125000Y-101425000D01*
G75*
G02*
X151325000Y-101225000I200000J0D01*
G01*
G37*
G36*
G01*
X151325000Y-99575000D02*
X151875000Y-99575000D01*
G75*
G02*
X152075000Y-99775000I0J-200000D01*
G01*
X152075000Y-100175000D01*
G75*
G02*
X151875000Y-100375000I-200000J0D01*
G01*
X151325000Y-100375000D01*
G75*
G02*
X151125000Y-100175000I0J200000D01*
G01*
X151125000Y-99775000D01*
G75*
G02*
X151325000Y-99575000I200000J0D01*
G01*
G37*
%TD*%
%TO.C,R6*%
G36*
G01*
X147725000Y-83675000D02*
X148275000Y-83675000D01*
G75*
G02*
X148475000Y-83875000I0J-200000D01*
G01*
X148475000Y-84275000D01*
G75*
G02*
X148275000Y-84475000I-200000J0D01*
G01*
X147725000Y-84475000D01*
G75*
G02*
X147525000Y-84275000I0J200000D01*
G01*
X147525000Y-83875000D01*
G75*
G02*
X147725000Y-83675000I200000J0D01*
G01*
G37*
G36*
G01*
X147725000Y-82025000D02*
X148275000Y-82025000D01*
G75*
G02*
X148475000Y-82225000I0J-200000D01*
G01*
X148475000Y-82625000D01*
G75*
G02*
X148275000Y-82825000I-200000J0D01*
G01*
X147725000Y-82825000D01*
G75*
G02*
X147525000Y-82625000I0J200000D01*
G01*
X147525000Y-82225000D01*
G75*
G02*
X147725000Y-82025000I200000J0D01*
G01*
G37*
%TD*%
%TO.C,R5*%
G36*
G01*
X149475000Y-83675000D02*
X150025000Y-83675000D01*
G75*
G02*
X150225000Y-83875000I0J-200000D01*
G01*
X150225000Y-84275000D01*
G75*
G02*
X150025000Y-84475000I-200000J0D01*
G01*
X149475000Y-84475000D01*
G75*
G02*
X149275000Y-84275000I0J200000D01*
G01*
X149275000Y-83875000D01*
G75*
G02*
X149475000Y-83675000I200000J0D01*
G01*
G37*
G36*
G01*
X149475000Y-82025000D02*
X150025000Y-82025000D01*
G75*
G02*
X150225000Y-82225000I0J-200000D01*
G01*
X150225000Y-82625000D01*
G75*
G02*
X150025000Y-82825000I-200000J0D01*
G01*
X149475000Y-82825000D01*
G75*
G02*
X149275000Y-82625000I0J200000D01*
G01*
X149275000Y-82225000D01*
G75*
G02*
X149475000Y-82025000I200000J0D01*
G01*
G37*
%TD*%
%TO.C,R4*%
G36*
G01*
X163216296Y-77447022D02*
X163120789Y-76905378D01*
G75*
G02*
X163283021Y-76673686I196962J34730D01*
G01*
X163676944Y-76604226D01*
G75*
G02*
X163908636Y-76766458I34730J-196962D01*
G01*
X164004143Y-77308102D01*
G75*
G02*
X163841911Y-77539794I-196962J-34730D01*
G01*
X163447988Y-77609254D01*
G75*
G02*
X163216296Y-77447022I-34730J196962D01*
G01*
G37*
G36*
G01*
X161591364Y-77733542D02*
X161495857Y-77191898D01*
G75*
G02*
X161658089Y-76960206I196962J34730D01*
G01*
X162052012Y-76890746D01*
G75*
G02*
X162283704Y-77052978I34730J-196962D01*
G01*
X162379211Y-77594622D01*
G75*
G02*
X162216979Y-77826314I-196962J-34730D01*
G01*
X161823056Y-77895774D01*
G75*
G02*
X161591364Y-77733542I-34730J196962D01*
G01*
G37*
%TD*%
%TO.C,R3*%
G36*
G01*
X159033704Y-77552978D02*
X159129211Y-78094622D01*
G75*
G02*
X158966979Y-78326314I-196962J-34730D01*
G01*
X158573056Y-78395774D01*
G75*
G02*
X158341364Y-78233542I-34730J196962D01*
G01*
X158245857Y-77691898D01*
G75*
G02*
X158408089Y-77460206I196962J34730D01*
G01*
X158802012Y-77390746D01*
G75*
G02*
X159033704Y-77552978I34730J-196962D01*
G01*
G37*
G36*
G01*
X160658636Y-77266458D02*
X160754143Y-77808102D01*
G75*
G02*
X160591911Y-78039794I-196962J-34730D01*
G01*
X160197988Y-78109254D01*
G75*
G02*
X159966296Y-77947022I-34730J196962D01*
G01*
X159870789Y-77405378D01*
G75*
G02*
X160033021Y-77173686I196962J34730D01*
G01*
X160426944Y-77104226D01*
G75*
G02*
X160658636Y-77266458I34730J-196962D01*
G01*
G37*
%TD*%
%TO.C,R2*%
G36*
G01*
X147975000Y-64100000D02*
X148525000Y-64100000D01*
G75*
G02*
X148725000Y-64300000I0J-200000D01*
G01*
X148725000Y-64700000D01*
G75*
G02*
X148525000Y-64900000I-200000J0D01*
G01*
X147975000Y-64900000D01*
G75*
G02*
X147775000Y-64700000I0J200000D01*
G01*
X147775000Y-64300000D01*
G75*
G02*
X147975000Y-64100000I200000J0D01*
G01*
G37*
G36*
G01*
X147975000Y-62450000D02*
X148525000Y-62450000D01*
G75*
G02*
X148725000Y-62650000I0J-200000D01*
G01*
X148725000Y-63050000D01*
G75*
G02*
X148525000Y-63250000I-200000J0D01*
G01*
X147975000Y-63250000D01*
G75*
G02*
X147775000Y-63050000I0J200000D01*
G01*
X147775000Y-62650000D01*
G75*
G02*
X147975000Y-62450000I200000J0D01*
G01*
G37*
%TD*%
%TO.C,R1*%
G36*
G01*
X150975000Y-64100000D02*
X151525000Y-64100000D01*
G75*
G02*
X151725000Y-64300000I0J-200000D01*
G01*
X151725000Y-64700000D01*
G75*
G02*
X151525000Y-64900000I-200000J0D01*
G01*
X150975000Y-64900000D01*
G75*
G02*
X150775000Y-64700000I0J200000D01*
G01*
X150775000Y-64300000D01*
G75*
G02*
X150975000Y-64100000I200000J0D01*
G01*
G37*
G36*
G01*
X150975000Y-62450000D02*
X151525000Y-62450000D01*
G75*
G02*
X151725000Y-62650000I0J-200000D01*
G01*
X151725000Y-63050000D01*
G75*
G02*
X151525000Y-63250000I-200000J0D01*
G01*
X150975000Y-63250000D01*
G75*
G02*
X150775000Y-63050000I0J200000D01*
G01*
X150775000Y-62650000D01*
G75*
G02*
X150975000Y-62450000I200000J0D01*
G01*
G37*
%TD*%
%TO.C,D45*%
G36*
G01*
X150362000Y-143456250D02*
X150362000Y-142943750D01*
G75*
G02*
X150580750Y-142725000I218750J0D01*
G01*
X151018250Y-142725000D01*
G75*
G02*
X151237000Y-142943750I0J-218750D01*
G01*
X151237000Y-143456250D01*
G75*
G02*
X151018250Y-143675000I-218750J0D01*
G01*
X150580750Y-143675000D01*
G75*
G02*
X150362000Y-143456250I0J218750D01*
G01*
G37*
G36*
G01*
X148787000Y-143456250D02*
X148787000Y-142943750D01*
G75*
G02*
X149005750Y-142725000I218750J0D01*
G01*
X149443250Y-142725000D01*
G75*
G02*
X149662000Y-142943750I0J-218750D01*
G01*
X149662000Y-143456250D01*
G75*
G02*
X149443250Y-143675000I-218750J0D01*
G01*
X149005750Y-143675000D01*
G75*
G02*
X148787000Y-143456250I0J218750D01*
G01*
G37*
%TD*%
%TO.C,C16*%
G36*
G01*
X146750000Y-105625000D02*
X147250000Y-105625000D01*
G75*
G02*
X147475000Y-105850000I0J-225000D01*
G01*
X147475000Y-106300000D01*
G75*
G02*
X147250000Y-106525000I-225000J0D01*
G01*
X146750000Y-106525000D01*
G75*
G02*
X146525000Y-106300000I0J225000D01*
G01*
X146525000Y-105850000D01*
G75*
G02*
X146750000Y-105625000I225000J0D01*
G01*
G37*
G36*
G01*
X146750000Y-104075000D02*
X147250000Y-104075000D01*
G75*
G02*
X147475000Y-104300000I0J-225000D01*
G01*
X147475000Y-104750000D01*
G75*
G02*
X147250000Y-104975000I-225000J0D01*
G01*
X146750000Y-104975000D01*
G75*
G02*
X146525000Y-104750000I0J225000D01*
G01*
X146525000Y-104300000D01*
G75*
G02*
X146750000Y-104075000I225000J0D01*
G01*
G37*
%TD*%
%TO.C,C15*%
G36*
G01*
X169386526Y-74810233D02*
X169473350Y-75302637D01*
G75*
G02*
X169290839Y-75563290I-221582J-39071D01*
G01*
X168847675Y-75641432D01*
G75*
G02*
X168587022Y-75458921I-39071J221582D01*
G01*
X168500198Y-74966517D01*
G75*
G02*
X168682709Y-74705864I221582J39071D01*
G01*
X169125873Y-74627722D01*
G75*
G02*
X169386526Y-74810233I39071J-221582D01*
G01*
G37*
G36*
G01*
X170912978Y-74541079D02*
X170999802Y-75033483D01*
G75*
G02*
X170817291Y-75294136I-221582J-39071D01*
G01*
X170374127Y-75372278D01*
G75*
G02*
X170113474Y-75189767I-39071J221582D01*
G01*
X170026650Y-74697363D01*
G75*
G02*
X170209161Y-74436710I221582J39071D01*
G01*
X170652325Y-74358568D01*
G75*
G02*
X170912978Y-74541079I39071J-221582D01*
G01*
G37*
%TD*%
%TO.C,C14*%
G36*
G01*
X168113474Y-65189767D02*
X168026650Y-64697363D01*
G75*
G02*
X168209161Y-64436710I221582J39071D01*
G01*
X168652325Y-64358568D01*
G75*
G02*
X168912978Y-64541079I39071J-221582D01*
G01*
X168999802Y-65033483D01*
G75*
G02*
X168817291Y-65294136I-221582J-39071D01*
G01*
X168374127Y-65372278D01*
G75*
G02*
X168113474Y-65189767I-39071J221582D01*
G01*
G37*
G36*
G01*
X166587022Y-65458921D02*
X166500198Y-64966517D01*
G75*
G02*
X166682709Y-64705864I221582J39071D01*
G01*
X167125873Y-64627722D01*
G75*
G02*
X167386526Y-64810233I39071J-221582D01*
G01*
X167473350Y-65302637D01*
G75*
G02*
X167290839Y-65563290I-221582J-39071D01*
G01*
X166847675Y-65641432D01*
G75*
G02*
X166587022Y-65458921I-39071J221582D01*
G01*
G37*
%TD*%
%TO.C,C13*%
G36*
G01*
X153550000Y-104975000D02*
X153050000Y-104975000D01*
G75*
G02*
X152825000Y-104750000I0J225000D01*
G01*
X152825000Y-104300000D01*
G75*
G02*
X153050000Y-104075000I225000J0D01*
G01*
X153550000Y-104075000D01*
G75*
G02*
X153775000Y-104300000I0J-225000D01*
G01*
X153775000Y-104750000D01*
G75*
G02*
X153550000Y-104975000I-225000J0D01*
G01*
G37*
G36*
G01*
X153550000Y-106525000D02*
X153050000Y-106525000D01*
G75*
G02*
X152825000Y-106300000I0J225000D01*
G01*
X152825000Y-105850000D01*
G75*
G02*
X153050000Y-105625000I225000J0D01*
G01*
X153550000Y-105625000D01*
G75*
G02*
X153775000Y-105850000I0J-225000D01*
G01*
X153775000Y-106300000D01*
G75*
G02*
X153550000Y-106525000I-225000J0D01*
G01*
G37*
%TD*%
%TO.C,C12*%
G36*
G01*
X144750000Y-82925000D02*
X144250000Y-82925000D01*
G75*
G02*
X144025000Y-82700000I0J225000D01*
G01*
X144025000Y-82250000D01*
G75*
G02*
X144250000Y-82025000I225000J0D01*
G01*
X144750000Y-82025000D01*
G75*
G02*
X144975000Y-82250000I0J-225000D01*
G01*
X144975000Y-82700000D01*
G75*
G02*
X144750000Y-82925000I-225000J0D01*
G01*
G37*
G36*
G01*
X144750000Y-84475000D02*
X144250000Y-84475000D01*
G75*
G02*
X144025000Y-84250000I0J225000D01*
G01*
X144025000Y-83800000D01*
G75*
G02*
X144250000Y-83575000I225000J0D01*
G01*
X144750000Y-83575000D01*
G75*
G02*
X144975000Y-83800000I0J-225000D01*
G01*
X144975000Y-84250000D01*
G75*
G02*
X144750000Y-84475000I-225000J0D01*
G01*
G37*
%TD*%
%TO.C,C11*%
G36*
G01*
X146500000Y-82900000D02*
X146000000Y-82900000D01*
G75*
G02*
X145775000Y-82675000I0J225000D01*
G01*
X145775000Y-82225000D01*
G75*
G02*
X146000000Y-82000000I225000J0D01*
G01*
X146500000Y-82000000D01*
G75*
G02*
X146725000Y-82225000I0J-225000D01*
G01*
X146725000Y-82675000D01*
G75*
G02*
X146500000Y-82900000I-225000J0D01*
G01*
G37*
G36*
G01*
X146500000Y-84450000D02*
X146000000Y-84450000D01*
G75*
G02*
X145775000Y-84225000I0J225000D01*
G01*
X145775000Y-83775000D01*
G75*
G02*
X146000000Y-83550000I225000J0D01*
G01*
X146500000Y-83550000D01*
G75*
G02*
X146725000Y-83775000I0J-225000D01*
G01*
X146725000Y-84225000D01*
G75*
G02*
X146500000Y-84450000I-225000J0D01*
G01*
G37*
%TD*%
%TO.C,C10*%
G36*
G01*
X159325000Y-89450000D02*
X159325000Y-88950000D01*
G75*
G02*
X159550000Y-88725000I225000J0D01*
G01*
X160000000Y-88725000D01*
G75*
G02*
X160225000Y-88950000I0J-225000D01*
G01*
X160225000Y-89450000D01*
G75*
G02*
X160000000Y-89675000I-225000J0D01*
G01*
X159550000Y-89675000D01*
G75*
G02*
X159325000Y-89450000I0J225000D01*
G01*
G37*
G36*
G01*
X157775000Y-89450000D02*
X157775000Y-88950000D01*
G75*
G02*
X158000000Y-88725000I225000J0D01*
G01*
X158450000Y-88725000D01*
G75*
G02*
X158675000Y-88950000I0J-225000D01*
G01*
X158675000Y-89450000D01*
G75*
G02*
X158450000Y-89675000I-225000J0D01*
G01*
X158000000Y-89675000D01*
G75*
G02*
X157775000Y-89450000I0J225000D01*
G01*
G37*
%TD*%
%TO.C,C9*%
G36*
G01*
X155886526Y-78144833D02*
X155973350Y-78637237D01*
G75*
G02*
X155790839Y-78897890I-221582J-39071D01*
G01*
X155347675Y-78976032D01*
G75*
G02*
X155087022Y-78793521I-39071J221582D01*
G01*
X155000198Y-78301117D01*
G75*
G02*
X155182709Y-78040464I221582J39071D01*
G01*
X155625873Y-77962322D01*
G75*
G02*
X155886526Y-78144833I39071J-221582D01*
G01*
G37*
G36*
G01*
X157412978Y-77875679D02*
X157499802Y-78368083D01*
G75*
G02*
X157317291Y-78628736I-221582J-39071D01*
G01*
X156874127Y-78706878D01*
G75*
G02*
X156613474Y-78524367I-39071J221582D01*
G01*
X156526650Y-78031963D01*
G75*
G02*
X156709161Y-77771310I221582J39071D01*
G01*
X157152325Y-77693168D01*
G75*
G02*
X157412978Y-77875679I39071J-221582D01*
G01*
G37*
%TD*%
%TO.C,C8*%
G36*
G01*
X151750000Y-82900000D02*
X151250000Y-82900000D01*
G75*
G02*
X151025000Y-82675000I0J225000D01*
G01*
X151025000Y-82225000D01*
G75*
G02*
X151250000Y-82000000I225000J0D01*
G01*
X151750000Y-82000000D01*
G75*
G02*
X151975000Y-82225000I0J-225000D01*
G01*
X151975000Y-82675000D01*
G75*
G02*
X151750000Y-82900000I-225000J0D01*
G01*
G37*
G36*
G01*
X151750000Y-84450000D02*
X151250000Y-84450000D01*
G75*
G02*
X151025000Y-84225000I0J225000D01*
G01*
X151025000Y-83775000D01*
G75*
G02*
X151250000Y-83550000I225000J0D01*
G01*
X151750000Y-83550000D01*
G75*
G02*
X151975000Y-83775000I0J-225000D01*
G01*
X151975000Y-84225000D01*
G75*
G02*
X151750000Y-84450000I-225000J0D01*
G01*
G37*
%TD*%
%TO.C,C7*%
G36*
G01*
X149750000Y-101150000D02*
X150250000Y-101150000D01*
G75*
G02*
X150475000Y-101375000I0J-225000D01*
G01*
X150475000Y-101825000D01*
G75*
G02*
X150250000Y-102050000I-225000J0D01*
G01*
X149750000Y-102050000D01*
G75*
G02*
X149525000Y-101825000I0J225000D01*
G01*
X149525000Y-101375000D01*
G75*
G02*
X149750000Y-101150000I225000J0D01*
G01*
G37*
G36*
G01*
X149750000Y-99600000D02*
X150250000Y-99600000D01*
G75*
G02*
X150475000Y-99825000I0J-225000D01*
G01*
X150475000Y-100275000D01*
G75*
G02*
X150250000Y-100500000I-225000J0D01*
G01*
X149750000Y-100500000D01*
G75*
G02*
X149525000Y-100275000I0J225000D01*
G01*
X149525000Y-99825000D01*
G75*
G02*
X149750000Y-99600000I225000J0D01*
G01*
G37*
%TD*%
%TO.C,C6*%
G36*
G01*
X140425000Y-87000000D02*
X140425000Y-87500000D01*
G75*
G02*
X140200000Y-87725000I-225000J0D01*
G01*
X139750000Y-87725000D01*
G75*
G02*
X139525000Y-87500000I0J225000D01*
G01*
X139525000Y-87000000D01*
G75*
G02*
X139750000Y-86775000I225000J0D01*
G01*
X140200000Y-86775000D01*
G75*
G02*
X140425000Y-87000000I0J-225000D01*
G01*
G37*
G36*
G01*
X141975000Y-87000000D02*
X141975000Y-87500000D01*
G75*
G02*
X141750000Y-87725000I-225000J0D01*
G01*
X141300000Y-87725000D01*
G75*
G02*
X141075000Y-87500000I0J225000D01*
G01*
X141075000Y-87000000D01*
G75*
G02*
X141300000Y-86775000I225000J0D01*
G01*
X141750000Y-86775000D01*
G75*
G02*
X141975000Y-87000000I0J-225000D01*
G01*
G37*
%TD*%
%TO.C,C5*%
G36*
G01*
X140400000Y-93550000D02*
X140400000Y-94050000D01*
G75*
G02*
X140175000Y-94275000I-225000J0D01*
G01*
X139725000Y-94275000D01*
G75*
G02*
X139500000Y-94050000I0J225000D01*
G01*
X139500000Y-93550000D01*
G75*
G02*
X139725000Y-93325000I225000J0D01*
G01*
X140175000Y-93325000D01*
G75*
G02*
X140400000Y-93550000I0J-225000D01*
G01*
G37*
G36*
G01*
X141950000Y-93550000D02*
X141950000Y-94050000D01*
G75*
G02*
X141725000Y-94275000I-225000J0D01*
G01*
X141275000Y-94275000D01*
G75*
G02*
X141050000Y-94050000I0J225000D01*
G01*
X141050000Y-93550000D01*
G75*
G02*
X141275000Y-93325000I225000J0D01*
G01*
X141725000Y-93325000D01*
G75*
G02*
X141950000Y-93550000I0J-225000D01*
G01*
G37*
%TD*%
%TO.C,C4*%
G36*
G01*
X159325000Y-94750000D02*
X159325000Y-94250000D01*
G75*
G02*
X159550000Y-94025000I225000J0D01*
G01*
X160000000Y-94025000D01*
G75*
G02*
X160225000Y-94250000I0J-225000D01*
G01*
X160225000Y-94750000D01*
G75*
G02*
X160000000Y-94975000I-225000J0D01*
G01*
X159550000Y-94975000D01*
G75*
G02*
X159325000Y-94750000I0J225000D01*
G01*
G37*
G36*
G01*
X157775000Y-94750000D02*
X157775000Y-94250000D01*
G75*
G02*
X158000000Y-94025000I225000J0D01*
G01*
X158450000Y-94025000D01*
G75*
G02*
X158675000Y-94250000I0J-225000D01*
G01*
X158675000Y-94750000D01*
G75*
G02*
X158450000Y-94975000I-225000J0D01*
G01*
X158000000Y-94975000D01*
G75*
G02*
X157775000Y-94750000I0J225000D01*
G01*
G37*
%TD*%
%TO.C,C3*%
G36*
G01*
X140450000Y-89000000D02*
X140450000Y-89500000D01*
G75*
G02*
X140225000Y-89725000I-225000J0D01*
G01*
X139775000Y-89725000D01*
G75*
G02*
X139550000Y-89500000I0J225000D01*
G01*
X139550000Y-89000000D01*
G75*
G02*
X139775000Y-88775000I225000J0D01*
G01*
X140225000Y-88775000D01*
G75*
G02*
X140450000Y-89000000I0J-225000D01*
G01*
G37*
G36*
G01*
X142000000Y-89000000D02*
X142000000Y-89500000D01*
G75*
G02*
X141775000Y-89725000I-225000J0D01*
G01*
X141325000Y-89725000D01*
G75*
G02*
X141100000Y-89500000I0J225000D01*
G01*
X141100000Y-89000000D01*
G75*
G02*
X141325000Y-88775000I225000J0D01*
G01*
X141775000Y-88775000D01*
G75*
G02*
X142000000Y-89000000I0J-225000D01*
G01*
G37*
%TD*%
%TO.C,C2*%
G36*
G01*
X153500000Y-82900000D02*
X153000000Y-82900000D01*
G75*
G02*
X152775000Y-82675000I0J225000D01*
G01*
X152775000Y-82225000D01*
G75*
G02*
X153000000Y-82000000I225000J0D01*
G01*
X153500000Y-82000000D01*
G75*
G02*
X153725000Y-82225000I0J-225000D01*
G01*
X153725000Y-82675000D01*
G75*
G02*
X153500000Y-82900000I-225000J0D01*
G01*
G37*
G36*
G01*
X153500000Y-84450000D02*
X153000000Y-84450000D01*
G75*
G02*
X152775000Y-84225000I0J225000D01*
G01*
X152775000Y-83775000D01*
G75*
G02*
X153000000Y-83550000I225000J0D01*
G01*
X153500000Y-83550000D01*
G75*
G02*
X153725000Y-83775000I0J-225000D01*
G01*
X153725000Y-84225000D01*
G75*
G02*
X153500000Y-84450000I-225000J0D01*
G01*
G37*
%TD*%
%TO.C,C1*%
G36*
G01*
X148150000Y-101150000D02*
X148650000Y-101150000D01*
G75*
G02*
X148875000Y-101375000I0J-225000D01*
G01*
X148875000Y-101825000D01*
G75*
G02*
X148650000Y-102050000I-225000J0D01*
G01*
X148150000Y-102050000D01*
G75*
G02*
X147925000Y-101825000I0J225000D01*
G01*
X147925000Y-101375000D01*
G75*
G02*
X148150000Y-101150000I225000J0D01*
G01*
G37*
G36*
G01*
X148150000Y-99600000D02*
X148650000Y-99600000D01*
G75*
G02*
X148875000Y-99825000I0J-225000D01*
G01*
X148875000Y-100275000D01*
G75*
G02*
X148650000Y-100500000I-225000J0D01*
G01*
X148150000Y-100500000D01*
G75*
G02*
X147925000Y-100275000I0J225000D01*
G01*
X147925000Y-99825000D01*
G75*
G02*
X148150000Y-99600000I225000J0D01*
G01*
G37*
%TD*%
%TO.C,D30*%
G36*
X205095507Y-113839042D02*
G01*
X203913738Y-114047419D01*
X203757455Y-113161092D01*
X204939224Y-112952715D01*
X205095507Y-113839042D01*
G37*
G36*
X205668545Y-117088908D02*
G01*
X204486776Y-117297285D01*
X204330493Y-116410958D01*
X205512262Y-116202581D01*
X205668545Y-117088908D01*
G37*
%TD*%
%TO.C,D22*%
G36*
X255154493Y-92160858D02*
G01*
X256336262Y-91952481D01*
X256492545Y-92838808D01*
X255310776Y-93047185D01*
X255154493Y-92160858D01*
G37*
G36*
X254581455Y-88910992D02*
G01*
X255763224Y-88702615D01*
X255919507Y-89588942D01*
X254737738Y-89797319D01*
X254581455Y-88910992D01*
G37*
%TD*%
%TO.C,U30*%
G36*
X198371296Y-107987704D02*
G01*
X198228904Y-107180161D01*
X200001558Y-106867594D01*
X200143950Y-107675137D01*
X198371296Y-107987704D01*
G37*
G36*
X198110823Y-106510492D02*
G01*
X197968431Y-105702949D01*
X199741085Y-105390382D01*
X199883477Y-106197925D01*
X198110823Y-106510492D01*
G37*
G36*
X193447257Y-108855944D02*
G01*
X193304865Y-108048401D01*
X195077519Y-107735834D01*
X195219911Y-108543377D01*
X193447257Y-108855944D01*
G37*
G36*
X193186785Y-107378733D02*
G01*
X193044393Y-106571190D01*
X194817047Y-106258623D01*
X194959439Y-107066166D01*
X193186785Y-107378733D01*
G37*
G36*
X200622945Y-118597901D02*
G01*
X200171459Y-116037401D01*
X202731959Y-115585915D01*
X203183445Y-118146415D01*
X200622945Y-118597901D01*
G37*
G36*
X188866390Y-118436961D02*
G01*
X188414904Y-115876461D01*
X190975404Y-115424975D01*
X191426890Y-117985475D01*
X188866390Y-118436961D01*
G37*
%TD*%
%TO.C,U41*%
G36*
X201323296Y-124729704D02*
G01*
X201180904Y-123922161D01*
X202953558Y-123609594D01*
X203095950Y-124417137D01*
X201323296Y-124729704D01*
G37*
G36*
X201062823Y-123252492D02*
G01*
X200920431Y-122444949D01*
X202693085Y-122132382D01*
X202835477Y-122939925D01*
X201062823Y-123252492D01*
G37*
G36*
X196399257Y-125597944D02*
G01*
X196256865Y-124790401D01*
X198029519Y-124477834D01*
X198171911Y-125285377D01*
X196399257Y-125597944D01*
G37*
G36*
X196138785Y-124120733D02*
G01*
X195996393Y-123313190D01*
X197769047Y-123000623D01*
X197911439Y-123808166D01*
X196138785Y-124120733D01*
G37*
G36*
X203574945Y-135339901D02*
G01*
X203123459Y-132779401D01*
X205683959Y-132327915D01*
X206135445Y-134888415D01*
X203574945Y-135339901D01*
G37*
G36*
X191818390Y-135178961D02*
G01*
X191366904Y-132618461D01*
X193927404Y-132166975D01*
X194378890Y-134727475D01*
X191818390Y-135178961D01*
G37*
%TD*%
%TO.C,D41*%
G36*
X207154493Y-133160958D02*
G01*
X208336262Y-132952581D01*
X208492545Y-133838908D01*
X207310776Y-134047285D01*
X207154493Y-133160958D01*
G37*
G36*
X206581455Y-129911092D02*
G01*
X207763224Y-129702715D01*
X207919507Y-130589042D01*
X206737738Y-130797419D01*
X206581455Y-129911092D01*
G37*
%TD*%
%TO.C,U19*%
G36*
X195419296Y-91246504D02*
G01*
X195276904Y-90438961D01*
X197049558Y-90126394D01*
X197191950Y-90933937D01*
X195419296Y-91246504D01*
G37*
G36*
X195158823Y-89769292D02*
G01*
X195016431Y-88961749D01*
X196789085Y-88649182D01*
X196931477Y-89456725D01*
X195158823Y-89769292D01*
G37*
G36*
X190495257Y-92114744D02*
G01*
X190352865Y-91307201D01*
X192125519Y-90994634D01*
X192267911Y-91802177D01*
X190495257Y-92114744D01*
G37*
G36*
X190234785Y-90637533D02*
G01*
X190092393Y-89829990D01*
X191865047Y-89517423D01*
X192007439Y-90324966D01*
X190234785Y-90637533D01*
G37*
G36*
X197670945Y-101856701D02*
G01*
X197219459Y-99296201D01*
X199779959Y-98844715D01*
X200231445Y-101405215D01*
X197670945Y-101856701D01*
G37*
G36*
X185914390Y-101695761D02*
G01*
X185462904Y-99135261D01*
X188023404Y-98683775D01*
X188474890Y-101244275D01*
X185914390Y-101695761D01*
G37*
%TD*%
%TO.C,D7*%
G36*
X181507455Y-86661192D02*
G01*
X182689224Y-86452815D01*
X182845507Y-87339142D01*
X181663738Y-87547519D01*
X181507455Y-86661192D01*
G37*
G36*
X182080493Y-89911058D02*
G01*
X183262262Y-89702681D01*
X183418545Y-90589008D01*
X182236776Y-90797385D01*
X182080493Y-89911058D01*
G37*
%TD*%
%TO.C,D8*%
G36*
X198257455Y-79661192D02*
G01*
X199439224Y-79452815D01*
X199595507Y-80339142D01*
X198413738Y-80547519D01*
X198257455Y-79661192D01*
G37*
G36*
X198830493Y-82911058D02*
G01*
X200012262Y-82702681D01*
X200168545Y-83589008D01*
X198986776Y-83797385D01*
X198830493Y-82911058D01*
G37*
%TD*%
%TO.C,U8*%
G36*
X192467296Y-74504704D02*
G01*
X192324904Y-73697161D01*
X194097558Y-73384594D01*
X194239950Y-74192137D01*
X192467296Y-74504704D01*
G37*
G36*
X192206823Y-73027492D02*
G01*
X192064431Y-72219949D01*
X193837085Y-71907382D01*
X193979477Y-72714925D01*
X192206823Y-73027492D01*
G37*
G36*
X187543257Y-75372944D02*
G01*
X187400865Y-74565401D01*
X189173519Y-74252834D01*
X189315911Y-75060377D01*
X187543257Y-75372944D01*
G37*
G36*
X187282785Y-73895733D02*
G01*
X187140393Y-73088190D01*
X188913047Y-72775623D01*
X189055439Y-73583166D01*
X187282785Y-73895733D01*
G37*
G36*
X194718945Y-85114901D02*
G01*
X194267459Y-82554401D01*
X196827959Y-82102915D01*
X197279445Y-84663415D01*
X194718945Y-85114901D01*
G37*
G36*
X182962390Y-84953961D02*
G01*
X182510904Y-82393461D01*
X185071404Y-81941975D01*
X185522890Y-84502475D01*
X182962390Y-84953961D01*
G37*
%TD*%
%TO.C,D39*%
G36*
X171757455Y-138161092D02*
G01*
X172939224Y-137952715D01*
X173095507Y-138839042D01*
X171913738Y-139047419D01*
X171757455Y-138161092D01*
G37*
G36*
X172330493Y-141410958D02*
G01*
X173512262Y-141202581D01*
X173668545Y-142088908D01*
X172486776Y-142297285D01*
X172330493Y-141410958D01*
G37*
%TD*%
%TO.C,D28*%
G36*
X169367493Y-124785958D02*
G01*
X170549262Y-124577581D01*
X170705545Y-125463908D01*
X169523776Y-125672285D01*
X169367493Y-124785958D01*
G37*
G36*
X168794455Y-121536092D02*
G01*
X169976224Y-121327715D01*
X170132507Y-122214042D01*
X168950738Y-122422419D01*
X168794455Y-121536092D01*
G37*
%TD*%
%TO.C,D29*%
G36*
X187580493Y-123410958D02*
G01*
X188762262Y-123202581D01*
X188918545Y-124088908D01*
X187736776Y-124297285D01*
X187580493Y-123410958D01*
G37*
G36*
X187007455Y-120161092D02*
G01*
X188189224Y-119952715D01*
X188345507Y-120839042D01*
X187163738Y-121047419D01*
X187007455Y-120161092D01*
G37*
%TD*%
%TO.C,U40*%
G36*
X184291296Y-131794704D02*
G01*
X184148904Y-130987161D01*
X185921558Y-130674594D01*
X186063950Y-131482137D01*
X184291296Y-131794704D01*
G37*
G36*
X184030823Y-130317492D02*
G01*
X183888431Y-129509949D01*
X185661085Y-129197382D01*
X185803477Y-130004925D01*
X184030823Y-130317492D01*
G37*
G36*
X179367257Y-132662944D02*
G01*
X179224865Y-131855401D01*
X180997519Y-131542834D01*
X181139911Y-132350377D01*
X179367257Y-132662944D01*
G37*
G36*
X179106785Y-131185733D02*
G01*
X178964393Y-130378190D01*
X180737047Y-130065623D01*
X180879439Y-130873166D01*
X179106785Y-131185733D01*
G37*
G36*
X186542945Y-142404901D02*
G01*
X186091459Y-139844401D01*
X188651959Y-139392915D01*
X189103445Y-141953415D01*
X186542945Y-142404901D01*
G37*
G36*
X174786390Y-142243961D02*
G01*
X174334904Y-139683461D01*
X176895404Y-139231975D01*
X177346890Y-141792475D01*
X174786390Y-142243961D01*
G37*
%TD*%
%TO.C,D40*%
G36*
X189831455Y-136911092D02*
G01*
X191013224Y-136702715D01*
X191169507Y-137589042D01*
X189987738Y-137797419D01*
X189831455Y-136911092D01*
G37*
G36*
X190404493Y-140160958D02*
G01*
X191586262Y-139952581D01*
X191742545Y-140838908D01*
X190560776Y-141047285D01*
X190404493Y-140160958D01*
G37*
%TD*%
%TO.C,U29*%
G36*
X181339296Y-115052704D02*
G01*
X181196904Y-114245161D01*
X182969558Y-113932594D01*
X183111950Y-114740137D01*
X181339296Y-115052704D01*
G37*
G36*
X181078823Y-113575492D02*
G01*
X180936431Y-112767949D01*
X182709085Y-112455382D01*
X182851477Y-113262925D01*
X181078823Y-113575492D01*
G37*
G36*
X176415257Y-115920944D02*
G01*
X176272865Y-115113401D01*
X178045519Y-114800834D01*
X178187911Y-115608377D01*
X176415257Y-115920944D01*
G37*
G36*
X176154785Y-114443733D02*
G01*
X176012393Y-113636190D01*
X177785047Y-113323623D01*
X177927439Y-114131166D01*
X176154785Y-114443733D01*
G37*
G36*
X183590945Y-125662901D02*
G01*
X183139459Y-123102401D01*
X185699959Y-122650915D01*
X186151445Y-125211415D01*
X183590945Y-125662901D01*
G37*
G36*
X171834390Y-125501961D02*
G01*
X171382904Y-122941461D01*
X173943404Y-122489975D01*
X174394890Y-125050475D01*
X171834390Y-125501961D01*
G37*
%TD*%
%TO.C,U28*%
G36*
X163265296Y-116208704D02*
G01*
X163122904Y-115401161D01*
X164895558Y-115088594D01*
X165037950Y-115896137D01*
X163265296Y-116208704D01*
G37*
G36*
X163004823Y-114731492D02*
G01*
X162862431Y-113923949D01*
X164635085Y-113611382D01*
X164777477Y-114418925D01*
X163004823Y-114731492D01*
G37*
G36*
X158341257Y-117076944D02*
G01*
X158198865Y-116269401D01*
X159971519Y-115956834D01*
X160113911Y-116764377D01*
X158341257Y-117076944D01*
G37*
G36*
X158080785Y-115599733D02*
G01*
X157938393Y-114792190D01*
X159711047Y-114479623D01*
X159853439Y-115287166D01*
X158080785Y-115599733D01*
G37*
G36*
X165516945Y-126818901D02*
G01*
X165065459Y-124258401D01*
X167625959Y-123806915D01*
X168077445Y-126367415D01*
X165516945Y-126818901D01*
G37*
G36*
X153760390Y-126657961D02*
G01*
X153308904Y-124097461D01*
X155869404Y-123645975D01*
X156320890Y-126206475D01*
X153760390Y-126657961D01*
G37*
%TD*%
%TO.C,U39*%
G36*
X166217296Y-132950704D02*
G01*
X166074904Y-132143161D01*
X167847558Y-131830594D01*
X167989950Y-132638137D01*
X166217296Y-132950704D01*
G37*
G36*
X165956823Y-131473492D02*
G01*
X165814431Y-130665949D01*
X167587085Y-130353382D01*
X167729477Y-131160925D01*
X165956823Y-131473492D01*
G37*
G36*
X161293257Y-133818944D02*
G01*
X161150865Y-133011401D01*
X162923519Y-132698834D01*
X163065911Y-133506377D01*
X161293257Y-133818944D01*
G37*
G36*
X161032785Y-132341733D02*
G01*
X160890393Y-131534190D01*
X162663047Y-131221623D01*
X162805439Y-132029166D01*
X161032785Y-132341733D01*
G37*
G36*
X168468945Y-143560901D02*
G01*
X168017459Y-141000401D01*
X170577959Y-140548915D01*
X171029445Y-143109415D01*
X168468945Y-143560901D01*
G37*
G36*
X156712390Y-143399961D02*
G01*
X156260904Y-140839461D01*
X158821404Y-140387975D01*
X159272890Y-142948475D01*
X156712390Y-143399961D01*
G37*
%TD*%
%TO.C,U2*%
G36*
X75404489Y-67824277D02*
G01*
X75546881Y-67016734D01*
X77319535Y-67329301D01*
X77177143Y-68136844D01*
X75404489Y-67824277D01*
G37*
G36*
X75664961Y-66347066D02*
G01*
X75807353Y-65539523D01*
X77580007Y-65852090D01*
X77437615Y-66659633D01*
X75664961Y-66347066D01*
G37*
G36*
X70480450Y-66956037D02*
G01*
X70622842Y-66148494D01*
X72395496Y-66461061D01*
X72253104Y-67268604D01*
X70480450Y-66956037D01*
G37*
G36*
X70740923Y-65478825D02*
G01*
X70883315Y-64671282D01*
X72655969Y-64983849D01*
X72513577Y-65791392D01*
X70740923Y-65478825D01*
G37*
G36*
X73891446Y-78564711D02*
G01*
X74342932Y-76004211D01*
X76903432Y-76455697D01*
X76451946Y-79016197D01*
X73891446Y-78564711D01*
G37*
G36*
X62898942Y-74392497D02*
G01*
X63350428Y-71831997D01*
X65910928Y-72283483D01*
X65459442Y-74843983D01*
X62898942Y-74392497D01*
G37*
%TD*%
%TO.C,U1*%
G36*
X57157089Y-67652977D02*
G01*
X57299481Y-66845434D01*
X59072135Y-67158001D01*
X58929743Y-67965544D01*
X57157089Y-67652977D01*
G37*
G36*
X57417561Y-66175766D02*
G01*
X57559953Y-65368223D01*
X59332607Y-65680790D01*
X59190215Y-66488333D01*
X57417561Y-66175766D01*
G37*
G36*
X52233050Y-66784737D02*
G01*
X52375442Y-65977194D01*
X54148096Y-66289761D01*
X54005704Y-67097304D01*
X52233050Y-66784737D01*
G37*
G36*
X52493523Y-65307525D02*
G01*
X52635915Y-64499982D01*
X54408569Y-64812549D01*
X54266177Y-65620092D01*
X52493523Y-65307525D01*
G37*
G36*
X55644046Y-78393411D02*
G01*
X56095532Y-75832911D01*
X58656032Y-76284397D01*
X58204546Y-78844897D01*
X55644046Y-78393411D01*
G37*
G36*
X44651542Y-74221197D02*
G01*
X45103028Y-71660697D01*
X47663528Y-72112183D01*
X47212042Y-74672683D01*
X44651542Y-74221197D01*
G37*
%TD*%
%TO.C,U44*%
G36*
X254850296Y-117322704D02*
G01*
X254707904Y-116515161D01*
X256480558Y-116202594D01*
X256622950Y-117010137D01*
X254850296Y-117322704D01*
G37*
G36*
X254589823Y-115845492D02*
G01*
X254447431Y-115037949D01*
X256220085Y-114725382D01*
X256362477Y-115532925D01*
X254589823Y-115845492D01*
G37*
G36*
X249926257Y-118190944D02*
G01*
X249783865Y-117383401D01*
X251556519Y-117070834D01*
X251698911Y-117878377D01*
X249926257Y-118190944D01*
G37*
G36*
X249665785Y-116713733D02*
G01*
X249523393Y-115906190D01*
X251296047Y-115593623D01*
X251438439Y-116401166D01*
X249665785Y-116713733D01*
G37*
G36*
X257101945Y-127932901D02*
G01*
X256650459Y-125372401D01*
X259210959Y-124920915D01*
X259662445Y-127481415D01*
X257101945Y-127932901D01*
G37*
G36*
X245345390Y-127771961D02*
G01*
X244893904Y-125211461D01*
X247454404Y-124759975D01*
X247905890Y-127320475D01*
X245345390Y-127771961D01*
G37*
%TD*%
%TO.C,U43*%
G36*
X236603296Y-117493704D02*
G01*
X236460904Y-116686161D01*
X238233558Y-116373594D01*
X238375950Y-117181137D01*
X236603296Y-117493704D01*
G37*
G36*
X236342823Y-116016492D02*
G01*
X236200431Y-115208949D01*
X237973085Y-114896382D01*
X238115477Y-115703925D01*
X236342823Y-116016492D01*
G37*
G36*
X231679257Y-118361944D02*
G01*
X231536865Y-117554401D01*
X233309519Y-117241834D01*
X233451911Y-118049377D01*
X231679257Y-118361944D01*
G37*
G36*
X231418785Y-116884733D02*
G01*
X231276393Y-116077190D01*
X233049047Y-115764623D01*
X233191439Y-116572166D01*
X231418785Y-116884733D01*
G37*
G36*
X238854945Y-128103901D02*
G01*
X238403459Y-125543401D01*
X240963959Y-125091915D01*
X241415445Y-127652415D01*
X238854945Y-128103901D01*
G37*
G36*
X227098390Y-127942961D02*
G01*
X226646904Y-125382461D01*
X229207404Y-124930975D01*
X229658890Y-127491475D01*
X227098390Y-127942961D01*
G37*
%TD*%
%TO.C,U42*%
G36*
X218008296Y-115695704D02*
G01*
X217865904Y-114888161D01*
X219638558Y-114575594D01*
X219780950Y-115383137D01*
X218008296Y-115695704D01*
G37*
G36*
X217747823Y-114218492D02*
G01*
X217605431Y-113410949D01*
X219378085Y-113098382D01*
X219520477Y-113905925D01*
X217747823Y-114218492D01*
G37*
G36*
X213084257Y-116563944D02*
G01*
X212941865Y-115756401D01*
X214714519Y-115443834D01*
X214856911Y-116251377D01*
X213084257Y-116563944D01*
G37*
G36*
X212823785Y-115086733D02*
G01*
X212681393Y-114279190D01*
X214454047Y-113966623D01*
X214596439Y-114774166D01*
X212823785Y-115086733D01*
G37*
G36*
X220259945Y-126305901D02*
G01*
X219808459Y-123745401D01*
X222368959Y-123293915D01*
X222820445Y-125854415D01*
X220259945Y-126305901D01*
G37*
G36*
X208503390Y-126144961D02*
G01*
X208051904Y-123584461D01*
X210612404Y-123132975D01*
X211063890Y-125693475D01*
X208503390Y-126144961D01*
G37*
%TD*%
%TO.C,U38*%
G36*
X118860089Y-132350377D02*
G01*
X119002481Y-131542834D01*
X120775135Y-131855401D01*
X120632743Y-132662944D01*
X118860089Y-132350377D01*
G37*
G36*
X119120561Y-130873166D02*
G01*
X119262953Y-130065623D01*
X121035607Y-130378190D01*
X120893215Y-131185733D01*
X119120561Y-130873166D01*
G37*
G36*
X113936050Y-131482137D02*
G01*
X114078442Y-130674594D01*
X115851096Y-130987161D01*
X115708704Y-131794704D01*
X113936050Y-131482137D01*
G37*
G36*
X114196523Y-130004925D02*
G01*
X114338915Y-129197382D01*
X116111569Y-129509949D01*
X115969177Y-130317492D01*
X114196523Y-130004925D01*
G37*
G36*
X117347046Y-143090811D02*
G01*
X117798532Y-140530311D01*
X120359032Y-140981797D01*
X119907546Y-143542297D01*
X117347046Y-143090811D01*
G37*
G36*
X106354542Y-138918597D02*
G01*
X106806028Y-136358097D01*
X109366528Y-136809583D01*
X108915042Y-139370083D01*
X106354542Y-138918597D01*
G37*
%TD*%
%TO.C,U37*%
G36*
X101827889Y-125285377D02*
G01*
X101970281Y-124477834D01*
X103742935Y-124790401D01*
X103600543Y-125597944D01*
X101827889Y-125285377D01*
G37*
G36*
X102088361Y-123808166D02*
G01*
X102230753Y-123000623D01*
X104003407Y-123313190D01*
X103861015Y-124120733D01*
X102088361Y-123808166D01*
G37*
G36*
X96903850Y-124417137D02*
G01*
X97046242Y-123609594D01*
X98818896Y-123922161D01*
X98676504Y-124729704D01*
X96903850Y-124417137D01*
G37*
G36*
X97164323Y-122939925D02*
G01*
X97306715Y-122132382D01*
X99079369Y-122444949D01*
X98936977Y-123252492D01*
X97164323Y-122939925D01*
G37*
G36*
X100314846Y-136025811D02*
G01*
X100766332Y-133465311D01*
X103326832Y-133916797D01*
X102875346Y-136477297D01*
X100314846Y-136025811D01*
G37*
G36*
X89322342Y-131853597D02*
G01*
X89773828Y-129293097D01*
X92334328Y-129744583D01*
X91882842Y-132305083D01*
X89322342Y-131853597D01*
G37*
%TD*%
%TO.C,U36*%
G36*
X85143289Y-116251377D02*
G01*
X85285681Y-115443834D01*
X87058335Y-115756401D01*
X86915943Y-116563944D01*
X85143289Y-116251377D01*
G37*
G36*
X85403761Y-114774166D02*
G01*
X85546153Y-113966623D01*
X87318807Y-114279190D01*
X87176415Y-115086733D01*
X85403761Y-114774166D01*
G37*
G36*
X80219250Y-115383137D02*
G01*
X80361642Y-114575594D01*
X82134296Y-114888161D01*
X81991904Y-115695704D01*
X80219250Y-115383137D01*
G37*
G36*
X80479723Y-113905925D02*
G01*
X80622115Y-113098382D01*
X82394769Y-113410949D01*
X82252377Y-114218492D01*
X80479723Y-113905925D01*
G37*
G36*
X83630246Y-126991811D02*
G01*
X84081732Y-124431311D01*
X86642232Y-124882797D01*
X86190746Y-127443297D01*
X83630246Y-126991811D01*
G37*
G36*
X72637742Y-122819597D02*
G01*
X73089228Y-120259097D01*
X75649728Y-120710583D01*
X75198242Y-123271083D01*
X72637742Y-122819597D01*
G37*
%TD*%
%TO.C,U35*%
G36*
X66548489Y-118049377D02*
G01*
X66690881Y-117241834D01*
X68463535Y-117554401D01*
X68321143Y-118361944D01*
X66548489Y-118049377D01*
G37*
G36*
X66808961Y-116572166D02*
G01*
X66951353Y-115764623D01*
X68724007Y-116077190D01*
X68581615Y-116884733D01*
X66808961Y-116572166D01*
G37*
G36*
X61624450Y-117181137D02*
G01*
X61766842Y-116373594D01*
X63539496Y-116686161D01*
X63397104Y-117493704D01*
X61624450Y-117181137D01*
G37*
G36*
X61884923Y-115703925D02*
G01*
X62027315Y-114896382D01*
X63799969Y-115208949D01*
X63657577Y-116016492D01*
X61884923Y-115703925D01*
G37*
G36*
X65035446Y-128789811D02*
G01*
X65486932Y-126229311D01*
X68047432Y-126680797D01*
X67595946Y-129241297D01*
X65035446Y-128789811D01*
G37*
G36*
X54042942Y-124617597D02*
G01*
X54494428Y-122057097D01*
X57054928Y-122508583D01*
X56603442Y-125069083D01*
X54042942Y-124617597D01*
G37*
%TD*%
%TO.C,U34*%
G36*
X48300989Y-117878377D02*
G01*
X48443381Y-117070834D01*
X50216035Y-117383401D01*
X50073643Y-118190944D01*
X48300989Y-117878377D01*
G37*
G36*
X48561461Y-116401166D02*
G01*
X48703853Y-115593623D01*
X50476507Y-115906190D01*
X50334115Y-116713733D01*
X48561461Y-116401166D01*
G37*
G36*
X43376950Y-117010137D02*
G01*
X43519342Y-116202594D01*
X45291996Y-116515161D01*
X45149604Y-117322704D01*
X43376950Y-117010137D01*
G37*
G36*
X43637423Y-115532925D02*
G01*
X43779815Y-114725382D01*
X45552469Y-115037949D01*
X45410077Y-115845492D01*
X43637423Y-115532925D01*
G37*
G36*
X46787946Y-128618811D02*
G01*
X47239432Y-126058311D01*
X49799932Y-126509797D01*
X49348446Y-129070297D01*
X46787946Y-128618811D01*
G37*
G36*
X35795442Y-124446597D02*
G01*
X36246928Y-121886097D01*
X38807428Y-122337583D01*
X38355942Y-124898083D01*
X35795442Y-124446597D01*
G37*
%TD*%
%TO.C,U33*%
G36*
X251898296Y-100580704D02*
G01*
X251755904Y-99773161D01*
X253528558Y-99460594D01*
X253670950Y-100268137D01*
X251898296Y-100580704D01*
G37*
G36*
X251637823Y-99103492D02*
G01*
X251495431Y-98295949D01*
X253268085Y-97983382D01*
X253410477Y-98790925D01*
X251637823Y-99103492D01*
G37*
G36*
X246974257Y-101448944D02*
G01*
X246831865Y-100641401D01*
X248604519Y-100328834D01*
X248746911Y-101136377D01*
X246974257Y-101448944D01*
G37*
G36*
X246713785Y-99971733D02*
G01*
X246571393Y-99164190D01*
X248344047Y-98851623D01*
X248486439Y-99659166D01*
X246713785Y-99971733D01*
G37*
G36*
X254149945Y-111190901D02*
G01*
X253698459Y-108630401D01*
X256258959Y-108178915D01*
X256710445Y-110739415D01*
X254149945Y-111190901D01*
G37*
G36*
X242393390Y-111029961D02*
G01*
X241941904Y-108469461D01*
X244502404Y-108017975D01*
X244953890Y-110578475D01*
X242393390Y-111029961D01*
G37*
%TD*%
%TO.C,U32*%
G36*
X233651296Y-100751704D02*
G01*
X233508904Y-99944161D01*
X235281558Y-99631594D01*
X235423950Y-100439137D01*
X233651296Y-100751704D01*
G37*
G36*
X233390823Y-99274492D02*
G01*
X233248431Y-98466949D01*
X235021085Y-98154382D01*
X235163477Y-98961925D01*
X233390823Y-99274492D01*
G37*
G36*
X228727257Y-101619944D02*
G01*
X228584865Y-100812401D01*
X230357519Y-100499834D01*
X230499911Y-101307377D01*
X228727257Y-101619944D01*
G37*
G36*
X228466785Y-100142733D02*
G01*
X228324393Y-99335190D01*
X230097047Y-99022623D01*
X230239439Y-99830166D01*
X228466785Y-100142733D01*
G37*
G36*
X235902945Y-111361901D02*
G01*
X235451459Y-108801401D01*
X238011959Y-108349915D01*
X238463445Y-110910415D01*
X235902945Y-111361901D01*
G37*
G36*
X224146390Y-111200961D02*
G01*
X223694904Y-108640461D01*
X226255404Y-108188975D01*
X226706890Y-110749475D01*
X224146390Y-111200961D01*
G37*
%TD*%
%TO.C,U31*%
G36*
X215056296Y-98953704D02*
G01*
X214913904Y-98146161D01*
X216686558Y-97833594D01*
X216828950Y-98641137D01*
X215056296Y-98953704D01*
G37*
G36*
X214795823Y-97476492D02*
G01*
X214653431Y-96668949D01*
X216426085Y-96356382D01*
X216568477Y-97163925D01*
X214795823Y-97476492D01*
G37*
G36*
X210132257Y-99821944D02*
G01*
X209989865Y-99014401D01*
X211762519Y-98701834D01*
X211904911Y-99509377D01*
X210132257Y-99821944D01*
G37*
G36*
X209871785Y-98344733D02*
G01*
X209729393Y-97537190D01*
X211502047Y-97224623D01*
X211644439Y-98032166D01*
X209871785Y-98344733D01*
G37*
G36*
X217307945Y-109563901D02*
G01*
X216856459Y-107003401D01*
X219416959Y-106551915D01*
X219868445Y-109112415D01*
X217307945Y-109563901D01*
G37*
G36*
X205551390Y-109402961D02*
G01*
X205099904Y-106842461D01*
X207660404Y-106390975D01*
X208111890Y-108951475D01*
X205551390Y-109402961D01*
G37*
%TD*%
%TO.C,U27*%
G36*
X121812089Y-115608377D02*
G01*
X121954481Y-114800834D01*
X123727135Y-115113401D01*
X123584743Y-115920944D01*
X121812089Y-115608377D01*
G37*
G36*
X122072561Y-114131166D02*
G01*
X122214953Y-113323623D01*
X123987607Y-113636190D01*
X123845215Y-114443733D01*
X122072561Y-114131166D01*
G37*
G36*
X116888050Y-114740137D02*
G01*
X117030442Y-113932594D01*
X118803096Y-114245161D01*
X118660704Y-115052704D01*
X116888050Y-114740137D01*
G37*
G36*
X117148523Y-113262925D02*
G01*
X117290915Y-112455382D01*
X119063569Y-112767949D01*
X118921177Y-113575492D01*
X117148523Y-113262925D01*
G37*
G36*
X120299046Y-126348811D02*
G01*
X120750532Y-123788311D01*
X123311032Y-124239797D01*
X122859546Y-126800297D01*
X120299046Y-126348811D01*
G37*
G36*
X109306542Y-122176597D02*
G01*
X109758028Y-119616097D01*
X112318528Y-120067583D01*
X111867042Y-122628083D01*
X109306542Y-122176597D01*
G37*
%TD*%
%TO.C,U26*%
G36*
X104780089Y-108543377D02*
G01*
X104922481Y-107735834D01*
X106695135Y-108048401D01*
X106552743Y-108855944D01*
X104780089Y-108543377D01*
G37*
G36*
X105040561Y-107066166D02*
G01*
X105182953Y-106258623D01*
X106955607Y-106571190D01*
X106813215Y-107378733D01*
X105040561Y-107066166D01*
G37*
G36*
X99856050Y-107675137D02*
G01*
X99998442Y-106867594D01*
X101771096Y-107180161D01*
X101628704Y-107987704D01*
X99856050Y-107675137D01*
G37*
G36*
X100116523Y-106197925D02*
G01*
X100258915Y-105390382D01*
X102031569Y-105702949D01*
X101889177Y-106510492D01*
X100116523Y-106197925D01*
G37*
G36*
X103267046Y-119283811D02*
G01*
X103718532Y-116723311D01*
X106279032Y-117174797D01*
X105827546Y-119735297D01*
X103267046Y-119283811D01*
G37*
G36*
X92274542Y-115111597D02*
G01*
X92726028Y-112551097D01*
X95286528Y-113002583D01*
X94835042Y-115563083D01*
X92274542Y-115111597D01*
G37*
%TD*%
%TO.C,U25*%
G36*
X88095289Y-99509377D02*
G01*
X88237681Y-98701834D01*
X90010335Y-99014401D01*
X89867943Y-99821944D01*
X88095289Y-99509377D01*
G37*
G36*
X88355761Y-98032166D02*
G01*
X88498153Y-97224623D01*
X90270807Y-97537190D01*
X90128415Y-98344733D01*
X88355761Y-98032166D01*
G37*
G36*
X83171250Y-98641137D02*
G01*
X83313642Y-97833594D01*
X85086296Y-98146161D01*
X84943904Y-98953704D01*
X83171250Y-98641137D01*
G37*
G36*
X83431723Y-97163925D02*
G01*
X83574115Y-96356382D01*
X85346769Y-96668949D01*
X85204377Y-97476492D01*
X83431723Y-97163925D01*
G37*
G36*
X86582246Y-110249811D02*
G01*
X87033732Y-107689311D01*
X89594232Y-108140797D01*
X89142746Y-110701297D01*
X86582246Y-110249811D01*
G37*
G36*
X75589742Y-106077597D02*
G01*
X76041228Y-103517097D01*
X78601728Y-103968583D01*
X78150242Y-106529083D01*
X75589742Y-106077597D01*
G37*
%TD*%
%TO.C,U24*%
G36*
X69500489Y-101307377D02*
G01*
X69642881Y-100499834D01*
X71415535Y-100812401D01*
X71273143Y-101619944D01*
X69500489Y-101307377D01*
G37*
G36*
X69760961Y-99830166D02*
G01*
X69903353Y-99022623D01*
X71676007Y-99335190D01*
X71533615Y-100142733D01*
X69760961Y-99830166D01*
G37*
G36*
X64576450Y-100439137D02*
G01*
X64718842Y-99631594D01*
X66491496Y-99944161D01*
X66349104Y-100751704D01*
X64576450Y-100439137D01*
G37*
G36*
X64836923Y-98961925D02*
G01*
X64979315Y-98154382D01*
X66751969Y-98466949D01*
X66609577Y-99274492D01*
X64836923Y-98961925D01*
G37*
G36*
X67987446Y-112047811D02*
G01*
X68438932Y-109487311D01*
X70999432Y-109938797D01*
X70547946Y-112499297D01*
X67987446Y-112047811D01*
G37*
G36*
X56994942Y-107875597D02*
G01*
X57446428Y-105315097D01*
X60006928Y-105766583D01*
X59555442Y-108327083D01*
X56994942Y-107875597D01*
G37*
%TD*%
%TO.C,U23*%
G36*
X51252989Y-101136377D02*
G01*
X51395381Y-100328834D01*
X53168035Y-100641401D01*
X53025643Y-101448944D01*
X51252989Y-101136377D01*
G37*
G36*
X51513461Y-99659166D02*
G01*
X51655853Y-98851623D01*
X53428507Y-99164190D01*
X53286115Y-99971733D01*
X51513461Y-99659166D01*
G37*
G36*
X46328950Y-100268137D02*
G01*
X46471342Y-99460594D01*
X48243996Y-99773161D01*
X48101604Y-100580704D01*
X46328950Y-100268137D01*
G37*
G36*
X46589423Y-98790925D02*
G01*
X46731815Y-97983382D01*
X48504469Y-98295949D01*
X48362077Y-99103492D01*
X46589423Y-98790925D01*
G37*
G36*
X49739946Y-111876811D02*
G01*
X50191432Y-109316311D01*
X52751932Y-109767797D01*
X52300446Y-112328297D01*
X49739946Y-111876811D01*
G37*
G36*
X38747442Y-107704597D02*
G01*
X39198928Y-105144097D01*
X41759428Y-105595583D01*
X41307942Y-108156083D01*
X38747442Y-107704597D01*
G37*
%TD*%
%TO.C,U22*%
G36*
X248946296Y-83839104D02*
G01*
X248803904Y-83031561D01*
X250576558Y-82718994D01*
X250718950Y-83526537D01*
X248946296Y-83839104D01*
G37*
G36*
X248685823Y-82361892D02*
G01*
X248543431Y-81554349D01*
X250316085Y-81241782D01*
X250458477Y-82049325D01*
X248685823Y-82361892D01*
G37*
G36*
X244022257Y-84707344D02*
G01*
X243879865Y-83899801D01*
X245652519Y-83587234D01*
X245794911Y-84394777D01*
X244022257Y-84707344D01*
G37*
G36*
X243761785Y-83230133D02*
G01*
X243619393Y-82422590D01*
X245392047Y-82110023D01*
X245534439Y-82917566D01*
X243761785Y-83230133D01*
G37*
G36*
X251197945Y-94449301D02*
G01*
X250746459Y-91888801D01*
X253306959Y-91437315D01*
X253758445Y-93997815D01*
X251197945Y-94449301D01*
G37*
G36*
X239441390Y-94288361D02*
G01*
X238989904Y-91727861D01*
X241550404Y-91276375D01*
X242001890Y-93836875D01*
X239441390Y-94288361D01*
G37*
%TD*%
%TO.C,U21*%
G36*
X230699296Y-84010304D02*
G01*
X230556904Y-83202761D01*
X232329558Y-82890194D01*
X232471950Y-83697737D01*
X230699296Y-84010304D01*
G37*
G36*
X230438823Y-82533092D02*
G01*
X230296431Y-81725549D01*
X232069085Y-81412982D01*
X232211477Y-82220525D01*
X230438823Y-82533092D01*
G37*
G36*
X225775257Y-84878544D02*
G01*
X225632865Y-84071001D01*
X227405519Y-83758434D01*
X227547911Y-84565977D01*
X225775257Y-84878544D01*
G37*
G36*
X225514785Y-83401333D02*
G01*
X225372393Y-82593790D01*
X227145047Y-82281223D01*
X227287439Y-83088766D01*
X225514785Y-83401333D01*
G37*
G36*
X232950945Y-94620501D02*
G01*
X232499459Y-92060001D01*
X235059959Y-91608515D01*
X235511445Y-94169015D01*
X232950945Y-94620501D01*
G37*
G36*
X221194390Y-94459561D02*
G01*
X220742904Y-91899061D01*
X223303404Y-91447575D01*
X223754890Y-94008075D01*
X221194390Y-94459561D01*
G37*
%TD*%
%TO.C,U20*%
G36*
X212104296Y-82212004D02*
G01*
X211961904Y-81404461D01*
X213734558Y-81091894D01*
X213876950Y-81899437D01*
X212104296Y-82212004D01*
G37*
G36*
X211843823Y-80734792D02*
G01*
X211701431Y-79927249D01*
X213474085Y-79614682D01*
X213616477Y-80422225D01*
X211843823Y-80734792D01*
G37*
G36*
X207180257Y-83080244D02*
G01*
X207037865Y-82272701D01*
X208810519Y-81960134D01*
X208952911Y-82767677D01*
X207180257Y-83080244D01*
G37*
G36*
X206919785Y-81603033D02*
G01*
X206777393Y-80795490D01*
X208550047Y-80482923D01*
X208692439Y-81290466D01*
X206919785Y-81603033D01*
G37*
G36*
X214355945Y-92822201D02*
G01*
X213904459Y-90261701D01*
X216464959Y-89810215D01*
X216916445Y-92370715D01*
X214355945Y-92822201D01*
G37*
G36*
X202599390Y-92661261D02*
G01*
X202147904Y-90100761D01*
X204708404Y-89649275D01*
X205159890Y-92209775D01*
X202599390Y-92661261D01*
G37*
%TD*%
%TO.C,U18*%
G36*
X178387296Y-98311704D02*
G01*
X178244904Y-97504161D01*
X180017558Y-97191594D01*
X180159950Y-97999137D01*
X178387296Y-98311704D01*
G37*
G36*
X178126823Y-96834492D02*
G01*
X177984431Y-96026949D01*
X179757085Y-95714382D01*
X179899477Y-96521925D01*
X178126823Y-96834492D01*
G37*
G36*
X173463257Y-99179944D02*
G01*
X173320865Y-98372401D01*
X175093519Y-98059834D01*
X175235911Y-98867377D01*
X173463257Y-99179944D01*
G37*
G36*
X173202785Y-97702733D02*
G01*
X173060393Y-96895190D01*
X174833047Y-96582623D01*
X174975439Y-97390166D01*
X173202785Y-97702733D01*
G37*
G36*
X180638945Y-108921901D02*
G01*
X180187459Y-106361401D01*
X182747959Y-105909915D01*
X183199445Y-108470415D01*
X180638945Y-108921901D01*
G37*
G36*
X168882390Y-108760961D02*
G01*
X168430904Y-106200461D01*
X170991404Y-105748975D01*
X171442890Y-108309475D01*
X168882390Y-108760961D01*
G37*
%TD*%
%TO.C,U17*%
G36*
X136934089Y-133506377D02*
G01*
X137076481Y-132698834D01*
X138849135Y-133011401D01*
X138706743Y-133818944D01*
X136934089Y-133506377D01*
G37*
G36*
X137194561Y-132029166D02*
G01*
X137336953Y-131221623D01*
X139109607Y-131534190D01*
X138967215Y-132341733D01*
X137194561Y-132029166D01*
G37*
G36*
X132010050Y-132638137D02*
G01*
X132152442Y-131830594D01*
X133925096Y-132143161D01*
X133782704Y-132950704D01*
X132010050Y-132638137D01*
G37*
G36*
X132270523Y-131160925D02*
G01*
X132412915Y-130353382D01*
X134185569Y-130665949D01*
X134043177Y-131473492D01*
X132270523Y-131160925D01*
G37*
G36*
X135421046Y-144246811D02*
G01*
X135872532Y-141686311D01*
X138433032Y-142137797D01*
X137981546Y-144698297D01*
X135421046Y-144246811D01*
G37*
G36*
X124428542Y-140074597D02*
G01*
X124880028Y-137514097D01*
X127440528Y-137965583D01*
X126989042Y-140526083D01*
X124428542Y-140074597D01*
G37*
%TD*%
%TO.C,U16*%
G36*
X124764089Y-98867377D02*
G01*
X124906481Y-98059834D01*
X126679135Y-98372401D01*
X126536743Y-99179944D01*
X124764089Y-98867377D01*
G37*
G36*
X125024561Y-97390166D02*
G01*
X125166953Y-96582623D01*
X126939607Y-96895190D01*
X126797215Y-97702733D01*
X125024561Y-97390166D01*
G37*
G36*
X119840050Y-97999137D02*
G01*
X119982442Y-97191594D01*
X121755096Y-97504161D01*
X121612704Y-98311704D01*
X119840050Y-97999137D01*
G37*
G36*
X120100523Y-96521925D02*
G01*
X120242915Y-95714382D01*
X122015569Y-96026949D01*
X121873177Y-96834492D01*
X120100523Y-96521925D01*
G37*
G36*
X123251046Y-109607811D02*
G01*
X123702532Y-107047311D01*
X126263032Y-107498797D01*
X125811546Y-110059297D01*
X123251046Y-109607811D01*
G37*
G36*
X112258542Y-105435597D02*
G01*
X112710028Y-102875097D01*
X115270528Y-103326583D01*
X114819042Y-105887083D01*
X112258542Y-105435597D01*
G37*
%TD*%
%TO.C,U15*%
G36*
X107732089Y-91802177D02*
G01*
X107874481Y-90994634D01*
X109647135Y-91307201D01*
X109504743Y-92114744D01*
X107732089Y-91802177D01*
G37*
G36*
X107992561Y-90324966D02*
G01*
X108134953Y-89517423D01*
X109907607Y-89829990D01*
X109765215Y-90637533D01*
X107992561Y-90324966D01*
G37*
G36*
X102808050Y-90933937D02*
G01*
X102950442Y-90126394D01*
X104723096Y-90438961D01*
X104580704Y-91246504D01*
X102808050Y-90933937D01*
G37*
G36*
X103068523Y-89456725D02*
G01*
X103210915Y-88649182D01*
X104983569Y-88961749D01*
X104841177Y-89769292D01*
X103068523Y-89456725D01*
G37*
G36*
X106219046Y-102542611D02*
G01*
X106670532Y-99982111D01*
X109231032Y-100433597D01*
X108779546Y-102994097D01*
X106219046Y-102542611D01*
G37*
G36*
X95226542Y-98370397D02*
G01*
X95678028Y-95809897D01*
X98238528Y-96261383D01*
X97787042Y-98821883D01*
X95226542Y-98370397D01*
G37*
%TD*%
%TO.C,U14*%
G36*
X91047289Y-82767677D02*
G01*
X91189681Y-81960134D01*
X92962335Y-82272701D01*
X92819943Y-83080244D01*
X91047289Y-82767677D01*
G37*
G36*
X91307761Y-81290466D02*
G01*
X91450153Y-80482923D01*
X93222807Y-80795490D01*
X93080415Y-81603033D01*
X91307761Y-81290466D01*
G37*
G36*
X86123250Y-81899437D02*
G01*
X86265642Y-81091894D01*
X88038296Y-81404461D01*
X87895904Y-82212004D01*
X86123250Y-81899437D01*
G37*
G36*
X86383723Y-80422225D02*
G01*
X86526115Y-79614682D01*
X88298769Y-79927249D01*
X88156377Y-80734792D01*
X86383723Y-80422225D01*
G37*
G36*
X89534246Y-93508111D02*
G01*
X89985732Y-90947611D01*
X92546232Y-91399097D01*
X92094746Y-93959597D01*
X89534246Y-93508111D01*
G37*
G36*
X78541742Y-89335897D02*
G01*
X78993228Y-86775397D01*
X81553728Y-87226883D01*
X81102242Y-89787383D01*
X78541742Y-89335897D01*
G37*
%TD*%
%TO.C,U13*%
G36*
X72452489Y-84565977D02*
G01*
X72594881Y-83758434D01*
X74367535Y-84071001D01*
X74225143Y-84878544D01*
X72452489Y-84565977D01*
G37*
G36*
X72712961Y-83088766D02*
G01*
X72855353Y-82281223D01*
X74628007Y-82593790D01*
X74485615Y-83401333D01*
X72712961Y-83088766D01*
G37*
G36*
X67528450Y-83697737D02*
G01*
X67670842Y-82890194D01*
X69443496Y-83202761D01*
X69301104Y-84010304D01*
X67528450Y-83697737D01*
G37*
G36*
X67788923Y-82220525D02*
G01*
X67931315Y-81412982D01*
X69703969Y-81725549D01*
X69561577Y-82533092D01*
X67788923Y-82220525D01*
G37*
G36*
X70939446Y-95306411D02*
G01*
X71390932Y-92745911D01*
X73951432Y-93197397D01*
X73499946Y-95757897D01*
X70939446Y-95306411D01*
G37*
G36*
X59946942Y-91134197D02*
G01*
X60398428Y-88573697D01*
X62958928Y-89025183D01*
X62507442Y-91585683D01*
X59946942Y-91134197D01*
G37*
%TD*%
%TO.C,U12*%
G36*
X54204989Y-84394777D02*
G01*
X54347381Y-83587234D01*
X56120035Y-83899801D01*
X55977643Y-84707344D01*
X54204989Y-84394777D01*
G37*
G36*
X54465461Y-82917566D02*
G01*
X54607853Y-82110023D01*
X56380507Y-82422590D01*
X56238115Y-83230133D01*
X54465461Y-82917566D01*
G37*
G36*
X49280950Y-83526537D02*
G01*
X49423342Y-82718994D01*
X51195996Y-83031561D01*
X51053604Y-83839104D01*
X49280950Y-83526537D01*
G37*
G36*
X49541423Y-82049325D02*
G01*
X49683815Y-81241782D01*
X51456469Y-81554349D01*
X51314077Y-82361892D01*
X49541423Y-82049325D01*
G37*
G36*
X52691946Y-95135211D02*
G01*
X53143432Y-92574711D01*
X55703932Y-93026197D01*
X55252446Y-95586697D01*
X52691946Y-95135211D01*
G37*
G36*
X41699442Y-90962997D02*
G01*
X42150928Y-88402497D01*
X44711428Y-88853983D01*
X44259942Y-91414483D01*
X41699442Y-90962997D01*
G37*
%TD*%
%TO.C,U11*%
G36*
X245994296Y-67097304D02*
G01*
X245851904Y-66289761D01*
X247624558Y-65977194D01*
X247766950Y-66784737D01*
X245994296Y-67097304D01*
G37*
G36*
X245733823Y-65620092D02*
G01*
X245591431Y-64812549D01*
X247364085Y-64499982D01*
X247506477Y-65307525D01*
X245733823Y-65620092D01*
G37*
G36*
X241070257Y-67965544D02*
G01*
X240927865Y-67158001D01*
X242700519Y-66845434D01*
X242842911Y-67652977D01*
X241070257Y-67965544D01*
G37*
G36*
X240809785Y-66488333D02*
G01*
X240667393Y-65680790D01*
X242440047Y-65368223D01*
X242582439Y-66175766D01*
X240809785Y-66488333D01*
G37*
G36*
X248245945Y-77707501D02*
G01*
X247794459Y-75147001D01*
X250354959Y-74695515D01*
X250806445Y-77256015D01*
X248245945Y-77707501D01*
G37*
G36*
X236489390Y-77546561D02*
G01*
X236037904Y-74986061D01*
X238598404Y-74534575D01*
X239049890Y-77095075D01*
X236489390Y-77546561D01*
G37*
%TD*%
%TO.C,U10*%
G36*
X227747296Y-67268604D02*
G01*
X227604904Y-66461061D01*
X229377558Y-66148494D01*
X229519950Y-66956037D01*
X227747296Y-67268604D01*
G37*
G36*
X227486823Y-65791392D02*
G01*
X227344431Y-64983849D01*
X229117085Y-64671282D01*
X229259477Y-65478825D01*
X227486823Y-65791392D01*
G37*
G36*
X222823257Y-68136844D02*
G01*
X222680865Y-67329301D01*
X224453519Y-67016734D01*
X224595911Y-67824277D01*
X222823257Y-68136844D01*
G37*
G36*
X222562785Y-66659633D02*
G01*
X222420393Y-65852090D01*
X224193047Y-65539523D01*
X224335439Y-66347066D01*
X222562785Y-66659633D01*
G37*
G36*
X229998945Y-77878801D02*
G01*
X229547459Y-75318301D01*
X232107959Y-74866815D01*
X232559445Y-77427315D01*
X229998945Y-77878801D01*
G37*
G36*
X218242390Y-77717861D02*
G01*
X217790904Y-75157361D01*
X220351404Y-74705875D01*
X220802890Y-77266375D01*
X218242390Y-77717861D01*
G37*
%TD*%
%TO.C,U9*%
G36*
X209152296Y-65470204D02*
G01*
X209009904Y-64662661D01*
X210782558Y-64350094D01*
X210924950Y-65157637D01*
X209152296Y-65470204D01*
G37*
G36*
X208891823Y-63992992D02*
G01*
X208749431Y-63185449D01*
X210522085Y-62872882D01*
X210664477Y-63680425D01*
X208891823Y-63992992D01*
G37*
G36*
X204228257Y-66338444D02*
G01*
X204085865Y-65530901D01*
X205858519Y-65218334D01*
X206000911Y-66025877D01*
X204228257Y-66338444D01*
G37*
G36*
X203967785Y-64861233D02*
G01*
X203825393Y-64053690D01*
X205598047Y-63741123D01*
X205740439Y-64548666D01*
X203967785Y-64861233D01*
G37*
G36*
X211403945Y-76080401D02*
G01*
X210952459Y-73519901D01*
X213512959Y-73068415D01*
X213964445Y-75628915D01*
X211403945Y-76080401D01*
G37*
G36*
X199647390Y-75919461D02*
G01*
X199195904Y-73358961D01*
X201756404Y-72907475D01*
X202207890Y-75467975D01*
X199647390Y-75919461D01*
G37*
%TD*%
%TO.C,U7*%
G36*
X175435296Y-81569604D02*
G01*
X175292904Y-80762061D01*
X177065558Y-80449494D01*
X177207950Y-81257037D01*
X175435296Y-81569604D01*
G37*
G36*
X175174823Y-80092392D02*
G01*
X175032431Y-79284849D01*
X176805085Y-78972282D01*
X176947477Y-79779825D01*
X175174823Y-80092392D01*
G37*
G36*
X170511257Y-82437844D02*
G01*
X170368865Y-81630301D01*
X172141519Y-81317734D01*
X172283911Y-82125277D01*
X170511257Y-82437844D01*
G37*
G36*
X170250785Y-80960633D02*
G01*
X170108393Y-80153090D01*
X171881047Y-79840523D01*
X172023439Y-80648066D01*
X170250785Y-80960633D01*
G37*
G36*
X177686945Y-92179801D02*
G01*
X177235459Y-89619301D01*
X179795959Y-89167815D01*
X180247445Y-91728315D01*
X177686945Y-92179801D01*
G37*
G36*
X165930390Y-92018861D02*
G01*
X165478904Y-89458361D01*
X168039404Y-89006875D01*
X168490890Y-91567375D01*
X165930390Y-92018861D01*
G37*
%TD*%
%TO.C,U6*%
G36*
X139886089Y-116764377D02*
G01*
X140028481Y-115956834D01*
X141801135Y-116269401D01*
X141658743Y-117076944D01*
X139886089Y-116764377D01*
G37*
G36*
X140146561Y-115287166D02*
G01*
X140288953Y-114479623D01*
X142061607Y-114792190D01*
X141919215Y-115599733D01*
X140146561Y-115287166D01*
G37*
G36*
X134962050Y-115896137D02*
G01*
X135104442Y-115088594D01*
X136877096Y-115401161D01*
X136734704Y-116208704D01*
X134962050Y-115896137D01*
G37*
G36*
X135222523Y-114418925D02*
G01*
X135364915Y-113611382D01*
X137137569Y-113923949D01*
X136995177Y-114731492D01*
X135222523Y-114418925D01*
G37*
G36*
X138373046Y-127504811D02*
G01*
X138824532Y-124944311D01*
X141385032Y-125395797D01*
X140933546Y-127956297D01*
X138373046Y-127504811D01*
G37*
G36*
X127380542Y-123332597D02*
G01*
X127832028Y-120772097D01*
X130392528Y-121223583D01*
X129941042Y-123784083D01*
X127380542Y-123332597D01*
G37*
%TD*%
%TO.C,U5*%
G36*
X127716089Y-82125277D02*
G01*
X127858481Y-81317734D01*
X129631135Y-81630301D01*
X129488743Y-82437844D01*
X127716089Y-82125277D01*
G37*
G36*
X127976561Y-80648066D02*
G01*
X128118953Y-79840523D01*
X129891607Y-80153090D01*
X129749215Y-80960633D01*
X127976561Y-80648066D01*
G37*
G36*
X122792050Y-81257037D02*
G01*
X122934442Y-80449494D01*
X124707096Y-80762061D01*
X124564704Y-81569604D01*
X122792050Y-81257037D01*
G37*
G36*
X123052523Y-79779825D02*
G01*
X123194915Y-78972282D01*
X124967569Y-79284849D01*
X124825177Y-80092392D01*
X123052523Y-79779825D01*
G37*
G36*
X126203046Y-92865711D02*
G01*
X126654532Y-90305211D01*
X129215032Y-90756697D01*
X128763546Y-93317197D01*
X126203046Y-92865711D01*
G37*
G36*
X115210542Y-88693497D02*
G01*
X115662028Y-86132997D01*
X118222528Y-86584483D01*
X117771042Y-89144983D01*
X115210542Y-88693497D01*
G37*
%TD*%
%TO.C,U4*%
G36*
X110684089Y-75060377D02*
G01*
X110826481Y-74252834D01*
X112599135Y-74565401D01*
X112456743Y-75372944D01*
X110684089Y-75060377D01*
G37*
G36*
X110944561Y-73583166D02*
G01*
X111086953Y-72775623D01*
X112859607Y-73088190D01*
X112717215Y-73895733D01*
X110944561Y-73583166D01*
G37*
G36*
X105760050Y-74192137D02*
G01*
X105902442Y-73384594D01*
X107675096Y-73697161D01*
X107532704Y-74504704D01*
X105760050Y-74192137D01*
G37*
G36*
X106020523Y-72714925D02*
G01*
X106162915Y-71907382D01*
X107935569Y-72219949D01*
X107793177Y-73027492D01*
X106020523Y-72714925D01*
G37*
G36*
X109171046Y-85800811D02*
G01*
X109622532Y-83240311D01*
X112183032Y-83691797D01*
X111731546Y-86252297D01*
X109171046Y-85800811D01*
G37*
G36*
X98178542Y-81628597D02*
G01*
X98630028Y-79068097D01*
X101190528Y-79519583D01*
X100739042Y-82080083D01*
X98178542Y-81628597D01*
G37*
%TD*%
%TO.C,U3*%
G36*
X93999289Y-66025877D02*
G01*
X94141681Y-65218334D01*
X95914335Y-65530901D01*
X95771943Y-66338444D01*
X93999289Y-66025877D01*
G37*
G36*
X94259761Y-64548666D02*
G01*
X94402153Y-63741123D01*
X96174807Y-64053690D01*
X96032415Y-64861233D01*
X94259761Y-64548666D01*
G37*
G36*
X89075250Y-65157637D02*
G01*
X89217642Y-64350094D01*
X90990296Y-64662661D01*
X90847904Y-65470204D01*
X89075250Y-65157637D01*
G37*
G36*
X89335723Y-63680425D02*
G01*
X89478115Y-62872882D01*
X91250769Y-63185449D01*
X91108377Y-63992992D01*
X89335723Y-63680425D01*
G37*
G36*
X92486246Y-76766311D02*
G01*
X92937732Y-74205811D01*
X95498232Y-74657297D01*
X95046746Y-77217797D01*
X92486246Y-76766311D01*
G37*
G36*
X81493742Y-72594097D02*
G01*
X81945228Y-70033597D01*
X84505728Y-70485083D01*
X84054242Y-73045583D01*
X81493742Y-72594097D01*
G37*
%TD*%
%TO.C,LS1*%
G36*
X133774033Y-72253802D02*
G01*
X133392007Y-74420380D01*
X131225429Y-74038354D01*
X131607455Y-71871776D01*
X133774033Y-72253802D01*
G37*
G36*
X120774571Y-69961646D02*
G01*
X120392545Y-72128224D01*
X118225967Y-71746198D01*
X118607993Y-69579620D01*
X120774571Y-69961646D01*
G37*
%TD*%
%TO.C,D1*%
G36*
X60200738Y-78077581D02*
G01*
X61382507Y-78285958D01*
X61226224Y-79172285D01*
X60044455Y-78963908D01*
X60200738Y-78077581D01*
G37*
G36*
X60773776Y-74827715D02*
G01*
X61955545Y-75036092D01*
X61799262Y-75922419D01*
X60617493Y-75714042D01*
X60773776Y-74827715D01*
G37*
%TD*%
%TO.C,D2*%
G36*
X79773776Y-74827715D02*
G01*
X80955545Y-75036092D01*
X80799262Y-75922419D01*
X79617493Y-75714042D01*
X79773776Y-74827715D01*
G37*
G36*
X79200738Y-78077581D02*
G01*
X80382507Y-78285958D01*
X80226224Y-79172285D01*
X79044455Y-78963908D01*
X79200738Y-78077581D01*
G37*
%TD*%
%TO.C,D3*%
G36*
X98773776Y-72827715D02*
G01*
X99955545Y-73036092D01*
X99799262Y-73922419D01*
X98617493Y-73714042D01*
X98773776Y-72827715D01*
G37*
G36*
X98200738Y-76077581D02*
G01*
X99382507Y-76285958D01*
X99226224Y-77172285D01*
X98044455Y-76963908D01*
X98200738Y-76077581D01*
G37*
%TD*%
%TO.C,D4*%
G36*
X113200738Y-85077581D02*
G01*
X114382507Y-85285958D01*
X114226224Y-86172285D01*
X113044455Y-85963908D01*
X113200738Y-85077581D01*
G37*
G36*
X113773776Y-81827715D02*
G01*
X114955545Y-82036092D01*
X114799262Y-82922419D01*
X113617493Y-82714042D01*
X113773776Y-81827715D01*
G37*
%TD*%
%TO.C,D5*%
G36*
X131773776Y-88827715D02*
G01*
X132955545Y-89036092D01*
X132799262Y-89922419D01*
X131617493Y-89714042D01*
X131773776Y-88827715D01*
G37*
G36*
X131200738Y-92077581D02*
G01*
X132382507Y-92285958D01*
X132226224Y-93172285D01*
X131044455Y-92963908D01*
X131200738Y-92077581D01*
G37*
%TD*%
%TO.C,D6*%
G36*
X143310776Y-123202715D02*
G01*
X144492545Y-123411092D01*
X144336262Y-124297419D01*
X143154493Y-124089042D01*
X143310776Y-123202715D01*
G37*
G36*
X142737738Y-126452581D02*
G01*
X143919507Y-126660958D01*
X143763224Y-127547285D01*
X142581455Y-127338908D01*
X142737738Y-126452581D01*
G37*
%TD*%
%TO.C,D9*%
G36*
X214257455Y-69911192D02*
G01*
X215439224Y-69702815D01*
X215595507Y-70589142D01*
X214413738Y-70797519D01*
X214257455Y-69911192D01*
G37*
G36*
X214830493Y-73161058D02*
G01*
X216012262Y-72952681D01*
X216168545Y-73839008D01*
X214986776Y-74047385D01*
X214830493Y-73161058D01*
G37*
%TD*%
%TO.C,D10*%
G36*
X233007455Y-72411192D02*
G01*
X234189224Y-72202815D01*
X234345507Y-73089142D01*
X233163738Y-73297519D01*
X233007455Y-72411192D01*
G37*
G36*
X233580493Y-75661058D02*
G01*
X234762262Y-75452681D01*
X234918545Y-76339008D01*
X233736776Y-76547385D01*
X233580493Y-75661058D01*
G37*
%TD*%
%TO.C,D11*%
G36*
X251757455Y-72161192D02*
G01*
X252939224Y-71952815D01*
X253095507Y-72839142D01*
X251913738Y-73047519D01*
X251757455Y-72161192D01*
G37*
G36*
X252330493Y-75411058D02*
G01*
X253512262Y-75202681D01*
X253668545Y-76089008D01*
X252486776Y-76297385D01*
X252330493Y-75411058D01*
G37*
%TD*%
%TO.C,D12*%
G36*
X57700738Y-94827581D02*
G01*
X58882507Y-95035958D01*
X58726224Y-95922285D01*
X57544455Y-95713908D01*
X57700738Y-94827581D01*
G37*
G36*
X58273776Y-91577715D02*
G01*
X59455545Y-91786092D01*
X59299262Y-92672419D01*
X58117493Y-92464042D01*
X58273776Y-91577715D01*
G37*
%TD*%
%TO.C,D13*%
G36*
X76200738Y-95077581D02*
G01*
X77382507Y-95285958D01*
X77226224Y-96172285D01*
X76044455Y-95963908D01*
X76200738Y-95077581D01*
G37*
G36*
X76773776Y-91827715D02*
G01*
X77955545Y-92036092D01*
X77799262Y-92922419D01*
X76617493Y-92714042D01*
X76773776Y-91827715D01*
G37*
%TD*%
%TO.C,D14*%
G36*
X95200738Y-93077581D02*
G01*
X96382507Y-93285958D01*
X96226224Y-94172285D01*
X95044455Y-93963908D01*
X95200738Y-93077581D01*
G37*
G36*
X95773776Y-89827715D02*
G01*
X96955545Y-90036092D01*
X96799262Y-90922419D01*
X95617493Y-90714042D01*
X95773776Y-89827715D01*
G37*
%TD*%
%TO.C,D15*%
G36*
X111773776Y-97827715D02*
G01*
X112955545Y-98036092D01*
X112799262Y-98922419D01*
X111617493Y-98714042D01*
X111773776Y-97827715D01*
G37*
G36*
X111200738Y-101077581D02*
G01*
X112382507Y-101285958D01*
X112226224Y-102172285D01*
X111044455Y-101963908D01*
X111200738Y-101077581D01*
G37*
%TD*%
%TO.C,D16*%
G36*
X128200738Y-109077581D02*
G01*
X129382507Y-109285958D01*
X129226224Y-110172285D01*
X128044455Y-109963908D01*
X128200738Y-109077581D01*
G37*
G36*
X128773776Y-105827715D02*
G01*
X129955545Y-106036092D01*
X129799262Y-106922419D01*
X128617493Y-106714042D01*
X128773776Y-105827715D01*
G37*
%TD*%
%TO.C,D17*%
G36*
X139987738Y-143452581D02*
G01*
X141169507Y-143660958D01*
X141013224Y-144547285D01*
X139831455Y-144338908D01*
X139987738Y-143452581D01*
G37*
G36*
X140560776Y-140202715D02*
G01*
X141742545Y-140411092D01*
X141586262Y-141297419D01*
X140404493Y-141089042D01*
X140560776Y-140202715D01*
G37*
%TD*%
%TO.C,D18*%
G36*
X184830493Y-106660958D02*
G01*
X186012262Y-106452581D01*
X186168545Y-107338908D01*
X184986776Y-107547285D01*
X184830493Y-106660958D01*
G37*
G36*
X184257455Y-103411092D02*
G01*
X185439224Y-103202715D01*
X185595507Y-104089042D01*
X184413738Y-104297419D01*
X184257455Y-103411092D01*
G37*
%TD*%
%TO.C,D19*%
G36*
X201007455Y-95911192D02*
G01*
X202189224Y-95702815D01*
X202345507Y-96589142D01*
X201163738Y-96797519D01*
X201007455Y-95911192D01*
G37*
G36*
X201580493Y-99161058D02*
G01*
X202762262Y-98952681D01*
X202918545Y-99839008D01*
X201736776Y-100047385D01*
X201580493Y-99161058D01*
G37*
%TD*%
%TO.C,D20*%
G36*
X218867493Y-90285958D02*
G01*
X220049262Y-90077581D01*
X220205545Y-90963908D01*
X219023776Y-91172285D01*
X218867493Y-90285958D01*
G37*
G36*
X218294455Y-87036092D02*
G01*
X219476224Y-86827715D01*
X219632507Y-87714042D01*
X218450738Y-87922419D01*
X218294455Y-87036092D01*
G37*
%TD*%
%TO.C,D21*%
G36*
X236580493Y-91411058D02*
G01*
X237762262Y-91202681D01*
X237918545Y-92089008D01*
X236736776Y-92297385D01*
X236580493Y-91411058D01*
G37*
G36*
X236007455Y-88161192D02*
G01*
X237189224Y-87952815D01*
X237345507Y-88839142D01*
X236163738Y-89047519D01*
X236007455Y-88161192D01*
G37*
%TD*%
%TO.C,D23*%
G36*
X55523776Y-108327715D02*
G01*
X56705545Y-108536092D01*
X56549262Y-109422419D01*
X55367493Y-109214042D01*
X55523776Y-108327715D01*
G37*
G36*
X54950738Y-111577581D02*
G01*
X56132507Y-111785958D01*
X55976224Y-112672285D01*
X54794455Y-112463908D01*
X54950738Y-111577581D01*
G37*
%TD*%
%TO.C,D24*%
G36*
X72987276Y-107952715D02*
G01*
X74169045Y-108161092D01*
X74012762Y-109047419D01*
X72830993Y-108839042D01*
X72987276Y-107952715D01*
G37*
G36*
X72414238Y-111202581D02*
G01*
X73596007Y-111410958D01*
X73439724Y-112297285D01*
X72257955Y-112088908D01*
X72414238Y-111202581D01*
G37*
%TD*%
%TO.C,D25*%
G36*
X91737276Y-106202715D02*
G01*
X92919045Y-106411092D01*
X92762762Y-107297419D01*
X91580993Y-107089042D01*
X91737276Y-106202715D01*
G37*
G36*
X91164238Y-109452581D02*
G01*
X92346007Y-109660958D01*
X92189724Y-110547285D01*
X91007955Y-110338908D01*
X91164238Y-109452581D01*
G37*
%TD*%
%TO.C,D26*%
G36*
X108060776Y-115202715D02*
G01*
X109242545Y-115411092D01*
X109086262Y-116297419D01*
X107904493Y-116089042D01*
X108060776Y-115202715D01*
G37*
G36*
X107487738Y-118452581D02*
G01*
X108669507Y-118660958D01*
X108513224Y-119547285D01*
X107331455Y-119338908D01*
X107487738Y-118452581D01*
G37*
%TD*%
%TO.C,D27*%
G36*
X125060776Y-122452715D02*
G01*
X126242545Y-122661092D01*
X126086262Y-123547419D01*
X124904493Y-123339042D01*
X125060776Y-122452715D01*
G37*
G36*
X124487738Y-125702581D02*
G01*
X125669507Y-125910958D01*
X125513224Y-126797285D01*
X124331455Y-126588908D01*
X124487738Y-125702581D01*
G37*
%TD*%
%TO.C,D31*%
G36*
X220257455Y-103911092D02*
G01*
X221439224Y-103702715D01*
X221595507Y-104589042D01*
X220413738Y-104797419D01*
X220257455Y-103911092D01*
G37*
G36*
X220830493Y-107160958D02*
G01*
X222012262Y-106952581D01*
X222168545Y-107838908D01*
X220986776Y-108047285D01*
X220830493Y-107160958D01*
G37*
%TD*%
%TO.C,D32*%
G36*
X239007455Y-105911092D02*
G01*
X240189224Y-105702715D01*
X240345507Y-106589042D01*
X239163738Y-106797419D01*
X239007455Y-105911092D01*
G37*
G36*
X239580493Y-109160958D02*
G01*
X240762262Y-108952581D01*
X240918545Y-109838908D01*
X239736776Y-110047285D01*
X239580493Y-109160958D01*
G37*
%TD*%
%TO.C,D33*%
G36*
X257257455Y-105661092D02*
G01*
X258439224Y-105452715D01*
X258595507Y-106339042D01*
X257413738Y-106547419D01*
X257257455Y-105661092D01*
G37*
G36*
X257830493Y-108910958D02*
G01*
X259012262Y-108702581D01*
X259168545Y-109588908D01*
X257986776Y-109797285D01*
X257830493Y-108910958D01*
G37*
%TD*%
%TO.C,D34*%
G36*
X51450738Y-128077581D02*
G01*
X52632507Y-128285958D01*
X52476224Y-129172285D01*
X51294455Y-128963908D01*
X51450738Y-128077581D01*
G37*
G36*
X52023776Y-124827715D02*
G01*
X53205545Y-125036092D01*
X53049262Y-125922419D01*
X51867493Y-125714042D01*
X52023776Y-124827715D01*
G37*
%TD*%
%TO.C,D35*%
G36*
X69487238Y-128452581D02*
G01*
X70669007Y-128660958D01*
X70512724Y-129547285D01*
X69330955Y-129338908D01*
X69487238Y-128452581D01*
G37*
G36*
X70060276Y-125202715D02*
G01*
X71242045Y-125411092D01*
X71085762Y-126297419D01*
X69903993Y-126089042D01*
X70060276Y-125202715D01*
G37*
%TD*%
%TO.C,D36*%
G36*
X88237238Y-126452581D02*
G01*
X89419007Y-126660958D01*
X89262724Y-127547285D01*
X88080955Y-127338908D01*
X88237238Y-126452581D01*
G37*
G36*
X88810276Y-123202715D02*
G01*
X89992045Y-123411092D01*
X89835762Y-124297419D01*
X88653993Y-124089042D01*
X88810276Y-123202715D01*
G37*
%TD*%
%TO.C,D37*%
G36*
X104987738Y-135452581D02*
G01*
X106169507Y-135660958D01*
X106013224Y-136547285D01*
X104831455Y-136338908D01*
X104987738Y-135452581D01*
G37*
G36*
X105560776Y-132202715D02*
G01*
X106742545Y-132411092D01*
X106586262Y-133297419D01*
X105404493Y-133089042D01*
X105560776Y-132202715D01*
G37*
%TD*%
%TO.C,D38*%
G36*
X121987738Y-142452581D02*
G01*
X123169507Y-142660958D01*
X123013224Y-143547285D01*
X121831455Y-143338908D01*
X121987738Y-142452581D01*
G37*
G36*
X122560776Y-139202715D02*
G01*
X123742545Y-139411092D01*
X123586262Y-140297419D01*
X122404493Y-140089042D01*
X122560776Y-139202715D01*
G37*
%TD*%
%TO.C,D42*%
G36*
X224080493Y-123910958D02*
G01*
X225262262Y-123702581D01*
X225418545Y-124588908D01*
X224236776Y-124797285D01*
X224080493Y-123910958D01*
G37*
G36*
X223507455Y-120661092D02*
G01*
X224689224Y-120452715D01*
X224845507Y-121339042D01*
X223663738Y-121547419D01*
X223507455Y-120661092D01*
G37*
%TD*%
%TO.C,D43*%
G36*
X242080493Y-125660958D02*
G01*
X243262262Y-125452581D01*
X243418545Y-126338908D01*
X242236776Y-126547285D01*
X242080493Y-125660958D01*
G37*
G36*
X241507455Y-122411092D02*
G01*
X242689224Y-122202715D01*
X242845507Y-123089042D01*
X241663738Y-123297419D01*
X241507455Y-122411092D01*
G37*
%TD*%
%TO.C,D44*%
G36*
X260580493Y-125410958D02*
G01*
X261762262Y-125202581D01*
X261918545Y-126088908D01*
X260736776Y-126297285D01*
X260580493Y-125410958D01*
G37*
G36*
X260007455Y-122161092D02*
G01*
X261189224Y-121952715D01*
X261345507Y-122839042D01*
X260163738Y-123047419D01*
X260007455Y-122161092D01*
G37*
%TD*%
M02*
