%TF.GenerationSoftware,KiCad,Pcbnew,(5.1.10)-1*%
%TF.CreationDate,2021-11-02T21:32:16-06:00*%
%TF.ProjectId,VColChoc44,56436f6c-4368-46f6-9334-342e6b696361,rev?*%
%TF.SameCoordinates,Original*%
%TF.FileFunction,Copper,L2,Bot*%
%TF.FilePolarity,Positive*%
%FSLAX46Y46*%
G04 Gerber Fmt 4.6, Leading zero omitted, Abs format (unit mm)*
G04 Created by KiCad (PCBNEW (5.1.10)-1) date 2021-11-02 21:32:16*
%MOMM*%
%LPD*%
G01*
G04 APERTURE LIST*
%TA.AperFunction,ComponentPad*%
%ADD10C,1.600000*%
%TD*%
%TA.AperFunction,SMDPad,CuDef*%
%ADD11R,0.600000X1.450000*%
%TD*%
%TA.AperFunction,SMDPad,CuDef*%
%ADD12R,0.300000X1.450000*%
%TD*%
%TA.AperFunction,ComponentPad*%
%ADD13O,1.000000X2.100000*%
%TD*%
%TA.AperFunction,ComponentPad*%
%ADD14O,1.000000X1.600000*%
%TD*%
%TA.AperFunction,ComponentPad*%
%ADD15C,0.100000*%
%TD*%
%TA.AperFunction,SMDPad,CuDef*%
%ADD16C,0.100000*%
%TD*%
%TA.AperFunction,SMDPad,CuDef*%
%ADD17R,1.800000X1.100000*%
%TD*%
%TA.AperFunction,SMDPad,CuDef*%
%ADD18R,0.900000X0.900000*%
%TD*%
%TA.AperFunction,SMDPad,CuDef*%
%ADD19R,0.900000X1.250000*%
%TD*%
%TA.AperFunction,WasherPad*%
%ADD20C,1.000000*%
%TD*%
%TA.AperFunction,SMDPad,CuDef*%
%ADD21R,2.200000X2.200000*%
%TD*%
%TA.AperFunction,ViaPad*%
%ADD22C,0.800000*%
%TD*%
%TA.AperFunction,Conductor*%
%ADD23C,0.250000*%
%TD*%
%TA.AperFunction,Conductor*%
%ADD24C,0.500000*%
%TD*%
%TA.AperFunction,Conductor*%
%ADD25C,0.200000*%
%TD*%
G04 APERTURE END LIST*
D10*
%TO.P,U44,4*%
%TO.N,N/C*%
X247853690Y-117378498D03*
%TO.P,U44,5*%
X258292652Y-115537828D03*
%TO.P,U44,3*%
X250273186Y-126953828D03*
%TO.P,U44,1*%
%TO.N,COL11*%
X256805315Y-126106665D03*
%TD*%
%TO.P,U32,4*%
%TO.N,N/C*%
X226654690Y-100807498D03*
%TO.P,U32,5*%
X237093652Y-98966828D03*
%TO.P,U32,3*%
X229074186Y-110382828D03*
%TO.P,U32,1*%
%TO.N,COL10*%
X235606315Y-109535665D03*
%TD*%
%TO.P,U43,4*%
%TO.N,N/C*%
X229606690Y-117549498D03*
%TO.P,U43,5*%
X240045652Y-115708828D03*
%TO.P,U43,3*%
X232026186Y-127124828D03*
%TO.P,U43,1*%
%TO.N,COL10*%
X238558315Y-126277665D03*
%TD*%
%TO.P,U42,4*%
%TO.N,N/C*%
X211011690Y-115751498D03*
%TO.P,U42,5*%
X221450652Y-113910828D03*
%TO.P,U42,3*%
X213431186Y-125326828D03*
%TO.P,U42,1*%
%TO.N,COL9*%
X219963315Y-124479665D03*
%TD*%
%TO.P,U41,4*%
%TO.N,N/C*%
X194326690Y-124785498D03*
%TO.P,U41,5*%
X204765652Y-122944828D03*
%TO.P,U41,3*%
X196746186Y-134360828D03*
%TO.P,U41,1*%
%TO.N,COL8*%
X203278315Y-133513665D03*
%TD*%
%TO.P,U40,4*%
%TO.N,N/C*%
X177294690Y-131850498D03*
%TO.P,U40,5*%
X187733652Y-130009828D03*
%TO.P,U40,3*%
X179714186Y-141425828D03*
%TO.P,U40,1*%
%TO.N,COL7*%
X186246315Y-140578665D03*
%TD*%
%TO.P,U39,4*%
%TO.N,N/C*%
X159220690Y-133006498D03*
%TO.P,U39,5*%
X169659652Y-131165828D03*
%TO.P,U39,3*%
X161640186Y-142581828D03*
%TO.P,U39,1*%
%TO.N,COL6*%
X168172315Y-141734665D03*
%TD*%
%TO.P,U33,4*%
%TO.N,N/C*%
X244901690Y-100636498D03*
%TO.P,U33,5*%
X255340652Y-98795828D03*
%TO.P,U33,3*%
X247321186Y-110211828D03*
%TO.P,U33,1*%
%TO.N,COL11*%
X253853315Y-109364665D03*
%TD*%
%TO.P,U31,4*%
%TO.N,N/C*%
X208059690Y-99009498D03*
%TO.P,U31,5*%
X218498652Y-97168828D03*
%TO.P,U31,3*%
X210479186Y-108584828D03*
%TO.P,U31,1*%
%TO.N,COL9*%
X217011315Y-107737665D03*
%TD*%
%TO.P,U30,4*%
%TO.N,N/C*%
X191374690Y-108043498D03*
%TO.P,U30,5*%
X201813652Y-106202828D03*
%TO.P,U30,3*%
X193794186Y-117618828D03*
%TO.P,U30,1*%
%TO.N,COL8*%
X200326315Y-116771665D03*
%TD*%
%TO.P,U29,4*%
%TO.N,N/C*%
X174342690Y-115108498D03*
%TO.P,U29,5*%
X184781652Y-113267828D03*
%TO.P,U29,3*%
X176762186Y-124683828D03*
%TO.P,U29,1*%
%TO.N,COL7*%
X183294315Y-123836665D03*
%TD*%
%TO.P,U28,4*%
%TO.N,N/C*%
X156268690Y-116264498D03*
%TO.P,U28,5*%
X166707652Y-114423828D03*
%TO.P,U28,3*%
X158688186Y-125839828D03*
%TO.P,U28,1*%
%TO.N,COL6*%
X165220315Y-124992665D03*
%TD*%
%TO.P,U38,4*%
%TO.N,N/C*%
X112266348Y-130009828D03*
%TO.P,U38,5*%
X122705310Y-131850498D03*
%TO.P,U38,3*%
X111264975Y-139835211D03*
%TO.P,U38,1*%
%TO.N,COL5*%
X117692916Y-141273258D03*
%TD*%
%TO.P,U37,4*%
%TO.N,N/C*%
X95234148Y-122944828D03*
%TO.P,U37,5*%
X105673110Y-124785498D03*
%TO.P,U37,3*%
X94232775Y-132770211D03*
%TO.P,U37,1*%
%TO.N,COL4*%
X100660716Y-134208258D03*
%TD*%
%TO.P,U36,4*%
%TO.N,N/C*%
X78549548Y-113910828D03*
%TO.P,U36,5*%
X88988510Y-115751498D03*
%TO.P,U36,3*%
X77548175Y-123736211D03*
%TO.P,U36,1*%
%TO.N,COL3*%
X83976116Y-125174258D03*
%TD*%
%TO.P,U35,4*%
%TO.N,N/C*%
X59954748Y-115708828D03*
%TO.P,U35,5*%
X70393710Y-117549498D03*
%TO.P,U35,3*%
X58953375Y-125534211D03*
%TO.P,U35,1*%
%TO.N,COL2*%
X65381316Y-126972258D03*
%TD*%
%TO.P,U34,4*%
%TO.N,N/C*%
X41707248Y-115537828D03*
%TO.P,U34,5*%
X52146210Y-117378498D03*
%TO.P,U34,3*%
X40705875Y-125363211D03*
%TO.P,U34,1*%
%TO.N,COL1*%
X47133816Y-126801258D03*
%TD*%
%TO.P,U27,4*%
%TO.N,N/C*%
X115218348Y-113267828D03*
%TO.P,U27,5*%
X125657310Y-115108498D03*
%TO.P,U27,3*%
X114216975Y-123093211D03*
%TO.P,U27,1*%
%TO.N,COL5*%
X120644916Y-124531258D03*
%TD*%
%TO.P,U26,4*%
%TO.N,N/C*%
X98186348Y-106202828D03*
%TO.P,U26,5*%
X108625310Y-108043498D03*
%TO.P,U26,3*%
X97184975Y-116028211D03*
%TO.P,U26,1*%
%TO.N,COL4*%
X103612916Y-117466258D03*
%TD*%
%TO.P,U25,4*%
%TO.N,N/C*%
X81501548Y-97168828D03*
%TO.P,U25,5*%
X91940510Y-99009498D03*
%TO.P,U25,3*%
X80500175Y-106994211D03*
%TO.P,U25,1*%
%TO.N,COL3*%
X86928116Y-108432258D03*
%TD*%
%TO.P,U24,4*%
%TO.N,N/C*%
X62906748Y-98966828D03*
%TO.P,U24,5*%
X73345710Y-100807498D03*
%TO.P,U24,3*%
X61905375Y-108792211D03*
%TO.P,U24,1*%
%TO.N,COL2*%
X68333316Y-110230258D03*
%TD*%
%TO.P,U23,4*%
%TO.N,N/C*%
X44683183Y-98827303D03*
%TO.P,U23,5*%
X55122145Y-100667973D03*
%TO.P,U23,3*%
X43681810Y-108652686D03*
%TO.P,U23,1*%
%TO.N,COL1*%
X50109751Y-110090733D03*
%TD*%
%TO.P,U22,4*%
%TO.N,N/C*%
X241949690Y-83894898D03*
%TO.P,U22,5*%
X252388652Y-82054228D03*
%TO.P,U22,3*%
X244369186Y-93470228D03*
%TO.P,U22,1*%
%TO.N,COL11*%
X250901315Y-92623065D03*
%TD*%
%TO.P,U21,4*%
%TO.N,N/C*%
X223702690Y-84066098D03*
%TO.P,U21,5*%
X234141652Y-82225428D03*
%TO.P,U21,3*%
X226122186Y-93641428D03*
%TO.P,U21,1*%
%TO.N,COL10*%
X232654315Y-92794265D03*
%TD*%
%TO.P,U20,4*%
%TO.N,N/C*%
X205107690Y-82267798D03*
%TO.P,U20,5*%
X215546652Y-80427128D03*
%TO.P,U20,3*%
X207527186Y-91843128D03*
%TO.P,U20,1*%
%TO.N,COL9*%
X214059315Y-90995965D03*
%TD*%
%TO.P,U19,4*%
%TO.N,N/C*%
X188422690Y-91302298D03*
%TO.P,U19,5*%
X198861652Y-89461628D03*
%TO.P,U19,3*%
X190842186Y-100877628D03*
%TO.P,U19,1*%
%TO.N,COL8*%
X197374315Y-100030465D03*
%TD*%
%TO.P,U18,4*%
%TO.N,N/C*%
X171390690Y-98367498D03*
%TO.P,U18,5*%
X181829652Y-96526828D03*
%TO.P,U18,3*%
X173810186Y-107942828D03*
%TO.P,U18,1*%
%TO.N,COL7*%
X180342315Y-107095665D03*
%TD*%
%TO.P,U17,4*%
%TO.N,N/C*%
X130340348Y-131165828D03*
%TO.P,U17,5*%
X140779310Y-133006498D03*
%TO.P,U17,3*%
X129338975Y-140991211D03*
%TO.P,U17,1*%
%TO.N,COL6*%
X135766916Y-142429258D03*
%TD*%
%TO.P,U16,4*%
%TO.N,N/C*%
X118170348Y-96526828D03*
%TO.P,U16,5*%
X128609310Y-98367498D03*
%TO.P,U16,3*%
X117168975Y-106352211D03*
%TO.P,U16,1*%
%TO.N,COL5*%
X123596916Y-107790258D03*
%TD*%
%TO.P,U15,4*%
%TO.N,N/C*%
X101138348Y-89461628D03*
%TO.P,U15,5*%
X111577310Y-91302298D03*
%TO.P,U15,3*%
X100136975Y-99287011D03*
%TO.P,U15,1*%
%TO.N,COL4*%
X106564916Y-100725058D03*
%TD*%
%TO.P,U14,4*%
%TO.N,N/C*%
X84474391Y-80448318D03*
%TO.P,U14,5*%
X94913353Y-82288988D03*
%TO.P,U14,3*%
X83473018Y-90273701D03*
%TO.P,U14,1*%
%TO.N,COL3*%
X89900959Y-91711748D03*
%TD*%
%TO.P,U13,4*%
%TO.N,N/C*%
X65868885Y-82259627D03*
%TO.P,U13,5*%
X76307847Y-84100297D03*
%TO.P,U13,3*%
X64867512Y-92085010D03*
%TO.P,U13,1*%
%TO.N,COL2*%
X71295453Y-93523057D03*
%TD*%
%TO.P,U11,4*%
%TO.N,N/C*%
X238997690Y-67153098D03*
%TO.P,U11,5*%
X249436652Y-65312428D03*
%TO.P,U11,3*%
X241417186Y-76728428D03*
%TO.P,U11,1*%
%TO.N,COL11*%
X247949315Y-75881265D03*
%TD*%
%TO.P,U10,4*%
%TO.N,N/C*%
X220750690Y-67324398D03*
%TO.P,U10,5*%
X231189652Y-65483728D03*
%TO.P,U10,3*%
X223170186Y-76899728D03*
%TO.P,U10,1*%
%TO.N,COL10*%
X229702315Y-76052565D03*
%TD*%
%TO.P,U9,4*%
%TO.N,N/C*%
X202155690Y-65525998D03*
%TO.P,U9,5*%
X212594652Y-63685328D03*
%TO.P,U9,3*%
X204575186Y-75101328D03*
%TO.P,U9,1*%
%TO.N,COL9*%
X211107315Y-74254165D03*
%TD*%
%TO.P,U8,4*%
%TO.N,N/C*%
X185470690Y-74560498D03*
%TO.P,U8,5*%
X195909652Y-72719828D03*
%TO.P,U8,3*%
X187890186Y-84135828D03*
%TO.P,U8,1*%
%TO.N,COL8*%
X194422315Y-83288665D03*
%TD*%
%TO.P,U7,4*%
%TO.N,N/C*%
X168438690Y-81625398D03*
%TO.P,U7,5*%
X178877652Y-79784728D03*
%TO.P,U7,3*%
X170858186Y-91200728D03*
%TO.P,U7,1*%
%TO.N,COL7*%
X177390315Y-90353565D03*
%TD*%
%TO.P,U6,4*%
%TO.N,N/C*%
X133292348Y-114423828D03*
%TO.P,U6,5*%
X143731310Y-116264498D03*
%TO.P,U6,3*%
X132290975Y-124249211D03*
%TO.P,U6,1*%
%TO.N,COL6*%
X138718916Y-125687258D03*
%TD*%
%TO.P,U5,4*%
%TO.N,N/C*%
X121122348Y-79784728D03*
%TO.P,U5,5*%
X131561310Y-81625398D03*
%TO.P,U5,3*%
X120120975Y-89610111D03*
%TO.P,U5,1*%
%TO.N,COL5*%
X126548916Y-91048158D03*
%TD*%
%TO.P,U4,4*%
%TO.N,N/C*%
X104090348Y-72719828D03*
%TO.P,U4,5*%
X114529310Y-74560498D03*
%TO.P,U4,3*%
X103088975Y-82545211D03*
%TO.P,U4,1*%
%TO.N,COL4*%
X109516916Y-83983258D03*
%TD*%
%TO.P,U3,4*%
%TO.N,N/C*%
X87405548Y-63685328D03*
%TO.P,U3,5*%
X97844510Y-65525998D03*
%TO.P,U3,3*%
X86404175Y-73510711D03*
%TO.P,U3,1*%
%TO.N,COL3*%
X92832116Y-74948758D03*
%TD*%
%TO.P,U2,4*%
%TO.N,N/C*%
X68810748Y-65483728D03*
%TO.P,U2,5*%
X79249710Y-67324398D03*
%TO.P,U2,3*%
X67809375Y-75309111D03*
%TO.P,U2,1*%
%TO.N,COL2*%
X74237316Y-76747158D03*
%TD*%
%TO.P,U12,4*%
%TO.N,N/C*%
X47611248Y-82054228D03*
%TO.P,U12,5*%
X58050210Y-83894898D03*
%TO.P,U12,3*%
X46609875Y-91879611D03*
%TO.P,U12,1*%
%TO.N,COL1*%
X53037816Y-93317658D03*
%TD*%
%TO.P,U1,4*%
%TO.N,N/C*%
X50563348Y-65312428D03*
%TO.P,U1,5*%
X61002310Y-67153098D03*
%TO.P,U1,3*%
X49561975Y-75137811D03*
%TO.P,U1,1*%
%TO.N,COL1*%
X55989916Y-76575858D03*
%TD*%
D11*
%TO.P,J2,B1*%
%TO.N,GND*%
X153250000Y-67645000D03*
%TO.P,J2,A9*%
%TO.N,VBUS*%
X152450000Y-67645000D03*
%TO.P,J2,B9*%
X147550000Y-67645000D03*
%TO.P,J2,B12*%
%TO.N,GND*%
X146750000Y-67645000D03*
%TO.P,J2,A1*%
X146750000Y-67645000D03*
%TO.P,J2,A4*%
%TO.N,VBUS*%
X147550000Y-67645000D03*
%TO.P,J2,B4*%
X152450000Y-67645000D03*
%TO.P,J2,A12*%
%TO.N,GND*%
X153250000Y-67645000D03*
D12*
%TO.P,J2,B8*%
%TO.N,Net-(J2-PadB8)*%
X148250000Y-67645000D03*
%TO.P,J2,A5*%
%TO.N,Net-(J2-PadA5)*%
X148750000Y-67645000D03*
%TO.P,J2,B7*%
%TO.N,DATA-*%
X149250000Y-67645000D03*
%TO.P,J2,A7*%
X150250000Y-67645000D03*
%TO.P,J2,B6*%
%TO.N,DATA+*%
X150750000Y-67645000D03*
%TO.P,J2,A8*%
%TO.N,Net-(J2-PadA8)*%
X151250000Y-67645000D03*
%TO.P,J2,B5*%
%TO.N,Net-(J2-PadB5)*%
X151750000Y-67645000D03*
%TO.P,J2,A6*%
%TO.N,DATA+*%
X149750000Y-67645000D03*
D13*
%TO.P,J2,S1*%
%TO.N,Net-(J2-PadS1)*%
X154320000Y-66730000D03*
X145680000Y-66730000D03*
D14*
X145680000Y-62550000D03*
X154320000Y-62550000D03*
%TD*%
%TO.P,J3,4*%
%TO.N,SWDIO*%
%TA.AperFunction,ComponentPad*%
G36*
G01*
X152839714Y-109856634D02*
X152839714Y-109856634D01*
G75*
G02*
X153824402Y-109167148I837087J-147601D01*
G01*
X153824402Y-109167148D01*
G75*
G02*
X154513888Y-110151836I-147601J-837087D01*
G01*
X154513888Y-110151836D01*
G75*
G02*
X153529200Y-110841322I-837087J147601D01*
G01*
X153529200Y-110841322D01*
G75*
G02*
X152839714Y-109856634I147601J837087D01*
G01*
G37*
%TD.AperFunction*%
%TO.P,J3,3*%
%TO.N,SWCLK*%
%TA.AperFunction,ComponentPad*%
G36*
G01*
X153280780Y-107355222D02*
X153280780Y-107355222D01*
G75*
G02*
X154265468Y-106665736I837087J-147601D01*
G01*
X154265468Y-106665736D01*
G75*
G02*
X154954954Y-107650424I-147601J-837087D01*
G01*
X154954954Y-107650424D01*
G75*
G02*
X153970266Y-108339910I-837087J147601D01*
G01*
X153970266Y-108339910D01*
G75*
G02*
X153280780Y-107355222I147601J837087D01*
G01*
G37*
%TD.AperFunction*%
%TO.P,J3,2*%
%TO.N,GND*%
%TA.AperFunction,ComponentPad*%
G36*
G01*
X153721847Y-104853811D02*
X153721847Y-104853811D01*
G75*
G02*
X154706535Y-104164325I837087J-147601D01*
G01*
X154706535Y-104164325D01*
G75*
G02*
X155396021Y-105149013I-147601J-837087D01*
G01*
X155396021Y-105149013D01*
G75*
G02*
X154411333Y-105838499I-837087J147601D01*
G01*
X154411333Y-105838499D01*
G75*
G02*
X153721847Y-104853811I147601J837087D01*
G01*
G37*
%TD.AperFunction*%
%TA.AperFunction,ComponentPad*%
D15*
%TO.P,J3,1*%
%TO.N,+3V3*%
G36*
X154015312Y-103189486D02*
G01*
X154310514Y-101515312D01*
X155984688Y-101810514D01*
X155689486Y-103484688D01*
X154015312Y-103189486D01*
G37*
%TD.AperFunction*%
%TD*%
%TA.AperFunction,ComponentPad*%
%TO.P,U45,28*%
%TO.N,COL11*%
G36*
X144739302Y-97856455D02*
G01*
X145724110Y-98030104D01*
X145611238Y-98670229D01*
X144626430Y-98496580D01*
X144739302Y-97856455D01*
G37*
%TD.AperFunction*%
%TA.AperFunction,SMDPad,CuDef*%
D16*
%TO.P,U45,10*%
%TO.N,ROW1*%
G36*
X135086508Y-94091060D02*
G01*
X136071316Y-94264709D01*
X135958444Y-94904834D01*
X134973636Y-94731185D01*
X135086508Y-94091060D01*
G37*
%TD.AperFunction*%
%TA.AperFunction,SMDPad,CuDef*%
%TO.P,U45,9*%
%TO.N,/Sheet61BBB357/P0.31*%
G36*
X134865975Y-95341766D02*
G01*
X135850783Y-95515415D01*
X135737911Y-96155540D01*
X134753103Y-95981891D01*
X134865975Y-95341766D01*
G37*
%TD.AperFunction*%
%TA.AperFunction,SMDPad,CuDef*%
%TO.P,U45,8*%
%TO.N,ROW2*%
G36*
X134645442Y-96592472D02*
G01*
X135630250Y-96766121D01*
X135517378Y-97406246D01*
X134532570Y-97232597D01*
X134645442Y-96592472D01*
G37*
%TD.AperFunction*%
%TA.AperFunction,SMDPad,CuDef*%
%TO.P,U45,7*%
%TO.N,ROW3*%
G36*
X134424909Y-97843177D02*
G01*
X135409717Y-98016826D01*
X135296845Y-98656951D01*
X134312037Y-98483302D01*
X134424909Y-97843177D01*
G37*
%TD.AperFunction*%
%TA.AperFunction,SMDPad,CuDef*%
%TO.P,U45,6*%
%TO.N,ROW4*%
G36*
X134204375Y-99093883D02*
G01*
X135189183Y-99267532D01*
X135076311Y-99907657D01*
X134091503Y-99734008D01*
X134204375Y-99093883D01*
G37*
%TD.AperFunction*%
%TA.AperFunction,SMDPad,CuDef*%
%TO.P,U45,5*%
%TO.N,GND*%
G36*
X133983842Y-100344589D02*
G01*
X134968650Y-100518238D01*
X134855778Y-101158363D01*
X133870970Y-100984714D01*
X133983842Y-100344589D01*
G37*
%TD.AperFunction*%
%TA.AperFunction,SMDPad,CuDef*%
%TO.P,U45,4*%
%TO.N,COL3*%
G36*
X133763309Y-101595295D02*
G01*
X134748117Y-101768944D01*
X134635245Y-102409069D01*
X133650437Y-102235420D01*
X133763309Y-101595295D01*
G37*
%TD.AperFunction*%
%TA.AperFunction,SMDPad,CuDef*%
%TO.P,U45,3*%
%TO.N,COL4*%
G36*
X133542776Y-102846001D02*
G01*
X134527584Y-103019650D01*
X134414712Y-103659775D01*
X133429904Y-103486126D01*
X133542776Y-102846001D01*
G37*
%TD.AperFunction*%
%TA.AperFunction,SMDPad,CuDef*%
%TO.P,U45,2*%
%TO.N,BLUE_LED*%
G36*
X133322243Y-104096707D02*
G01*
X134307051Y-104270356D01*
X134194179Y-104910481D01*
X133209371Y-104736832D01*
X133322243Y-104096707D01*
G37*
%TD.AperFunction*%
%TA.AperFunction,SMDPad,CuDef*%
%TO.P,U45,1*%
%TO.N,/Sheet61BBB357/P1.11*%
G36*
X133101709Y-105347413D02*
G01*
X134086517Y-105521062D01*
X133973645Y-106161187D01*
X132988837Y-105987538D01*
X133101709Y-105347413D01*
G37*
%TD.AperFunction*%
%TA.AperFunction,SMDPad,CuDef*%
%TO.P,U45,31*%
%TO.N,DATA+*%
G36*
X146476986Y-99968284D02*
G01*
X147461794Y-100141933D01*
X147348922Y-100782058D01*
X146364114Y-100608409D01*
X146476986Y-99968284D01*
G37*
%TD.AperFunction*%
%TA.AperFunction,SMDPad,CuDef*%
%TO.P,U45,43*%
%TO.N,COL5*%
G36*
X145153787Y-107472519D02*
G01*
X146138595Y-107646168D01*
X146025723Y-108286293D01*
X145040915Y-108112644D01*
X145153787Y-107472519D01*
G37*
%TD.AperFunction*%
%TA.AperFunction,SMDPad,CuDef*%
%TO.P,U45,33*%
%TO.N,COL8*%
G36*
X146256453Y-101218990D02*
G01*
X147241261Y-101392639D01*
X147128389Y-102032764D01*
X146143581Y-101859115D01*
X146256453Y-101218990D01*
G37*
%TD.AperFunction*%
%TA.AperFunction,SMDPad,CuDef*%
%TO.P,U45,41*%
%TO.N,SPEAKER*%
G36*
X145374320Y-106221813D02*
G01*
X146359128Y-106395462D01*
X146246256Y-107035587D01*
X145261448Y-106861938D01*
X145374320Y-106221813D01*
G37*
%TD.AperFunction*%
%TA.AperFunction,SMDPad,CuDef*%
%TO.P,U45,39*%
%TO.N,SWCLK*%
G36*
X145594853Y-104971107D02*
G01*
X146579661Y-105144756D01*
X146466789Y-105784881D01*
X145481981Y-105611232D01*
X145594853Y-104971107D01*
G37*
%TD.AperFunction*%
%TA.AperFunction,SMDPad,CuDef*%
%TO.P,U45,37*%
%TO.N,SWDIO*%
G36*
X145815386Y-103720401D02*
G01*
X146800194Y-103894050D01*
X146687322Y-104534175D01*
X145702514Y-104360526D01*
X145815386Y-103720401D01*
G37*
%TD.AperFunction*%
%TA.AperFunction,SMDPad,CuDef*%
%TO.P,U45,29*%
%TO.N,DATA-*%
G36*
X146697519Y-98717578D02*
G01*
X147682327Y-98891227D01*
X147569455Y-99531352D01*
X146584647Y-99357703D01*
X146697519Y-98717578D01*
G37*
%TD.AperFunction*%
%TA.AperFunction,SMDPad,CuDef*%
%TO.P,U45,35*%
%TO.N,COL6*%
G36*
X146035919Y-102469696D02*
G01*
X147020727Y-102643345D01*
X146907855Y-103283470D01*
X145923047Y-103109821D01*
X146035919Y-102469696D01*
G37*
%TD.AperFunction*%
%TA.AperFunction,SMDPad,CuDef*%
%TO.P,U45,27*%
%TO.N,VBUS*%
G36*
X146918052Y-97466872D02*
G01*
X147902860Y-97640521D01*
X147789988Y-98280646D01*
X146805180Y-98106997D01*
X146918052Y-97466872D01*
G37*
%TD.AperFunction*%
%TA.AperFunction,SMDPad,CuDef*%
%TO.P,U45,26*%
%TO.N,RESET*%
G36*
X147138585Y-96216166D02*
G01*
X148123393Y-96389815D01*
X148010521Y-97029940D01*
X147025713Y-96856291D01*
X147138585Y-96216166D01*
G37*
%TD.AperFunction*%
%TA.AperFunction,SMDPad,CuDef*%
%TO.P,U45,23*%
%TO.N,VBAT*%
G36*
X145442871Y-93486236D02*
G01*
X145269222Y-94471044D01*
X144629097Y-94358172D01*
X144802746Y-93373364D01*
X145442871Y-93486236D01*
G37*
%TD.AperFunction*%
%TA.AperFunction,SMDPad,CuDef*%
%TO.P,U45,11*%
%TO.N,Net-(C1-Pad1)*%
G36*
X137938636Y-92163036D02*
G01*
X137764987Y-93147844D01*
X137124862Y-93034972D01*
X137298511Y-92050164D01*
X137938636Y-92163036D01*
G37*
%TD.AperFunction*%
%TA.AperFunction,SMDPad,CuDef*%
%TO.P,U45,21*%
%TO.N,GND*%
G36*
X144192166Y-93265702D02*
G01*
X144018517Y-94250510D01*
X143378392Y-94137638D01*
X143552041Y-93152830D01*
X144192166Y-93265702D01*
G37*
%TD.AperFunction*%
%TA.AperFunction,SMDPad,CuDef*%
%TO.P,U45,13*%
%TO.N,Net-(C2-Pad2)*%
G36*
X139189342Y-92383570D02*
G01*
X139015693Y-93368378D01*
X138375568Y-93255506D01*
X138549217Y-92270698D01*
X139189342Y-92383570D01*
G37*
%TD.AperFunction*%
%TA.AperFunction,SMDPad,CuDef*%
%TO.P,U45,15*%
%TO.N,/Sheet61BBB357/P0.05*%
G36*
X140440048Y-92604103D02*
G01*
X140266399Y-93588911D01*
X139626274Y-93476039D01*
X139799923Y-92491231D01*
X140440048Y-92604103D01*
G37*
%TD.AperFunction*%
%TA.AperFunction,SMDPad,CuDef*%
%TO.P,U45,17*%
%TO.N,/Sheet61BBB357/P1.09*%
G36*
X141690754Y-92824636D02*
G01*
X141517105Y-93809444D01*
X140876980Y-93696572D01*
X141050629Y-92711764D01*
X141690754Y-92824636D01*
G37*
%TD.AperFunction*%
%TA.AperFunction,SMDPad,CuDef*%
%TO.P,U45,25*%
%TO.N,Net-(L1-Pad1)*%
G36*
X146693577Y-93706769D02*
G01*
X146519928Y-94691577D01*
X145879803Y-94578705D01*
X146053452Y-93593897D01*
X146693577Y-93706769D01*
G37*
%TD.AperFunction*%
%TA.AperFunction,SMDPad,CuDef*%
%TO.P,U45,19*%
%TO.N,+3V3*%
G36*
X142941460Y-93045169D02*
G01*
X142767811Y-94029977D01*
X142127686Y-93917105D01*
X142301335Y-92932297D01*
X142941460Y-93045169D01*
G37*
%TD.AperFunction*%
%TA.AperFunction,ComponentPad*%
D15*
%TO.P,U45,30*%
%TO.N,COL10*%
G36*
X144518769Y-99107161D02*
G01*
X145503577Y-99280810D01*
X145390705Y-99920935D01*
X144405897Y-99747286D01*
X144518769Y-99107161D01*
G37*
%TD.AperFunction*%
%TA.AperFunction,ComponentPad*%
%TO.P,U45,32*%
%TO.N,COL9*%
G36*
X144298235Y-100357866D02*
G01*
X145283043Y-100531515D01*
X145170171Y-101171640D01*
X144185363Y-100997991D01*
X144298235Y-100357866D01*
G37*
%TD.AperFunction*%
%TA.AperFunction,ComponentPad*%
%TO.P,U45,34*%
%TO.N,COL7*%
G36*
X144077702Y-101608572D02*
G01*
X145062510Y-101782221D01*
X144949638Y-102422346D01*
X143964830Y-102248697D01*
X144077702Y-101608572D01*
G37*
%TD.AperFunction*%
%TA.AperFunction,ComponentPad*%
%TO.P,U45,36*%
%TO.N,SWO*%
G36*
X143857169Y-102859278D02*
G01*
X144841977Y-103032927D01*
X144729105Y-103673052D01*
X143744297Y-103499403D01*
X143857169Y-102859278D01*
G37*
%TD.AperFunction*%
%TA.AperFunction,ComponentPad*%
%TO.P,U45,38*%
%TO.N,DFU*%
G36*
X143636636Y-104109984D02*
G01*
X144621444Y-104283633D01*
X144508572Y-104923758D01*
X143523764Y-104750109D01*
X143636636Y-104109984D01*
G37*
%TD.AperFunction*%
%TA.AperFunction,ComponentPad*%
%TO.P,U45,40*%
%TO.N,RED_LED*%
G36*
X143416103Y-105360690D02*
G01*
X144400911Y-105534339D01*
X144288039Y-106174464D01*
X143303231Y-106000815D01*
X143416103Y-105360690D01*
G37*
%TD.AperFunction*%
%TA.AperFunction,ComponentPad*%
%TO.P,U45,42*%
%TO.N,/Sheet61BBB357/P1.06*%
G36*
X143195569Y-106611396D02*
G01*
X144180377Y-106785045D01*
X144067505Y-107425170D01*
X143082697Y-107251521D01*
X143195569Y-106611396D01*
G37*
%TD.AperFunction*%
%TA.AperFunction,ComponentPad*%
%TO.P,U45,14*%
%TO.N,COL1*%
G36*
X139519553Y-94179190D02*
G01*
X139345904Y-95163998D01*
X138705779Y-95051126D01*
X138879428Y-94066318D01*
X139519553Y-94179190D01*
G37*
%TD.AperFunction*%
%TA.AperFunction,ComponentPad*%
%TO.P,U45,12*%
%TO.N,/Sheet61BBB357/P0.26*%
G36*
X138268847Y-93958656D02*
G01*
X138095198Y-94943464D01*
X137455073Y-94830592D01*
X137628722Y-93845784D01*
X138268847Y-93958656D01*
G37*
%TD.AperFunction*%
%TA.AperFunction,ComponentPad*%
%TO.P,U45,20*%
%TO.N,/Sheet61BBB357/P0.12*%
G36*
X143271670Y-94840789D02*
G01*
X143098021Y-95825597D01*
X142457896Y-95712725D01*
X142631545Y-94727917D01*
X143271670Y-94840789D01*
G37*
%TD.AperFunction*%
%TA.AperFunction,ComponentPad*%
%TO.P,U45,16*%
%TO.N,COL2*%
G36*
X140770259Y-94399723D02*
G01*
X140596610Y-95384531D01*
X139956485Y-95271659D01*
X140130134Y-94286851D01*
X140770259Y-94399723D01*
G37*
%TD.AperFunction*%
%TA.AperFunction,ComponentPad*%
%TO.P,U45,22*%
%TO.N,/Sheet61BBB357/P0.07*%
G36*
X144522376Y-95061322D02*
G01*
X144348727Y-96046130D01*
X143708602Y-95933258D01*
X143882251Y-94948450D01*
X144522376Y-95061322D01*
G37*
%TD.AperFunction*%
%TA.AperFunction,ComponentPad*%
%TO.P,U45,24*%
%TO.N,GND*%
G36*
X145773082Y-95281855D02*
G01*
X145599433Y-96266663D01*
X144959308Y-96153791D01*
X145132957Y-95168983D01*
X145773082Y-95281855D01*
G37*
%TD.AperFunction*%
%TA.AperFunction,ComponentPad*%
%TO.P,U45,18*%
%TO.N,/Sheet61BBB357/P0.04*%
G36*
X142020964Y-94620256D02*
G01*
X141847315Y-95605064D01*
X141207190Y-95492192D01*
X141380839Y-94507384D01*
X142020964Y-94620256D01*
G37*
%TD.AperFunction*%
%TD*%
%TA.AperFunction,SMDPad,CuDef*%
D16*
%TO.P,Y1,2*%
%TO.N,Net-(C2-Pad2)*%
G36*
X140610705Y-88217557D02*
G01*
X140298139Y-89990211D01*
X139313331Y-89816563D01*
X139625897Y-88043909D01*
X140610705Y-88217557D01*
G37*
%TD.AperFunction*%
%TA.AperFunction,SMDPad,CuDef*%
%TO.P,Y1,1*%
%TO.N,Net-(C1-Pad1)*%
G36*
X138148685Y-87783437D02*
G01*
X137836119Y-89556091D01*
X136851311Y-89382443D01*
X137163877Y-87609789D01*
X138148685Y-87783437D01*
G37*
%TD.AperFunction*%
%TD*%
%TA.AperFunction,SMDPad,CuDef*%
%TO.P,U46,5*%
%TO.N,Net-(R6-Pad2)*%
G36*
X167110767Y-76934076D02*
G01*
X166997896Y-76293951D01*
X168199361Y-76082100D01*
X168312232Y-76722225D01*
X167110767Y-76934076D01*
G37*
%TD.AperFunction*%
%TA.AperFunction,SMDPad,CuDef*%
%TO.P,U46,4*%
%TO.N,VBUS*%
G36*
X166780835Y-75062942D02*
G01*
X166667964Y-74422817D01*
X167869429Y-74210966D01*
X167982300Y-74851091D01*
X166780835Y-75062942D01*
G37*
%TD.AperFunction*%
%TA.AperFunction,SMDPad,CuDef*%
%TO.P,U46,3*%
%TO.N,VBAT*%
G36*
X164200639Y-75517900D02*
G01*
X164087768Y-74877775D01*
X165289233Y-74665924D01*
X165402104Y-75306049D01*
X164200639Y-75517900D01*
G37*
%TD.AperFunction*%
%TA.AperFunction,SMDPad,CuDef*%
%TO.P,U46,2*%
%TO.N,GND*%
G36*
X164365605Y-76453467D02*
G01*
X164252734Y-75813342D01*
X165454199Y-75601491D01*
X165567070Y-76241616D01*
X164365605Y-76453467D01*
G37*
%TD.AperFunction*%
%TA.AperFunction,SMDPad,CuDef*%
%TO.P,U46,1*%
%TO.N,Net-(R5-Pad2)*%
G36*
X164530571Y-77389034D02*
G01*
X164417700Y-76748909D01*
X165619165Y-76537058D01*
X165732036Y-77177183D01*
X164530571Y-77389034D01*
G37*
%TD.AperFunction*%
%TD*%
D17*
%TO.P,SW2,2*%
%TO.N,RESET*%
X131600000Y-65200000D03*
X137800000Y-65200000D03*
%TO.P,SW2,1*%
%TO.N,GND*%
X131600000Y-61500000D03*
X137800000Y-61500000D03*
%TD*%
D18*
%TO.P,SW1,0*%
%TO.N,N/C*%
X166200000Y-61400000D03*
X166200000Y-63600000D03*
X158800000Y-63600000D03*
X158800000Y-61400000D03*
D19*
%TO.P,SW1,1*%
%TO.N,VBAT*%
X160250000Y-64575000D03*
%TO.P,SW1,3*%
%TO.N,Net-(SW1-Pad3)*%
X164750000Y-64575000D03*
%TO.P,SW1,2*%
%TO.N,Net-(J1-Pad1)*%
X163250000Y-64575000D03*
D20*
%TO.P,SW1,*%
%TO.N,*%
X164000000Y-62500000D03*
X161000000Y-62500000D03*
%TD*%
%TO.P,R6,2*%
%TO.N,Net-(R6-Pad2)*%
%TA.AperFunction,SMDPad,CuDef*%
G36*
G01*
X169546237Y-75478761D02*
X170087881Y-75383254D01*
G75*
G02*
X170319573Y-75545486I34730J-196962D01*
G01*
X170389033Y-75939409D01*
G75*
G02*
X170226801Y-76171101I-196962J-34730D01*
G01*
X169685157Y-76266608D01*
G75*
G02*
X169453465Y-76104376I-34730J196962D01*
G01*
X169384005Y-75710453D01*
G75*
G02*
X169546237Y-75478761I196962J34730D01*
G01*
G37*
%TD.AperFunction*%
%TO.P,R6,1*%
%TO.N,GND*%
%TA.AperFunction,SMDPad,CuDef*%
G36*
G01*
X169259717Y-73853829D02*
X169801361Y-73758322D01*
G75*
G02*
X170033053Y-73920554I34730J-196962D01*
G01*
X170102513Y-74314477D01*
G75*
G02*
X169940281Y-74546169I-196962J-34730D01*
G01*
X169398637Y-74641676D01*
G75*
G02*
X169166945Y-74479444I-34730J196962D01*
G01*
X169097485Y-74085521D01*
G75*
G02*
X169259717Y-73853829I196962J34730D01*
G01*
G37*
%TD.AperFunction*%
%TD*%
%TO.P,R5,2*%
%TO.N,Net-(R5-Pad2)*%
%TA.AperFunction,SMDPad,CuDef*%
G36*
G01*
X156725000Y-65425000D02*
X157275000Y-65425000D01*
G75*
G02*
X157475000Y-65625000I0J-200000D01*
G01*
X157475000Y-66025000D01*
G75*
G02*
X157275000Y-66225000I-200000J0D01*
G01*
X156725000Y-66225000D01*
G75*
G02*
X156525000Y-66025000I0J200000D01*
G01*
X156525000Y-65625000D01*
G75*
G02*
X156725000Y-65425000I200000J0D01*
G01*
G37*
%TD.AperFunction*%
%TO.P,R5,1*%
%TO.N,Net-(D3-Pad1)*%
%TA.AperFunction,SMDPad,CuDef*%
G36*
G01*
X156725000Y-63775000D02*
X157275000Y-63775000D01*
G75*
G02*
X157475000Y-63975000I0J-200000D01*
G01*
X157475000Y-64375000D01*
G75*
G02*
X157275000Y-64575000I-200000J0D01*
G01*
X156725000Y-64575000D01*
G75*
G02*
X156525000Y-64375000I0J200000D01*
G01*
X156525000Y-63975000D01*
G75*
G02*
X156725000Y-63775000I200000J0D01*
G01*
G37*
%TD.AperFunction*%
%TD*%
%TO.P,R4,2*%
%TO.N,GND*%
%TA.AperFunction,SMDPad,CuDef*%
G36*
G01*
X141775000Y-67325000D02*
X141775000Y-67875000D01*
G75*
G02*
X141575000Y-68075000I-200000J0D01*
G01*
X141175000Y-68075000D01*
G75*
G02*
X140975000Y-67875000I0J200000D01*
G01*
X140975000Y-67325000D01*
G75*
G02*
X141175000Y-67125000I200000J0D01*
G01*
X141575000Y-67125000D01*
G75*
G02*
X141775000Y-67325000I0J-200000D01*
G01*
G37*
%TD.AperFunction*%
%TO.P,R4,1*%
%TO.N,Net-(J2-PadA5)*%
%TA.AperFunction,SMDPad,CuDef*%
G36*
G01*
X143425000Y-67325000D02*
X143425000Y-67875000D01*
G75*
G02*
X143225000Y-68075000I-200000J0D01*
G01*
X142825000Y-68075000D01*
G75*
G02*
X142625000Y-67875000I0J200000D01*
G01*
X142625000Y-67325000D01*
G75*
G02*
X142825000Y-67125000I200000J0D01*
G01*
X143225000Y-67125000D01*
G75*
G02*
X143425000Y-67325000I0J-200000D01*
G01*
G37*
%TD.AperFunction*%
%TD*%
%TO.P,R3,2*%
%TO.N,GND*%
%TA.AperFunction,SMDPad,CuDef*%
G36*
G01*
X158200000Y-67875001D02*
X158200000Y-67325001D01*
G75*
G02*
X158400000Y-67125001I200000J0D01*
G01*
X158800000Y-67125001D01*
G75*
G02*
X159000000Y-67325001I0J-200000D01*
G01*
X159000000Y-67875001D01*
G75*
G02*
X158800000Y-68075001I-200000J0D01*
G01*
X158400000Y-68075001D01*
G75*
G02*
X158200000Y-67875001I0J200000D01*
G01*
G37*
%TD.AperFunction*%
%TO.P,R3,1*%
%TO.N,Net-(J2-PadB5)*%
%TA.AperFunction,SMDPad,CuDef*%
G36*
G01*
X156550000Y-67875001D02*
X156550000Y-67325001D01*
G75*
G02*
X156750000Y-67125001I200000J0D01*
G01*
X157150000Y-67125001D01*
G75*
G02*
X157350000Y-67325001I0J-200000D01*
G01*
X157350000Y-67875001D01*
G75*
G02*
X157150000Y-68075001I-200000J0D01*
G01*
X156750000Y-68075001D01*
G75*
G02*
X156550000Y-67875001I0J200000D01*
G01*
G37*
%TD.AperFunction*%
%TD*%
%TO.P,R2,2*%
%TO.N,GND*%
%TA.AperFunction,SMDPad,CuDef*%
G36*
G01*
X140925000Y-65425000D02*
X141475000Y-65425000D01*
G75*
G02*
X141675000Y-65625000I0J-200000D01*
G01*
X141675000Y-66025000D01*
G75*
G02*
X141475000Y-66225000I-200000J0D01*
G01*
X140925000Y-66225000D01*
G75*
G02*
X140725000Y-66025000I0J200000D01*
G01*
X140725000Y-65625000D01*
G75*
G02*
X140925000Y-65425000I200000J0D01*
G01*
G37*
%TD.AperFunction*%
%TO.P,R2,1*%
%TO.N,Net-(D2-Pad1)*%
%TA.AperFunction,SMDPad,CuDef*%
G36*
G01*
X140925000Y-63775000D02*
X141475000Y-63775000D01*
G75*
G02*
X141675000Y-63975000I0J-200000D01*
G01*
X141675000Y-64375000D01*
G75*
G02*
X141475000Y-64575000I-200000J0D01*
G01*
X140925000Y-64575000D01*
G75*
G02*
X140725000Y-64375000I0J200000D01*
G01*
X140725000Y-63975000D01*
G75*
G02*
X140925000Y-63775000I200000J0D01*
G01*
G37*
%TD.AperFunction*%
%TD*%
%TO.P,R1,2*%
%TO.N,GND*%
%TA.AperFunction,SMDPad,CuDef*%
G36*
G01*
X142725000Y-65425000D02*
X143275000Y-65425000D01*
G75*
G02*
X143475000Y-65625000I0J-200000D01*
G01*
X143475000Y-66025000D01*
G75*
G02*
X143275000Y-66225000I-200000J0D01*
G01*
X142725000Y-66225000D01*
G75*
G02*
X142525000Y-66025000I0J200000D01*
G01*
X142525000Y-65625000D01*
G75*
G02*
X142725000Y-65425000I200000J0D01*
G01*
G37*
%TD.AperFunction*%
%TO.P,R1,1*%
%TO.N,Net-(D1-Pad1)*%
%TA.AperFunction,SMDPad,CuDef*%
G36*
G01*
X142725000Y-63775000D02*
X143275000Y-63775000D01*
G75*
G02*
X143475000Y-63975000I0J-200000D01*
G01*
X143475000Y-64375000D01*
G75*
G02*
X143275000Y-64575000I-200000J0D01*
G01*
X142725000Y-64575000D01*
G75*
G02*
X142525000Y-64375000I0J200000D01*
G01*
X142525000Y-63975000D01*
G75*
G02*
X142725000Y-63775000I200000J0D01*
G01*
G37*
%TD.AperFunction*%
%TD*%
%TO.P,L1,2*%
%TO.N,+3V3*%
%TA.AperFunction,SMDPad,CuDef*%
G36*
G01*
X145204342Y-90531511D02*
X145071935Y-91282426D01*
G75*
G02*
X144818522Y-91459867I-215427J37986D01*
G01*
X144387669Y-91383896D01*
G75*
G02*
X144210228Y-91130483I37986J215427D01*
G01*
X144342635Y-90379568D01*
G75*
G02*
X144596048Y-90202127I215427J-37986D01*
G01*
X145026901Y-90278098D01*
G75*
G02*
X145204342Y-90531511I-37986J-215427D01*
G01*
G37*
%TD.AperFunction*%
%TO.P,L1,1*%
%TO.N,Net-(L1-Pad1)*%
%TA.AperFunction,SMDPad,CuDef*%
G36*
G01*
X147297058Y-90900513D02*
X147164651Y-91651428D01*
G75*
G02*
X146911238Y-91828869I-215427J37986D01*
G01*
X146480385Y-91752898D01*
G75*
G02*
X146302944Y-91499485I37986J215427D01*
G01*
X146435351Y-90748570D01*
G75*
G02*
X146688764Y-90571129I215427J-37986D01*
G01*
X147119617Y-90647100D01*
G75*
G02*
X147297058Y-90900513I-37986J-215427D01*
G01*
G37*
%TD.AperFunction*%
%TD*%
%TO.P,J1,2*%
%TO.N,GND*%
%TA.AperFunction,ComponentPad*%
G36*
G01*
X161662912Y-80147601D02*
X161662912Y-80147601D01*
G75*
G02*
X162352398Y-79162913I837087J147601D01*
G01*
X162352398Y-79162913D01*
G75*
G02*
X163337086Y-79852399I147601J-837087D01*
G01*
X163337086Y-79852399D01*
G75*
G02*
X162647600Y-80837087I-837087J-147601D01*
G01*
X162647600Y-80837087D01*
G75*
G02*
X161662912Y-80147601I-147601J837087D01*
G01*
G37*
%TD.AperFunction*%
%TA.AperFunction,ComponentPad*%
D15*
%TO.P,J1,1*%
%TO.N,Net-(J1-Pad1)*%
G36*
X161369447Y-78483276D02*
G01*
X161074245Y-76809102D01*
X162748419Y-76513900D01*
X163043621Y-78188074D01*
X161369447Y-78483276D01*
G37*
%TD.AperFunction*%
%TD*%
%TO.P,D3,2*%
%TO.N,VBUS*%
%TA.AperFunction,SMDPad,CuDef*%
G36*
G01*
X157256250Y-61650000D02*
X156743750Y-61650000D01*
G75*
G02*
X156525000Y-61431250I0J218750D01*
G01*
X156525000Y-60993750D01*
G75*
G02*
X156743750Y-60775000I218750J0D01*
G01*
X157256250Y-60775000D01*
G75*
G02*
X157475000Y-60993750I0J-218750D01*
G01*
X157475000Y-61431250D01*
G75*
G02*
X157256250Y-61650000I-218750J0D01*
G01*
G37*
%TD.AperFunction*%
%TO.P,D3,1*%
%TO.N,Net-(D3-Pad1)*%
%TA.AperFunction,SMDPad,CuDef*%
G36*
G01*
X157256250Y-63225000D02*
X156743750Y-63225000D01*
G75*
G02*
X156525000Y-63006250I0J218750D01*
G01*
X156525000Y-62568750D01*
G75*
G02*
X156743750Y-62350000I218750J0D01*
G01*
X157256250Y-62350000D01*
G75*
G02*
X157475000Y-62568750I0J-218750D01*
G01*
X157475000Y-63006250D01*
G75*
G02*
X157256250Y-63225000I-218750J0D01*
G01*
G37*
%TD.AperFunction*%
%TD*%
%TO.P,D2,2*%
%TO.N,BLUE_LED*%
%TA.AperFunction,SMDPad,CuDef*%
G36*
G01*
X141456250Y-61650000D02*
X140943750Y-61650000D01*
G75*
G02*
X140725000Y-61431250I0J218750D01*
G01*
X140725000Y-60993750D01*
G75*
G02*
X140943750Y-60775000I218750J0D01*
G01*
X141456250Y-60775000D01*
G75*
G02*
X141675000Y-60993750I0J-218750D01*
G01*
X141675000Y-61431250D01*
G75*
G02*
X141456250Y-61650000I-218750J0D01*
G01*
G37*
%TD.AperFunction*%
%TO.P,D2,1*%
%TO.N,Net-(D2-Pad1)*%
%TA.AperFunction,SMDPad,CuDef*%
G36*
G01*
X141456250Y-63225000D02*
X140943750Y-63225000D01*
G75*
G02*
X140725000Y-63006250I0J218750D01*
G01*
X140725000Y-62568750D01*
G75*
G02*
X140943750Y-62350000I218750J0D01*
G01*
X141456250Y-62350000D01*
G75*
G02*
X141675000Y-62568750I0J-218750D01*
G01*
X141675000Y-63006250D01*
G75*
G02*
X141456250Y-63225000I-218750J0D01*
G01*
G37*
%TD.AperFunction*%
%TD*%
%TO.P,D1,2*%
%TO.N,RED_LED*%
%TA.AperFunction,SMDPad,CuDef*%
G36*
G01*
X143256250Y-61650000D02*
X142743750Y-61650000D01*
G75*
G02*
X142525000Y-61431250I0J218750D01*
G01*
X142525000Y-60993750D01*
G75*
G02*
X142743750Y-60775000I218750J0D01*
G01*
X143256250Y-60775000D01*
G75*
G02*
X143475000Y-60993750I0J-218750D01*
G01*
X143475000Y-61431250D01*
G75*
G02*
X143256250Y-61650000I-218750J0D01*
G01*
G37*
%TD.AperFunction*%
%TO.P,D1,1*%
%TO.N,Net-(D1-Pad1)*%
%TA.AperFunction,SMDPad,CuDef*%
G36*
G01*
X143256250Y-63225000D02*
X142743750Y-63225000D01*
G75*
G02*
X142525000Y-63006250I0J218750D01*
G01*
X142525000Y-62568750D01*
G75*
G02*
X142743750Y-62350000I218750J0D01*
G01*
X143256250Y-62350000D01*
G75*
G02*
X143475000Y-62568750I0J-218750D01*
G01*
X143475000Y-63006250D01*
G75*
G02*
X143256250Y-63225000I-218750J0D01*
G01*
G37*
%TD.AperFunction*%
%TD*%
%TO.P,C3,2*%
%TO.N,GND*%
%TA.AperFunction,SMDPad,CuDef*%
G36*
G01*
X145560124Y-88762786D02*
X145473300Y-89255190D01*
G75*
G02*
X145212647Y-89437701I-221582J39071D01*
G01*
X144769483Y-89359559D01*
G75*
G02*
X144586972Y-89098906I39071J221582D01*
G01*
X144673796Y-88606502D01*
G75*
G02*
X144934449Y-88423991I221582J-39071D01*
G01*
X145377613Y-88502133D01*
G75*
G02*
X145560124Y-88762786I-39071J-221582D01*
G01*
G37*
%TD.AperFunction*%
%TO.P,C3,1*%
%TO.N,VBAT*%
%TA.AperFunction,SMDPad,CuDef*%
G36*
G01*
X147086576Y-89031940D02*
X146999752Y-89524344D01*
G75*
G02*
X146739099Y-89706855I-221582J39071D01*
G01*
X146295935Y-89628713D01*
G75*
G02*
X146113424Y-89368060I39071J221582D01*
G01*
X146200248Y-88875656D01*
G75*
G02*
X146460901Y-88693145I221582J-39071D01*
G01*
X146904065Y-88771287D01*
G75*
G02*
X147086576Y-89031940I-39071J-221582D01*
G01*
G37*
%TD.AperFunction*%
%TD*%
%TO.P,C2,2*%
%TO.N,Net-(C2-Pad2)*%
%TA.AperFunction,SMDPad,CuDef*%
G36*
G01*
X141631940Y-89513424D02*
X142124344Y-89600248D01*
G75*
G02*
X142306855Y-89860901I-39071J-221582D01*
G01*
X142228713Y-90304065D01*
G75*
G02*
X141968060Y-90486576I-221582J39071D01*
G01*
X141475656Y-90399752D01*
G75*
G02*
X141293145Y-90139099I39071J221582D01*
G01*
X141371287Y-89695935D01*
G75*
G02*
X141631940Y-89513424I221582J-39071D01*
G01*
G37*
%TD.AperFunction*%
%TO.P,C2,1*%
%TO.N,GND*%
%TA.AperFunction,SMDPad,CuDef*%
G36*
G01*
X141901094Y-87986972D02*
X142393498Y-88073796D01*
G75*
G02*
X142576009Y-88334449I-39071J-221582D01*
G01*
X142497867Y-88777613D01*
G75*
G02*
X142237214Y-88960124I-221582J39071D01*
G01*
X141744810Y-88873300D01*
G75*
G02*
X141562299Y-88612647I39071J221582D01*
G01*
X141640441Y-88169483D01*
G75*
G02*
X141901094Y-87986972I221582J-39071D01*
G01*
G37*
%TD.AperFunction*%
%TD*%
%TO.P,C1,2*%
%TO.N,GND*%
%TA.AperFunction,SMDPad,CuDef*%
G36*
G01*
X135702637Y-87723350D02*
X135210233Y-87636526D01*
G75*
G02*
X135027722Y-87375873I39071J221582D01*
G01*
X135105864Y-86932709D01*
G75*
G02*
X135366517Y-86750198I221582J-39071D01*
G01*
X135858921Y-86837022D01*
G75*
G02*
X136041432Y-87097675I-39071J-221582D01*
G01*
X135963290Y-87540839D01*
G75*
G02*
X135702637Y-87723350I-221582J39071D01*
G01*
G37*
%TD.AperFunction*%
%TO.P,C1,1*%
%TO.N,Net-(C1-Pad1)*%
%TA.AperFunction,SMDPad,CuDef*%
G36*
G01*
X135433483Y-89249802D02*
X134941079Y-89162978D01*
G75*
G02*
X134758568Y-88902325I39071J221582D01*
G01*
X134836710Y-88459161D01*
G75*
G02*
X135097363Y-88276650I221582J-39071D01*
G01*
X135589767Y-88363474D01*
G75*
G02*
X135772278Y-88624127I-39071J-221582D01*
G01*
X135694136Y-89067291D01*
G75*
G02*
X135433483Y-89249802I-221582J39071D01*
G01*
G37*
%TD.AperFunction*%
%TD*%
D21*
%TO.P,LS1,1*%
%TO.N,SPEAKER*%
X150000000Y-120900000D03*
%TO.P,LS1,2*%
%TO.N,GND*%
X150000000Y-134100000D03*
%TD*%
D22*
%TO.N,GND*%
X146600000Y-69200000D03*
X154200000Y-69200000D03*
X143889831Y-88710169D03*
X134400000Y-86600000D03*
X133488936Y-100380480D03*
X156400000Y-96600000D03*
X156200000Y-90400000D03*
X144187281Y-92516896D03*
%TO.N,ROW1*%
X132299990Y-93400000D03*
%TO.N,ROW2*%
X131800000Y-96800000D03*
X133800000Y-96400000D03*
%TO.N,ROW3*%
X131300000Y-98000000D03*
X136100000Y-98389713D03*
%TO.N,ROW4*%
X131200000Y-99000000D03*
%TO.N,COL1*%
X139000000Y-85800000D03*
X138400000Y-82000000D03*
X68400000Y-63600000D03*
%TO.N,COL2*%
X140400000Y-85200000D03*
X140400000Y-81600000D03*
X99072876Y-61927124D03*
%TO.N,COL3*%
X130800000Y-102000000D03*
X103800000Y-103400000D03*
%TO.N,COL4*%
X112600000Y-106000000D03*
X131300010Y-103400000D03*
%TO.N,COL7*%
X165800000Y-95400000D03*
%TO.N,COL9*%
X161863938Y-93681610D03*
%TO.N,COL10*%
X161247214Y-92894429D03*
%TO.N,COL11*%
X160800000Y-92000000D03*
%TO.N,+3V3*%
X143650010Y-90199998D03*
X155200000Y-96600000D03*
X154800000Y-90800000D03*
%TO.N,VBUS*%
X156000000Y-62200000D03*
X155200000Y-70000000D03*
X147550000Y-70550000D03*
X153350000Y-70050000D03*
%TO.N,Net-(R5-Pad2)*%
X163400000Y-70350000D03*
X166000000Y-77600000D03*
%TO.N,VBAT*%
X147000000Y-87800000D03*
X159600000Y-88000000D03*
%TO.N,RED_LED*%
X142200000Y-61800000D03*
X137400000Y-67000000D03*
%TO.N,BLUE_LED*%
X140400000Y-61800000D03*
X136400000Y-66600000D03*
%TO.N,Net-(J1-Pad1)*%
X162800000Y-66000000D03*
%TO.N,RESET*%
X146000000Y-70400000D03*
X139200000Y-66600000D03*
%TD*%
D23*
%TO.N,GND*%
X141200000Y-65825000D02*
X143000000Y-65825000D01*
D24*
X163967690Y-78532309D02*
X162499999Y-80000000D01*
X163967690Y-76562508D02*
X163967690Y-78532309D01*
X164502719Y-76027479D02*
X163967690Y-76562508D01*
X164909902Y-76027479D02*
X164502719Y-76027479D01*
X131600000Y-61500000D02*
X137800000Y-61500000D01*
X137800000Y-62425000D02*
X141200000Y-65825000D01*
X137800000Y-61500000D02*
X137800000Y-62425000D01*
X141200000Y-67425000D02*
X141375000Y-67600000D01*
X141200000Y-65825000D02*
X141200000Y-67425000D01*
X157400001Y-68800000D02*
X158600000Y-67600001D01*
X146750000Y-69050000D02*
X146600000Y-69200000D01*
X146750000Y-67645000D02*
X146750000Y-69050000D01*
X154600000Y-68800000D02*
X155000000Y-68800000D01*
X154200000Y-69200000D02*
X154600000Y-68800000D01*
X155000000Y-68800000D02*
X157400001Y-68800000D01*
X153400000Y-68800000D02*
X155000000Y-68800000D01*
X153250000Y-68650000D02*
X153400000Y-68800000D01*
X153250000Y-67645000D02*
X153250000Y-68650000D01*
X142775000Y-69000000D02*
X141375000Y-67600000D01*
X146400000Y-69000000D02*
X142775000Y-69000000D01*
X146750000Y-68650000D02*
X146400000Y-69000000D01*
X146750000Y-67645000D02*
X146750000Y-68650000D01*
X140904239Y-86856073D02*
X142069154Y-85691158D01*
X142069154Y-85691158D02*
X142069154Y-69705846D01*
X135611572Y-87159779D02*
X135534577Y-87236774D01*
X142069154Y-88473548D02*
X141586826Y-88473548D01*
X141586826Y-88473548D02*
X140273057Y-87159779D01*
X142069154Y-69705846D02*
X142775000Y-69000000D01*
X140273057Y-87159779D02*
X135611572Y-87159779D01*
X140904239Y-87790961D02*
X140904239Y-86856073D01*
X141586826Y-88473548D02*
X140904239Y-87790961D01*
X144110508Y-88930846D02*
X143889831Y-88710169D01*
X145073548Y-88930846D02*
X144110508Y-88930846D01*
X144942702Y-88800000D02*
X145073548Y-88930846D01*
X143400000Y-88800000D02*
X144942702Y-88800000D01*
X143073548Y-88473548D02*
X143400000Y-88800000D01*
X142069154Y-88473548D02*
X143073548Y-88473548D01*
D25*
X134897803Y-86600000D02*
X135534577Y-87236774D01*
X134400000Y-86600000D02*
X134897803Y-86600000D01*
X133859932Y-100751476D02*
X133488936Y-100380480D01*
X134419810Y-100751476D02*
X133859932Y-100751476D01*
X156400000Y-90600000D02*
X156200000Y-90400000D01*
X156400000Y-96600000D02*
X156400000Y-90600000D01*
D24*
X143785279Y-93701670D02*
X143785279Y-92918898D01*
X143785279Y-92918898D02*
X144187281Y-92516896D01*
D25*
X155667878Y-106110356D02*
X154558934Y-105001412D01*
X155667878Y-108578857D02*
X155667878Y-106110356D01*
X155168689Y-109078045D02*
X155667878Y-108578857D01*
X155168689Y-128931311D02*
X155168689Y-109078045D01*
X150000000Y-134100000D02*
X155168689Y-128931311D01*
D23*
X171000000Y-76200000D02*
X171000000Y-75600000D01*
X168894092Y-76600000D02*
X170600000Y-76600000D01*
X170600000Y-76600000D02*
X171000000Y-76200000D01*
X165494092Y-80000000D02*
X168894092Y-76600000D01*
X171000000Y-75600000D02*
X169599999Y-74199999D01*
X162499999Y-80000000D02*
X165494092Y-80000000D01*
D25*
%TO.N,ROW1*%
X135522476Y-94497947D02*
X133397937Y-94497947D01*
X133397937Y-94497947D02*
X132299990Y-93400000D01*
%TO.N,ROW2*%
X131999359Y-96999359D02*
X131800000Y-96800000D01*
X133800000Y-96800000D02*
X133600641Y-96999359D01*
X133800000Y-96400000D02*
X133800000Y-96800000D01*
X133600641Y-96999359D02*
X131999359Y-96999359D01*
X135081410Y-96999359D02*
X133600641Y-96999359D01*
%TO.N,ROW3*%
X134610813Y-98000000D02*
X134860877Y-98250064D01*
X131300000Y-98000000D02*
X134610813Y-98000000D01*
X135000526Y-98389713D02*
X134860877Y-98250064D01*
X136100000Y-98389713D02*
X135000526Y-98389713D01*
%TO.N,ROW4*%
X134640343Y-99500770D02*
X131700770Y-99500770D01*
X131700770Y-99500770D02*
X131200000Y-99000000D01*
D23*
%TO.N,COL1*%
X47133816Y-126801258D02*
X53198742Y-126801258D01*
X53198742Y-126801258D02*
X55000000Y-125000000D01*
X55000000Y-114980982D02*
X50109751Y-110090733D01*
X55000000Y-125000000D02*
X55000000Y-114980982D01*
X50109751Y-110090733D02*
X54909267Y-110090733D01*
X54909267Y-110090733D02*
X57500000Y-107500000D01*
X57500000Y-97779842D02*
X53037816Y-93317658D01*
X57500000Y-107500000D02*
X57500000Y-97779842D01*
X53037816Y-93317658D02*
X56682342Y-93317658D01*
X56682342Y-93317658D02*
X60000000Y-90000000D01*
X60000000Y-90000000D02*
X60000000Y-80585942D01*
D25*
X138400000Y-85200000D02*
X138400000Y-82000000D01*
X139000000Y-85800000D02*
X138400000Y-85200000D01*
D23*
X58607029Y-79192971D02*
X55989916Y-76575858D01*
X60000000Y-80585942D02*
X58607029Y-79192971D01*
D25*
X62400000Y-75400000D02*
X58607029Y-79192971D01*
X62400000Y-69400000D02*
X62400000Y-75400000D01*
X67510747Y-64289253D02*
X62400000Y-69400000D01*
X67710747Y-64289253D02*
X67510747Y-64289253D01*
X68400000Y-63600000D02*
X67710747Y-64289253D01*
D23*
%TO.N,COL2*%
X76476943Y-93523057D02*
X80000000Y-90000000D01*
X80000000Y-90000000D02*
X80000000Y-82509842D01*
X68333316Y-110230258D02*
X72269742Y-110230258D01*
X74470711Y-94016825D02*
X73976943Y-93523057D01*
X72269742Y-110230258D02*
X74470711Y-108029289D01*
X73976943Y-93523057D02*
X76476943Y-93523057D01*
X74470711Y-108029289D02*
X74470711Y-94016825D01*
X71295453Y-93523057D02*
X73976943Y-93523057D01*
X65381316Y-126972258D02*
X70527742Y-126972258D01*
X70527742Y-126972258D02*
X72500000Y-125000000D01*
X72500000Y-110460516D02*
X72269742Y-110230258D01*
X72500000Y-125000000D02*
X72500000Y-110460516D01*
D25*
X140400000Y-85200000D02*
X140400000Y-81600000D01*
D23*
X76845079Y-79354921D02*
X74237316Y-76747158D01*
X80000000Y-82509842D02*
X76845079Y-79354921D01*
D25*
X98507191Y-61927124D02*
X99072876Y-61927124D01*
X87272876Y-61927124D02*
X98507191Y-61927124D01*
X83000000Y-73200000D02*
X83000000Y-66200000D01*
X83000000Y-66200000D02*
X87272876Y-61927124D01*
X76845079Y-79354921D02*
X83000000Y-73200000D01*
D23*
%TO.N,COL3*%
X83976116Y-125174258D02*
X89825742Y-125174258D01*
X89825742Y-125174258D02*
X92500000Y-122500000D01*
X92500000Y-122500000D02*
X92500000Y-114004142D01*
X92500000Y-114004142D02*
X90497929Y-112002071D01*
X90497929Y-112002071D02*
X86928116Y-108432258D01*
X95000000Y-96810789D02*
X89900959Y-91711748D01*
X90497929Y-112002071D02*
X95000000Y-107500000D01*
X89900959Y-91711748D02*
X93288252Y-91711748D01*
X93288252Y-91711748D02*
X97500000Y-87500000D01*
X97500000Y-79616642D02*
X92832116Y-74948758D01*
X97500000Y-87500000D02*
X97500000Y-79616642D01*
D25*
X130802182Y-102002182D02*
X130800000Y-102000000D01*
X134199277Y-102002182D02*
X130802182Y-102002182D01*
X96000000Y-103400000D02*
X95000000Y-104400000D01*
X103800000Y-103400000D02*
X96000000Y-103400000D01*
D23*
X95000000Y-104400000D02*
X95000000Y-96810789D01*
X95000000Y-107500000D02*
X95000000Y-104400000D01*
%TO.N,COL4*%
X106564916Y-100725058D02*
X111774942Y-100725058D01*
X111774942Y-100725058D02*
X115000000Y-97500000D01*
X115000000Y-89466342D02*
X109516916Y-83983258D01*
X115000000Y-97500000D02*
X115000000Y-89466342D01*
X103612916Y-117466258D02*
X107533742Y-117466258D01*
X107533742Y-117466258D02*
X112500000Y-112500000D01*
X112500000Y-112500000D02*
X112500000Y-106660142D01*
X100660716Y-134208258D02*
X105791742Y-134208258D01*
X105791742Y-134208258D02*
X110000000Y-130000000D01*
X110000000Y-130000000D02*
X110000000Y-120000000D01*
X110000000Y-120000000D02*
X107500000Y-117500000D01*
X103646658Y-117500000D02*
X103612916Y-117466258D01*
X107500000Y-117500000D02*
X103646658Y-117500000D01*
D25*
X112200000Y-106000000D02*
X112019929Y-106180071D01*
X112600000Y-106000000D02*
X112200000Y-106000000D01*
D23*
X112019929Y-106180071D02*
X106564916Y-100725058D01*
X112500000Y-106660142D02*
X112019929Y-106180071D01*
D25*
X133978744Y-103252888D02*
X131447122Y-103252888D01*
X131447122Y-103252888D02*
X131300010Y-103400000D01*
D23*
%TO.N,COL5*%
X117692916Y-141273258D02*
X121226742Y-141273258D01*
X121226742Y-141273258D02*
X125000000Y-137500000D01*
X125000000Y-128886342D02*
X120644916Y-124531258D01*
X125000000Y-137500000D02*
X125000000Y-128886342D01*
X120644916Y-124531258D02*
X125468742Y-124531258D01*
X125468742Y-124531258D02*
X127500000Y-122500000D01*
X127500000Y-111693342D02*
X123596916Y-107790258D01*
X127500000Y-122500000D02*
X127500000Y-111693342D01*
X123596916Y-107790258D02*
X127609742Y-107790258D01*
X129800000Y-105600000D02*
X130000000Y-105400000D01*
X127609742Y-107790258D02*
X129800000Y-105600000D01*
X127348915Y-91848157D02*
X126548916Y-91048158D01*
X129734311Y-94233553D02*
X127348915Y-91848157D01*
X129734311Y-98907499D02*
X129734311Y-94233553D01*
X129374990Y-99266820D02*
X129734311Y-98907499D01*
X129374990Y-104774990D02*
X129374990Y-99266820D01*
X130000000Y-105400000D02*
X129374990Y-104774990D01*
D25*
X132977018Y-106400000D02*
X131000000Y-106400000D01*
X133038215Y-106461197D02*
X132977018Y-106400000D01*
X134097915Y-106461197D02*
X133038215Y-106461197D01*
X131000000Y-106400000D02*
X130000000Y-105400000D01*
X134236718Y-106600000D02*
X134097915Y-106461197D01*
X139800000Y-106600000D02*
X134236718Y-106600000D01*
X141079406Y-107879406D02*
X139800000Y-106600000D01*
X145589755Y-107879406D02*
X141079406Y-107879406D01*
D23*
%TO.N,COL6*%
X168172315Y-141734665D02*
X170765335Y-141734665D01*
X170765335Y-141734665D02*
X172500000Y-140000000D01*
X165220315Y-125061489D02*
X165220315Y-124992665D01*
X172500000Y-132341174D02*
X165220315Y-125061489D01*
X172500000Y-140000000D02*
X172500000Y-132341174D01*
X142500000Y-129468342D02*
X138718916Y-125687258D01*
X142500000Y-140900000D02*
X142500000Y-129468342D01*
X140970742Y-142429258D02*
X142500000Y-140900000D01*
X135766916Y-142429258D02*
X140970742Y-142429258D01*
X165981979Y-143925001D02*
X168172315Y-141734665D01*
X158925001Y-143925001D02*
X165981979Y-143925001D01*
X152500000Y-137500000D02*
X158925001Y-143925001D01*
X146000000Y-137500000D02*
X152500000Y-137500000D01*
X141070742Y-142429258D02*
X146000000Y-137500000D01*
X135766916Y-142429258D02*
X141070742Y-142429258D01*
D25*
X167607334Y-124192666D02*
X166020314Y-124192666D01*
X169400000Y-102000000D02*
X169400000Y-122400000D01*
X166020314Y-124192666D02*
X165220315Y-124992665D01*
X165600011Y-98200011D02*
X169400000Y-102000000D01*
X152399989Y-98200011D02*
X165600011Y-98200011D01*
X169400000Y-122400000D02*
X167607334Y-124192666D01*
X147723417Y-102876583D02*
X152399989Y-98200011D01*
X146471887Y-102876583D02*
X147723417Y-102876583D01*
D23*
%TO.N,COL7*%
X186246315Y-140578665D02*
X189421335Y-140578665D01*
X189421335Y-140578665D02*
X190000000Y-140000000D01*
X190000000Y-140000000D02*
X190000000Y-127500000D01*
X186336665Y-123836665D02*
X183294315Y-123836665D01*
X190000000Y-127500000D02*
X186336665Y-123836665D01*
X186336665Y-123836665D02*
X188663335Y-123836665D01*
X188663335Y-123836665D02*
X190000000Y-122500000D01*
X190000000Y-122500000D02*
X190000000Y-112500000D01*
X184595665Y-107095665D02*
X180342315Y-107095665D01*
X190000000Y-112500000D02*
X184595665Y-107095665D01*
X184595665Y-107095665D02*
X184595665Y-95404335D01*
X179544895Y-90353565D02*
X177390315Y-90353565D01*
X184595665Y-95404335D02*
X179544895Y-90353565D01*
D25*
X172343880Y-95400000D02*
X177390315Y-90353565D01*
X165800000Y-95400000D02*
X172343880Y-95400000D01*
D23*
%TO.N,COL8*%
X204271665Y-116771665D02*
X200326315Y-116771665D01*
X207500000Y-132500000D02*
X207500000Y-120000000D01*
X206486335Y-133513665D02*
X207500000Y-132500000D01*
X203278315Y-133513665D02*
X206486335Y-133513665D01*
X207500000Y-120000000D02*
X205000000Y-117500000D01*
X205000000Y-117500000D02*
X204271665Y-116771665D01*
X200030465Y-100030465D02*
X197374315Y-100030465D01*
X205000000Y-117500000D02*
X205000000Y-105000000D01*
X202500000Y-102500000D02*
X202500000Y-90000000D01*
X205000000Y-105000000D02*
X202500000Y-102500000D01*
X202500000Y-102500000D02*
X200030465Y-100030465D01*
X195788665Y-83288665D02*
X194422315Y-83288665D01*
X202500000Y-90000000D02*
X195788665Y-83288665D01*
D25*
X193933650Y-82800000D02*
X194422315Y-83288665D01*
X146692421Y-101625877D02*
X148408423Y-101625877D01*
X188990187Y-83609813D02*
X189800000Y-82800000D01*
X148408423Y-101625877D02*
X152234300Y-97800000D01*
X189800000Y-82800000D02*
X193933650Y-82800000D01*
X152234300Y-97800000D02*
X162400000Y-97800000D01*
X171400000Y-94600000D02*
X176800000Y-89200000D01*
X176800000Y-89200000D02*
X183400000Y-89200000D01*
X162400000Y-97800000D02*
X165600000Y-94600000D01*
X183400000Y-89200000D02*
X187364171Y-85235829D01*
X165600000Y-94600000D02*
X171400000Y-94600000D01*
X187364171Y-85235829D02*
X188418187Y-85235829D01*
X188418187Y-85235829D02*
X188990187Y-84663829D01*
X188990187Y-84663829D02*
X188990187Y-83609813D01*
D23*
%TO.N,COL9*%
X219963315Y-124479665D02*
X223020335Y-124479665D01*
X223020335Y-124479665D02*
X225000000Y-122500000D01*
X225000000Y-122500000D02*
X225000000Y-110000000D01*
X222737665Y-107737665D02*
X217011315Y-107737665D01*
X225000000Y-110000000D02*
X222737665Y-107737665D01*
X215494826Y-92500000D02*
X214059315Y-91064489D01*
X220000000Y-92500000D02*
X215494826Y-92500000D01*
X222737665Y-95237665D02*
X220000000Y-92500000D01*
X214059315Y-91064489D02*
X214059315Y-90995965D01*
X222737665Y-107737665D02*
X222737665Y-95237665D01*
X214254165Y-74254165D02*
X211107315Y-74254165D01*
X220000000Y-80000000D02*
X214254165Y-74254165D01*
X220000000Y-92500000D02*
X220000000Y-80000000D01*
D25*
X209110183Y-74254165D02*
X211107315Y-74254165D01*
X206782174Y-76582174D02*
X209110183Y-74254165D01*
X201400000Y-76582174D02*
X206782174Y-76582174D01*
X196017826Y-71200000D02*
X201400000Y-76582174D01*
X194801478Y-70200000D02*
X195801478Y-71200000D01*
X183000000Y-70200000D02*
X194801478Y-70200000D01*
X195801478Y-71200000D02*
X196017826Y-71200000D01*
X174800000Y-78400000D02*
X183000000Y-70200000D01*
X170036086Y-78400000D02*
X174800000Y-78400000D01*
X162200000Y-86236086D02*
X170036086Y-78400000D01*
X162200000Y-93345548D02*
X162200000Y-86236086D01*
X161863938Y-93681610D02*
X162200000Y-93345548D01*
D23*
%TO.N,COL10*%
X238558315Y-126277665D02*
X243722335Y-126277665D01*
X243722335Y-126277665D02*
X245000000Y-125000000D01*
X245000000Y-125000000D02*
X245000000Y-112500000D01*
X242035665Y-109535665D02*
X235606315Y-109535665D01*
X245000000Y-112500000D02*
X242035665Y-109535665D01*
X242035665Y-109535665D02*
X242035665Y-97035665D01*
X237794265Y-92794265D02*
X232654315Y-92794265D01*
X242035665Y-97035665D02*
X237794265Y-92794265D01*
X237794265Y-92794265D02*
X237794265Y-82794265D01*
X231052565Y-76052565D02*
X229702315Y-76052565D01*
X237794265Y-82794265D02*
X231052565Y-76052565D01*
D25*
X161647213Y-92494430D02*
X161247214Y-92894429D01*
X161647213Y-85918487D02*
X161647213Y-92494430D01*
X182800011Y-69799989D02*
X174600000Y-78000000D01*
X194600011Y-69799989D02*
X182800011Y-69799989D01*
X213185327Y-62585327D02*
X201814673Y-62585327D01*
X201814673Y-62585327D02*
X194600011Y-69799989D01*
X216600000Y-66000000D02*
X213185327Y-62585327D01*
X216600000Y-73200000D02*
X216600000Y-66000000D01*
X221399729Y-77999729D02*
X216600000Y-73200000D01*
X169565700Y-78000000D02*
X161647213Y-85918487D01*
X227755151Y-77999729D02*
X221399729Y-77999729D01*
X174600000Y-78000000D02*
X169565700Y-78000000D01*
X229702315Y-76052565D02*
X227755151Y-77999729D01*
D23*
%TO.N,COL11*%
X256805315Y-126106665D02*
X261393335Y-126106665D01*
X261393335Y-102248241D02*
X255000000Y-95854906D01*
X255000000Y-82931950D02*
X247949315Y-75881265D01*
X255000000Y-95854906D02*
X255000000Y-82931950D01*
X250901315Y-92623065D02*
X254876935Y-92623065D01*
X260635335Y-109364665D02*
X261393335Y-108606665D01*
X261393335Y-108606665D02*
X261393335Y-102248241D01*
X253853315Y-109364665D02*
X260635335Y-109364665D01*
X261393335Y-126106665D02*
X261393335Y-108606665D01*
D25*
X247668050Y-75600000D02*
X247949315Y-75881265D01*
X237800000Y-74739244D02*
X238660756Y-75600000D01*
X229400000Y-61600000D02*
X237800000Y-70000000D01*
X201000000Y-61600000D02*
X229400000Y-61600000D01*
X237800000Y-70000000D02*
X237800000Y-74739244D01*
X193200022Y-69399978D02*
X201000000Y-61600000D01*
X182600022Y-69399978D02*
X193200022Y-69399978D01*
X174400000Y-77600000D02*
X182600022Y-69399978D01*
X169400000Y-77600000D02*
X174400000Y-77600000D01*
X160800000Y-86200000D02*
X169400000Y-77600000D01*
X238660756Y-75600000D02*
X247668050Y-75600000D01*
X160800000Y-92000000D02*
X160800000Y-86200000D01*
%TO.N,SPEAKER*%
X150000000Y-119600000D02*
X150000000Y-120900000D01*
X150000000Y-110818412D02*
X150000000Y-119600000D01*
X145810288Y-106628700D02*
X150000000Y-110818412D01*
%TO.N,+3V3*%
X144707285Y-90830997D02*
X144076286Y-90199998D01*
X144076286Y-90199998D02*
X143650010Y-90199998D01*
X154800000Y-96200000D02*
X154800000Y-90800000D01*
X155200000Y-96600000D02*
X154800000Y-96200000D01*
D24*
X142534573Y-92559460D02*
X144263036Y-90830997D01*
X144263036Y-90830997D02*
X144707285Y-90830997D01*
X142534573Y-93481137D02*
X142534573Y-92559460D01*
%TO.N,VBUS*%
X163888178Y-71200000D02*
X167325132Y-74636954D01*
X154780000Y-71200000D02*
X163888178Y-71200000D01*
X147550000Y-67645000D02*
X147550000Y-70550000D01*
D23*
X156987500Y-61212500D02*
X156000000Y-62200000D01*
X157000000Y-61212500D02*
X156987500Y-61212500D01*
X154490000Y-70710000D02*
X154490000Y-70910000D01*
X155200000Y-70000000D02*
X154490000Y-70710000D01*
D24*
X154490000Y-70910000D02*
X154780000Y-71200000D01*
X147550000Y-74844002D02*
X147550000Y-70550000D01*
X148573403Y-75867405D02*
X147550000Y-74844002D01*
X148573403Y-97162089D02*
X148573403Y-75867405D01*
X147861733Y-97873759D02*
X148573403Y-97162089D01*
X147354020Y-97873759D02*
X147861733Y-97873759D01*
X154200000Y-70910000D02*
X154490000Y-70910000D01*
X152450000Y-69160000D02*
X154200000Y-70910000D01*
X152450000Y-67645000D02*
X152450000Y-69160000D01*
D23*
%TO.N,Net-(R5-Pad2)*%
X158875000Y-65825000D02*
X163400000Y-70350000D01*
X157000000Y-65825000D02*
X158875000Y-65825000D01*
X165711822Y-77600000D02*
X165074868Y-76963046D01*
X166000000Y-77600000D02*
X165711822Y-77600000D01*
D24*
%TO.N,Net-(R6-Pad2)*%
X168855973Y-75824931D02*
X169886519Y-75824931D01*
X167655064Y-76508088D02*
X168172816Y-76508088D01*
X168172816Y-76508088D02*
X168855973Y-75824931D01*
%TO.N,Net-(C1-Pad1)*%
X137319712Y-88763226D02*
X137499998Y-88582940D01*
X135265423Y-88763226D02*
X137319712Y-88763226D01*
X137531749Y-88614691D02*
X137499998Y-88582940D01*
X137531749Y-92599004D02*
X137531749Y-88614691D01*
%TO.N,Net-(C2-Pad2)*%
X140817060Y-89017060D02*
X141800000Y-90000000D01*
X139962018Y-89017060D02*
X140817060Y-89017060D01*
X138782455Y-90196623D02*
X139962018Y-89017060D01*
X138782455Y-92819538D02*
X138782455Y-90196623D01*
%TO.N,VBAT*%
X165581031Y-75091912D02*
X164744936Y-75091912D01*
X167941841Y-75527961D02*
X166017080Y-75527961D01*
X168432310Y-73882310D02*
X168432310Y-75037492D01*
X166017080Y-75527961D02*
X165581031Y-75091912D01*
X160250000Y-65700000D02*
X168432310Y-73882310D01*
X168432310Y-75037492D02*
X167941841Y-75527961D01*
X160250000Y-64575000D02*
X160250000Y-65700000D01*
X146600000Y-88200000D02*
X147000000Y-87800000D01*
X146600000Y-89200000D02*
X146600000Y-88200000D01*
X164744936Y-75091912D02*
X161742403Y-75091912D01*
X161742403Y-75091912D02*
X159600000Y-77234315D01*
X159600000Y-77234315D02*
X159600000Y-88000000D01*
X145800000Y-90000000D02*
X146600000Y-89200000D01*
X145800000Y-91246647D02*
X145800000Y-90000000D01*
X145600000Y-91446647D02*
X145800000Y-91246647D01*
X145600000Y-92000000D02*
X145600000Y-91446647D01*
X145035984Y-92564016D02*
X145600000Y-92000000D01*
X145035984Y-93922204D02*
X145035984Y-92564016D01*
D25*
%TO.N,RED_LED*%
X142787500Y-61212500D02*
X142200000Y-61800000D01*
X143000000Y-61212500D02*
X142787500Y-61212500D01*
X133600010Y-70799990D02*
X137400000Y-67000000D01*
X136800000Y-93600000D02*
X133600010Y-90400010D01*
X136800000Y-98715506D02*
X136800000Y-93600000D01*
X133600010Y-90400010D02*
X133600010Y-70799990D01*
X143852071Y-105767577D02*
X136800000Y-98715506D01*
D23*
%TO.N,Net-(D1-Pad1)*%
X143000000Y-62787500D02*
X143000000Y-64175000D01*
D25*
%TO.N,BLUE_LED*%
X140987500Y-61212500D02*
X140400000Y-61800000D01*
X141200000Y-61212500D02*
X140987500Y-61212500D01*
X133200000Y-90400000D02*
X133200000Y-69800000D01*
X130600000Y-93000000D02*
X133200000Y-90400000D01*
X130600000Y-98563996D02*
X130600000Y-93000000D01*
X130499998Y-99336002D02*
X130499998Y-98663998D01*
X129800000Y-100036000D02*
X130499998Y-99336002D01*
X129800000Y-103600000D02*
X129800000Y-100036000D01*
X130703594Y-104503594D02*
X129800000Y-103600000D01*
X133200000Y-69800000D02*
X136400000Y-66600000D01*
X130499998Y-98663998D02*
X130600000Y-98563996D01*
X133758211Y-104503594D02*
X130703594Y-104503594D01*
D23*
%TO.N,Net-(D2-Pad1)*%
X141200000Y-62787500D02*
X141200000Y-64175000D01*
%TO.N,Net-(D3-Pad1)*%
X157000000Y-62787500D02*
X157000000Y-64175000D01*
D24*
%TO.N,Net-(J1-Pad1)*%
X162800000Y-65025000D02*
X163250000Y-64575000D01*
X162800000Y-66000000D02*
X162800000Y-65025000D01*
%TO.N,Net-(L1-Pad1)*%
X146800001Y-93629426D02*
X146800001Y-91199999D01*
X146286690Y-94142737D02*
X146800001Y-93629426D01*
D23*
%TO.N,Net-(J2-PadB5)*%
X156950000Y-67600001D02*
X156950000Y-67350000D01*
X151750000Y-66377998D02*
X151750000Y-67645000D01*
X152773008Y-65354990D02*
X151750000Y-66377998D01*
X154954990Y-65354990D02*
X152773008Y-65354990D01*
X156950000Y-67350000D02*
X154954990Y-65354990D01*
%TO.N,Net-(J2-PadA5)*%
X143025000Y-67600000D02*
X145425000Y-65200000D01*
X148750000Y-66684998D02*
X148750000Y-67645000D01*
X147265002Y-65200000D02*
X148750000Y-66684998D01*
X145425000Y-65200000D02*
X147265002Y-65200000D01*
%TO.N,RESET*%
X131600000Y-65200000D02*
X137800000Y-65200000D01*
D25*
X139200000Y-66600000D02*
X137800000Y-65200000D01*
X146000000Y-75000000D02*
X146000000Y-70400000D01*
X147855098Y-76855098D02*
X146000000Y-75000000D01*
X147855098Y-96342508D02*
X147855098Y-76855098D01*
X147574553Y-96623053D02*
X147855098Y-96342508D01*
%TO.N,DATA+*%
X150750000Y-68560002D02*
X150750000Y-67645000D01*
X150825000Y-71106800D02*
X150825000Y-68635002D01*
X153025000Y-96293200D02*
X153025000Y-73306800D01*
X150825000Y-68635002D02*
X150750000Y-68560002D01*
X149453648Y-99864552D02*
X153025000Y-96293200D01*
X153025000Y-73306800D02*
X150825000Y-71106800D01*
X147423573Y-99864552D02*
X149453648Y-99864552D01*
X146912954Y-100375171D02*
X147423573Y-99864552D01*
X150750000Y-66750000D02*
X150750000Y-67645000D01*
X150700001Y-66679999D02*
X150700001Y-66700001D01*
X149859999Y-66619999D02*
X150640001Y-66619999D01*
X150640001Y-66619999D02*
X150700001Y-66679999D01*
X149799999Y-66679999D02*
X149859999Y-66619999D01*
X149799999Y-67000001D02*
X149799999Y-66679999D01*
X150700001Y-66700001D02*
X150750000Y-66750000D01*
X149750000Y-67050000D02*
X149799999Y-67000001D01*
X149750000Y-67645000D02*
X149750000Y-67050000D01*
%TO.N,SWCLK*%
X149902823Y-107502823D02*
X154117867Y-107502823D01*
X147777994Y-105377994D02*
X149902823Y-107502823D01*
X146030821Y-105377994D02*
X147777994Y-105377994D01*
%TO.N,SWDIO*%
X146251354Y-104127288D02*
X147927288Y-104127288D01*
X150152822Y-106352822D02*
X155152822Y-106352822D01*
X147927288Y-104127288D02*
X150152822Y-106352822D01*
X155267868Y-108413168D02*
X153676801Y-110004235D01*
X155267868Y-106467868D02*
X155267868Y-108413168D01*
X155152822Y-106352822D02*
X155267868Y-106467868D01*
%TO.N,DATA-*%
X147423573Y-99414552D02*
X149267248Y-99414552D01*
X147133487Y-99124466D02*
X147423573Y-99414552D01*
X147133487Y-99124465D02*
X147133487Y-99124466D01*
X149267248Y-99414552D02*
X152575000Y-96106800D01*
X152575000Y-96106800D02*
X152575000Y-73493200D01*
X152575000Y-73493200D02*
X150375000Y-71293200D01*
X150375000Y-71293200D02*
X150375000Y-69400000D01*
X150250000Y-69275000D02*
X150250000Y-67645000D01*
X150375000Y-69400000D02*
X150250000Y-69275000D01*
X149955000Y-69275000D02*
X150250000Y-69275000D01*
X149250000Y-68570000D02*
X149955000Y-69275000D01*
X149250000Y-67645000D02*
X149250000Y-68570000D01*
%TD*%
M02*
