%TF.GenerationSoftware,KiCad,Pcbnew,(5.1.10)-1*%
%TF.CreationDate,2021-11-02T21:32:16-06:00*%
%TF.ProjectId,VColChoc44,56436f6c-4368-46f6-9334-342e6b696361,rev?*%
%TF.SameCoordinates,Original*%
%TF.FileFunction,Paste,Top*%
%TF.FilePolarity,Positive*%
%FSLAX46Y46*%
G04 Gerber Fmt 4.6, Leading zero omitted, Abs format (unit mm)*
G04 Created by KiCad (PCBNEW (5.1.10)-1) date 2021-11-02 21:32:16*
%MOMM*%
%LPD*%
G01*
G04 APERTURE LIST*
%ADD10C,0.100000*%
G04 APERTURE END LIST*
D10*
%TO.C,U44*%
G36*
X254428588Y-117234593D02*
G01*
X254220211Y-116052824D01*
X255106538Y-115896541D01*
X255314915Y-117078310D01*
X254428588Y-117234593D01*
G37*
G36*
X251178722Y-117807631D02*
G01*
X250970345Y-116625862D01*
X251856672Y-116469579D01*
X252065049Y-117651348D01*
X251178722Y-117807631D01*
G37*
%TD*%
%TO.C,U32*%
G36*
X233229588Y-100663593D02*
G01*
X233021211Y-99481824D01*
X233907538Y-99325541D01*
X234115915Y-100507310D01*
X233229588Y-100663593D01*
G37*
G36*
X229979722Y-101236631D02*
G01*
X229771345Y-100054862D01*
X230657672Y-99898579D01*
X230866049Y-101080348D01*
X229979722Y-101236631D01*
G37*
%TD*%
%TO.C,U43*%
G36*
X236181588Y-117405593D02*
G01*
X235973211Y-116223824D01*
X236859538Y-116067541D01*
X237067915Y-117249310D01*
X236181588Y-117405593D01*
G37*
G36*
X232931722Y-117978631D02*
G01*
X232723345Y-116796862D01*
X233609672Y-116640579D01*
X233818049Y-117822348D01*
X232931722Y-117978631D01*
G37*
%TD*%
%TO.C,U42*%
G36*
X217586588Y-115607593D02*
G01*
X217378211Y-114425824D01*
X218264538Y-114269541D01*
X218472915Y-115451310D01*
X217586588Y-115607593D01*
G37*
G36*
X214336722Y-116180631D02*
G01*
X214128345Y-114998862D01*
X215014672Y-114842579D01*
X215223049Y-116024348D01*
X214336722Y-116180631D01*
G37*
%TD*%
%TO.C,U41*%
G36*
X200901588Y-124641593D02*
G01*
X200693211Y-123459824D01*
X201579538Y-123303541D01*
X201787915Y-124485310D01*
X200901588Y-124641593D01*
G37*
G36*
X197651722Y-125214631D02*
G01*
X197443345Y-124032862D01*
X198329672Y-123876579D01*
X198538049Y-125058348D01*
X197651722Y-125214631D01*
G37*
%TD*%
%TO.C,U40*%
G36*
X183869588Y-131706593D02*
G01*
X183661211Y-130524824D01*
X184547538Y-130368541D01*
X184755915Y-131550310D01*
X183869588Y-131706593D01*
G37*
G36*
X180619722Y-132279631D02*
G01*
X180411345Y-131097862D01*
X181297672Y-130941579D01*
X181506049Y-132123348D01*
X180619722Y-132279631D01*
G37*
%TD*%
%TO.C,U39*%
G36*
X165795588Y-132862593D02*
G01*
X165587211Y-131680824D01*
X166473538Y-131524541D01*
X166681915Y-132706310D01*
X165795588Y-132862593D01*
G37*
G36*
X162545722Y-133435631D02*
G01*
X162337345Y-132253862D01*
X163223672Y-132097579D01*
X163432049Y-133279348D01*
X162545722Y-133435631D01*
G37*
%TD*%
%TO.C,U33*%
G36*
X251476588Y-100492593D02*
G01*
X251268211Y-99310824D01*
X252154538Y-99154541D01*
X252362915Y-100336310D01*
X251476588Y-100492593D01*
G37*
G36*
X248226722Y-101065631D02*
G01*
X248018345Y-99883862D01*
X248904672Y-99727579D01*
X249113049Y-100909348D01*
X248226722Y-101065631D01*
G37*
%TD*%
%TO.C,U31*%
G36*
X214634588Y-98865593D02*
G01*
X214426211Y-97683824D01*
X215312538Y-97527541D01*
X215520915Y-98709310D01*
X214634588Y-98865593D01*
G37*
G36*
X211384722Y-99438631D02*
G01*
X211176345Y-98256862D01*
X212062672Y-98100579D01*
X212271049Y-99282348D01*
X211384722Y-99438631D01*
G37*
%TD*%
%TO.C,U30*%
G36*
X197949588Y-107899593D02*
G01*
X197741211Y-106717824D01*
X198627538Y-106561541D01*
X198835915Y-107743310D01*
X197949588Y-107899593D01*
G37*
G36*
X194699722Y-108472631D02*
G01*
X194491345Y-107290862D01*
X195377672Y-107134579D01*
X195586049Y-108316348D01*
X194699722Y-108472631D01*
G37*
%TD*%
%TO.C,U29*%
G36*
X180917588Y-114964593D02*
G01*
X180709211Y-113782824D01*
X181595538Y-113626541D01*
X181803915Y-114808310D01*
X180917588Y-114964593D01*
G37*
G36*
X177667722Y-115537631D02*
G01*
X177459345Y-114355862D01*
X178345672Y-114199579D01*
X178554049Y-115381348D01*
X177667722Y-115537631D01*
G37*
%TD*%
%TO.C,U28*%
G36*
X162843588Y-116120593D02*
G01*
X162635211Y-114938824D01*
X163521538Y-114782541D01*
X163729915Y-115964310D01*
X162843588Y-116120593D01*
G37*
G36*
X159593722Y-116693631D02*
G01*
X159385345Y-115511862D01*
X160271672Y-115355579D01*
X160480049Y-116537348D01*
X159593722Y-116693631D01*
G37*
%TD*%
%TO.C,U38*%
G36*
X118493951Y-132123348D02*
G01*
X118702328Y-130941579D01*
X119588655Y-131097862D01*
X119380278Y-132279631D01*
X118493951Y-132123348D01*
G37*
G36*
X115244085Y-131550310D02*
G01*
X115452462Y-130368541D01*
X116338789Y-130524824D01*
X116130412Y-131706593D01*
X115244085Y-131550310D01*
G37*
%TD*%
%TO.C,U37*%
G36*
X101461751Y-125058348D02*
G01*
X101670128Y-123876579D01*
X102556455Y-124032862D01*
X102348078Y-125214631D01*
X101461751Y-125058348D01*
G37*
G36*
X98211885Y-124485310D02*
G01*
X98420262Y-123303541D01*
X99306589Y-123459824D01*
X99098212Y-124641593D01*
X98211885Y-124485310D01*
G37*
%TD*%
%TO.C,U36*%
G36*
X84777151Y-116024348D02*
G01*
X84985528Y-114842579D01*
X85871855Y-114998862D01*
X85663478Y-116180631D01*
X84777151Y-116024348D01*
G37*
G36*
X81527285Y-115451310D02*
G01*
X81735662Y-114269541D01*
X82621989Y-114425824D01*
X82413612Y-115607593D01*
X81527285Y-115451310D01*
G37*
%TD*%
%TO.C,U35*%
G36*
X66182351Y-117822348D02*
G01*
X66390728Y-116640579D01*
X67277055Y-116796862D01*
X67068678Y-117978631D01*
X66182351Y-117822348D01*
G37*
G36*
X62932485Y-117249310D02*
G01*
X63140862Y-116067541D01*
X64027189Y-116223824D01*
X63818812Y-117405593D01*
X62932485Y-117249310D01*
G37*
%TD*%
%TO.C,U34*%
G36*
X47934851Y-117651348D02*
G01*
X48143228Y-116469579D01*
X49029555Y-116625862D01*
X48821178Y-117807631D01*
X47934851Y-117651348D01*
G37*
G36*
X44684985Y-117078310D02*
G01*
X44893362Y-115896541D01*
X45779689Y-116052824D01*
X45571312Y-117234593D01*
X44684985Y-117078310D01*
G37*
%TD*%
%TO.C,U27*%
G36*
X121445951Y-115381348D02*
G01*
X121654328Y-114199579D01*
X122540655Y-114355862D01*
X122332278Y-115537631D01*
X121445951Y-115381348D01*
G37*
G36*
X118196085Y-114808310D02*
G01*
X118404462Y-113626541D01*
X119290789Y-113782824D01*
X119082412Y-114964593D01*
X118196085Y-114808310D01*
G37*
%TD*%
%TO.C,U26*%
G36*
X104413951Y-108316348D02*
G01*
X104622328Y-107134579D01*
X105508655Y-107290862D01*
X105300278Y-108472631D01*
X104413951Y-108316348D01*
G37*
G36*
X101164085Y-107743310D02*
G01*
X101372462Y-106561541D01*
X102258789Y-106717824D01*
X102050412Y-107899593D01*
X101164085Y-107743310D01*
G37*
%TD*%
%TO.C,U25*%
G36*
X87729151Y-99282348D02*
G01*
X87937528Y-98100579D01*
X88823855Y-98256862D01*
X88615478Y-99438631D01*
X87729151Y-99282348D01*
G37*
G36*
X84479285Y-98709310D02*
G01*
X84687662Y-97527541D01*
X85573989Y-97683824D01*
X85365612Y-98865593D01*
X84479285Y-98709310D01*
G37*
%TD*%
%TO.C,U24*%
G36*
X69134351Y-101080348D02*
G01*
X69342728Y-99898579D01*
X70229055Y-100054862D01*
X70020678Y-101236631D01*
X69134351Y-101080348D01*
G37*
G36*
X65884485Y-100507310D02*
G01*
X66092862Y-99325541D01*
X66979189Y-99481824D01*
X66770812Y-100663593D01*
X65884485Y-100507310D01*
G37*
%TD*%
%TO.C,U23*%
G36*
X50910786Y-100940823D02*
G01*
X51119163Y-99759054D01*
X52005490Y-99915337D01*
X51797113Y-101097106D01*
X50910786Y-100940823D01*
G37*
G36*
X47660920Y-100367785D02*
G01*
X47869297Y-99186016D01*
X48755624Y-99342299D01*
X48547247Y-100524068D01*
X47660920Y-100367785D01*
G37*
%TD*%
%TO.C,U22*%
G36*
X248524588Y-83750993D02*
G01*
X248316211Y-82569224D01*
X249202538Y-82412941D01*
X249410915Y-83594710D01*
X248524588Y-83750993D01*
G37*
G36*
X245274722Y-84324031D02*
G01*
X245066345Y-83142262D01*
X245952672Y-82985979D01*
X246161049Y-84167748D01*
X245274722Y-84324031D01*
G37*
%TD*%
%TO.C,U21*%
G36*
X230277588Y-83922193D02*
G01*
X230069211Y-82740424D01*
X230955538Y-82584141D01*
X231163915Y-83765910D01*
X230277588Y-83922193D01*
G37*
G36*
X227027722Y-84495231D02*
G01*
X226819345Y-83313462D01*
X227705672Y-83157179D01*
X227914049Y-84338948D01*
X227027722Y-84495231D01*
G37*
%TD*%
%TO.C,U20*%
G36*
X211682588Y-82123893D02*
G01*
X211474211Y-80942124D01*
X212360538Y-80785841D01*
X212568915Y-81967610D01*
X211682588Y-82123893D01*
G37*
G36*
X208432722Y-82696931D02*
G01*
X208224345Y-81515162D01*
X209110672Y-81358879D01*
X209319049Y-82540648D01*
X208432722Y-82696931D01*
G37*
%TD*%
%TO.C,U19*%
G36*
X194997588Y-91158393D02*
G01*
X194789211Y-89976624D01*
X195675538Y-89820341D01*
X195883915Y-91002110D01*
X194997588Y-91158393D01*
G37*
G36*
X191747722Y-91731431D02*
G01*
X191539345Y-90549662D01*
X192425672Y-90393379D01*
X192634049Y-91575148D01*
X191747722Y-91731431D01*
G37*
%TD*%
%TO.C,U18*%
G36*
X177965588Y-98223593D02*
G01*
X177757211Y-97041824D01*
X178643538Y-96885541D01*
X178851915Y-98067310D01*
X177965588Y-98223593D01*
G37*
G36*
X174715722Y-98796631D02*
G01*
X174507345Y-97614862D01*
X175393672Y-97458579D01*
X175602049Y-98640348D01*
X174715722Y-98796631D01*
G37*
%TD*%
%TO.C,U17*%
G36*
X136567951Y-133279348D02*
G01*
X136776328Y-132097579D01*
X137662655Y-132253862D01*
X137454278Y-133435631D01*
X136567951Y-133279348D01*
G37*
G36*
X133318085Y-132706310D02*
G01*
X133526462Y-131524541D01*
X134412789Y-131680824D01*
X134204412Y-132862593D01*
X133318085Y-132706310D01*
G37*
%TD*%
%TO.C,U16*%
G36*
X124397951Y-98640348D02*
G01*
X124606328Y-97458579D01*
X125492655Y-97614862D01*
X125284278Y-98796631D01*
X124397951Y-98640348D01*
G37*
G36*
X121148085Y-98067310D02*
G01*
X121356462Y-96885541D01*
X122242789Y-97041824D01*
X122034412Y-98223593D01*
X121148085Y-98067310D01*
G37*
%TD*%
%TO.C,U15*%
G36*
X107365951Y-91575148D02*
G01*
X107574328Y-90393379D01*
X108460655Y-90549662D01*
X108252278Y-91731431D01*
X107365951Y-91575148D01*
G37*
G36*
X104116085Y-91002110D02*
G01*
X104324462Y-89820341D01*
X105210789Y-89976624D01*
X105002412Y-91158393D01*
X104116085Y-91002110D01*
G37*
%TD*%
%TO.C,U14*%
G36*
X90701994Y-82561838D02*
G01*
X90910371Y-81380069D01*
X91796698Y-81536352D01*
X91588321Y-82718121D01*
X90701994Y-82561838D01*
G37*
G36*
X87452128Y-81988800D02*
G01*
X87660505Y-80807031D01*
X88546832Y-80963314D01*
X88338455Y-82145083D01*
X87452128Y-81988800D01*
G37*
%TD*%
%TO.C,U13*%
G36*
X72096488Y-84373147D02*
G01*
X72304865Y-83191378D01*
X73191192Y-83347661D01*
X72982815Y-84529430D01*
X72096488Y-84373147D01*
G37*
G36*
X68846622Y-83800109D02*
G01*
X69054999Y-82618340D01*
X69941326Y-82774623D01*
X69732949Y-83956392D01*
X68846622Y-83800109D01*
G37*
%TD*%
%TO.C,U11*%
G36*
X245572588Y-67009193D02*
G01*
X245364211Y-65827424D01*
X246250538Y-65671141D01*
X246458915Y-66852910D01*
X245572588Y-67009193D01*
G37*
G36*
X242322722Y-67582231D02*
G01*
X242114345Y-66400462D01*
X243000672Y-66244179D01*
X243209049Y-67425948D01*
X242322722Y-67582231D01*
G37*
%TD*%
%TO.C,U10*%
G36*
X227325588Y-67180493D02*
G01*
X227117211Y-65998724D01*
X228003538Y-65842441D01*
X228211915Y-67024210D01*
X227325588Y-67180493D01*
G37*
G36*
X224075722Y-67753531D02*
G01*
X223867345Y-66571762D01*
X224753672Y-66415479D01*
X224962049Y-67597248D01*
X224075722Y-67753531D01*
G37*
%TD*%
%TO.C,U9*%
G36*
X208730588Y-65382093D02*
G01*
X208522211Y-64200324D01*
X209408538Y-64044041D01*
X209616915Y-65225810D01*
X208730588Y-65382093D01*
G37*
G36*
X205480722Y-65955131D02*
G01*
X205272345Y-64773362D01*
X206158672Y-64617079D01*
X206367049Y-65798848D01*
X205480722Y-65955131D01*
G37*
%TD*%
%TO.C,U8*%
G36*
X192045588Y-74416593D02*
G01*
X191837211Y-73234824D01*
X192723538Y-73078541D01*
X192931915Y-74260310D01*
X192045588Y-74416593D01*
G37*
G36*
X188795722Y-74989631D02*
G01*
X188587345Y-73807862D01*
X189473672Y-73651579D01*
X189682049Y-74833348D01*
X188795722Y-74989631D01*
G37*
%TD*%
%TO.C,U7*%
G36*
X175013588Y-81481493D02*
G01*
X174805211Y-80299724D01*
X175691538Y-80143441D01*
X175899915Y-81325210D01*
X175013588Y-81481493D01*
G37*
G36*
X171763722Y-82054531D02*
G01*
X171555345Y-80872762D01*
X172441672Y-80716479D01*
X172650049Y-81898248D01*
X171763722Y-82054531D01*
G37*
%TD*%
%TO.C,U6*%
G36*
X139519951Y-116537348D02*
G01*
X139728328Y-115355579D01*
X140614655Y-115511862D01*
X140406278Y-116693631D01*
X139519951Y-116537348D01*
G37*
G36*
X136270085Y-115964310D02*
G01*
X136478462Y-114782541D01*
X137364789Y-114938824D01*
X137156412Y-116120593D01*
X136270085Y-115964310D01*
G37*
%TD*%
%TO.C,U5*%
G36*
X127349951Y-81898248D02*
G01*
X127558328Y-80716479D01*
X128444655Y-80872762D01*
X128236278Y-82054531D01*
X127349951Y-81898248D01*
G37*
G36*
X124100085Y-81325210D02*
G01*
X124308462Y-80143441D01*
X125194789Y-80299724D01*
X124986412Y-81481493D01*
X124100085Y-81325210D01*
G37*
%TD*%
%TO.C,U4*%
G36*
X110317951Y-74833348D02*
G01*
X110526328Y-73651579D01*
X111412655Y-73807862D01*
X111204278Y-74989631D01*
X110317951Y-74833348D01*
G37*
G36*
X107068085Y-74260310D02*
G01*
X107276462Y-73078541D01*
X108162789Y-73234824D01*
X107954412Y-74416593D01*
X107068085Y-74260310D01*
G37*
%TD*%
%TO.C,U3*%
G36*
X93633151Y-65798848D02*
G01*
X93841528Y-64617079D01*
X94727855Y-64773362D01*
X94519478Y-65955131D01*
X93633151Y-65798848D01*
G37*
G36*
X90383285Y-65225810D02*
G01*
X90591662Y-64044041D01*
X91477989Y-64200324D01*
X91269612Y-65382093D01*
X90383285Y-65225810D01*
G37*
%TD*%
%TO.C,U2*%
G36*
X75038351Y-67597248D02*
G01*
X75246728Y-66415479D01*
X76133055Y-66571762D01*
X75924678Y-67753531D01*
X75038351Y-67597248D01*
G37*
G36*
X71788485Y-67024210D02*
G01*
X71996862Y-65842441D01*
X72883189Y-65998724D01*
X72674812Y-67180493D01*
X71788485Y-67024210D01*
G37*
%TD*%
%TO.C,U12*%
G36*
X53838851Y-84167748D02*
G01*
X54047228Y-82985979D01*
X54933555Y-83142262D01*
X54725178Y-84324031D01*
X53838851Y-84167748D01*
G37*
G36*
X50588985Y-83594710D02*
G01*
X50797362Y-82412941D01*
X51683689Y-82569224D01*
X51475312Y-83750993D01*
X50588985Y-83594710D01*
G37*
%TD*%
%TO.C,U1*%
G36*
X56790951Y-67425948D02*
G01*
X56999328Y-66244179D01*
X57885655Y-66400462D01*
X57677278Y-67582231D01*
X56790951Y-67425948D01*
G37*
G36*
X53541085Y-66852910D02*
G01*
X53749462Y-65671141D01*
X54635789Y-65827424D01*
X54427412Y-67009193D01*
X53541085Y-66852910D01*
G37*
%TD*%
M02*
