M48
; DRILL file {KiCad (5.1.10)-1} date 10/03/21 17:33:35
; FORMAT={-:-/ absolute / inch / decimal}
; #@! TF.CreationDate,2021-10-03T17:33:35-06:00
; #@! TF.GenerationSoftware,Kicad,Pcbnew,(5.1.10)-1
; #@! TF.FileFunction,Plated,1,2,PTH
FMAT,2
INCH
T1C0.0138
T2C0.0157
T3C0.0236
%
G90
G05
T1
X5.8553Y-3.6014
X5.8553Y-3.6516
X5.8553Y-3.7018
X5.9055Y-3.6014
X5.9055Y-3.6516
X5.9055Y-3.7018
X5.9557Y-3.6014
X5.9557Y-3.6516
X5.9557Y-3.7018
T2
X1.6732Y-4.5965
X1.6929Y-4.5118
X1.813Y-3.8563
X1.8307Y-2.7638
X1.8686Y-3.9941
X1.9252Y-3.2106
X2.0079Y-4.5866
X2.0374Y-2.5492
X2.0472Y-2.7461
X2.0669Y-2.9035
X2.0906Y-2.6929
X2.1161Y-4.7539
X2.1299Y-4.9449
X2.1682Y-3.9157
X2.1949Y-4.065
X2.2343Y-2.8839
X2.2539Y-3.3957
X2.2638Y-4.2913
X2.3098Y-3.1893
X2.3701Y-3.6339
X2.3917Y-4.5965
X2.4075Y-4.5217
X2.4567Y-2.9685
X2.4591Y-3.9473
X2.5098Y-3.8602
X2.5157Y-3.4724
X2.6126Y-3.2796
X2.6398Y-3.2126
X2.7165Y-4.5472
X2.7165Y-4.9409
X2.75Y-2.5551
X2.7657Y-2.815
X2.7953Y-4.7441
X2.8344Y-3.819
X2.8465Y-4.2677
X2.9232Y-3.1794
X2.9528Y-3.8189
X3.0Y-3.626
X3.0709Y-3.0217
X3.1063Y-2.9567
X3.1299Y-4.5276
X3.1398Y-4.4508
X3.2008Y-3.6378
X3.2087Y-3.0217
X3.2225Y-3.9102
X3.248Y-4.0551
X3.2539Y-3.7953
X3.3563Y-3.6024
X3.3588Y-3.2152
X3.372Y-3.1398
X3.3982Y-4.4248
X3.4547Y-5.0787
X3.4606Y-4.8583
X3.4803Y-2.4843
X3.563Y-3.5335
X3.5827Y-4.0059
X3.5827Y-4.1929
X3.5967Y-3.854
X3.6122Y-4.6358
X3.6378Y-3.5319
X3.6614Y-3.3465
X3.6614Y-3.7598
X3.7402Y-3.5512
X3.7402Y-4.0551
X3.7431Y-4.5891
X3.7894Y-5.0295
X3.7992Y-2.9429
X3.7992Y-4.8071
X3.8386Y-4.6555
X3.8484Y-4.252
X3.8544Y-2.8779
X3.8878Y-4.0945
X3.8878Y-3.5925
X3.8976Y-3.4734
X3.9173Y-4.4488
X3.9193Y-4.1535
X3.937Y-2.815
X3.9567Y-3.376
X3.9567Y-3.9862
X3.9998Y-3.5965
X4.0118Y-3.5118
X4.065Y-2.9626
X4.0748Y-5.4429
X4.126Y-5.2126
X4.1398Y-2.8268
X4.1732Y-3.2185
X4.1802Y-4.855
X4.2028Y-5.2953
X4.2283Y-4.5394
X4.2363Y-4.1959
X4.2618Y-5.1083
X4.2717Y-4.3504
X4.3209Y-3.5039
X4.3209Y-3.6811
X4.3602Y-3.2185
X4.3661Y-3.8543
X4.3942Y-4.8928
X4.4094Y-5.1476
X4.4193Y-3.5531
X4.439Y-3.0413
X4.4488Y-3.2126
X4.4685Y-5.0768
X4.4783Y-3.9961
X4.4783Y-5.2953
X4.5177Y-3.5827
X4.5305Y-4.2538
X4.5866Y-4.4252
X4.6063Y-3.189
X4.6122Y-2.7598
X4.6161Y-3.3071
X4.6654Y-3.8287
X4.6949Y-3.7795
X4.7047Y-5.4626
X4.7244Y-3.189
X4.8031Y-4.7933
X4.8031Y-5.1476
X4.8031Y-5.4921
X4.811Y-3.1083
X4.813Y-3.3366
X4.8622Y-4.6949
X4.8976Y-4.8189
X4.9311Y-5.2264
X4.9606Y-5.5669
X4.9654Y-4.4025
X4.9803Y-3.7894
X5.0787Y-4.6457
X5.1299Y-4.2283
X5.1476Y-3.3071
X5.1575Y-4.0354
X5.1654Y-3.4961
X5.1752Y-5.124
X5.1772Y-5.187
X5.248Y-4.2638
X5.3031Y-4.4744
X5.3041Y-3.9686
X5.3057Y-4.3971
X5.4528Y-4.124
X5.4646Y-3.4331
X5.4646Y-3.5157
X5.4663Y-3.6911
X5.4891Y-4.3614
X5.5315Y-4.813
X5.5512Y-3.8189
X5.5709Y-4.4882
X5.5807Y-4.9114
X5.586Y-5.1402
X5.6102Y-4.685
X5.6339Y-3.6417
X5.6358Y-3.7382
X5.6398Y-4.439
X5.6693Y-5.3248
X5.6693Y-5.6496
X5.689Y-3.2008
X5.6988Y-3.8091
X5.7008Y-3.5433
X5.7402Y-4.0709
X5.7402Y-4.1772
X5.7559Y-5.4882
X5.7579Y-4.2421
X5.7598Y-3.2008
X5.7687Y-5.0118
X5.7756Y-2.7441
X5.8209Y-3.3898
X5.8386Y-2.5866
X5.8465Y-3.1063
X5.8465Y-3.1417
X5.8612Y-3.8809
X5.8661Y-4.0689
X5.8661Y-4.2421
X5.8819Y-2.748
X5.9035Y-5.4094
X5.9055Y-5.6909
X5.9213Y-2.748
X5.935Y-4.9311
X5.935Y-5.0689
X5.939Y-3.563
X5.9449Y-4.4094
X5.9528Y-2.5906
X5.9528Y-3.0866
X5.9528Y-3.126
X5.9646Y-3.189
X6.0Y-2.7913
X6.0Y-4.063
X6.0276Y-3.189
X6.0394Y-2.7441
X6.0669Y-4.3307
X6.0709Y-3.0984
X6.0827Y-4.2421
X6.0984Y-4.0591
X6.1122Y-4.439
X6.1417Y-4.3031
X6.1496Y-5.6772
X6.1614Y-3.9075
X6.1732Y-3.811
X6.1955Y-3.7772
X6.1976Y-4.5476
X6.2205Y-4.0256
X6.2292Y-5.2139
X6.2303Y-4.4291
X6.2349Y-3.7776
X6.25Y-4.626
X6.2913Y-3.4705
X6.2913Y-3.7736
X6.2992Y-4.2815
X6.3031Y-5.2126
X6.3091Y-5.3248
X6.3307Y-3.752
X6.3386Y-3.5
X6.366Y-3.5302
X6.3699Y-3.5693
X6.3734Y-3.7436
X6.3739Y-3.6085
X6.3758Y-3.6478
X6.4114Y-3.3071
X6.437Y-3.8878
X6.4724Y-2.8701
X6.5157Y-4.6457
X6.5453Y-4.8327
X6.5591Y-3.6969
X6.5984Y-4.0433
X6.6043Y-3.8878
X6.6575Y-4.7717
X6.6692Y-5.1211
X6.6713Y-3.1791
X6.6876Y-4.5467
X6.6969Y-2.5512
X6.7028Y-3.6909
X6.7765Y-3.8725
X6.8209Y-5.2559
X6.8307Y-5.4449
X6.8359Y-3.0498
X6.8665Y-4.5703
X6.9035Y-4.502
X6.9254Y-5.1294
X6.9685Y-3.4449
X7.0067Y-3.6672
X7.0118Y-5.1614
X7.0177Y-5.2657
X7.1457Y-3.2579
X7.1457Y-3.8681
X7.1654Y-3.6024
X7.1662Y-4.3842
X7.185Y-3.0315
X7.2343Y-3.4252
X7.2441Y-3.3622
X7.2539Y-3.189
X7.2933Y-3.8484
X7.3031Y-5.4823
X7.3239Y-5.0207
X7.3366Y-2.9055
X7.3371Y-4.0901
X7.3425Y-5.3642
X7.3474Y-4.1312
X7.3917Y-3.5925
X7.4311Y-3.5039
X7.4311Y-3.6614
X7.4331Y-4.7441
X7.4409Y-3.3661
X7.4409Y-4.2224
X7.4409Y-4.4783
X7.5197Y-5.1181
X7.5354Y-5.3976
X7.5591Y-4.872
X7.5768Y-4.2205
X7.5853Y-4.3707
X7.6476Y-3.1693
X7.6909Y-4.8799
X7.6974Y-4.999
X7.7264Y-4.5276
X7.7362Y-3.4055
X7.8135Y-3.3576
X7.8346Y-3.0512
X7.8642Y-2.7264
X7.8839Y-4.4882
X7.8937Y-3.1693
X7.9134Y-3.5335
X7.9492Y-3.993
X7.9626Y-3.0118
X7.9626Y-3.3858
X7.9724Y-3.2382
X7.9882Y-2.5472
X7.9882Y-3.7717
X7.9921Y-3.4606
X8.0118Y-4.7933
X8.0512Y-4.1535
X8.0869Y-3.3275
X8.0906Y-2.8051
X8.0906Y-3.8681
X8.0906Y-4.7146
X8.1083Y-3.2087
X8.1181Y-4.5748
X8.2045Y-4.3954
X8.2047Y-5.122
X8.2087Y-4.6752
X8.2283Y-3.8681
X8.248Y-3.4941
X8.248Y-3.7106
X8.2497Y-3.993
X8.2874Y-4.4094
X8.3169Y-2.6969
X8.3425Y-4.5256
X8.3465Y-4.5768
X8.3563Y-4.1437
X8.4202Y-3.0646
X8.435Y-3.3071
X8.4449Y-5.0295
X8.4547Y-2.5787
X8.4646Y-3.002
X8.5039Y-2.7913
X8.5138Y-3.7008
X8.5531Y-3.7697
X8.5925Y-3.1693
X8.595Y-4.3994
X8.6501Y-3.5133
X8.6713Y-3.7992
X8.708Y-3.0798
X8.7106Y-4.7835
X8.7165Y-3.3228
X8.7283Y-2.6161
X8.7402Y-4.1024
X8.7992Y-2.7953
X8.7992Y-3.9665
X8.8346Y-3.2756
X8.8484Y-5.0197
X8.8622Y-4.7795
X8.8687Y-3.7632
X8.8976Y-3.4252
X8.9173Y-4.6555
X8.9469Y-4.0256
X8.9665Y-3.935
X9.0354Y-4.5276
X9.0551Y-2.7953
X9.0689Y-4.5984
X9.088Y-3.1592
X9.0904Y-4.6417
X9.1043Y-4.2815
X9.1634Y-2.6476
X9.2431Y-2.8583
X9.3056Y-3.8345
X9.3209Y-3.1102
X9.3406Y-3.2677
X9.3701Y-3.4961
X9.3962Y-4.5143
X9.3996Y-2.7559
X9.437Y-3.4055
X9.4488Y-4.3996
X9.4508Y-2.6102
X9.4556Y-2.7551
X9.4783Y-4.1831
X9.498Y-3.9665
X9.5132Y-3.2599
X9.5276Y-2.7461
X9.565Y-3.2697
X9.5669Y-4.5669
X9.5787Y-4.8425
X9.6225Y-3.9055
X9.6555Y-2.9232
X9.6713Y-3.9272
X9.7638Y-2.7559
X9.7894Y-4.5906
X9.7933Y-4.6358
X9.8148Y-3.8147
X9.8622Y-4.7343
X9.878Y-2.8504
X9.9311Y-3.0709
X9.9508Y-3.189
X9.9921Y-3.5197
X10.0394Y-3.3268
X10.0492Y-4.4783
X10.0984Y-4.1772
X10.1772Y-3.6319
X10.2126Y-4.8307
T3
G00X5.7354Y-2.4902
M15
G01X5.7354Y-2.4665
M16
G05
G00X5.7354Y-2.6646
M15
G01X5.7354Y-2.6213
M16
G05
G00X6.0756Y-2.4902
M15
G01X6.0756Y-2.4665
M16
G05
G00X6.0756Y-2.6646
M15
G01X6.0756Y-2.6213
M16
G05
T0
M30
