M48
; DRILL file {KiCad (5.1.10)-1} date 11/02/21 21:32:18
; FORMAT={-:-/ absolute / inch / decimal}
; #@! TF.CreationDate,2021-11-02T21:32:18-06:00
; #@! TF.GenerationSoftware,Kicad,Pcbnew,(5.1.10)-1
; #@! TF.FileFunction,Plated,1,2,PTH
FMAT,2
INCH
T1C0.0157
T2C0.0197
T3C0.0236
T4C0.0394
T5C0.0433
%
G90
G05
T1
X2.6929Y-2.5039
X3.9005Y-2.4381
X4.0866Y-4.0709
X4.4331Y-4.1732
X5.1496Y-4.0157
X5.1654Y-3.8976
X5.1693Y-3.8583
X5.1693Y-4.0709
X5.189Y-3.811
X5.2087Y-3.6772
X5.2555Y-3.952
X5.2677Y-3.7953
X5.2913Y-3.4094
X5.3583Y-3.8736
X5.3701Y-2.622
X5.4094Y-2.6378
X5.4488Y-3.2283
X5.4724Y-3.378
X5.4803Y-2.622
X5.5276Y-2.4331
X5.5276Y-3.2126
X5.5276Y-3.3543
X5.5984Y-2.4331
X5.6555Y-3.5512
X5.665Y-3.4925
X5.6767Y-3.6424
X5.748Y-2.7717
X5.7717Y-2.7244
X5.7874Y-3.4567
X5.8091Y-2.7776
X6.0374Y-2.7579
X6.0709Y-2.7244
X6.0945Y-3.5748
X6.1102Y-2.7559
X6.1102Y-3.8031
X6.1417Y-2.4488
X6.1496Y-3.5591
X6.1575Y-3.8031
X6.2835Y-3.4646
X6.3307Y-3.622
X6.3483Y-3.6573
X6.3726Y-3.6883
X6.4094Y-2.5984
X6.4331Y-2.7697
X6.5276Y-3.7559
X6.5354Y-3.0551
T2
X5.4276Y-3.7163
X5.4769Y-3.725
X5.5261Y-3.7337
X5.5754Y-3.7424
X5.6246Y-3.7511
X5.6548Y-4.2133
X5.6635Y-4.1641
X5.6721Y-4.1148
X5.6738Y-3.7597
X5.6808Y-4.0656
X5.6895Y-4.0164
X5.6982Y-3.9671
X5.7069Y-3.9179
X5.7156Y-3.8686
X5.7231Y-3.7684
T4
X6.0503Y-4.3309
X6.0676Y-4.2324
X6.085Y-4.1339
X6.1024Y-4.0354
X6.3803Y-3.0511
X6.3976Y-3.1496
T5
X1.6026Y-4.9356
X1.642Y-4.5487
X1.7198Y-4.2777
X1.7592Y-3.8908
X1.835Y-3.6173
X1.8557Y-4.9922
X1.8745Y-3.2305
X1.9513Y-2.9582
X1.9728Y-4.3343
X1.9907Y-2.5714
X2.053Y-4.6212
X2.0881Y-3.6739
X2.1702Y-3.9633
X2.2043Y-3.0148
X2.2854Y-3.3029
X2.321Y-4.9423
X2.3604Y-4.5555
X2.4017Y-2.6438
X2.4372Y-4.2832
X2.4766Y-3.8963
X2.5538Y-3.6254
X2.5741Y-4.9989
X2.5933Y-3.2386
X2.6697Y-2.9649
X2.6903Y-4.3398
X2.7091Y-2.5781
X2.7714Y-4.6279
X2.8069Y-3.682
X2.8876Y-3.9688
X2.9227Y-3.0215
X3.0042Y-3.311
X3.0531Y-4.8715
X3.0925Y-4.4847
X3.1201Y-2.6506
X3.1693Y-4.2124
X3.2087Y-3.8255
X3.2863Y-3.5541
X3.3061Y-4.9281
X3.3258Y-3.1673
X3.4017Y-2.8941
X3.4224Y-4.269
X3.4412Y-2.5073
X3.5035Y-4.5571
X3.5394Y-3.6107
X3.6197Y-3.898
X3.6548Y-2.9507
X3.71Y-5.2272
X3.7367Y-3.2397
X3.7494Y-4.8403
X3.8262Y-4.568
X3.8521Y-2.5798
X3.8656Y-4.1812
X3.9424Y-3.9089
X3.963Y-5.2838
X3.9818Y-3.5221
X4.0586Y-3.2498
X4.0792Y-4.6247
X4.098Y-2.863
X4.1604Y-4.9128
X4.1955Y-3.9656
X4.2766Y-4.2537
X4.3117Y-3.3064
X4.3805Y-5.5053
X4.3928Y-3.5946
X4.4199Y-5.1185
X4.4967Y-4.8462
X4.509Y-2.9355
X4.5362Y-4.4594
X4.613Y-4.1871
X4.6336Y-5.5619
X4.6524Y-3.8003
X4.7292Y-3.528
X4.7498Y-4.9028
X4.7686Y-3.1411
X4.8309Y-5.191
X4.866Y-4.2437
X4.9471Y-4.5318
X4.9822Y-3.5846
X5.0634Y-3.8727
X5.0921Y-5.5508
X5.1315Y-5.164
X5.1796Y-3.2136
X5.2083Y-4.8917
X5.2477Y-4.5049
X5.3452Y-5.6075
X5.4614Y-4.9483
X5.5425Y-5.2365
X5.6587Y-4.5773
X6.1523Y-4.5773
X6.2476Y-4.9543
X6.2685Y-5.2365
X6.3638Y-5.6135
X6.5047Y-4.921
X6.5633Y-4.5049
X6.621Y-5.5801
X6.6314Y-3.2136
X6.6795Y-5.164
X6.7267Y-3.5906
X6.7477Y-3.8727
X6.8429Y-4.2497
X6.8639Y-4.5318
X6.9591Y-4.9088
X6.9801Y-5.191
X6.9839Y-3.5572
X7.0424Y-3.1411
X7.0754Y-5.5679
X7.1001Y-4.2164
X7.1586Y-3.8003
X7.2163Y-4.8755
X7.2749Y-4.4594
X7.302Y-2.9355
X7.3325Y-5.5346
X7.3911Y-5.1185
X7.3973Y-3.3124
X7.4182Y-3.5946
X7.5135Y-3.9716
X7.5344Y-4.2537
X7.6297Y-4.6307
X7.6507Y-4.9128
X7.6544Y-3.2791
X7.713Y-2.863
X7.7459Y-5.2898
X7.7706Y-3.9382
X7.8292Y-3.5221
X7.8869Y-4.5973
X7.9454Y-4.1812
X7.9589Y-2.5798
X8.0031Y-5.2564
X8.0541Y-2.9567
X8.0616Y-4.8403
X8.0751Y-3.2389
X8.1704Y-3.6159
X8.1913Y-3.898
X8.2866Y-4.275
X8.3075Y-4.5571
X8.3113Y-2.9234
X8.3699Y-2.5073
X8.4028Y-4.9341
X8.4275Y-3.5825
X8.4861Y-3.1664
X8.5438Y-4.2416
X8.6023Y-3.8255
X8.66Y-4.9008
X8.691Y-2.6506
X8.7185Y-4.4847
X8.7862Y-3.0275
X8.8072Y-3.3097
X8.9024Y-3.6867
X8.9234Y-3.9688
X9.0187Y-4.3458
X9.0396Y-4.6279
X9.0434Y-2.9942
X9.102Y-2.5781
X9.1349Y-5.0049
X9.1596Y-3.6533
X9.2182Y-3.2372
X9.2758Y-4.3124
X9.3344Y-3.8963
X9.3921Y-4.9716
X9.4094Y-2.6438
X9.4506Y-4.5555
X9.5046Y-3.0208
X9.5256Y-3.3029
X9.6208Y-3.6799
X9.6418Y-3.9621
X9.7371Y-4.339
X9.758Y-4.6212
X9.7618Y-2.9875
X9.8203Y-2.5714
X9.8533Y-4.9982
X9.878Y-3.6466
X9.9366Y-3.2305
X9.9942Y-4.3057
X10.0528Y-3.8896
X10.1104Y-4.9648
X10.169Y-4.5487
T3
G00X5.7354Y-2.4508
M15
G01X5.7354Y-2.4744
M16
G05
G00X5.7354Y-2.6055
M15
G01X5.7354Y-2.6488
M16
G05
G00X6.0756Y-2.4508
M15
G01X6.0756Y-2.4744
M16
G05
G00X6.0756Y-2.6055
M15
G01X6.0756Y-2.6488
M16
G05
T0
M30
