%TF.GenerationSoftware,KiCad,Pcbnew,(5.1.10)-1*%
%TF.CreationDate,2021-10-03T17:33:34-06:00*%
%TF.ProjectId,VColMX44,56436f6c-4d58-4343-942e-6b696361645f,rev?*%
%TF.SameCoordinates,Original*%
%TF.FileFunction,Profile,NP*%
%FSLAX46Y46*%
G04 Gerber Fmt 4.6, Leading zero omitted, Abs format (unit mm)*
G04 Created by KiCad (PCBNEW (5.1.10)-1) date 2021-10-03 17:33:34*
%MOMM*%
%LPD*%
G01*
G04 APERTURE LIST*
%TA.AperFunction,Profile*%
%ADD10C,0.050000*%
%TD*%
%TA.AperFunction,Profile*%
%ADD11C,0.150000*%
%TD*%
G04 APERTURE END LIST*
D10*
X266999998Y-130000000D02*
G75*
G02*
X265894426Y-131788853I-1999998J0D01*
G01*
X252000001Y-60000001D02*
G75*
G02*
X254846049Y-62051318I-1J-2999999D01*
G01*
X34105573Y-131788854D02*
G75*
G02*
X33000000Y-130000000I894427J1788854D01*
G01*
X45153950Y-62051317D02*
G75*
G02*
X48000000Y-60000000I2846050J-948683D01*
G01*
X45153950Y-62051317D02*
X33000000Y-130000000D01*
X122000000Y-148000000D02*
X178000000Y-148000000D01*
X48000000Y-60000000D02*
X252000000Y-60000000D01*
X34105573Y-131788854D02*
X122000000Y-148000000D01*
X178000000Y-148000000D02*
X265894427Y-131788854D01*
X254846050Y-62051317D02*
X267000000Y-130000000D01*
D11*
%TO.C,U30*%
X195304998Y-109025933D02*
X198456383Y-108470259D01*
X198456383Y-108470259D02*
X197900709Y-105318874D01*
X197900709Y-105318874D02*
X194749324Y-105874548D01*
X195304998Y-109025933D02*
X194749324Y-105874548D01*
%TO.C,U41*%
X198256998Y-125767933D02*
X201408383Y-125212259D01*
X201408383Y-125212259D02*
X200852709Y-122060874D01*
X200852709Y-122060874D02*
X197701324Y-122616548D01*
X198256998Y-125767933D02*
X197701324Y-122616548D01*
%TO.C,U19*%
X192352998Y-92284733D02*
X195504383Y-91729059D01*
X195504383Y-91729059D02*
X194948709Y-88577674D01*
X194948709Y-88577674D02*
X191797324Y-89133348D01*
X192352998Y-92284733D02*
X191797324Y-89133348D01*
%TO.C,U8*%
X189400998Y-75542933D02*
X192552383Y-74987259D01*
X192552383Y-74987259D02*
X191996709Y-71835874D01*
X191996709Y-71835874D02*
X188845324Y-72391548D01*
X189400998Y-75542933D02*
X188845324Y-72391548D01*
%TO.C,U40*%
X181224998Y-132832933D02*
X184376383Y-132277259D01*
X184376383Y-132277259D02*
X183820709Y-129125874D01*
X183820709Y-129125874D02*
X180669324Y-129681548D01*
X181224998Y-132832933D02*
X180669324Y-129681548D01*
%TO.C,U29*%
X178272998Y-116090933D02*
X181424383Y-115535259D01*
X181424383Y-115535259D02*
X180868709Y-112383874D01*
X180868709Y-112383874D02*
X177717324Y-112939548D01*
X178272998Y-116090933D02*
X177717324Y-112939548D01*
%TO.C,U28*%
X160198998Y-117246933D02*
X163350383Y-116691259D01*
X163350383Y-116691259D02*
X162794709Y-113539874D01*
X162794709Y-113539874D02*
X159643324Y-114095548D01*
X160198998Y-117246933D02*
X159643324Y-114095548D01*
%TO.C,U39*%
X163150998Y-133988933D02*
X166302383Y-133433259D01*
X166302383Y-133433259D02*
X165746709Y-130281874D01*
X165746709Y-130281874D02*
X162595324Y-130837548D01*
X163150998Y-133988933D02*
X162595324Y-130837548D01*
%TO.C,U2*%
X72168017Y-67751159D02*
X75319402Y-68306833D01*
X75319402Y-68306833D02*
X75875076Y-65155448D01*
X75875076Y-65155448D02*
X72723691Y-64599774D01*
X72168017Y-67751159D02*
X72723691Y-64599774D01*
%TO.C,U1*%
X53920617Y-67579859D02*
X57072002Y-68135533D01*
X57072002Y-68135533D02*
X57627676Y-64984148D01*
X57627676Y-64984148D02*
X54476291Y-64428474D01*
X53920617Y-67579859D02*
X54476291Y-64428474D01*
%TO.C,U44*%
X251783998Y-118360933D02*
X254935383Y-117805259D01*
X254935383Y-117805259D02*
X254379709Y-114653874D01*
X254379709Y-114653874D02*
X251228324Y-115209548D01*
X251783998Y-118360933D02*
X251228324Y-115209548D01*
%TO.C,U43*%
X233536998Y-118531933D02*
X236688383Y-117976259D01*
X236688383Y-117976259D02*
X236132709Y-114824874D01*
X236132709Y-114824874D02*
X232981324Y-115380548D01*
X233536998Y-118531933D02*
X232981324Y-115380548D01*
%TO.C,U42*%
X214941998Y-116733933D02*
X218093383Y-116178259D01*
X218093383Y-116178259D02*
X217537709Y-113026874D01*
X217537709Y-113026874D02*
X214386324Y-113582548D01*
X214941998Y-116733933D02*
X214386324Y-113582548D01*
%TO.C,U38*%
X115623617Y-132277259D02*
X118775002Y-132832933D01*
X118775002Y-132832933D02*
X119330676Y-129681548D01*
X119330676Y-129681548D02*
X116179291Y-129125874D01*
X115623617Y-132277259D02*
X116179291Y-129125874D01*
%TO.C,U37*%
X98591417Y-125212259D02*
X101742802Y-125767933D01*
X101742802Y-125767933D02*
X102298476Y-122616548D01*
X102298476Y-122616548D02*
X99147091Y-122060874D01*
X98591417Y-125212259D02*
X99147091Y-122060874D01*
%TO.C,U36*%
X81906817Y-116178259D02*
X85058202Y-116733933D01*
X85058202Y-116733933D02*
X85613876Y-113582548D01*
X85613876Y-113582548D02*
X82462491Y-113026874D01*
X81906817Y-116178259D02*
X82462491Y-113026874D01*
%TO.C,U35*%
X63312017Y-117976259D02*
X66463402Y-118531933D01*
X66463402Y-118531933D02*
X67019076Y-115380548D01*
X67019076Y-115380548D02*
X63867691Y-114824874D01*
X63312017Y-117976259D02*
X63867691Y-114824874D01*
%TO.C,U34*%
X45064517Y-117805259D02*
X48215902Y-118360933D01*
X48215902Y-118360933D02*
X48771576Y-115209548D01*
X48771576Y-115209548D02*
X45620191Y-114653874D01*
X45064517Y-117805259D02*
X45620191Y-114653874D01*
%TO.C,U33*%
X248831998Y-101618933D02*
X251983383Y-101063259D01*
X251983383Y-101063259D02*
X251427709Y-97911874D01*
X251427709Y-97911874D02*
X248276324Y-98467548D01*
X248831998Y-101618933D02*
X248276324Y-98467548D01*
%TO.C,U32*%
X230584998Y-101789933D02*
X233736383Y-101234259D01*
X233736383Y-101234259D02*
X233180709Y-98082874D01*
X233180709Y-98082874D02*
X230029324Y-98638548D01*
X230584998Y-101789933D02*
X230029324Y-98638548D01*
%TO.C,U31*%
X211989998Y-99991933D02*
X215141383Y-99436259D01*
X215141383Y-99436259D02*
X214585709Y-96284874D01*
X214585709Y-96284874D02*
X211434324Y-96840548D01*
X211989998Y-99991933D02*
X211434324Y-96840548D01*
%TO.C,U27*%
X118575617Y-115535259D02*
X121727002Y-116090933D01*
X121727002Y-116090933D02*
X122282676Y-112939548D01*
X122282676Y-112939548D02*
X119131291Y-112383874D01*
X118575617Y-115535259D02*
X119131291Y-112383874D01*
%TO.C,U26*%
X101543617Y-108470259D02*
X104695002Y-109025933D01*
X104695002Y-109025933D02*
X105250676Y-105874548D01*
X105250676Y-105874548D02*
X102099291Y-105318874D01*
X101543617Y-108470259D02*
X102099291Y-105318874D01*
%TO.C,U25*%
X84858817Y-99436259D02*
X88010202Y-99991933D01*
X88010202Y-99991933D02*
X88565876Y-96840548D01*
X88565876Y-96840548D02*
X85414491Y-96284874D01*
X84858817Y-99436259D02*
X85414491Y-96284874D01*
%TO.C,U24*%
X66264017Y-101234259D02*
X69415402Y-101789933D01*
X69415402Y-101789933D02*
X69971076Y-98638548D01*
X69971076Y-98638548D02*
X66819691Y-98082874D01*
X66264017Y-101234259D02*
X66819691Y-98082874D01*
%TO.C,U23*%
X48016517Y-101063259D02*
X51167902Y-101618933D01*
X51167902Y-101618933D02*
X51723576Y-98467548D01*
X51723576Y-98467548D02*
X48572191Y-97911874D01*
X48016517Y-101063259D02*
X48572191Y-97911874D01*
%TO.C,U22*%
X245879998Y-84877333D02*
X249031383Y-84321659D01*
X249031383Y-84321659D02*
X248475709Y-81170274D01*
X248475709Y-81170274D02*
X245324324Y-81725948D01*
X245879998Y-84877333D02*
X245324324Y-81725948D01*
%TO.C,U21*%
X227632998Y-85048533D02*
X230784383Y-84492859D01*
X230784383Y-84492859D02*
X230228709Y-81341474D01*
X230228709Y-81341474D02*
X227077324Y-81897148D01*
X227632998Y-85048533D02*
X227077324Y-81897148D01*
%TO.C,U20*%
X209037998Y-83250233D02*
X212189383Y-82694559D01*
X212189383Y-82694559D02*
X211633709Y-79543174D01*
X211633709Y-79543174D02*
X208482324Y-80098848D01*
X209037998Y-83250233D02*
X208482324Y-80098848D01*
%TO.C,U18*%
X175320998Y-99349933D02*
X178472383Y-98794259D01*
X178472383Y-98794259D02*
X177916709Y-95642874D01*
X177916709Y-95642874D02*
X174765324Y-96198548D01*
X175320998Y-99349933D02*
X174765324Y-96198548D01*
%TO.C,U17*%
X133697617Y-133433259D02*
X136849002Y-133988933D01*
X136849002Y-133988933D02*
X137404676Y-130837548D01*
X137404676Y-130837548D02*
X134253291Y-130281874D01*
X133697617Y-133433259D02*
X134253291Y-130281874D01*
%TO.C,U16*%
X121527617Y-98794259D02*
X124679002Y-99349933D01*
X124679002Y-99349933D02*
X125234676Y-96198548D01*
X125234676Y-96198548D02*
X122083291Y-95642874D01*
X121527617Y-98794259D02*
X122083291Y-95642874D01*
%TO.C,U15*%
X104495617Y-91729059D02*
X107647002Y-92284733D01*
X107647002Y-92284733D02*
X108202676Y-89133348D01*
X108202676Y-89133348D02*
X105051291Y-88577674D01*
X104495617Y-91729059D02*
X105051291Y-88577674D01*
%TO.C,U14*%
X87810817Y-82694559D02*
X90962202Y-83250233D01*
X90962202Y-83250233D02*
X91517876Y-80098848D01*
X91517876Y-80098848D02*
X88366491Y-79543174D01*
X87810817Y-82694559D02*
X88366491Y-79543174D01*
%TO.C,U13*%
X69216017Y-84492859D02*
X72367402Y-85048533D01*
X72367402Y-85048533D02*
X72923076Y-81897148D01*
X72923076Y-81897148D02*
X69771691Y-81341474D01*
X69216017Y-84492859D02*
X69771691Y-81341474D01*
%TO.C,U12*%
X50968517Y-84321659D02*
X54119902Y-84877333D01*
X54119902Y-84877333D02*
X54675576Y-81725948D01*
X54675576Y-81725948D02*
X51524191Y-81170274D01*
X50968517Y-84321659D02*
X51524191Y-81170274D01*
%TO.C,U11*%
X242927998Y-68135533D02*
X246079383Y-67579859D01*
X246079383Y-67579859D02*
X245523709Y-64428474D01*
X245523709Y-64428474D02*
X242372324Y-64984148D01*
X242927998Y-68135533D02*
X242372324Y-64984148D01*
%TO.C,U10*%
X224680998Y-68306833D02*
X227832383Y-67751159D01*
X227832383Y-67751159D02*
X227276709Y-64599774D01*
X227276709Y-64599774D02*
X224125324Y-65155448D01*
X224680998Y-68306833D02*
X224125324Y-65155448D01*
%TO.C,U9*%
X206085998Y-66508433D02*
X209237383Y-65952759D01*
X209237383Y-65952759D02*
X208681709Y-62801374D01*
X208681709Y-62801374D02*
X205530324Y-63357048D01*
X206085998Y-66508433D02*
X205530324Y-63357048D01*
%TO.C,U7*%
X172368998Y-82607833D02*
X175520383Y-82052159D01*
X175520383Y-82052159D02*
X174964709Y-78900774D01*
X174964709Y-78900774D02*
X171813324Y-79456448D01*
X172368998Y-82607833D02*
X171813324Y-79456448D01*
%TO.C,U6*%
X136649617Y-116691259D02*
X139801002Y-117246933D01*
X139801002Y-117246933D02*
X140356676Y-114095548D01*
X140356676Y-114095548D02*
X137205291Y-113539874D01*
X136649617Y-116691259D02*
X137205291Y-113539874D01*
%TO.C,U5*%
X124479617Y-82052159D02*
X127631002Y-82607833D01*
X127631002Y-82607833D02*
X128186676Y-79456448D01*
X128186676Y-79456448D02*
X125035291Y-78900774D01*
X124479617Y-82052159D02*
X125035291Y-78900774D01*
%TO.C,U4*%
X107447617Y-74987259D02*
X110599002Y-75542933D01*
X110599002Y-75542933D02*
X111154676Y-72391548D01*
X111154676Y-72391548D02*
X108003291Y-71835874D01*
X107447617Y-74987259D02*
X108003291Y-71835874D01*
%TO.C,U3*%
X90762817Y-65952759D02*
X93914202Y-66508433D01*
X93914202Y-66508433D02*
X94469876Y-63357048D01*
X94469876Y-63357048D02*
X91318491Y-62801374D01*
X90762817Y-65952759D02*
X91318491Y-62801374D01*
%TD*%
M02*
