%TF.GenerationSoftware,KiCad,Pcbnew,(5.1.10)-1*%
%TF.CreationDate,2021-11-02T21:32:16-06:00*%
%TF.ProjectId,VColChoc44,56436f6c-4368-46f6-9334-342e6b696361,rev?*%
%TF.SameCoordinates,Original*%
%TF.FileFunction,Soldermask,Bot*%
%TF.FilePolarity,Negative*%
%FSLAX46Y46*%
G04 Gerber Fmt 4.6, Leading zero omitted, Abs format (unit mm)*
G04 Created by KiCad (PCBNEW (5.1.10)-1) date 2021-11-02 21:32:16*
%MOMM*%
%LPD*%
G01*
G04 APERTURE LIST*
%ADD10C,1.600000*%
%ADD11R,0.600000X1.450000*%
%ADD12R,0.300000X1.450000*%
%ADD13O,1.000000X2.100000*%
%ADD14C,0.650000*%
%ADD15O,1.000000X1.600000*%
%ADD16C,0.100000*%
%ADD17C,2.200000*%
%ADD18R,1.800000X1.100000*%
%ADD19R,0.900000X0.900000*%
%ADD20R,0.900000X1.250000*%
%ADD21C,1.000000*%
%ADD22R,2.200000X2.200000*%
G04 APERTURE END LIST*
D10*
%TO.C,U44*%
X247853690Y-117378498D03*
X258292652Y-115537828D03*
X250273186Y-126953828D03*
X256805315Y-126106665D03*
G36*
G01*
X248136875Y-122151842D02*
X248136875Y-122151842D01*
G75*
G02*
X250489237Y-118792320I2855942J503580D01*
G01*
X256299603Y-117767796D01*
G75*
G02*
X259659125Y-120120158I503580J-2855942D01*
G01*
X259659125Y-120120158D01*
G75*
G02*
X257306763Y-123479680I-2855942J-503580D01*
G01*
X251496397Y-124504204D01*
G75*
G02*
X248136875Y-122151842I-503580J2855942D01*
G01*
G37*
G36*
G01*
X247659342Y-119443620D02*
X247659342Y-119443620D01*
G75*
G02*
X247781016Y-119269852I147721J26047D01*
G01*
X259007824Y-117290262D01*
G75*
G02*
X259181592Y-117411936I26047J-147721D01*
G01*
X259181592Y-117411936D01*
G75*
G02*
X259059918Y-117585704I-147721J-26047D01*
G01*
X247833110Y-119565294D01*
G75*
G02*
X247659342Y-119443620I-26047J147721D01*
G01*
G37*
G36*
G01*
X252489766Y-125242930D02*
X252489766Y-125242930D01*
G75*
G02*
X252315998Y-125121256I-26047J147721D01*
G01*
X252177080Y-124333410D01*
G75*
G02*
X252298754Y-124159642I147721J26047D01*
G01*
X252298754Y-124159642D01*
G75*
G02*
X252472522Y-124281316I26047J-147721D01*
G01*
X252611440Y-125069162D01*
G75*
G02*
X252489766Y-125242930I-147721J-26047D01*
G01*
G37*
G36*
G01*
X260014983Y-123002147D02*
X260014983Y-123002147D01*
G75*
G02*
X259841215Y-122880473I-26047J147721D01*
G01*
X258886151Y-117464031D01*
G75*
G02*
X259007825Y-117290263I147721J26047D01*
G01*
X259007825Y-117290263D01*
G75*
G02*
X259181593Y-117411937I26047J-147721D01*
G01*
X260136657Y-122828379D01*
G75*
G02*
X260014983Y-123002147I-147721J-26047D01*
G01*
G37*
G36*
G01*
X256625958Y-124513608D02*
X256625958Y-124513608D01*
G75*
G02*
X256452190Y-124391934I-26047J147721D01*
G01*
X256313272Y-123604088D01*
G75*
G02*
X256434946Y-123430320I147721J26047D01*
G01*
X256434946Y-123430320D01*
G75*
G02*
X256608714Y-123551994I26047J-147721D01*
G01*
X256747632Y-124339840D01*
G75*
G02*
X256625958Y-124513608I-147721J-26047D01*
G01*
G37*
G36*
G01*
X248614407Y-124860063D02*
X248614407Y-124860063D01*
G75*
G02*
X248736081Y-124686295I147721J26047D01*
G01*
X259962889Y-122706705D01*
G75*
G02*
X260136657Y-122828379I26047J-147721D01*
G01*
X260136657Y-122828379D01*
G75*
G02*
X260014983Y-123002147I-147721J-26047D01*
G01*
X248788175Y-124981737D01*
G75*
G02*
X248614407Y-124860063I-26047J147721D01*
G01*
G37*
G36*
G01*
X252315998Y-125121256D02*
X252315998Y-125121256D01*
G75*
G02*
X252437672Y-124947488I147721J26047D01*
G01*
X256573864Y-124218166D01*
G75*
G02*
X256747632Y-124339840I26047J-147721D01*
G01*
X256747632Y-124339840D01*
G75*
G02*
X256625958Y-124513608I-147721J-26047D01*
G01*
X252489766Y-125242930D01*
G75*
G02*
X252315998Y-125121256I-26047J147721D01*
G01*
G37*
G36*
G01*
X248466806Y-124022976D02*
X247806942Y-120280706D01*
G75*
G02*
X248618102Y-119122250I984808J173648D01*
G01*
X248618102Y-119122250D01*
G75*
G02*
X249776558Y-119933410I173648J-984808D01*
G01*
X250436422Y-123675680D01*
G75*
G02*
X249625262Y-124834136I-984808J-173648D01*
G01*
X249625262Y-124834136D01*
G75*
G02*
X248466806Y-124022976I-173648J984808D01*
G01*
G37*
G36*
G01*
X252255221Y-124776573D02*
X252255221Y-124776573D01*
G75*
G02*
X252660801Y-124197345I492404J86824D01*
G01*
X256107629Y-123589577D01*
G75*
G02*
X256686857Y-123995157I86824J-492404D01*
G01*
X256686857Y-123995157D01*
G75*
G02*
X256281277Y-124574385I-492404J-86824D01*
G01*
X252834449Y-125182153D01*
G75*
G02*
X252255221Y-124776573I-86824J492404D01*
G01*
G37*
G36*
G01*
X258019441Y-122338589D02*
X257359577Y-118596319D01*
G75*
G02*
X258170737Y-117437863I984808J173648D01*
G01*
X258170737Y-117437863D01*
G75*
G02*
X259329193Y-118249023I173648J-984808D01*
G01*
X259989057Y-121991293D01*
G75*
G02*
X259177897Y-123149749I-984808J-173648D01*
G01*
X259177897Y-123149749D01*
G75*
G02*
X258019441Y-122338589I-173648J984808D01*
G01*
G37*
G36*
G01*
X248788174Y-124981736D02*
X248788174Y-124981736D01*
G75*
G02*
X248614406Y-124860062I-26047J147721D01*
G01*
X247659342Y-119443620D01*
G75*
G02*
X247781016Y-119269852I147721J26047D01*
G01*
X247781016Y-119269852D01*
G75*
G02*
X247954784Y-119391526I26047J-147721D01*
G01*
X248909848Y-124807968D01*
G75*
G02*
X248788174Y-124981736I-147721J-26047D01*
G01*
G37*
%TD*%
%TO.C,U32*%
X226654690Y-100807498D03*
X237093652Y-98966828D03*
X229074186Y-110382828D03*
X235606315Y-109535665D03*
G36*
G01*
X226937875Y-105580842D02*
X226937875Y-105580842D01*
G75*
G02*
X229290237Y-102221320I2855942J503580D01*
G01*
X235100603Y-101196796D01*
G75*
G02*
X238460125Y-103549158I503580J-2855942D01*
G01*
X238460125Y-103549158D01*
G75*
G02*
X236107763Y-106908680I-2855942J-503580D01*
G01*
X230297397Y-107933204D01*
G75*
G02*
X226937875Y-105580842I-503580J2855942D01*
G01*
G37*
G36*
G01*
X226460342Y-102872620D02*
X226460342Y-102872620D01*
G75*
G02*
X226582016Y-102698852I147721J26047D01*
G01*
X237808824Y-100719262D01*
G75*
G02*
X237982592Y-100840936I26047J-147721D01*
G01*
X237982592Y-100840936D01*
G75*
G02*
X237860918Y-101014704I-147721J-26047D01*
G01*
X226634110Y-102994294D01*
G75*
G02*
X226460342Y-102872620I-26047J147721D01*
G01*
G37*
G36*
G01*
X231290766Y-108671930D02*
X231290766Y-108671930D01*
G75*
G02*
X231116998Y-108550256I-26047J147721D01*
G01*
X230978080Y-107762410D01*
G75*
G02*
X231099754Y-107588642I147721J26047D01*
G01*
X231099754Y-107588642D01*
G75*
G02*
X231273522Y-107710316I26047J-147721D01*
G01*
X231412440Y-108498162D01*
G75*
G02*
X231290766Y-108671930I-147721J-26047D01*
G01*
G37*
G36*
G01*
X238815983Y-106431147D02*
X238815983Y-106431147D01*
G75*
G02*
X238642215Y-106309473I-26047J147721D01*
G01*
X237687151Y-100893031D01*
G75*
G02*
X237808825Y-100719263I147721J26047D01*
G01*
X237808825Y-100719263D01*
G75*
G02*
X237982593Y-100840937I26047J-147721D01*
G01*
X238937657Y-106257379D01*
G75*
G02*
X238815983Y-106431147I-147721J-26047D01*
G01*
G37*
G36*
G01*
X235426958Y-107942608D02*
X235426958Y-107942608D01*
G75*
G02*
X235253190Y-107820934I-26047J147721D01*
G01*
X235114272Y-107033088D01*
G75*
G02*
X235235946Y-106859320I147721J26047D01*
G01*
X235235946Y-106859320D01*
G75*
G02*
X235409714Y-106980994I26047J-147721D01*
G01*
X235548632Y-107768840D01*
G75*
G02*
X235426958Y-107942608I-147721J-26047D01*
G01*
G37*
G36*
G01*
X227415407Y-108289063D02*
X227415407Y-108289063D01*
G75*
G02*
X227537081Y-108115295I147721J26047D01*
G01*
X238763889Y-106135705D01*
G75*
G02*
X238937657Y-106257379I26047J-147721D01*
G01*
X238937657Y-106257379D01*
G75*
G02*
X238815983Y-106431147I-147721J-26047D01*
G01*
X227589175Y-108410737D01*
G75*
G02*
X227415407Y-108289063I-26047J147721D01*
G01*
G37*
G36*
G01*
X231116998Y-108550256D02*
X231116998Y-108550256D01*
G75*
G02*
X231238672Y-108376488I147721J26047D01*
G01*
X235374864Y-107647166D01*
G75*
G02*
X235548632Y-107768840I26047J-147721D01*
G01*
X235548632Y-107768840D01*
G75*
G02*
X235426958Y-107942608I-147721J-26047D01*
G01*
X231290766Y-108671930D01*
G75*
G02*
X231116998Y-108550256I-26047J147721D01*
G01*
G37*
G36*
G01*
X227267806Y-107451976D02*
X226607942Y-103709706D01*
G75*
G02*
X227419102Y-102551250I984808J173648D01*
G01*
X227419102Y-102551250D01*
G75*
G02*
X228577558Y-103362410I173648J-984808D01*
G01*
X229237422Y-107104680D01*
G75*
G02*
X228426262Y-108263136I-984808J-173648D01*
G01*
X228426262Y-108263136D01*
G75*
G02*
X227267806Y-107451976I-173648J984808D01*
G01*
G37*
G36*
G01*
X231056221Y-108205573D02*
X231056221Y-108205573D01*
G75*
G02*
X231461801Y-107626345I492404J86824D01*
G01*
X234908629Y-107018577D01*
G75*
G02*
X235487857Y-107424157I86824J-492404D01*
G01*
X235487857Y-107424157D01*
G75*
G02*
X235082277Y-108003385I-492404J-86824D01*
G01*
X231635449Y-108611153D01*
G75*
G02*
X231056221Y-108205573I-86824J492404D01*
G01*
G37*
G36*
G01*
X236820441Y-105767589D02*
X236160577Y-102025319D01*
G75*
G02*
X236971737Y-100866863I984808J173648D01*
G01*
X236971737Y-100866863D01*
G75*
G02*
X238130193Y-101678023I173648J-984808D01*
G01*
X238790057Y-105420293D01*
G75*
G02*
X237978897Y-106578749I-984808J-173648D01*
G01*
X237978897Y-106578749D01*
G75*
G02*
X236820441Y-105767589I-173648J984808D01*
G01*
G37*
G36*
G01*
X227589174Y-108410736D02*
X227589174Y-108410736D01*
G75*
G02*
X227415406Y-108289062I-26047J147721D01*
G01*
X226460342Y-102872620D01*
G75*
G02*
X226582016Y-102698852I147721J26047D01*
G01*
X226582016Y-102698852D01*
G75*
G02*
X226755784Y-102820526I26047J-147721D01*
G01*
X227710848Y-108236968D01*
G75*
G02*
X227589174Y-108410736I-147721J-26047D01*
G01*
G37*
%TD*%
%TO.C,U43*%
X229606690Y-117549498D03*
X240045652Y-115708828D03*
X232026186Y-127124828D03*
X238558315Y-126277665D03*
G36*
G01*
X229889875Y-122322842D02*
X229889875Y-122322842D01*
G75*
G02*
X232242237Y-118963320I2855942J503580D01*
G01*
X238052603Y-117938796D01*
G75*
G02*
X241412125Y-120291158I503580J-2855942D01*
G01*
X241412125Y-120291158D01*
G75*
G02*
X239059763Y-123650680I-2855942J-503580D01*
G01*
X233249397Y-124675204D01*
G75*
G02*
X229889875Y-122322842I-503580J2855942D01*
G01*
G37*
G36*
G01*
X229412342Y-119614620D02*
X229412342Y-119614620D01*
G75*
G02*
X229534016Y-119440852I147721J26047D01*
G01*
X240760824Y-117461262D01*
G75*
G02*
X240934592Y-117582936I26047J-147721D01*
G01*
X240934592Y-117582936D01*
G75*
G02*
X240812918Y-117756704I-147721J-26047D01*
G01*
X229586110Y-119736294D01*
G75*
G02*
X229412342Y-119614620I-26047J147721D01*
G01*
G37*
G36*
G01*
X234242766Y-125413930D02*
X234242766Y-125413930D01*
G75*
G02*
X234068998Y-125292256I-26047J147721D01*
G01*
X233930080Y-124504410D01*
G75*
G02*
X234051754Y-124330642I147721J26047D01*
G01*
X234051754Y-124330642D01*
G75*
G02*
X234225522Y-124452316I26047J-147721D01*
G01*
X234364440Y-125240162D01*
G75*
G02*
X234242766Y-125413930I-147721J-26047D01*
G01*
G37*
G36*
G01*
X241767983Y-123173147D02*
X241767983Y-123173147D01*
G75*
G02*
X241594215Y-123051473I-26047J147721D01*
G01*
X240639151Y-117635031D01*
G75*
G02*
X240760825Y-117461263I147721J26047D01*
G01*
X240760825Y-117461263D01*
G75*
G02*
X240934593Y-117582937I26047J-147721D01*
G01*
X241889657Y-122999379D01*
G75*
G02*
X241767983Y-123173147I-147721J-26047D01*
G01*
G37*
G36*
G01*
X238378958Y-124684608D02*
X238378958Y-124684608D01*
G75*
G02*
X238205190Y-124562934I-26047J147721D01*
G01*
X238066272Y-123775088D01*
G75*
G02*
X238187946Y-123601320I147721J26047D01*
G01*
X238187946Y-123601320D01*
G75*
G02*
X238361714Y-123722994I26047J-147721D01*
G01*
X238500632Y-124510840D01*
G75*
G02*
X238378958Y-124684608I-147721J-26047D01*
G01*
G37*
G36*
G01*
X230367407Y-125031063D02*
X230367407Y-125031063D01*
G75*
G02*
X230489081Y-124857295I147721J26047D01*
G01*
X241715889Y-122877705D01*
G75*
G02*
X241889657Y-122999379I26047J-147721D01*
G01*
X241889657Y-122999379D01*
G75*
G02*
X241767983Y-123173147I-147721J-26047D01*
G01*
X230541175Y-125152737D01*
G75*
G02*
X230367407Y-125031063I-26047J147721D01*
G01*
G37*
G36*
G01*
X234068998Y-125292256D02*
X234068998Y-125292256D01*
G75*
G02*
X234190672Y-125118488I147721J26047D01*
G01*
X238326864Y-124389166D01*
G75*
G02*
X238500632Y-124510840I26047J-147721D01*
G01*
X238500632Y-124510840D01*
G75*
G02*
X238378958Y-124684608I-147721J-26047D01*
G01*
X234242766Y-125413930D01*
G75*
G02*
X234068998Y-125292256I-26047J147721D01*
G01*
G37*
G36*
G01*
X230219806Y-124193976D02*
X229559942Y-120451706D01*
G75*
G02*
X230371102Y-119293250I984808J173648D01*
G01*
X230371102Y-119293250D01*
G75*
G02*
X231529558Y-120104410I173648J-984808D01*
G01*
X232189422Y-123846680D01*
G75*
G02*
X231378262Y-125005136I-984808J-173648D01*
G01*
X231378262Y-125005136D01*
G75*
G02*
X230219806Y-124193976I-173648J984808D01*
G01*
G37*
G36*
G01*
X234008221Y-124947573D02*
X234008221Y-124947573D01*
G75*
G02*
X234413801Y-124368345I492404J86824D01*
G01*
X237860629Y-123760577D01*
G75*
G02*
X238439857Y-124166157I86824J-492404D01*
G01*
X238439857Y-124166157D01*
G75*
G02*
X238034277Y-124745385I-492404J-86824D01*
G01*
X234587449Y-125353153D01*
G75*
G02*
X234008221Y-124947573I-86824J492404D01*
G01*
G37*
G36*
G01*
X239772441Y-122509589D02*
X239112577Y-118767319D01*
G75*
G02*
X239923737Y-117608863I984808J173648D01*
G01*
X239923737Y-117608863D01*
G75*
G02*
X241082193Y-118420023I173648J-984808D01*
G01*
X241742057Y-122162293D01*
G75*
G02*
X240930897Y-123320749I-984808J-173648D01*
G01*
X240930897Y-123320749D01*
G75*
G02*
X239772441Y-122509589I-173648J984808D01*
G01*
G37*
G36*
G01*
X230541174Y-125152736D02*
X230541174Y-125152736D01*
G75*
G02*
X230367406Y-125031062I-26047J147721D01*
G01*
X229412342Y-119614620D01*
G75*
G02*
X229534016Y-119440852I147721J26047D01*
G01*
X229534016Y-119440852D01*
G75*
G02*
X229707784Y-119562526I26047J-147721D01*
G01*
X230662848Y-124978968D01*
G75*
G02*
X230541174Y-125152736I-147721J-26047D01*
G01*
G37*
%TD*%
%TO.C,U42*%
X211011690Y-115751498D03*
X221450652Y-113910828D03*
X213431186Y-125326828D03*
X219963315Y-124479665D03*
G36*
G01*
X211294875Y-120524842D02*
X211294875Y-120524842D01*
G75*
G02*
X213647237Y-117165320I2855942J503580D01*
G01*
X219457603Y-116140796D01*
G75*
G02*
X222817125Y-118493158I503580J-2855942D01*
G01*
X222817125Y-118493158D01*
G75*
G02*
X220464763Y-121852680I-2855942J-503580D01*
G01*
X214654397Y-122877204D01*
G75*
G02*
X211294875Y-120524842I-503580J2855942D01*
G01*
G37*
G36*
G01*
X210817342Y-117816620D02*
X210817342Y-117816620D01*
G75*
G02*
X210939016Y-117642852I147721J26047D01*
G01*
X222165824Y-115663262D01*
G75*
G02*
X222339592Y-115784936I26047J-147721D01*
G01*
X222339592Y-115784936D01*
G75*
G02*
X222217918Y-115958704I-147721J-26047D01*
G01*
X210991110Y-117938294D01*
G75*
G02*
X210817342Y-117816620I-26047J147721D01*
G01*
G37*
G36*
G01*
X215647766Y-123615930D02*
X215647766Y-123615930D01*
G75*
G02*
X215473998Y-123494256I-26047J147721D01*
G01*
X215335080Y-122706410D01*
G75*
G02*
X215456754Y-122532642I147721J26047D01*
G01*
X215456754Y-122532642D01*
G75*
G02*
X215630522Y-122654316I26047J-147721D01*
G01*
X215769440Y-123442162D01*
G75*
G02*
X215647766Y-123615930I-147721J-26047D01*
G01*
G37*
G36*
G01*
X223172983Y-121375147D02*
X223172983Y-121375147D01*
G75*
G02*
X222999215Y-121253473I-26047J147721D01*
G01*
X222044151Y-115837031D01*
G75*
G02*
X222165825Y-115663263I147721J26047D01*
G01*
X222165825Y-115663263D01*
G75*
G02*
X222339593Y-115784937I26047J-147721D01*
G01*
X223294657Y-121201379D01*
G75*
G02*
X223172983Y-121375147I-147721J-26047D01*
G01*
G37*
G36*
G01*
X219783958Y-122886608D02*
X219783958Y-122886608D01*
G75*
G02*
X219610190Y-122764934I-26047J147721D01*
G01*
X219471272Y-121977088D01*
G75*
G02*
X219592946Y-121803320I147721J26047D01*
G01*
X219592946Y-121803320D01*
G75*
G02*
X219766714Y-121924994I26047J-147721D01*
G01*
X219905632Y-122712840D01*
G75*
G02*
X219783958Y-122886608I-147721J-26047D01*
G01*
G37*
G36*
G01*
X211772407Y-123233063D02*
X211772407Y-123233063D01*
G75*
G02*
X211894081Y-123059295I147721J26047D01*
G01*
X223120889Y-121079705D01*
G75*
G02*
X223294657Y-121201379I26047J-147721D01*
G01*
X223294657Y-121201379D01*
G75*
G02*
X223172983Y-121375147I-147721J-26047D01*
G01*
X211946175Y-123354737D01*
G75*
G02*
X211772407Y-123233063I-26047J147721D01*
G01*
G37*
G36*
G01*
X215473998Y-123494256D02*
X215473998Y-123494256D01*
G75*
G02*
X215595672Y-123320488I147721J26047D01*
G01*
X219731864Y-122591166D01*
G75*
G02*
X219905632Y-122712840I26047J-147721D01*
G01*
X219905632Y-122712840D01*
G75*
G02*
X219783958Y-122886608I-147721J-26047D01*
G01*
X215647766Y-123615930D01*
G75*
G02*
X215473998Y-123494256I-26047J147721D01*
G01*
G37*
G36*
G01*
X211624806Y-122395976D02*
X210964942Y-118653706D01*
G75*
G02*
X211776102Y-117495250I984808J173648D01*
G01*
X211776102Y-117495250D01*
G75*
G02*
X212934558Y-118306410I173648J-984808D01*
G01*
X213594422Y-122048680D01*
G75*
G02*
X212783262Y-123207136I-984808J-173648D01*
G01*
X212783262Y-123207136D01*
G75*
G02*
X211624806Y-122395976I-173648J984808D01*
G01*
G37*
G36*
G01*
X215413221Y-123149573D02*
X215413221Y-123149573D01*
G75*
G02*
X215818801Y-122570345I492404J86824D01*
G01*
X219265629Y-121962577D01*
G75*
G02*
X219844857Y-122368157I86824J-492404D01*
G01*
X219844857Y-122368157D01*
G75*
G02*
X219439277Y-122947385I-492404J-86824D01*
G01*
X215992449Y-123555153D01*
G75*
G02*
X215413221Y-123149573I-86824J492404D01*
G01*
G37*
G36*
G01*
X221177441Y-120711589D02*
X220517577Y-116969319D01*
G75*
G02*
X221328737Y-115810863I984808J173648D01*
G01*
X221328737Y-115810863D01*
G75*
G02*
X222487193Y-116622023I173648J-984808D01*
G01*
X223147057Y-120364293D01*
G75*
G02*
X222335897Y-121522749I-984808J-173648D01*
G01*
X222335897Y-121522749D01*
G75*
G02*
X221177441Y-120711589I-173648J984808D01*
G01*
G37*
G36*
G01*
X211946174Y-123354736D02*
X211946174Y-123354736D01*
G75*
G02*
X211772406Y-123233062I-26047J147721D01*
G01*
X210817342Y-117816620D01*
G75*
G02*
X210939016Y-117642852I147721J26047D01*
G01*
X210939016Y-117642852D01*
G75*
G02*
X211112784Y-117764526I26047J-147721D01*
G01*
X212067848Y-123180968D01*
G75*
G02*
X211946174Y-123354736I-147721J-26047D01*
G01*
G37*
%TD*%
%TO.C,U41*%
X194326690Y-124785498D03*
X204765652Y-122944828D03*
X196746186Y-134360828D03*
X203278315Y-133513665D03*
G36*
G01*
X194609875Y-129558842D02*
X194609875Y-129558842D01*
G75*
G02*
X196962237Y-126199320I2855942J503580D01*
G01*
X202772603Y-125174796D01*
G75*
G02*
X206132125Y-127527158I503580J-2855942D01*
G01*
X206132125Y-127527158D01*
G75*
G02*
X203779763Y-130886680I-2855942J-503580D01*
G01*
X197969397Y-131911204D01*
G75*
G02*
X194609875Y-129558842I-503580J2855942D01*
G01*
G37*
G36*
G01*
X194132342Y-126850620D02*
X194132342Y-126850620D01*
G75*
G02*
X194254016Y-126676852I147721J26047D01*
G01*
X205480824Y-124697262D01*
G75*
G02*
X205654592Y-124818936I26047J-147721D01*
G01*
X205654592Y-124818936D01*
G75*
G02*
X205532918Y-124992704I-147721J-26047D01*
G01*
X194306110Y-126972294D01*
G75*
G02*
X194132342Y-126850620I-26047J147721D01*
G01*
G37*
G36*
G01*
X198962766Y-132649930D02*
X198962766Y-132649930D01*
G75*
G02*
X198788998Y-132528256I-26047J147721D01*
G01*
X198650080Y-131740410D01*
G75*
G02*
X198771754Y-131566642I147721J26047D01*
G01*
X198771754Y-131566642D01*
G75*
G02*
X198945522Y-131688316I26047J-147721D01*
G01*
X199084440Y-132476162D01*
G75*
G02*
X198962766Y-132649930I-147721J-26047D01*
G01*
G37*
G36*
G01*
X206487983Y-130409147D02*
X206487983Y-130409147D01*
G75*
G02*
X206314215Y-130287473I-26047J147721D01*
G01*
X205359151Y-124871031D01*
G75*
G02*
X205480825Y-124697263I147721J26047D01*
G01*
X205480825Y-124697263D01*
G75*
G02*
X205654593Y-124818937I26047J-147721D01*
G01*
X206609657Y-130235379D01*
G75*
G02*
X206487983Y-130409147I-147721J-26047D01*
G01*
G37*
G36*
G01*
X203098958Y-131920608D02*
X203098958Y-131920608D01*
G75*
G02*
X202925190Y-131798934I-26047J147721D01*
G01*
X202786272Y-131011088D01*
G75*
G02*
X202907946Y-130837320I147721J26047D01*
G01*
X202907946Y-130837320D01*
G75*
G02*
X203081714Y-130958994I26047J-147721D01*
G01*
X203220632Y-131746840D01*
G75*
G02*
X203098958Y-131920608I-147721J-26047D01*
G01*
G37*
G36*
G01*
X195087407Y-132267063D02*
X195087407Y-132267063D01*
G75*
G02*
X195209081Y-132093295I147721J26047D01*
G01*
X206435889Y-130113705D01*
G75*
G02*
X206609657Y-130235379I26047J-147721D01*
G01*
X206609657Y-130235379D01*
G75*
G02*
X206487983Y-130409147I-147721J-26047D01*
G01*
X195261175Y-132388737D01*
G75*
G02*
X195087407Y-132267063I-26047J147721D01*
G01*
G37*
G36*
G01*
X198788998Y-132528256D02*
X198788998Y-132528256D01*
G75*
G02*
X198910672Y-132354488I147721J26047D01*
G01*
X203046864Y-131625166D01*
G75*
G02*
X203220632Y-131746840I26047J-147721D01*
G01*
X203220632Y-131746840D01*
G75*
G02*
X203098958Y-131920608I-147721J-26047D01*
G01*
X198962766Y-132649930D01*
G75*
G02*
X198788998Y-132528256I-26047J147721D01*
G01*
G37*
G36*
G01*
X194939806Y-131429976D02*
X194279942Y-127687706D01*
G75*
G02*
X195091102Y-126529250I984808J173648D01*
G01*
X195091102Y-126529250D01*
G75*
G02*
X196249558Y-127340410I173648J-984808D01*
G01*
X196909422Y-131082680D01*
G75*
G02*
X196098262Y-132241136I-984808J-173648D01*
G01*
X196098262Y-132241136D01*
G75*
G02*
X194939806Y-131429976I-173648J984808D01*
G01*
G37*
G36*
G01*
X198728221Y-132183573D02*
X198728221Y-132183573D01*
G75*
G02*
X199133801Y-131604345I492404J86824D01*
G01*
X202580629Y-130996577D01*
G75*
G02*
X203159857Y-131402157I86824J-492404D01*
G01*
X203159857Y-131402157D01*
G75*
G02*
X202754277Y-131981385I-492404J-86824D01*
G01*
X199307449Y-132589153D01*
G75*
G02*
X198728221Y-132183573I-86824J492404D01*
G01*
G37*
G36*
G01*
X204492441Y-129745589D02*
X203832577Y-126003319D01*
G75*
G02*
X204643737Y-124844863I984808J173648D01*
G01*
X204643737Y-124844863D01*
G75*
G02*
X205802193Y-125656023I173648J-984808D01*
G01*
X206462057Y-129398293D01*
G75*
G02*
X205650897Y-130556749I-984808J-173648D01*
G01*
X205650897Y-130556749D01*
G75*
G02*
X204492441Y-129745589I-173648J984808D01*
G01*
G37*
G36*
G01*
X195261174Y-132388736D02*
X195261174Y-132388736D01*
G75*
G02*
X195087406Y-132267062I-26047J147721D01*
G01*
X194132342Y-126850620D01*
G75*
G02*
X194254016Y-126676852I147721J26047D01*
G01*
X194254016Y-126676852D01*
G75*
G02*
X194427784Y-126798526I26047J-147721D01*
G01*
X195382848Y-132214968D01*
G75*
G02*
X195261174Y-132388736I-147721J-26047D01*
G01*
G37*
%TD*%
%TO.C,U40*%
X177294690Y-131850498D03*
X187733652Y-130009828D03*
X179714186Y-141425828D03*
X186246315Y-140578665D03*
G36*
G01*
X177577875Y-136623842D02*
X177577875Y-136623842D01*
G75*
G02*
X179930237Y-133264320I2855942J503580D01*
G01*
X185740603Y-132239796D01*
G75*
G02*
X189100125Y-134592158I503580J-2855942D01*
G01*
X189100125Y-134592158D01*
G75*
G02*
X186747763Y-137951680I-2855942J-503580D01*
G01*
X180937397Y-138976204D01*
G75*
G02*
X177577875Y-136623842I-503580J2855942D01*
G01*
G37*
G36*
G01*
X177100342Y-133915620D02*
X177100342Y-133915620D01*
G75*
G02*
X177222016Y-133741852I147721J26047D01*
G01*
X188448824Y-131762262D01*
G75*
G02*
X188622592Y-131883936I26047J-147721D01*
G01*
X188622592Y-131883936D01*
G75*
G02*
X188500918Y-132057704I-147721J-26047D01*
G01*
X177274110Y-134037294D01*
G75*
G02*
X177100342Y-133915620I-26047J147721D01*
G01*
G37*
G36*
G01*
X181930766Y-139714930D02*
X181930766Y-139714930D01*
G75*
G02*
X181756998Y-139593256I-26047J147721D01*
G01*
X181618080Y-138805410D01*
G75*
G02*
X181739754Y-138631642I147721J26047D01*
G01*
X181739754Y-138631642D01*
G75*
G02*
X181913522Y-138753316I26047J-147721D01*
G01*
X182052440Y-139541162D01*
G75*
G02*
X181930766Y-139714930I-147721J-26047D01*
G01*
G37*
G36*
G01*
X189455983Y-137474147D02*
X189455983Y-137474147D01*
G75*
G02*
X189282215Y-137352473I-26047J147721D01*
G01*
X188327151Y-131936031D01*
G75*
G02*
X188448825Y-131762263I147721J26047D01*
G01*
X188448825Y-131762263D01*
G75*
G02*
X188622593Y-131883937I26047J-147721D01*
G01*
X189577657Y-137300379D01*
G75*
G02*
X189455983Y-137474147I-147721J-26047D01*
G01*
G37*
G36*
G01*
X186066958Y-138985608D02*
X186066958Y-138985608D01*
G75*
G02*
X185893190Y-138863934I-26047J147721D01*
G01*
X185754272Y-138076088D01*
G75*
G02*
X185875946Y-137902320I147721J26047D01*
G01*
X185875946Y-137902320D01*
G75*
G02*
X186049714Y-138023994I26047J-147721D01*
G01*
X186188632Y-138811840D01*
G75*
G02*
X186066958Y-138985608I-147721J-26047D01*
G01*
G37*
G36*
G01*
X178055407Y-139332063D02*
X178055407Y-139332063D01*
G75*
G02*
X178177081Y-139158295I147721J26047D01*
G01*
X189403889Y-137178705D01*
G75*
G02*
X189577657Y-137300379I26047J-147721D01*
G01*
X189577657Y-137300379D01*
G75*
G02*
X189455983Y-137474147I-147721J-26047D01*
G01*
X178229175Y-139453737D01*
G75*
G02*
X178055407Y-139332063I-26047J147721D01*
G01*
G37*
G36*
G01*
X181756998Y-139593256D02*
X181756998Y-139593256D01*
G75*
G02*
X181878672Y-139419488I147721J26047D01*
G01*
X186014864Y-138690166D01*
G75*
G02*
X186188632Y-138811840I26047J-147721D01*
G01*
X186188632Y-138811840D01*
G75*
G02*
X186066958Y-138985608I-147721J-26047D01*
G01*
X181930766Y-139714930D01*
G75*
G02*
X181756998Y-139593256I-26047J147721D01*
G01*
G37*
G36*
G01*
X177907806Y-138494976D02*
X177247942Y-134752706D01*
G75*
G02*
X178059102Y-133594250I984808J173648D01*
G01*
X178059102Y-133594250D01*
G75*
G02*
X179217558Y-134405410I173648J-984808D01*
G01*
X179877422Y-138147680D01*
G75*
G02*
X179066262Y-139306136I-984808J-173648D01*
G01*
X179066262Y-139306136D01*
G75*
G02*
X177907806Y-138494976I-173648J984808D01*
G01*
G37*
G36*
G01*
X181696221Y-139248573D02*
X181696221Y-139248573D01*
G75*
G02*
X182101801Y-138669345I492404J86824D01*
G01*
X185548629Y-138061577D01*
G75*
G02*
X186127857Y-138467157I86824J-492404D01*
G01*
X186127857Y-138467157D01*
G75*
G02*
X185722277Y-139046385I-492404J-86824D01*
G01*
X182275449Y-139654153D01*
G75*
G02*
X181696221Y-139248573I-86824J492404D01*
G01*
G37*
G36*
G01*
X187460441Y-136810589D02*
X186800577Y-133068319D01*
G75*
G02*
X187611737Y-131909863I984808J173648D01*
G01*
X187611737Y-131909863D01*
G75*
G02*
X188770193Y-132721023I173648J-984808D01*
G01*
X189430057Y-136463293D01*
G75*
G02*
X188618897Y-137621749I-984808J-173648D01*
G01*
X188618897Y-137621749D01*
G75*
G02*
X187460441Y-136810589I-173648J984808D01*
G01*
G37*
G36*
G01*
X178229174Y-139453736D02*
X178229174Y-139453736D01*
G75*
G02*
X178055406Y-139332062I-26047J147721D01*
G01*
X177100342Y-133915620D01*
G75*
G02*
X177222016Y-133741852I147721J26047D01*
G01*
X177222016Y-133741852D01*
G75*
G02*
X177395784Y-133863526I26047J-147721D01*
G01*
X178350848Y-139279968D01*
G75*
G02*
X178229174Y-139453736I-147721J-26047D01*
G01*
G37*
%TD*%
%TO.C,U39*%
X159220690Y-133006498D03*
X169659652Y-131165828D03*
X161640186Y-142581828D03*
X168172315Y-141734665D03*
G36*
G01*
X159503875Y-137779842D02*
X159503875Y-137779842D01*
G75*
G02*
X161856237Y-134420320I2855942J503580D01*
G01*
X167666603Y-133395796D01*
G75*
G02*
X171026125Y-135748158I503580J-2855942D01*
G01*
X171026125Y-135748158D01*
G75*
G02*
X168673763Y-139107680I-2855942J-503580D01*
G01*
X162863397Y-140132204D01*
G75*
G02*
X159503875Y-137779842I-503580J2855942D01*
G01*
G37*
G36*
G01*
X159026342Y-135071620D02*
X159026342Y-135071620D01*
G75*
G02*
X159148016Y-134897852I147721J26047D01*
G01*
X170374824Y-132918262D01*
G75*
G02*
X170548592Y-133039936I26047J-147721D01*
G01*
X170548592Y-133039936D01*
G75*
G02*
X170426918Y-133213704I-147721J-26047D01*
G01*
X159200110Y-135193294D01*
G75*
G02*
X159026342Y-135071620I-26047J147721D01*
G01*
G37*
G36*
G01*
X163856766Y-140870930D02*
X163856766Y-140870930D01*
G75*
G02*
X163682998Y-140749256I-26047J147721D01*
G01*
X163544080Y-139961410D01*
G75*
G02*
X163665754Y-139787642I147721J26047D01*
G01*
X163665754Y-139787642D01*
G75*
G02*
X163839522Y-139909316I26047J-147721D01*
G01*
X163978440Y-140697162D01*
G75*
G02*
X163856766Y-140870930I-147721J-26047D01*
G01*
G37*
G36*
G01*
X171381983Y-138630147D02*
X171381983Y-138630147D01*
G75*
G02*
X171208215Y-138508473I-26047J147721D01*
G01*
X170253151Y-133092031D01*
G75*
G02*
X170374825Y-132918263I147721J26047D01*
G01*
X170374825Y-132918263D01*
G75*
G02*
X170548593Y-133039937I26047J-147721D01*
G01*
X171503657Y-138456379D01*
G75*
G02*
X171381983Y-138630147I-147721J-26047D01*
G01*
G37*
G36*
G01*
X167992958Y-140141608D02*
X167992958Y-140141608D01*
G75*
G02*
X167819190Y-140019934I-26047J147721D01*
G01*
X167680272Y-139232088D01*
G75*
G02*
X167801946Y-139058320I147721J26047D01*
G01*
X167801946Y-139058320D01*
G75*
G02*
X167975714Y-139179994I26047J-147721D01*
G01*
X168114632Y-139967840D01*
G75*
G02*
X167992958Y-140141608I-147721J-26047D01*
G01*
G37*
G36*
G01*
X159981407Y-140488063D02*
X159981407Y-140488063D01*
G75*
G02*
X160103081Y-140314295I147721J26047D01*
G01*
X171329889Y-138334705D01*
G75*
G02*
X171503657Y-138456379I26047J-147721D01*
G01*
X171503657Y-138456379D01*
G75*
G02*
X171381983Y-138630147I-147721J-26047D01*
G01*
X160155175Y-140609737D01*
G75*
G02*
X159981407Y-140488063I-26047J147721D01*
G01*
G37*
G36*
G01*
X163682998Y-140749256D02*
X163682998Y-140749256D01*
G75*
G02*
X163804672Y-140575488I147721J26047D01*
G01*
X167940864Y-139846166D01*
G75*
G02*
X168114632Y-139967840I26047J-147721D01*
G01*
X168114632Y-139967840D01*
G75*
G02*
X167992958Y-140141608I-147721J-26047D01*
G01*
X163856766Y-140870930D01*
G75*
G02*
X163682998Y-140749256I-26047J147721D01*
G01*
G37*
G36*
G01*
X159833806Y-139650976D02*
X159173942Y-135908706D01*
G75*
G02*
X159985102Y-134750250I984808J173648D01*
G01*
X159985102Y-134750250D01*
G75*
G02*
X161143558Y-135561410I173648J-984808D01*
G01*
X161803422Y-139303680D01*
G75*
G02*
X160992262Y-140462136I-984808J-173648D01*
G01*
X160992262Y-140462136D01*
G75*
G02*
X159833806Y-139650976I-173648J984808D01*
G01*
G37*
G36*
G01*
X163622221Y-140404573D02*
X163622221Y-140404573D01*
G75*
G02*
X164027801Y-139825345I492404J86824D01*
G01*
X167474629Y-139217577D01*
G75*
G02*
X168053857Y-139623157I86824J-492404D01*
G01*
X168053857Y-139623157D01*
G75*
G02*
X167648277Y-140202385I-492404J-86824D01*
G01*
X164201449Y-140810153D01*
G75*
G02*
X163622221Y-140404573I-86824J492404D01*
G01*
G37*
G36*
G01*
X169386441Y-137966589D02*
X168726577Y-134224319D01*
G75*
G02*
X169537737Y-133065863I984808J173648D01*
G01*
X169537737Y-133065863D01*
G75*
G02*
X170696193Y-133877023I173648J-984808D01*
G01*
X171356057Y-137619293D01*
G75*
G02*
X170544897Y-138777749I-984808J-173648D01*
G01*
X170544897Y-138777749D01*
G75*
G02*
X169386441Y-137966589I-173648J984808D01*
G01*
G37*
G36*
G01*
X160155174Y-140609736D02*
X160155174Y-140609736D01*
G75*
G02*
X159981406Y-140488062I-26047J147721D01*
G01*
X159026342Y-135071620D01*
G75*
G02*
X159148016Y-134897852I147721J26047D01*
G01*
X159148016Y-134897852D01*
G75*
G02*
X159321784Y-135019526I26047J-147721D01*
G01*
X160276848Y-140435968D01*
G75*
G02*
X160155174Y-140609736I-147721J-26047D01*
G01*
G37*
%TD*%
%TO.C,U33*%
X244901690Y-100636498D03*
X255340652Y-98795828D03*
X247321186Y-110211828D03*
X253853315Y-109364665D03*
G36*
G01*
X245184875Y-105409842D02*
X245184875Y-105409842D01*
G75*
G02*
X247537237Y-102050320I2855942J503580D01*
G01*
X253347603Y-101025796D01*
G75*
G02*
X256707125Y-103378158I503580J-2855942D01*
G01*
X256707125Y-103378158D01*
G75*
G02*
X254354763Y-106737680I-2855942J-503580D01*
G01*
X248544397Y-107762204D01*
G75*
G02*
X245184875Y-105409842I-503580J2855942D01*
G01*
G37*
G36*
G01*
X244707342Y-102701620D02*
X244707342Y-102701620D01*
G75*
G02*
X244829016Y-102527852I147721J26047D01*
G01*
X256055824Y-100548262D01*
G75*
G02*
X256229592Y-100669936I26047J-147721D01*
G01*
X256229592Y-100669936D01*
G75*
G02*
X256107918Y-100843704I-147721J-26047D01*
G01*
X244881110Y-102823294D01*
G75*
G02*
X244707342Y-102701620I-26047J147721D01*
G01*
G37*
G36*
G01*
X249537766Y-108500930D02*
X249537766Y-108500930D01*
G75*
G02*
X249363998Y-108379256I-26047J147721D01*
G01*
X249225080Y-107591410D01*
G75*
G02*
X249346754Y-107417642I147721J26047D01*
G01*
X249346754Y-107417642D01*
G75*
G02*
X249520522Y-107539316I26047J-147721D01*
G01*
X249659440Y-108327162D01*
G75*
G02*
X249537766Y-108500930I-147721J-26047D01*
G01*
G37*
G36*
G01*
X257062983Y-106260147D02*
X257062983Y-106260147D01*
G75*
G02*
X256889215Y-106138473I-26047J147721D01*
G01*
X255934151Y-100722031D01*
G75*
G02*
X256055825Y-100548263I147721J26047D01*
G01*
X256055825Y-100548263D01*
G75*
G02*
X256229593Y-100669937I26047J-147721D01*
G01*
X257184657Y-106086379D01*
G75*
G02*
X257062983Y-106260147I-147721J-26047D01*
G01*
G37*
G36*
G01*
X253673958Y-107771608D02*
X253673958Y-107771608D01*
G75*
G02*
X253500190Y-107649934I-26047J147721D01*
G01*
X253361272Y-106862088D01*
G75*
G02*
X253482946Y-106688320I147721J26047D01*
G01*
X253482946Y-106688320D01*
G75*
G02*
X253656714Y-106809994I26047J-147721D01*
G01*
X253795632Y-107597840D01*
G75*
G02*
X253673958Y-107771608I-147721J-26047D01*
G01*
G37*
G36*
G01*
X245662407Y-108118063D02*
X245662407Y-108118063D01*
G75*
G02*
X245784081Y-107944295I147721J26047D01*
G01*
X257010889Y-105964705D01*
G75*
G02*
X257184657Y-106086379I26047J-147721D01*
G01*
X257184657Y-106086379D01*
G75*
G02*
X257062983Y-106260147I-147721J-26047D01*
G01*
X245836175Y-108239737D01*
G75*
G02*
X245662407Y-108118063I-26047J147721D01*
G01*
G37*
G36*
G01*
X249363998Y-108379256D02*
X249363998Y-108379256D01*
G75*
G02*
X249485672Y-108205488I147721J26047D01*
G01*
X253621864Y-107476166D01*
G75*
G02*
X253795632Y-107597840I26047J-147721D01*
G01*
X253795632Y-107597840D01*
G75*
G02*
X253673958Y-107771608I-147721J-26047D01*
G01*
X249537766Y-108500930D01*
G75*
G02*
X249363998Y-108379256I-26047J147721D01*
G01*
G37*
G36*
G01*
X245514806Y-107280976D02*
X244854942Y-103538706D01*
G75*
G02*
X245666102Y-102380250I984808J173648D01*
G01*
X245666102Y-102380250D01*
G75*
G02*
X246824558Y-103191410I173648J-984808D01*
G01*
X247484422Y-106933680D01*
G75*
G02*
X246673262Y-108092136I-984808J-173648D01*
G01*
X246673262Y-108092136D01*
G75*
G02*
X245514806Y-107280976I-173648J984808D01*
G01*
G37*
G36*
G01*
X249303221Y-108034573D02*
X249303221Y-108034573D01*
G75*
G02*
X249708801Y-107455345I492404J86824D01*
G01*
X253155629Y-106847577D01*
G75*
G02*
X253734857Y-107253157I86824J-492404D01*
G01*
X253734857Y-107253157D01*
G75*
G02*
X253329277Y-107832385I-492404J-86824D01*
G01*
X249882449Y-108440153D01*
G75*
G02*
X249303221Y-108034573I-86824J492404D01*
G01*
G37*
G36*
G01*
X255067441Y-105596589D02*
X254407577Y-101854319D01*
G75*
G02*
X255218737Y-100695863I984808J173648D01*
G01*
X255218737Y-100695863D01*
G75*
G02*
X256377193Y-101507023I173648J-984808D01*
G01*
X257037057Y-105249293D01*
G75*
G02*
X256225897Y-106407749I-984808J-173648D01*
G01*
X256225897Y-106407749D01*
G75*
G02*
X255067441Y-105596589I-173648J984808D01*
G01*
G37*
G36*
G01*
X245836174Y-108239736D02*
X245836174Y-108239736D01*
G75*
G02*
X245662406Y-108118062I-26047J147721D01*
G01*
X244707342Y-102701620D01*
G75*
G02*
X244829016Y-102527852I147721J26047D01*
G01*
X244829016Y-102527852D01*
G75*
G02*
X245002784Y-102649526I26047J-147721D01*
G01*
X245957848Y-108065968D01*
G75*
G02*
X245836174Y-108239736I-147721J-26047D01*
G01*
G37*
%TD*%
%TO.C,U31*%
X208059690Y-99009498D03*
X218498652Y-97168828D03*
X210479186Y-108584828D03*
X217011315Y-107737665D03*
G36*
G01*
X208342875Y-103782842D02*
X208342875Y-103782842D01*
G75*
G02*
X210695237Y-100423320I2855942J503580D01*
G01*
X216505603Y-99398796D01*
G75*
G02*
X219865125Y-101751158I503580J-2855942D01*
G01*
X219865125Y-101751158D01*
G75*
G02*
X217512763Y-105110680I-2855942J-503580D01*
G01*
X211702397Y-106135204D01*
G75*
G02*
X208342875Y-103782842I-503580J2855942D01*
G01*
G37*
G36*
G01*
X207865342Y-101074620D02*
X207865342Y-101074620D01*
G75*
G02*
X207987016Y-100900852I147721J26047D01*
G01*
X219213824Y-98921262D01*
G75*
G02*
X219387592Y-99042936I26047J-147721D01*
G01*
X219387592Y-99042936D01*
G75*
G02*
X219265918Y-99216704I-147721J-26047D01*
G01*
X208039110Y-101196294D01*
G75*
G02*
X207865342Y-101074620I-26047J147721D01*
G01*
G37*
G36*
G01*
X212695766Y-106873930D02*
X212695766Y-106873930D01*
G75*
G02*
X212521998Y-106752256I-26047J147721D01*
G01*
X212383080Y-105964410D01*
G75*
G02*
X212504754Y-105790642I147721J26047D01*
G01*
X212504754Y-105790642D01*
G75*
G02*
X212678522Y-105912316I26047J-147721D01*
G01*
X212817440Y-106700162D01*
G75*
G02*
X212695766Y-106873930I-147721J-26047D01*
G01*
G37*
G36*
G01*
X220220983Y-104633147D02*
X220220983Y-104633147D01*
G75*
G02*
X220047215Y-104511473I-26047J147721D01*
G01*
X219092151Y-99095031D01*
G75*
G02*
X219213825Y-98921263I147721J26047D01*
G01*
X219213825Y-98921263D01*
G75*
G02*
X219387593Y-99042937I26047J-147721D01*
G01*
X220342657Y-104459379D01*
G75*
G02*
X220220983Y-104633147I-147721J-26047D01*
G01*
G37*
G36*
G01*
X216831958Y-106144608D02*
X216831958Y-106144608D01*
G75*
G02*
X216658190Y-106022934I-26047J147721D01*
G01*
X216519272Y-105235088D01*
G75*
G02*
X216640946Y-105061320I147721J26047D01*
G01*
X216640946Y-105061320D01*
G75*
G02*
X216814714Y-105182994I26047J-147721D01*
G01*
X216953632Y-105970840D01*
G75*
G02*
X216831958Y-106144608I-147721J-26047D01*
G01*
G37*
G36*
G01*
X208820407Y-106491063D02*
X208820407Y-106491063D01*
G75*
G02*
X208942081Y-106317295I147721J26047D01*
G01*
X220168889Y-104337705D01*
G75*
G02*
X220342657Y-104459379I26047J-147721D01*
G01*
X220342657Y-104459379D01*
G75*
G02*
X220220983Y-104633147I-147721J-26047D01*
G01*
X208994175Y-106612737D01*
G75*
G02*
X208820407Y-106491063I-26047J147721D01*
G01*
G37*
G36*
G01*
X212521998Y-106752256D02*
X212521998Y-106752256D01*
G75*
G02*
X212643672Y-106578488I147721J26047D01*
G01*
X216779864Y-105849166D01*
G75*
G02*
X216953632Y-105970840I26047J-147721D01*
G01*
X216953632Y-105970840D01*
G75*
G02*
X216831958Y-106144608I-147721J-26047D01*
G01*
X212695766Y-106873930D01*
G75*
G02*
X212521998Y-106752256I-26047J147721D01*
G01*
G37*
G36*
G01*
X208672806Y-105653976D02*
X208012942Y-101911706D01*
G75*
G02*
X208824102Y-100753250I984808J173648D01*
G01*
X208824102Y-100753250D01*
G75*
G02*
X209982558Y-101564410I173648J-984808D01*
G01*
X210642422Y-105306680D01*
G75*
G02*
X209831262Y-106465136I-984808J-173648D01*
G01*
X209831262Y-106465136D01*
G75*
G02*
X208672806Y-105653976I-173648J984808D01*
G01*
G37*
G36*
G01*
X212461221Y-106407573D02*
X212461221Y-106407573D01*
G75*
G02*
X212866801Y-105828345I492404J86824D01*
G01*
X216313629Y-105220577D01*
G75*
G02*
X216892857Y-105626157I86824J-492404D01*
G01*
X216892857Y-105626157D01*
G75*
G02*
X216487277Y-106205385I-492404J-86824D01*
G01*
X213040449Y-106813153D01*
G75*
G02*
X212461221Y-106407573I-86824J492404D01*
G01*
G37*
G36*
G01*
X218225441Y-103969589D02*
X217565577Y-100227319D01*
G75*
G02*
X218376737Y-99068863I984808J173648D01*
G01*
X218376737Y-99068863D01*
G75*
G02*
X219535193Y-99880023I173648J-984808D01*
G01*
X220195057Y-103622293D01*
G75*
G02*
X219383897Y-104780749I-984808J-173648D01*
G01*
X219383897Y-104780749D01*
G75*
G02*
X218225441Y-103969589I-173648J984808D01*
G01*
G37*
G36*
G01*
X208994174Y-106612736D02*
X208994174Y-106612736D01*
G75*
G02*
X208820406Y-106491062I-26047J147721D01*
G01*
X207865342Y-101074620D01*
G75*
G02*
X207987016Y-100900852I147721J26047D01*
G01*
X207987016Y-100900852D01*
G75*
G02*
X208160784Y-101022526I26047J-147721D01*
G01*
X209115848Y-106438968D01*
G75*
G02*
X208994174Y-106612736I-147721J-26047D01*
G01*
G37*
%TD*%
%TO.C,U30*%
X191374690Y-108043498D03*
X201813652Y-106202828D03*
X193794186Y-117618828D03*
X200326315Y-116771665D03*
G36*
G01*
X191657875Y-112816842D02*
X191657875Y-112816842D01*
G75*
G02*
X194010237Y-109457320I2855942J503580D01*
G01*
X199820603Y-108432796D01*
G75*
G02*
X203180125Y-110785158I503580J-2855942D01*
G01*
X203180125Y-110785158D01*
G75*
G02*
X200827763Y-114144680I-2855942J-503580D01*
G01*
X195017397Y-115169204D01*
G75*
G02*
X191657875Y-112816842I-503580J2855942D01*
G01*
G37*
G36*
G01*
X191180342Y-110108620D02*
X191180342Y-110108620D01*
G75*
G02*
X191302016Y-109934852I147721J26047D01*
G01*
X202528824Y-107955262D01*
G75*
G02*
X202702592Y-108076936I26047J-147721D01*
G01*
X202702592Y-108076936D01*
G75*
G02*
X202580918Y-108250704I-147721J-26047D01*
G01*
X191354110Y-110230294D01*
G75*
G02*
X191180342Y-110108620I-26047J147721D01*
G01*
G37*
G36*
G01*
X196010766Y-115907930D02*
X196010766Y-115907930D01*
G75*
G02*
X195836998Y-115786256I-26047J147721D01*
G01*
X195698080Y-114998410D01*
G75*
G02*
X195819754Y-114824642I147721J26047D01*
G01*
X195819754Y-114824642D01*
G75*
G02*
X195993522Y-114946316I26047J-147721D01*
G01*
X196132440Y-115734162D01*
G75*
G02*
X196010766Y-115907930I-147721J-26047D01*
G01*
G37*
G36*
G01*
X203535983Y-113667147D02*
X203535983Y-113667147D01*
G75*
G02*
X203362215Y-113545473I-26047J147721D01*
G01*
X202407151Y-108129031D01*
G75*
G02*
X202528825Y-107955263I147721J26047D01*
G01*
X202528825Y-107955263D01*
G75*
G02*
X202702593Y-108076937I26047J-147721D01*
G01*
X203657657Y-113493379D01*
G75*
G02*
X203535983Y-113667147I-147721J-26047D01*
G01*
G37*
G36*
G01*
X200146958Y-115178608D02*
X200146958Y-115178608D01*
G75*
G02*
X199973190Y-115056934I-26047J147721D01*
G01*
X199834272Y-114269088D01*
G75*
G02*
X199955946Y-114095320I147721J26047D01*
G01*
X199955946Y-114095320D01*
G75*
G02*
X200129714Y-114216994I26047J-147721D01*
G01*
X200268632Y-115004840D01*
G75*
G02*
X200146958Y-115178608I-147721J-26047D01*
G01*
G37*
G36*
G01*
X192135407Y-115525063D02*
X192135407Y-115525063D01*
G75*
G02*
X192257081Y-115351295I147721J26047D01*
G01*
X203483889Y-113371705D01*
G75*
G02*
X203657657Y-113493379I26047J-147721D01*
G01*
X203657657Y-113493379D01*
G75*
G02*
X203535983Y-113667147I-147721J-26047D01*
G01*
X192309175Y-115646737D01*
G75*
G02*
X192135407Y-115525063I-26047J147721D01*
G01*
G37*
G36*
G01*
X195836998Y-115786256D02*
X195836998Y-115786256D01*
G75*
G02*
X195958672Y-115612488I147721J26047D01*
G01*
X200094864Y-114883166D01*
G75*
G02*
X200268632Y-115004840I26047J-147721D01*
G01*
X200268632Y-115004840D01*
G75*
G02*
X200146958Y-115178608I-147721J-26047D01*
G01*
X196010766Y-115907930D01*
G75*
G02*
X195836998Y-115786256I-26047J147721D01*
G01*
G37*
G36*
G01*
X191987806Y-114687976D02*
X191327942Y-110945706D01*
G75*
G02*
X192139102Y-109787250I984808J173648D01*
G01*
X192139102Y-109787250D01*
G75*
G02*
X193297558Y-110598410I173648J-984808D01*
G01*
X193957422Y-114340680D01*
G75*
G02*
X193146262Y-115499136I-984808J-173648D01*
G01*
X193146262Y-115499136D01*
G75*
G02*
X191987806Y-114687976I-173648J984808D01*
G01*
G37*
G36*
G01*
X195776221Y-115441573D02*
X195776221Y-115441573D01*
G75*
G02*
X196181801Y-114862345I492404J86824D01*
G01*
X199628629Y-114254577D01*
G75*
G02*
X200207857Y-114660157I86824J-492404D01*
G01*
X200207857Y-114660157D01*
G75*
G02*
X199802277Y-115239385I-492404J-86824D01*
G01*
X196355449Y-115847153D01*
G75*
G02*
X195776221Y-115441573I-86824J492404D01*
G01*
G37*
G36*
G01*
X201540441Y-113003589D02*
X200880577Y-109261319D01*
G75*
G02*
X201691737Y-108102863I984808J173648D01*
G01*
X201691737Y-108102863D01*
G75*
G02*
X202850193Y-108914023I173648J-984808D01*
G01*
X203510057Y-112656293D01*
G75*
G02*
X202698897Y-113814749I-984808J-173648D01*
G01*
X202698897Y-113814749D01*
G75*
G02*
X201540441Y-113003589I-173648J984808D01*
G01*
G37*
G36*
G01*
X192309174Y-115646736D02*
X192309174Y-115646736D01*
G75*
G02*
X192135406Y-115525062I-26047J147721D01*
G01*
X191180342Y-110108620D01*
G75*
G02*
X191302016Y-109934852I147721J26047D01*
G01*
X191302016Y-109934852D01*
G75*
G02*
X191475784Y-110056526I26047J-147721D01*
G01*
X192430848Y-115472968D01*
G75*
G02*
X192309174Y-115646736I-147721J-26047D01*
G01*
G37*
%TD*%
%TO.C,U29*%
X174342690Y-115108498D03*
X184781652Y-113267828D03*
X176762186Y-124683828D03*
X183294315Y-123836665D03*
G36*
G01*
X174625875Y-119881842D02*
X174625875Y-119881842D01*
G75*
G02*
X176978237Y-116522320I2855942J503580D01*
G01*
X182788603Y-115497796D01*
G75*
G02*
X186148125Y-117850158I503580J-2855942D01*
G01*
X186148125Y-117850158D01*
G75*
G02*
X183795763Y-121209680I-2855942J-503580D01*
G01*
X177985397Y-122234204D01*
G75*
G02*
X174625875Y-119881842I-503580J2855942D01*
G01*
G37*
G36*
G01*
X174148342Y-117173620D02*
X174148342Y-117173620D01*
G75*
G02*
X174270016Y-116999852I147721J26047D01*
G01*
X185496824Y-115020262D01*
G75*
G02*
X185670592Y-115141936I26047J-147721D01*
G01*
X185670592Y-115141936D01*
G75*
G02*
X185548918Y-115315704I-147721J-26047D01*
G01*
X174322110Y-117295294D01*
G75*
G02*
X174148342Y-117173620I-26047J147721D01*
G01*
G37*
G36*
G01*
X178978766Y-122972930D02*
X178978766Y-122972930D01*
G75*
G02*
X178804998Y-122851256I-26047J147721D01*
G01*
X178666080Y-122063410D01*
G75*
G02*
X178787754Y-121889642I147721J26047D01*
G01*
X178787754Y-121889642D01*
G75*
G02*
X178961522Y-122011316I26047J-147721D01*
G01*
X179100440Y-122799162D01*
G75*
G02*
X178978766Y-122972930I-147721J-26047D01*
G01*
G37*
G36*
G01*
X186503983Y-120732147D02*
X186503983Y-120732147D01*
G75*
G02*
X186330215Y-120610473I-26047J147721D01*
G01*
X185375151Y-115194031D01*
G75*
G02*
X185496825Y-115020263I147721J26047D01*
G01*
X185496825Y-115020263D01*
G75*
G02*
X185670593Y-115141937I26047J-147721D01*
G01*
X186625657Y-120558379D01*
G75*
G02*
X186503983Y-120732147I-147721J-26047D01*
G01*
G37*
G36*
G01*
X183114958Y-122243608D02*
X183114958Y-122243608D01*
G75*
G02*
X182941190Y-122121934I-26047J147721D01*
G01*
X182802272Y-121334088D01*
G75*
G02*
X182923946Y-121160320I147721J26047D01*
G01*
X182923946Y-121160320D01*
G75*
G02*
X183097714Y-121281994I26047J-147721D01*
G01*
X183236632Y-122069840D01*
G75*
G02*
X183114958Y-122243608I-147721J-26047D01*
G01*
G37*
G36*
G01*
X175103407Y-122590063D02*
X175103407Y-122590063D01*
G75*
G02*
X175225081Y-122416295I147721J26047D01*
G01*
X186451889Y-120436705D01*
G75*
G02*
X186625657Y-120558379I26047J-147721D01*
G01*
X186625657Y-120558379D01*
G75*
G02*
X186503983Y-120732147I-147721J-26047D01*
G01*
X175277175Y-122711737D01*
G75*
G02*
X175103407Y-122590063I-26047J147721D01*
G01*
G37*
G36*
G01*
X178804998Y-122851256D02*
X178804998Y-122851256D01*
G75*
G02*
X178926672Y-122677488I147721J26047D01*
G01*
X183062864Y-121948166D01*
G75*
G02*
X183236632Y-122069840I26047J-147721D01*
G01*
X183236632Y-122069840D01*
G75*
G02*
X183114958Y-122243608I-147721J-26047D01*
G01*
X178978766Y-122972930D01*
G75*
G02*
X178804998Y-122851256I-26047J147721D01*
G01*
G37*
G36*
G01*
X174955806Y-121752976D02*
X174295942Y-118010706D01*
G75*
G02*
X175107102Y-116852250I984808J173648D01*
G01*
X175107102Y-116852250D01*
G75*
G02*
X176265558Y-117663410I173648J-984808D01*
G01*
X176925422Y-121405680D01*
G75*
G02*
X176114262Y-122564136I-984808J-173648D01*
G01*
X176114262Y-122564136D01*
G75*
G02*
X174955806Y-121752976I-173648J984808D01*
G01*
G37*
G36*
G01*
X178744221Y-122506573D02*
X178744221Y-122506573D01*
G75*
G02*
X179149801Y-121927345I492404J86824D01*
G01*
X182596629Y-121319577D01*
G75*
G02*
X183175857Y-121725157I86824J-492404D01*
G01*
X183175857Y-121725157D01*
G75*
G02*
X182770277Y-122304385I-492404J-86824D01*
G01*
X179323449Y-122912153D01*
G75*
G02*
X178744221Y-122506573I-86824J492404D01*
G01*
G37*
G36*
G01*
X184508441Y-120068589D02*
X183848577Y-116326319D01*
G75*
G02*
X184659737Y-115167863I984808J173648D01*
G01*
X184659737Y-115167863D01*
G75*
G02*
X185818193Y-115979023I173648J-984808D01*
G01*
X186478057Y-119721293D01*
G75*
G02*
X185666897Y-120879749I-984808J-173648D01*
G01*
X185666897Y-120879749D01*
G75*
G02*
X184508441Y-120068589I-173648J984808D01*
G01*
G37*
G36*
G01*
X175277174Y-122711736D02*
X175277174Y-122711736D01*
G75*
G02*
X175103406Y-122590062I-26047J147721D01*
G01*
X174148342Y-117173620D01*
G75*
G02*
X174270016Y-116999852I147721J26047D01*
G01*
X174270016Y-116999852D01*
G75*
G02*
X174443784Y-117121526I26047J-147721D01*
G01*
X175398848Y-122537968D01*
G75*
G02*
X175277174Y-122711736I-147721J-26047D01*
G01*
G37*
%TD*%
%TO.C,U28*%
X156268690Y-116264498D03*
X166707652Y-114423828D03*
X158688186Y-125839828D03*
X165220315Y-124992665D03*
G36*
G01*
X156551875Y-121037842D02*
X156551875Y-121037842D01*
G75*
G02*
X158904237Y-117678320I2855942J503580D01*
G01*
X164714603Y-116653796D01*
G75*
G02*
X168074125Y-119006158I503580J-2855942D01*
G01*
X168074125Y-119006158D01*
G75*
G02*
X165721763Y-122365680I-2855942J-503580D01*
G01*
X159911397Y-123390204D01*
G75*
G02*
X156551875Y-121037842I-503580J2855942D01*
G01*
G37*
G36*
G01*
X156074342Y-118329620D02*
X156074342Y-118329620D01*
G75*
G02*
X156196016Y-118155852I147721J26047D01*
G01*
X167422824Y-116176262D01*
G75*
G02*
X167596592Y-116297936I26047J-147721D01*
G01*
X167596592Y-116297936D01*
G75*
G02*
X167474918Y-116471704I-147721J-26047D01*
G01*
X156248110Y-118451294D01*
G75*
G02*
X156074342Y-118329620I-26047J147721D01*
G01*
G37*
G36*
G01*
X160904766Y-124128930D02*
X160904766Y-124128930D01*
G75*
G02*
X160730998Y-124007256I-26047J147721D01*
G01*
X160592080Y-123219410D01*
G75*
G02*
X160713754Y-123045642I147721J26047D01*
G01*
X160713754Y-123045642D01*
G75*
G02*
X160887522Y-123167316I26047J-147721D01*
G01*
X161026440Y-123955162D01*
G75*
G02*
X160904766Y-124128930I-147721J-26047D01*
G01*
G37*
G36*
G01*
X168429983Y-121888147D02*
X168429983Y-121888147D01*
G75*
G02*
X168256215Y-121766473I-26047J147721D01*
G01*
X167301151Y-116350031D01*
G75*
G02*
X167422825Y-116176263I147721J26047D01*
G01*
X167422825Y-116176263D01*
G75*
G02*
X167596593Y-116297937I26047J-147721D01*
G01*
X168551657Y-121714379D01*
G75*
G02*
X168429983Y-121888147I-147721J-26047D01*
G01*
G37*
G36*
G01*
X165040958Y-123399608D02*
X165040958Y-123399608D01*
G75*
G02*
X164867190Y-123277934I-26047J147721D01*
G01*
X164728272Y-122490088D01*
G75*
G02*
X164849946Y-122316320I147721J26047D01*
G01*
X164849946Y-122316320D01*
G75*
G02*
X165023714Y-122437994I26047J-147721D01*
G01*
X165162632Y-123225840D01*
G75*
G02*
X165040958Y-123399608I-147721J-26047D01*
G01*
G37*
G36*
G01*
X157029407Y-123746063D02*
X157029407Y-123746063D01*
G75*
G02*
X157151081Y-123572295I147721J26047D01*
G01*
X168377889Y-121592705D01*
G75*
G02*
X168551657Y-121714379I26047J-147721D01*
G01*
X168551657Y-121714379D01*
G75*
G02*
X168429983Y-121888147I-147721J-26047D01*
G01*
X157203175Y-123867737D01*
G75*
G02*
X157029407Y-123746063I-26047J147721D01*
G01*
G37*
G36*
G01*
X160730998Y-124007256D02*
X160730998Y-124007256D01*
G75*
G02*
X160852672Y-123833488I147721J26047D01*
G01*
X164988864Y-123104166D01*
G75*
G02*
X165162632Y-123225840I26047J-147721D01*
G01*
X165162632Y-123225840D01*
G75*
G02*
X165040958Y-123399608I-147721J-26047D01*
G01*
X160904766Y-124128930D01*
G75*
G02*
X160730998Y-124007256I-26047J147721D01*
G01*
G37*
G36*
G01*
X156881806Y-122908976D02*
X156221942Y-119166706D01*
G75*
G02*
X157033102Y-118008250I984808J173648D01*
G01*
X157033102Y-118008250D01*
G75*
G02*
X158191558Y-118819410I173648J-984808D01*
G01*
X158851422Y-122561680D01*
G75*
G02*
X158040262Y-123720136I-984808J-173648D01*
G01*
X158040262Y-123720136D01*
G75*
G02*
X156881806Y-122908976I-173648J984808D01*
G01*
G37*
G36*
G01*
X160670221Y-123662573D02*
X160670221Y-123662573D01*
G75*
G02*
X161075801Y-123083345I492404J86824D01*
G01*
X164522629Y-122475577D01*
G75*
G02*
X165101857Y-122881157I86824J-492404D01*
G01*
X165101857Y-122881157D01*
G75*
G02*
X164696277Y-123460385I-492404J-86824D01*
G01*
X161249449Y-124068153D01*
G75*
G02*
X160670221Y-123662573I-86824J492404D01*
G01*
G37*
G36*
G01*
X166434441Y-121224589D02*
X165774577Y-117482319D01*
G75*
G02*
X166585737Y-116323863I984808J173648D01*
G01*
X166585737Y-116323863D01*
G75*
G02*
X167744193Y-117135023I173648J-984808D01*
G01*
X168404057Y-120877293D01*
G75*
G02*
X167592897Y-122035749I-984808J-173648D01*
G01*
X167592897Y-122035749D01*
G75*
G02*
X166434441Y-121224589I-173648J984808D01*
G01*
G37*
G36*
G01*
X157203174Y-123867736D02*
X157203174Y-123867736D01*
G75*
G02*
X157029406Y-123746062I-26047J147721D01*
G01*
X156074342Y-118329620D01*
G75*
G02*
X156196016Y-118155852I147721J26047D01*
G01*
X156196016Y-118155852D01*
G75*
G02*
X156369784Y-118277526I26047J-147721D01*
G01*
X157324848Y-123693968D01*
G75*
G02*
X157203174Y-123867736I-147721J-26047D01*
G01*
G37*
%TD*%
%TO.C,U38*%
X112266348Y-130009828D03*
X122705310Y-131850498D03*
X111264975Y-139835211D03*
X117692916Y-141273258D03*
G36*
G01*
X110899875Y-134592158D02*
X110899875Y-134592158D01*
G75*
G02*
X114259397Y-132239796I2855942J-503580D01*
G01*
X120069763Y-133264320D01*
G75*
G02*
X122422125Y-136623842I-503580J-2855942D01*
G01*
X122422125Y-136623842D01*
G75*
G02*
X119062603Y-138976204I-2855942J503580D01*
G01*
X113252237Y-137951680D01*
G75*
G02*
X110899875Y-134592158I503580J2855942D01*
G01*
G37*
G36*
G01*
X111377408Y-131883936D02*
X111377408Y-131883936D01*
G75*
G02*
X111551176Y-131762262I147721J-26047D01*
G01*
X122777984Y-133741852D01*
G75*
G02*
X122899658Y-133915620I-26047J-147721D01*
G01*
X122899658Y-133915620D01*
G75*
G02*
X122725890Y-134037294I-147721J26047D01*
G01*
X111499082Y-132057704D01*
G75*
G02*
X111377408Y-131883936I26047J147721D01*
G01*
G37*
G36*
G01*
X113933042Y-138985608D02*
X113933042Y-138985608D01*
G75*
G02*
X113811368Y-138811840I26047J147721D01*
G01*
X113950286Y-138023994D01*
G75*
G02*
X114124054Y-137902320I147721J-26047D01*
G01*
X114124054Y-137902320D01*
G75*
G02*
X114245728Y-138076088I-26047J-147721D01*
G01*
X114106810Y-138863934D01*
G75*
G02*
X113933042Y-138985608I-147721J26047D01*
G01*
G37*
G36*
G01*
X121770826Y-139453736D02*
X121770826Y-139453736D01*
G75*
G02*
X121649152Y-139279968I26047J147721D01*
G01*
X122604216Y-133863526D01*
G75*
G02*
X122777984Y-133741852I147721J-26047D01*
G01*
X122777984Y-133741852D01*
G75*
G02*
X122899658Y-133915620I-26047J-147721D01*
G01*
X121944594Y-139332062D01*
G75*
G02*
X121770826Y-139453736I-147721J26047D01*
G01*
G37*
G36*
G01*
X118069234Y-139714930D02*
X118069234Y-139714930D01*
G75*
G02*
X117947560Y-139541162I26047J147721D01*
G01*
X118086478Y-138753316D01*
G75*
G02*
X118260246Y-138631642I147721J-26047D01*
G01*
X118260246Y-138631642D01*
G75*
G02*
X118381920Y-138805410I-26047J-147721D01*
G01*
X118243002Y-139593256D01*
G75*
G02*
X118069234Y-139714930I-147721J26047D01*
G01*
G37*
G36*
G01*
X110422343Y-137300379D02*
X110422343Y-137300379D01*
G75*
G02*
X110596111Y-137178705I147721J-26047D01*
G01*
X121822919Y-139158295D01*
G75*
G02*
X121944593Y-139332063I-26047J-147721D01*
G01*
X121944593Y-139332063D01*
G75*
G02*
X121770825Y-139453737I-147721J26047D01*
G01*
X110544017Y-137474147D01*
G75*
G02*
X110422343Y-137300379I26047J147721D01*
G01*
G37*
G36*
G01*
X113811368Y-138811840D02*
X113811368Y-138811840D01*
G75*
G02*
X113985136Y-138690166I147721J-26047D01*
G01*
X118121328Y-139419488D01*
G75*
G02*
X118243002Y-139593256I-26047J-147721D01*
G01*
X118243002Y-139593256D01*
G75*
G02*
X118069234Y-139714930I-147721J26047D01*
G01*
X113933042Y-138985608D01*
G75*
G02*
X113811368Y-138811840I26047J147721D01*
G01*
G37*
G36*
G01*
X110569943Y-136463293D02*
X111229807Y-132721023D01*
G75*
G02*
X112388263Y-131909863I984808J-173648D01*
G01*
X112388263Y-131909863D01*
G75*
G02*
X113199423Y-133068319I-173648J-984808D01*
G01*
X112539559Y-136810589D01*
G75*
G02*
X111381103Y-137621749I-984808J173648D01*
G01*
X111381103Y-137621749D01*
G75*
G02*
X110569943Y-136463293I173648J984808D01*
G01*
G37*
G36*
G01*
X113872143Y-138467157D02*
X113872143Y-138467157D01*
G75*
G02*
X114451371Y-138061577I492404J-86824D01*
G01*
X117898199Y-138669345D01*
G75*
G02*
X118303779Y-139248573I-86824J-492404D01*
G01*
X118303779Y-139248573D01*
G75*
G02*
X117724551Y-139654153I-492404J86824D01*
G01*
X114277723Y-139046385D01*
G75*
G02*
X113872143Y-138467157I86824J492404D01*
G01*
G37*
G36*
G01*
X120122578Y-138147680D02*
X120782442Y-134405410D01*
G75*
G02*
X121940898Y-133594250I984808J-173648D01*
G01*
X121940898Y-133594250D01*
G75*
G02*
X122752058Y-134752706I-173648J-984808D01*
G01*
X122092194Y-138494976D01*
G75*
G02*
X120933738Y-139306136I-984808J173648D01*
G01*
X120933738Y-139306136D01*
G75*
G02*
X120122578Y-138147680I173648J984808D01*
G01*
G37*
G36*
G01*
X110544017Y-137474147D02*
X110544017Y-137474147D01*
G75*
G02*
X110422343Y-137300379I26047J147721D01*
G01*
X111377407Y-131883937D01*
G75*
G02*
X111551175Y-131762263I147721J-26047D01*
G01*
X111551175Y-131762263D01*
G75*
G02*
X111672849Y-131936031I-26047J-147721D01*
G01*
X110717785Y-137352473D01*
G75*
G02*
X110544017Y-137474147I-147721J26047D01*
G01*
G37*
%TD*%
%TO.C,U37*%
X95234148Y-122944828D03*
X105673110Y-124785498D03*
X94232775Y-132770211D03*
X100660716Y-134208258D03*
G36*
G01*
X93867675Y-127527158D02*
X93867675Y-127527158D01*
G75*
G02*
X97227197Y-125174796I2855942J-503580D01*
G01*
X103037563Y-126199320D01*
G75*
G02*
X105389925Y-129558842I-503580J-2855942D01*
G01*
X105389925Y-129558842D01*
G75*
G02*
X102030403Y-131911204I-2855942J503580D01*
G01*
X96220037Y-130886680D01*
G75*
G02*
X93867675Y-127527158I503580J2855942D01*
G01*
G37*
G36*
G01*
X94345208Y-124818936D02*
X94345208Y-124818936D01*
G75*
G02*
X94518976Y-124697262I147721J-26047D01*
G01*
X105745784Y-126676852D01*
G75*
G02*
X105867458Y-126850620I-26047J-147721D01*
G01*
X105867458Y-126850620D01*
G75*
G02*
X105693690Y-126972294I-147721J26047D01*
G01*
X94466882Y-124992704D01*
G75*
G02*
X94345208Y-124818936I26047J147721D01*
G01*
G37*
G36*
G01*
X96900842Y-131920608D02*
X96900842Y-131920608D01*
G75*
G02*
X96779168Y-131746840I26047J147721D01*
G01*
X96918086Y-130958994D01*
G75*
G02*
X97091854Y-130837320I147721J-26047D01*
G01*
X97091854Y-130837320D01*
G75*
G02*
X97213528Y-131011088I-26047J-147721D01*
G01*
X97074610Y-131798934D01*
G75*
G02*
X96900842Y-131920608I-147721J26047D01*
G01*
G37*
G36*
G01*
X104738626Y-132388736D02*
X104738626Y-132388736D01*
G75*
G02*
X104616952Y-132214968I26047J147721D01*
G01*
X105572016Y-126798526D01*
G75*
G02*
X105745784Y-126676852I147721J-26047D01*
G01*
X105745784Y-126676852D01*
G75*
G02*
X105867458Y-126850620I-26047J-147721D01*
G01*
X104912394Y-132267062D01*
G75*
G02*
X104738626Y-132388736I-147721J26047D01*
G01*
G37*
G36*
G01*
X101037034Y-132649930D02*
X101037034Y-132649930D01*
G75*
G02*
X100915360Y-132476162I26047J147721D01*
G01*
X101054278Y-131688316D01*
G75*
G02*
X101228046Y-131566642I147721J-26047D01*
G01*
X101228046Y-131566642D01*
G75*
G02*
X101349720Y-131740410I-26047J-147721D01*
G01*
X101210802Y-132528256D01*
G75*
G02*
X101037034Y-132649930I-147721J26047D01*
G01*
G37*
G36*
G01*
X93390143Y-130235379D02*
X93390143Y-130235379D01*
G75*
G02*
X93563911Y-130113705I147721J-26047D01*
G01*
X104790719Y-132093295D01*
G75*
G02*
X104912393Y-132267063I-26047J-147721D01*
G01*
X104912393Y-132267063D01*
G75*
G02*
X104738625Y-132388737I-147721J26047D01*
G01*
X93511817Y-130409147D01*
G75*
G02*
X93390143Y-130235379I26047J147721D01*
G01*
G37*
G36*
G01*
X96779168Y-131746840D02*
X96779168Y-131746840D01*
G75*
G02*
X96952936Y-131625166I147721J-26047D01*
G01*
X101089128Y-132354488D01*
G75*
G02*
X101210802Y-132528256I-26047J-147721D01*
G01*
X101210802Y-132528256D01*
G75*
G02*
X101037034Y-132649930I-147721J26047D01*
G01*
X96900842Y-131920608D01*
G75*
G02*
X96779168Y-131746840I26047J147721D01*
G01*
G37*
G36*
G01*
X93537743Y-129398293D02*
X94197607Y-125656023D01*
G75*
G02*
X95356063Y-124844863I984808J-173648D01*
G01*
X95356063Y-124844863D01*
G75*
G02*
X96167223Y-126003319I-173648J-984808D01*
G01*
X95507359Y-129745589D01*
G75*
G02*
X94348903Y-130556749I-984808J173648D01*
G01*
X94348903Y-130556749D01*
G75*
G02*
X93537743Y-129398293I173648J984808D01*
G01*
G37*
G36*
G01*
X96839943Y-131402157D02*
X96839943Y-131402157D01*
G75*
G02*
X97419171Y-130996577I492404J-86824D01*
G01*
X100865999Y-131604345D01*
G75*
G02*
X101271579Y-132183573I-86824J-492404D01*
G01*
X101271579Y-132183573D01*
G75*
G02*
X100692351Y-132589153I-492404J86824D01*
G01*
X97245523Y-131981385D01*
G75*
G02*
X96839943Y-131402157I86824J492404D01*
G01*
G37*
G36*
G01*
X103090378Y-131082680D02*
X103750242Y-127340410D01*
G75*
G02*
X104908698Y-126529250I984808J-173648D01*
G01*
X104908698Y-126529250D01*
G75*
G02*
X105719858Y-127687706I-173648J-984808D01*
G01*
X105059994Y-131429976D01*
G75*
G02*
X103901538Y-132241136I-984808J173648D01*
G01*
X103901538Y-132241136D01*
G75*
G02*
X103090378Y-131082680I173648J984808D01*
G01*
G37*
G36*
G01*
X93511817Y-130409147D02*
X93511817Y-130409147D01*
G75*
G02*
X93390143Y-130235379I26047J147721D01*
G01*
X94345207Y-124818937D01*
G75*
G02*
X94518975Y-124697263I147721J-26047D01*
G01*
X94518975Y-124697263D01*
G75*
G02*
X94640649Y-124871031I-26047J-147721D01*
G01*
X93685585Y-130287473D01*
G75*
G02*
X93511817Y-130409147I-147721J26047D01*
G01*
G37*
%TD*%
%TO.C,U36*%
X78549548Y-113910828D03*
X88988510Y-115751498D03*
X77548175Y-123736211D03*
X83976116Y-125174258D03*
G36*
G01*
X77183075Y-118493158D02*
X77183075Y-118493158D01*
G75*
G02*
X80542597Y-116140796I2855942J-503580D01*
G01*
X86352963Y-117165320D01*
G75*
G02*
X88705325Y-120524842I-503580J-2855942D01*
G01*
X88705325Y-120524842D01*
G75*
G02*
X85345803Y-122877204I-2855942J503580D01*
G01*
X79535437Y-121852680D01*
G75*
G02*
X77183075Y-118493158I503580J2855942D01*
G01*
G37*
G36*
G01*
X77660608Y-115784936D02*
X77660608Y-115784936D01*
G75*
G02*
X77834376Y-115663262I147721J-26047D01*
G01*
X89061184Y-117642852D01*
G75*
G02*
X89182858Y-117816620I-26047J-147721D01*
G01*
X89182858Y-117816620D01*
G75*
G02*
X89009090Y-117938294I-147721J26047D01*
G01*
X77782282Y-115958704D01*
G75*
G02*
X77660608Y-115784936I26047J147721D01*
G01*
G37*
G36*
G01*
X80216242Y-122886608D02*
X80216242Y-122886608D01*
G75*
G02*
X80094568Y-122712840I26047J147721D01*
G01*
X80233486Y-121924994D01*
G75*
G02*
X80407254Y-121803320I147721J-26047D01*
G01*
X80407254Y-121803320D01*
G75*
G02*
X80528928Y-121977088I-26047J-147721D01*
G01*
X80390010Y-122764934D01*
G75*
G02*
X80216242Y-122886608I-147721J26047D01*
G01*
G37*
G36*
G01*
X88054026Y-123354736D02*
X88054026Y-123354736D01*
G75*
G02*
X87932352Y-123180968I26047J147721D01*
G01*
X88887416Y-117764526D01*
G75*
G02*
X89061184Y-117642852I147721J-26047D01*
G01*
X89061184Y-117642852D01*
G75*
G02*
X89182858Y-117816620I-26047J-147721D01*
G01*
X88227794Y-123233062D01*
G75*
G02*
X88054026Y-123354736I-147721J26047D01*
G01*
G37*
G36*
G01*
X84352434Y-123615930D02*
X84352434Y-123615930D01*
G75*
G02*
X84230760Y-123442162I26047J147721D01*
G01*
X84369678Y-122654316D01*
G75*
G02*
X84543446Y-122532642I147721J-26047D01*
G01*
X84543446Y-122532642D01*
G75*
G02*
X84665120Y-122706410I-26047J-147721D01*
G01*
X84526202Y-123494256D01*
G75*
G02*
X84352434Y-123615930I-147721J26047D01*
G01*
G37*
G36*
G01*
X76705543Y-121201379D02*
X76705543Y-121201379D01*
G75*
G02*
X76879311Y-121079705I147721J-26047D01*
G01*
X88106119Y-123059295D01*
G75*
G02*
X88227793Y-123233063I-26047J-147721D01*
G01*
X88227793Y-123233063D01*
G75*
G02*
X88054025Y-123354737I-147721J26047D01*
G01*
X76827217Y-121375147D01*
G75*
G02*
X76705543Y-121201379I26047J147721D01*
G01*
G37*
G36*
G01*
X80094568Y-122712840D02*
X80094568Y-122712840D01*
G75*
G02*
X80268336Y-122591166I147721J-26047D01*
G01*
X84404528Y-123320488D01*
G75*
G02*
X84526202Y-123494256I-26047J-147721D01*
G01*
X84526202Y-123494256D01*
G75*
G02*
X84352434Y-123615930I-147721J26047D01*
G01*
X80216242Y-122886608D01*
G75*
G02*
X80094568Y-122712840I26047J147721D01*
G01*
G37*
G36*
G01*
X76853143Y-120364293D02*
X77513007Y-116622023D01*
G75*
G02*
X78671463Y-115810863I984808J-173648D01*
G01*
X78671463Y-115810863D01*
G75*
G02*
X79482623Y-116969319I-173648J-984808D01*
G01*
X78822759Y-120711589D01*
G75*
G02*
X77664303Y-121522749I-984808J173648D01*
G01*
X77664303Y-121522749D01*
G75*
G02*
X76853143Y-120364293I173648J984808D01*
G01*
G37*
G36*
G01*
X80155343Y-122368157D02*
X80155343Y-122368157D01*
G75*
G02*
X80734571Y-121962577I492404J-86824D01*
G01*
X84181399Y-122570345D01*
G75*
G02*
X84586979Y-123149573I-86824J-492404D01*
G01*
X84586979Y-123149573D01*
G75*
G02*
X84007751Y-123555153I-492404J86824D01*
G01*
X80560923Y-122947385D01*
G75*
G02*
X80155343Y-122368157I86824J492404D01*
G01*
G37*
G36*
G01*
X86405778Y-122048680D02*
X87065642Y-118306410D01*
G75*
G02*
X88224098Y-117495250I984808J-173648D01*
G01*
X88224098Y-117495250D01*
G75*
G02*
X89035258Y-118653706I-173648J-984808D01*
G01*
X88375394Y-122395976D01*
G75*
G02*
X87216938Y-123207136I-984808J173648D01*
G01*
X87216938Y-123207136D01*
G75*
G02*
X86405778Y-122048680I173648J984808D01*
G01*
G37*
G36*
G01*
X76827217Y-121375147D02*
X76827217Y-121375147D01*
G75*
G02*
X76705543Y-121201379I26047J147721D01*
G01*
X77660607Y-115784937D01*
G75*
G02*
X77834375Y-115663263I147721J-26047D01*
G01*
X77834375Y-115663263D01*
G75*
G02*
X77956049Y-115837031I-26047J-147721D01*
G01*
X77000985Y-121253473D01*
G75*
G02*
X76827217Y-121375147I-147721J26047D01*
G01*
G37*
%TD*%
%TO.C,U35*%
X59954748Y-115708828D03*
X70393710Y-117549498D03*
X58953375Y-125534211D03*
X65381316Y-126972258D03*
G36*
G01*
X58588275Y-120291158D02*
X58588275Y-120291158D01*
G75*
G02*
X61947797Y-117938796I2855942J-503580D01*
G01*
X67758163Y-118963320D01*
G75*
G02*
X70110525Y-122322842I-503580J-2855942D01*
G01*
X70110525Y-122322842D01*
G75*
G02*
X66751003Y-124675204I-2855942J503580D01*
G01*
X60940637Y-123650680D01*
G75*
G02*
X58588275Y-120291158I503580J2855942D01*
G01*
G37*
G36*
G01*
X59065808Y-117582936D02*
X59065808Y-117582936D01*
G75*
G02*
X59239576Y-117461262I147721J-26047D01*
G01*
X70466384Y-119440852D01*
G75*
G02*
X70588058Y-119614620I-26047J-147721D01*
G01*
X70588058Y-119614620D01*
G75*
G02*
X70414290Y-119736294I-147721J26047D01*
G01*
X59187482Y-117756704D01*
G75*
G02*
X59065808Y-117582936I26047J147721D01*
G01*
G37*
G36*
G01*
X61621442Y-124684608D02*
X61621442Y-124684608D01*
G75*
G02*
X61499768Y-124510840I26047J147721D01*
G01*
X61638686Y-123722994D01*
G75*
G02*
X61812454Y-123601320I147721J-26047D01*
G01*
X61812454Y-123601320D01*
G75*
G02*
X61934128Y-123775088I-26047J-147721D01*
G01*
X61795210Y-124562934D01*
G75*
G02*
X61621442Y-124684608I-147721J26047D01*
G01*
G37*
G36*
G01*
X69459226Y-125152736D02*
X69459226Y-125152736D01*
G75*
G02*
X69337552Y-124978968I26047J147721D01*
G01*
X70292616Y-119562526D01*
G75*
G02*
X70466384Y-119440852I147721J-26047D01*
G01*
X70466384Y-119440852D01*
G75*
G02*
X70588058Y-119614620I-26047J-147721D01*
G01*
X69632994Y-125031062D01*
G75*
G02*
X69459226Y-125152736I-147721J26047D01*
G01*
G37*
G36*
G01*
X65757634Y-125413930D02*
X65757634Y-125413930D01*
G75*
G02*
X65635960Y-125240162I26047J147721D01*
G01*
X65774878Y-124452316D01*
G75*
G02*
X65948646Y-124330642I147721J-26047D01*
G01*
X65948646Y-124330642D01*
G75*
G02*
X66070320Y-124504410I-26047J-147721D01*
G01*
X65931402Y-125292256D01*
G75*
G02*
X65757634Y-125413930I-147721J26047D01*
G01*
G37*
G36*
G01*
X58110743Y-122999379D02*
X58110743Y-122999379D01*
G75*
G02*
X58284511Y-122877705I147721J-26047D01*
G01*
X69511319Y-124857295D01*
G75*
G02*
X69632993Y-125031063I-26047J-147721D01*
G01*
X69632993Y-125031063D01*
G75*
G02*
X69459225Y-125152737I-147721J26047D01*
G01*
X58232417Y-123173147D01*
G75*
G02*
X58110743Y-122999379I26047J147721D01*
G01*
G37*
G36*
G01*
X61499768Y-124510840D02*
X61499768Y-124510840D01*
G75*
G02*
X61673536Y-124389166I147721J-26047D01*
G01*
X65809728Y-125118488D01*
G75*
G02*
X65931402Y-125292256I-26047J-147721D01*
G01*
X65931402Y-125292256D01*
G75*
G02*
X65757634Y-125413930I-147721J26047D01*
G01*
X61621442Y-124684608D01*
G75*
G02*
X61499768Y-124510840I26047J147721D01*
G01*
G37*
G36*
G01*
X58258343Y-122162293D02*
X58918207Y-118420023D01*
G75*
G02*
X60076663Y-117608863I984808J-173648D01*
G01*
X60076663Y-117608863D01*
G75*
G02*
X60887823Y-118767319I-173648J-984808D01*
G01*
X60227959Y-122509589D01*
G75*
G02*
X59069503Y-123320749I-984808J173648D01*
G01*
X59069503Y-123320749D01*
G75*
G02*
X58258343Y-122162293I173648J984808D01*
G01*
G37*
G36*
G01*
X61560543Y-124166157D02*
X61560543Y-124166157D01*
G75*
G02*
X62139771Y-123760577I492404J-86824D01*
G01*
X65586599Y-124368345D01*
G75*
G02*
X65992179Y-124947573I-86824J-492404D01*
G01*
X65992179Y-124947573D01*
G75*
G02*
X65412951Y-125353153I-492404J86824D01*
G01*
X61966123Y-124745385D01*
G75*
G02*
X61560543Y-124166157I86824J492404D01*
G01*
G37*
G36*
G01*
X67810978Y-123846680D02*
X68470842Y-120104410D01*
G75*
G02*
X69629298Y-119293250I984808J-173648D01*
G01*
X69629298Y-119293250D01*
G75*
G02*
X70440458Y-120451706I-173648J-984808D01*
G01*
X69780594Y-124193976D01*
G75*
G02*
X68622138Y-125005136I-984808J173648D01*
G01*
X68622138Y-125005136D01*
G75*
G02*
X67810978Y-123846680I173648J984808D01*
G01*
G37*
G36*
G01*
X58232417Y-123173147D02*
X58232417Y-123173147D01*
G75*
G02*
X58110743Y-122999379I26047J147721D01*
G01*
X59065807Y-117582937D01*
G75*
G02*
X59239575Y-117461263I147721J-26047D01*
G01*
X59239575Y-117461263D01*
G75*
G02*
X59361249Y-117635031I-26047J-147721D01*
G01*
X58406185Y-123051473D01*
G75*
G02*
X58232417Y-123173147I-147721J26047D01*
G01*
G37*
%TD*%
%TO.C,U34*%
X41707248Y-115537828D03*
X52146210Y-117378498D03*
X40705875Y-125363211D03*
X47133816Y-126801258D03*
G36*
G01*
X40340775Y-120120158D02*
X40340775Y-120120158D01*
G75*
G02*
X43700297Y-117767796I2855942J-503580D01*
G01*
X49510663Y-118792320D01*
G75*
G02*
X51863025Y-122151842I-503580J-2855942D01*
G01*
X51863025Y-122151842D01*
G75*
G02*
X48503503Y-124504204I-2855942J503580D01*
G01*
X42693137Y-123479680D01*
G75*
G02*
X40340775Y-120120158I503580J2855942D01*
G01*
G37*
G36*
G01*
X40818308Y-117411936D02*
X40818308Y-117411936D01*
G75*
G02*
X40992076Y-117290262I147721J-26047D01*
G01*
X52218884Y-119269852D01*
G75*
G02*
X52340558Y-119443620I-26047J-147721D01*
G01*
X52340558Y-119443620D01*
G75*
G02*
X52166790Y-119565294I-147721J26047D01*
G01*
X40939982Y-117585704D01*
G75*
G02*
X40818308Y-117411936I26047J147721D01*
G01*
G37*
G36*
G01*
X43373942Y-124513608D02*
X43373942Y-124513608D01*
G75*
G02*
X43252268Y-124339840I26047J147721D01*
G01*
X43391186Y-123551994D01*
G75*
G02*
X43564954Y-123430320I147721J-26047D01*
G01*
X43564954Y-123430320D01*
G75*
G02*
X43686628Y-123604088I-26047J-147721D01*
G01*
X43547710Y-124391934D01*
G75*
G02*
X43373942Y-124513608I-147721J26047D01*
G01*
G37*
G36*
G01*
X51211726Y-124981736D02*
X51211726Y-124981736D01*
G75*
G02*
X51090052Y-124807968I26047J147721D01*
G01*
X52045116Y-119391526D01*
G75*
G02*
X52218884Y-119269852I147721J-26047D01*
G01*
X52218884Y-119269852D01*
G75*
G02*
X52340558Y-119443620I-26047J-147721D01*
G01*
X51385494Y-124860062D01*
G75*
G02*
X51211726Y-124981736I-147721J26047D01*
G01*
G37*
G36*
G01*
X47510134Y-125242930D02*
X47510134Y-125242930D01*
G75*
G02*
X47388460Y-125069162I26047J147721D01*
G01*
X47527378Y-124281316D01*
G75*
G02*
X47701146Y-124159642I147721J-26047D01*
G01*
X47701146Y-124159642D01*
G75*
G02*
X47822820Y-124333410I-26047J-147721D01*
G01*
X47683902Y-125121256D01*
G75*
G02*
X47510134Y-125242930I-147721J26047D01*
G01*
G37*
G36*
G01*
X39863243Y-122828379D02*
X39863243Y-122828379D01*
G75*
G02*
X40037011Y-122706705I147721J-26047D01*
G01*
X51263819Y-124686295D01*
G75*
G02*
X51385493Y-124860063I-26047J-147721D01*
G01*
X51385493Y-124860063D01*
G75*
G02*
X51211725Y-124981737I-147721J26047D01*
G01*
X39984917Y-123002147D01*
G75*
G02*
X39863243Y-122828379I26047J147721D01*
G01*
G37*
G36*
G01*
X43252268Y-124339840D02*
X43252268Y-124339840D01*
G75*
G02*
X43426036Y-124218166I147721J-26047D01*
G01*
X47562228Y-124947488D01*
G75*
G02*
X47683902Y-125121256I-26047J-147721D01*
G01*
X47683902Y-125121256D01*
G75*
G02*
X47510134Y-125242930I-147721J26047D01*
G01*
X43373942Y-124513608D01*
G75*
G02*
X43252268Y-124339840I26047J147721D01*
G01*
G37*
G36*
G01*
X40010843Y-121991293D02*
X40670707Y-118249023D01*
G75*
G02*
X41829163Y-117437863I984808J-173648D01*
G01*
X41829163Y-117437863D01*
G75*
G02*
X42640323Y-118596319I-173648J-984808D01*
G01*
X41980459Y-122338589D01*
G75*
G02*
X40822003Y-123149749I-984808J173648D01*
G01*
X40822003Y-123149749D01*
G75*
G02*
X40010843Y-121991293I173648J984808D01*
G01*
G37*
G36*
G01*
X43313043Y-123995157D02*
X43313043Y-123995157D01*
G75*
G02*
X43892271Y-123589577I492404J-86824D01*
G01*
X47339099Y-124197345D01*
G75*
G02*
X47744679Y-124776573I-86824J-492404D01*
G01*
X47744679Y-124776573D01*
G75*
G02*
X47165451Y-125182153I-492404J86824D01*
G01*
X43718623Y-124574385D01*
G75*
G02*
X43313043Y-123995157I86824J492404D01*
G01*
G37*
G36*
G01*
X49563478Y-123675680D02*
X50223342Y-119933410D01*
G75*
G02*
X51381798Y-119122250I984808J-173648D01*
G01*
X51381798Y-119122250D01*
G75*
G02*
X52192958Y-120280706I-173648J-984808D01*
G01*
X51533094Y-124022976D01*
G75*
G02*
X50374638Y-124834136I-984808J173648D01*
G01*
X50374638Y-124834136D01*
G75*
G02*
X49563478Y-123675680I173648J984808D01*
G01*
G37*
G36*
G01*
X39984917Y-123002147D02*
X39984917Y-123002147D01*
G75*
G02*
X39863243Y-122828379I26047J147721D01*
G01*
X40818307Y-117411937D01*
G75*
G02*
X40992075Y-117290263I147721J-26047D01*
G01*
X40992075Y-117290263D01*
G75*
G02*
X41113749Y-117464031I-26047J-147721D01*
G01*
X40158685Y-122880473D01*
G75*
G02*
X39984917Y-123002147I-147721J26047D01*
G01*
G37*
%TD*%
%TO.C,U27*%
X115218348Y-113267828D03*
X125657310Y-115108498D03*
X114216975Y-123093211D03*
X120644916Y-124531258D03*
G36*
G01*
X113851875Y-117850158D02*
X113851875Y-117850158D01*
G75*
G02*
X117211397Y-115497796I2855942J-503580D01*
G01*
X123021763Y-116522320D01*
G75*
G02*
X125374125Y-119881842I-503580J-2855942D01*
G01*
X125374125Y-119881842D01*
G75*
G02*
X122014603Y-122234204I-2855942J503580D01*
G01*
X116204237Y-121209680D01*
G75*
G02*
X113851875Y-117850158I503580J2855942D01*
G01*
G37*
G36*
G01*
X114329408Y-115141936D02*
X114329408Y-115141936D01*
G75*
G02*
X114503176Y-115020262I147721J-26047D01*
G01*
X125729984Y-116999852D01*
G75*
G02*
X125851658Y-117173620I-26047J-147721D01*
G01*
X125851658Y-117173620D01*
G75*
G02*
X125677890Y-117295294I-147721J26047D01*
G01*
X114451082Y-115315704D01*
G75*
G02*
X114329408Y-115141936I26047J147721D01*
G01*
G37*
G36*
G01*
X116885042Y-122243608D02*
X116885042Y-122243608D01*
G75*
G02*
X116763368Y-122069840I26047J147721D01*
G01*
X116902286Y-121281994D01*
G75*
G02*
X117076054Y-121160320I147721J-26047D01*
G01*
X117076054Y-121160320D01*
G75*
G02*
X117197728Y-121334088I-26047J-147721D01*
G01*
X117058810Y-122121934D01*
G75*
G02*
X116885042Y-122243608I-147721J26047D01*
G01*
G37*
G36*
G01*
X124722826Y-122711736D02*
X124722826Y-122711736D01*
G75*
G02*
X124601152Y-122537968I26047J147721D01*
G01*
X125556216Y-117121526D01*
G75*
G02*
X125729984Y-116999852I147721J-26047D01*
G01*
X125729984Y-116999852D01*
G75*
G02*
X125851658Y-117173620I-26047J-147721D01*
G01*
X124896594Y-122590062D01*
G75*
G02*
X124722826Y-122711736I-147721J26047D01*
G01*
G37*
G36*
G01*
X121021234Y-122972930D02*
X121021234Y-122972930D01*
G75*
G02*
X120899560Y-122799162I26047J147721D01*
G01*
X121038478Y-122011316D01*
G75*
G02*
X121212246Y-121889642I147721J-26047D01*
G01*
X121212246Y-121889642D01*
G75*
G02*
X121333920Y-122063410I-26047J-147721D01*
G01*
X121195002Y-122851256D01*
G75*
G02*
X121021234Y-122972930I-147721J26047D01*
G01*
G37*
G36*
G01*
X113374343Y-120558379D02*
X113374343Y-120558379D01*
G75*
G02*
X113548111Y-120436705I147721J-26047D01*
G01*
X124774919Y-122416295D01*
G75*
G02*
X124896593Y-122590063I-26047J-147721D01*
G01*
X124896593Y-122590063D01*
G75*
G02*
X124722825Y-122711737I-147721J26047D01*
G01*
X113496017Y-120732147D01*
G75*
G02*
X113374343Y-120558379I26047J147721D01*
G01*
G37*
G36*
G01*
X116763368Y-122069840D02*
X116763368Y-122069840D01*
G75*
G02*
X116937136Y-121948166I147721J-26047D01*
G01*
X121073328Y-122677488D01*
G75*
G02*
X121195002Y-122851256I-26047J-147721D01*
G01*
X121195002Y-122851256D01*
G75*
G02*
X121021234Y-122972930I-147721J26047D01*
G01*
X116885042Y-122243608D01*
G75*
G02*
X116763368Y-122069840I26047J147721D01*
G01*
G37*
G36*
G01*
X113521943Y-119721293D02*
X114181807Y-115979023D01*
G75*
G02*
X115340263Y-115167863I984808J-173648D01*
G01*
X115340263Y-115167863D01*
G75*
G02*
X116151423Y-116326319I-173648J-984808D01*
G01*
X115491559Y-120068589D01*
G75*
G02*
X114333103Y-120879749I-984808J173648D01*
G01*
X114333103Y-120879749D01*
G75*
G02*
X113521943Y-119721293I173648J984808D01*
G01*
G37*
G36*
G01*
X116824143Y-121725157D02*
X116824143Y-121725157D01*
G75*
G02*
X117403371Y-121319577I492404J-86824D01*
G01*
X120850199Y-121927345D01*
G75*
G02*
X121255779Y-122506573I-86824J-492404D01*
G01*
X121255779Y-122506573D01*
G75*
G02*
X120676551Y-122912153I-492404J86824D01*
G01*
X117229723Y-122304385D01*
G75*
G02*
X116824143Y-121725157I86824J492404D01*
G01*
G37*
G36*
G01*
X123074578Y-121405680D02*
X123734442Y-117663410D01*
G75*
G02*
X124892898Y-116852250I984808J-173648D01*
G01*
X124892898Y-116852250D01*
G75*
G02*
X125704058Y-118010706I-173648J-984808D01*
G01*
X125044194Y-121752976D01*
G75*
G02*
X123885738Y-122564136I-984808J173648D01*
G01*
X123885738Y-122564136D01*
G75*
G02*
X123074578Y-121405680I173648J984808D01*
G01*
G37*
G36*
G01*
X113496017Y-120732147D02*
X113496017Y-120732147D01*
G75*
G02*
X113374343Y-120558379I26047J147721D01*
G01*
X114329407Y-115141937D01*
G75*
G02*
X114503175Y-115020263I147721J-26047D01*
G01*
X114503175Y-115020263D01*
G75*
G02*
X114624849Y-115194031I-26047J-147721D01*
G01*
X113669785Y-120610473D01*
G75*
G02*
X113496017Y-120732147I-147721J26047D01*
G01*
G37*
%TD*%
%TO.C,U26*%
X98186348Y-106202828D03*
X108625310Y-108043498D03*
X97184975Y-116028211D03*
X103612916Y-117466258D03*
G36*
G01*
X96819875Y-110785158D02*
X96819875Y-110785158D01*
G75*
G02*
X100179397Y-108432796I2855942J-503580D01*
G01*
X105989763Y-109457320D01*
G75*
G02*
X108342125Y-112816842I-503580J-2855942D01*
G01*
X108342125Y-112816842D01*
G75*
G02*
X104982603Y-115169204I-2855942J503580D01*
G01*
X99172237Y-114144680D01*
G75*
G02*
X96819875Y-110785158I503580J2855942D01*
G01*
G37*
G36*
G01*
X97297408Y-108076936D02*
X97297408Y-108076936D01*
G75*
G02*
X97471176Y-107955262I147721J-26047D01*
G01*
X108697984Y-109934852D01*
G75*
G02*
X108819658Y-110108620I-26047J-147721D01*
G01*
X108819658Y-110108620D01*
G75*
G02*
X108645890Y-110230294I-147721J26047D01*
G01*
X97419082Y-108250704D01*
G75*
G02*
X97297408Y-108076936I26047J147721D01*
G01*
G37*
G36*
G01*
X99853042Y-115178608D02*
X99853042Y-115178608D01*
G75*
G02*
X99731368Y-115004840I26047J147721D01*
G01*
X99870286Y-114216994D01*
G75*
G02*
X100044054Y-114095320I147721J-26047D01*
G01*
X100044054Y-114095320D01*
G75*
G02*
X100165728Y-114269088I-26047J-147721D01*
G01*
X100026810Y-115056934D01*
G75*
G02*
X99853042Y-115178608I-147721J26047D01*
G01*
G37*
G36*
G01*
X107690826Y-115646736D02*
X107690826Y-115646736D01*
G75*
G02*
X107569152Y-115472968I26047J147721D01*
G01*
X108524216Y-110056526D01*
G75*
G02*
X108697984Y-109934852I147721J-26047D01*
G01*
X108697984Y-109934852D01*
G75*
G02*
X108819658Y-110108620I-26047J-147721D01*
G01*
X107864594Y-115525062D01*
G75*
G02*
X107690826Y-115646736I-147721J26047D01*
G01*
G37*
G36*
G01*
X103989234Y-115907930D02*
X103989234Y-115907930D01*
G75*
G02*
X103867560Y-115734162I26047J147721D01*
G01*
X104006478Y-114946316D01*
G75*
G02*
X104180246Y-114824642I147721J-26047D01*
G01*
X104180246Y-114824642D01*
G75*
G02*
X104301920Y-114998410I-26047J-147721D01*
G01*
X104163002Y-115786256D01*
G75*
G02*
X103989234Y-115907930I-147721J26047D01*
G01*
G37*
G36*
G01*
X96342343Y-113493379D02*
X96342343Y-113493379D01*
G75*
G02*
X96516111Y-113371705I147721J-26047D01*
G01*
X107742919Y-115351295D01*
G75*
G02*
X107864593Y-115525063I-26047J-147721D01*
G01*
X107864593Y-115525063D01*
G75*
G02*
X107690825Y-115646737I-147721J26047D01*
G01*
X96464017Y-113667147D01*
G75*
G02*
X96342343Y-113493379I26047J147721D01*
G01*
G37*
G36*
G01*
X99731368Y-115004840D02*
X99731368Y-115004840D01*
G75*
G02*
X99905136Y-114883166I147721J-26047D01*
G01*
X104041328Y-115612488D01*
G75*
G02*
X104163002Y-115786256I-26047J-147721D01*
G01*
X104163002Y-115786256D01*
G75*
G02*
X103989234Y-115907930I-147721J26047D01*
G01*
X99853042Y-115178608D01*
G75*
G02*
X99731368Y-115004840I26047J147721D01*
G01*
G37*
G36*
G01*
X96489943Y-112656293D02*
X97149807Y-108914023D01*
G75*
G02*
X98308263Y-108102863I984808J-173648D01*
G01*
X98308263Y-108102863D01*
G75*
G02*
X99119423Y-109261319I-173648J-984808D01*
G01*
X98459559Y-113003589D01*
G75*
G02*
X97301103Y-113814749I-984808J173648D01*
G01*
X97301103Y-113814749D01*
G75*
G02*
X96489943Y-112656293I173648J984808D01*
G01*
G37*
G36*
G01*
X99792143Y-114660157D02*
X99792143Y-114660157D01*
G75*
G02*
X100371371Y-114254577I492404J-86824D01*
G01*
X103818199Y-114862345D01*
G75*
G02*
X104223779Y-115441573I-86824J-492404D01*
G01*
X104223779Y-115441573D01*
G75*
G02*
X103644551Y-115847153I-492404J86824D01*
G01*
X100197723Y-115239385D01*
G75*
G02*
X99792143Y-114660157I86824J492404D01*
G01*
G37*
G36*
G01*
X106042578Y-114340680D02*
X106702442Y-110598410D01*
G75*
G02*
X107860898Y-109787250I984808J-173648D01*
G01*
X107860898Y-109787250D01*
G75*
G02*
X108672058Y-110945706I-173648J-984808D01*
G01*
X108012194Y-114687976D01*
G75*
G02*
X106853738Y-115499136I-984808J173648D01*
G01*
X106853738Y-115499136D01*
G75*
G02*
X106042578Y-114340680I173648J984808D01*
G01*
G37*
G36*
G01*
X96464017Y-113667147D02*
X96464017Y-113667147D01*
G75*
G02*
X96342343Y-113493379I26047J147721D01*
G01*
X97297407Y-108076937D01*
G75*
G02*
X97471175Y-107955263I147721J-26047D01*
G01*
X97471175Y-107955263D01*
G75*
G02*
X97592849Y-108129031I-26047J-147721D01*
G01*
X96637785Y-113545473D01*
G75*
G02*
X96464017Y-113667147I-147721J26047D01*
G01*
G37*
%TD*%
%TO.C,U25*%
X81501548Y-97168828D03*
X91940510Y-99009498D03*
X80500175Y-106994211D03*
X86928116Y-108432258D03*
G36*
G01*
X80135075Y-101751158D02*
X80135075Y-101751158D01*
G75*
G02*
X83494597Y-99398796I2855942J-503580D01*
G01*
X89304963Y-100423320D01*
G75*
G02*
X91657325Y-103782842I-503580J-2855942D01*
G01*
X91657325Y-103782842D01*
G75*
G02*
X88297803Y-106135204I-2855942J503580D01*
G01*
X82487437Y-105110680D01*
G75*
G02*
X80135075Y-101751158I503580J2855942D01*
G01*
G37*
G36*
G01*
X80612608Y-99042936D02*
X80612608Y-99042936D01*
G75*
G02*
X80786376Y-98921262I147721J-26047D01*
G01*
X92013184Y-100900852D01*
G75*
G02*
X92134858Y-101074620I-26047J-147721D01*
G01*
X92134858Y-101074620D01*
G75*
G02*
X91961090Y-101196294I-147721J26047D01*
G01*
X80734282Y-99216704D01*
G75*
G02*
X80612608Y-99042936I26047J147721D01*
G01*
G37*
G36*
G01*
X83168242Y-106144608D02*
X83168242Y-106144608D01*
G75*
G02*
X83046568Y-105970840I26047J147721D01*
G01*
X83185486Y-105182994D01*
G75*
G02*
X83359254Y-105061320I147721J-26047D01*
G01*
X83359254Y-105061320D01*
G75*
G02*
X83480928Y-105235088I-26047J-147721D01*
G01*
X83342010Y-106022934D01*
G75*
G02*
X83168242Y-106144608I-147721J26047D01*
G01*
G37*
G36*
G01*
X91006026Y-106612736D02*
X91006026Y-106612736D01*
G75*
G02*
X90884352Y-106438968I26047J147721D01*
G01*
X91839416Y-101022526D01*
G75*
G02*
X92013184Y-100900852I147721J-26047D01*
G01*
X92013184Y-100900852D01*
G75*
G02*
X92134858Y-101074620I-26047J-147721D01*
G01*
X91179794Y-106491062D01*
G75*
G02*
X91006026Y-106612736I-147721J26047D01*
G01*
G37*
G36*
G01*
X87304434Y-106873930D02*
X87304434Y-106873930D01*
G75*
G02*
X87182760Y-106700162I26047J147721D01*
G01*
X87321678Y-105912316D01*
G75*
G02*
X87495446Y-105790642I147721J-26047D01*
G01*
X87495446Y-105790642D01*
G75*
G02*
X87617120Y-105964410I-26047J-147721D01*
G01*
X87478202Y-106752256D01*
G75*
G02*
X87304434Y-106873930I-147721J26047D01*
G01*
G37*
G36*
G01*
X79657543Y-104459379D02*
X79657543Y-104459379D01*
G75*
G02*
X79831311Y-104337705I147721J-26047D01*
G01*
X91058119Y-106317295D01*
G75*
G02*
X91179793Y-106491063I-26047J-147721D01*
G01*
X91179793Y-106491063D01*
G75*
G02*
X91006025Y-106612737I-147721J26047D01*
G01*
X79779217Y-104633147D01*
G75*
G02*
X79657543Y-104459379I26047J147721D01*
G01*
G37*
G36*
G01*
X83046568Y-105970840D02*
X83046568Y-105970840D01*
G75*
G02*
X83220336Y-105849166I147721J-26047D01*
G01*
X87356528Y-106578488D01*
G75*
G02*
X87478202Y-106752256I-26047J-147721D01*
G01*
X87478202Y-106752256D01*
G75*
G02*
X87304434Y-106873930I-147721J26047D01*
G01*
X83168242Y-106144608D01*
G75*
G02*
X83046568Y-105970840I26047J147721D01*
G01*
G37*
G36*
G01*
X79805143Y-103622293D02*
X80465007Y-99880023D01*
G75*
G02*
X81623463Y-99068863I984808J-173648D01*
G01*
X81623463Y-99068863D01*
G75*
G02*
X82434623Y-100227319I-173648J-984808D01*
G01*
X81774759Y-103969589D01*
G75*
G02*
X80616303Y-104780749I-984808J173648D01*
G01*
X80616303Y-104780749D01*
G75*
G02*
X79805143Y-103622293I173648J984808D01*
G01*
G37*
G36*
G01*
X83107343Y-105626157D02*
X83107343Y-105626157D01*
G75*
G02*
X83686571Y-105220577I492404J-86824D01*
G01*
X87133399Y-105828345D01*
G75*
G02*
X87538979Y-106407573I-86824J-492404D01*
G01*
X87538979Y-106407573D01*
G75*
G02*
X86959751Y-106813153I-492404J86824D01*
G01*
X83512923Y-106205385D01*
G75*
G02*
X83107343Y-105626157I86824J492404D01*
G01*
G37*
G36*
G01*
X89357778Y-105306680D02*
X90017642Y-101564410D01*
G75*
G02*
X91176098Y-100753250I984808J-173648D01*
G01*
X91176098Y-100753250D01*
G75*
G02*
X91987258Y-101911706I-173648J-984808D01*
G01*
X91327394Y-105653976D01*
G75*
G02*
X90168938Y-106465136I-984808J173648D01*
G01*
X90168938Y-106465136D01*
G75*
G02*
X89357778Y-105306680I173648J984808D01*
G01*
G37*
G36*
G01*
X79779217Y-104633147D02*
X79779217Y-104633147D01*
G75*
G02*
X79657543Y-104459379I26047J147721D01*
G01*
X80612607Y-99042937D01*
G75*
G02*
X80786375Y-98921263I147721J-26047D01*
G01*
X80786375Y-98921263D01*
G75*
G02*
X80908049Y-99095031I-26047J-147721D01*
G01*
X79952985Y-104511473D01*
G75*
G02*
X79779217Y-104633147I-147721J26047D01*
G01*
G37*
%TD*%
%TO.C,U24*%
X62906748Y-98966828D03*
X73345710Y-100807498D03*
X61905375Y-108792211D03*
X68333316Y-110230258D03*
G36*
G01*
X61540275Y-103549158D02*
X61540275Y-103549158D01*
G75*
G02*
X64899797Y-101196796I2855942J-503580D01*
G01*
X70710163Y-102221320D01*
G75*
G02*
X73062525Y-105580842I-503580J-2855942D01*
G01*
X73062525Y-105580842D01*
G75*
G02*
X69703003Y-107933204I-2855942J503580D01*
G01*
X63892637Y-106908680D01*
G75*
G02*
X61540275Y-103549158I503580J2855942D01*
G01*
G37*
G36*
G01*
X62017808Y-100840936D02*
X62017808Y-100840936D01*
G75*
G02*
X62191576Y-100719262I147721J-26047D01*
G01*
X73418384Y-102698852D01*
G75*
G02*
X73540058Y-102872620I-26047J-147721D01*
G01*
X73540058Y-102872620D01*
G75*
G02*
X73366290Y-102994294I-147721J26047D01*
G01*
X62139482Y-101014704D01*
G75*
G02*
X62017808Y-100840936I26047J147721D01*
G01*
G37*
G36*
G01*
X64573442Y-107942608D02*
X64573442Y-107942608D01*
G75*
G02*
X64451768Y-107768840I26047J147721D01*
G01*
X64590686Y-106980994D01*
G75*
G02*
X64764454Y-106859320I147721J-26047D01*
G01*
X64764454Y-106859320D01*
G75*
G02*
X64886128Y-107033088I-26047J-147721D01*
G01*
X64747210Y-107820934D01*
G75*
G02*
X64573442Y-107942608I-147721J26047D01*
G01*
G37*
G36*
G01*
X72411226Y-108410736D02*
X72411226Y-108410736D01*
G75*
G02*
X72289552Y-108236968I26047J147721D01*
G01*
X73244616Y-102820526D01*
G75*
G02*
X73418384Y-102698852I147721J-26047D01*
G01*
X73418384Y-102698852D01*
G75*
G02*
X73540058Y-102872620I-26047J-147721D01*
G01*
X72584994Y-108289062D01*
G75*
G02*
X72411226Y-108410736I-147721J26047D01*
G01*
G37*
G36*
G01*
X68709634Y-108671930D02*
X68709634Y-108671930D01*
G75*
G02*
X68587960Y-108498162I26047J147721D01*
G01*
X68726878Y-107710316D01*
G75*
G02*
X68900646Y-107588642I147721J-26047D01*
G01*
X68900646Y-107588642D01*
G75*
G02*
X69022320Y-107762410I-26047J-147721D01*
G01*
X68883402Y-108550256D01*
G75*
G02*
X68709634Y-108671930I-147721J26047D01*
G01*
G37*
G36*
G01*
X61062743Y-106257379D02*
X61062743Y-106257379D01*
G75*
G02*
X61236511Y-106135705I147721J-26047D01*
G01*
X72463319Y-108115295D01*
G75*
G02*
X72584993Y-108289063I-26047J-147721D01*
G01*
X72584993Y-108289063D01*
G75*
G02*
X72411225Y-108410737I-147721J26047D01*
G01*
X61184417Y-106431147D01*
G75*
G02*
X61062743Y-106257379I26047J147721D01*
G01*
G37*
G36*
G01*
X64451768Y-107768840D02*
X64451768Y-107768840D01*
G75*
G02*
X64625536Y-107647166I147721J-26047D01*
G01*
X68761728Y-108376488D01*
G75*
G02*
X68883402Y-108550256I-26047J-147721D01*
G01*
X68883402Y-108550256D01*
G75*
G02*
X68709634Y-108671930I-147721J26047D01*
G01*
X64573442Y-107942608D01*
G75*
G02*
X64451768Y-107768840I26047J147721D01*
G01*
G37*
G36*
G01*
X61210343Y-105420293D02*
X61870207Y-101678023D01*
G75*
G02*
X63028663Y-100866863I984808J-173648D01*
G01*
X63028663Y-100866863D01*
G75*
G02*
X63839823Y-102025319I-173648J-984808D01*
G01*
X63179959Y-105767589D01*
G75*
G02*
X62021503Y-106578749I-984808J173648D01*
G01*
X62021503Y-106578749D01*
G75*
G02*
X61210343Y-105420293I173648J984808D01*
G01*
G37*
G36*
G01*
X64512543Y-107424157D02*
X64512543Y-107424157D01*
G75*
G02*
X65091771Y-107018577I492404J-86824D01*
G01*
X68538599Y-107626345D01*
G75*
G02*
X68944179Y-108205573I-86824J-492404D01*
G01*
X68944179Y-108205573D01*
G75*
G02*
X68364951Y-108611153I-492404J86824D01*
G01*
X64918123Y-108003385D01*
G75*
G02*
X64512543Y-107424157I86824J492404D01*
G01*
G37*
G36*
G01*
X70762978Y-107104680D02*
X71422842Y-103362410D01*
G75*
G02*
X72581298Y-102551250I984808J-173648D01*
G01*
X72581298Y-102551250D01*
G75*
G02*
X73392458Y-103709706I-173648J-984808D01*
G01*
X72732594Y-107451976D01*
G75*
G02*
X71574138Y-108263136I-984808J173648D01*
G01*
X71574138Y-108263136D01*
G75*
G02*
X70762978Y-107104680I173648J984808D01*
G01*
G37*
G36*
G01*
X61184417Y-106431147D02*
X61184417Y-106431147D01*
G75*
G02*
X61062743Y-106257379I26047J147721D01*
G01*
X62017807Y-100840937D01*
G75*
G02*
X62191575Y-100719263I147721J-26047D01*
G01*
X62191575Y-100719263D01*
G75*
G02*
X62313249Y-100893031I-26047J-147721D01*
G01*
X61358185Y-106309473D01*
G75*
G02*
X61184417Y-106431147I-147721J26047D01*
G01*
G37*
%TD*%
%TO.C,U23*%
X44683183Y-98827303D03*
X55122145Y-100667973D03*
X43681810Y-108652686D03*
X50109751Y-110090733D03*
G36*
G01*
X43316710Y-103409633D02*
X43316710Y-103409633D01*
G75*
G02*
X46676232Y-101057271I2855942J-503580D01*
G01*
X52486598Y-102081795D01*
G75*
G02*
X54838960Y-105441317I-503580J-2855942D01*
G01*
X54838960Y-105441317D01*
G75*
G02*
X51479438Y-107793679I-2855942J503580D01*
G01*
X45669072Y-106769155D01*
G75*
G02*
X43316710Y-103409633I503580J2855942D01*
G01*
G37*
G36*
G01*
X43794243Y-100701411D02*
X43794243Y-100701411D01*
G75*
G02*
X43968011Y-100579737I147721J-26047D01*
G01*
X55194819Y-102559327D01*
G75*
G02*
X55316493Y-102733095I-26047J-147721D01*
G01*
X55316493Y-102733095D01*
G75*
G02*
X55142725Y-102854769I-147721J26047D01*
G01*
X43915917Y-100875179D01*
G75*
G02*
X43794243Y-100701411I26047J147721D01*
G01*
G37*
G36*
G01*
X46349877Y-107803083D02*
X46349877Y-107803083D01*
G75*
G02*
X46228203Y-107629315I26047J147721D01*
G01*
X46367121Y-106841469D01*
G75*
G02*
X46540889Y-106719795I147721J-26047D01*
G01*
X46540889Y-106719795D01*
G75*
G02*
X46662563Y-106893563I-26047J-147721D01*
G01*
X46523645Y-107681409D01*
G75*
G02*
X46349877Y-107803083I-147721J26047D01*
G01*
G37*
G36*
G01*
X54187661Y-108271211D02*
X54187661Y-108271211D01*
G75*
G02*
X54065987Y-108097443I26047J147721D01*
G01*
X55021051Y-102681001D01*
G75*
G02*
X55194819Y-102559327I147721J-26047D01*
G01*
X55194819Y-102559327D01*
G75*
G02*
X55316493Y-102733095I-26047J-147721D01*
G01*
X54361429Y-108149537D01*
G75*
G02*
X54187661Y-108271211I-147721J26047D01*
G01*
G37*
G36*
G01*
X50486069Y-108532405D02*
X50486069Y-108532405D01*
G75*
G02*
X50364395Y-108358637I26047J147721D01*
G01*
X50503313Y-107570791D01*
G75*
G02*
X50677081Y-107449117I147721J-26047D01*
G01*
X50677081Y-107449117D01*
G75*
G02*
X50798755Y-107622885I-26047J-147721D01*
G01*
X50659837Y-108410731D01*
G75*
G02*
X50486069Y-108532405I-147721J26047D01*
G01*
G37*
G36*
G01*
X42839178Y-106117854D02*
X42839178Y-106117854D01*
G75*
G02*
X43012946Y-105996180I147721J-26047D01*
G01*
X54239754Y-107975770D01*
G75*
G02*
X54361428Y-108149538I-26047J-147721D01*
G01*
X54361428Y-108149538D01*
G75*
G02*
X54187660Y-108271212I-147721J26047D01*
G01*
X42960852Y-106291622D01*
G75*
G02*
X42839178Y-106117854I26047J147721D01*
G01*
G37*
G36*
G01*
X46228203Y-107629315D02*
X46228203Y-107629315D01*
G75*
G02*
X46401971Y-107507641I147721J-26047D01*
G01*
X50538163Y-108236963D01*
G75*
G02*
X50659837Y-108410731I-26047J-147721D01*
G01*
X50659837Y-108410731D01*
G75*
G02*
X50486069Y-108532405I-147721J26047D01*
G01*
X46349877Y-107803083D01*
G75*
G02*
X46228203Y-107629315I26047J147721D01*
G01*
G37*
G36*
G01*
X42986778Y-105280768D02*
X43646642Y-101538498D01*
G75*
G02*
X44805098Y-100727338I984808J-173648D01*
G01*
X44805098Y-100727338D01*
G75*
G02*
X45616258Y-101885794I-173648J-984808D01*
G01*
X44956394Y-105628064D01*
G75*
G02*
X43797938Y-106439224I-984808J173648D01*
G01*
X43797938Y-106439224D01*
G75*
G02*
X42986778Y-105280768I173648J984808D01*
G01*
G37*
G36*
G01*
X46288978Y-107284632D02*
X46288978Y-107284632D01*
G75*
G02*
X46868206Y-106879052I492404J-86824D01*
G01*
X50315034Y-107486820D01*
G75*
G02*
X50720614Y-108066048I-86824J-492404D01*
G01*
X50720614Y-108066048D01*
G75*
G02*
X50141386Y-108471628I-492404J86824D01*
G01*
X46694558Y-107863860D01*
G75*
G02*
X46288978Y-107284632I86824J492404D01*
G01*
G37*
G36*
G01*
X52539413Y-106965155D02*
X53199277Y-103222885D01*
G75*
G02*
X54357733Y-102411725I984808J-173648D01*
G01*
X54357733Y-102411725D01*
G75*
G02*
X55168893Y-103570181I-173648J-984808D01*
G01*
X54509029Y-107312451D01*
G75*
G02*
X53350573Y-108123611I-984808J173648D01*
G01*
X53350573Y-108123611D01*
G75*
G02*
X52539413Y-106965155I173648J984808D01*
G01*
G37*
G36*
G01*
X42960852Y-106291622D02*
X42960852Y-106291622D01*
G75*
G02*
X42839178Y-106117854I26047J147721D01*
G01*
X43794242Y-100701412D01*
G75*
G02*
X43968010Y-100579738I147721J-26047D01*
G01*
X43968010Y-100579738D01*
G75*
G02*
X44089684Y-100753506I-26047J-147721D01*
G01*
X43134620Y-106169948D01*
G75*
G02*
X42960852Y-106291622I-147721J26047D01*
G01*
G37*
%TD*%
%TO.C,U22*%
X241949690Y-83894898D03*
X252388652Y-82054228D03*
X244369186Y-93470228D03*
X250901315Y-92623065D03*
G36*
G01*
X242232875Y-88668242D02*
X242232875Y-88668242D01*
G75*
G02*
X244585237Y-85308720I2855942J503580D01*
G01*
X250395603Y-84284196D01*
G75*
G02*
X253755125Y-86636558I503580J-2855942D01*
G01*
X253755125Y-86636558D01*
G75*
G02*
X251402763Y-89996080I-2855942J-503580D01*
G01*
X245592397Y-91020604D01*
G75*
G02*
X242232875Y-88668242I-503580J2855942D01*
G01*
G37*
G36*
G01*
X241755342Y-85960020D02*
X241755342Y-85960020D01*
G75*
G02*
X241877016Y-85786252I147721J26047D01*
G01*
X253103824Y-83806662D01*
G75*
G02*
X253277592Y-83928336I26047J-147721D01*
G01*
X253277592Y-83928336D01*
G75*
G02*
X253155918Y-84102104I-147721J-26047D01*
G01*
X241929110Y-86081694D01*
G75*
G02*
X241755342Y-85960020I-26047J147721D01*
G01*
G37*
G36*
G01*
X246585766Y-91759330D02*
X246585766Y-91759330D01*
G75*
G02*
X246411998Y-91637656I-26047J147721D01*
G01*
X246273080Y-90849810D01*
G75*
G02*
X246394754Y-90676042I147721J26047D01*
G01*
X246394754Y-90676042D01*
G75*
G02*
X246568522Y-90797716I26047J-147721D01*
G01*
X246707440Y-91585562D01*
G75*
G02*
X246585766Y-91759330I-147721J-26047D01*
G01*
G37*
G36*
G01*
X254110983Y-89518547D02*
X254110983Y-89518547D01*
G75*
G02*
X253937215Y-89396873I-26047J147721D01*
G01*
X252982151Y-83980431D01*
G75*
G02*
X253103825Y-83806663I147721J26047D01*
G01*
X253103825Y-83806663D01*
G75*
G02*
X253277593Y-83928337I26047J-147721D01*
G01*
X254232657Y-89344779D01*
G75*
G02*
X254110983Y-89518547I-147721J-26047D01*
G01*
G37*
G36*
G01*
X250721958Y-91030008D02*
X250721958Y-91030008D01*
G75*
G02*
X250548190Y-90908334I-26047J147721D01*
G01*
X250409272Y-90120488D01*
G75*
G02*
X250530946Y-89946720I147721J26047D01*
G01*
X250530946Y-89946720D01*
G75*
G02*
X250704714Y-90068394I26047J-147721D01*
G01*
X250843632Y-90856240D01*
G75*
G02*
X250721958Y-91030008I-147721J-26047D01*
G01*
G37*
G36*
G01*
X242710407Y-91376463D02*
X242710407Y-91376463D01*
G75*
G02*
X242832081Y-91202695I147721J26047D01*
G01*
X254058889Y-89223105D01*
G75*
G02*
X254232657Y-89344779I26047J-147721D01*
G01*
X254232657Y-89344779D01*
G75*
G02*
X254110983Y-89518547I-147721J-26047D01*
G01*
X242884175Y-91498137D01*
G75*
G02*
X242710407Y-91376463I-26047J147721D01*
G01*
G37*
G36*
G01*
X246411998Y-91637656D02*
X246411998Y-91637656D01*
G75*
G02*
X246533672Y-91463888I147721J26047D01*
G01*
X250669864Y-90734566D01*
G75*
G02*
X250843632Y-90856240I26047J-147721D01*
G01*
X250843632Y-90856240D01*
G75*
G02*
X250721958Y-91030008I-147721J-26047D01*
G01*
X246585766Y-91759330D01*
G75*
G02*
X246411998Y-91637656I-26047J147721D01*
G01*
G37*
G36*
G01*
X242562806Y-90539376D02*
X241902942Y-86797106D01*
G75*
G02*
X242714102Y-85638650I984808J173648D01*
G01*
X242714102Y-85638650D01*
G75*
G02*
X243872558Y-86449810I173648J-984808D01*
G01*
X244532422Y-90192080D01*
G75*
G02*
X243721262Y-91350536I-984808J-173648D01*
G01*
X243721262Y-91350536D01*
G75*
G02*
X242562806Y-90539376I-173648J984808D01*
G01*
G37*
G36*
G01*
X246351221Y-91292973D02*
X246351221Y-91292973D01*
G75*
G02*
X246756801Y-90713745I492404J86824D01*
G01*
X250203629Y-90105977D01*
G75*
G02*
X250782857Y-90511557I86824J-492404D01*
G01*
X250782857Y-90511557D01*
G75*
G02*
X250377277Y-91090785I-492404J-86824D01*
G01*
X246930449Y-91698553D01*
G75*
G02*
X246351221Y-91292973I-86824J492404D01*
G01*
G37*
G36*
G01*
X252115441Y-88854989D02*
X251455577Y-85112719D01*
G75*
G02*
X252266737Y-83954263I984808J173648D01*
G01*
X252266737Y-83954263D01*
G75*
G02*
X253425193Y-84765423I173648J-984808D01*
G01*
X254085057Y-88507693D01*
G75*
G02*
X253273897Y-89666149I-984808J-173648D01*
G01*
X253273897Y-89666149D01*
G75*
G02*
X252115441Y-88854989I-173648J984808D01*
G01*
G37*
G36*
G01*
X242884174Y-91498136D02*
X242884174Y-91498136D01*
G75*
G02*
X242710406Y-91376462I-26047J147721D01*
G01*
X241755342Y-85960020D01*
G75*
G02*
X241877016Y-85786252I147721J26047D01*
G01*
X241877016Y-85786252D01*
G75*
G02*
X242050784Y-85907926I26047J-147721D01*
G01*
X243005848Y-91324368D01*
G75*
G02*
X242884174Y-91498136I-147721J-26047D01*
G01*
G37*
%TD*%
%TO.C,U21*%
X223702690Y-84066098D03*
X234141652Y-82225428D03*
X226122186Y-93641428D03*
X232654315Y-92794265D03*
G36*
G01*
X223985875Y-88839442D02*
X223985875Y-88839442D01*
G75*
G02*
X226338237Y-85479920I2855942J503580D01*
G01*
X232148603Y-84455396D01*
G75*
G02*
X235508125Y-86807758I503580J-2855942D01*
G01*
X235508125Y-86807758D01*
G75*
G02*
X233155763Y-90167280I-2855942J-503580D01*
G01*
X227345397Y-91191804D01*
G75*
G02*
X223985875Y-88839442I-503580J2855942D01*
G01*
G37*
G36*
G01*
X223508342Y-86131220D02*
X223508342Y-86131220D01*
G75*
G02*
X223630016Y-85957452I147721J26047D01*
G01*
X234856824Y-83977862D01*
G75*
G02*
X235030592Y-84099536I26047J-147721D01*
G01*
X235030592Y-84099536D01*
G75*
G02*
X234908918Y-84273304I-147721J-26047D01*
G01*
X223682110Y-86252894D01*
G75*
G02*
X223508342Y-86131220I-26047J147721D01*
G01*
G37*
G36*
G01*
X228338766Y-91930530D02*
X228338766Y-91930530D01*
G75*
G02*
X228164998Y-91808856I-26047J147721D01*
G01*
X228026080Y-91021010D01*
G75*
G02*
X228147754Y-90847242I147721J26047D01*
G01*
X228147754Y-90847242D01*
G75*
G02*
X228321522Y-90968916I26047J-147721D01*
G01*
X228460440Y-91756762D01*
G75*
G02*
X228338766Y-91930530I-147721J-26047D01*
G01*
G37*
G36*
G01*
X235863983Y-89689747D02*
X235863983Y-89689747D01*
G75*
G02*
X235690215Y-89568073I-26047J147721D01*
G01*
X234735151Y-84151631D01*
G75*
G02*
X234856825Y-83977863I147721J26047D01*
G01*
X234856825Y-83977863D01*
G75*
G02*
X235030593Y-84099537I26047J-147721D01*
G01*
X235985657Y-89515979D01*
G75*
G02*
X235863983Y-89689747I-147721J-26047D01*
G01*
G37*
G36*
G01*
X232474958Y-91201208D02*
X232474958Y-91201208D01*
G75*
G02*
X232301190Y-91079534I-26047J147721D01*
G01*
X232162272Y-90291688D01*
G75*
G02*
X232283946Y-90117920I147721J26047D01*
G01*
X232283946Y-90117920D01*
G75*
G02*
X232457714Y-90239594I26047J-147721D01*
G01*
X232596632Y-91027440D01*
G75*
G02*
X232474958Y-91201208I-147721J-26047D01*
G01*
G37*
G36*
G01*
X224463407Y-91547663D02*
X224463407Y-91547663D01*
G75*
G02*
X224585081Y-91373895I147721J26047D01*
G01*
X235811889Y-89394305D01*
G75*
G02*
X235985657Y-89515979I26047J-147721D01*
G01*
X235985657Y-89515979D01*
G75*
G02*
X235863983Y-89689747I-147721J-26047D01*
G01*
X224637175Y-91669337D01*
G75*
G02*
X224463407Y-91547663I-26047J147721D01*
G01*
G37*
G36*
G01*
X228164998Y-91808856D02*
X228164998Y-91808856D01*
G75*
G02*
X228286672Y-91635088I147721J26047D01*
G01*
X232422864Y-90905766D01*
G75*
G02*
X232596632Y-91027440I26047J-147721D01*
G01*
X232596632Y-91027440D01*
G75*
G02*
X232474958Y-91201208I-147721J-26047D01*
G01*
X228338766Y-91930530D01*
G75*
G02*
X228164998Y-91808856I-26047J147721D01*
G01*
G37*
G36*
G01*
X224315806Y-90710576D02*
X223655942Y-86968306D01*
G75*
G02*
X224467102Y-85809850I984808J173648D01*
G01*
X224467102Y-85809850D01*
G75*
G02*
X225625558Y-86621010I173648J-984808D01*
G01*
X226285422Y-90363280D01*
G75*
G02*
X225474262Y-91521736I-984808J-173648D01*
G01*
X225474262Y-91521736D01*
G75*
G02*
X224315806Y-90710576I-173648J984808D01*
G01*
G37*
G36*
G01*
X228104221Y-91464173D02*
X228104221Y-91464173D01*
G75*
G02*
X228509801Y-90884945I492404J86824D01*
G01*
X231956629Y-90277177D01*
G75*
G02*
X232535857Y-90682757I86824J-492404D01*
G01*
X232535857Y-90682757D01*
G75*
G02*
X232130277Y-91261985I-492404J-86824D01*
G01*
X228683449Y-91869753D01*
G75*
G02*
X228104221Y-91464173I-86824J492404D01*
G01*
G37*
G36*
G01*
X233868441Y-89026189D02*
X233208577Y-85283919D01*
G75*
G02*
X234019737Y-84125463I984808J173648D01*
G01*
X234019737Y-84125463D01*
G75*
G02*
X235178193Y-84936623I173648J-984808D01*
G01*
X235838057Y-88678893D01*
G75*
G02*
X235026897Y-89837349I-984808J-173648D01*
G01*
X235026897Y-89837349D01*
G75*
G02*
X233868441Y-89026189I-173648J984808D01*
G01*
G37*
G36*
G01*
X224637174Y-91669336D02*
X224637174Y-91669336D01*
G75*
G02*
X224463406Y-91547662I-26047J147721D01*
G01*
X223508342Y-86131220D01*
G75*
G02*
X223630016Y-85957452I147721J26047D01*
G01*
X223630016Y-85957452D01*
G75*
G02*
X223803784Y-86079126I26047J-147721D01*
G01*
X224758848Y-91495568D01*
G75*
G02*
X224637174Y-91669336I-147721J-26047D01*
G01*
G37*
%TD*%
%TO.C,U20*%
X205107690Y-82267798D03*
X215546652Y-80427128D03*
X207527186Y-91843128D03*
X214059315Y-90995965D03*
G36*
G01*
X205390875Y-87041142D02*
X205390875Y-87041142D01*
G75*
G02*
X207743237Y-83681620I2855942J503580D01*
G01*
X213553603Y-82657096D01*
G75*
G02*
X216913125Y-85009458I503580J-2855942D01*
G01*
X216913125Y-85009458D01*
G75*
G02*
X214560763Y-88368980I-2855942J-503580D01*
G01*
X208750397Y-89393504D01*
G75*
G02*
X205390875Y-87041142I-503580J2855942D01*
G01*
G37*
G36*
G01*
X204913342Y-84332920D02*
X204913342Y-84332920D01*
G75*
G02*
X205035016Y-84159152I147721J26047D01*
G01*
X216261824Y-82179562D01*
G75*
G02*
X216435592Y-82301236I26047J-147721D01*
G01*
X216435592Y-82301236D01*
G75*
G02*
X216313918Y-82475004I-147721J-26047D01*
G01*
X205087110Y-84454594D01*
G75*
G02*
X204913342Y-84332920I-26047J147721D01*
G01*
G37*
G36*
G01*
X209743766Y-90132230D02*
X209743766Y-90132230D01*
G75*
G02*
X209569998Y-90010556I-26047J147721D01*
G01*
X209431080Y-89222710D01*
G75*
G02*
X209552754Y-89048942I147721J26047D01*
G01*
X209552754Y-89048942D01*
G75*
G02*
X209726522Y-89170616I26047J-147721D01*
G01*
X209865440Y-89958462D01*
G75*
G02*
X209743766Y-90132230I-147721J-26047D01*
G01*
G37*
G36*
G01*
X217268983Y-87891447D02*
X217268983Y-87891447D01*
G75*
G02*
X217095215Y-87769773I-26047J147721D01*
G01*
X216140151Y-82353331D01*
G75*
G02*
X216261825Y-82179563I147721J26047D01*
G01*
X216261825Y-82179563D01*
G75*
G02*
X216435593Y-82301237I26047J-147721D01*
G01*
X217390657Y-87717679D01*
G75*
G02*
X217268983Y-87891447I-147721J-26047D01*
G01*
G37*
G36*
G01*
X213879958Y-89402908D02*
X213879958Y-89402908D01*
G75*
G02*
X213706190Y-89281234I-26047J147721D01*
G01*
X213567272Y-88493388D01*
G75*
G02*
X213688946Y-88319620I147721J26047D01*
G01*
X213688946Y-88319620D01*
G75*
G02*
X213862714Y-88441294I26047J-147721D01*
G01*
X214001632Y-89229140D01*
G75*
G02*
X213879958Y-89402908I-147721J-26047D01*
G01*
G37*
G36*
G01*
X205868407Y-89749363D02*
X205868407Y-89749363D01*
G75*
G02*
X205990081Y-89575595I147721J26047D01*
G01*
X217216889Y-87596005D01*
G75*
G02*
X217390657Y-87717679I26047J-147721D01*
G01*
X217390657Y-87717679D01*
G75*
G02*
X217268983Y-87891447I-147721J-26047D01*
G01*
X206042175Y-89871037D01*
G75*
G02*
X205868407Y-89749363I-26047J147721D01*
G01*
G37*
G36*
G01*
X209569998Y-90010556D02*
X209569998Y-90010556D01*
G75*
G02*
X209691672Y-89836788I147721J26047D01*
G01*
X213827864Y-89107466D01*
G75*
G02*
X214001632Y-89229140I26047J-147721D01*
G01*
X214001632Y-89229140D01*
G75*
G02*
X213879958Y-89402908I-147721J-26047D01*
G01*
X209743766Y-90132230D01*
G75*
G02*
X209569998Y-90010556I-26047J147721D01*
G01*
G37*
G36*
G01*
X205720806Y-88912276D02*
X205060942Y-85170006D01*
G75*
G02*
X205872102Y-84011550I984808J173648D01*
G01*
X205872102Y-84011550D01*
G75*
G02*
X207030558Y-84822710I173648J-984808D01*
G01*
X207690422Y-88564980D01*
G75*
G02*
X206879262Y-89723436I-984808J-173648D01*
G01*
X206879262Y-89723436D01*
G75*
G02*
X205720806Y-88912276I-173648J984808D01*
G01*
G37*
G36*
G01*
X209509221Y-89665873D02*
X209509221Y-89665873D01*
G75*
G02*
X209914801Y-89086645I492404J86824D01*
G01*
X213361629Y-88478877D01*
G75*
G02*
X213940857Y-88884457I86824J-492404D01*
G01*
X213940857Y-88884457D01*
G75*
G02*
X213535277Y-89463685I-492404J-86824D01*
G01*
X210088449Y-90071453D01*
G75*
G02*
X209509221Y-89665873I-86824J492404D01*
G01*
G37*
G36*
G01*
X215273441Y-87227889D02*
X214613577Y-83485619D01*
G75*
G02*
X215424737Y-82327163I984808J173648D01*
G01*
X215424737Y-82327163D01*
G75*
G02*
X216583193Y-83138323I173648J-984808D01*
G01*
X217243057Y-86880593D01*
G75*
G02*
X216431897Y-88039049I-984808J-173648D01*
G01*
X216431897Y-88039049D01*
G75*
G02*
X215273441Y-87227889I-173648J984808D01*
G01*
G37*
G36*
G01*
X206042174Y-89871036D02*
X206042174Y-89871036D01*
G75*
G02*
X205868406Y-89749362I-26047J147721D01*
G01*
X204913342Y-84332920D01*
G75*
G02*
X205035016Y-84159152I147721J26047D01*
G01*
X205035016Y-84159152D01*
G75*
G02*
X205208784Y-84280826I26047J-147721D01*
G01*
X206163848Y-89697268D01*
G75*
G02*
X206042174Y-89871036I-147721J-26047D01*
G01*
G37*
%TD*%
%TO.C,U19*%
X188422690Y-91302298D03*
X198861652Y-89461628D03*
X190842186Y-100877628D03*
X197374315Y-100030465D03*
G36*
G01*
X188705875Y-96075642D02*
X188705875Y-96075642D01*
G75*
G02*
X191058237Y-92716120I2855942J503580D01*
G01*
X196868603Y-91691596D01*
G75*
G02*
X200228125Y-94043958I503580J-2855942D01*
G01*
X200228125Y-94043958D01*
G75*
G02*
X197875763Y-97403480I-2855942J-503580D01*
G01*
X192065397Y-98428004D01*
G75*
G02*
X188705875Y-96075642I-503580J2855942D01*
G01*
G37*
G36*
G01*
X188228342Y-93367420D02*
X188228342Y-93367420D01*
G75*
G02*
X188350016Y-93193652I147721J26047D01*
G01*
X199576824Y-91214062D01*
G75*
G02*
X199750592Y-91335736I26047J-147721D01*
G01*
X199750592Y-91335736D01*
G75*
G02*
X199628918Y-91509504I-147721J-26047D01*
G01*
X188402110Y-93489094D01*
G75*
G02*
X188228342Y-93367420I-26047J147721D01*
G01*
G37*
G36*
G01*
X193058766Y-99166730D02*
X193058766Y-99166730D01*
G75*
G02*
X192884998Y-99045056I-26047J147721D01*
G01*
X192746080Y-98257210D01*
G75*
G02*
X192867754Y-98083442I147721J26047D01*
G01*
X192867754Y-98083442D01*
G75*
G02*
X193041522Y-98205116I26047J-147721D01*
G01*
X193180440Y-98992962D01*
G75*
G02*
X193058766Y-99166730I-147721J-26047D01*
G01*
G37*
G36*
G01*
X200583983Y-96925947D02*
X200583983Y-96925947D01*
G75*
G02*
X200410215Y-96804273I-26047J147721D01*
G01*
X199455151Y-91387831D01*
G75*
G02*
X199576825Y-91214063I147721J26047D01*
G01*
X199576825Y-91214063D01*
G75*
G02*
X199750593Y-91335737I26047J-147721D01*
G01*
X200705657Y-96752179D01*
G75*
G02*
X200583983Y-96925947I-147721J-26047D01*
G01*
G37*
G36*
G01*
X197194958Y-98437408D02*
X197194958Y-98437408D01*
G75*
G02*
X197021190Y-98315734I-26047J147721D01*
G01*
X196882272Y-97527888D01*
G75*
G02*
X197003946Y-97354120I147721J26047D01*
G01*
X197003946Y-97354120D01*
G75*
G02*
X197177714Y-97475794I26047J-147721D01*
G01*
X197316632Y-98263640D01*
G75*
G02*
X197194958Y-98437408I-147721J-26047D01*
G01*
G37*
G36*
G01*
X189183407Y-98783863D02*
X189183407Y-98783863D01*
G75*
G02*
X189305081Y-98610095I147721J26047D01*
G01*
X200531889Y-96630505D01*
G75*
G02*
X200705657Y-96752179I26047J-147721D01*
G01*
X200705657Y-96752179D01*
G75*
G02*
X200583983Y-96925947I-147721J-26047D01*
G01*
X189357175Y-98905537D01*
G75*
G02*
X189183407Y-98783863I-26047J147721D01*
G01*
G37*
G36*
G01*
X192884998Y-99045056D02*
X192884998Y-99045056D01*
G75*
G02*
X193006672Y-98871288I147721J26047D01*
G01*
X197142864Y-98141966D01*
G75*
G02*
X197316632Y-98263640I26047J-147721D01*
G01*
X197316632Y-98263640D01*
G75*
G02*
X197194958Y-98437408I-147721J-26047D01*
G01*
X193058766Y-99166730D01*
G75*
G02*
X192884998Y-99045056I-26047J147721D01*
G01*
G37*
G36*
G01*
X189035806Y-97946776D02*
X188375942Y-94204506D01*
G75*
G02*
X189187102Y-93046050I984808J173648D01*
G01*
X189187102Y-93046050D01*
G75*
G02*
X190345558Y-93857210I173648J-984808D01*
G01*
X191005422Y-97599480D01*
G75*
G02*
X190194262Y-98757936I-984808J-173648D01*
G01*
X190194262Y-98757936D01*
G75*
G02*
X189035806Y-97946776I-173648J984808D01*
G01*
G37*
G36*
G01*
X192824221Y-98700373D02*
X192824221Y-98700373D01*
G75*
G02*
X193229801Y-98121145I492404J86824D01*
G01*
X196676629Y-97513377D01*
G75*
G02*
X197255857Y-97918957I86824J-492404D01*
G01*
X197255857Y-97918957D01*
G75*
G02*
X196850277Y-98498185I-492404J-86824D01*
G01*
X193403449Y-99105953D01*
G75*
G02*
X192824221Y-98700373I-86824J492404D01*
G01*
G37*
G36*
G01*
X198588441Y-96262389D02*
X197928577Y-92520119D01*
G75*
G02*
X198739737Y-91361663I984808J173648D01*
G01*
X198739737Y-91361663D01*
G75*
G02*
X199898193Y-92172823I173648J-984808D01*
G01*
X200558057Y-95915093D01*
G75*
G02*
X199746897Y-97073549I-984808J-173648D01*
G01*
X199746897Y-97073549D01*
G75*
G02*
X198588441Y-96262389I-173648J984808D01*
G01*
G37*
G36*
G01*
X189357174Y-98905536D02*
X189357174Y-98905536D01*
G75*
G02*
X189183406Y-98783862I-26047J147721D01*
G01*
X188228342Y-93367420D01*
G75*
G02*
X188350016Y-93193652I147721J26047D01*
G01*
X188350016Y-93193652D01*
G75*
G02*
X188523784Y-93315326I26047J-147721D01*
G01*
X189478848Y-98731768D01*
G75*
G02*
X189357174Y-98905536I-147721J-26047D01*
G01*
G37*
%TD*%
%TO.C,U18*%
X171390690Y-98367498D03*
X181829652Y-96526828D03*
X173810186Y-107942828D03*
X180342315Y-107095665D03*
G36*
G01*
X171673875Y-103140842D02*
X171673875Y-103140842D01*
G75*
G02*
X174026237Y-99781320I2855942J503580D01*
G01*
X179836603Y-98756796D01*
G75*
G02*
X183196125Y-101109158I503580J-2855942D01*
G01*
X183196125Y-101109158D01*
G75*
G02*
X180843763Y-104468680I-2855942J-503580D01*
G01*
X175033397Y-105493204D01*
G75*
G02*
X171673875Y-103140842I-503580J2855942D01*
G01*
G37*
G36*
G01*
X171196342Y-100432620D02*
X171196342Y-100432620D01*
G75*
G02*
X171318016Y-100258852I147721J26047D01*
G01*
X182544824Y-98279262D01*
G75*
G02*
X182718592Y-98400936I26047J-147721D01*
G01*
X182718592Y-98400936D01*
G75*
G02*
X182596918Y-98574704I-147721J-26047D01*
G01*
X171370110Y-100554294D01*
G75*
G02*
X171196342Y-100432620I-26047J147721D01*
G01*
G37*
G36*
G01*
X176026766Y-106231930D02*
X176026766Y-106231930D01*
G75*
G02*
X175852998Y-106110256I-26047J147721D01*
G01*
X175714080Y-105322410D01*
G75*
G02*
X175835754Y-105148642I147721J26047D01*
G01*
X175835754Y-105148642D01*
G75*
G02*
X176009522Y-105270316I26047J-147721D01*
G01*
X176148440Y-106058162D01*
G75*
G02*
X176026766Y-106231930I-147721J-26047D01*
G01*
G37*
G36*
G01*
X183551983Y-103991147D02*
X183551983Y-103991147D01*
G75*
G02*
X183378215Y-103869473I-26047J147721D01*
G01*
X182423151Y-98453031D01*
G75*
G02*
X182544825Y-98279263I147721J26047D01*
G01*
X182544825Y-98279263D01*
G75*
G02*
X182718593Y-98400937I26047J-147721D01*
G01*
X183673657Y-103817379D01*
G75*
G02*
X183551983Y-103991147I-147721J-26047D01*
G01*
G37*
G36*
G01*
X180162958Y-105502608D02*
X180162958Y-105502608D01*
G75*
G02*
X179989190Y-105380934I-26047J147721D01*
G01*
X179850272Y-104593088D01*
G75*
G02*
X179971946Y-104419320I147721J26047D01*
G01*
X179971946Y-104419320D01*
G75*
G02*
X180145714Y-104540994I26047J-147721D01*
G01*
X180284632Y-105328840D01*
G75*
G02*
X180162958Y-105502608I-147721J-26047D01*
G01*
G37*
G36*
G01*
X172151407Y-105849063D02*
X172151407Y-105849063D01*
G75*
G02*
X172273081Y-105675295I147721J26047D01*
G01*
X183499889Y-103695705D01*
G75*
G02*
X183673657Y-103817379I26047J-147721D01*
G01*
X183673657Y-103817379D01*
G75*
G02*
X183551983Y-103991147I-147721J-26047D01*
G01*
X172325175Y-105970737D01*
G75*
G02*
X172151407Y-105849063I-26047J147721D01*
G01*
G37*
G36*
G01*
X175852998Y-106110256D02*
X175852998Y-106110256D01*
G75*
G02*
X175974672Y-105936488I147721J26047D01*
G01*
X180110864Y-105207166D01*
G75*
G02*
X180284632Y-105328840I26047J-147721D01*
G01*
X180284632Y-105328840D01*
G75*
G02*
X180162958Y-105502608I-147721J-26047D01*
G01*
X176026766Y-106231930D01*
G75*
G02*
X175852998Y-106110256I-26047J147721D01*
G01*
G37*
G36*
G01*
X172003806Y-105011976D02*
X171343942Y-101269706D01*
G75*
G02*
X172155102Y-100111250I984808J173648D01*
G01*
X172155102Y-100111250D01*
G75*
G02*
X173313558Y-100922410I173648J-984808D01*
G01*
X173973422Y-104664680D01*
G75*
G02*
X173162262Y-105823136I-984808J-173648D01*
G01*
X173162262Y-105823136D01*
G75*
G02*
X172003806Y-105011976I-173648J984808D01*
G01*
G37*
G36*
G01*
X175792221Y-105765573D02*
X175792221Y-105765573D01*
G75*
G02*
X176197801Y-105186345I492404J86824D01*
G01*
X179644629Y-104578577D01*
G75*
G02*
X180223857Y-104984157I86824J-492404D01*
G01*
X180223857Y-104984157D01*
G75*
G02*
X179818277Y-105563385I-492404J-86824D01*
G01*
X176371449Y-106171153D01*
G75*
G02*
X175792221Y-105765573I-86824J492404D01*
G01*
G37*
G36*
G01*
X181556441Y-103327589D02*
X180896577Y-99585319D01*
G75*
G02*
X181707737Y-98426863I984808J173648D01*
G01*
X181707737Y-98426863D01*
G75*
G02*
X182866193Y-99238023I173648J-984808D01*
G01*
X183526057Y-102980293D01*
G75*
G02*
X182714897Y-104138749I-984808J-173648D01*
G01*
X182714897Y-104138749D01*
G75*
G02*
X181556441Y-103327589I-173648J984808D01*
G01*
G37*
G36*
G01*
X172325174Y-105970736D02*
X172325174Y-105970736D01*
G75*
G02*
X172151406Y-105849062I-26047J147721D01*
G01*
X171196342Y-100432620D01*
G75*
G02*
X171318016Y-100258852I147721J26047D01*
G01*
X171318016Y-100258852D01*
G75*
G02*
X171491784Y-100380526I26047J-147721D01*
G01*
X172446848Y-105796968D01*
G75*
G02*
X172325174Y-105970736I-147721J-26047D01*
G01*
G37*
%TD*%
%TO.C,U17*%
X130340348Y-131165828D03*
X140779310Y-133006498D03*
X129338975Y-140991211D03*
X135766916Y-142429258D03*
G36*
G01*
X128973875Y-135748158D02*
X128973875Y-135748158D01*
G75*
G02*
X132333397Y-133395796I2855942J-503580D01*
G01*
X138143763Y-134420320D01*
G75*
G02*
X140496125Y-137779842I-503580J-2855942D01*
G01*
X140496125Y-137779842D01*
G75*
G02*
X137136603Y-140132204I-2855942J503580D01*
G01*
X131326237Y-139107680D01*
G75*
G02*
X128973875Y-135748158I503580J2855942D01*
G01*
G37*
G36*
G01*
X129451408Y-133039936D02*
X129451408Y-133039936D01*
G75*
G02*
X129625176Y-132918262I147721J-26047D01*
G01*
X140851984Y-134897852D01*
G75*
G02*
X140973658Y-135071620I-26047J-147721D01*
G01*
X140973658Y-135071620D01*
G75*
G02*
X140799890Y-135193294I-147721J26047D01*
G01*
X129573082Y-133213704D01*
G75*
G02*
X129451408Y-133039936I26047J147721D01*
G01*
G37*
G36*
G01*
X132007042Y-140141608D02*
X132007042Y-140141608D01*
G75*
G02*
X131885368Y-139967840I26047J147721D01*
G01*
X132024286Y-139179994D01*
G75*
G02*
X132198054Y-139058320I147721J-26047D01*
G01*
X132198054Y-139058320D01*
G75*
G02*
X132319728Y-139232088I-26047J-147721D01*
G01*
X132180810Y-140019934D01*
G75*
G02*
X132007042Y-140141608I-147721J26047D01*
G01*
G37*
G36*
G01*
X139844826Y-140609736D02*
X139844826Y-140609736D01*
G75*
G02*
X139723152Y-140435968I26047J147721D01*
G01*
X140678216Y-135019526D01*
G75*
G02*
X140851984Y-134897852I147721J-26047D01*
G01*
X140851984Y-134897852D01*
G75*
G02*
X140973658Y-135071620I-26047J-147721D01*
G01*
X140018594Y-140488062D01*
G75*
G02*
X139844826Y-140609736I-147721J26047D01*
G01*
G37*
G36*
G01*
X136143234Y-140870930D02*
X136143234Y-140870930D01*
G75*
G02*
X136021560Y-140697162I26047J147721D01*
G01*
X136160478Y-139909316D01*
G75*
G02*
X136334246Y-139787642I147721J-26047D01*
G01*
X136334246Y-139787642D01*
G75*
G02*
X136455920Y-139961410I-26047J-147721D01*
G01*
X136317002Y-140749256D01*
G75*
G02*
X136143234Y-140870930I-147721J26047D01*
G01*
G37*
G36*
G01*
X128496343Y-138456379D02*
X128496343Y-138456379D01*
G75*
G02*
X128670111Y-138334705I147721J-26047D01*
G01*
X139896919Y-140314295D01*
G75*
G02*
X140018593Y-140488063I-26047J-147721D01*
G01*
X140018593Y-140488063D01*
G75*
G02*
X139844825Y-140609737I-147721J26047D01*
G01*
X128618017Y-138630147D01*
G75*
G02*
X128496343Y-138456379I26047J147721D01*
G01*
G37*
G36*
G01*
X131885368Y-139967840D02*
X131885368Y-139967840D01*
G75*
G02*
X132059136Y-139846166I147721J-26047D01*
G01*
X136195328Y-140575488D01*
G75*
G02*
X136317002Y-140749256I-26047J-147721D01*
G01*
X136317002Y-140749256D01*
G75*
G02*
X136143234Y-140870930I-147721J26047D01*
G01*
X132007042Y-140141608D01*
G75*
G02*
X131885368Y-139967840I26047J147721D01*
G01*
G37*
G36*
G01*
X128643943Y-137619293D02*
X129303807Y-133877023D01*
G75*
G02*
X130462263Y-133065863I984808J-173648D01*
G01*
X130462263Y-133065863D01*
G75*
G02*
X131273423Y-134224319I-173648J-984808D01*
G01*
X130613559Y-137966589D01*
G75*
G02*
X129455103Y-138777749I-984808J173648D01*
G01*
X129455103Y-138777749D01*
G75*
G02*
X128643943Y-137619293I173648J984808D01*
G01*
G37*
G36*
G01*
X131946143Y-139623157D02*
X131946143Y-139623157D01*
G75*
G02*
X132525371Y-139217577I492404J-86824D01*
G01*
X135972199Y-139825345D01*
G75*
G02*
X136377779Y-140404573I-86824J-492404D01*
G01*
X136377779Y-140404573D01*
G75*
G02*
X135798551Y-140810153I-492404J86824D01*
G01*
X132351723Y-140202385D01*
G75*
G02*
X131946143Y-139623157I86824J492404D01*
G01*
G37*
G36*
G01*
X138196578Y-139303680D02*
X138856442Y-135561410D01*
G75*
G02*
X140014898Y-134750250I984808J-173648D01*
G01*
X140014898Y-134750250D01*
G75*
G02*
X140826058Y-135908706I-173648J-984808D01*
G01*
X140166194Y-139650976D01*
G75*
G02*
X139007738Y-140462136I-984808J173648D01*
G01*
X139007738Y-140462136D01*
G75*
G02*
X138196578Y-139303680I173648J984808D01*
G01*
G37*
G36*
G01*
X128618017Y-138630147D02*
X128618017Y-138630147D01*
G75*
G02*
X128496343Y-138456379I26047J147721D01*
G01*
X129451407Y-133039937D01*
G75*
G02*
X129625175Y-132918263I147721J-26047D01*
G01*
X129625175Y-132918263D01*
G75*
G02*
X129746849Y-133092031I-26047J-147721D01*
G01*
X128791785Y-138508473D01*
G75*
G02*
X128618017Y-138630147I-147721J26047D01*
G01*
G37*
%TD*%
%TO.C,U16*%
X118170348Y-96526828D03*
X128609310Y-98367498D03*
X117168975Y-106352211D03*
X123596916Y-107790258D03*
G36*
G01*
X116803875Y-101109158D02*
X116803875Y-101109158D01*
G75*
G02*
X120163397Y-98756796I2855942J-503580D01*
G01*
X125973763Y-99781320D01*
G75*
G02*
X128326125Y-103140842I-503580J-2855942D01*
G01*
X128326125Y-103140842D01*
G75*
G02*
X124966603Y-105493204I-2855942J503580D01*
G01*
X119156237Y-104468680D01*
G75*
G02*
X116803875Y-101109158I503580J2855942D01*
G01*
G37*
G36*
G01*
X117281408Y-98400936D02*
X117281408Y-98400936D01*
G75*
G02*
X117455176Y-98279262I147721J-26047D01*
G01*
X128681984Y-100258852D01*
G75*
G02*
X128803658Y-100432620I-26047J-147721D01*
G01*
X128803658Y-100432620D01*
G75*
G02*
X128629890Y-100554294I-147721J26047D01*
G01*
X117403082Y-98574704D01*
G75*
G02*
X117281408Y-98400936I26047J147721D01*
G01*
G37*
G36*
G01*
X119837042Y-105502608D02*
X119837042Y-105502608D01*
G75*
G02*
X119715368Y-105328840I26047J147721D01*
G01*
X119854286Y-104540994D01*
G75*
G02*
X120028054Y-104419320I147721J-26047D01*
G01*
X120028054Y-104419320D01*
G75*
G02*
X120149728Y-104593088I-26047J-147721D01*
G01*
X120010810Y-105380934D01*
G75*
G02*
X119837042Y-105502608I-147721J26047D01*
G01*
G37*
G36*
G01*
X127674826Y-105970736D02*
X127674826Y-105970736D01*
G75*
G02*
X127553152Y-105796968I26047J147721D01*
G01*
X128508216Y-100380526D01*
G75*
G02*
X128681984Y-100258852I147721J-26047D01*
G01*
X128681984Y-100258852D01*
G75*
G02*
X128803658Y-100432620I-26047J-147721D01*
G01*
X127848594Y-105849062D01*
G75*
G02*
X127674826Y-105970736I-147721J26047D01*
G01*
G37*
G36*
G01*
X123973234Y-106231930D02*
X123973234Y-106231930D01*
G75*
G02*
X123851560Y-106058162I26047J147721D01*
G01*
X123990478Y-105270316D01*
G75*
G02*
X124164246Y-105148642I147721J-26047D01*
G01*
X124164246Y-105148642D01*
G75*
G02*
X124285920Y-105322410I-26047J-147721D01*
G01*
X124147002Y-106110256D01*
G75*
G02*
X123973234Y-106231930I-147721J26047D01*
G01*
G37*
G36*
G01*
X116326343Y-103817379D02*
X116326343Y-103817379D01*
G75*
G02*
X116500111Y-103695705I147721J-26047D01*
G01*
X127726919Y-105675295D01*
G75*
G02*
X127848593Y-105849063I-26047J-147721D01*
G01*
X127848593Y-105849063D01*
G75*
G02*
X127674825Y-105970737I-147721J26047D01*
G01*
X116448017Y-103991147D01*
G75*
G02*
X116326343Y-103817379I26047J147721D01*
G01*
G37*
G36*
G01*
X119715368Y-105328840D02*
X119715368Y-105328840D01*
G75*
G02*
X119889136Y-105207166I147721J-26047D01*
G01*
X124025328Y-105936488D01*
G75*
G02*
X124147002Y-106110256I-26047J-147721D01*
G01*
X124147002Y-106110256D01*
G75*
G02*
X123973234Y-106231930I-147721J26047D01*
G01*
X119837042Y-105502608D01*
G75*
G02*
X119715368Y-105328840I26047J147721D01*
G01*
G37*
G36*
G01*
X116473943Y-102980293D02*
X117133807Y-99238023D01*
G75*
G02*
X118292263Y-98426863I984808J-173648D01*
G01*
X118292263Y-98426863D01*
G75*
G02*
X119103423Y-99585319I-173648J-984808D01*
G01*
X118443559Y-103327589D01*
G75*
G02*
X117285103Y-104138749I-984808J173648D01*
G01*
X117285103Y-104138749D01*
G75*
G02*
X116473943Y-102980293I173648J984808D01*
G01*
G37*
G36*
G01*
X119776143Y-104984157D02*
X119776143Y-104984157D01*
G75*
G02*
X120355371Y-104578577I492404J-86824D01*
G01*
X123802199Y-105186345D01*
G75*
G02*
X124207779Y-105765573I-86824J-492404D01*
G01*
X124207779Y-105765573D01*
G75*
G02*
X123628551Y-106171153I-492404J86824D01*
G01*
X120181723Y-105563385D01*
G75*
G02*
X119776143Y-104984157I86824J492404D01*
G01*
G37*
G36*
G01*
X126026578Y-104664680D02*
X126686442Y-100922410D01*
G75*
G02*
X127844898Y-100111250I984808J-173648D01*
G01*
X127844898Y-100111250D01*
G75*
G02*
X128656058Y-101269706I-173648J-984808D01*
G01*
X127996194Y-105011976D01*
G75*
G02*
X126837738Y-105823136I-984808J173648D01*
G01*
X126837738Y-105823136D01*
G75*
G02*
X126026578Y-104664680I173648J984808D01*
G01*
G37*
G36*
G01*
X116448017Y-103991147D02*
X116448017Y-103991147D01*
G75*
G02*
X116326343Y-103817379I26047J147721D01*
G01*
X117281407Y-98400937D01*
G75*
G02*
X117455175Y-98279263I147721J-26047D01*
G01*
X117455175Y-98279263D01*
G75*
G02*
X117576849Y-98453031I-26047J-147721D01*
G01*
X116621785Y-103869473D01*
G75*
G02*
X116448017Y-103991147I-147721J26047D01*
G01*
G37*
%TD*%
%TO.C,U15*%
X101138348Y-89461628D03*
X111577310Y-91302298D03*
X100136975Y-99287011D03*
X106564916Y-100725058D03*
G36*
G01*
X99771875Y-94043958D02*
X99771875Y-94043958D01*
G75*
G02*
X103131397Y-91691596I2855942J-503580D01*
G01*
X108941763Y-92716120D01*
G75*
G02*
X111294125Y-96075642I-503580J-2855942D01*
G01*
X111294125Y-96075642D01*
G75*
G02*
X107934603Y-98428004I-2855942J503580D01*
G01*
X102124237Y-97403480D01*
G75*
G02*
X99771875Y-94043958I503580J2855942D01*
G01*
G37*
G36*
G01*
X100249408Y-91335736D02*
X100249408Y-91335736D01*
G75*
G02*
X100423176Y-91214062I147721J-26047D01*
G01*
X111649984Y-93193652D01*
G75*
G02*
X111771658Y-93367420I-26047J-147721D01*
G01*
X111771658Y-93367420D01*
G75*
G02*
X111597890Y-93489094I-147721J26047D01*
G01*
X100371082Y-91509504D01*
G75*
G02*
X100249408Y-91335736I26047J147721D01*
G01*
G37*
G36*
G01*
X102805042Y-98437408D02*
X102805042Y-98437408D01*
G75*
G02*
X102683368Y-98263640I26047J147721D01*
G01*
X102822286Y-97475794D01*
G75*
G02*
X102996054Y-97354120I147721J-26047D01*
G01*
X102996054Y-97354120D01*
G75*
G02*
X103117728Y-97527888I-26047J-147721D01*
G01*
X102978810Y-98315734D01*
G75*
G02*
X102805042Y-98437408I-147721J26047D01*
G01*
G37*
G36*
G01*
X110642826Y-98905536D02*
X110642826Y-98905536D01*
G75*
G02*
X110521152Y-98731768I26047J147721D01*
G01*
X111476216Y-93315326D01*
G75*
G02*
X111649984Y-93193652I147721J-26047D01*
G01*
X111649984Y-93193652D01*
G75*
G02*
X111771658Y-93367420I-26047J-147721D01*
G01*
X110816594Y-98783862D01*
G75*
G02*
X110642826Y-98905536I-147721J26047D01*
G01*
G37*
G36*
G01*
X106941234Y-99166730D02*
X106941234Y-99166730D01*
G75*
G02*
X106819560Y-98992962I26047J147721D01*
G01*
X106958478Y-98205116D01*
G75*
G02*
X107132246Y-98083442I147721J-26047D01*
G01*
X107132246Y-98083442D01*
G75*
G02*
X107253920Y-98257210I-26047J-147721D01*
G01*
X107115002Y-99045056D01*
G75*
G02*
X106941234Y-99166730I-147721J26047D01*
G01*
G37*
G36*
G01*
X99294343Y-96752179D02*
X99294343Y-96752179D01*
G75*
G02*
X99468111Y-96630505I147721J-26047D01*
G01*
X110694919Y-98610095D01*
G75*
G02*
X110816593Y-98783863I-26047J-147721D01*
G01*
X110816593Y-98783863D01*
G75*
G02*
X110642825Y-98905537I-147721J26047D01*
G01*
X99416017Y-96925947D01*
G75*
G02*
X99294343Y-96752179I26047J147721D01*
G01*
G37*
G36*
G01*
X102683368Y-98263640D02*
X102683368Y-98263640D01*
G75*
G02*
X102857136Y-98141966I147721J-26047D01*
G01*
X106993328Y-98871288D01*
G75*
G02*
X107115002Y-99045056I-26047J-147721D01*
G01*
X107115002Y-99045056D01*
G75*
G02*
X106941234Y-99166730I-147721J26047D01*
G01*
X102805042Y-98437408D01*
G75*
G02*
X102683368Y-98263640I26047J147721D01*
G01*
G37*
G36*
G01*
X99441943Y-95915093D02*
X100101807Y-92172823D01*
G75*
G02*
X101260263Y-91361663I984808J-173648D01*
G01*
X101260263Y-91361663D01*
G75*
G02*
X102071423Y-92520119I-173648J-984808D01*
G01*
X101411559Y-96262389D01*
G75*
G02*
X100253103Y-97073549I-984808J173648D01*
G01*
X100253103Y-97073549D01*
G75*
G02*
X99441943Y-95915093I173648J984808D01*
G01*
G37*
G36*
G01*
X102744143Y-97918957D02*
X102744143Y-97918957D01*
G75*
G02*
X103323371Y-97513377I492404J-86824D01*
G01*
X106770199Y-98121145D01*
G75*
G02*
X107175779Y-98700373I-86824J-492404D01*
G01*
X107175779Y-98700373D01*
G75*
G02*
X106596551Y-99105953I-492404J86824D01*
G01*
X103149723Y-98498185D01*
G75*
G02*
X102744143Y-97918957I86824J492404D01*
G01*
G37*
G36*
G01*
X108994578Y-97599480D02*
X109654442Y-93857210D01*
G75*
G02*
X110812898Y-93046050I984808J-173648D01*
G01*
X110812898Y-93046050D01*
G75*
G02*
X111624058Y-94204506I-173648J-984808D01*
G01*
X110964194Y-97946776D01*
G75*
G02*
X109805738Y-98757936I-984808J173648D01*
G01*
X109805738Y-98757936D01*
G75*
G02*
X108994578Y-97599480I173648J984808D01*
G01*
G37*
G36*
G01*
X99416017Y-96925947D02*
X99416017Y-96925947D01*
G75*
G02*
X99294343Y-96752179I26047J147721D01*
G01*
X100249407Y-91335737D01*
G75*
G02*
X100423175Y-91214063I147721J-26047D01*
G01*
X100423175Y-91214063D01*
G75*
G02*
X100544849Y-91387831I-26047J-147721D01*
G01*
X99589785Y-96804273D01*
G75*
G02*
X99416017Y-96925947I-147721J26047D01*
G01*
G37*
%TD*%
%TO.C,U14*%
X84474391Y-80448318D03*
X94913353Y-82288988D03*
X83473018Y-90273701D03*
X89900959Y-91711748D03*
G36*
G01*
X83107918Y-85030648D02*
X83107918Y-85030648D01*
G75*
G02*
X86467440Y-82678286I2855942J-503580D01*
G01*
X92277806Y-83702810D01*
G75*
G02*
X94630168Y-87062332I-503580J-2855942D01*
G01*
X94630168Y-87062332D01*
G75*
G02*
X91270646Y-89414694I-2855942J503580D01*
G01*
X85460280Y-88390170D01*
G75*
G02*
X83107918Y-85030648I503580J2855942D01*
G01*
G37*
G36*
G01*
X83585451Y-82322426D02*
X83585451Y-82322426D01*
G75*
G02*
X83759219Y-82200752I147721J-26047D01*
G01*
X94986027Y-84180342D01*
G75*
G02*
X95107701Y-84354110I-26047J-147721D01*
G01*
X95107701Y-84354110D01*
G75*
G02*
X94933933Y-84475784I-147721J26047D01*
G01*
X83707125Y-82496194D01*
G75*
G02*
X83585451Y-82322426I26047J147721D01*
G01*
G37*
G36*
G01*
X86141085Y-89424098D02*
X86141085Y-89424098D01*
G75*
G02*
X86019411Y-89250330I26047J147721D01*
G01*
X86158329Y-88462484D01*
G75*
G02*
X86332097Y-88340810I147721J-26047D01*
G01*
X86332097Y-88340810D01*
G75*
G02*
X86453771Y-88514578I-26047J-147721D01*
G01*
X86314853Y-89302424D01*
G75*
G02*
X86141085Y-89424098I-147721J26047D01*
G01*
G37*
G36*
G01*
X93978869Y-89892226D02*
X93978869Y-89892226D01*
G75*
G02*
X93857195Y-89718458I26047J147721D01*
G01*
X94812259Y-84302016D01*
G75*
G02*
X94986027Y-84180342I147721J-26047D01*
G01*
X94986027Y-84180342D01*
G75*
G02*
X95107701Y-84354110I-26047J-147721D01*
G01*
X94152637Y-89770552D01*
G75*
G02*
X93978869Y-89892226I-147721J26047D01*
G01*
G37*
G36*
G01*
X90277277Y-90153420D02*
X90277277Y-90153420D01*
G75*
G02*
X90155603Y-89979652I26047J147721D01*
G01*
X90294521Y-89191806D01*
G75*
G02*
X90468289Y-89070132I147721J-26047D01*
G01*
X90468289Y-89070132D01*
G75*
G02*
X90589963Y-89243900I-26047J-147721D01*
G01*
X90451045Y-90031746D01*
G75*
G02*
X90277277Y-90153420I-147721J26047D01*
G01*
G37*
G36*
G01*
X82630386Y-87738869D02*
X82630386Y-87738869D01*
G75*
G02*
X82804154Y-87617195I147721J-26047D01*
G01*
X94030962Y-89596785D01*
G75*
G02*
X94152636Y-89770553I-26047J-147721D01*
G01*
X94152636Y-89770553D01*
G75*
G02*
X93978868Y-89892227I-147721J26047D01*
G01*
X82752060Y-87912637D01*
G75*
G02*
X82630386Y-87738869I26047J147721D01*
G01*
G37*
G36*
G01*
X86019411Y-89250330D02*
X86019411Y-89250330D01*
G75*
G02*
X86193179Y-89128656I147721J-26047D01*
G01*
X90329371Y-89857978D01*
G75*
G02*
X90451045Y-90031746I-26047J-147721D01*
G01*
X90451045Y-90031746D01*
G75*
G02*
X90277277Y-90153420I-147721J26047D01*
G01*
X86141085Y-89424098D01*
G75*
G02*
X86019411Y-89250330I26047J147721D01*
G01*
G37*
G36*
G01*
X82777986Y-86901783D02*
X83437850Y-83159513D01*
G75*
G02*
X84596306Y-82348353I984808J-173648D01*
G01*
X84596306Y-82348353D01*
G75*
G02*
X85407466Y-83506809I-173648J-984808D01*
G01*
X84747602Y-87249079D01*
G75*
G02*
X83589146Y-88060239I-984808J173648D01*
G01*
X83589146Y-88060239D01*
G75*
G02*
X82777986Y-86901783I173648J984808D01*
G01*
G37*
G36*
G01*
X86080186Y-88905647D02*
X86080186Y-88905647D01*
G75*
G02*
X86659414Y-88500067I492404J-86824D01*
G01*
X90106242Y-89107835D01*
G75*
G02*
X90511822Y-89687063I-86824J-492404D01*
G01*
X90511822Y-89687063D01*
G75*
G02*
X89932594Y-90092643I-492404J86824D01*
G01*
X86485766Y-89484875D01*
G75*
G02*
X86080186Y-88905647I86824J492404D01*
G01*
G37*
G36*
G01*
X92330621Y-88586170D02*
X92990485Y-84843900D01*
G75*
G02*
X94148941Y-84032740I984808J-173648D01*
G01*
X94148941Y-84032740D01*
G75*
G02*
X94960101Y-85191196I-173648J-984808D01*
G01*
X94300237Y-88933466D01*
G75*
G02*
X93141781Y-89744626I-984808J173648D01*
G01*
X93141781Y-89744626D01*
G75*
G02*
X92330621Y-88586170I173648J984808D01*
G01*
G37*
G36*
G01*
X82752060Y-87912637D02*
X82752060Y-87912637D01*
G75*
G02*
X82630386Y-87738869I26047J147721D01*
G01*
X83585450Y-82322427D01*
G75*
G02*
X83759218Y-82200753I147721J-26047D01*
G01*
X83759218Y-82200753D01*
G75*
G02*
X83880892Y-82374521I-26047J-147721D01*
G01*
X82925828Y-87790963D01*
G75*
G02*
X82752060Y-87912637I-147721J26047D01*
G01*
G37*
%TD*%
%TO.C,U13*%
X65868885Y-82259627D03*
X76307847Y-84100297D03*
X64867512Y-92085010D03*
X71295453Y-93523057D03*
G36*
G01*
X64502412Y-86841957D02*
X64502412Y-86841957D01*
G75*
G02*
X67861934Y-84489595I2855942J-503580D01*
G01*
X73672300Y-85514119D01*
G75*
G02*
X76024662Y-88873641I-503580J-2855942D01*
G01*
X76024662Y-88873641D01*
G75*
G02*
X72665140Y-91226003I-2855942J503580D01*
G01*
X66854774Y-90201479D01*
G75*
G02*
X64502412Y-86841957I503580J2855942D01*
G01*
G37*
G36*
G01*
X64979945Y-84133735D02*
X64979945Y-84133735D01*
G75*
G02*
X65153713Y-84012061I147721J-26047D01*
G01*
X76380521Y-85991651D01*
G75*
G02*
X76502195Y-86165419I-26047J-147721D01*
G01*
X76502195Y-86165419D01*
G75*
G02*
X76328427Y-86287093I-147721J26047D01*
G01*
X65101619Y-84307503D01*
G75*
G02*
X64979945Y-84133735I26047J147721D01*
G01*
G37*
G36*
G01*
X67535579Y-91235407D02*
X67535579Y-91235407D01*
G75*
G02*
X67413905Y-91061639I26047J147721D01*
G01*
X67552823Y-90273793D01*
G75*
G02*
X67726591Y-90152119I147721J-26047D01*
G01*
X67726591Y-90152119D01*
G75*
G02*
X67848265Y-90325887I-26047J-147721D01*
G01*
X67709347Y-91113733D01*
G75*
G02*
X67535579Y-91235407I-147721J26047D01*
G01*
G37*
G36*
G01*
X75373363Y-91703535D02*
X75373363Y-91703535D01*
G75*
G02*
X75251689Y-91529767I26047J147721D01*
G01*
X76206753Y-86113325D01*
G75*
G02*
X76380521Y-85991651I147721J-26047D01*
G01*
X76380521Y-85991651D01*
G75*
G02*
X76502195Y-86165419I-26047J-147721D01*
G01*
X75547131Y-91581861D01*
G75*
G02*
X75373363Y-91703535I-147721J26047D01*
G01*
G37*
G36*
G01*
X71671771Y-91964729D02*
X71671771Y-91964729D01*
G75*
G02*
X71550097Y-91790961I26047J147721D01*
G01*
X71689015Y-91003115D01*
G75*
G02*
X71862783Y-90881441I147721J-26047D01*
G01*
X71862783Y-90881441D01*
G75*
G02*
X71984457Y-91055209I-26047J-147721D01*
G01*
X71845539Y-91843055D01*
G75*
G02*
X71671771Y-91964729I-147721J26047D01*
G01*
G37*
G36*
G01*
X64024880Y-89550178D02*
X64024880Y-89550178D01*
G75*
G02*
X64198648Y-89428504I147721J-26047D01*
G01*
X75425456Y-91408094D01*
G75*
G02*
X75547130Y-91581862I-26047J-147721D01*
G01*
X75547130Y-91581862D01*
G75*
G02*
X75373362Y-91703536I-147721J26047D01*
G01*
X64146554Y-89723946D01*
G75*
G02*
X64024880Y-89550178I26047J147721D01*
G01*
G37*
G36*
G01*
X67413905Y-91061639D02*
X67413905Y-91061639D01*
G75*
G02*
X67587673Y-90939965I147721J-26047D01*
G01*
X71723865Y-91669287D01*
G75*
G02*
X71845539Y-91843055I-26047J-147721D01*
G01*
X71845539Y-91843055D01*
G75*
G02*
X71671771Y-91964729I-147721J26047D01*
G01*
X67535579Y-91235407D01*
G75*
G02*
X67413905Y-91061639I26047J147721D01*
G01*
G37*
G36*
G01*
X64172480Y-88713092D02*
X64832344Y-84970822D01*
G75*
G02*
X65990800Y-84159662I984808J-173648D01*
G01*
X65990800Y-84159662D01*
G75*
G02*
X66801960Y-85318118I-173648J-984808D01*
G01*
X66142096Y-89060388D01*
G75*
G02*
X64983640Y-89871548I-984808J173648D01*
G01*
X64983640Y-89871548D01*
G75*
G02*
X64172480Y-88713092I173648J984808D01*
G01*
G37*
G36*
G01*
X67474680Y-90716956D02*
X67474680Y-90716956D01*
G75*
G02*
X68053908Y-90311376I492404J-86824D01*
G01*
X71500736Y-90919144D01*
G75*
G02*
X71906316Y-91498372I-86824J-492404D01*
G01*
X71906316Y-91498372D01*
G75*
G02*
X71327088Y-91903952I-492404J86824D01*
G01*
X67880260Y-91296184D01*
G75*
G02*
X67474680Y-90716956I86824J492404D01*
G01*
G37*
G36*
G01*
X73725115Y-90397479D02*
X74384979Y-86655209D01*
G75*
G02*
X75543435Y-85844049I984808J-173648D01*
G01*
X75543435Y-85844049D01*
G75*
G02*
X76354595Y-87002505I-173648J-984808D01*
G01*
X75694731Y-90744775D01*
G75*
G02*
X74536275Y-91555935I-984808J173648D01*
G01*
X74536275Y-91555935D01*
G75*
G02*
X73725115Y-90397479I173648J984808D01*
G01*
G37*
G36*
G01*
X64146554Y-89723946D02*
X64146554Y-89723946D01*
G75*
G02*
X64024880Y-89550178I26047J147721D01*
G01*
X64979944Y-84133736D01*
G75*
G02*
X65153712Y-84012062I147721J-26047D01*
G01*
X65153712Y-84012062D01*
G75*
G02*
X65275386Y-84185830I-26047J-147721D01*
G01*
X64320322Y-89602272D01*
G75*
G02*
X64146554Y-89723946I-147721J26047D01*
G01*
G37*
%TD*%
%TO.C,U11*%
X238997690Y-67153098D03*
X249436652Y-65312428D03*
X241417186Y-76728428D03*
X247949315Y-75881265D03*
G36*
G01*
X239280875Y-71926442D02*
X239280875Y-71926442D01*
G75*
G02*
X241633237Y-68566920I2855942J503580D01*
G01*
X247443603Y-67542396D01*
G75*
G02*
X250803125Y-69894758I503580J-2855942D01*
G01*
X250803125Y-69894758D01*
G75*
G02*
X248450763Y-73254280I-2855942J-503580D01*
G01*
X242640397Y-74278804D01*
G75*
G02*
X239280875Y-71926442I-503580J2855942D01*
G01*
G37*
G36*
G01*
X238803342Y-69218220D02*
X238803342Y-69218220D01*
G75*
G02*
X238925016Y-69044452I147721J26047D01*
G01*
X250151824Y-67064862D01*
G75*
G02*
X250325592Y-67186536I26047J-147721D01*
G01*
X250325592Y-67186536D01*
G75*
G02*
X250203918Y-67360304I-147721J-26047D01*
G01*
X238977110Y-69339894D01*
G75*
G02*
X238803342Y-69218220I-26047J147721D01*
G01*
G37*
G36*
G01*
X243633766Y-75017530D02*
X243633766Y-75017530D01*
G75*
G02*
X243459998Y-74895856I-26047J147721D01*
G01*
X243321080Y-74108010D01*
G75*
G02*
X243442754Y-73934242I147721J26047D01*
G01*
X243442754Y-73934242D01*
G75*
G02*
X243616522Y-74055916I26047J-147721D01*
G01*
X243755440Y-74843762D01*
G75*
G02*
X243633766Y-75017530I-147721J-26047D01*
G01*
G37*
G36*
G01*
X251158983Y-72776747D02*
X251158983Y-72776747D01*
G75*
G02*
X250985215Y-72655073I-26047J147721D01*
G01*
X250030151Y-67238631D01*
G75*
G02*
X250151825Y-67064863I147721J26047D01*
G01*
X250151825Y-67064863D01*
G75*
G02*
X250325593Y-67186537I26047J-147721D01*
G01*
X251280657Y-72602979D01*
G75*
G02*
X251158983Y-72776747I-147721J-26047D01*
G01*
G37*
G36*
G01*
X247769958Y-74288208D02*
X247769958Y-74288208D01*
G75*
G02*
X247596190Y-74166534I-26047J147721D01*
G01*
X247457272Y-73378688D01*
G75*
G02*
X247578946Y-73204920I147721J26047D01*
G01*
X247578946Y-73204920D01*
G75*
G02*
X247752714Y-73326594I26047J-147721D01*
G01*
X247891632Y-74114440D01*
G75*
G02*
X247769958Y-74288208I-147721J-26047D01*
G01*
G37*
G36*
G01*
X239758407Y-74634663D02*
X239758407Y-74634663D01*
G75*
G02*
X239880081Y-74460895I147721J26047D01*
G01*
X251106889Y-72481305D01*
G75*
G02*
X251280657Y-72602979I26047J-147721D01*
G01*
X251280657Y-72602979D01*
G75*
G02*
X251158983Y-72776747I-147721J-26047D01*
G01*
X239932175Y-74756337D01*
G75*
G02*
X239758407Y-74634663I-26047J147721D01*
G01*
G37*
G36*
G01*
X243459998Y-74895856D02*
X243459998Y-74895856D01*
G75*
G02*
X243581672Y-74722088I147721J26047D01*
G01*
X247717864Y-73992766D01*
G75*
G02*
X247891632Y-74114440I26047J-147721D01*
G01*
X247891632Y-74114440D01*
G75*
G02*
X247769958Y-74288208I-147721J-26047D01*
G01*
X243633766Y-75017530D01*
G75*
G02*
X243459998Y-74895856I-26047J147721D01*
G01*
G37*
G36*
G01*
X239610806Y-73797576D02*
X238950942Y-70055306D01*
G75*
G02*
X239762102Y-68896850I984808J173648D01*
G01*
X239762102Y-68896850D01*
G75*
G02*
X240920558Y-69708010I173648J-984808D01*
G01*
X241580422Y-73450280D01*
G75*
G02*
X240769262Y-74608736I-984808J-173648D01*
G01*
X240769262Y-74608736D01*
G75*
G02*
X239610806Y-73797576I-173648J984808D01*
G01*
G37*
G36*
G01*
X243399221Y-74551173D02*
X243399221Y-74551173D01*
G75*
G02*
X243804801Y-73971945I492404J86824D01*
G01*
X247251629Y-73364177D01*
G75*
G02*
X247830857Y-73769757I86824J-492404D01*
G01*
X247830857Y-73769757D01*
G75*
G02*
X247425277Y-74348985I-492404J-86824D01*
G01*
X243978449Y-74956753D01*
G75*
G02*
X243399221Y-74551173I-86824J492404D01*
G01*
G37*
G36*
G01*
X249163441Y-72113189D02*
X248503577Y-68370919D01*
G75*
G02*
X249314737Y-67212463I984808J173648D01*
G01*
X249314737Y-67212463D01*
G75*
G02*
X250473193Y-68023623I173648J-984808D01*
G01*
X251133057Y-71765893D01*
G75*
G02*
X250321897Y-72924349I-984808J-173648D01*
G01*
X250321897Y-72924349D01*
G75*
G02*
X249163441Y-72113189I-173648J984808D01*
G01*
G37*
G36*
G01*
X239932174Y-74756336D02*
X239932174Y-74756336D01*
G75*
G02*
X239758406Y-74634662I-26047J147721D01*
G01*
X238803342Y-69218220D01*
G75*
G02*
X238925016Y-69044452I147721J26047D01*
G01*
X238925016Y-69044452D01*
G75*
G02*
X239098784Y-69166126I26047J-147721D01*
G01*
X240053848Y-74582568D01*
G75*
G02*
X239932174Y-74756336I-147721J-26047D01*
G01*
G37*
%TD*%
%TO.C,U10*%
X220750690Y-67324398D03*
X231189652Y-65483728D03*
X223170186Y-76899728D03*
X229702315Y-76052565D03*
G36*
G01*
X221033875Y-72097742D02*
X221033875Y-72097742D01*
G75*
G02*
X223386237Y-68738220I2855942J503580D01*
G01*
X229196603Y-67713696D01*
G75*
G02*
X232556125Y-70066058I503580J-2855942D01*
G01*
X232556125Y-70066058D01*
G75*
G02*
X230203763Y-73425580I-2855942J-503580D01*
G01*
X224393397Y-74450104D01*
G75*
G02*
X221033875Y-72097742I-503580J2855942D01*
G01*
G37*
G36*
G01*
X220556342Y-69389520D02*
X220556342Y-69389520D01*
G75*
G02*
X220678016Y-69215752I147721J26047D01*
G01*
X231904824Y-67236162D01*
G75*
G02*
X232078592Y-67357836I26047J-147721D01*
G01*
X232078592Y-67357836D01*
G75*
G02*
X231956918Y-67531604I-147721J-26047D01*
G01*
X220730110Y-69511194D01*
G75*
G02*
X220556342Y-69389520I-26047J147721D01*
G01*
G37*
G36*
G01*
X225386766Y-75188830D02*
X225386766Y-75188830D01*
G75*
G02*
X225212998Y-75067156I-26047J147721D01*
G01*
X225074080Y-74279310D01*
G75*
G02*
X225195754Y-74105542I147721J26047D01*
G01*
X225195754Y-74105542D01*
G75*
G02*
X225369522Y-74227216I26047J-147721D01*
G01*
X225508440Y-75015062D01*
G75*
G02*
X225386766Y-75188830I-147721J-26047D01*
G01*
G37*
G36*
G01*
X232911983Y-72948047D02*
X232911983Y-72948047D01*
G75*
G02*
X232738215Y-72826373I-26047J147721D01*
G01*
X231783151Y-67409931D01*
G75*
G02*
X231904825Y-67236163I147721J26047D01*
G01*
X231904825Y-67236163D01*
G75*
G02*
X232078593Y-67357837I26047J-147721D01*
G01*
X233033657Y-72774279D01*
G75*
G02*
X232911983Y-72948047I-147721J-26047D01*
G01*
G37*
G36*
G01*
X229522958Y-74459508D02*
X229522958Y-74459508D01*
G75*
G02*
X229349190Y-74337834I-26047J147721D01*
G01*
X229210272Y-73549988D01*
G75*
G02*
X229331946Y-73376220I147721J26047D01*
G01*
X229331946Y-73376220D01*
G75*
G02*
X229505714Y-73497894I26047J-147721D01*
G01*
X229644632Y-74285740D01*
G75*
G02*
X229522958Y-74459508I-147721J-26047D01*
G01*
G37*
G36*
G01*
X221511407Y-74805963D02*
X221511407Y-74805963D01*
G75*
G02*
X221633081Y-74632195I147721J26047D01*
G01*
X232859889Y-72652605D01*
G75*
G02*
X233033657Y-72774279I26047J-147721D01*
G01*
X233033657Y-72774279D01*
G75*
G02*
X232911983Y-72948047I-147721J-26047D01*
G01*
X221685175Y-74927637D01*
G75*
G02*
X221511407Y-74805963I-26047J147721D01*
G01*
G37*
G36*
G01*
X225212998Y-75067156D02*
X225212998Y-75067156D01*
G75*
G02*
X225334672Y-74893388I147721J26047D01*
G01*
X229470864Y-74164066D01*
G75*
G02*
X229644632Y-74285740I26047J-147721D01*
G01*
X229644632Y-74285740D01*
G75*
G02*
X229522958Y-74459508I-147721J-26047D01*
G01*
X225386766Y-75188830D01*
G75*
G02*
X225212998Y-75067156I-26047J147721D01*
G01*
G37*
G36*
G01*
X221363806Y-73968876D02*
X220703942Y-70226606D01*
G75*
G02*
X221515102Y-69068150I984808J173648D01*
G01*
X221515102Y-69068150D01*
G75*
G02*
X222673558Y-69879310I173648J-984808D01*
G01*
X223333422Y-73621580D01*
G75*
G02*
X222522262Y-74780036I-984808J-173648D01*
G01*
X222522262Y-74780036D01*
G75*
G02*
X221363806Y-73968876I-173648J984808D01*
G01*
G37*
G36*
G01*
X225152221Y-74722473D02*
X225152221Y-74722473D01*
G75*
G02*
X225557801Y-74143245I492404J86824D01*
G01*
X229004629Y-73535477D01*
G75*
G02*
X229583857Y-73941057I86824J-492404D01*
G01*
X229583857Y-73941057D01*
G75*
G02*
X229178277Y-74520285I-492404J-86824D01*
G01*
X225731449Y-75128053D01*
G75*
G02*
X225152221Y-74722473I-86824J492404D01*
G01*
G37*
G36*
G01*
X230916441Y-72284489D02*
X230256577Y-68542219D01*
G75*
G02*
X231067737Y-67383763I984808J173648D01*
G01*
X231067737Y-67383763D01*
G75*
G02*
X232226193Y-68194923I173648J-984808D01*
G01*
X232886057Y-71937193D01*
G75*
G02*
X232074897Y-73095649I-984808J-173648D01*
G01*
X232074897Y-73095649D01*
G75*
G02*
X230916441Y-72284489I-173648J984808D01*
G01*
G37*
G36*
G01*
X221685174Y-74927636D02*
X221685174Y-74927636D01*
G75*
G02*
X221511406Y-74805962I-26047J147721D01*
G01*
X220556342Y-69389520D01*
G75*
G02*
X220678016Y-69215752I147721J26047D01*
G01*
X220678016Y-69215752D01*
G75*
G02*
X220851784Y-69337426I26047J-147721D01*
G01*
X221806848Y-74753868D01*
G75*
G02*
X221685174Y-74927636I-147721J-26047D01*
G01*
G37*
%TD*%
%TO.C,U9*%
X202155690Y-65525998D03*
X212594652Y-63685328D03*
X204575186Y-75101328D03*
X211107315Y-74254165D03*
G36*
G01*
X202438875Y-70299342D02*
X202438875Y-70299342D01*
G75*
G02*
X204791237Y-66939820I2855942J503580D01*
G01*
X210601603Y-65915296D01*
G75*
G02*
X213961125Y-68267658I503580J-2855942D01*
G01*
X213961125Y-68267658D01*
G75*
G02*
X211608763Y-71627180I-2855942J-503580D01*
G01*
X205798397Y-72651704D01*
G75*
G02*
X202438875Y-70299342I-503580J2855942D01*
G01*
G37*
G36*
G01*
X201961342Y-67591120D02*
X201961342Y-67591120D01*
G75*
G02*
X202083016Y-67417352I147721J26047D01*
G01*
X213309824Y-65437762D01*
G75*
G02*
X213483592Y-65559436I26047J-147721D01*
G01*
X213483592Y-65559436D01*
G75*
G02*
X213361918Y-65733204I-147721J-26047D01*
G01*
X202135110Y-67712794D01*
G75*
G02*
X201961342Y-67591120I-26047J147721D01*
G01*
G37*
G36*
G01*
X206791766Y-73390430D02*
X206791766Y-73390430D01*
G75*
G02*
X206617998Y-73268756I-26047J147721D01*
G01*
X206479080Y-72480910D01*
G75*
G02*
X206600754Y-72307142I147721J26047D01*
G01*
X206600754Y-72307142D01*
G75*
G02*
X206774522Y-72428816I26047J-147721D01*
G01*
X206913440Y-73216662D01*
G75*
G02*
X206791766Y-73390430I-147721J-26047D01*
G01*
G37*
G36*
G01*
X214316983Y-71149647D02*
X214316983Y-71149647D01*
G75*
G02*
X214143215Y-71027973I-26047J147721D01*
G01*
X213188151Y-65611531D01*
G75*
G02*
X213309825Y-65437763I147721J26047D01*
G01*
X213309825Y-65437763D01*
G75*
G02*
X213483593Y-65559437I26047J-147721D01*
G01*
X214438657Y-70975879D01*
G75*
G02*
X214316983Y-71149647I-147721J-26047D01*
G01*
G37*
G36*
G01*
X210927958Y-72661108D02*
X210927958Y-72661108D01*
G75*
G02*
X210754190Y-72539434I-26047J147721D01*
G01*
X210615272Y-71751588D01*
G75*
G02*
X210736946Y-71577820I147721J26047D01*
G01*
X210736946Y-71577820D01*
G75*
G02*
X210910714Y-71699494I26047J-147721D01*
G01*
X211049632Y-72487340D01*
G75*
G02*
X210927958Y-72661108I-147721J-26047D01*
G01*
G37*
G36*
G01*
X202916407Y-73007563D02*
X202916407Y-73007563D01*
G75*
G02*
X203038081Y-72833795I147721J26047D01*
G01*
X214264889Y-70854205D01*
G75*
G02*
X214438657Y-70975879I26047J-147721D01*
G01*
X214438657Y-70975879D01*
G75*
G02*
X214316983Y-71149647I-147721J-26047D01*
G01*
X203090175Y-73129237D01*
G75*
G02*
X202916407Y-73007563I-26047J147721D01*
G01*
G37*
G36*
G01*
X206617998Y-73268756D02*
X206617998Y-73268756D01*
G75*
G02*
X206739672Y-73094988I147721J26047D01*
G01*
X210875864Y-72365666D01*
G75*
G02*
X211049632Y-72487340I26047J-147721D01*
G01*
X211049632Y-72487340D01*
G75*
G02*
X210927958Y-72661108I-147721J-26047D01*
G01*
X206791766Y-73390430D01*
G75*
G02*
X206617998Y-73268756I-26047J147721D01*
G01*
G37*
G36*
G01*
X202768806Y-72170476D02*
X202108942Y-68428206D01*
G75*
G02*
X202920102Y-67269750I984808J173648D01*
G01*
X202920102Y-67269750D01*
G75*
G02*
X204078558Y-68080910I173648J-984808D01*
G01*
X204738422Y-71823180D01*
G75*
G02*
X203927262Y-72981636I-984808J-173648D01*
G01*
X203927262Y-72981636D01*
G75*
G02*
X202768806Y-72170476I-173648J984808D01*
G01*
G37*
G36*
G01*
X206557221Y-72924073D02*
X206557221Y-72924073D01*
G75*
G02*
X206962801Y-72344845I492404J86824D01*
G01*
X210409629Y-71737077D01*
G75*
G02*
X210988857Y-72142657I86824J-492404D01*
G01*
X210988857Y-72142657D01*
G75*
G02*
X210583277Y-72721885I-492404J-86824D01*
G01*
X207136449Y-73329653D01*
G75*
G02*
X206557221Y-72924073I-86824J492404D01*
G01*
G37*
G36*
G01*
X212321441Y-70486089D02*
X211661577Y-66743819D01*
G75*
G02*
X212472737Y-65585363I984808J173648D01*
G01*
X212472737Y-65585363D01*
G75*
G02*
X213631193Y-66396523I173648J-984808D01*
G01*
X214291057Y-70138793D01*
G75*
G02*
X213479897Y-71297249I-984808J-173648D01*
G01*
X213479897Y-71297249D01*
G75*
G02*
X212321441Y-70486089I-173648J984808D01*
G01*
G37*
G36*
G01*
X203090174Y-73129236D02*
X203090174Y-73129236D01*
G75*
G02*
X202916406Y-73007562I-26047J147721D01*
G01*
X201961342Y-67591120D01*
G75*
G02*
X202083016Y-67417352I147721J26047D01*
G01*
X202083016Y-67417352D01*
G75*
G02*
X202256784Y-67539026I26047J-147721D01*
G01*
X203211848Y-72955468D01*
G75*
G02*
X203090174Y-73129236I-147721J-26047D01*
G01*
G37*
%TD*%
%TO.C,U8*%
X185470690Y-74560498D03*
X195909652Y-72719828D03*
X187890186Y-84135828D03*
X194422315Y-83288665D03*
G36*
G01*
X185753875Y-79333842D02*
X185753875Y-79333842D01*
G75*
G02*
X188106237Y-75974320I2855942J503580D01*
G01*
X193916603Y-74949796D01*
G75*
G02*
X197276125Y-77302158I503580J-2855942D01*
G01*
X197276125Y-77302158D01*
G75*
G02*
X194923763Y-80661680I-2855942J-503580D01*
G01*
X189113397Y-81686204D01*
G75*
G02*
X185753875Y-79333842I-503580J2855942D01*
G01*
G37*
G36*
G01*
X185276342Y-76625620D02*
X185276342Y-76625620D01*
G75*
G02*
X185398016Y-76451852I147721J26047D01*
G01*
X196624824Y-74472262D01*
G75*
G02*
X196798592Y-74593936I26047J-147721D01*
G01*
X196798592Y-74593936D01*
G75*
G02*
X196676918Y-74767704I-147721J-26047D01*
G01*
X185450110Y-76747294D01*
G75*
G02*
X185276342Y-76625620I-26047J147721D01*
G01*
G37*
G36*
G01*
X190106766Y-82424930D02*
X190106766Y-82424930D01*
G75*
G02*
X189932998Y-82303256I-26047J147721D01*
G01*
X189794080Y-81515410D01*
G75*
G02*
X189915754Y-81341642I147721J26047D01*
G01*
X189915754Y-81341642D01*
G75*
G02*
X190089522Y-81463316I26047J-147721D01*
G01*
X190228440Y-82251162D01*
G75*
G02*
X190106766Y-82424930I-147721J-26047D01*
G01*
G37*
G36*
G01*
X197631983Y-80184147D02*
X197631983Y-80184147D01*
G75*
G02*
X197458215Y-80062473I-26047J147721D01*
G01*
X196503151Y-74646031D01*
G75*
G02*
X196624825Y-74472263I147721J26047D01*
G01*
X196624825Y-74472263D01*
G75*
G02*
X196798593Y-74593937I26047J-147721D01*
G01*
X197753657Y-80010379D01*
G75*
G02*
X197631983Y-80184147I-147721J-26047D01*
G01*
G37*
G36*
G01*
X194242958Y-81695608D02*
X194242958Y-81695608D01*
G75*
G02*
X194069190Y-81573934I-26047J147721D01*
G01*
X193930272Y-80786088D01*
G75*
G02*
X194051946Y-80612320I147721J26047D01*
G01*
X194051946Y-80612320D01*
G75*
G02*
X194225714Y-80733994I26047J-147721D01*
G01*
X194364632Y-81521840D01*
G75*
G02*
X194242958Y-81695608I-147721J-26047D01*
G01*
G37*
G36*
G01*
X186231407Y-82042063D02*
X186231407Y-82042063D01*
G75*
G02*
X186353081Y-81868295I147721J26047D01*
G01*
X197579889Y-79888705D01*
G75*
G02*
X197753657Y-80010379I26047J-147721D01*
G01*
X197753657Y-80010379D01*
G75*
G02*
X197631983Y-80184147I-147721J-26047D01*
G01*
X186405175Y-82163737D01*
G75*
G02*
X186231407Y-82042063I-26047J147721D01*
G01*
G37*
G36*
G01*
X189932998Y-82303256D02*
X189932998Y-82303256D01*
G75*
G02*
X190054672Y-82129488I147721J26047D01*
G01*
X194190864Y-81400166D01*
G75*
G02*
X194364632Y-81521840I26047J-147721D01*
G01*
X194364632Y-81521840D01*
G75*
G02*
X194242958Y-81695608I-147721J-26047D01*
G01*
X190106766Y-82424930D01*
G75*
G02*
X189932998Y-82303256I-26047J147721D01*
G01*
G37*
G36*
G01*
X186083806Y-81204976D02*
X185423942Y-77462706D01*
G75*
G02*
X186235102Y-76304250I984808J173648D01*
G01*
X186235102Y-76304250D01*
G75*
G02*
X187393558Y-77115410I173648J-984808D01*
G01*
X188053422Y-80857680D01*
G75*
G02*
X187242262Y-82016136I-984808J-173648D01*
G01*
X187242262Y-82016136D01*
G75*
G02*
X186083806Y-81204976I-173648J984808D01*
G01*
G37*
G36*
G01*
X189872221Y-81958573D02*
X189872221Y-81958573D01*
G75*
G02*
X190277801Y-81379345I492404J86824D01*
G01*
X193724629Y-80771577D01*
G75*
G02*
X194303857Y-81177157I86824J-492404D01*
G01*
X194303857Y-81177157D01*
G75*
G02*
X193898277Y-81756385I-492404J-86824D01*
G01*
X190451449Y-82364153D01*
G75*
G02*
X189872221Y-81958573I-86824J492404D01*
G01*
G37*
G36*
G01*
X195636441Y-79520589D02*
X194976577Y-75778319D01*
G75*
G02*
X195787737Y-74619863I984808J173648D01*
G01*
X195787737Y-74619863D01*
G75*
G02*
X196946193Y-75431023I173648J-984808D01*
G01*
X197606057Y-79173293D01*
G75*
G02*
X196794897Y-80331749I-984808J-173648D01*
G01*
X196794897Y-80331749D01*
G75*
G02*
X195636441Y-79520589I-173648J984808D01*
G01*
G37*
G36*
G01*
X186405174Y-82163736D02*
X186405174Y-82163736D01*
G75*
G02*
X186231406Y-82042062I-26047J147721D01*
G01*
X185276342Y-76625620D01*
G75*
G02*
X185398016Y-76451852I147721J26047D01*
G01*
X185398016Y-76451852D01*
G75*
G02*
X185571784Y-76573526I26047J-147721D01*
G01*
X186526848Y-81989968D01*
G75*
G02*
X186405174Y-82163736I-147721J-26047D01*
G01*
G37*
%TD*%
%TO.C,U7*%
X168438690Y-81625398D03*
X178877652Y-79784728D03*
X170858186Y-91200728D03*
X177390315Y-90353565D03*
G36*
G01*
X168721875Y-86398742D02*
X168721875Y-86398742D01*
G75*
G02*
X171074237Y-83039220I2855942J503580D01*
G01*
X176884603Y-82014696D01*
G75*
G02*
X180244125Y-84367058I503580J-2855942D01*
G01*
X180244125Y-84367058D01*
G75*
G02*
X177891763Y-87726580I-2855942J-503580D01*
G01*
X172081397Y-88751104D01*
G75*
G02*
X168721875Y-86398742I-503580J2855942D01*
G01*
G37*
G36*
G01*
X168244342Y-83690520D02*
X168244342Y-83690520D01*
G75*
G02*
X168366016Y-83516752I147721J26047D01*
G01*
X179592824Y-81537162D01*
G75*
G02*
X179766592Y-81658836I26047J-147721D01*
G01*
X179766592Y-81658836D01*
G75*
G02*
X179644918Y-81832604I-147721J-26047D01*
G01*
X168418110Y-83812194D01*
G75*
G02*
X168244342Y-83690520I-26047J147721D01*
G01*
G37*
G36*
G01*
X173074766Y-89489830D02*
X173074766Y-89489830D01*
G75*
G02*
X172900998Y-89368156I-26047J147721D01*
G01*
X172762080Y-88580310D01*
G75*
G02*
X172883754Y-88406542I147721J26047D01*
G01*
X172883754Y-88406542D01*
G75*
G02*
X173057522Y-88528216I26047J-147721D01*
G01*
X173196440Y-89316062D01*
G75*
G02*
X173074766Y-89489830I-147721J-26047D01*
G01*
G37*
G36*
G01*
X180599983Y-87249047D02*
X180599983Y-87249047D01*
G75*
G02*
X180426215Y-87127373I-26047J147721D01*
G01*
X179471151Y-81710931D01*
G75*
G02*
X179592825Y-81537163I147721J26047D01*
G01*
X179592825Y-81537163D01*
G75*
G02*
X179766593Y-81658837I26047J-147721D01*
G01*
X180721657Y-87075279D01*
G75*
G02*
X180599983Y-87249047I-147721J-26047D01*
G01*
G37*
G36*
G01*
X177210958Y-88760508D02*
X177210958Y-88760508D01*
G75*
G02*
X177037190Y-88638834I-26047J147721D01*
G01*
X176898272Y-87850988D01*
G75*
G02*
X177019946Y-87677220I147721J26047D01*
G01*
X177019946Y-87677220D01*
G75*
G02*
X177193714Y-87798894I26047J-147721D01*
G01*
X177332632Y-88586740D01*
G75*
G02*
X177210958Y-88760508I-147721J-26047D01*
G01*
G37*
G36*
G01*
X169199407Y-89106963D02*
X169199407Y-89106963D01*
G75*
G02*
X169321081Y-88933195I147721J26047D01*
G01*
X180547889Y-86953605D01*
G75*
G02*
X180721657Y-87075279I26047J-147721D01*
G01*
X180721657Y-87075279D01*
G75*
G02*
X180599983Y-87249047I-147721J-26047D01*
G01*
X169373175Y-89228637D01*
G75*
G02*
X169199407Y-89106963I-26047J147721D01*
G01*
G37*
G36*
G01*
X172900998Y-89368156D02*
X172900998Y-89368156D01*
G75*
G02*
X173022672Y-89194388I147721J26047D01*
G01*
X177158864Y-88465066D01*
G75*
G02*
X177332632Y-88586740I26047J-147721D01*
G01*
X177332632Y-88586740D01*
G75*
G02*
X177210958Y-88760508I-147721J-26047D01*
G01*
X173074766Y-89489830D01*
G75*
G02*
X172900998Y-89368156I-26047J147721D01*
G01*
G37*
G36*
G01*
X169051806Y-88269876D02*
X168391942Y-84527606D01*
G75*
G02*
X169203102Y-83369150I984808J173648D01*
G01*
X169203102Y-83369150D01*
G75*
G02*
X170361558Y-84180310I173648J-984808D01*
G01*
X171021422Y-87922580D01*
G75*
G02*
X170210262Y-89081036I-984808J-173648D01*
G01*
X170210262Y-89081036D01*
G75*
G02*
X169051806Y-88269876I-173648J984808D01*
G01*
G37*
G36*
G01*
X172840221Y-89023473D02*
X172840221Y-89023473D01*
G75*
G02*
X173245801Y-88444245I492404J86824D01*
G01*
X176692629Y-87836477D01*
G75*
G02*
X177271857Y-88242057I86824J-492404D01*
G01*
X177271857Y-88242057D01*
G75*
G02*
X176866277Y-88821285I-492404J-86824D01*
G01*
X173419449Y-89429053D01*
G75*
G02*
X172840221Y-89023473I-86824J492404D01*
G01*
G37*
G36*
G01*
X178604441Y-86585489D02*
X177944577Y-82843219D01*
G75*
G02*
X178755737Y-81684763I984808J173648D01*
G01*
X178755737Y-81684763D01*
G75*
G02*
X179914193Y-82495923I173648J-984808D01*
G01*
X180574057Y-86238193D01*
G75*
G02*
X179762897Y-87396649I-984808J-173648D01*
G01*
X179762897Y-87396649D01*
G75*
G02*
X178604441Y-86585489I-173648J984808D01*
G01*
G37*
G36*
G01*
X169373174Y-89228636D02*
X169373174Y-89228636D01*
G75*
G02*
X169199406Y-89106962I-26047J147721D01*
G01*
X168244342Y-83690520D01*
G75*
G02*
X168366016Y-83516752I147721J26047D01*
G01*
X168366016Y-83516752D01*
G75*
G02*
X168539784Y-83638426I26047J-147721D01*
G01*
X169494848Y-89054868D01*
G75*
G02*
X169373174Y-89228636I-147721J-26047D01*
G01*
G37*
%TD*%
%TO.C,U6*%
X133292348Y-114423828D03*
X143731310Y-116264498D03*
X132290975Y-124249211D03*
X138718916Y-125687258D03*
G36*
G01*
X131925875Y-119006158D02*
X131925875Y-119006158D01*
G75*
G02*
X135285397Y-116653796I2855942J-503580D01*
G01*
X141095763Y-117678320D01*
G75*
G02*
X143448125Y-121037842I-503580J-2855942D01*
G01*
X143448125Y-121037842D01*
G75*
G02*
X140088603Y-123390204I-2855942J503580D01*
G01*
X134278237Y-122365680D01*
G75*
G02*
X131925875Y-119006158I503580J2855942D01*
G01*
G37*
G36*
G01*
X132403408Y-116297936D02*
X132403408Y-116297936D01*
G75*
G02*
X132577176Y-116176262I147721J-26047D01*
G01*
X143803984Y-118155852D01*
G75*
G02*
X143925658Y-118329620I-26047J-147721D01*
G01*
X143925658Y-118329620D01*
G75*
G02*
X143751890Y-118451294I-147721J26047D01*
G01*
X132525082Y-116471704D01*
G75*
G02*
X132403408Y-116297936I26047J147721D01*
G01*
G37*
G36*
G01*
X134959042Y-123399608D02*
X134959042Y-123399608D01*
G75*
G02*
X134837368Y-123225840I26047J147721D01*
G01*
X134976286Y-122437994D01*
G75*
G02*
X135150054Y-122316320I147721J-26047D01*
G01*
X135150054Y-122316320D01*
G75*
G02*
X135271728Y-122490088I-26047J-147721D01*
G01*
X135132810Y-123277934D01*
G75*
G02*
X134959042Y-123399608I-147721J26047D01*
G01*
G37*
G36*
G01*
X142796826Y-123867736D02*
X142796826Y-123867736D01*
G75*
G02*
X142675152Y-123693968I26047J147721D01*
G01*
X143630216Y-118277526D01*
G75*
G02*
X143803984Y-118155852I147721J-26047D01*
G01*
X143803984Y-118155852D01*
G75*
G02*
X143925658Y-118329620I-26047J-147721D01*
G01*
X142970594Y-123746062D01*
G75*
G02*
X142796826Y-123867736I-147721J26047D01*
G01*
G37*
G36*
G01*
X139095234Y-124128930D02*
X139095234Y-124128930D01*
G75*
G02*
X138973560Y-123955162I26047J147721D01*
G01*
X139112478Y-123167316D01*
G75*
G02*
X139286246Y-123045642I147721J-26047D01*
G01*
X139286246Y-123045642D01*
G75*
G02*
X139407920Y-123219410I-26047J-147721D01*
G01*
X139269002Y-124007256D01*
G75*
G02*
X139095234Y-124128930I-147721J26047D01*
G01*
G37*
G36*
G01*
X131448343Y-121714379D02*
X131448343Y-121714379D01*
G75*
G02*
X131622111Y-121592705I147721J-26047D01*
G01*
X142848919Y-123572295D01*
G75*
G02*
X142970593Y-123746063I-26047J-147721D01*
G01*
X142970593Y-123746063D01*
G75*
G02*
X142796825Y-123867737I-147721J26047D01*
G01*
X131570017Y-121888147D01*
G75*
G02*
X131448343Y-121714379I26047J147721D01*
G01*
G37*
G36*
G01*
X134837368Y-123225840D02*
X134837368Y-123225840D01*
G75*
G02*
X135011136Y-123104166I147721J-26047D01*
G01*
X139147328Y-123833488D01*
G75*
G02*
X139269002Y-124007256I-26047J-147721D01*
G01*
X139269002Y-124007256D01*
G75*
G02*
X139095234Y-124128930I-147721J26047D01*
G01*
X134959042Y-123399608D01*
G75*
G02*
X134837368Y-123225840I26047J147721D01*
G01*
G37*
G36*
G01*
X131595943Y-120877293D02*
X132255807Y-117135023D01*
G75*
G02*
X133414263Y-116323863I984808J-173648D01*
G01*
X133414263Y-116323863D01*
G75*
G02*
X134225423Y-117482319I-173648J-984808D01*
G01*
X133565559Y-121224589D01*
G75*
G02*
X132407103Y-122035749I-984808J173648D01*
G01*
X132407103Y-122035749D01*
G75*
G02*
X131595943Y-120877293I173648J984808D01*
G01*
G37*
G36*
G01*
X134898143Y-122881157D02*
X134898143Y-122881157D01*
G75*
G02*
X135477371Y-122475577I492404J-86824D01*
G01*
X138924199Y-123083345D01*
G75*
G02*
X139329779Y-123662573I-86824J-492404D01*
G01*
X139329779Y-123662573D01*
G75*
G02*
X138750551Y-124068153I-492404J86824D01*
G01*
X135303723Y-123460385D01*
G75*
G02*
X134898143Y-122881157I86824J492404D01*
G01*
G37*
G36*
G01*
X141148578Y-122561680D02*
X141808442Y-118819410D01*
G75*
G02*
X142966898Y-118008250I984808J-173648D01*
G01*
X142966898Y-118008250D01*
G75*
G02*
X143778058Y-119166706I-173648J-984808D01*
G01*
X143118194Y-122908976D01*
G75*
G02*
X141959738Y-123720136I-984808J173648D01*
G01*
X141959738Y-123720136D01*
G75*
G02*
X141148578Y-122561680I173648J984808D01*
G01*
G37*
G36*
G01*
X131570017Y-121888147D02*
X131570017Y-121888147D01*
G75*
G02*
X131448343Y-121714379I26047J147721D01*
G01*
X132403407Y-116297937D01*
G75*
G02*
X132577175Y-116176263I147721J-26047D01*
G01*
X132577175Y-116176263D01*
G75*
G02*
X132698849Y-116350031I-26047J-147721D01*
G01*
X131743785Y-121766473D01*
G75*
G02*
X131570017Y-121888147I-147721J26047D01*
G01*
G37*
%TD*%
%TO.C,U5*%
X121122348Y-79784728D03*
X131561310Y-81625398D03*
X120120975Y-89610111D03*
X126548916Y-91048158D03*
G36*
G01*
X119755875Y-84367058D02*
X119755875Y-84367058D01*
G75*
G02*
X123115397Y-82014696I2855942J-503580D01*
G01*
X128925763Y-83039220D01*
G75*
G02*
X131278125Y-86398742I-503580J-2855942D01*
G01*
X131278125Y-86398742D01*
G75*
G02*
X127918603Y-88751104I-2855942J503580D01*
G01*
X122108237Y-87726580D01*
G75*
G02*
X119755875Y-84367058I503580J2855942D01*
G01*
G37*
G36*
G01*
X120233408Y-81658836D02*
X120233408Y-81658836D01*
G75*
G02*
X120407176Y-81537162I147721J-26047D01*
G01*
X131633984Y-83516752D01*
G75*
G02*
X131755658Y-83690520I-26047J-147721D01*
G01*
X131755658Y-83690520D01*
G75*
G02*
X131581890Y-83812194I-147721J26047D01*
G01*
X120355082Y-81832604D01*
G75*
G02*
X120233408Y-81658836I26047J147721D01*
G01*
G37*
G36*
G01*
X122789042Y-88760508D02*
X122789042Y-88760508D01*
G75*
G02*
X122667368Y-88586740I26047J147721D01*
G01*
X122806286Y-87798894D01*
G75*
G02*
X122980054Y-87677220I147721J-26047D01*
G01*
X122980054Y-87677220D01*
G75*
G02*
X123101728Y-87850988I-26047J-147721D01*
G01*
X122962810Y-88638834D01*
G75*
G02*
X122789042Y-88760508I-147721J26047D01*
G01*
G37*
G36*
G01*
X130626826Y-89228636D02*
X130626826Y-89228636D01*
G75*
G02*
X130505152Y-89054868I26047J147721D01*
G01*
X131460216Y-83638426D01*
G75*
G02*
X131633984Y-83516752I147721J-26047D01*
G01*
X131633984Y-83516752D01*
G75*
G02*
X131755658Y-83690520I-26047J-147721D01*
G01*
X130800594Y-89106962D01*
G75*
G02*
X130626826Y-89228636I-147721J26047D01*
G01*
G37*
G36*
G01*
X126925234Y-89489830D02*
X126925234Y-89489830D01*
G75*
G02*
X126803560Y-89316062I26047J147721D01*
G01*
X126942478Y-88528216D01*
G75*
G02*
X127116246Y-88406542I147721J-26047D01*
G01*
X127116246Y-88406542D01*
G75*
G02*
X127237920Y-88580310I-26047J-147721D01*
G01*
X127099002Y-89368156D01*
G75*
G02*
X126925234Y-89489830I-147721J26047D01*
G01*
G37*
G36*
G01*
X119278343Y-87075279D02*
X119278343Y-87075279D01*
G75*
G02*
X119452111Y-86953605I147721J-26047D01*
G01*
X130678919Y-88933195D01*
G75*
G02*
X130800593Y-89106963I-26047J-147721D01*
G01*
X130800593Y-89106963D01*
G75*
G02*
X130626825Y-89228637I-147721J26047D01*
G01*
X119400017Y-87249047D01*
G75*
G02*
X119278343Y-87075279I26047J147721D01*
G01*
G37*
G36*
G01*
X122667368Y-88586740D02*
X122667368Y-88586740D01*
G75*
G02*
X122841136Y-88465066I147721J-26047D01*
G01*
X126977328Y-89194388D01*
G75*
G02*
X127099002Y-89368156I-26047J-147721D01*
G01*
X127099002Y-89368156D01*
G75*
G02*
X126925234Y-89489830I-147721J26047D01*
G01*
X122789042Y-88760508D01*
G75*
G02*
X122667368Y-88586740I26047J147721D01*
G01*
G37*
G36*
G01*
X119425943Y-86238193D02*
X120085807Y-82495923D01*
G75*
G02*
X121244263Y-81684763I984808J-173648D01*
G01*
X121244263Y-81684763D01*
G75*
G02*
X122055423Y-82843219I-173648J-984808D01*
G01*
X121395559Y-86585489D01*
G75*
G02*
X120237103Y-87396649I-984808J173648D01*
G01*
X120237103Y-87396649D01*
G75*
G02*
X119425943Y-86238193I173648J984808D01*
G01*
G37*
G36*
G01*
X122728143Y-88242057D02*
X122728143Y-88242057D01*
G75*
G02*
X123307371Y-87836477I492404J-86824D01*
G01*
X126754199Y-88444245D01*
G75*
G02*
X127159779Y-89023473I-86824J-492404D01*
G01*
X127159779Y-89023473D01*
G75*
G02*
X126580551Y-89429053I-492404J86824D01*
G01*
X123133723Y-88821285D01*
G75*
G02*
X122728143Y-88242057I86824J492404D01*
G01*
G37*
G36*
G01*
X128978578Y-87922580D02*
X129638442Y-84180310D01*
G75*
G02*
X130796898Y-83369150I984808J-173648D01*
G01*
X130796898Y-83369150D01*
G75*
G02*
X131608058Y-84527606I-173648J-984808D01*
G01*
X130948194Y-88269876D01*
G75*
G02*
X129789738Y-89081036I-984808J173648D01*
G01*
X129789738Y-89081036D01*
G75*
G02*
X128978578Y-87922580I173648J984808D01*
G01*
G37*
G36*
G01*
X119400017Y-87249047D02*
X119400017Y-87249047D01*
G75*
G02*
X119278343Y-87075279I26047J147721D01*
G01*
X120233407Y-81658837D01*
G75*
G02*
X120407175Y-81537163I147721J-26047D01*
G01*
X120407175Y-81537163D01*
G75*
G02*
X120528849Y-81710931I-26047J-147721D01*
G01*
X119573785Y-87127373D01*
G75*
G02*
X119400017Y-87249047I-147721J26047D01*
G01*
G37*
%TD*%
%TO.C,U4*%
X104090348Y-72719828D03*
X114529310Y-74560498D03*
X103088975Y-82545211D03*
X109516916Y-83983258D03*
G36*
G01*
X102723875Y-77302158D02*
X102723875Y-77302158D01*
G75*
G02*
X106083397Y-74949796I2855942J-503580D01*
G01*
X111893763Y-75974320D01*
G75*
G02*
X114246125Y-79333842I-503580J-2855942D01*
G01*
X114246125Y-79333842D01*
G75*
G02*
X110886603Y-81686204I-2855942J503580D01*
G01*
X105076237Y-80661680D01*
G75*
G02*
X102723875Y-77302158I503580J2855942D01*
G01*
G37*
G36*
G01*
X103201408Y-74593936D02*
X103201408Y-74593936D01*
G75*
G02*
X103375176Y-74472262I147721J-26047D01*
G01*
X114601984Y-76451852D01*
G75*
G02*
X114723658Y-76625620I-26047J-147721D01*
G01*
X114723658Y-76625620D01*
G75*
G02*
X114549890Y-76747294I-147721J26047D01*
G01*
X103323082Y-74767704D01*
G75*
G02*
X103201408Y-74593936I26047J147721D01*
G01*
G37*
G36*
G01*
X105757042Y-81695608D02*
X105757042Y-81695608D01*
G75*
G02*
X105635368Y-81521840I26047J147721D01*
G01*
X105774286Y-80733994D01*
G75*
G02*
X105948054Y-80612320I147721J-26047D01*
G01*
X105948054Y-80612320D01*
G75*
G02*
X106069728Y-80786088I-26047J-147721D01*
G01*
X105930810Y-81573934D01*
G75*
G02*
X105757042Y-81695608I-147721J26047D01*
G01*
G37*
G36*
G01*
X113594826Y-82163736D02*
X113594826Y-82163736D01*
G75*
G02*
X113473152Y-81989968I26047J147721D01*
G01*
X114428216Y-76573526D01*
G75*
G02*
X114601984Y-76451852I147721J-26047D01*
G01*
X114601984Y-76451852D01*
G75*
G02*
X114723658Y-76625620I-26047J-147721D01*
G01*
X113768594Y-82042062D01*
G75*
G02*
X113594826Y-82163736I-147721J26047D01*
G01*
G37*
G36*
G01*
X109893234Y-82424930D02*
X109893234Y-82424930D01*
G75*
G02*
X109771560Y-82251162I26047J147721D01*
G01*
X109910478Y-81463316D01*
G75*
G02*
X110084246Y-81341642I147721J-26047D01*
G01*
X110084246Y-81341642D01*
G75*
G02*
X110205920Y-81515410I-26047J-147721D01*
G01*
X110067002Y-82303256D01*
G75*
G02*
X109893234Y-82424930I-147721J26047D01*
G01*
G37*
G36*
G01*
X102246343Y-80010379D02*
X102246343Y-80010379D01*
G75*
G02*
X102420111Y-79888705I147721J-26047D01*
G01*
X113646919Y-81868295D01*
G75*
G02*
X113768593Y-82042063I-26047J-147721D01*
G01*
X113768593Y-82042063D01*
G75*
G02*
X113594825Y-82163737I-147721J26047D01*
G01*
X102368017Y-80184147D01*
G75*
G02*
X102246343Y-80010379I26047J147721D01*
G01*
G37*
G36*
G01*
X105635368Y-81521840D02*
X105635368Y-81521840D01*
G75*
G02*
X105809136Y-81400166I147721J-26047D01*
G01*
X109945328Y-82129488D01*
G75*
G02*
X110067002Y-82303256I-26047J-147721D01*
G01*
X110067002Y-82303256D01*
G75*
G02*
X109893234Y-82424930I-147721J26047D01*
G01*
X105757042Y-81695608D01*
G75*
G02*
X105635368Y-81521840I26047J147721D01*
G01*
G37*
G36*
G01*
X102393943Y-79173293D02*
X103053807Y-75431023D01*
G75*
G02*
X104212263Y-74619863I984808J-173648D01*
G01*
X104212263Y-74619863D01*
G75*
G02*
X105023423Y-75778319I-173648J-984808D01*
G01*
X104363559Y-79520589D01*
G75*
G02*
X103205103Y-80331749I-984808J173648D01*
G01*
X103205103Y-80331749D01*
G75*
G02*
X102393943Y-79173293I173648J984808D01*
G01*
G37*
G36*
G01*
X105696143Y-81177157D02*
X105696143Y-81177157D01*
G75*
G02*
X106275371Y-80771577I492404J-86824D01*
G01*
X109722199Y-81379345D01*
G75*
G02*
X110127779Y-81958573I-86824J-492404D01*
G01*
X110127779Y-81958573D01*
G75*
G02*
X109548551Y-82364153I-492404J86824D01*
G01*
X106101723Y-81756385D01*
G75*
G02*
X105696143Y-81177157I86824J492404D01*
G01*
G37*
G36*
G01*
X111946578Y-80857680D02*
X112606442Y-77115410D01*
G75*
G02*
X113764898Y-76304250I984808J-173648D01*
G01*
X113764898Y-76304250D01*
G75*
G02*
X114576058Y-77462706I-173648J-984808D01*
G01*
X113916194Y-81204976D01*
G75*
G02*
X112757738Y-82016136I-984808J173648D01*
G01*
X112757738Y-82016136D01*
G75*
G02*
X111946578Y-80857680I173648J984808D01*
G01*
G37*
G36*
G01*
X102368017Y-80184147D02*
X102368017Y-80184147D01*
G75*
G02*
X102246343Y-80010379I26047J147721D01*
G01*
X103201407Y-74593937D01*
G75*
G02*
X103375175Y-74472263I147721J-26047D01*
G01*
X103375175Y-74472263D01*
G75*
G02*
X103496849Y-74646031I-26047J-147721D01*
G01*
X102541785Y-80062473D01*
G75*
G02*
X102368017Y-80184147I-147721J26047D01*
G01*
G37*
%TD*%
%TO.C,U3*%
X87405548Y-63685328D03*
X97844510Y-65525998D03*
X86404175Y-73510711D03*
X92832116Y-74948758D03*
G36*
G01*
X86039075Y-68267658D02*
X86039075Y-68267658D01*
G75*
G02*
X89398597Y-65915296I2855942J-503580D01*
G01*
X95208963Y-66939820D01*
G75*
G02*
X97561325Y-70299342I-503580J-2855942D01*
G01*
X97561325Y-70299342D01*
G75*
G02*
X94201803Y-72651704I-2855942J503580D01*
G01*
X88391437Y-71627180D01*
G75*
G02*
X86039075Y-68267658I503580J2855942D01*
G01*
G37*
G36*
G01*
X86516608Y-65559436D02*
X86516608Y-65559436D01*
G75*
G02*
X86690376Y-65437762I147721J-26047D01*
G01*
X97917184Y-67417352D01*
G75*
G02*
X98038858Y-67591120I-26047J-147721D01*
G01*
X98038858Y-67591120D01*
G75*
G02*
X97865090Y-67712794I-147721J26047D01*
G01*
X86638282Y-65733204D01*
G75*
G02*
X86516608Y-65559436I26047J147721D01*
G01*
G37*
G36*
G01*
X89072242Y-72661108D02*
X89072242Y-72661108D01*
G75*
G02*
X88950568Y-72487340I26047J147721D01*
G01*
X89089486Y-71699494D01*
G75*
G02*
X89263254Y-71577820I147721J-26047D01*
G01*
X89263254Y-71577820D01*
G75*
G02*
X89384928Y-71751588I-26047J-147721D01*
G01*
X89246010Y-72539434D01*
G75*
G02*
X89072242Y-72661108I-147721J26047D01*
G01*
G37*
G36*
G01*
X96910026Y-73129236D02*
X96910026Y-73129236D01*
G75*
G02*
X96788352Y-72955468I26047J147721D01*
G01*
X97743416Y-67539026D01*
G75*
G02*
X97917184Y-67417352I147721J-26047D01*
G01*
X97917184Y-67417352D01*
G75*
G02*
X98038858Y-67591120I-26047J-147721D01*
G01*
X97083794Y-73007562D01*
G75*
G02*
X96910026Y-73129236I-147721J26047D01*
G01*
G37*
G36*
G01*
X93208434Y-73390430D02*
X93208434Y-73390430D01*
G75*
G02*
X93086760Y-73216662I26047J147721D01*
G01*
X93225678Y-72428816D01*
G75*
G02*
X93399446Y-72307142I147721J-26047D01*
G01*
X93399446Y-72307142D01*
G75*
G02*
X93521120Y-72480910I-26047J-147721D01*
G01*
X93382202Y-73268756D01*
G75*
G02*
X93208434Y-73390430I-147721J26047D01*
G01*
G37*
G36*
G01*
X85561543Y-70975879D02*
X85561543Y-70975879D01*
G75*
G02*
X85735311Y-70854205I147721J-26047D01*
G01*
X96962119Y-72833795D01*
G75*
G02*
X97083793Y-73007563I-26047J-147721D01*
G01*
X97083793Y-73007563D01*
G75*
G02*
X96910025Y-73129237I-147721J26047D01*
G01*
X85683217Y-71149647D01*
G75*
G02*
X85561543Y-70975879I26047J147721D01*
G01*
G37*
G36*
G01*
X88950568Y-72487340D02*
X88950568Y-72487340D01*
G75*
G02*
X89124336Y-72365666I147721J-26047D01*
G01*
X93260528Y-73094988D01*
G75*
G02*
X93382202Y-73268756I-26047J-147721D01*
G01*
X93382202Y-73268756D01*
G75*
G02*
X93208434Y-73390430I-147721J26047D01*
G01*
X89072242Y-72661108D01*
G75*
G02*
X88950568Y-72487340I26047J147721D01*
G01*
G37*
G36*
G01*
X85709143Y-70138793D02*
X86369007Y-66396523D01*
G75*
G02*
X87527463Y-65585363I984808J-173648D01*
G01*
X87527463Y-65585363D01*
G75*
G02*
X88338623Y-66743819I-173648J-984808D01*
G01*
X87678759Y-70486089D01*
G75*
G02*
X86520303Y-71297249I-984808J173648D01*
G01*
X86520303Y-71297249D01*
G75*
G02*
X85709143Y-70138793I173648J984808D01*
G01*
G37*
G36*
G01*
X89011343Y-72142657D02*
X89011343Y-72142657D01*
G75*
G02*
X89590571Y-71737077I492404J-86824D01*
G01*
X93037399Y-72344845D01*
G75*
G02*
X93442979Y-72924073I-86824J-492404D01*
G01*
X93442979Y-72924073D01*
G75*
G02*
X92863751Y-73329653I-492404J86824D01*
G01*
X89416923Y-72721885D01*
G75*
G02*
X89011343Y-72142657I86824J492404D01*
G01*
G37*
G36*
G01*
X95261778Y-71823180D02*
X95921642Y-68080910D01*
G75*
G02*
X97080098Y-67269750I984808J-173648D01*
G01*
X97080098Y-67269750D01*
G75*
G02*
X97891258Y-68428206I-173648J-984808D01*
G01*
X97231394Y-72170476D01*
G75*
G02*
X96072938Y-72981636I-984808J173648D01*
G01*
X96072938Y-72981636D01*
G75*
G02*
X95261778Y-71823180I173648J984808D01*
G01*
G37*
G36*
G01*
X85683217Y-71149647D02*
X85683217Y-71149647D01*
G75*
G02*
X85561543Y-70975879I26047J147721D01*
G01*
X86516607Y-65559437D01*
G75*
G02*
X86690375Y-65437763I147721J-26047D01*
G01*
X86690375Y-65437763D01*
G75*
G02*
X86812049Y-65611531I-26047J-147721D01*
G01*
X85856985Y-71027973D01*
G75*
G02*
X85683217Y-71149647I-147721J26047D01*
G01*
G37*
%TD*%
%TO.C,U2*%
X68810748Y-65483728D03*
X79249710Y-67324398D03*
X67809375Y-75309111D03*
X74237316Y-76747158D03*
G36*
G01*
X67444275Y-70066058D02*
X67444275Y-70066058D01*
G75*
G02*
X70803797Y-67713696I2855942J-503580D01*
G01*
X76614163Y-68738220D01*
G75*
G02*
X78966525Y-72097742I-503580J-2855942D01*
G01*
X78966525Y-72097742D01*
G75*
G02*
X75607003Y-74450104I-2855942J503580D01*
G01*
X69796637Y-73425580D01*
G75*
G02*
X67444275Y-70066058I503580J2855942D01*
G01*
G37*
G36*
G01*
X67921808Y-67357836D02*
X67921808Y-67357836D01*
G75*
G02*
X68095576Y-67236162I147721J-26047D01*
G01*
X79322384Y-69215752D01*
G75*
G02*
X79444058Y-69389520I-26047J-147721D01*
G01*
X79444058Y-69389520D01*
G75*
G02*
X79270290Y-69511194I-147721J26047D01*
G01*
X68043482Y-67531604D01*
G75*
G02*
X67921808Y-67357836I26047J147721D01*
G01*
G37*
G36*
G01*
X70477442Y-74459508D02*
X70477442Y-74459508D01*
G75*
G02*
X70355768Y-74285740I26047J147721D01*
G01*
X70494686Y-73497894D01*
G75*
G02*
X70668454Y-73376220I147721J-26047D01*
G01*
X70668454Y-73376220D01*
G75*
G02*
X70790128Y-73549988I-26047J-147721D01*
G01*
X70651210Y-74337834D01*
G75*
G02*
X70477442Y-74459508I-147721J26047D01*
G01*
G37*
G36*
G01*
X78315226Y-74927636D02*
X78315226Y-74927636D01*
G75*
G02*
X78193552Y-74753868I26047J147721D01*
G01*
X79148616Y-69337426D01*
G75*
G02*
X79322384Y-69215752I147721J-26047D01*
G01*
X79322384Y-69215752D01*
G75*
G02*
X79444058Y-69389520I-26047J-147721D01*
G01*
X78488994Y-74805962D01*
G75*
G02*
X78315226Y-74927636I-147721J26047D01*
G01*
G37*
G36*
G01*
X74613634Y-75188830D02*
X74613634Y-75188830D01*
G75*
G02*
X74491960Y-75015062I26047J147721D01*
G01*
X74630878Y-74227216D01*
G75*
G02*
X74804646Y-74105542I147721J-26047D01*
G01*
X74804646Y-74105542D01*
G75*
G02*
X74926320Y-74279310I-26047J-147721D01*
G01*
X74787402Y-75067156D01*
G75*
G02*
X74613634Y-75188830I-147721J26047D01*
G01*
G37*
G36*
G01*
X66966743Y-72774279D02*
X66966743Y-72774279D01*
G75*
G02*
X67140511Y-72652605I147721J-26047D01*
G01*
X78367319Y-74632195D01*
G75*
G02*
X78488993Y-74805963I-26047J-147721D01*
G01*
X78488993Y-74805963D01*
G75*
G02*
X78315225Y-74927637I-147721J26047D01*
G01*
X67088417Y-72948047D01*
G75*
G02*
X66966743Y-72774279I26047J147721D01*
G01*
G37*
G36*
G01*
X70355768Y-74285740D02*
X70355768Y-74285740D01*
G75*
G02*
X70529536Y-74164066I147721J-26047D01*
G01*
X74665728Y-74893388D01*
G75*
G02*
X74787402Y-75067156I-26047J-147721D01*
G01*
X74787402Y-75067156D01*
G75*
G02*
X74613634Y-75188830I-147721J26047D01*
G01*
X70477442Y-74459508D01*
G75*
G02*
X70355768Y-74285740I26047J147721D01*
G01*
G37*
G36*
G01*
X67114343Y-71937193D02*
X67774207Y-68194923D01*
G75*
G02*
X68932663Y-67383763I984808J-173648D01*
G01*
X68932663Y-67383763D01*
G75*
G02*
X69743823Y-68542219I-173648J-984808D01*
G01*
X69083959Y-72284489D01*
G75*
G02*
X67925503Y-73095649I-984808J173648D01*
G01*
X67925503Y-73095649D01*
G75*
G02*
X67114343Y-71937193I173648J984808D01*
G01*
G37*
G36*
G01*
X70416543Y-73941057D02*
X70416543Y-73941057D01*
G75*
G02*
X70995771Y-73535477I492404J-86824D01*
G01*
X74442599Y-74143245D01*
G75*
G02*
X74848179Y-74722473I-86824J-492404D01*
G01*
X74848179Y-74722473D01*
G75*
G02*
X74268951Y-75128053I-492404J86824D01*
G01*
X70822123Y-74520285D01*
G75*
G02*
X70416543Y-73941057I86824J492404D01*
G01*
G37*
G36*
G01*
X76666978Y-73621580D02*
X77326842Y-69879310D01*
G75*
G02*
X78485298Y-69068150I984808J-173648D01*
G01*
X78485298Y-69068150D01*
G75*
G02*
X79296458Y-70226606I-173648J-984808D01*
G01*
X78636594Y-73968876D01*
G75*
G02*
X77478138Y-74780036I-984808J173648D01*
G01*
X77478138Y-74780036D01*
G75*
G02*
X76666978Y-73621580I173648J984808D01*
G01*
G37*
G36*
G01*
X67088417Y-72948047D02*
X67088417Y-72948047D01*
G75*
G02*
X66966743Y-72774279I26047J147721D01*
G01*
X67921807Y-67357837D01*
G75*
G02*
X68095575Y-67236163I147721J-26047D01*
G01*
X68095575Y-67236163D01*
G75*
G02*
X68217249Y-67409931I-26047J-147721D01*
G01*
X67262185Y-72826373D01*
G75*
G02*
X67088417Y-72948047I-147721J26047D01*
G01*
G37*
%TD*%
%TO.C,U12*%
X47611248Y-82054228D03*
X58050210Y-83894898D03*
X46609875Y-91879611D03*
X53037816Y-93317658D03*
G36*
G01*
X46244775Y-86636558D02*
X46244775Y-86636558D01*
G75*
G02*
X49604297Y-84284196I2855942J-503580D01*
G01*
X55414663Y-85308720D01*
G75*
G02*
X57767025Y-88668242I-503580J-2855942D01*
G01*
X57767025Y-88668242D01*
G75*
G02*
X54407503Y-91020604I-2855942J503580D01*
G01*
X48597137Y-89996080D01*
G75*
G02*
X46244775Y-86636558I503580J2855942D01*
G01*
G37*
G36*
G01*
X46722308Y-83928336D02*
X46722308Y-83928336D01*
G75*
G02*
X46896076Y-83806662I147721J-26047D01*
G01*
X58122884Y-85786252D01*
G75*
G02*
X58244558Y-85960020I-26047J-147721D01*
G01*
X58244558Y-85960020D01*
G75*
G02*
X58070790Y-86081694I-147721J26047D01*
G01*
X46843982Y-84102104D01*
G75*
G02*
X46722308Y-83928336I26047J147721D01*
G01*
G37*
G36*
G01*
X49277942Y-91030008D02*
X49277942Y-91030008D01*
G75*
G02*
X49156268Y-90856240I26047J147721D01*
G01*
X49295186Y-90068394D01*
G75*
G02*
X49468954Y-89946720I147721J-26047D01*
G01*
X49468954Y-89946720D01*
G75*
G02*
X49590628Y-90120488I-26047J-147721D01*
G01*
X49451710Y-90908334D01*
G75*
G02*
X49277942Y-91030008I-147721J26047D01*
G01*
G37*
G36*
G01*
X57115726Y-91498136D02*
X57115726Y-91498136D01*
G75*
G02*
X56994052Y-91324368I26047J147721D01*
G01*
X57949116Y-85907926D01*
G75*
G02*
X58122884Y-85786252I147721J-26047D01*
G01*
X58122884Y-85786252D01*
G75*
G02*
X58244558Y-85960020I-26047J-147721D01*
G01*
X57289494Y-91376462D01*
G75*
G02*
X57115726Y-91498136I-147721J26047D01*
G01*
G37*
G36*
G01*
X53414134Y-91759330D02*
X53414134Y-91759330D01*
G75*
G02*
X53292460Y-91585562I26047J147721D01*
G01*
X53431378Y-90797716D01*
G75*
G02*
X53605146Y-90676042I147721J-26047D01*
G01*
X53605146Y-90676042D01*
G75*
G02*
X53726820Y-90849810I-26047J-147721D01*
G01*
X53587902Y-91637656D01*
G75*
G02*
X53414134Y-91759330I-147721J26047D01*
G01*
G37*
G36*
G01*
X45767243Y-89344779D02*
X45767243Y-89344779D01*
G75*
G02*
X45941011Y-89223105I147721J-26047D01*
G01*
X57167819Y-91202695D01*
G75*
G02*
X57289493Y-91376463I-26047J-147721D01*
G01*
X57289493Y-91376463D01*
G75*
G02*
X57115725Y-91498137I-147721J26047D01*
G01*
X45888917Y-89518547D01*
G75*
G02*
X45767243Y-89344779I26047J147721D01*
G01*
G37*
G36*
G01*
X49156268Y-90856240D02*
X49156268Y-90856240D01*
G75*
G02*
X49330036Y-90734566I147721J-26047D01*
G01*
X53466228Y-91463888D01*
G75*
G02*
X53587902Y-91637656I-26047J-147721D01*
G01*
X53587902Y-91637656D01*
G75*
G02*
X53414134Y-91759330I-147721J26047D01*
G01*
X49277942Y-91030008D01*
G75*
G02*
X49156268Y-90856240I26047J147721D01*
G01*
G37*
G36*
G01*
X45914843Y-88507693D02*
X46574707Y-84765423D01*
G75*
G02*
X47733163Y-83954263I984808J-173648D01*
G01*
X47733163Y-83954263D01*
G75*
G02*
X48544323Y-85112719I-173648J-984808D01*
G01*
X47884459Y-88854989D01*
G75*
G02*
X46726003Y-89666149I-984808J173648D01*
G01*
X46726003Y-89666149D01*
G75*
G02*
X45914843Y-88507693I173648J984808D01*
G01*
G37*
G36*
G01*
X49217043Y-90511557D02*
X49217043Y-90511557D01*
G75*
G02*
X49796271Y-90105977I492404J-86824D01*
G01*
X53243099Y-90713745D01*
G75*
G02*
X53648679Y-91292973I-86824J-492404D01*
G01*
X53648679Y-91292973D01*
G75*
G02*
X53069451Y-91698553I-492404J86824D01*
G01*
X49622623Y-91090785D01*
G75*
G02*
X49217043Y-90511557I86824J492404D01*
G01*
G37*
G36*
G01*
X55467478Y-90192080D02*
X56127342Y-86449810D01*
G75*
G02*
X57285798Y-85638650I984808J-173648D01*
G01*
X57285798Y-85638650D01*
G75*
G02*
X58096958Y-86797106I-173648J-984808D01*
G01*
X57437094Y-90539376D01*
G75*
G02*
X56278638Y-91350536I-984808J173648D01*
G01*
X56278638Y-91350536D01*
G75*
G02*
X55467478Y-90192080I173648J984808D01*
G01*
G37*
G36*
G01*
X45888917Y-89518547D02*
X45888917Y-89518547D01*
G75*
G02*
X45767243Y-89344779I26047J147721D01*
G01*
X46722307Y-83928337D01*
G75*
G02*
X46896075Y-83806663I147721J-26047D01*
G01*
X46896075Y-83806663D01*
G75*
G02*
X47017749Y-83980431I-26047J-147721D01*
G01*
X46062685Y-89396873D01*
G75*
G02*
X45888917Y-89518547I-147721J26047D01*
G01*
G37*
%TD*%
%TO.C,U1*%
X50563348Y-65312428D03*
X61002310Y-67153098D03*
X49561975Y-75137811D03*
X55989916Y-76575858D03*
G36*
G01*
X49196875Y-69894758D02*
X49196875Y-69894758D01*
G75*
G02*
X52556397Y-67542396I2855942J-503580D01*
G01*
X58366763Y-68566920D01*
G75*
G02*
X60719125Y-71926442I-503580J-2855942D01*
G01*
X60719125Y-71926442D01*
G75*
G02*
X57359603Y-74278804I-2855942J503580D01*
G01*
X51549237Y-73254280D01*
G75*
G02*
X49196875Y-69894758I503580J2855942D01*
G01*
G37*
G36*
G01*
X49674408Y-67186536D02*
X49674408Y-67186536D01*
G75*
G02*
X49848176Y-67064862I147721J-26047D01*
G01*
X61074984Y-69044452D01*
G75*
G02*
X61196658Y-69218220I-26047J-147721D01*
G01*
X61196658Y-69218220D01*
G75*
G02*
X61022890Y-69339894I-147721J26047D01*
G01*
X49796082Y-67360304D01*
G75*
G02*
X49674408Y-67186536I26047J147721D01*
G01*
G37*
G36*
G01*
X52230042Y-74288208D02*
X52230042Y-74288208D01*
G75*
G02*
X52108368Y-74114440I26047J147721D01*
G01*
X52247286Y-73326594D01*
G75*
G02*
X52421054Y-73204920I147721J-26047D01*
G01*
X52421054Y-73204920D01*
G75*
G02*
X52542728Y-73378688I-26047J-147721D01*
G01*
X52403810Y-74166534D01*
G75*
G02*
X52230042Y-74288208I-147721J26047D01*
G01*
G37*
G36*
G01*
X60067826Y-74756336D02*
X60067826Y-74756336D01*
G75*
G02*
X59946152Y-74582568I26047J147721D01*
G01*
X60901216Y-69166126D01*
G75*
G02*
X61074984Y-69044452I147721J-26047D01*
G01*
X61074984Y-69044452D01*
G75*
G02*
X61196658Y-69218220I-26047J-147721D01*
G01*
X60241594Y-74634662D01*
G75*
G02*
X60067826Y-74756336I-147721J26047D01*
G01*
G37*
G36*
G01*
X56366234Y-75017530D02*
X56366234Y-75017530D01*
G75*
G02*
X56244560Y-74843762I26047J147721D01*
G01*
X56383478Y-74055916D01*
G75*
G02*
X56557246Y-73934242I147721J-26047D01*
G01*
X56557246Y-73934242D01*
G75*
G02*
X56678920Y-74108010I-26047J-147721D01*
G01*
X56540002Y-74895856D01*
G75*
G02*
X56366234Y-75017530I-147721J26047D01*
G01*
G37*
G36*
G01*
X48719343Y-72602979D02*
X48719343Y-72602979D01*
G75*
G02*
X48893111Y-72481305I147721J-26047D01*
G01*
X60119919Y-74460895D01*
G75*
G02*
X60241593Y-74634663I-26047J-147721D01*
G01*
X60241593Y-74634663D01*
G75*
G02*
X60067825Y-74756337I-147721J26047D01*
G01*
X48841017Y-72776747D01*
G75*
G02*
X48719343Y-72602979I26047J147721D01*
G01*
G37*
G36*
G01*
X52108368Y-74114440D02*
X52108368Y-74114440D01*
G75*
G02*
X52282136Y-73992766I147721J-26047D01*
G01*
X56418328Y-74722088D01*
G75*
G02*
X56540002Y-74895856I-26047J-147721D01*
G01*
X56540002Y-74895856D01*
G75*
G02*
X56366234Y-75017530I-147721J26047D01*
G01*
X52230042Y-74288208D01*
G75*
G02*
X52108368Y-74114440I26047J147721D01*
G01*
G37*
G36*
G01*
X48866943Y-71765893D02*
X49526807Y-68023623D01*
G75*
G02*
X50685263Y-67212463I984808J-173648D01*
G01*
X50685263Y-67212463D01*
G75*
G02*
X51496423Y-68370919I-173648J-984808D01*
G01*
X50836559Y-72113189D01*
G75*
G02*
X49678103Y-72924349I-984808J173648D01*
G01*
X49678103Y-72924349D01*
G75*
G02*
X48866943Y-71765893I173648J984808D01*
G01*
G37*
G36*
G01*
X52169143Y-73769757D02*
X52169143Y-73769757D01*
G75*
G02*
X52748371Y-73364177I492404J-86824D01*
G01*
X56195199Y-73971945D01*
G75*
G02*
X56600779Y-74551173I-86824J-492404D01*
G01*
X56600779Y-74551173D01*
G75*
G02*
X56021551Y-74956753I-492404J86824D01*
G01*
X52574723Y-74348985D01*
G75*
G02*
X52169143Y-73769757I86824J492404D01*
G01*
G37*
G36*
G01*
X58419578Y-73450280D02*
X59079442Y-69708010D01*
G75*
G02*
X60237898Y-68896850I984808J-173648D01*
G01*
X60237898Y-68896850D01*
G75*
G02*
X61049058Y-70055306I-173648J-984808D01*
G01*
X60389194Y-73797576D01*
G75*
G02*
X59230738Y-74608736I-984808J173648D01*
G01*
X59230738Y-74608736D01*
G75*
G02*
X58419578Y-73450280I173648J984808D01*
G01*
G37*
G36*
G01*
X48841017Y-72776747D02*
X48841017Y-72776747D01*
G75*
G02*
X48719343Y-72602979I26047J147721D01*
G01*
X49674407Y-67186537D01*
G75*
G02*
X49848175Y-67064863I147721J-26047D01*
G01*
X49848175Y-67064863D01*
G75*
G02*
X49969849Y-67238631I-26047J-147721D01*
G01*
X49014785Y-72655073D01*
G75*
G02*
X48841017Y-72776747I-147721J26047D01*
G01*
G37*
%TD*%
D11*
%TO.C,J2*%
X153250000Y-67645000D03*
X152450000Y-67645000D03*
X147550000Y-67645000D03*
X146750000Y-67645000D03*
X146750000Y-67645000D03*
X147550000Y-67645000D03*
X152450000Y-67645000D03*
X153250000Y-67645000D03*
D12*
X148250000Y-67645000D03*
X148750000Y-67645000D03*
X149250000Y-67645000D03*
X150250000Y-67645000D03*
X150750000Y-67645000D03*
X151250000Y-67645000D03*
X151750000Y-67645000D03*
X149750000Y-67645000D03*
D13*
X154320000Y-66730000D03*
X145680000Y-66730000D03*
D14*
X147110000Y-66200000D03*
D15*
X145680000Y-62550000D03*
D14*
X152890000Y-66200000D03*
D15*
X154320000Y-62550000D03*
%TD*%
%TO.C,J3*%
G36*
G01*
X152839714Y-109856634D02*
X152839714Y-109856634D01*
G75*
G02*
X153824402Y-109167148I837087J-147601D01*
G01*
X153824402Y-109167148D01*
G75*
G02*
X154513888Y-110151836I-147601J-837087D01*
G01*
X154513888Y-110151836D01*
G75*
G02*
X153529200Y-110841322I-837087J147601D01*
G01*
X153529200Y-110841322D01*
G75*
G02*
X152839714Y-109856634I147601J837087D01*
G01*
G37*
G36*
G01*
X153280780Y-107355222D02*
X153280780Y-107355222D01*
G75*
G02*
X154265468Y-106665736I837087J-147601D01*
G01*
X154265468Y-106665736D01*
G75*
G02*
X154954954Y-107650424I-147601J-837087D01*
G01*
X154954954Y-107650424D01*
G75*
G02*
X153970266Y-108339910I-837087J147601D01*
G01*
X153970266Y-108339910D01*
G75*
G02*
X153280780Y-107355222I147601J837087D01*
G01*
G37*
G36*
G01*
X153721847Y-104853811D02*
X153721847Y-104853811D01*
G75*
G02*
X154706535Y-104164325I837087J-147601D01*
G01*
X154706535Y-104164325D01*
G75*
G02*
X155396021Y-105149013I-147601J-837087D01*
G01*
X155396021Y-105149013D01*
G75*
G02*
X154411333Y-105838499I-837087J147601D01*
G01*
X154411333Y-105838499D01*
G75*
G02*
X153721847Y-104853811I147601J837087D01*
G01*
G37*
D16*
G36*
X154015312Y-103189486D02*
G01*
X154310514Y-101515312D01*
X155984688Y-101810514D01*
X155689486Y-103484688D01*
X154015312Y-103189486D01*
G37*
%TD*%
D17*
%TO.C,H10*%
X150000000Y-75000000D03*
%TD*%
%TO.C,H9*%
X180000000Y-62500000D03*
%TD*%
%TO.C,H8*%
X120000000Y-62500000D03*
%TD*%
%TO.C,H7*%
X235000000Y-62500000D03*
%TD*%
%TO.C,H6*%
X65000000Y-62500000D03*
%TD*%
%TO.C,H5*%
X150000000Y-142500000D03*
%TD*%
%TO.C,H4*%
X245000000Y-130000000D03*
%TD*%
%TO.C,H3*%
X195000000Y-140000000D03*
%TD*%
%TO.C,H2*%
X105000000Y-140000000D03*
%TD*%
%TO.C,H1*%
X55000000Y-130000000D03*
%TD*%
D16*
%TO.C,U45*%
G36*
X144739302Y-97856455D02*
G01*
X145724110Y-98030104D01*
X145611238Y-98670229D01*
X144626430Y-98496580D01*
X144739302Y-97856455D01*
G37*
G36*
X135086508Y-94091060D02*
G01*
X136071316Y-94264709D01*
X135958444Y-94904834D01*
X134973636Y-94731185D01*
X135086508Y-94091060D01*
G37*
G36*
X134865975Y-95341766D02*
G01*
X135850783Y-95515415D01*
X135737911Y-96155540D01*
X134753103Y-95981891D01*
X134865975Y-95341766D01*
G37*
G36*
X134645442Y-96592472D02*
G01*
X135630250Y-96766121D01*
X135517378Y-97406246D01*
X134532570Y-97232597D01*
X134645442Y-96592472D01*
G37*
G36*
X134424909Y-97843177D02*
G01*
X135409717Y-98016826D01*
X135296845Y-98656951D01*
X134312037Y-98483302D01*
X134424909Y-97843177D01*
G37*
G36*
X134204375Y-99093883D02*
G01*
X135189183Y-99267532D01*
X135076311Y-99907657D01*
X134091503Y-99734008D01*
X134204375Y-99093883D01*
G37*
G36*
X133983842Y-100344589D02*
G01*
X134968650Y-100518238D01*
X134855778Y-101158363D01*
X133870970Y-100984714D01*
X133983842Y-100344589D01*
G37*
G36*
X133763309Y-101595295D02*
G01*
X134748117Y-101768944D01*
X134635245Y-102409069D01*
X133650437Y-102235420D01*
X133763309Y-101595295D01*
G37*
G36*
X133542776Y-102846001D02*
G01*
X134527584Y-103019650D01*
X134414712Y-103659775D01*
X133429904Y-103486126D01*
X133542776Y-102846001D01*
G37*
G36*
X133322243Y-104096707D02*
G01*
X134307051Y-104270356D01*
X134194179Y-104910481D01*
X133209371Y-104736832D01*
X133322243Y-104096707D01*
G37*
G36*
X133101709Y-105347413D02*
G01*
X134086517Y-105521062D01*
X133973645Y-106161187D01*
X132988837Y-105987538D01*
X133101709Y-105347413D01*
G37*
G36*
X146476986Y-99968284D02*
G01*
X147461794Y-100141933D01*
X147348922Y-100782058D01*
X146364114Y-100608409D01*
X146476986Y-99968284D01*
G37*
G36*
X145153787Y-107472519D02*
G01*
X146138595Y-107646168D01*
X146025723Y-108286293D01*
X145040915Y-108112644D01*
X145153787Y-107472519D01*
G37*
G36*
X146256453Y-101218990D02*
G01*
X147241261Y-101392639D01*
X147128389Y-102032764D01*
X146143581Y-101859115D01*
X146256453Y-101218990D01*
G37*
G36*
X145374320Y-106221813D02*
G01*
X146359128Y-106395462D01*
X146246256Y-107035587D01*
X145261448Y-106861938D01*
X145374320Y-106221813D01*
G37*
G36*
X145594853Y-104971107D02*
G01*
X146579661Y-105144756D01*
X146466789Y-105784881D01*
X145481981Y-105611232D01*
X145594853Y-104971107D01*
G37*
G36*
X145815386Y-103720401D02*
G01*
X146800194Y-103894050D01*
X146687322Y-104534175D01*
X145702514Y-104360526D01*
X145815386Y-103720401D01*
G37*
G36*
X146697519Y-98717578D02*
G01*
X147682327Y-98891227D01*
X147569455Y-99531352D01*
X146584647Y-99357703D01*
X146697519Y-98717578D01*
G37*
G36*
X146035919Y-102469696D02*
G01*
X147020727Y-102643345D01*
X146907855Y-103283470D01*
X145923047Y-103109821D01*
X146035919Y-102469696D01*
G37*
G36*
X146918052Y-97466872D02*
G01*
X147902860Y-97640521D01*
X147789988Y-98280646D01*
X146805180Y-98106997D01*
X146918052Y-97466872D01*
G37*
G36*
X147138585Y-96216166D02*
G01*
X148123393Y-96389815D01*
X148010521Y-97029940D01*
X147025713Y-96856291D01*
X147138585Y-96216166D01*
G37*
G36*
X145442871Y-93486236D02*
G01*
X145269222Y-94471044D01*
X144629097Y-94358172D01*
X144802746Y-93373364D01*
X145442871Y-93486236D01*
G37*
G36*
X137938636Y-92163036D02*
G01*
X137764987Y-93147844D01*
X137124862Y-93034972D01*
X137298511Y-92050164D01*
X137938636Y-92163036D01*
G37*
G36*
X144192166Y-93265702D02*
G01*
X144018517Y-94250510D01*
X143378392Y-94137638D01*
X143552041Y-93152830D01*
X144192166Y-93265702D01*
G37*
G36*
X139189342Y-92383570D02*
G01*
X139015693Y-93368378D01*
X138375568Y-93255506D01*
X138549217Y-92270698D01*
X139189342Y-92383570D01*
G37*
G36*
X140440048Y-92604103D02*
G01*
X140266399Y-93588911D01*
X139626274Y-93476039D01*
X139799923Y-92491231D01*
X140440048Y-92604103D01*
G37*
G36*
X141690754Y-92824636D02*
G01*
X141517105Y-93809444D01*
X140876980Y-93696572D01*
X141050629Y-92711764D01*
X141690754Y-92824636D01*
G37*
G36*
X146693577Y-93706769D02*
G01*
X146519928Y-94691577D01*
X145879803Y-94578705D01*
X146053452Y-93593897D01*
X146693577Y-93706769D01*
G37*
G36*
X142941460Y-93045169D02*
G01*
X142767811Y-94029977D01*
X142127686Y-93917105D01*
X142301335Y-92932297D01*
X142941460Y-93045169D01*
G37*
G36*
X144518769Y-99107161D02*
G01*
X145503577Y-99280810D01*
X145390705Y-99920935D01*
X144405897Y-99747286D01*
X144518769Y-99107161D01*
G37*
G36*
X144298235Y-100357866D02*
G01*
X145283043Y-100531515D01*
X145170171Y-101171640D01*
X144185363Y-100997991D01*
X144298235Y-100357866D01*
G37*
G36*
X144077702Y-101608572D02*
G01*
X145062510Y-101782221D01*
X144949638Y-102422346D01*
X143964830Y-102248697D01*
X144077702Y-101608572D01*
G37*
G36*
X143857169Y-102859278D02*
G01*
X144841977Y-103032927D01*
X144729105Y-103673052D01*
X143744297Y-103499403D01*
X143857169Y-102859278D01*
G37*
G36*
X143636636Y-104109984D02*
G01*
X144621444Y-104283633D01*
X144508572Y-104923758D01*
X143523764Y-104750109D01*
X143636636Y-104109984D01*
G37*
G36*
X143416103Y-105360690D02*
G01*
X144400911Y-105534339D01*
X144288039Y-106174464D01*
X143303231Y-106000815D01*
X143416103Y-105360690D01*
G37*
G36*
X143195569Y-106611396D02*
G01*
X144180377Y-106785045D01*
X144067505Y-107425170D01*
X143082697Y-107251521D01*
X143195569Y-106611396D01*
G37*
G36*
X139519553Y-94179190D02*
G01*
X139345904Y-95163998D01*
X138705779Y-95051126D01*
X138879428Y-94066318D01*
X139519553Y-94179190D01*
G37*
G36*
X138268847Y-93958656D02*
G01*
X138095198Y-94943464D01*
X137455073Y-94830592D01*
X137628722Y-93845784D01*
X138268847Y-93958656D01*
G37*
G36*
X143271670Y-94840789D02*
G01*
X143098021Y-95825597D01*
X142457896Y-95712725D01*
X142631545Y-94727917D01*
X143271670Y-94840789D01*
G37*
G36*
X140770259Y-94399723D02*
G01*
X140596610Y-95384531D01*
X139956485Y-95271659D01*
X140130134Y-94286851D01*
X140770259Y-94399723D01*
G37*
G36*
X144522376Y-95061322D02*
G01*
X144348727Y-96046130D01*
X143708602Y-95933258D01*
X143882251Y-94948450D01*
X144522376Y-95061322D01*
G37*
G36*
X145773082Y-95281855D02*
G01*
X145599433Y-96266663D01*
X144959308Y-96153791D01*
X145132957Y-95168983D01*
X145773082Y-95281855D01*
G37*
G36*
X142020964Y-94620256D02*
G01*
X141847315Y-95605064D01*
X141207190Y-95492192D01*
X141380839Y-94507384D01*
X142020964Y-94620256D01*
G37*
%TD*%
%TO.C,Y1*%
G36*
X140610705Y-88217557D02*
G01*
X140298139Y-89990211D01*
X139313331Y-89816563D01*
X139625897Y-88043909D01*
X140610705Y-88217557D01*
G37*
G36*
X138148685Y-87783437D02*
G01*
X137836119Y-89556091D01*
X136851311Y-89382443D01*
X137163877Y-87609789D01*
X138148685Y-87783437D01*
G37*
%TD*%
%TO.C,U46*%
G36*
X167110767Y-76934076D02*
G01*
X166997896Y-76293951D01*
X168199361Y-76082100D01*
X168312232Y-76722225D01*
X167110767Y-76934076D01*
G37*
G36*
X166780835Y-75062942D02*
G01*
X166667964Y-74422817D01*
X167869429Y-74210966D01*
X167982300Y-74851091D01*
X166780835Y-75062942D01*
G37*
G36*
X164200639Y-75517900D02*
G01*
X164087768Y-74877775D01*
X165289233Y-74665924D01*
X165402104Y-75306049D01*
X164200639Y-75517900D01*
G37*
G36*
X164365605Y-76453467D02*
G01*
X164252734Y-75813342D01*
X165454199Y-75601491D01*
X165567070Y-76241616D01*
X164365605Y-76453467D01*
G37*
G36*
X164530571Y-77389034D02*
G01*
X164417700Y-76748909D01*
X165619165Y-76537058D01*
X165732036Y-77177183D01*
X164530571Y-77389034D01*
G37*
%TD*%
D18*
%TO.C,SW2*%
X131600000Y-65200000D03*
X137800000Y-65200000D03*
X131600000Y-61500000D03*
X137800000Y-61500000D03*
%TD*%
D19*
%TO.C,SW1*%
X166200000Y-61400000D03*
X166200000Y-63600000D03*
X158800000Y-63600000D03*
X158800000Y-61400000D03*
D20*
X160250000Y-64575000D03*
X164750000Y-64575000D03*
X163250000Y-64575000D03*
D21*
X164000000Y-62500000D03*
X161000000Y-62500000D03*
%TD*%
%TO.C,R6*%
G36*
G01*
X169546237Y-75478761D02*
X170087881Y-75383254D01*
G75*
G02*
X170319573Y-75545486I34730J-196962D01*
G01*
X170389033Y-75939409D01*
G75*
G02*
X170226801Y-76171101I-196962J-34730D01*
G01*
X169685157Y-76266608D01*
G75*
G02*
X169453465Y-76104376I-34730J196962D01*
G01*
X169384005Y-75710453D01*
G75*
G02*
X169546237Y-75478761I196962J34730D01*
G01*
G37*
G36*
G01*
X169259717Y-73853829D02*
X169801361Y-73758322D01*
G75*
G02*
X170033053Y-73920554I34730J-196962D01*
G01*
X170102513Y-74314477D01*
G75*
G02*
X169940281Y-74546169I-196962J-34730D01*
G01*
X169398637Y-74641676D01*
G75*
G02*
X169166945Y-74479444I-34730J196962D01*
G01*
X169097485Y-74085521D01*
G75*
G02*
X169259717Y-73853829I196962J34730D01*
G01*
G37*
%TD*%
%TO.C,R5*%
G36*
G01*
X156725000Y-65425000D02*
X157275000Y-65425000D01*
G75*
G02*
X157475000Y-65625000I0J-200000D01*
G01*
X157475000Y-66025000D01*
G75*
G02*
X157275000Y-66225000I-200000J0D01*
G01*
X156725000Y-66225000D01*
G75*
G02*
X156525000Y-66025000I0J200000D01*
G01*
X156525000Y-65625000D01*
G75*
G02*
X156725000Y-65425000I200000J0D01*
G01*
G37*
G36*
G01*
X156725000Y-63775000D02*
X157275000Y-63775000D01*
G75*
G02*
X157475000Y-63975000I0J-200000D01*
G01*
X157475000Y-64375000D01*
G75*
G02*
X157275000Y-64575000I-200000J0D01*
G01*
X156725000Y-64575000D01*
G75*
G02*
X156525000Y-64375000I0J200000D01*
G01*
X156525000Y-63975000D01*
G75*
G02*
X156725000Y-63775000I200000J0D01*
G01*
G37*
%TD*%
%TO.C,R4*%
G36*
G01*
X141775000Y-67325000D02*
X141775000Y-67875000D01*
G75*
G02*
X141575000Y-68075000I-200000J0D01*
G01*
X141175000Y-68075000D01*
G75*
G02*
X140975000Y-67875000I0J200000D01*
G01*
X140975000Y-67325000D01*
G75*
G02*
X141175000Y-67125000I200000J0D01*
G01*
X141575000Y-67125000D01*
G75*
G02*
X141775000Y-67325000I0J-200000D01*
G01*
G37*
G36*
G01*
X143425000Y-67325000D02*
X143425000Y-67875000D01*
G75*
G02*
X143225000Y-68075000I-200000J0D01*
G01*
X142825000Y-68075000D01*
G75*
G02*
X142625000Y-67875000I0J200000D01*
G01*
X142625000Y-67325000D01*
G75*
G02*
X142825000Y-67125000I200000J0D01*
G01*
X143225000Y-67125000D01*
G75*
G02*
X143425000Y-67325000I0J-200000D01*
G01*
G37*
%TD*%
%TO.C,R3*%
G36*
G01*
X158200000Y-67875001D02*
X158200000Y-67325001D01*
G75*
G02*
X158400000Y-67125001I200000J0D01*
G01*
X158800000Y-67125001D01*
G75*
G02*
X159000000Y-67325001I0J-200000D01*
G01*
X159000000Y-67875001D01*
G75*
G02*
X158800000Y-68075001I-200000J0D01*
G01*
X158400000Y-68075001D01*
G75*
G02*
X158200000Y-67875001I0J200000D01*
G01*
G37*
G36*
G01*
X156550000Y-67875001D02*
X156550000Y-67325001D01*
G75*
G02*
X156750000Y-67125001I200000J0D01*
G01*
X157150000Y-67125001D01*
G75*
G02*
X157350000Y-67325001I0J-200000D01*
G01*
X157350000Y-67875001D01*
G75*
G02*
X157150000Y-68075001I-200000J0D01*
G01*
X156750000Y-68075001D01*
G75*
G02*
X156550000Y-67875001I0J200000D01*
G01*
G37*
%TD*%
%TO.C,R2*%
G36*
G01*
X140925000Y-65425000D02*
X141475000Y-65425000D01*
G75*
G02*
X141675000Y-65625000I0J-200000D01*
G01*
X141675000Y-66025000D01*
G75*
G02*
X141475000Y-66225000I-200000J0D01*
G01*
X140925000Y-66225000D01*
G75*
G02*
X140725000Y-66025000I0J200000D01*
G01*
X140725000Y-65625000D01*
G75*
G02*
X140925000Y-65425000I200000J0D01*
G01*
G37*
G36*
G01*
X140925000Y-63775000D02*
X141475000Y-63775000D01*
G75*
G02*
X141675000Y-63975000I0J-200000D01*
G01*
X141675000Y-64375000D01*
G75*
G02*
X141475000Y-64575000I-200000J0D01*
G01*
X140925000Y-64575000D01*
G75*
G02*
X140725000Y-64375000I0J200000D01*
G01*
X140725000Y-63975000D01*
G75*
G02*
X140925000Y-63775000I200000J0D01*
G01*
G37*
%TD*%
%TO.C,R1*%
G36*
G01*
X142725000Y-65425000D02*
X143275000Y-65425000D01*
G75*
G02*
X143475000Y-65625000I0J-200000D01*
G01*
X143475000Y-66025000D01*
G75*
G02*
X143275000Y-66225000I-200000J0D01*
G01*
X142725000Y-66225000D01*
G75*
G02*
X142525000Y-66025000I0J200000D01*
G01*
X142525000Y-65625000D01*
G75*
G02*
X142725000Y-65425000I200000J0D01*
G01*
G37*
G36*
G01*
X142725000Y-63775000D02*
X143275000Y-63775000D01*
G75*
G02*
X143475000Y-63975000I0J-200000D01*
G01*
X143475000Y-64375000D01*
G75*
G02*
X143275000Y-64575000I-200000J0D01*
G01*
X142725000Y-64575000D01*
G75*
G02*
X142525000Y-64375000I0J200000D01*
G01*
X142525000Y-63975000D01*
G75*
G02*
X142725000Y-63775000I200000J0D01*
G01*
G37*
%TD*%
%TO.C,L1*%
G36*
G01*
X145204342Y-90531511D02*
X145071935Y-91282426D01*
G75*
G02*
X144818522Y-91459867I-215427J37986D01*
G01*
X144387669Y-91383896D01*
G75*
G02*
X144210228Y-91130483I37986J215427D01*
G01*
X144342635Y-90379568D01*
G75*
G02*
X144596048Y-90202127I215427J-37986D01*
G01*
X145026901Y-90278098D01*
G75*
G02*
X145204342Y-90531511I-37986J-215427D01*
G01*
G37*
G36*
G01*
X147297058Y-90900513D02*
X147164651Y-91651428D01*
G75*
G02*
X146911238Y-91828869I-215427J37986D01*
G01*
X146480385Y-91752898D01*
G75*
G02*
X146302944Y-91499485I37986J215427D01*
G01*
X146435351Y-90748570D01*
G75*
G02*
X146688764Y-90571129I215427J-37986D01*
G01*
X147119617Y-90647100D01*
G75*
G02*
X147297058Y-90900513I-37986J-215427D01*
G01*
G37*
%TD*%
%TO.C,J1*%
G36*
G01*
X161662912Y-80147601D02*
X161662912Y-80147601D01*
G75*
G02*
X162352398Y-79162913I837087J147601D01*
G01*
X162352398Y-79162913D01*
G75*
G02*
X163337086Y-79852399I147601J-837087D01*
G01*
X163337086Y-79852399D01*
G75*
G02*
X162647600Y-80837087I-837087J-147601D01*
G01*
X162647600Y-80837087D01*
G75*
G02*
X161662912Y-80147601I-147601J837087D01*
G01*
G37*
D16*
G36*
X161369447Y-78483276D02*
G01*
X161074245Y-76809102D01*
X162748419Y-76513900D01*
X163043621Y-78188074D01*
X161369447Y-78483276D01*
G37*
%TD*%
%TO.C,D3*%
G36*
G01*
X157256250Y-61650000D02*
X156743750Y-61650000D01*
G75*
G02*
X156525000Y-61431250I0J218750D01*
G01*
X156525000Y-60993750D01*
G75*
G02*
X156743750Y-60775000I218750J0D01*
G01*
X157256250Y-60775000D01*
G75*
G02*
X157475000Y-60993750I0J-218750D01*
G01*
X157475000Y-61431250D01*
G75*
G02*
X157256250Y-61650000I-218750J0D01*
G01*
G37*
G36*
G01*
X157256250Y-63225000D02*
X156743750Y-63225000D01*
G75*
G02*
X156525000Y-63006250I0J218750D01*
G01*
X156525000Y-62568750D01*
G75*
G02*
X156743750Y-62350000I218750J0D01*
G01*
X157256250Y-62350000D01*
G75*
G02*
X157475000Y-62568750I0J-218750D01*
G01*
X157475000Y-63006250D01*
G75*
G02*
X157256250Y-63225000I-218750J0D01*
G01*
G37*
%TD*%
%TO.C,D2*%
G36*
G01*
X141456250Y-61650000D02*
X140943750Y-61650000D01*
G75*
G02*
X140725000Y-61431250I0J218750D01*
G01*
X140725000Y-60993750D01*
G75*
G02*
X140943750Y-60775000I218750J0D01*
G01*
X141456250Y-60775000D01*
G75*
G02*
X141675000Y-60993750I0J-218750D01*
G01*
X141675000Y-61431250D01*
G75*
G02*
X141456250Y-61650000I-218750J0D01*
G01*
G37*
G36*
G01*
X141456250Y-63225000D02*
X140943750Y-63225000D01*
G75*
G02*
X140725000Y-63006250I0J218750D01*
G01*
X140725000Y-62568750D01*
G75*
G02*
X140943750Y-62350000I218750J0D01*
G01*
X141456250Y-62350000D01*
G75*
G02*
X141675000Y-62568750I0J-218750D01*
G01*
X141675000Y-63006250D01*
G75*
G02*
X141456250Y-63225000I-218750J0D01*
G01*
G37*
%TD*%
%TO.C,D1*%
G36*
G01*
X143256250Y-61650000D02*
X142743750Y-61650000D01*
G75*
G02*
X142525000Y-61431250I0J218750D01*
G01*
X142525000Y-60993750D01*
G75*
G02*
X142743750Y-60775000I218750J0D01*
G01*
X143256250Y-60775000D01*
G75*
G02*
X143475000Y-60993750I0J-218750D01*
G01*
X143475000Y-61431250D01*
G75*
G02*
X143256250Y-61650000I-218750J0D01*
G01*
G37*
G36*
G01*
X143256250Y-63225000D02*
X142743750Y-63225000D01*
G75*
G02*
X142525000Y-63006250I0J218750D01*
G01*
X142525000Y-62568750D01*
G75*
G02*
X142743750Y-62350000I218750J0D01*
G01*
X143256250Y-62350000D01*
G75*
G02*
X143475000Y-62568750I0J-218750D01*
G01*
X143475000Y-63006250D01*
G75*
G02*
X143256250Y-63225000I-218750J0D01*
G01*
G37*
%TD*%
%TO.C,C3*%
G36*
G01*
X145560124Y-88762786D02*
X145473300Y-89255190D01*
G75*
G02*
X145212647Y-89437701I-221582J39071D01*
G01*
X144769483Y-89359559D01*
G75*
G02*
X144586972Y-89098906I39071J221582D01*
G01*
X144673796Y-88606502D01*
G75*
G02*
X144934449Y-88423991I221582J-39071D01*
G01*
X145377613Y-88502133D01*
G75*
G02*
X145560124Y-88762786I-39071J-221582D01*
G01*
G37*
G36*
G01*
X147086576Y-89031940D02*
X146999752Y-89524344D01*
G75*
G02*
X146739099Y-89706855I-221582J39071D01*
G01*
X146295935Y-89628713D01*
G75*
G02*
X146113424Y-89368060I39071J221582D01*
G01*
X146200248Y-88875656D01*
G75*
G02*
X146460901Y-88693145I221582J-39071D01*
G01*
X146904065Y-88771287D01*
G75*
G02*
X147086576Y-89031940I-39071J-221582D01*
G01*
G37*
%TD*%
%TO.C,C2*%
G36*
G01*
X141631940Y-89513424D02*
X142124344Y-89600248D01*
G75*
G02*
X142306855Y-89860901I-39071J-221582D01*
G01*
X142228713Y-90304065D01*
G75*
G02*
X141968060Y-90486576I-221582J39071D01*
G01*
X141475656Y-90399752D01*
G75*
G02*
X141293145Y-90139099I39071J221582D01*
G01*
X141371287Y-89695935D01*
G75*
G02*
X141631940Y-89513424I221582J-39071D01*
G01*
G37*
G36*
G01*
X141901094Y-87986972D02*
X142393498Y-88073796D01*
G75*
G02*
X142576009Y-88334449I-39071J-221582D01*
G01*
X142497867Y-88777613D01*
G75*
G02*
X142237214Y-88960124I-221582J39071D01*
G01*
X141744810Y-88873300D01*
G75*
G02*
X141562299Y-88612647I39071J221582D01*
G01*
X141640441Y-88169483D01*
G75*
G02*
X141901094Y-87986972I221582J-39071D01*
G01*
G37*
%TD*%
%TO.C,C1*%
G36*
G01*
X135702637Y-87723350D02*
X135210233Y-87636526D01*
G75*
G02*
X135027722Y-87375873I39071J221582D01*
G01*
X135105864Y-86932709D01*
G75*
G02*
X135366517Y-86750198I221582J-39071D01*
G01*
X135858921Y-86837022D01*
G75*
G02*
X136041432Y-87097675I-39071J-221582D01*
G01*
X135963290Y-87540839D01*
G75*
G02*
X135702637Y-87723350I-221582J39071D01*
G01*
G37*
G36*
G01*
X135433483Y-89249802D02*
X134941079Y-89162978D01*
G75*
G02*
X134758568Y-88902325I39071J221582D01*
G01*
X134836710Y-88459161D01*
G75*
G02*
X135097363Y-88276650I221582J-39071D01*
G01*
X135589767Y-88363474D01*
G75*
G02*
X135772278Y-88624127I-39071J-221582D01*
G01*
X135694136Y-89067291D01*
G75*
G02*
X135433483Y-89249802I-221582J39071D01*
G01*
G37*
%TD*%
D22*
%TO.C,LS1*%
X150000000Y-120900000D03*
X150000000Y-134100000D03*
%TD*%
M02*
