M48
; DRILL file {KiCad (5.1.10)-1} date 10/03/21 17:33:35
; FORMAT={-:-/ absolute / inch / decimal}
; #@! TF.CreationDate,2021-10-03T17:33:35-06:00
; #@! TF.GenerationSoftware,Kicad,Pcbnew,(5.1.10)-1
; #@! TF.FileFunction,NonPlated,1,2,NPTH
FMAT,2
INCH
T1C0.0256
T2C0.0354
T3C0.0390
T4C0.0670
T5C0.1181
T6C0.1350
%
G90
G05
T1
X5.7917Y-2.622
X6.0193Y-2.622
T2
X6.4632Y-4.0386
X6.4837Y-4.1549
T3
X2.0461Y-4.642
X2.1624Y-3.9828
X2.2786Y-3.3237
X2.3948Y-2.6646
X2.7645Y-4.6487
X2.8808Y-3.9896
X2.997Y-3.3305
X3.1132Y-2.6713
X3.4966Y-4.5779
X3.6128Y-3.9188
X3.7291Y-3.2597
X3.8453Y-2.6005
X4.1535Y-4.9336
X4.2697Y-4.2745
X4.3859Y-3.6154
X4.5022Y-2.9562
X4.8241Y-5.2117
X4.9403Y-4.5526
X5.0565Y-3.8935
X5.1727Y-3.2344
X5.5356Y-5.2573
X5.6519Y-4.5981
X6.564Y-4.5267
X6.6802Y-5.1859
X7.0431Y-3.163
X7.1593Y-3.8221
X7.2755Y-4.4812
X7.3917Y-5.1404
X7.7136Y-2.8849
X7.8299Y-3.544
X7.9461Y-4.2031
X8.0623Y-4.8622
X8.3705Y-2.5292
X8.4867Y-3.1883
X8.603Y-3.8474
X8.7192Y-4.5065
X9.1026Y-2.6
X9.2188Y-3.2591
X9.3351Y-3.9182
X9.4513Y-4.5773
X9.821Y-2.5932
X9.9372Y-3.2524
X10.0534Y-3.9115
X10.1697Y-4.5706
T4
X1.6018Y-4.7315
X1.718Y-4.0724
X1.8342Y-3.4133
X1.9505Y-2.7542
X2.0283Y-4.8067
X2.1445Y-4.1476
X2.2607Y-3.4885
X2.3202Y-4.7383
X2.3769Y-2.8294
X2.4364Y-4.0791
X2.5526Y-3.42
X2.6689Y-2.7609
X2.7467Y-4.8135
X2.8629Y-4.1543
X2.9791Y-3.4952
X3.0523Y-4.6675
X3.0953Y-2.8361
X3.1685Y-4.0083
X3.2847Y-3.3492
X3.4009Y-2.6901
X3.4788Y-4.7427
X3.595Y-4.0835
X3.7091Y-5.0231
X3.7112Y-3.4244
X3.8254Y-4.364
X3.8274Y-2.7653
X3.9416Y-3.7049
X4.0578Y-3.0458
X4.1356Y-5.0983
X4.2519Y-4.4392
X4.3681Y-3.7801
X4.3797Y-5.3013
X4.4843Y-3.121
X4.4959Y-4.6422
X4.6121Y-3.9831
X4.7284Y-3.3239
X4.8062Y-5.3765
X4.9224Y-4.7174
X5.0386Y-4.0583
X5.0913Y-5.3468
X5.1549Y-3.3991
X5.2075Y-4.6877
X5.5178Y-5.422
X5.634Y-4.7629
X6.177Y-4.7629
X6.2933Y-5.422
X6.6035Y-4.6877
X6.6562Y-3.3991
X6.7197Y-5.3468
X6.7724Y-4.0583
X6.8886Y-4.7174
X7.0048Y-5.3765
X7.0827Y-3.3239
X7.1989Y-3.9831
X7.3151Y-4.6422
X7.3267Y-3.121
X7.4313Y-5.3013
X7.4429Y-3.7801
X7.5592Y-4.4392
X7.6754Y-5.0983
X7.7532Y-3.0458
X7.8694Y-3.7049
X7.9836Y-2.7653
X7.9856Y-4.364
X8.0998Y-3.4244
X8.1019Y-5.0231
X8.216Y-4.0835
X8.3323Y-4.7427
X8.4101Y-2.6901
X8.5263Y-3.3492
X8.6425Y-4.0083
X8.7157Y-2.8361
X8.7588Y-4.6675
X8.8319Y-3.4952
X8.9481Y-4.1543
X9.0644Y-4.8135
X9.1422Y-2.7609
X9.2584Y-3.42
X9.3746Y-4.0791
X9.4341Y-2.8294
X9.4908Y-4.7383
X9.5503Y-3.4885
X9.6665Y-4.1476
X9.7827Y-4.8067
X9.8606Y-2.7542
X9.9768Y-3.4133
X10.093Y-4.0724
X10.2092Y-4.7315
T5
X1.5955Y-4.8803
X1.7118Y-4.2212
X1.7744Y-4.9998
X1.828Y-3.5621
X1.8906Y-4.3407
X1.9442Y-2.903
X2.0068Y-3.6816
X2.123Y-3.0224
X2.3139Y-4.8871
X2.4302Y-4.2279
X2.4928Y-5.0066
X2.5464Y-3.5688
X2.609Y-4.3474
X2.6626Y-2.9097
X2.7252Y-3.6883
X2.8414Y-3.0292
X3.046Y-4.8163
X3.1622Y-4.1572
X3.2248Y-4.9358
X3.2785Y-3.498
X3.3411Y-4.2766
X3.3947Y-2.8389
X3.4573Y-3.6175
X3.5735Y-2.9584
X3.7029Y-5.172
X3.8191Y-4.5128
X3.8817Y-5.2914
X3.9353Y-3.8537
X3.9979Y-4.6323
X4.0516Y-3.1946
X4.1142Y-3.9732
X4.2304Y-3.3141
X4.3735Y-5.4501
X4.4897Y-4.791
X4.5523Y-5.5696
X4.6059Y-4.1319
X4.6685Y-4.9105
X4.7221Y-3.4727
X4.7847Y-4.2514
X4.9009Y-3.5922
X5.085Y-5.4956
X5.2013Y-4.8365
X5.2639Y-5.6151
X5.3801Y-4.956
X6.2221Y-4.9049
X6.3383Y-5.564
X6.431Y-4.956
X6.5472Y-5.6151
X6.7012Y-3.5411
X6.8174Y-4.2002
X6.9101Y-3.5922
X6.9336Y-4.8593
X7.0263Y-4.2514
X7.0498Y-5.5185
X7.1425Y-4.9105
X7.2587Y-5.5696
X7.3717Y-3.263
X7.488Y-3.9221
X7.5806Y-3.3141
X7.6042Y-4.5812
X7.6969Y-3.9732
X7.7204Y-5.2403
X7.8131Y-4.6323
X7.9293Y-5.2914
X8.0286Y-2.9073
X8.1448Y-3.5664
X8.2375Y-2.9584
X8.2611Y-4.2255
X8.3537Y-3.6175
X8.3773Y-4.8847
X8.47Y-4.2766
X8.5862Y-4.9358
X8.7607Y-2.9781
X8.8769Y-3.6372
X8.9696Y-3.0292
X8.9932Y-4.2963
X9.0858Y-3.6883
X9.1094Y-4.9554
X9.2021Y-4.3474
X9.3183Y-5.0066
X9.4791Y-2.9713
X9.5953Y-3.6305
X9.688Y-3.0224
X9.7115Y-4.2896
X9.8042Y-3.6816
X9.8278Y-4.9487
X9.9204Y-4.3407
X10.0367Y-4.9998
T6
X1.815Y-4.7691
X1.9313Y-4.11
X2.0475Y-3.4509
X2.1637Y-2.7918
X2.5334Y-4.7759
X2.6497Y-4.1167
X2.7659Y-3.4576
X2.8821Y-2.7985
X3.2655Y-4.7051
X3.3817Y-4.0459
X3.498Y-3.3868
X3.6142Y-2.7277
X3.9224Y-5.0607
X4.0386Y-4.4016
X4.1548Y-3.7425
X4.2711Y-3.0834
X4.593Y-5.3389
X4.7092Y-4.6798
X4.8254Y-4.0207
X4.9416Y-3.3615
X5.3045Y-5.3844
X5.4207Y-4.7253
X6.3903Y-4.7253
X6.5065Y-5.3844
X6.8694Y-3.3615
X6.9856Y-4.0207
X7.1019Y-4.6798
X7.2181Y-5.3389
X7.54Y-3.0834
X7.6562Y-3.7425
X7.7724Y-4.4016
X7.8886Y-5.0607
X8.1969Y-2.7277
X8.3131Y-3.3868
X8.4293Y-4.0459
X8.5455Y-4.7051
X8.9289Y-2.7985
X9.0452Y-3.4576
X9.1614Y-4.1167
X9.2776Y-4.7759
X9.6473Y-2.7918
X9.7635Y-3.4509
X9.8798Y-4.11
X9.996Y-4.7691
T0
M30
