%TF.GenerationSoftware,KiCad,Pcbnew,(5.1.10)-1*%
%TF.CreationDate,2021-10-03T17:33:34-06:00*%
%TF.ProjectId,VColMX44,56436f6c-4d58-4343-942e-6b696361645f,rev?*%
%TF.SameCoordinates,Original*%
%TF.FileFunction,Legend,Top*%
%TF.FilePolarity,Positive*%
%FSLAX46Y46*%
G04 Gerber Fmt 4.6, Leading zero omitted, Abs format (unit mm)*
G04 Created by KiCad (PCBNEW (5.1.10)-1) date 2021-10-03 17:33:34*
%MOMM*%
%LPD*%
G01*
G04 APERTURE LIST*
%ADD10C,0.120000*%
%ADD11C,0.150000*%
G04 APERTURE END LIST*
D10*
%TO.C,J1*%
X154700000Y-62000000D02*
X154700000Y-60100000D01*
X154700000Y-65900000D02*
X154700000Y-63900000D01*
X145300000Y-62000000D02*
X145300000Y-60100000D01*
X145300000Y-65900000D02*
X145300000Y-63900000D01*
X154700000Y-60100000D02*
X145300000Y-60100000D01*
D11*
%TO.C,U30*%
X189483457Y-107107691D02*
X189309808Y-106122883D01*
X191740883Y-119910192D02*
X192725691Y-119736543D01*
X190294616Y-105949235D02*
X189309808Y-106122883D01*
X191740883Y-119910192D02*
X191567235Y-118925384D01*
X205354543Y-116494309D02*
X205528192Y-117479117D01*
X205528192Y-117479117D02*
X204543384Y-117652765D01*
X204543384Y-117652765D02*
X205528192Y-117479117D01*
X203097117Y-103691808D02*
X203270765Y-104676616D01*
X203097117Y-103691808D02*
X202112309Y-103865457D01*
%TO.C,U41*%
X192435457Y-123849691D02*
X192261808Y-122864883D01*
X194692883Y-136652192D02*
X195677691Y-136478543D01*
X193246616Y-122691235D02*
X192261808Y-122864883D01*
X194692883Y-136652192D02*
X194519235Y-135667384D01*
X208306543Y-133236309D02*
X208480192Y-134221117D01*
X208480192Y-134221117D02*
X207495384Y-134394765D01*
X207495384Y-134394765D02*
X208480192Y-134221117D01*
X206049117Y-120433808D02*
X206222765Y-121418616D01*
X206049117Y-120433808D02*
X205064309Y-120607457D01*
%TO.C,U19*%
X186531457Y-90366491D02*
X186357808Y-89381683D01*
X188788883Y-103168992D02*
X189773691Y-102995343D01*
X187342616Y-89208035D02*
X186357808Y-89381683D01*
X188788883Y-103168992D02*
X188615235Y-102184184D01*
X202402543Y-99753109D02*
X202576192Y-100737917D01*
X202576192Y-100737917D02*
X201591384Y-100911565D01*
X201591384Y-100911565D02*
X202576192Y-100737917D01*
X200145117Y-86950608D02*
X200318765Y-87935416D01*
X200145117Y-86950608D02*
X199160309Y-87124257D01*
%TO.C,U8*%
X183579457Y-73624691D02*
X183405808Y-72639883D01*
X185836883Y-86427192D02*
X186821691Y-86253543D01*
X184390616Y-72466235D02*
X183405808Y-72639883D01*
X185836883Y-86427192D02*
X185663235Y-85442384D01*
X199450543Y-83011309D02*
X199624192Y-83996117D01*
X199624192Y-83996117D02*
X198639384Y-84169765D01*
X198639384Y-84169765D02*
X199624192Y-83996117D01*
X197193117Y-70208808D02*
X197366765Y-71193616D01*
X197193117Y-70208808D02*
X196208309Y-70382457D01*
%TO.C,U40*%
X175403457Y-130914691D02*
X175229808Y-129929883D01*
X177660883Y-143717192D02*
X178645691Y-143543543D01*
X176214616Y-129756235D02*
X175229808Y-129929883D01*
X177660883Y-143717192D02*
X177487235Y-142732384D01*
X191274543Y-140301309D02*
X191448192Y-141286117D01*
X191448192Y-141286117D02*
X190463384Y-141459765D01*
X190463384Y-141459765D02*
X191448192Y-141286117D01*
X189017117Y-127498808D02*
X189190765Y-128483616D01*
X189017117Y-127498808D02*
X188032309Y-127672457D01*
%TO.C,U29*%
X172451457Y-114172691D02*
X172277808Y-113187883D01*
X174708883Y-126975192D02*
X175693691Y-126801543D01*
X173262616Y-113014235D02*
X172277808Y-113187883D01*
X174708883Y-126975192D02*
X174535235Y-125990384D01*
X188322543Y-123559309D02*
X188496192Y-124544117D01*
X188496192Y-124544117D02*
X187511384Y-124717765D01*
X187511384Y-124717765D02*
X188496192Y-124544117D01*
X186065117Y-110756808D02*
X186238765Y-111741616D01*
X186065117Y-110756808D02*
X185080309Y-110930457D01*
%TO.C,U28*%
X154377457Y-115328691D02*
X154203808Y-114343883D01*
X156634883Y-128131192D02*
X157619691Y-127957543D01*
X155188616Y-114170235D02*
X154203808Y-114343883D01*
X156634883Y-128131192D02*
X156461235Y-127146384D01*
X170248543Y-124715309D02*
X170422192Y-125700117D01*
X170422192Y-125700117D02*
X169437384Y-125873765D01*
X169437384Y-125873765D02*
X170422192Y-125700117D01*
X167991117Y-111912808D02*
X168164765Y-112897616D01*
X167991117Y-111912808D02*
X167006309Y-112086457D01*
%TO.C,U39*%
X157329457Y-132070691D02*
X157155808Y-131085883D01*
X159586883Y-144873192D02*
X160571691Y-144699543D01*
X158140616Y-130912235D02*
X157155808Y-131085883D01*
X159586883Y-144873192D02*
X159413235Y-143888384D01*
X173200543Y-141457309D02*
X173374192Y-142442117D01*
X173374192Y-142442117D02*
X172389384Y-142615765D01*
X172389384Y-142615765D02*
X173374192Y-142442117D01*
X170943117Y-128654808D02*
X171116765Y-129639616D01*
X170943117Y-128654808D02*
X169958309Y-128828457D01*
%TO.C,U2*%
X67353635Y-63957516D02*
X67527283Y-62972708D01*
X65096208Y-76760017D02*
X66081016Y-76933665D01*
X68512091Y-63146357D02*
X67527283Y-62972708D01*
X65096208Y-76760017D02*
X65269857Y-75775209D01*
X79057165Y-78206284D02*
X78883517Y-79191092D01*
X78883517Y-79191092D02*
X77898709Y-79017443D01*
X77898709Y-79017443D02*
X78883517Y-79191092D01*
X81314592Y-65403783D02*
X81140943Y-66388591D01*
X81314592Y-65403783D02*
X80329784Y-65230135D01*
%TO.C,U1*%
X49106235Y-63786216D02*
X49279883Y-62801408D01*
X46848808Y-76588717D02*
X47833616Y-76762365D01*
X50264691Y-62975057D02*
X49279883Y-62801408D01*
X46848808Y-76588717D02*
X47022457Y-75603909D01*
X60809765Y-78034984D02*
X60636117Y-79019792D01*
X60636117Y-79019792D02*
X59651309Y-78846143D01*
X59651309Y-78846143D02*
X60636117Y-79019792D01*
X63067192Y-65232483D02*
X62893543Y-66217291D01*
X63067192Y-65232483D02*
X62082384Y-65058835D01*
%TO.C,U44*%
X245962457Y-116442691D02*
X245788808Y-115457883D01*
X248219883Y-129245192D02*
X249204691Y-129071543D01*
X246773616Y-115284235D02*
X245788808Y-115457883D01*
X248219883Y-129245192D02*
X248046235Y-128260384D01*
X261833543Y-125829309D02*
X262007192Y-126814117D01*
X262007192Y-126814117D02*
X261022384Y-126987765D01*
X261022384Y-126987765D02*
X262007192Y-126814117D01*
X259576117Y-113026808D02*
X259749765Y-114011616D01*
X259576117Y-113026808D02*
X258591309Y-113200457D01*
%TO.C,U43*%
X227715457Y-116613691D02*
X227541808Y-115628883D01*
X229972883Y-129416192D02*
X230957691Y-129242543D01*
X228526616Y-115455235D02*
X227541808Y-115628883D01*
X229972883Y-129416192D02*
X229799235Y-128431384D01*
X243586543Y-126000309D02*
X243760192Y-126985117D01*
X243760192Y-126985117D02*
X242775384Y-127158765D01*
X242775384Y-127158765D02*
X243760192Y-126985117D01*
X241329117Y-113197808D02*
X241502765Y-114182616D01*
X241329117Y-113197808D02*
X240344309Y-113371457D01*
%TO.C,U42*%
X209120457Y-114815691D02*
X208946808Y-113830883D01*
X211377883Y-127618192D02*
X212362691Y-127444543D01*
X209931616Y-113657235D02*
X208946808Y-113830883D01*
X211377883Y-127618192D02*
X211204235Y-126633384D01*
X224991543Y-124202309D02*
X225165192Y-125187117D01*
X225165192Y-125187117D02*
X224180384Y-125360765D01*
X224180384Y-125360765D02*
X225165192Y-125187117D01*
X222734117Y-111399808D02*
X222907765Y-112384616D01*
X222734117Y-111399808D02*
X221749309Y-111573457D01*
%TO.C,U38*%
X110809235Y-128483616D02*
X110982883Y-127498808D01*
X108551808Y-141286117D02*
X109536616Y-141459765D01*
X111967691Y-127672457D02*
X110982883Y-127498808D01*
X108551808Y-141286117D02*
X108725457Y-140301309D01*
X122512765Y-142732384D02*
X122339117Y-143717192D01*
X122339117Y-143717192D02*
X121354309Y-143543543D01*
X121354309Y-143543543D02*
X122339117Y-143717192D01*
X124770192Y-129929883D02*
X124596543Y-130914691D01*
X124770192Y-129929883D02*
X123785384Y-129756235D01*
%TO.C,U37*%
X93777035Y-121418616D02*
X93950683Y-120433808D01*
X91519608Y-134221117D02*
X92504416Y-134394765D01*
X94935491Y-120607457D02*
X93950683Y-120433808D01*
X91519608Y-134221117D02*
X91693257Y-133236309D01*
X105480565Y-135667384D02*
X105306917Y-136652192D01*
X105306917Y-136652192D02*
X104322109Y-136478543D01*
X104322109Y-136478543D02*
X105306917Y-136652192D01*
X107737992Y-122864883D02*
X107564343Y-123849691D01*
X107737992Y-122864883D02*
X106753184Y-122691235D01*
%TO.C,U36*%
X77092435Y-112384616D02*
X77266083Y-111399808D01*
X74835008Y-125187117D02*
X75819816Y-125360765D01*
X78250891Y-111573457D02*
X77266083Y-111399808D01*
X74835008Y-125187117D02*
X75008657Y-124202309D01*
X88795965Y-126633384D02*
X88622317Y-127618192D01*
X88622317Y-127618192D02*
X87637509Y-127444543D01*
X87637509Y-127444543D02*
X88622317Y-127618192D01*
X91053392Y-113830883D02*
X90879743Y-114815691D01*
X91053392Y-113830883D02*
X90068584Y-113657235D01*
%TO.C,U35*%
X58497635Y-114182616D02*
X58671283Y-113197808D01*
X56240208Y-126985117D02*
X57225016Y-127158765D01*
X59656091Y-113371457D02*
X58671283Y-113197808D01*
X56240208Y-126985117D02*
X56413857Y-126000309D01*
X70201165Y-128431384D02*
X70027517Y-129416192D01*
X70027517Y-129416192D02*
X69042709Y-129242543D01*
X69042709Y-129242543D02*
X70027517Y-129416192D01*
X72458592Y-115628883D02*
X72284943Y-116613691D01*
X72458592Y-115628883D02*
X71473784Y-115455235D01*
%TO.C,U34*%
X40250135Y-114011616D02*
X40423783Y-113026808D01*
X37992708Y-126814117D02*
X38977516Y-126987765D01*
X41408591Y-113200457D02*
X40423783Y-113026808D01*
X37992708Y-126814117D02*
X38166357Y-125829309D01*
X51953665Y-128260384D02*
X51780017Y-129245192D01*
X51780017Y-129245192D02*
X50795209Y-129071543D01*
X50795209Y-129071543D02*
X51780017Y-129245192D01*
X54211092Y-115457883D02*
X54037443Y-116442691D01*
X54211092Y-115457883D02*
X53226284Y-115284235D01*
%TO.C,U33*%
X243010457Y-99700691D02*
X242836808Y-98715883D01*
X245267883Y-112503192D02*
X246252691Y-112329543D01*
X243821616Y-98542235D02*
X242836808Y-98715883D01*
X245267883Y-112503192D02*
X245094235Y-111518384D01*
X258881543Y-109087309D02*
X259055192Y-110072117D01*
X259055192Y-110072117D02*
X258070384Y-110245765D01*
X258070384Y-110245765D02*
X259055192Y-110072117D01*
X256624117Y-96284808D02*
X256797765Y-97269616D01*
X256624117Y-96284808D02*
X255639309Y-96458457D01*
%TO.C,U32*%
X224763457Y-99871691D02*
X224589808Y-98886883D01*
X227020883Y-112674192D02*
X228005691Y-112500543D01*
X225574616Y-98713235D02*
X224589808Y-98886883D01*
X227020883Y-112674192D02*
X226847235Y-111689384D01*
X240634543Y-109258309D02*
X240808192Y-110243117D01*
X240808192Y-110243117D02*
X239823384Y-110416765D01*
X239823384Y-110416765D02*
X240808192Y-110243117D01*
X238377117Y-96455808D02*
X238550765Y-97440616D01*
X238377117Y-96455808D02*
X237392309Y-96629457D01*
%TO.C,U31*%
X206168457Y-98073691D02*
X205994808Y-97088883D01*
X208425883Y-110876192D02*
X209410691Y-110702543D01*
X206979616Y-96915235D02*
X205994808Y-97088883D01*
X208425883Y-110876192D02*
X208252235Y-109891384D01*
X222039543Y-107460309D02*
X222213192Y-108445117D01*
X222213192Y-108445117D02*
X221228384Y-108618765D01*
X221228384Y-108618765D02*
X222213192Y-108445117D01*
X219782117Y-94657808D02*
X219955765Y-95642616D01*
X219782117Y-94657808D02*
X218797309Y-94831457D01*
%TO.C,U27*%
X113761235Y-111741616D02*
X113934883Y-110756808D01*
X111503808Y-124544117D02*
X112488616Y-124717765D01*
X114919691Y-110930457D02*
X113934883Y-110756808D01*
X111503808Y-124544117D02*
X111677457Y-123559309D01*
X125464765Y-125990384D02*
X125291117Y-126975192D01*
X125291117Y-126975192D02*
X124306309Y-126801543D01*
X124306309Y-126801543D02*
X125291117Y-126975192D01*
X127722192Y-113187883D02*
X127548543Y-114172691D01*
X127722192Y-113187883D02*
X126737384Y-113014235D01*
%TO.C,U26*%
X96729235Y-104676616D02*
X96902883Y-103691808D01*
X94471808Y-117479117D02*
X95456616Y-117652765D01*
X97887691Y-103865457D02*
X96902883Y-103691808D01*
X94471808Y-117479117D02*
X94645457Y-116494309D01*
X108432765Y-118925384D02*
X108259117Y-119910192D01*
X108259117Y-119910192D02*
X107274309Y-119736543D01*
X107274309Y-119736543D02*
X108259117Y-119910192D01*
X110690192Y-106122883D02*
X110516543Y-107107691D01*
X110690192Y-106122883D02*
X109705384Y-105949235D01*
%TO.C,U25*%
X80044435Y-95642616D02*
X80218083Y-94657808D01*
X77787008Y-108445117D02*
X78771816Y-108618765D01*
X81202891Y-94831457D02*
X80218083Y-94657808D01*
X77787008Y-108445117D02*
X77960657Y-107460309D01*
X91747965Y-109891384D02*
X91574317Y-110876192D01*
X91574317Y-110876192D02*
X90589509Y-110702543D01*
X90589509Y-110702543D02*
X91574317Y-110876192D01*
X94005392Y-97088883D02*
X93831743Y-98073691D01*
X94005392Y-97088883D02*
X93020584Y-96915235D01*
%TO.C,U24*%
X61449635Y-97440616D02*
X61623283Y-96455808D01*
X59192208Y-110243117D02*
X60177016Y-110416765D01*
X62608091Y-96629457D02*
X61623283Y-96455808D01*
X59192208Y-110243117D02*
X59365857Y-109258309D01*
X73153165Y-111689384D02*
X72979517Y-112674192D01*
X72979517Y-112674192D02*
X71994709Y-112500543D01*
X71994709Y-112500543D02*
X72979517Y-112674192D01*
X75410592Y-98886883D02*
X75236943Y-99871691D01*
X75410592Y-98886883D02*
X74425784Y-98713235D01*
%TO.C,U23*%
X43202135Y-97269616D02*
X43375783Y-96284808D01*
X40944708Y-110072117D02*
X41929516Y-110245765D01*
X44360591Y-96458457D02*
X43375783Y-96284808D01*
X40944708Y-110072117D02*
X41118357Y-109087309D01*
X54905665Y-111518384D02*
X54732017Y-112503192D01*
X54732017Y-112503192D02*
X53747209Y-112329543D01*
X53747209Y-112329543D02*
X54732017Y-112503192D01*
X57163092Y-98715883D02*
X56989443Y-99700691D01*
X57163092Y-98715883D02*
X56178284Y-98542235D01*
%TO.C,U22*%
X240058457Y-82959091D02*
X239884808Y-81974283D01*
X242315883Y-95761592D02*
X243300691Y-95587943D01*
X240869616Y-81800635D02*
X239884808Y-81974283D01*
X242315883Y-95761592D02*
X242142235Y-94776784D01*
X255929543Y-92345709D02*
X256103192Y-93330517D01*
X256103192Y-93330517D02*
X255118384Y-93504165D01*
X255118384Y-93504165D02*
X256103192Y-93330517D01*
X253672117Y-79543208D02*
X253845765Y-80528016D01*
X253672117Y-79543208D02*
X252687309Y-79716857D01*
%TO.C,U21*%
X221811457Y-83130291D02*
X221637808Y-82145483D01*
X224068883Y-95932792D02*
X225053691Y-95759143D01*
X222622616Y-81971835D02*
X221637808Y-82145483D01*
X224068883Y-95932792D02*
X223895235Y-94947984D01*
X237682543Y-92516909D02*
X237856192Y-93501717D01*
X237856192Y-93501717D02*
X236871384Y-93675365D01*
X236871384Y-93675365D02*
X237856192Y-93501717D01*
X235425117Y-79714408D02*
X235598765Y-80699216D01*
X235425117Y-79714408D02*
X234440309Y-79888057D01*
%TO.C,U20*%
X203216457Y-81331991D02*
X203042808Y-80347183D01*
X205473883Y-94134492D02*
X206458691Y-93960843D01*
X204027616Y-80173535D02*
X203042808Y-80347183D01*
X205473883Y-94134492D02*
X205300235Y-93149684D01*
X219087543Y-90718609D02*
X219261192Y-91703417D01*
X219261192Y-91703417D02*
X218276384Y-91877065D01*
X218276384Y-91877065D02*
X219261192Y-91703417D01*
X216830117Y-77916108D02*
X217003765Y-78900916D01*
X216830117Y-77916108D02*
X215845309Y-78089757D01*
%TO.C,U18*%
X169499457Y-97431691D02*
X169325808Y-96446883D01*
X171756883Y-110234192D02*
X172741691Y-110060543D01*
X170310616Y-96273235D02*
X169325808Y-96446883D01*
X171756883Y-110234192D02*
X171583235Y-109249384D01*
X185370543Y-106818309D02*
X185544192Y-107803117D01*
X185544192Y-107803117D02*
X184559384Y-107976765D01*
X184559384Y-107976765D02*
X185544192Y-107803117D01*
X183113117Y-94015808D02*
X183286765Y-95000616D01*
X183113117Y-94015808D02*
X182128309Y-94189457D01*
%TO.C,U17*%
X128883235Y-129639616D02*
X129056883Y-128654808D01*
X126625808Y-142442117D02*
X127610616Y-142615765D01*
X130041691Y-128828457D02*
X129056883Y-128654808D01*
X126625808Y-142442117D02*
X126799457Y-141457309D01*
X140586765Y-143888384D02*
X140413117Y-144873192D01*
X140413117Y-144873192D02*
X139428309Y-144699543D01*
X139428309Y-144699543D02*
X140413117Y-144873192D01*
X142844192Y-131085883D02*
X142670543Y-132070691D01*
X142844192Y-131085883D02*
X141859384Y-130912235D01*
%TO.C,U16*%
X116713235Y-95000616D02*
X116886883Y-94015808D01*
X114455808Y-107803117D02*
X115440616Y-107976765D01*
X117871691Y-94189457D02*
X116886883Y-94015808D01*
X114455808Y-107803117D02*
X114629457Y-106818309D01*
X128416765Y-109249384D02*
X128243117Y-110234192D01*
X128243117Y-110234192D02*
X127258309Y-110060543D01*
X127258309Y-110060543D02*
X128243117Y-110234192D01*
X130674192Y-96446883D02*
X130500543Y-97431691D01*
X130674192Y-96446883D02*
X129689384Y-96273235D01*
%TO.C,U15*%
X99681235Y-87935416D02*
X99854883Y-86950608D01*
X97423808Y-100737917D02*
X98408616Y-100911565D01*
X100839691Y-87124257D02*
X99854883Y-86950608D01*
X97423808Y-100737917D02*
X97597457Y-99753109D01*
X111384765Y-102184184D02*
X111211117Y-103168992D01*
X111211117Y-103168992D02*
X110226309Y-102995343D01*
X110226309Y-102995343D02*
X111211117Y-103168992D01*
X113642192Y-89381683D02*
X113468543Y-90366491D01*
X113642192Y-89381683D02*
X112657384Y-89208035D01*
%TO.C,U14*%
X82996435Y-78900916D02*
X83170083Y-77916108D01*
X80739008Y-91703417D02*
X81723816Y-91877065D01*
X84154891Y-78089757D02*
X83170083Y-77916108D01*
X80739008Y-91703417D02*
X80912657Y-90718609D01*
X94699965Y-93149684D02*
X94526317Y-94134492D01*
X94526317Y-94134492D02*
X93541509Y-93960843D01*
X93541509Y-93960843D02*
X94526317Y-94134492D01*
X96957392Y-80347183D02*
X96783743Y-81331991D01*
X96957392Y-80347183D02*
X95972584Y-80173535D01*
%TO.C,U13*%
X64401635Y-80699216D02*
X64575283Y-79714408D01*
X62144208Y-93501717D02*
X63129016Y-93675365D01*
X65560091Y-79888057D02*
X64575283Y-79714408D01*
X62144208Y-93501717D02*
X62317857Y-92516909D01*
X76105165Y-94947984D02*
X75931517Y-95932792D01*
X75931517Y-95932792D02*
X74946709Y-95759143D01*
X74946709Y-95759143D02*
X75931517Y-95932792D01*
X78362592Y-82145483D02*
X78188943Y-83130291D01*
X78362592Y-82145483D02*
X77377784Y-81971835D01*
%TO.C,U12*%
X46154135Y-80528016D02*
X46327783Y-79543208D01*
X43896708Y-93330517D02*
X44881516Y-93504165D01*
X47312591Y-79716857D02*
X46327783Y-79543208D01*
X43896708Y-93330517D02*
X44070357Y-92345709D01*
X57857665Y-94776784D02*
X57684017Y-95761592D01*
X57684017Y-95761592D02*
X56699209Y-95587943D01*
X56699209Y-95587943D02*
X57684017Y-95761592D01*
X60115092Y-81974283D02*
X59941443Y-82959091D01*
X60115092Y-81974283D02*
X59130284Y-81800635D01*
%TO.C,U11*%
X237106457Y-66217291D02*
X236932808Y-65232483D01*
X239363883Y-79019792D02*
X240348691Y-78846143D01*
X237917616Y-65058835D02*
X236932808Y-65232483D01*
X239363883Y-79019792D02*
X239190235Y-78034984D01*
X252977543Y-75603909D02*
X253151192Y-76588717D01*
X253151192Y-76588717D02*
X252166384Y-76762365D01*
X252166384Y-76762365D02*
X253151192Y-76588717D01*
X250720117Y-62801408D02*
X250893765Y-63786216D01*
X250720117Y-62801408D02*
X249735309Y-62975057D01*
%TO.C,U10*%
X218859457Y-66388591D02*
X218685808Y-65403783D01*
X221116883Y-79191092D02*
X222101691Y-79017443D01*
X219670616Y-65230135D02*
X218685808Y-65403783D01*
X221116883Y-79191092D02*
X220943235Y-78206284D01*
X234730543Y-75775209D02*
X234904192Y-76760017D01*
X234904192Y-76760017D02*
X233919384Y-76933665D01*
X233919384Y-76933665D02*
X234904192Y-76760017D01*
X232473117Y-62972708D02*
X232646765Y-63957516D01*
X232473117Y-62972708D02*
X231488309Y-63146357D01*
%TO.C,U9*%
X200264457Y-64590191D02*
X200090808Y-63605383D01*
X202521883Y-77392692D02*
X203506691Y-77219043D01*
X201075616Y-63431735D02*
X200090808Y-63605383D01*
X202521883Y-77392692D02*
X202348235Y-76407884D01*
X216135543Y-73976809D02*
X216309192Y-74961617D01*
X216309192Y-74961617D02*
X215324384Y-75135265D01*
X215324384Y-75135265D02*
X216309192Y-74961617D01*
X213878117Y-61174308D02*
X214051765Y-62159116D01*
X213878117Y-61174308D02*
X212893309Y-61347957D01*
%TO.C,U7*%
X166547457Y-80689591D02*
X166373808Y-79704783D01*
X168804883Y-93492092D02*
X169789691Y-93318443D01*
X167358616Y-79531135D02*
X166373808Y-79704783D01*
X168804883Y-93492092D02*
X168631235Y-92507284D01*
X182418543Y-90076209D02*
X182592192Y-91061017D01*
X182592192Y-91061017D02*
X181607384Y-91234665D01*
X181607384Y-91234665D02*
X182592192Y-91061017D01*
X180161117Y-77273708D02*
X180334765Y-78258516D01*
X180161117Y-77273708D02*
X179176309Y-77447357D01*
%TO.C,U6*%
X131835235Y-112897616D02*
X132008883Y-111912808D01*
X129577808Y-125700117D02*
X130562616Y-125873765D01*
X132993691Y-112086457D02*
X132008883Y-111912808D01*
X129577808Y-125700117D02*
X129751457Y-124715309D01*
X143538765Y-127146384D02*
X143365117Y-128131192D01*
X143365117Y-128131192D02*
X142380309Y-127957543D01*
X142380309Y-127957543D02*
X143365117Y-128131192D01*
X145796192Y-114343883D02*
X145622543Y-115328691D01*
X145796192Y-114343883D02*
X144811384Y-114170235D01*
%TO.C,U5*%
X119665235Y-78258516D02*
X119838883Y-77273708D01*
X117407808Y-91061017D02*
X118392616Y-91234665D01*
X120823691Y-77447357D02*
X119838883Y-77273708D01*
X117407808Y-91061017D02*
X117581457Y-90076209D01*
X131368765Y-92507284D02*
X131195117Y-93492092D01*
X131195117Y-93492092D02*
X130210309Y-93318443D01*
X130210309Y-93318443D02*
X131195117Y-93492092D01*
X133626192Y-79704783D02*
X133452543Y-80689591D01*
X133626192Y-79704783D02*
X132641384Y-79531135D01*
%TO.C,U4*%
X102633235Y-71193616D02*
X102806883Y-70208808D01*
X100375808Y-83996117D02*
X101360616Y-84169765D01*
X103791691Y-70382457D02*
X102806883Y-70208808D01*
X100375808Y-83996117D02*
X100549457Y-83011309D01*
X114336765Y-85442384D02*
X114163117Y-86427192D01*
X114163117Y-86427192D02*
X113178309Y-86253543D01*
X113178309Y-86253543D02*
X114163117Y-86427192D01*
X116594192Y-72639883D02*
X116420543Y-73624691D01*
X116594192Y-72639883D02*
X115609384Y-72466235D01*
%TO.C,U3*%
X85948435Y-62159116D02*
X86122083Y-61174308D01*
X83691008Y-74961617D02*
X84675816Y-75135265D01*
X87106891Y-61347957D02*
X86122083Y-61174308D01*
X83691008Y-74961617D02*
X83864657Y-73976809D01*
X97651965Y-76407884D02*
X97478317Y-77392692D01*
X97478317Y-77392692D02*
X96493509Y-77219043D01*
X96493509Y-77219043D02*
X97478317Y-77392692D01*
X99909392Y-63605383D02*
X99735743Y-64590191D01*
X99909392Y-63605383D02*
X98924584Y-63431735D01*
%TD*%
M02*
