M48
; DRILL file {KiCad (5.1.10)-1} date 11/03/21 20:37:40
; FORMAT={-:-/ absolute / inch / decimal}
; #@! TF.CreationDate,2021-11-03T20:37:40-06:00
; #@! TF.GenerationSoftware,Kicad,Pcbnew,(5.1.10)-1
; #@! TF.FileFunction,NonPlated,1,2,NPTH
FMAT,2
INCH
T1C0.0118
T2C0.0394
T3C0.0669
T4C0.0787
T5C0.1260
T6C0.2283
%
G90
G05
T3
X1.6026Y-4.9356
X1.642Y-4.5487
X1.7198Y-4.2777
X1.7592Y-3.8908
X1.835Y-3.6173
X1.8557Y-4.9922
X1.8745Y-3.2305
X1.9513Y-2.9582
X1.9728Y-4.3343
X1.9907Y-2.5714
X2.053Y-4.6212
X2.0881Y-3.6739
X2.1702Y-3.9633
X2.2043Y-3.0148
X2.2854Y-3.3029
X2.321Y-4.9423
X2.3604Y-4.5555
X2.4017Y-2.6438
X2.4372Y-4.2832
X2.4766Y-3.8963
X2.5538Y-3.6254
X2.5741Y-4.9989
X2.5933Y-3.2386
X2.6697Y-2.9649
X2.6903Y-4.3398
X2.7091Y-2.5781
X2.7714Y-4.6279
X2.8069Y-3.682
X2.8876Y-3.9688
X2.9227Y-3.0215
X3.0042Y-3.311
X3.0531Y-4.8715
X3.0925Y-4.4847
X3.1201Y-2.6506
X3.1693Y-4.2124
X3.2087Y-3.8255
X3.2863Y-3.5541
X3.3061Y-4.9281
X3.3258Y-3.1673
X3.4017Y-2.8941
X3.4224Y-4.269
X3.4412Y-2.5073
X3.5035Y-4.5571
X3.5394Y-3.6107
X3.6197Y-3.898
X3.6548Y-2.9507
X3.71Y-5.2272
X3.7367Y-3.2397
X3.7494Y-4.8403
X3.8262Y-4.568
X3.8521Y-2.5798
X3.8656Y-4.1812
X3.9424Y-3.9089
X3.963Y-5.2838
X3.9818Y-3.5221
X4.0586Y-3.2498
X4.0792Y-4.6247
X4.098Y-2.863
X4.1604Y-4.9128
X4.1955Y-3.9656
X4.2766Y-4.2537
X4.3117Y-3.3064
X4.3805Y-5.5053
X4.3928Y-3.5946
X4.4199Y-5.1185
X4.4967Y-4.8462
X4.509Y-2.9355
X4.5362Y-4.4594
X4.613Y-4.1871
X4.6336Y-5.5619
X4.6524Y-3.8003
X4.7292Y-3.528
X4.7498Y-4.9028
X4.7686Y-3.1411
X4.8309Y-5.191
X4.866Y-4.2437
X4.9471Y-4.5318
X4.9822Y-3.5846
X5.0634Y-3.8727
X5.0921Y-5.5508
X5.1315Y-5.164
X5.1796Y-3.2136
X5.2083Y-4.8917
X5.2477Y-4.5049
X5.3452Y-5.6075
X5.4614Y-4.9483
X5.5425Y-5.2365
X5.6587Y-4.5773
X6.1523Y-4.5773
X6.2476Y-4.9543
X6.2685Y-5.2365
X6.3638Y-5.6135
X6.5047Y-4.921
X6.5633Y-4.5049
X6.621Y-5.5801
X6.6314Y-3.2136
X6.6795Y-5.164
X6.7267Y-3.5906
X6.7477Y-3.8727
X6.8429Y-4.2497
X6.8639Y-4.5318
X6.9591Y-4.9088
X6.9801Y-5.191
X6.9839Y-3.5572
X7.0424Y-3.1411
X7.0754Y-5.5679
X7.1001Y-4.2164
X7.1586Y-3.8003
X7.2163Y-4.8755
X7.2749Y-4.4594
X7.302Y-2.9355
X7.3325Y-5.5346
X7.3911Y-5.1185
X7.3973Y-3.3124
X7.4182Y-3.5946
X7.5135Y-3.9716
X7.5344Y-4.2537
X7.6297Y-4.6307
X7.6507Y-4.9128
X7.6544Y-3.2791
X7.713Y-2.863
X7.7459Y-5.2898
X7.7706Y-3.9382
X7.8292Y-3.5221
X7.8869Y-4.5973
X7.9454Y-4.1812
X7.9589Y-2.5798
X8.0031Y-5.2564
X8.0541Y-2.9567
X8.0616Y-4.8403
X8.0751Y-3.2389
X8.1704Y-3.6159
X8.1913Y-3.898
X8.2866Y-4.275
X8.3075Y-4.5571
X8.3113Y-2.9234
X8.3699Y-2.5073
X8.4028Y-4.9341
X8.4275Y-3.5825
X8.4861Y-3.1664
X8.5438Y-4.2416
X8.6023Y-3.8255
X8.66Y-4.9008
X8.691Y-2.6506
X8.7185Y-4.4847
X8.7862Y-3.0275
X8.8072Y-3.3097
X8.9024Y-3.6867
X8.9234Y-3.9688
X9.0187Y-4.3458
X9.0396Y-4.6279
X9.0434Y-2.9942
X9.102Y-2.5781
X9.1349Y-5.0049
X9.1596Y-3.6533
X9.2182Y-3.2372
X9.2758Y-4.3124
X9.3344Y-3.8963
X9.3921Y-4.9716
X9.4094Y-2.6438
X9.4506Y-4.5555
X9.5046Y-3.0208
X9.5256Y-3.3029
X9.6208Y-3.6799
X9.6418Y-3.9621
X9.7371Y-4.339
X9.758Y-4.6212
X9.7618Y-2.9875
X9.8203Y-2.5714
X9.8533Y-4.9982
X9.878Y-3.6466
X9.9366Y-3.2305
X9.9942Y-4.3057
X10.0528Y-3.8896
X10.1104Y-4.9648
X10.169Y-4.5487
T5
X2.1654Y-5.1181
X2.5591Y-2.4606
X4.1339Y-5.5118
X4.7244Y-2.4606
X5.9055Y-2.9528
X5.9055Y-5.6102
X7.0866Y-2.4606
X7.6772Y-5.5118
X9.252Y-2.4606
X9.6457Y-5.1181
T1
G00X1.5752Y-4.8368
M15
G01X1.6128Y-4.6235
M16
G05
G00X1.6924Y-4.1789
M15
G01X1.73Y-3.9656
M16
G05
G00X1.7087Y-4.8963
M15
G01X1.7141Y-4.8653
M16
G05
G00X1.7087Y-4.8963
M15
G01X1.8715Y-4.925
M16
G05
G00X1.5752Y-4.8368
M15
G01X2.0172Y-4.9147
M16
G05
G00X1.8077Y-3.5185
M15
G01X1.8453Y-3.3053
M16
G05
G00X1.8258Y-4.2384
M15
G01X1.8313Y-4.2074
M16
G05
G00X1.6128Y-4.6235
M15
G01X2.0548Y-4.7015
M16
G05
G00X1.8715Y-4.925
M15
G01X1.877Y-4.894
M16
G05
G00X1.8258Y-4.2384
M15
G01X1.9887Y-4.2671
M16
G05
G00X1.6924Y-4.1789
M15
G01X2.1344Y-4.2568
M16
G05
G00X1.9239Y-2.8594
M15
G01X1.9615Y-2.6462
M16
G05
G00X1.9411Y-3.578
M15
G01X1.9466Y-3.547
M16
G05
G00X1.73Y-3.9656
M15
G01X2.172Y-4.0436
M16
G05
G00X1.9887Y-4.2671
M15
G01X1.9941Y-4.2361
M16
G05
G00X1.9411Y-3.578
M15
G01X2.1039Y-3.6068
M16
G05
G00X1.8077Y-3.5185
M15
G01X2.2497Y-3.5965
M16
G05
G00X2.0172Y-4.9147
M15
G01X2.0548Y-4.7015
M16
G05
G00X2.0573Y-2.9189
M15
G01X2.0628Y-2.8879
M16
G05
G00X1.8453Y-3.3053
M15
G01X2.2873Y-3.3832
M16
G05
G00X2.1039Y-3.6068
M15
G01X2.1094Y-3.5757
M16
G05
G00X2.0573Y-2.9189
M15
G01X2.2202Y-2.9476
M16
G05
G00X1.9239Y-2.8594
M15
G01X2.3659Y-2.9373
M16
G05
G00X2.1344Y-4.2568
M15
G01X2.172Y-4.0436
M16
G05
G00X1.9615Y-2.6462
M15
G01X2.4035Y-2.7241
M16
G05
G00X2.2202Y-2.9476
M15
G01X2.2256Y-2.9166
M16
G05
G00X2.2497Y-3.5965
M15
G01X2.2873Y-3.3832
M16
G05
G00X2.2936Y-4.8435
M15
G01X2.3312Y-4.6303
M16
G05
G00X2.3659Y-2.9373
M15
G01X2.4035Y-2.7241
M16
G05
G00X2.4099Y-4.1844
M15
G01X2.4475Y-3.9711
M16
G05
G00X2.4271Y-4.903
M15
G01X2.4325Y-4.872
M16
G05
G00X2.4271Y-4.903
M15
G01X2.5899Y-4.9317
M16
G05
G00X2.2936Y-4.8435
M15
G01X2.7356Y-4.9215
M16
G05
G00X2.5265Y-3.5266
M15
G01X2.5641Y-3.3134
M16
G05
G00X2.5433Y-4.2439
M15
G01X2.5488Y-4.2129
M16
G05
G00X2.3312Y-4.6303
M15
G01X2.7732Y-4.7082
M16
G05
G00X2.5899Y-4.9317
M15
G01X2.5954Y-4.9007
M16
G05
G00X2.5433Y-4.2439
M15
G01X2.7061Y-4.2726
M16
G05
G00X2.4099Y-4.1844
M15
G01X2.8519Y-4.2623
M16
G05
G00X2.6423Y-2.8662
M15
G01X2.6799Y-2.6529
M16
G05
G00X2.6599Y-3.5861
M15
G01X2.6654Y-3.5551
M16
G05
G00X2.4475Y-3.9711
M15
G01X2.8895Y-4.0491
M16
G05
G00X2.7061Y-4.2726
M15
G01X2.7116Y-4.2416
M16
G05
G00X2.6599Y-3.5861
M15
G01X2.8227Y-3.6148
M16
G05
G00X2.5265Y-3.5266
M15
G01X2.9685Y-3.6046
M16
G05
G00X2.7356Y-4.9215
M15
G01X2.7732Y-4.7082
M16
G05
G00X2.7757Y-2.9257
M15
G01X2.7812Y-2.8946
M16
G05
G00X2.5641Y-3.3134
M15
G01X3.0061Y-3.3913
M16
G05
G00X2.8227Y-3.6148
M15
G01X2.8282Y-3.5838
M16
G05
G00X2.7757Y-2.9257
M15
G01X2.9386Y-2.9544
M16
G05
G00X2.6423Y-2.8662
M15
G01X3.0843Y-2.9441
M16
G05
G00X2.8519Y-4.2623
M15
G01X2.8895Y-4.0491
M16
G05
G00X2.6799Y-2.6529
M15
G01X3.1219Y-2.7308
M16
G05
G00X2.9386Y-2.9544
M15
G01X2.944Y-2.9234
M16
G05
G00X2.9685Y-3.6046
M15
G01X3.0061Y-3.3913
M16
G05
G00X3.0257Y-4.7727
M15
G01X3.0633Y-4.5595
M16
G05
G00X3.0843Y-2.9441
M15
G01X3.1219Y-2.7308
M16
G05
G00X3.1419Y-4.1136
M15
G01X3.1795Y-3.9004
M16
G05
G00X3.1591Y-4.8322
M15
G01X3.1646Y-4.8012
M16
G05
G00X3.1591Y-4.8322
M15
G01X3.322Y-4.861
M16
G05
G00X3.0257Y-4.7727
M15
G01X3.4677Y-4.8507
M16
G05
G00X3.259Y-3.4553
M15
G01X3.2966Y-3.2421
M16
G05
G00X3.2754Y-4.1731
M15
G01X3.2808Y-4.1421
M16
G05
G00X3.0633Y-4.5595
M15
G01X3.5053Y-4.6374
M16
G05
G00X3.322Y-4.861
M15
G01X3.3275Y-4.8299
M16
G05
G00X3.2754Y-4.1731
M15
G01X3.4382Y-4.2018
M16
G05
G00X3.1419Y-4.1136
M15
G01X3.5839Y-4.1915
M16
G05
G00X3.3744Y-2.7954
M15
G01X3.412Y-2.5821
M16
G05
G00X3.3924Y-3.5148
M15
G01X3.3979Y-3.4838
M16
G05
G00X3.1795Y-3.9004
M15
G01X3.6215Y-3.9783
M16
G05
G00X3.4382Y-4.2018
M15
G01X3.4437Y-4.1708
M16
G05
G00X3.3924Y-3.5148
M15
G01X3.5552Y-3.5435
M16
G05
G00X3.259Y-3.4553
M15
G01X3.701Y-3.5332
M16
G05
G00X3.4677Y-4.8507
M15
G01X3.5053Y-4.6374
M16
G05
G00X3.5078Y-2.8549
M15
G01X3.5133Y-2.8238
M16
G05
G00X3.2966Y-3.2421
M15
G01X3.7386Y-3.32
M16
G05
G00X3.5552Y-3.5435
M15
G01X3.5607Y-3.5125
M16
G05
G00X3.5078Y-2.8549
M15
G01X3.6706Y-2.8836
M16
G05
G00X3.3744Y-2.7954
M15
G01X3.8164Y-2.8733
M16
G05
G00X3.5839Y-4.1915
M15
G01X3.6215Y-3.9783
M16
G05
G00X3.412Y-2.5821
M15
G01X3.854Y-2.66
M16
G05
G00X3.6706Y-2.8836
M15
G01X3.6761Y-2.8526
M16
G05
G00X3.6826Y-5.1284
M15
G01X3.7202Y-4.9152
M16
G05
G00X3.701Y-3.5332
M15
G01X3.7386Y-3.32
M16
G05
G00X3.7988Y-4.4693
M15
G01X3.8364Y-4.256
M16
G05
G00X3.816Y-5.1879
M15
G01X3.8215Y-5.1569
M16
G05
G00X3.8164Y-2.8733
M15
G01X3.854Y-2.66
M16
G05
G00X3.816Y-5.1879
M15
G01X3.9789Y-5.2166
M16
G05
G00X3.6826Y-5.1284
M15
G01X4.1246Y-5.2063
M16
G05
G00X3.915Y-3.8102
M15
G01X3.9526Y-3.5969
M16
G05
G00X3.9322Y-4.5288
M15
G01X3.9377Y-4.4978
M16
G05
G00X3.7202Y-4.9152
M15
G01X4.1622Y-4.9931
M16
G05
G00X3.9789Y-5.2166
M15
G01X3.9843Y-5.1856
M16
G05
G00X3.9322Y-4.5288
M15
G01X4.0951Y-4.5575
M16
G05
G00X3.7988Y-4.4693
M15
G01X4.2408Y-4.5472
M16
G05
G00X4.0313Y-3.151
M15
G01X4.0689Y-2.9378
M16
G05
G00X4.0485Y-3.8697
M15
G01X4.0539Y-3.8387
M16
G05
G00X3.8364Y-4.256
M15
G01X4.2784Y-4.334
M16
G05
G00X4.0951Y-4.5575
M15
G01X4.1006Y-4.5265
M16
G05
G00X4.0485Y-3.8697
M15
G01X4.2113Y-3.8984
M16
G05
G00X3.915Y-3.8102
M15
G01X4.357Y-3.8881
M16
G05
G00X4.1246Y-5.2063
M15
G01X4.1622Y-4.9931
M16
G05
G00X4.1647Y-3.2105
M15
G01X4.1702Y-3.1795
M16
G05
G00X3.9526Y-3.5969
M15
G01X4.3946Y-3.6749
M16
G05
G00X4.2113Y-3.8984
M15
G01X4.2168Y-3.8674
M16
G05
G00X4.1647Y-3.2105
M15
G01X4.3275Y-3.2393
M16
G05
G00X4.0313Y-3.151
M15
G01X4.4733Y-3.229
M16
G05
G00X4.2408Y-4.5472
M15
G01X4.2784Y-4.334
M16
G05
G00X4.0689Y-2.9378
M15
G01X4.5109Y-3.0157
M16
G05
G00X4.3275Y-3.2393
M15
G01X4.333Y-3.2082
M16
G05
G00X4.3532Y-5.4066
M15
G01X4.3908Y-5.1933
M16
G05
G00X4.357Y-3.8881
M15
G01X4.3946Y-3.6749
M16
G05
G00X4.4694Y-4.7474
M15
G01X4.507Y-4.5342
M16
G05
G00X4.4866Y-5.4661
M15
G01X4.492Y-5.435
M16
G05
G00X4.4733Y-3.229
M15
G01X4.5109Y-3.0157
M16
G05
G00X4.4866Y-5.4661
M15
G01X4.6494Y-5.4948
M16
G05
G00X4.3532Y-5.4066
M15
G01X4.7952Y-5.4845
M16
G05
G00X4.5856Y-4.0883
M15
G01X4.6232Y-3.8751
M16
G05
G00X4.6028Y-4.8069
M15
G01X4.6083Y-4.7759
M16
G05
G00X4.3908Y-5.1933
M15
G01X4.8328Y-5.2712
M16
G05
G00X4.6494Y-5.4948
M15
G01X4.6549Y-5.4638
M16
G05
G00X4.6028Y-4.8069
M15
G01X4.7656Y-4.8356
M16
G05
G00X4.4694Y-4.7474
M15
G01X4.9114Y-4.8254
M16
G05
G00X4.7018Y-3.4292
M15
G01X4.7394Y-3.2159
M16
G05
G00X4.719Y-4.1478
M15
G01X4.7245Y-4.1168
M16
G05
G00X4.507Y-4.5342
M15
G01X4.949Y-4.6121
M16
G05
G00X4.7656Y-4.8356
M15
G01X4.7711Y-4.8046
M16
G05
G00X4.719Y-4.1478
M15
G01X4.8819Y-4.1765
M16
G05
G00X4.5856Y-4.0883
M15
G01X5.0276Y-4.1663
M16
G05
G00X4.7952Y-5.4845
M15
G01X4.8328Y-5.2712
M16
G05
G00X4.8352Y-3.4887
M15
G01X4.8407Y-3.4577
M16
G05
G00X4.6232Y-3.8751
M15
G01X5.0652Y-3.953
M16
G05
G00X4.8819Y-4.1765
M15
G01X4.8873Y-4.1455
M16
G05
G00X4.8352Y-3.4887
M15
G01X4.9981Y-3.5174
M16
G05
G00X4.7018Y-3.4292
M15
G01X5.1438Y-3.5071
M16
G05
G00X4.9114Y-4.8254
M15
G01X4.949Y-4.6121
M16
G05
G00X4.7394Y-3.2159
M15
G01X5.1814Y-3.2939
M16
G05
G00X4.9981Y-3.5174
M15
G01X5.0036Y-3.4864
M16
G05
G00X5.0276Y-4.1663
M15
G01X5.0652Y-3.953
M16
G05
G00X5.0647Y-5.4521
M15
G01X5.1023Y-5.2388
M16
G05
G00X5.1438Y-3.5071
M15
G01X5.1814Y-3.2939
M16
G05
G00X5.1809Y-4.7929
M15
G01X5.2185Y-4.5797
M16
G05
G00X5.1982Y-5.5116
M15
G01X5.2036Y-5.4806
M16
G05
G00X5.1982Y-5.5116
M15
G01X5.361Y-5.5403
M16
G05
G00X5.0647Y-5.4521
M15
G01X5.5067Y-5.53
M16
G05
G00X5.3144Y-4.8524
M15
G01X5.3198Y-4.8214
M16
G05
G00X5.1023Y-5.2388
M15
G01X5.5443Y-5.3168
M16
G05
G00X5.361Y-5.5403
M15
G01X5.3665Y-5.5093
M16
G05
G00X5.3144Y-4.8524
M15
G01X5.4772Y-4.8811
M16
G05
G00X5.1809Y-4.7929
M15
G01X5.6229Y-4.8709
M16
G05
G00X5.2185Y-4.5797
M15
G01X5.6605Y-4.6576
M16
G05
G00X5.4772Y-4.8811
M15
G01X5.4827Y-4.8501
M16
G05
G00X5.5067Y-5.53
M15
G01X5.5443Y-5.3168
M16
G05
G00X5.6229Y-4.8709
M15
G01X5.6605Y-4.6576
M16
G05
G00X6.1881Y-4.8709
M15
G01X6.1505Y-4.6576
M16
G05
G00X6.3043Y-5.53
M15
G01X6.2667Y-5.3168
M16
G05
G00X6.3338Y-4.8811
M15
G01X6.3283Y-4.8501
M16
G05
G00X6.1505Y-4.6576
M15
G01X6.5925Y-4.5797
M16
G05
G00X6.1881Y-4.8709
M15
G01X6.6301Y-4.7929
M16
G05
G00X6.3338Y-4.8811
M15
G01X6.4967Y-4.8524
M16
G05
G00X6.45Y-5.5403
M15
G01X6.4446Y-5.5093
M16
G05
G00X6.2667Y-5.3168
M15
G01X6.7087Y-5.2388
M16
G05
G00X6.4967Y-4.8524
M15
G01X6.4912Y-4.8214
M16
G05
G00X6.3043Y-5.53
M15
G01X6.7463Y-5.4521
M16
G05
G00X6.45Y-5.5403
M15
G01X6.6129Y-5.5116
M16
G05
G00X6.6129Y-5.5116
M15
G01X6.6074Y-5.4806
M16
G05
G00X6.6301Y-4.7929
M15
G01X6.5925Y-4.5797
M16
G05
G00X6.6672Y-3.5071
M15
G01X6.6296Y-3.2939
M16
G05
G00X6.7463Y-5.4521
M15
G01X6.7087Y-5.2388
M16
G05
G00X6.7834Y-4.1663
M15
G01X6.7458Y-3.953
M16
G05
G00X6.8129Y-3.5174
M15
G01X6.8075Y-3.4864
M16
G05
G00X6.6296Y-3.2939
M15
G01X7.0716Y-3.2159
M16
G05
G00X6.8997Y-4.8254
M15
G01X6.862Y-4.6121
M16
G05
G00X6.6672Y-3.5071
M15
G01X7.1092Y-3.4292
M16
G05
G00X6.8129Y-3.5174
M15
G01X6.9758Y-3.4887
M16
G05
G00X6.9292Y-4.1765
M15
G01X6.9237Y-4.1455
M16
G05
G00X6.7458Y-3.953
M15
G01X7.1878Y-3.8751
M16
G05
G00X6.9758Y-3.4887
M15
G01X6.9703Y-3.4577
M16
G05
G00X7.0159Y-5.4845
M15
G01X6.9783Y-5.2712
M16
G05
G00X6.7834Y-4.1663
M15
G01X7.2254Y-4.0883
M16
G05
G00X6.9292Y-4.1765
M15
G01X7.092Y-4.1478
M16
G05
G00X7.0454Y-4.8356
M15
G01X7.0399Y-4.8046
M16
G05
G00X6.862Y-4.6121
M15
G01X7.3041Y-4.5342
M16
G05
G00X7.092Y-4.1478
M15
G01X7.0865Y-4.1168
M16
G05
G00X7.1092Y-3.4292
M15
G01X7.0716Y-3.2159
M16
G05
G00X6.8997Y-4.8254
M15
G01X7.3417Y-4.7474
M16
G05
G00X7.0454Y-4.8356
M15
G01X7.2082Y-4.8069
M16
G05
G00X7.1616Y-5.4948
M15
G01X7.1561Y-5.4638
M16
G05
G00X6.9783Y-5.2712
M15
G01X7.4203Y-5.1933
M16
G05
G00X7.2082Y-4.8069
M15
G01X7.2028Y-4.7759
M16
G05
G00X7.2254Y-4.0883
M15
G01X7.1878Y-3.8751
M16
G05
G00X7.0159Y-5.4845
M15
G01X7.4579Y-5.4066
M16
G05
G00X7.1616Y-5.4948
M15
G01X7.3244Y-5.4661
M16
G05
G00X7.3378Y-3.229
M15
G01X7.3002Y-3.0157
M16
G05
G00X7.3244Y-5.4661
M15
G01X7.319Y-5.435
M16
G05
G00X7.3417Y-4.7474
M15
G01X7.3041Y-4.5342
M16
G05
G00X7.454Y-3.8881
M15
G01X7.4164Y-3.6749
M16
G05
G00X7.4579Y-5.4066
M15
G01X7.4203Y-5.1933
M16
G05
G00X7.4835Y-3.2393
M15
G01X7.478Y-3.2082
M16
G05
G00X7.3002Y-3.0157
M15
G01X7.7422Y-2.9378
M16
G05
G00X7.5702Y-4.5472
M15
G01X7.5326Y-4.334
M16
G05
G00X7.3378Y-3.229
M15
G01X7.7798Y-3.151
M16
G05
G00X7.4835Y-3.2393
M15
G01X7.6463Y-3.2105
M16
G05
G00X7.5997Y-3.8984
M15
G01X7.5942Y-3.8674
M16
G05
G00X7.4164Y-3.6749
M15
G01X7.8584Y-3.5969
M16
G05
G00X7.6463Y-3.2105
M15
G01X7.6409Y-3.1795
M16
G05
G00X7.6864Y-5.2063
M15
G01X7.6488Y-4.9931
M16
G05
G00X7.454Y-3.8881
M15
G01X7.896Y-3.8102
M16
G05
G00X7.5997Y-3.8984
M15
G01X7.7626Y-3.8697
M16
G05
G00X7.7159Y-4.5575
M15
G01X7.7105Y-4.5265
M16
G05
G00X7.5326Y-4.334
M15
G01X7.9746Y-4.256
M16
G05
G00X7.7626Y-3.8697
M15
G01X7.7571Y-3.8387
M16
G05
G00X7.7798Y-3.151
M15
G01X7.7422Y-2.9378
M16
G05
G00X7.5702Y-4.5472
M15
G01X8.0122Y-4.4693
M16
G05
G00X7.7159Y-4.5575
M15
G01X7.8788Y-4.5288
M16
G05
G00X7.8322Y-5.2166
M15
G01X7.8267Y-5.1856
M16
G05
G00X7.6488Y-4.9931
M15
G01X8.0908Y-4.9152
M16
G05
G00X7.8788Y-4.5288
M15
G01X7.8733Y-4.4978
M16
G05
G00X7.896Y-3.8102
M15
G01X7.8584Y-3.5969
M16
G05
G00X7.6864Y-5.2063
M15
G01X8.1284Y-5.1284
M16
G05
G00X7.8322Y-5.2166
M15
G01X7.995Y-5.1879
M16
G05
G00X7.9947Y-2.8733
M15
G01X7.957Y-2.66
M16
G05
G00X7.995Y-5.1879
M15
G01X7.9895Y-5.1569
M16
G05
G00X8.0122Y-4.4693
M15
G01X7.9746Y-4.256
M16
G05
G00X8.1109Y-3.5324
M15
G01X8.0733Y-3.3192
M16
G05
G00X8.1284Y-5.1284
M15
G01X8.0908Y-4.9152
M16
G05
G00X8.1404Y-2.8836
M15
G01X8.1349Y-2.8526
M16
G05
G00X7.957Y-2.66
M15
G01X8.3991Y-2.5821
M16
G05
G00X8.2271Y-4.1915
M15
G01X8.1895Y-3.9783
M16
G05
G00X7.9947Y-2.8733
M15
G01X8.4367Y-2.7954
M16
G05
G00X8.1404Y-2.8836
M15
G01X8.3032Y-2.8549
M16
G05
G00X8.2566Y-3.5427
M15
G01X8.2511Y-3.5117
M16
G05
G00X8.0733Y-3.3192
M15
G01X8.5153Y-3.2412
M16
G05
G00X8.3032Y-2.8549
M15
G01X8.2978Y-2.8238
M16
G05
G00X8.3433Y-4.8507
M15
G01X8.3057Y-4.6374
M16
G05
G00X8.1109Y-3.5324
M15
G01X8.5529Y-3.4545
M16
G05
G00X8.2566Y-3.5427
M15
G01X8.4194Y-3.514
M16
G05
G00X8.3728Y-4.2018
M15
G01X8.3674Y-4.1708
M16
G05
G00X8.1895Y-3.9783
M15
G01X8.6315Y-3.9004
M16
G05
G00X8.4194Y-3.514
M15
G01X8.414Y-3.483
M16
G05
G00X8.4367Y-2.7954
M15
G01X8.3991Y-2.5821
M16
G05
G00X8.2271Y-4.1915
M15
G01X8.6691Y-4.1136
M16
G05
G00X8.3728Y-4.2018
M15
G01X8.5357Y-4.1731
M16
G05
G00X8.489Y-4.861
M15
G01X8.4836Y-4.8299
M16
G05
G00X8.3057Y-4.6374
M15
G01X8.7477Y-4.5595
M16
G05
G00X8.5357Y-4.1731
M15
G01X8.5302Y-4.1421
M16
G05
G00X8.5529Y-3.4545
M15
G01X8.5153Y-3.2412
M16
G05
G00X8.3433Y-4.8507
M15
G01X8.7853Y-4.7727
M16
G05
G00X8.489Y-4.861
M15
G01X8.6519Y-4.8322
M16
G05
G00X8.6519Y-4.8322
M15
G01X8.6464Y-4.8012
M16
G05
G00X8.6691Y-4.1136
M15
G01X8.6315Y-3.9004
M16
G05
G00X8.7267Y-2.9441
M15
G01X8.6891Y-2.7308
M16
G05
G00X8.7853Y-4.7727
M15
G01X8.7477Y-4.5595
M16
G05
G00X8.843Y-3.6032
M15
G01X8.8054Y-3.39
M16
G05
G00X8.8725Y-2.9544
M15
G01X8.867Y-2.9234
M16
G05
G00X8.6891Y-2.7308
M15
G01X9.1311Y-2.6529
M16
G05
G00X8.9592Y-4.2623
M15
G01X8.9216Y-4.0491
M16
G05
G00X8.7267Y-2.9441
M15
G01X9.1687Y-2.8662
M16
G05
G00X8.8725Y-2.9544
M15
G01X9.0353Y-2.9257
M16
G05
G00X8.9887Y-3.6135
M15
G01X8.9832Y-3.5825
M16
G05
G00X8.8054Y-3.39
M15
G01X9.2474Y-3.312
M16
G05
G00X9.0353Y-2.9257
M15
G01X9.0298Y-2.8946
M16
G05
G00X9.0754Y-4.9215
M15
G01X9.0378Y-4.7082
M16
G05
G00X8.843Y-3.6032
M15
G01X9.285Y-3.5253
M16
G05
G00X8.9887Y-3.6135
M15
G01X9.1515Y-3.5848
M16
G05
G00X9.1049Y-4.2726
M15
G01X9.0994Y-4.2416
M16
G05
G00X8.9216Y-4.0491
M15
G01X9.3636Y-3.9711
M16
G05
G00X9.1515Y-3.5848
M15
G01X9.1461Y-3.5538
M16
G05
G00X9.1687Y-2.8662
M15
G01X9.1311Y-2.6529
M16
G05
G00X8.9592Y-4.2623
M15
G01X9.4012Y-4.1844
M16
G05
G00X9.1049Y-4.2726
M15
G01X9.2678Y-4.2439
M16
G05
G00X9.2211Y-4.9317
M15
G01X9.2157Y-4.9007
M16
G05
G00X9.0378Y-4.7082
M15
G01X9.4798Y-4.6303
M16
G05
G00X9.2678Y-4.2439
M15
G01X9.2623Y-4.2129
M16
G05
G00X9.285Y-3.5253
M15
G01X9.2474Y-3.312
M16
G05
G00X9.0754Y-4.9215
M15
G01X9.5174Y-4.8435
M16
G05
G00X9.2211Y-4.9317
M15
G01X9.384Y-4.903
M16
G05
G00X9.384Y-4.903
M15
G01X9.3785Y-4.872
M16
G05
G00X9.4012Y-4.1844
M15
G01X9.3636Y-3.9711
M16
G05
G00X9.4451Y-2.9373
M15
G01X9.4075Y-2.7241
M16
G05
G00X9.5174Y-4.8435
M15
G01X9.4798Y-4.6303
M16
G05
G00X9.5613Y-3.5965
M15
G01X9.5237Y-3.3832
M16
G05
G00X9.5909Y-2.9476
M15
G01X9.5854Y-2.9166
M16
G05
G00X9.4075Y-2.7241
M15
G01X9.8495Y-2.6462
M16
G05
G00X9.6776Y-4.2556
M15
G01X9.64Y-4.0423
M16
G05
G00X9.4451Y-2.9373
M15
G01X9.8871Y-2.8594
M16
G05
G00X9.5909Y-2.9476
M15
G01X9.7537Y-2.9189
M16
G05
G00X9.7071Y-3.6068
M15
G01X9.7016Y-3.5757
M16
G05
G00X9.5237Y-3.3832
M15
G01X9.9657Y-3.3053
M16
G05
G00X9.7537Y-2.9189
M15
G01X9.7482Y-2.8879
M16
G05
G00X9.7938Y-4.9147
M15
G01X9.7562Y-4.7015
M16
G05
G00X9.5613Y-3.5965
M15
G01X10.0033Y-3.5185
M16
G05
G00X9.7071Y-3.6068
M15
G01X9.8699Y-3.578
M16
G05
G00X9.8233Y-4.2659
M15
G01X9.8178Y-4.2349
M16
G05
G00X9.64Y-4.0423
M15
G01X10.082Y-3.9644
M16
G05
G00X9.8699Y-3.578
M15
G01X9.8644Y-3.547
M16
G05
G00X9.8871Y-2.8594
M15
G01X9.8495Y-2.6462
M16
G05
G00X9.6776Y-4.2556
M15
G01X10.1196Y-4.1777
M16
G05
G00X9.8233Y-4.2659
M15
G01X9.9861Y-4.2372
M16
G05
G00X9.9395Y-4.925
M15
G01X9.934Y-4.894
M16
G05
G00X9.7562Y-4.7015
M15
G01X10.1982Y-4.6235
M16
G05
G00X9.9861Y-4.2372
M15
G01X9.9807Y-4.2061
M16
G05
G00X10.0033Y-3.5185
M15
G01X9.9657Y-3.3053
M16
G05
G00X9.7938Y-4.9147
M15
G01X10.2358Y-4.8368
M16
G05
G00X9.9395Y-4.925
M15
G01X10.1024Y-4.8963
M16
G05
G00X10.1024Y-4.8963
M15
G01X10.0969Y-4.8653
M16
G05
G00X10.1196Y-4.1777
M15
G01X10.082Y-3.9644
M16
G05
G00X10.2358Y-4.8368
M15
G01X10.1982Y-4.6235
M16
G05
T2
G00X1.7246Y-4.8851
M15
G01X1.8603Y-4.909
M16
G05
G00X1.8418Y-4.2272
M15
G01X1.9775Y-4.2512
M16
G05
G00X1.9571Y-3.5669
M15
G01X2.0928Y-3.5908
M16
G05
G00X2.0733Y-2.9077
M15
G01X2.209Y-2.9317
M16
G05
G00X2.443Y-4.8918
M15
G01X2.5787Y-4.9158
M16
G05
G00X2.5592Y-4.2327
M15
G01X2.695Y-4.2566
M16
G05
G00X2.6759Y-3.575
M15
G01X2.8116Y-3.5989
M16
G05
G00X2.7917Y-2.9145
M15
G01X2.9274Y-2.9384
M16
G05
G00X3.1751Y-4.8211
M15
G01X3.3108Y-4.845
M16
G05
G00X3.2913Y-4.1619
M15
G01X3.427Y-4.1859
M16
G05
G00X3.4084Y-3.5036
M15
G01X3.5441Y-3.5276
M16
G05
G00X3.5238Y-2.8437
M15
G01X3.6595Y-2.8676
M16
G05
G00X3.832Y-5.1767
M15
G01X3.9677Y-5.2007
M16
G05
G00X3.9482Y-4.5176
M15
G01X4.0839Y-4.5415
M16
G05
G00X4.0644Y-3.8585
M15
G01X4.2001Y-3.8824
M16
G05
G00X4.1807Y-3.1994
M15
G01X4.3164Y-3.2233
M16
G05
G00X4.5025Y-5.4549
M15
G01X4.6382Y-5.4788
M16
G05
G00X4.6188Y-4.7957
M15
G01X4.7545Y-4.8197
M16
G05
G00X4.735Y-4.1367
M15
G01X4.8707Y-4.1606
M16
G05
G00X4.8512Y-3.4775
M15
G01X4.9869Y-3.5014
M16
G05
G00X5.2141Y-5.5004
M15
G01X5.3498Y-5.5243
M16
G05
G00X5.3303Y-4.8413
M15
G01X5.466Y-4.8652
M16
G05
G00X6.345Y-4.8652
M15
G01X6.4807Y-4.8413
M16
G05
G00X6.4612Y-5.5243
M15
G01X6.5969Y-5.5004
M16
G05
G00X6.8241Y-3.5014
M15
G01X6.9598Y-3.4775
M16
G05
G00X6.9403Y-4.1606
M15
G01X7.076Y-4.1367
M16
G05
G00X7.0566Y-4.8197
M15
G01X7.1923Y-4.7957
M16
G05
G00X7.1728Y-5.4788
M15
G01X7.3085Y-5.4549
M16
G05
G00X7.4947Y-3.2233
M15
G01X7.6304Y-3.1994
M16
G05
G00X7.6109Y-3.8824
M15
G01X7.7466Y-3.8585
M16
G05
G00X7.7271Y-4.5415
M15
G01X7.8628Y-4.5176
M16
G05
G00X7.8433Y-5.2007
M15
G01X7.979Y-5.1767
M16
G05
G00X8.1516Y-2.8676
M15
G01X8.2873Y-2.8437
M16
G05
G00X8.2678Y-3.5267
M15
G01X8.4035Y-3.5028
M16
G05
G00X8.384Y-4.1859
M15
G01X8.5197Y-4.1619
M16
G05
G00X8.5002Y-4.845
M15
G01X8.6359Y-4.8211
M16
G05
G00X8.8836Y-2.9384
M15
G01X9.0193Y-2.9145
M16
G05
G00X8.9999Y-3.5975
M15
G01X9.1356Y-3.5736
M16
G05
G00X9.1161Y-4.2566
M15
G01X9.2518Y-4.2327
M16
G05
G00X9.2323Y-4.9158
M15
G01X9.368Y-4.8918
M16
G05
G00X9.602Y-2.9317
M15
G01X9.7377Y-2.9077
M16
G05
G00X9.7183Y-3.5908
M15
G01X9.854Y-3.5669
M16
G05
G00X9.8345Y-4.2499
M15
G01X9.9702Y-4.226
M16
G05
G00X9.9507Y-4.909
M15
G01X10.0864Y-4.8851
M16
G05
T4
G00X1.64Y-4.6623
M15
G01X1.614Y-4.8096
M16
G05
G00X1.7571Y-4.0044
M15
G01X1.7312Y-4.1517
M16
G05
G00X1.8724Y-3.3441
M15
G01X1.8464Y-3.4914
M16
G05
G00X1.9886Y-2.6849
M15
G01X1.9627Y-2.8323
M16
G05
G00X2.0161Y-4.7286
M15
G01X1.9901Y-4.876
M16
G05
G00X2.1332Y-4.0707
M15
G01X2.1073Y-4.2181
M16
G05
G00X2.2485Y-3.4104
M15
G01X2.2225Y-3.5577
M16
G05
G00X2.3584Y-4.669
M15
G01X2.3324Y-4.8164
M16
G05
G00X2.3647Y-2.7512
M15
G01X2.3388Y-2.8986
M16
G05
G00X2.4746Y-4.0099
M15
G01X2.4486Y-4.1572
M16
G05
G00X2.5912Y-3.3521
M15
G01X2.5652Y-3.4995
M16
G05
G00X2.707Y-2.6917
M15
G01X2.6811Y-2.839
M16
G05
G00X2.7345Y-4.7354
M15
G01X2.7085Y-4.8827
M16
G05
G00X2.8507Y-4.0762
M15
G01X2.8247Y-4.2236
M16
G05
G00X2.9673Y-3.4185
M15
G01X2.9413Y-3.5658
M16
G05
G00X3.0831Y-2.758
M15
G01X3.0572Y-2.9053
M16
G05
G00X3.0905Y-4.5983
M15
G01X3.0645Y-4.7456
M16
G05
G00X3.2067Y-3.9391
M15
G01X3.1807Y-4.0865
M16
G05
G00X3.3237Y-3.2808
M15
G01X3.2977Y-3.4282
M16
G05
G00X3.4391Y-2.6209
M15
G01X3.4131Y-2.7682
M16
G05
G00X3.4666Y-4.6646
M15
G01X3.4406Y-4.8119
M16
G05
G00X3.5828Y-4.0054
M15
G01X3.5568Y-4.1528
M16
G05
G00X3.6998Y-3.3471
M15
G01X3.6738Y-3.4945
M16
G05
G00X3.7473Y-4.9539
M15
G01X3.7214Y-5.1013
M16
G05
G00X3.8152Y-2.6872
M15
G01X3.7892Y-2.8345
M16
G05
G00X3.8636Y-4.2948
M15
G01X3.8376Y-4.4421
M16
G05
G00X3.9798Y-3.6357
M15
G01X3.9538Y-3.783
M16
G05
G00X4.096Y-2.9766
M15
G01X4.07Y-3.1239
M16
G05
G00X4.1234Y-5.0202
M15
G01X4.0974Y-5.1676
M16
G05
G00X4.2397Y-4.3611
M15
G01X4.2137Y-4.5084
M16
G05
G00X4.3559Y-3.702
M15
G01X4.3299Y-3.8493
M16
G05
G00X4.4179Y-5.2321
M15
G01X4.3919Y-5.3794
M16
G05
G00X4.4721Y-3.0429
M15
G01X4.4461Y-3.1902
M16
G05
G00X4.5341Y-4.5729
M15
G01X4.5081Y-4.7203
M16
G05
G00X4.6503Y-3.9138
M15
G01X4.6244Y-4.0612
M16
G05
G00X4.7666Y-3.2547
M15
G01X4.7406Y-3.402
M16
G05
G00X4.794Y-5.2984
M15
G01X4.768Y-5.4457
M16
G05
G00X4.9102Y-4.6393
M15
G01X4.8842Y-4.7866
M16
G05
G00X5.0264Y-3.9802
M15
G01X5.0004Y-4.1275
M16
G05
G00X5.1295Y-5.2776
M15
G01X5.1035Y-5.4249
M16
G05
G00X5.1426Y-3.321
M15
G01X5.1167Y-3.4684
M16
G05
G00X5.2457Y-4.6185
M15
G01X5.2197Y-4.7658
M16
G05
G00X5.5056Y-5.3439
M15
G01X5.4796Y-5.4912
M16
G05
G00X5.6218Y-4.6848
M15
G01X5.5958Y-4.8321
M16
G05
G00X6.1892Y-4.6848
M15
G01X6.2152Y-4.8321
M16
G05
G00X6.3055Y-5.3439
M15
G01X6.3314Y-5.4912
M16
G05
G00X6.5653Y-4.6185
M15
G01X6.5913Y-4.7658
M16
G05
G00X6.6684Y-3.321
M15
G01X6.6944Y-3.4684
M16
G05
G00X6.6816Y-5.2776
M15
G01X6.7075Y-5.4249
M16
G05
G00X6.7846Y-3.9802
M15
G01X6.8106Y-4.1275
M16
G05
G00X6.9008Y-4.6393
M15
G01X6.9268Y-4.7866
M16
G05
G00X7.017Y-5.2984
M15
G01X7.043Y-5.4457
M16
G05
G00X7.0445Y-3.2547
M15
G01X7.0704Y-3.402
M16
G05
G00X7.1607Y-3.9138
M15
G01X7.1867Y-4.0612
M16
G05
G00X7.2769Y-4.5729
M15
G01X7.3029Y-4.7203
M16
G05
G00X7.3389Y-3.0429
M15
G01X7.3649Y-3.1902
M16
G05
G00X7.3931Y-5.2321
M15
G01X7.4191Y-5.3794
M16
G05
G00X7.4551Y-3.702
M15
G01X7.4811Y-3.8493
M16
G05
G00X7.5714Y-4.3611
M15
G01X7.5973Y-4.5084
M16
G05
G00X7.6876Y-5.0202
M15
G01X7.7136Y-5.1676
M16
G05
G00X7.715Y-2.9766
M15
G01X7.741Y-3.1239
M16
G05
G00X7.8312Y-3.6357
M15
G01X7.8572Y-3.783
M16
G05
G00X7.9475Y-4.2948
M15
G01X7.9734Y-4.4421
M16
G05
G00X7.9958Y-2.6872
M15
G01X8.0218Y-2.8345
M16
G05
G00X8.0637Y-4.9539
M15
G01X8.0897Y-5.1013
M16
G05
G00X8.112Y-3.3463
M15
G01X8.138Y-3.4936
M16
G05
G00X8.2283Y-4.0054
M15
G01X8.2542Y-4.1528
M16
G05
G00X8.3445Y-4.6646
M15
G01X8.3705Y-4.8119
M16
G05
G00X8.3719Y-2.6209
M15
G01X8.3979Y-2.7682
M16
G05
G00X8.4881Y-3.28
M15
G01X8.5141Y-3.4273
M16
G05
G00X8.6043Y-3.9391
M15
G01X8.6303Y-4.0865
M16
G05
G00X8.7206Y-4.5983
M15
G01X8.7465Y-4.7456
M16
G05
G00X8.7279Y-2.758
M15
G01X8.7539Y-2.9053
M16
G05
G00X8.8441Y-3.4171
M15
G01X8.8701Y-3.5644
M16
G05
G00X8.9603Y-4.0762
M15
G01X8.9863Y-4.2236
M16
G05
G00X9.0766Y-4.7354
M15
G01X9.1025Y-4.8827
M16
G05
G00X9.104Y-2.6917
M15
G01X9.13Y-2.839
M16
G05
G00X9.2202Y-3.3508
M15
G01X9.2462Y-3.4981
M16
G05
G00X9.3364Y-4.0099
M15
G01X9.3624Y-4.1572
M16
G05
G00X9.4463Y-2.7512
M15
G01X9.4723Y-2.8986
M16
G05
G00X9.4527Y-4.669
M15
G01X9.4786Y-4.8164
M16
G05
G00X9.5625Y-3.4104
M15
G01X9.5885Y-3.5577
M16
G05
G00X9.6787Y-4.0695
M15
G01X9.7047Y-4.2168
M16
G05
G00X9.795Y-4.7286
M15
G01X9.8209Y-4.876
M16
G05
G00X9.8224Y-2.6849
M15
G01X9.8484Y-2.8323
M16
G05
G00X9.9386Y-3.3441
M15
G01X9.9646Y-3.4914
M16
G05
G00X10.0548Y-4.0032
M15
G01X10.0808Y-4.1505
M16
G05
G00X10.171Y-4.6623
M15
G01X10.197Y-4.8096
M16
G05
T6
G00X1.7007Y-4.749
M15
G01X1.9294Y-4.7893
M16
G05
G00X1.8178Y-4.0911
M15
G01X2.0466Y-4.1314
M16
G05
G00X1.9331Y-3.4307
M15
G01X2.1619Y-3.471
M16
G05
G00X2.0493Y-2.7716
M15
G01X2.2781Y-2.8119
M16
G05
G00X2.4191Y-4.7557
M15
G01X2.6478Y-4.796
M16
G05
G00X2.5353Y-4.0966
M15
G01X2.764Y-4.1369
M16
G05
G00X2.6519Y-3.4388
M15
G01X2.8807Y-3.4791
M16
G05
G00X2.7677Y-2.7783
M15
G01X2.9965Y-2.8187
M16
G05
G00X3.1511Y-4.6849
M15
G01X3.3799Y-4.7252
M16
G05
G00X3.2674Y-4.0258
M15
G01X3.4961Y-4.0661
M16
G05
G00X3.3844Y-3.3675
M15
G01X3.6132Y-3.4078
M16
G05
G00X3.4998Y-2.7075
M15
G01X3.7286Y-2.7479
M16
G05
G00X3.808Y-5.0406
M15
G01X4.0368Y-5.0809
M16
G05
G00X3.9242Y-4.3814
M15
G01X4.153Y-4.4218
M16
G05
G00X4.0405Y-3.7223
M15
G01X4.2692Y-3.7627
M16
G05
G00X4.1567Y-3.0632
M15
G01X4.3854Y-3.1036
M16
G05
G00X4.4786Y-5.3187
M15
G01X4.7073Y-5.3591
M16
G05
G00X4.5948Y-4.6596
M15
G01X4.8236Y-4.6999
M16
G05
G00X4.711Y-4.0005
M15
G01X4.9398Y-4.0408
M16
G05
G00X4.8272Y-3.3414
M15
G01X5.056Y-3.3817
M16
G05
G00X5.1902Y-5.3642
M15
G01X5.4189Y-5.4046
M16
G05
G00X5.3064Y-4.7051
M15
G01X5.5351Y-4.7454
M16
G05
G00X6.2759Y-4.7454
M15
G01X6.5047Y-4.7051
M16
G05
G00X6.3921Y-5.4046
M15
G01X6.6209Y-5.3642
M16
G05
G00X6.755Y-3.3817
M15
G01X6.9838Y-3.3414
M16
G05
G00X6.8713Y-4.0408
M15
G01X7.1Y-4.0005
M16
G05
G00X6.9875Y-4.6999
M15
G01X7.2162Y-4.6596
M16
G05
G00X7.1037Y-5.3591
M15
G01X7.3324Y-5.3187
M16
G05
G00X7.4256Y-3.1036
M15
G01X7.6543Y-3.0632
M16
G05
G00X7.5418Y-3.7627
M15
G01X7.7706Y-3.7223
M16
G05
G00X7.658Y-4.4218
M15
G01X7.8868Y-4.3814
M16
G05
G00X7.7742Y-5.0809
M15
G01X8.003Y-5.0406
M16
G05
G00X8.0825Y-2.7479
M15
G01X8.3112Y-2.7075
M16
G05
G00X8.1987Y-3.407
M15
G01X8.4274Y-3.3667
M16
G05
G00X8.3149Y-4.0661
M15
G01X8.5437Y-4.0258
M16
G05
G00X8.4311Y-4.7252
M15
G01X8.6599Y-4.6849
M16
G05
G00X8.8146Y-2.8187
M15
G01X9.0433Y-2.7783
M16
G05
G00X8.9308Y-3.4778
M15
G01X9.1595Y-3.4375
M16
G05
G00X9.047Y-4.1369
M15
G01X9.2758Y-4.0966
M16
G05
G00X9.1632Y-4.796
M15
G01X9.392Y-4.7557
M16
G05
G00X9.5329Y-2.8119
M15
G01X9.7617Y-2.7716
M16
G05
G00X9.6492Y-3.471
M15
G01X9.8779Y-3.4307
M16
G05
G00X9.7654Y-4.1302
M15
G01X9.9941Y-4.0898
M16
G05
G00X9.8816Y-4.7893
M15
G01X10.1104Y-4.749
M16
G05
T0
M30
