%TF.GenerationSoftware,KiCad,Pcbnew,(5.1.10)-1*%
%TF.CreationDate,2021-11-03T20:54:48-06:00*%
%TF.ProjectId,VColChoc44 - Top,56436f6c-4368-46f6-9334-34202d20546f,rev?*%
%TF.SameCoordinates,Original*%
%TF.FileFunction,Profile,NP*%
%FSLAX46Y46*%
G04 Gerber Fmt 4.6, Leading zero omitted, Abs format (unit mm)*
G04 Created by KiCad (PCBNEW (5.1.10)-1) date 2021-11-03 20:54:48*
%MOMM*%
%LPD*%
G01*
G04 APERTURE LIST*
%TA.AperFunction,Profile*%
%ADD10C,0.050000*%
%TD*%
%TA.AperFunction,Profile*%
%ADD11C,0.120000*%
%TD*%
G04 APERTURE END LIST*
D10*
X252500000Y-60000000D02*
G75*
G02*
X255000000Y-62500000I0J-2500000D01*
G01*
X35000001Y-129999999D02*
G75*
G02*
X33964468Y-127500000I2499999J2499999D01*
G01*
X266035532Y-127500000D02*
G75*
G02*
X264999999Y-129999999I-3535532J0D01*
G01*
X45000000Y-62500000D02*
G75*
G02*
X47500000Y-60000000I2500000J0D01*
G01*
X45000000Y-62500000D02*
X33964468Y-127500000D01*
X122894427Y-146211146D02*
X177105573Y-146211146D01*
X47500000Y-60000000D02*
X252500000Y-60000000D01*
X35000000Y-130000000D02*
X122894427Y-146211146D01*
X177105573Y-146211146D02*
X265000000Y-130000000D01*
X255000000Y-62500000D02*
X266035532Y-127500000D01*
D11*
%TO.C,U44*%
X261746599Y-126200039D02*
X259541267Y-113692980D01*
X246049401Y-116071961D02*
X248254732Y-128579019D01*
X246049401Y-116071961D02*
X259541267Y-113692980D01*
X248254732Y-128579019D02*
X261746599Y-126200039D01*
%TO.C,U32*%
X240547599Y-109629039D02*
X238342267Y-97121980D01*
X224850401Y-99500961D02*
X227055732Y-112008019D01*
X224850401Y-99500961D02*
X238342267Y-97121980D01*
X227055732Y-112008019D02*
X240547599Y-109629039D01*
%TO.C,U43*%
X243499599Y-126371039D02*
X241294267Y-113863980D01*
X227802401Y-116242961D02*
X230007732Y-128750019D01*
X227802401Y-116242961D02*
X241294267Y-113863980D01*
X230007732Y-128750019D02*
X243499599Y-126371039D01*
%TO.C,U42*%
X224904599Y-124573039D02*
X222699267Y-112065980D01*
X209207401Y-114444961D02*
X211412732Y-126952019D01*
X209207401Y-114444961D02*
X222699267Y-112065980D01*
X211412732Y-126952019D02*
X224904599Y-124573039D01*
%TO.C,U41*%
X208219599Y-133607039D02*
X206014267Y-121099980D01*
X192522401Y-123478961D02*
X194727732Y-135986019D01*
X192522401Y-123478961D02*
X206014267Y-121099980D01*
X194727732Y-135986019D02*
X208219599Y-133607039D01*
%TO.C,U40*%
X191187599Y-140672039D02*
X188982267Y-128164980D01*
X175490401Y-130543961D02*
X177695732Y-143051019D01*
X175490401Y-130543961D02*
X188982267Y-128164980D01*
X177695732Y-143051019D02*
X191187599Y-140672039D01*
%TO.C,U39*%
X173113599Y-141828039D02*
X170908267Y-129320980D01*
X157416401Y-131699961D02*
X159621732Y-144207019D01*
X157416401Y-131699961D02*
X170908267Y-129320980D01*
X159621732Y-144207019D02*
X173113599Y-141828039D01*
%TO.C,U33*%
X258794599Y-109458039D02*
X256589267Y-96950980D01*
X243097401Y-99329961D02*
X245302732Y-111837019D01*
X243097401Y-99329961D02*
X256589267Y-96950980D01*
X245302732Y-111837019D02*
X258794599Y-109458039D01*
%TO.C,U31*%
X221952599Y-107831039D02*
X219747267Y-95323980D01*
X206255401Y-97702961D02*
X208460732Y-110210019D01*
X206255401Y-97702961D02*
X219747267Y-95323980D01*
X208460732Y-110210019D02*
X221952599Y-107831039D01*
%TO.C,U30*%
X205267599Y-116865039D02*
X203062267Y-104357980D01*
X189570401Y-106736961D02*
X191775732Y-119244019D01*
X189570401Y-106736961D02*
X203062267Y-104357980D01*
X191775732Y-119244019D02*
X205267599Y-116865039D01*
%TO.C,U29*%
X188235599Y-123930039D02*
X186030267Y-111422980D01*
X172538401Y-113801961D02*
X174743732Y-126309019D01*
X172538401Y-113801961D02*
X186030267Y-111422980D01*
X174743732Y-126309019D02*
X188235599Y-123930039D01*
%TO.C,U28*%
X170161599Y-125086039D02*
X167956267Y-112578980D01*
X154464401Y-114957961D02*
X156669732Y-127465019D01*
X154464401Y-114957961D02*
X167956267Y-112578980D01*
X156669732Y-127465019D02*
X170161599Y-125086039D01*
%TO.C,U38*%
X122304268Y-143051019D02*
X124509599Y-130543961D01*
X111017733Y-128164980D02*
X108812401Y-140672039D01*
X111017733Y-128164980D02*
X124509599Y-130543961D01*
X108812401Y-140672039D02*
X122304268Y-143051019D01*
%TO.C,U37*%
X105272068Y-135986019D02*
X107477399Y-123478961D01*
X93985533Y-121099980D02*
X91780201Y-133607039D01*
X93985533Y-121099980D02*
X107477399Y-123478961D01*
X91780201Y-133607039D02*
X105272068Y-135986019D01*
%TO.C,U36*%
X88587468Y-126952019D02*
X90792799Y-114444961D01*
X77300933Y-112065980D02*
X75095601Y-124573039D01*
X77300933Y-112065980D02*
X90792799Y-114444961D01*
X75095601Y-124573039D02*
X88587468Y-126952019D01*
%TO.C,U35*%
X69992668Y-128750019D02*
X72197999Y-116242961D01*
X58706133Y-113863980D02*
X56500801Y-126371039D01*
X58706133Y-113863980D02*
X72197999Y-116242961D01*
X56500801Y-126371039D02*
X69992668Y-128750019D01*
%TO.C,U34*%
X51745168Y-128579019D02*
X53950499Y-116071961D01*
X40458633Y-113692980D02*
X38253301Y-126200039D01*
X40458633Y-113692980D02*
X53950499Y-116071961D01*
X38253301Y-126200039D02*
X51745168Y-128579019D01*
%TO.C,U27*%
X125256268Y-126309019D02*
X127461599Y-113801961D01*
X113969733Y-111422980D02*
X111764401Y-123930039D01*
X113969733Y-111422980D02*
X127461599Y-113801961D01*
X111764401Y-123930039D02*
X125256268Y-126309019D01*
%TO.C,U26*%
X108224268Y-119244019D02*
X110429599Y-106736961D01*
X96937733Y-104357980D02*
X94732401Y-116865039D01*
X96937733Y-104357980D02*
X110429599Y-106736961D01*
X94732401Y-116865039D02*
X108224268Y-119244019D01*
%TO.C,U25*%
X91539468Y-110210019D02*
X93744799Y-97702961D01*
X80252933Y-95323980D02*
X78047601Y-107831039D01*
X80252933Y-95323980D02*
X93744799Y-97702961D01*
X78047601Y-107831039D02*
X91539468Y-110210019D01*
%TO.C,U24*%
X72944668Y-112008019D02*
X75149999Y-99500961D01*
X61658133Y-97121980D02*
X59452801Y-109629039D01*
X61658133Y-97121980D02*
X75149999Y-99500961D01*
X59452801Y-109629039D02*
X72944668Y-112008019D01*
%TO.C,U23*%
X54721103Y-111868494D02*
X56926434Y-99361436D01*
X43434568Y-96982455D02*
X41229236Y-109489514D01*
X43434568Y-96982455D02*
X56926434Y-99361436D01*
X41229236Y-109489514D02*
X54721103Y-111868494D01*
%TO.C,U22*%
X255842599Y-92716439D02*
X253637267Y-80209380D01*
X240145401Y-82588361D02*
X242350732Y-95095419D01*
X240145401Y-82588361D02*
X253637267Y-80209380D01*
X242350732Y-95095419D02*
X255842599Y-92716439D01*
%TO.C,U21*%
X237595599Y-92887639D02*
X235390267Y-80380580D01*
X221898401Y-82759561D02*
X224103732Y-95266619D01*
X221898401Y-82759561D02*
X235390267Y-80380580D01*
X224103732Y-95266619D02*
X237595599Y-92887639D01*
%TO.C,U20*%
X219000599Y-91089339D02*
X216795267Y-78582280D01*
X203303401Y-80961261D02*
X205508732Y-93468319D01*
X203303401Y-80961261D02*
X216795267Y-78582280D01*
X205508732Y-93468319D02*
X219000599Y-91089339D01*
%TO.C,U19*%
X202315599Y-100123839D02*
X200110267Y-87616780D01*
X186618401Y-89995761D02*
X188823732Y-102502819D01*
X186618401Y-89995761D02*
X200110267Y-87616780D01*
X188823732Y-102502819D02*
X202315599Y-100123839D01*
%TO.C,U18*%
X185283599Y-107189039D02*
X183078267Y-94681980D01*
X169586401Y-97060961D02*
X171791732Y-109568019D01*
X169586401Y-97060961D02*
X183078267Y-94681980D01*
X171791732Y-109568019D02*
X185283599Y-107189039D01*
%TO.C,U17*%
X140378268Y-144207019D02*
X142583599Y-131699961D01*
X129091733Y-129320980D02*
X126886401Y-141828039D01*
X129091733Y-129320980D02*
X142583599Y-131699961D01*
X126886401Y-141828039D02*
X140378268Y-144207019D01*
%TO.C,U16*%
X128208268Y-109568019D02*
X130413599Y-97060961D01*
X116921733Y-94681980D02*
X114716401Y-107189039D01*
X116921733Y-94681980D02*
X130413599Y-97060961D01*
X114716401Y-107189039D02*
X128208268Y-109568019D01*
%TO.C,U15*%
X111176268Y-102502819D02*
X113381599Y-89995761D01*
X99889733Y-87616780D02*
X97684401Y-100123839D01*
X99889733Y-87616780D02*
X113381599Y-89995761D01*
X97684401Y-100123839D02*
X111176268Y-102502819D01*
%TO.C,U14*%
X94512311Y-93489509D02*
X96717642Y-80982451D01*
X83225776Y-78603470D02*
X81020444Y-91110529D01*
X83225776Y-78603470D02*
X96717642Y-80982451D01*
X81020444Y-91110529D02*
X94512311Y-93489509D01*
%TO.C,U13*%
X75906805Y-95300818D02*
X78112136Y-82793760D01*
X64620270Y-80414779D02*
X62414938Y-92921838D01*
X64620270Y-80414779D02*
X78112136Y-82793760D01*
X62414938Y-92921838D02*
X75906805Y-95300818D01*
%TO.C,U11*%
X252890599Y-75974639D02*
X250685267Y-63467580D01*
X237193401Y-65846561D02*
X239398732Y-78353619D01*
X237193401Y-65846561D02*
X250685267Y-63467580D01*
X239398732Y-78353619D02*
X252890599Y-75974639D01*
%TO.C,U10*%
X234643599Y-76145939D02*
X232438267Y-63638880D01*
X218946401Y-66017861D02*
X221151732Y-78524919D01*
X218946401Y-66017861D02*
X232438267Y-63638880D01*
X221151732Y-78524919D02*
X234643599Y-76145939D01*
%TO.C,U9*%
X216048599Y-74347539D02*
X213843267Y-61840480D01*
X200351401Y-64219461D02*
X202556732Y-76726519D01*
X200351401Y-64219461D02*
X213843267Y-61840480D01*
X202556732Y-76726519D02*
X216048599Y-74347539D01*
%TO.C,U8*%
X199363599Y-83382039D02*
X197158267Y-70874980D01*
X183666401Y-73253961D02*
X185871732Y-85761019D01*
X183666401Y-73253961D02*
X197158267Y-70874980D01*
X185871732Y-85761019D02*
X199363599Y-83382039D01*
%TO.C,U7*%
X182331599Y-90446939D02*
X180126267Y-77939880D01*
X166634401Y-80318861D02*
X168839732Y-92825919D01*
X166634401Y-80318861D02*
X180126267Y-77939880D01*
X168839732Y-92825919D02*
X182331599Y-90446939D01*
%TO.C,U6*%
X143330268Y-127465019D02*
X145535599Y-114957961D01*
X132043733Y-112578980D02*
X129838401Y-125086039D01*
X132043733Y-112578980D02*
X145535599Y-114957961D01*
X129838401Y-125086039D02*
X143330268Y-127465019D01*
%TO.C,U5*%
X131160268Y-92825919D02*
X133365599Y-80318861D01*
X119873733Y-77939880D02*
X117668401Y-90446939D01*
X119873733Y-77939880D02*
X133365599Y-80318861D01*
X117668401Y-90446939D02*
X131160268Y-92825919D01*
%TO.C,U4*%
X114128268Y-85761019D02*
X116333599Y-73253961D01*
X102841733Y-70874980D02*
X100636401Y-83382039D01*
X102841733Y-70874980D02*
X116333599Y-73253961D01*
X100636401Y-83382039D02*
X114128268Y-85761019D01*
%TO.C,U3*%
X97443468Y-76726519D02*
X99648799Y-64219461D01*
X86156933Y-61840480D02*
X83951601Y-74347539D01*
X86156933Y-61840480D02*
X99648799Y-64219461D01*
X83951601Y-74347539D02*
X97443468Y-76726519D01*
%TO.C,U2*%
X78848668Y-78524919D02*
X81053999Y-66017861D01*
X67562133Y-63638880D02*
X65356801Y-76145939D01*
X67562133Y-63638880D02*
X81053999Y-66017861D01*
X65356801Y-76145939D02*
X78848668Y-78524919D01*
%TO.C,U12*%
X57649168Y-95095419D02*
X59854499Y-82588361D01*
X46362633Y-80209380D02*
X44157301Y-92716439D01*
X46362633Y-80209380D02*
X59854499Y-82588361D01*
X44157301Y-92716439D02*
X57649168Y-95095419D01*
%TO.C,U1*%
X60601268Y-78353619D02*
X62806599Y-65846561D01*
X49314733Y-63467580D02*
X47109401Y-75974639D01*
X49314733Y-63467580D02*
X62806599Y-65846561D01*
X47109401Y-75974639D02*
X60601268Y-78353619D01*
%TD*%
M02*
